<svg width="36" height="36" viewBox="0 0 36 36" fill="none" xmlns="http://www.w3.org/2000/svg">
<circle cx="18" cy="18" r="18" fill="#0A6ED1"/>
<g clip-path="url(#clip0)">
<path fill-rule="evenodd" clip-rule="evenodd" d="M17 18C14.2386 18 12 20.2386 12 23V24H24V23C24 20.2386 21.7614 18 19 18H17ZM10 23C10 19.134 13.134 16 17 16H19C22.866 16 26 19.134 26 23V25C26 25.5523 25.5523 26 25 26H11C10.4477 26 10 25.5523 10 25V23Z" fill="#FEFEFE"/>
<path fill-rule="evenodd" clip-rule="evenodd" d="M13 13C13 10.2386 15.2386 8 18 8C20.7614 8 23 10.2386 23 13C23 15.7614 20.7614 18 18 18C15.2386 18 13 15.7614 13 13ZM18 10C16.3431 10 15 11.3431 15 13C15 14.6569 16.3431 16 18 16C19.6569 16 21 14.6569 21 13C21 11.3431 19.6569 10 18 10Z" fill="#FEFEFE"/>
</g>
<defs>
<clipPath id="clip0">
<rect width="25" height="25" fill="white" transform="translate(8 2)"/>
</clipPath>
</defs>
</svg>
