<svg width="16" height="17" viewBox="0 0 16 17" fill="none" xmlns="http://www.w3.org/2000/svg">
<path fill-rule="evenodd" clip-rule="evenodd" d="M8 0.5C8.46024 0.5 8.83333 0.873096 8.83333 1.33333V11.3333C8.83333 11.7936 8.46024 12.1667 8 12.1667C7.53976 12.1667 7.16667 11.7936 7.16667 11.3333V1.33333C7.16667 0.873096 7.53976 0.5 8 0.5Z" fill="#979797"/>
<path fill-rule="evenodd" clip-rule="evenodd" d="M0.5 15.5C0.5 15.0398 0.873096 14.6667 1.33333 14.6667H14.6667C15.1269 14.6667 15.5 15.0398 15.5 15.5C15.5 15.9602 15.1269 16.3333 14.6667 16.3333H1.33333C0.873096 16.3333 0.5 15.9602 0.5 15.5Z" fill="#979797"/>
<path fill-rule="evenodd" clip-rule="evenodd" d="M4.07741 7.41074C4.40285 7.08531 4.93049 7.08531 5.25592 7.41074L8 10.1548L10.7441 7.41074C11.0695 7.08531 11.5972 7.08531 11.9226 7.41074C12.248 7.73618 12.248 8.26382 11.9226 8.58926L8.58926 11.9226C8.26382 12.248 7.73618 12.248 7.41074 11.9226L4.07741 8.58926C3.75197 8.26382 3.75197 7.73618 4.07741 7.41074Z" fill="#979797"/>
</svg>
