<svg width="15" height="17" viewBox="0 0 15 17" fill="none" xmlns="http://www.w3.org/2000/svg">
<path fill-rule="evenodd" clip-rule="evenodd" d="M7.5 0.5C7.96024 0.5 8.33333 0.873096 8.33333 1.33333V11.3333C8.33333 11.7936 7.96024 12.1667 7.5 12.1667C7.03976 12.1667 6.66667 11.7936 6.66667 11.3333V1.33333C6.66667 0.873096 7.03976 0.5 7.5 0.5Z" fill="white"/>
<path fill-rule="evenodd" clip-rule="evenodd" d="M0 15.5C0 15.0398 0.373096 14.6667 0.833333 14.6667H14.1667C14.6269 14.6667 15 15.0398 15 15.5C15 15.9602 14.6269 16.3333 14.1667 16.3333H0.833333C0.373096 16.3333 0 15.9602 0 15.5Z" fill="white"/>
<path fill-rule="evenodd" clip-rule="evenodd" d="M3.57741 7.41074C3.90285 7.08531 4.43049 7.08531 4.75592 7.41074L7.5 10.1548L10.2441 7.41074C10.5695 7.08531 11.0972 7.08531 11.4226 7.41074C11.748 7.73618 11.748 8.26382 11.4226 8.58926L8.08926 11.9226C7.76382 12.248 7.23618 12.248 6.91074 11.9226L3.57741 8.58926C3.25197 8.26382 3.25197 7.73618 3.57741 7.41074Z" fill="white"/>
</svg>
