<svg width="30" height="30" viewBox="0 0 30 30" fill="none" xmlns="http://www.w3.org/2000/svg">
<path fill-rule="evenodd" clip-rule="evenodd" d="M3.75 7.5C3.75 5.42893 5.42893 3.75 7.5 3.75H22.5C24.5711 3.75 26.25 5.42893 26.25 7.5V22.5C26.25 24.5711 24.5711 26.25 22.5 26.25H7.5C5.42893 26.25 3.75 24.5711 3.75 22.5V7.5ZM7.5 6.25C6.80964 6.25 6.25 6.80964 6.25 7.5V22.5C6.25 23.1904 6.80964 23.75 7.5 23.75H22.5C23.1904 23.75 23.75 23.1904 23.75 22.5V7.5C23.75 6.80964 23.1904 6.25 22.5 6.25H7.5Z" fill="#22262B"/>
<path d="M16.25 17.5C16.25 16.8096 16.8096 16.25 17.5 16.25H20C20.6904 16.25 21.25 16.8096 21.25 17.5V20C21.25 20.6904 20.6904 21.25 20 21.25H17.5C16.8096 21.25 16.25 20.6904 16.25 20V17.5Z" fill="#22262B"/>
<path fill-rule="evenodd" clip-rule="evenodd" d="M11.25 1.25C11.9404 1.25 12.5 1.80964 12.5 2.5V7.5C12.5 8.19036 11.9404 8.75 11.25 8.75C10.5596 8.75 10 8.19036 10 7.5V2.5C10 1.80964 10.5596 1.25 11.25 1.25Z" fill="#22262B"/>
<path fill-rule="evenodd" clip-rule="evenodd" d="M3.75 12.5C3.75 11.8096 4.30964 11.25 5 11.25H25C25.6904 11.25 26.25 11.8096 26.25 12.5C26.25 13.1904 25.6904 13.75 25 13.75H5C4.30964 13.75 3.75 13.1904 3.75 12.5Z" fill="#22262B"/>
<path fill-rule="evenodd" clip-rule="evenodd" d="M18.75 1.25C19.4404 1.25 20 1.80964 20 2.5V7.5C20 8.19036 19.4404 8.75 18.75 8.75C18.0596 8.75 17.5 8.19036 17.5 7.5V2.5C17.5 1.80964 18.0596 1.25 18.75 1.25Z" fill="#22262B"/>
</svg>
