<svg width="1440" height="496" viewBox="0 0 1440 496" fill="none" xmlns="http://www.w3.org/2000/svg">
<mask id="mask0" mask-type="alpha" maskUnits="userSpaceOnUse" x="-232" y="-270" width="1738" height="766">
<path fill-rule="evenodd" clip-rule="evenodd" d="M-48.5027 -4.5C-48.5027 -4.5 273.016 -91.5666 764.114 -49.69C1255.21 -7.81346 1357.54 -270 1357.54 -270H1506V103.862L1463.1 249.028C1463.1 249.028 1095.23 391.952 825.471 362.896C555.709 333.84 278.476 317.568 -80.1265 471.444C-438.729 625.319 -48.5027 -4.5 -48.5027 -4.5Z" fill="white"/>
</mask>
<g mask="url(#mask0)">
<path fill-rule="evenodd" clip-rule="evenodd" d="M-46.0027 -22.5C-46.0027 -22.5 293.016 -89.5666 784.114 -47.69C1275.21 -5.81346 1377.54 -268 1377.54 -268H1526V105.862L1483.1 251.028C1483.1 251.028 1115.23 393.952 845.471 364.896C575.709 335.84 298.476 319.568 -60.1262 473.444C-418.729 627.319 -46.0027 -22.5 -46.0027 -22.5Z" fill="url(#paint0_linear)"/>
<path fill-rule="evenodd" clip-rule="evenodd" d="M1049.41 -46.13C1049.41 -46.13 855.922 15.3527 903.604 138.782C951.285 262.211 693.411 336.369 693.411 336.369C693.411 336.369 275.155 480.598 1026.28 564.374C1777.41 648.15 1181.53 -97.5508 1181.53 -97.5508L1049.41 -46.13Z" fill="url(#paint1_linear)"/>
<path fill-rule="evenodd" clip-rule="evenodd" d="M1386.28 -141.204C1386.28 -141.204 1192.78 -79.7216 1240.47 43.7078C1288.15 167.137 1030.27 241.295 1030.27 241.295C1030.27 241.295 612.017 385.524 1363.14 469.3C2114.27 553.076 1518.39 -192.625 1518.39 -192.625L1386.28 -141.204Z" fill="url(#paint2_linear)"/>
<path fill-rule="evenodd" clip-rule="evenodd" d="M751.012 -120.53C751.012 -120.53 837.058 201.207 951.263 109.709C1065.47 18.2117 1226.28 109.709 1226.28 109.709C1226.28 109.709 1483.95 277.66 1182.07 -277.784C880.185 -833.229 751.012 -120.53 751.012 -120.53Z" fill="url(#paint3_linear)"/>
<path opacity="0.45" fill-rule="evenodd" clip-rule="evenodd" d="M-77.0368 559.128C-77.0368 559.128 314.359 349.706 654.816 559.128C995.274 768.55 1440.12 256.953 1440.12 256.953C1440.12 256.953 1847.31 -263.665 2191.66 322.906C2536.01 909.477 701.539 1039.91 701.539 1039.91L-151.643 839.666L-77.0368 559.128Z" fill="url(#paint4_linear)"/>
<path opacity="0.2" fill-rule="evenodd" clip-rule="evenodd" d="M-28.3109 396.593C-28.3109 396.593 368.276 205.685 703.097 430.973C1037.92 656.261 1495.76 165.872 1495.76 165.872C1495.76 165.872 1916.2 -335.3 2245.13 267.09C2574.07 869.48 737.325 913.654 737.325 913.654L-110.145 673.455L-28.3109 396.593Z" fill="white"/>
<g opacity="0.4" filter="url(#filter0_i)">
<path fill-rule="evenodd" clip-rule="evenodd" d="M830.074 407.357C863.1 385.779 944.64 379.826 1020.89 411.113C1097.14 442.399 1201.94 451.173 1235.75 436.651C1269.55 422.128 1379.99 430.933 1434.08 468.198C1488.17 505.462 1349.19 665.313 1160.62 616.919C1046.43 587.669 894.495 512.431 830.074 407.357Z" fill="#D6E3FA"/>
</g>
<mask id="mask1" mask-type="alpha" maskUnits="userSpaceOnUse" x="830" y="389" width="616" height="237">
<path fill-rule="evenodd" clip-rule="evenodd" d="M830.074 407.357C863.1 385.779 944.64 379.826 1020.89 411.113C1097.14 442.399 1201.94 451.173 1235.75 436.651C1269.55 422.128 1379.99 430.933 1434.08 468.198C1488.17 505.462 1349.19 665.313 1160.62 616.919C1046.43 587.669 894.495 512.431 830.074 407.357Z" fill="white"/>
</mask>
<g mask="url(#mask1)">
<path fill-rule="evenodd" clip-rule="evenodd" d="M1042.65 444.001C1040.15 442.461 982.284 402.654 978.218 396.845C974.153 391.037 1026.15 408.931 1026.15 408.931C1026.15 408.931 1045.15 445.54 1042.65 444.001Z" fill="url(#paint5_linear)" style="mix-blend-mode:multiply"/>
<path fill-rule="evenodd" clip-rule="evenodd" d="M930.717 440.995C928.221 439.456 870.351 399.649 866.286 393.84C862.221 388.031 902.911 389.352 902.911 389.352C902.911 389.352 933.214 442.535 930.717 440.995Z" fill="url(#paint6_linear)" style="mix-blend-mode:multiply"/>
</g>
<path fill-rule="evenodd" clip-rule="evenodd" d="M973.893 327.067C973.893 335.068 973.893 338.561 972.439 343.484C970.986 348.408 1006.18 367.774 1046.67 348.988C1046.67 337.646 1048.07 332.8 1049.15 328.634C1050.23 324.469 976.915 321.183 973.893 327.067Z" fill="url(#paint7_linear)"/>
<mask id="mask2" mask-type="alpha" maskUnits="userSpaceOnUse" x="972" y="323" width="78" height="35">
<path fill-rule="evenodd" clip-rule="evenodd" d="M973.893 327.067C973.893 335.068 973.893 338.561 972.439 343.484C970.986 348.408 1006.18 367.774 1046.67 348.988C1046.67 337.646 1048.07 332.8 1049.15 328.634C1050.23 324.469 976.915 321.183 973.893 327.067Z" fill="white"/>
</mask>
<g mask="url(#mask2)">
<g opacity="0.5">
<path fill-rule="evenodd" clip-rule="evenodd" d="M977.786 330.405C980.855 333.674 1024.14 350.631 1046.67 343.889C1069.2 337.147 1046.67 330.405 1046.67 330.405C1046.67 330.405 974.717 327.135 977.786 330.405Z" fill="url(#paint8_linear)" style="mix-blend-mode:multiply"/>
</g>
</g>
<path fill-rule="evenodd" clip-rule="evenodd" d="M972.734 342.235C980.242 353 1019.15 358.367 1045.88 347.988C1066.89 380.891 1056.94 415.438 1045.42 522.769C1046.99 562.881 1043.85 599.483 1042.28 649.097C1039.6 652.968 1032.99 654.204 1025.51 651.449C1021.38 613.464 1014.49 606.036 1008.85 527.812C1005.92 501.114 1003.07 419.357 1003.07 419.357C1003.07 419.357 982.207 458.377 961.568 514.849C975.87 544.848 967.609 582.976 981.435 632.069C976.152 640.635 970.674 640.721 964.704 638.908C956.246 614.983 938.871 572.368 927.258 520.568C927.258 499.399 930.244 443.542 972.734 342.235Z" fill="url(#paint9_linear)"/>
<path fill-rule="evenodd" clip-rule="evenodd" d="M1007.58 108.206C1007.58 108.206 1019.26 94.5406 1031.51 88.1749C1051.34 86.7882 1073.64 111.608 1073.01 123.396C1072.38 135.185 1065.17 139.627 1058 144.13C1050.83 148.633 1007.58 108.206 1007.58 108.206Z" fill="url(#paint10_linear)"/>
<path fill-rule="evenodd" clip-rule="evenodd" d="M1006.58 167.738C1043.36 184.888 1057.04 192.212 1069.52 178.322C1081.99 164.433 1072.12 130.017 1039.77 107.925C1007.41 85.833 977.649 87.8075 969.532 105.211C961.416 122.615 969.798 150.589 1006.58 167.738Z" fill="url(#paint11_radial)"/>
<path fill-rule="evenodd" clip-rule="evenodd" d="M995.134 228.969C999.563 216.868 1010.36 201.835 1009.01 190.79C1007.65 179.745 1041.95 161.703 1040.73 169.41C1039.51 177.118 1037.24 220.51 1046.53 224.734C1055.82 228.959 990.705 241.071 995.134 228.969Z" fill="url(#paint12_linear)"/>
<path fill-rule="evenodd" clip-rule="evenodd" d="M1010.55 116.505C1000.04 122.036 987.54 127.085 990.717 153.495C993.894 179.905 993.353 186.654 1004.99 196.751C1012.83 196.751 1023.09 199.917 1030.83 189.622C1032.09 187.935 1035.2 173.236 1036.72 172.8C1038.61 172.254 1040.53 171.147 1041.74 168.055C1045.03 159.643 1043.4 151.089 1041.74 147.551C1039.04 141.765 1021.06 110.973 1010.55 116.505Z" fill="url(#paint13_linear)"/>
<path fill-rule="evenodd" clip-rule="evenodd" d="M1008.84 119.383C1000.68 122.338 987.929 128.249 991.663 154.422C995.397 180.596 1000.45 190.078 1008.84 195.372C1017.23 200.665 998.258 220.257 996.99 228.475C995.721 236.692 985.253 215.376 985.408 206.539C985.563 197.702 985.479 189.082 985.408 173.042C985.337 157.002 981.159 133.68 994.853 122.112C1008.55 110.544 1017 116.427 1008.84 119.383Z" fill="url(#paint14_linear)"/>
<path fill-rule="evenodd" clip-rule="evenodd" d="M1001.31 120.552C1004.08 122.751 1000.69 128.237 1006.46 138.033C1012.64 148.547 1019.97 154.199 1034.9 151.843C1042.72 150.608 1034.21 176.261 1026.72 187.903C1019.23 199.544 1013.49 219.127 1024.46 236.515C1045.66 236.515 1055.6 225.527 1055.6 225.527C1055.6 225.527 1055.6 200.566 1055.6 170.112C1055.6 139.659 1038.11 123.046 1026.72 117.614C1015.32 112.182 996.075 116.392 1001.31 120.552Z" fill="url(#paint15_radial)"/>
<g filter="url(#filter1_i)">
<path fill-rule="evenodd" clip-rule="evenodd" d="M921.226 191.874C921.226 191.874 954.186 204.645 974.48 210.418C994.774 216.19 989.741 229.542 1007.69 230.279C1025.64 231.016 1044.44 232.385 1050.78 216.19C1057.12 199.995 1081.33 220.752 1078.4 234.427C1077.34 239.402 1072.14 261.821 1070.57 275.996C1067.83 300.778 1057.11 321.796 1055.33 330.411C1052.54 343.953 971.235 341.392 972.912 322.754C975.134 298.067 966.593 257.459 965.073 255.668C962.404 252.525 938.699 246.291 921.226 241.767C921.226 222.656 921.226 191.874 921.226 191.874Z" fill="url(#paint16_linear)"/>
</g>
<path fill-rule="evenodd" clip-rule="evenodd" d="M920.442 242.039C925.637 242.039 929.849 236.742 929.849 220.779C929.849 204.815 925.637 191.874 920.442 191.874C915.246 191.874 911.034 204.815 911.034 220.779C911.034 236.742 915.246 242.039 920.442 242.039Z" fill="url(#paint17_linear)"/>
<path fill-rule="evenodd" clip-rule="evenodd" d="M929.743 227.449C918.801 225.081 889.593 213.121 886.761 212.789C883.929 212.457 865.238 203.391 852.272 198.195C839.306 192.998 826.53 178.294 819.879 176.574C813.228 174.853 813.48 159.294 825.565 163.729C837.65 168.164 850.698 171.83 861.341 175.261C871.984 178.692 880.335 184.443 891.01 185.229C901.686 186.015 911.203 189.263 921.781 192.006C929.743 198.195 930.95 218.395 929.743 227.449Z" fill="url(#paint18_linear)"/>
<mask id="mask3" mask-type="alpha" maskUnits="userSpaceOnUse" x="815" y="162" width="116" height="66">
<path fill-rule="evenodd" clip-rule="evenodd" d="M929.743 227.449C918.801 225.081 889.593 213.121 886.761 212.789C883.929 212.457 865.238 203.391 852.272 198.195C839.306 192.998 826.53 178.294 819.879 176.574C813.228 174.853 813.48 159.294 825.565 163.729C837.65 168.164 850.698 171.83 861.341 175.261C871.984 178.692 880.335 184.443 891.01 185.229C901.686 186.015 911.203 189.263 921.781 192.006C929.743 198.195 930.95 218.395 929.743 227.449Z" fill="white"/>
</mask>
<g mask="url(#mask3)">
<path fill-rule="evenodd" clip-rule="evenodd" d="M922.26 192.191C922.26 192.191 917.393 219.259 910.723 224.716C904.052 230.172 942.979 232.93 942.979 232.93L922.26 192.191Z" fill="url(#paint19_linear)"/>
</g>
<path fill-rule="evenodd" clip-rule="evenodd" d="M798.45 153.221C798.45 153.221 789.488 154.389 787.457 155.628C785.426 156.866 779.986 163.255 779.242 164.271C778.499 165.287 773.672 170.582 774.439 171.923C775.206 173.264 778.364 173.316 779.53 170.985C780.697 168.653 781.594 168.682 782.896 166.85C784.714 166.463 789.709 162.768 791.141 162.617C792.574 162.467 804.679 166.96 804.679 166.96C804.679 166.96 811.472 165.012 808.898 159.455C806.323 153.898 798.45 153.221 798.45 153.221Z" fill="#90AADB"/>
<path fill-rule="evenodd" clip-rule="evenodd" d="M799.453 168.269C796.476 168.582 788.962 168.899 786.997 168.429C785.032 167.958 780.592 168.196 780.915 171.264C781.237 174.331 785.435 174.609 787.677 174.893C789.919 175.177 793.407 175.719 796.452 176.904C799.497 178.09 807.728 178.942 811.66 178.11C815.591 177.278 820.495 177.605 822.022 178.103C823.548 178.601 827.481 167.573 825.276 163.616C819.415 162.196 806.294 153.126 804.699 152.943C803.739 152.833 797.933 158.899 801.229 162.726C803.927 165.859 801.226 168.082 799.453 168.269Z" fill="#A1B8E3"/>
<path fill-rule="evenodd" clip-rule="evenodd" d="M776.195 151.541C771.455 150.257 768.172 147.67 769.729 144.79C771.286 141.91 773.282 144.464 775.537 145.282C777.792 146.1 787.792 148.129 790.544 148.411C791.855 148.545 795.013 149.517 798.087 150.673C801.461 151.942 804.105 151.467 804.718 152.317C805.89 153.939 807.817 164.993 802.21 162.559C796.602 160.125 795.985 158.15 792.279 155.657C788.573 153.164 780.935 152.825 776.195 151.541Z" fill="#A1B8E3"/>
<path fill-rule="evenodd" clip-rule="evenodd" d="M1136.25 54.8223C1136.25 54.8223 1144.73 34.6137 1155.96 26.6076C1175.4 22.4769 1194.17 42.13 1197.44 52.7606C1200.72 63.3912 1193.98 74.1662 1187.52 79.6222C1181.05 85.0782 1136.25 54.8223 1136.25 54.8223Z" fill="url(#paint20_linear)"/>
<path fill-rule="evenodd" clip-rule="evenodd" d="M1141.93 108.542C1178.7 125.686 1189.91 124.97 1202.39 111.079C1214.86 97.1868 1207.46 70.8097 1175.12 48.7219C1142.77 26.634 1113.02 28.613 1104.9 46.0182C1096.78 63.4233 1105.16 91.3971 1141.93 108.542Z" fill="url(#paint21_radial)"/>
<path fill-rule="evenodd" clip-rule="evenodd" d="M1172.44 118.692C1172.44 124.549 1169.91 145.454 1172.44 151.722C1173.3 153.848 1171.64 158.06 1172.44 159.742C1175.39 165.96 1158.39 180.314 1158.39 180.314L1153.21 226.362H1135.25C1135.25 226.362 1139.29 184.395 1137.34 180.314C1135.4 176.232 1135.25 168.833 1135.25 161.873C1135.25 154.913 1135.25 140.828 1139.52 134.515C1143.8 128.202 1172.44 110.663 1172.44 118.692Z" fill="url(#paint22_linear)"/>
<mask id="mask4" mask-type="alpha" maskUnits="userSpaceOnUse" x="1135" y="116" width="38" height="111">
<path fill-rule="evenodd" clip-rule="evenodd" d="M1172.44 118.692C1172.44 124.549 1169.91 145.454 1172.44 151.722C1173.3 153.848 1171.64 158.06 1172.44 159.742C1175.39 165.96 1158.39 180.314 1158.39 180.314L1153.21 226.362H1135.25C1135.25 226.362 1139.29 184.395 1137.34 180.314C1135.4 176.232 1135.25 168.833 1135.25 161.873C1135.25 154.913 1135.25 140.828 1139.52 134.515C1143.8 128.202 1172.44 110.663 1172.44 118.692Z" fill="white"/>
</mask>
<g mask="url(#mask4)">
<g opacity="0.153292">
<path fill-rule="evenodd" clip-rule="evenodd" d="M1143.09 148.919C1144.62 149.525 1146.09 150.09 1147.51 150.616C1174.37 160.577 1181.9 156.354 1181.9 148.919C1181.9 141.091 1172.46 104.338 1172.46 104.338C1172.46 104.338 1112.64 136.824 1143.09 148.919Z" fill="url(#paint23_linear)" style="mix-blend-mode:multiply"/>
</g>
</g>
<path fill-rule="evenodd" clip-rule="evenodd" d="M1127.81 60.4725C1124.08 69.9824 1120.1 74.7937 1121.97 86.7428C1123.83 98.6917 1122.03 97.6881 1120.9 104.171C1119.77 110.653 1118.33 116.002 1121.49 128.445C1124.65 140.889 1126.61 149.587 1136.79 149.547C1146.97 149.507 1160.08 147.298 1164.4 139.632C1166.15 136.537 1166.85 134.833 1168.08 129.983C1168.95 126.572 1169.61 124.229 1169.61 119.345C1171.82 124.733 1176.47 121.858 1176.82 121.577C1179.55 119.348 1182 114.241 1182.24 109.421C1182.71 99.7624 1179.53 77.3931 1168.47 73.6963C1157.41 69.9996 1131.54 50.9625 1127.81 60.4725Z" fill="url(#paint24_linear)"/>
<path fill-rule="evenodd" clip-rule="evenodd" d="M1204.64 356.107C1208.4 367.921 1216.75 397.914 1216.36 420.197C1215.98 442.481 1212.48 582.462 1207.47 696.094C1199.34 700.813 1182.14 700.671 1172.57 695.622C1163.95 606.377 1149.73 430.946 1149.73 430.946C1146.84 460.81 1124.27 680.863 1124.27 689.603C1124.27 698.342 1101.79 700.381 1094.11 694.389C1091.78 593.953 1082.12 407.524 1082.12 407.524L1091.78 354.138C1091.78 354.138 1200.87 344.294 1204.64 356.107Z" fill="url(#paint25_linear)"/>
<mask id="mask5" mask-type="alpha" maskUnits="userSpaceOnUse" x="1082" y="350" width="135" height="350">
<path fill-rule="evenodd" clip-rule="evenodd" d="M1204.64 356.107C1208.4 367.921 1216.75 397.914 1216.36 420.197C1215.98 442.481 1212.48 582.462 1207.47 696.094C1199.34 700.813 1182.14 700.671 1172.57 695.622C1163.95 606.377 1149.73 430.946 1149.73 430.946C1146.84 460.81 1124.27 680.863 1124.27 689.603C1124.27 698.342 1101.79 700.381 1094.11 694.389C1091.78 593.953 1082.12 407.524 1082.12 407.524L1091.78 354.138C1091.78 354.138 1200.87 344.294 1204.64 356.107Z" fill="white"/>
</mask>
<g mask="url(#mask5)">
<path fill-rule="evenodd" clip-rule="evenodd" d="M1128.77 646.508C1117.53 598.765 1128.77 452.429 1148.55 433.02C1157.24 443.82 1140 694.252 1128.77 646.508Z" fill="url(#paint26_linear)" style="mix-blend-mode:multiply"/>
<path fill-rule="evenodd" clip-rule="evenodd" d="M1108.37 373.553C1110.15 374.155 1117.26 383.259 1119.18 383.888C1142.63 391.558 1171.21 392.101 1202.65 386.239C1236.65 379.896 1210.51 357.643 1210.51 357.643C1210.51 357.643 1084.94 365.613 1108.37 373.553Z" fill="url(#paint27_linear)" style="mix-blend-mode:multiply"/>
</g>
<path fill-rule="evenodd" clip-rule="evenodd" d="M1085.7 406.715C1088.55 398.288 1086.68 386.646 1093.39 385.823C1089.06 375.351 1097.03 339.331 1097.03 339.331C1097.03 339.331 1062.17 324.231 1065.93 335.554C1069.7 346.877 1074.08 386.552 1078.28 394.334C1082.48 402.116 1082.86 415.143 1085.7 406.715Z" fill="url(#paint28_linear)"/>
<mask id="mask6" mask-type="alpha" maskUnits="userSpaceOnUse" x="1065" y="331" width="33" height="79">
<path fill-rule="evenodd" clip-rule="evenodd" d="M1085.7 406.715C1088.55 398.288 1086.68 386.646 1093.39 385.823C1089.06 375.351 1097.03 339.331 1097.03 339.331C1097.03 339.331 1062.17 324.231 1065.93 335.554C1069.7 346.877 1074.08 386.552 1078.28 394.334C1082.48 402.116 1082.86 415.143 1085.7 406.715Z" fill="white"/>
</mask>
<g mask="url(#mask6)">
<g opacity="0.3">
<path fill-rule="evenodd" clip-rule="evenodd" d="M1098.46 394.263C1090.13 383.628 1078.61 376.062 1078.61 360.774C1078.61 345.485 1088.53 337.016 1088.53 337.016C1088.53 337.016 1106.79 404.899 1098.46 394.263Z" fill="url(#paint29_linear)" style="mix-blend-mode:multiply"/>
</g>
</g>
<path fill-rule="evenodd" clip-rule="evenodd" d="M1131.6 164.29C1131.6 164.29 1117.02 175.862 1113.4 176.834C1109.78 177.807 1086.27 187.56 1084.89 190.55C1083.5 193.539 1076.21 204.834 1076.46 207.884C1076.7 210.933 1086.18 278.11 1084.89 309.817C1083.59 341.524 1084.89 337.212 1084.89 344.69C1084.89 352.168 1079.38 362.398 1082.13 368.024C1084.89 373.65 1089.62 374.974 1096.82 376.582C1104.02 378.19 1109.22 380.069 1119.47 376.582C1129.72 373.096 1135.45 381.033 1152.4 378.808C1169.34 376.582 1183.89 383.603 1196.64 366.56C1201.33 369.577 1203.76 367.586 1211.25 363.384C1218.74 359.182 1218.16 344.223 1215.92 339.033C1213.67 333.844 1203.62 328.397 1207.43 316.845C1211.25 305.292 1215.92 266.764 1215.92 249.375C1215.92 231.985 1226.15 200.624 1229.32 190.55C1220.25 183.724 1180.87 162.001 1173.37 159.737C1170.44 167.564 1156.19 171.498 1153.84 169.411C1151.49 167.325 1152.89 184.133 1152.89 184.133C1152.89 184.133 1150.06 190.55 1147.42 197.285C1144.78 204.021 1138.69 214.573 1138.69 221.836C1133.12 216.233 1139.89 200.078 1138.69 193.818C1137.3 186.618 1140.07 179.816 1143.12 170.364C1138.69 169.323 1138.3 171.099 1136.92 169.215C1133.33 164.29 1131.6 164.29 1131.6 164.29Z" fill="url(#paint30_linear)"/>
<path fill-rule="evenodd" clip-rule="evenodd" d="M1131.6 164.29C1131.6 164.29 1117.02 175.862 1113.4 176.834C1109.78 177.807 1086.27 187.56 1084.89 190.55C1083.5 193.539 1076.21 204.834 1076.46 207.884C1076.7 210.933 1086.18 278.11 1084.89 309.817C1083.59 341.524 1084.89 337.212 1084.89 344.69C1084.89 352.168 1079.38 362.398 1082.13 368.024C1084.89 373.65 1089.62 374.974 1096.82 376.582C1104.02 378.19 1109.22 380.069 1119.47 376.582C1129.72 373.096 1135.45 381.033 1152.4 378.808C1169.34 376.582 1183.89 383.603 1196.64 366.56C1201.33 369.577 1203.76 367.586 1211.25 363.384C1218.74 359.182 1218.16 344.223 1215.92 339.033C1213.67 333.844 1203.62 328.397 1207.43 316.845C1211.25 305.292 1215.92 266.764 1215.92 249.375C1215.92 231.985 1226.15 200.624 1229.32 190.55C1220.25 183.724 1180.87 162.001 1173.37 159.737C1170.44 167.564 1156.19 171.498 1153.84 169.411C1151.49 167.325 1152.89 184.133 1152.89 184.133C1152.89 184.133 1150.06 190.55 1147.42 197.285C1144.78 204.021 1138.69 214.573 1138.69 221.836C1133.12 216.233 1139.89 200.078 1138.69 193.818C1137.3 186.618 1140.07 179.816 1143.12 170.364C1138.69 169.323 1138.3 171.099 1136.92 169.215C1133.33 164.29 1131.6 164.29 1131.6 164.29Z" fill="url(#paint31_linear)"/>
<path fill-rule="evenodd" clip-rule="evenodd" d="M1131.6 164.29C1131.6 164.29 1117.02 175.862 1113.4 176.834C1109.78 177.807 1086.27 187.56 1084.89 190.55C1083.5 193.539 1076.21 204.834 1076.46 207.884C1076.7 210.933 1086.18 278.11 1084.89 309.817C1083.59 341.524 1084.89 337.212 1084.89 344.69C1084.89 352.168 1079.38 362.398 1082.13 368.024C1084.89 373.65 1089.62 374.974 1096.82 376.582C1104.02 378.19 1109.22 380.069 1119.47 376.582C1129.72 373.096 1135.45 381.033 1152.4 378.808C1169.34 376.582 1183.89 383.603 1196.64 366.56C1201.33 369.577 1203.76 367.586 1211.25 363.384C1218.74 359.182 1218.16 344.223 1215.92 339.033C1213.67 333.844 1203.62 328.397 1207.43 316.845C1211.25 305.292 1215.92 266.764 1215.92 249.375C1215.92 231.985 1226.15 200.624 1229.32 190.55C1220.25 183.724 1180.87 162.001 1173.37 159.737C1170.44 167.564 1156.19 171.498 1153.84 169.411C1151.49 167.325 1152.89 184.133 1152.89 184.133C1152.89 184.133 1150.06 190.55 1147.42 197.285C1144.78 204.021 1138.69 214.573 1138.69 221.836C1133.12 216.233 1139.89 200.078 1138.69 193.818C1137.3 186.618 1140.07 179.816 1143.12 170.364C1138.69 169.323 1138.3 171.099 1136.92 169.215C1133.33 164.29 1131.6 164.29 1131.6 164.29Z" fill="url(#paint32_linear)"/>
<mask id="mask7" mask-type="alpha" maskUnits="userSpaceOnUse" x="1076" y="159" width="154" height="221">
<path fill-rule="evenodd" clip-rule="evenodd" d="M1131.6 164.29C1131.6 164.29 1117.02 175.862 1113.4 176.834C1109.78 177.807 1086.27 187.56 1084.89 190.55C1083.5 193.539 1076.21 204.834 1076.46 207.884C1076.7 210.933 1086.18 278.11 1084.89 309.817C1083.59 341.524 1084.89 337.212 1084.89 344.69C1084.89 352.168 1079.38 362.398 1082.13 368.024C1084.89 373.65 1089.62 374.974 1096.82 376.582C1104.02 378.19 1109.22 380.069 1119.47 376.582C1129.72 373.096 1135.45 381.033 1152.4 378.808C1169.34 376.582 1183.89 383.603 1196.64 366.56C1201.33 369.577 1203.76 367.586 1211.25 363.384C1218.74 359.182 1218.16 344.223 1215.92 339.033C1213.67 333.844 1203.62 328.397 1207.43 316.845C1211.25 305.292 1215.92 266.764 1215.92 249.375C1215.92 231.985 1226.15 200.624 1229.32 190.55C1220.25 183.724 1180.87 162.001 1173.37 159.737C1170.44 167.564 1156.19 171.498 1153.84 169.411C1151.49 167.325 1152.89 184.133 1152.89 184.133C1152.89 184.133 1150.06 190.55 1147.42 197.285C1144.78 204.021 1138.69 214.573 1138.69 221.836C1133.12 216.233 1139.89 200.078 1138.69 193.818C1137.3 186.618 1140.07 179.816 1143.12 170.364C1138.69 169.323 1138.3 171.099 1136.92 169.215C1133.33 164.29 1131.6 164.29 1131.6 164.29Z" fill="white"/>
<path fill-rule="evenodd" clip-rule="evenodd" d="M1131.6 164.29C1131.6 164.29 1117.02 175.862 1113.4 176.834C1109.78 177.807 1086.27 187.56 1084.89 190.55C1083.5 193.539 1076.21 204.834 1076.46 207.884C1076.7 210.933 1086.18 278.11 1084.89 309.817C1083.59 341.524 1084.89 337.212 1084.89 344.69C1084.89 352.168 1079.38 362.398 1082.13 368.024C1084.89 373.65 1089.62 374.974 1096.82 376.582C1104.02 378.19 1109.22 380.069 1119.47 376.582C1129.72 373.096 1135.45 381.033 1152.4 378.808C1169.34 376.582 1183.89 383.603 1196.64 366.56C1201.33 369.577 1203.76 367.586 1211.25 363.384C1218.74 359.182 1218.16 344.223 1215.92 339.033C1213.67 333.844 1203.62 328.397 1207.43 316.845C1211.25 305.292 1215.92 266.764 1215.92 249.375C1215.92 231.985 1226.15 200.624 1229.32 190.55C1220.25 183.724 1180.87 162.001 1173.37 159.737C1170.44 167.564 1156.19 171.498 1153.84 169.411C1151.49 167.325 1152.89 184.133 1152.89 184.133C1152.89 184.133 1150.06 190.55 1147.42 197.285C1144.78 204.021 1138.69 214.573 1138.69 221.836C1133.12 216.233 1139.89 200.078 1138.69 193.818C1137.3 186.618 1140.07 179.816 1143.12 170.364C1138.69 169.323 1138.3 171.099 1136.92 169.215C1133.33 164.29 1131.6 164.29 1131.6 164.29Z" stroke="white"/>
</mask>
<g mask="url(#mask7)">
<g opacity="0.2">
<mask id="path-45-outside-1" maskUnits="userSpaceOnUse" x="1123.14" y="228.715" width="18" height="148" fill="black">
<rect fill="white" x="1123.14" y="228.715" width="18" height="148"/>
<path fill-rule="evenodd" clip-rule="evenodd" d="M1132.11 375.29C1128.19 363.532 1125.84 301.61 1129.76 281.231C1133.68 260.852 1137.6 234.985 1136.81 229.499"/>
</mask>
<path d="M1129.76 281.231L1133.69 281.987L1133.69 281.987L1129.76 281.231ZM1135.91 374.025C1135.1 371.595 1134.24 365.981 1133.52 358.135C1132.82 350.457 1132.29 341.061 1131.99 331.373C1131.4 311.844 1131.82 291.685 1133.69 281.987L1125.83 280.476C1123.78 291.156 1123.41 312.148 1124 331.614C1124.29 341.424 1124.84 350.987 1125.55 358.863C1126.26 366.571 1127.17 373.106 1128.32 376.555L1135.91 374.025ZM1133.69 281.987C1135.66 271.742 1137.63 260.114 1139.01 250.34C1139.7 245.456 1140.25 240.999 1140.58 237.392C1140.89 233.947 1141.05 230.84 1140.77 228.933L1132.85 230.064C1132.97 230.9 1132.94 233.084 1132.61 236.67C1132.3 240.092 1131.77 244.404 1131.09 249.22C1129.73 258.845 1127.78 270.341 1125.83 280.476L1133.69 281.987Z" fill="#6FA7FF" mask="url(#path-45-outside-1)"/>
</g>
<path fill-rule="evenodd" clip-rule="evenodd" d="M1209.25 377.926C1186.49 330.723 1196.63 262.392 1208.06 251.671C1219.48 240.951 1244.93 354.318 1236.59 364.351C1228.26 374.384 1232 425.129 1209.25 377.926Z" fill="url(#paint33_linear)" style="mix-blend-mode:multiply"/>
<path fill-rule="evenodd" clip-rule="evenodd" d="M1129.53 189.008C1134.78 183.926 1143.55 177.367 1143.55 177.367V165.803L1133.22 174.155C1133.22 174.155 1124.29 194.089 1129.53 189.008Z" fill="url(#paint34_linear)" style="mix-blend-mode:multiply"/>
<path fill-rule="evenodd" clip-rule="evenodd" d="M1151.2 184.171C1154.04 185.978 1162.53 186.266 1162.53 186.266C1162.53 186.266 1155.36 163.038 1151.2 164.886C1147.03 166.735 1148.35 182.364 1151.2 184.171Z" fill="url(#paint35_linear)" style="mix-blend-mode:multiply"/>
</g>
<path fill-rule="evenodd" clip-rule="evenodd" d="M1157.1 234.984C1163.22 234.984 1185.86 238.695 1194.83 234.984C1194.83 254.313 1192.97 270.879 1192.03 278.713C1184.75 285.667 1173.43 286.716 1173.43 286.716L1155.51 276.792C1155.51 276.792 1153.62 262.05 1157.1 234.984Z" fill="white"/>
<path fill-rule="evenodd" clip-rule="evenodd" d="M1165.01 195.009C1159.4 192.07 1158.3 173.308 1153.28 170.651C1148.26 167.993 1168.87 164.249 1171.44 145.628C1174.02 145.628 1178.6 157.711 1183.07 164.559C1182.54 175.012 1167.51 182.865 1165.01 195.009Z" fill="white"/>
<path fill-rule="evenodd" clip-rule="evenodd" d="M1135.18 149.546C1135.18 154.28 1132.65 167.55 1142.3 170.549C1138.62 171.147 1135.62 173.277 1134.07 176.504C1132 180.816 1129.55 189.474 1126.6 192.656C1126.6 185.283 1124.89 170.714 1126.6 165.129C1128.3 159.544 1133.78 152.552 1135.18 149.546Z" fill="white"/>
<g filter="url(#filter2_i)">
<path fill-rule="evenodd" clip-rule="evenodd" d="M1218.55 291.49C1207.07 253.149 1202.27 225.804 1202.69 216.33C1203.11 206.856 1214.25 188.428 1226.86 189.572C1239.47 190.717 1242.15 213.947 1244.76 226.425C1247.37 238.902 1266.68 303.01 1267.66 312.038C1268.64 321.066 1260.08 335.511 1249.15 336.761C1238.22 338.012 1230.02 329.832 1218.55 291.49Z" fill="url(#paint36_linear)"/>
<path fill-rule="evenodd" clip-rule="evenodd" d="M1218.55 291.49C1207.07 253.149 1202.27 225.804 1202.69 216.33C1203.11 206.856 1214.25 188.428 1226.86 189.572C1239.47 190.717 1242.15 213.947 1244.76 226.425C1247.37 238.902 1266.68 303.01 1267.66 312.038C1268.64 321.066 1260.08 335.511 1249.15 336.761C1238.22 338.012 1230.02 329.832 1218.55 291.49Z" fill="url(#paint37_linear)"/>
</g>
<path fill-rule="evenodd" clip-rule="evenodd" d="M1193.61 284.364C1193.61 284.364 1216.44 291.221 1221.43 288.936C1226.43 286.65 1251.23 287.7 1256.71 306.334C1262.19 324.968 1257.41 329.002 1251.23 335.45C1245.06 341.897 1199.66 324.972 1190.12 316.147C1197.29 295.215 1193.61 284.364 1193.61 284.364Z" fill="url(#paint38_linear)"/>
<path fill-rule="evenodd" clip-rule="evenodd" d="M1193.61 284.364C1193.61 284.364 1216.44 291.221 1221.43 288.936C1226.43 286.65 1251.23 287.7 1256.71 306.334C1262.19 324.968 1257.41 329.002 1251.23 335.45C1245.06 341.897 1199.66 324.972 1190.12 316.147C1197.29 295.215 1193.61 284.364 1193.61 284.364Z" fill="url(#paint39_linear)"/>
<path fill-rule="evenodd" clip-rule="evenodd" d="M1063.2 333.994C1063.2 316.228 1070.07 239.244 1076.5 207.616C1077.42 203.065 1079 202.054 1079.84 199.463C1086.43 224.417 1088.46 333.28 1086.57 339.809C1084.69 346.337 1073.66 339.809 1063.2 333.994Z" fill="url(#paint40_linear)"/>
<path fill-rule="evenodd" clip-rule="evenodd" d="M1127.57 74.7259C1123.8 76.0358 1121.75 87.5496 1122.39 96.2468C1120.28 91.3333 1118.12 71.3863 1125.28 60.6421C1132.44 49.8979 1131.35 73.416 1127.57 74.7259Z" fill="#143B8C"/>
<path fill-rule="evenodd" clip-rule="evenodd" d="M1131.36 55.9273C1117.27 65.0656 1123.68 77.084 1138.12 79.1109C1152.57 81.1377 1154.13 81.6756 1163.01 79.1109C1165 85.5873 1158.83 91.7611 1163.01 96.5052C1166.37 100.291 1167.39 101.703 1167.59 105.989C1167.79 110.275 1169.4 111.14 1169.4 111.14C1169.4 111.14 1169.59 99.2162 1173.45 98.8513C1177.32 98.4865 1180.3 100.939 1182.44 105.989C1183.05 107.443 1182.24 104.461 1182.44 101.674C1182.63 98.9596 1183.85 96.509 1183.85 92.691C1183.85 85.7888 1180.09 77.827 1176.08 73.0071C1166.8 61.841 1141.34 53.442 1131.36 55.9273Z" fill="url(#paint41_linear)"/>
<path fill-rule="evenodd" clip-rule="evenodd" d="M958.337 192.111C981.354 206.791 1004.33 217.379 1034.8 208.92C1065.27 200.462 1076.64 206.145 1094.85 210.782C1113.07 215.419 1126.83 224.301 1182.75 187.025C1181.1 223.528 1175.67 287.517 1181.31 300.909C1167.44 309.706 1146.51 336.571 1125.86 336.332C1105.2 336.092 1094.41 316.807 1060.81 321.469C1027.22 326.13 1028.21 339.395 1006.48 334.464C984.76 329.532 958.131 307.477 954.623 304.777C954.202 296.746 959.687 217.865 958.337 192.111Z" fill="url(#paint42_linear)"/>
<mask id="mask8" mask-type="alpha" maskUnits="userSpaceOnUse" x="954" y="187" width="229" height="150">
<path fill-rule="evenodd" clip-rule="evenodd" d="M958.337 192.111C981.354 206.791 1004.33 217.379 1034.8 208.92C1065.27 200.462 1076.64 206.145 1094.85 210.782C1113.07 215.419 1126.83 224.301 1182.75 187.025C1181.1 223.528 1175.67 287.517 1181.31 300.909C1167.44 309.706 1146.51 336.571 1125.86 336.332C1105.2 336.092 1094.41 316.807 1060.81 321.469C1027.22 326.13 1028.21 339.395 1006.48 334.464C984.76 329.532 958.131 307.477 954.623 304.777C954.202 296.746 959.687 217.865 958.337 192.111Z" fill="white"/>
</mask>
<g mask="url(#mask8)">
<g style="mix-blend-mode:multiply" opacity="0.269085">
<path fill-rule="evenodd" clip-rule="evenodd" d="M1018.44 198.929L1067.04 193.121C1067.04 193.121 1067.04 215.849 1067.04 270.749C1067.04 325.649 1067.04 372.154 1067.04 372.154H1012.51C1012.51 372.154 1011.18 319.1 1012.51 280.375C1013.83 241.65 1018.44 198.929 1018.44 198.929Z" fill="url(#paint43_linear)"/>
</g>
<g style="mix-blend-mode:multiply" opacity="0.269085">
<path fill-rule="evenodd" clip-rule="evenodd" d="M1067.04 198.929L1114.08 193.121C1114.08 193.121 1114.08 215.849 1114.08 270.749C1114.08 325.649 1114.08 372.154 1114.08 372.154H1068.09C1068.09 372.154 1067.04 330.571 1067.04 290.312C1067.04 250.054 1067.04 198.929 1067.04 198.929Z" fill="url(#paint44_linear)"/>
</g>
</g>
<path fill-rule="evenodd" clip-rule="evenodd" d="M1172.86 277.487C1179.3 276.918 1179.15 271.586 1179.36 273.11C1179.58 274.635 1194.54 284.634 1194.54 284.634C1194.54 284.634 1197.2 311.42 1191.06 315.948C1184.93 320.475 1177.1 310.695 1171.82 311.734C1169.59 312.174 1163.83 312.394 1158.09 311.028C1156.16 310.57 1149.75 308.744 1148.57 307.815C1147.08 306.649 1146.32 305.185 1148.02 303.731C1148.69 303.153 1157 305.409 1158.98 305.804C1164.63 306.932 1169.31 305.511 1169.14 305.145C1168.88 304.551 1164.66 305.03 1158.98 303.731C1156.98 303.276 1152.86 302.474 1150.86 301.883C1146.45 300.575 1142.68 298.628 1142.34 298.29C1141.4 297.378 1140.73 295.988 1142.49 294.645C1143.24 294.076 1145.1 294.645 1150.41 295.499C1152.72 295.869 1157.37 297.048 1159.45 297.378C1163.88 298.084 1167.26 296.186 1167.23 295.799C1167.21 295.412 1164.18 296.318 1159.82 295.499C1157.49 295.061 1153.02 294.541 1150.42 294.076C1143.57 292.844 1139.88 290.407 1139.36 290.01C1138.39 289.282 1138.18 286.765 1139.36 286.037C1140.04 285.615 1143.42 286.447 1150.34 287.587C1152.85 287.999 1157.64 288.768 1159.82 288.768C1164.18 288.768 1166.95 287.79 1166.95 287.587C1166.95 287.256 1158.59 286.334 1151.86 284.987C1145.12 283.636 1144.52 282.23 1144.06 281.687C1143.43 280.944 1143.23 278.217 1145.41 278.217C1148.59 278.217 1149.89 278.627 1152.91 279.029C1155.04 279.315 1160.16 279.533 1162.21 279.533C1166.27 279.533 1170.76 277.673 1172.86 277.487Z" fill="url(#paint45_linear)"/>
</g>
<defs>
<filter id="filter0_i" x="814.074" y="383.402" width="631.799" height="242.559" filterUnits="userSpaceOnUse" color-interpolation-filters="sRGB">
<feFlood flood-opacity="0" result="BackgroundImageFix"/>
<feBlend mode="normal" in="SourceGraphic" in2="BackgroundImageFix" result="shape"/>
<feColorMatrix in="SourceAlpha" type="matrix" values="0 0 0 0 0 0 0 0 0 0 0 0 0 0 0 0 0 0 127 0" result="hardAlpha"/>
<feOffset dx="-16" dy="-6"/>
<feGaussianBlur stdDeviation="16"/>
<feComposite in2="hardAlpha" operator="arithmetic" k2="-1" k3="1"/>
<feColorMatrix type="matrix" values="0 0 0 0 0.839216 0 0 0 0 0.890196 0 0 0 0 0.980392 0 0 0 0.330248 0"/>
<feBlend mode="normal" in2="shape" result="effect1_innerShadow"/>
</filter>
<filter id="filter1_i" x="921.226" y="182.875" width="157.422" height="156.08" filterUnits="userSpaceOnUse" color-interpolation-filters="sRGB">
<feFlood flood-opacity="0" result="BackgroundImageFix"/>
<feBlend mode="normal" in="SourceGraphic" in2="BackgroundImageFix" result="shape"/>
<feColorMatrix in="SourceAlpha" type="matrix" values="0 0 0 0 0 0 0 0 0 0 0 0 0 0 0 0 0 0 127 0" result="hardAlpha"/>
<feOffset dy="-9"/>
<feGaussianBlur stdDeviation="5.5"/>
<feComposite in2="hardAlpha" operator="arithmetic" k2="-1" k3="1"/>
<feColorMatrix type="matrix" values="0 0 0 0 0.818241 0 0 0 0 0.879823 0 0 0 0 0.96604 0 0 0 1 0"/>
<feBlend mode="normal" in2="shape" result="effect1_innerShadow"/>
</filter>
<filter id="filter2_i" x="1195.67" y="189.521" width="72.0686" height="150.359" filterUnits="userSpaceOnUse" color-interpolation-filters="sRGB">
<feFlood flood-opacity="0" result="BackgroundImageFix"/>
<feBlend mode="normal" in="SourceGraphic" in2="BackgroundImageFix" result="shape"/>
<feColorMatrix in="SourceAlpha" type="matrix" values="0 0 0 0 0 0 0 0 0 0 0 0 0 0 0 0 0 0 127 0" result="hardAlpha"/>
<feOffset dx="-8" dy="3"/>
<feGaussianBlur stdDeviation="3.5"/>
<feComposite in2="hardAlpha" operator="arithmetic" k2="-1" k3="1"/>
<feColorMatrix type="matrix" values="0 0 0 0 0.631373 0 0 0 0 0.721569 0 0 0 0 0.890196 0 0 0 0.137483 0"/>
<feBlend mode="normal" in2="shape" result="effect1_innerShadow"/>
</filter>
<linearGradient id="paint0_linear" x1="-127.204" y1="24.8116" x2="-34.8325" y2="583.516" gradientUnits="userSpaceOnUse">
<stop stop-color="#78EAFA"/>
<stop offset="1" stop-color="#0047FF"/>
</linearGradient>
<linearGradient id="paint1_linear" x1="829.832" y1="4.41642" x2="664.063" y2="408.017" gradientUnits="userSpaceOnUse">
<stop stop-color="white"/>
<stop offset="1" stop-color="#8994F3"/>
</linearGradient>
<linearGradient id="paint2_linear" x1="893.099" y1="-128.72" x2="906.618" y2="487.085" gradientUnits="userSpaceOnUse">
<stop stop-color="#8DE7EC"/>
<stop offset="1" stop-color="#8994F3"/>
</linearGradient>
<linearGradient id="paint3_linear" x1="779.11" y1="-215.472" x2="886.843" y2="191.37" gradientUnits="userSpaceOnUse">
<stop stop-color="#F4F9FF"/>
<stop offset="1" stop-color="#8DE7EC"/>
</linearGradient>
<linearGradient id="paint4_linear" x1="1452.79" y1="219.501" x2="-1.71402" y2="501.001" gradientUnits="userSpaceOnUse">
<stop stop-color="#5433FF"/>
<stop offset="1" stop-color="#00FFFF"/>
</linearGradient>
<linearGradient id="paint5_linear" x1="976.276" y1="400.916" x2="996.081" y2="456.545" gradientUnits="userSpaceOnUse">
<stop stop-color="#EDF3FD" stop-opacity="0.01"/>
<stop offset="1" stop-color="#D6E3FA"/>
</linearGradient>
<linearGradient id="paint6_linear" x1="864.27" y1="394.973" x2="886.502" y2="453.439" gradientUnits="userSpaceOnUse">
<stop stop-color="#EDF3FD" stop-opacity="0.01"/>
<stop offset="1" stop-color="#D6E3FA"/>
</linearGradient>
<linearGradient id="paint7_linear" x1="992.509" y1="312.769" x2="983.794" y2="364.502" gradientUnits="userSpaceOnUse">
<stop stop-color="#577FBE"/>
<stop offset="1" stop-color="#A1B8E3"/>
</linearGradient>
<linearGradient id="paint8_linear" x1="971.585" y1="317.401" x2="969.656" y2="347.449" gradientUnits="userSpaceOnUse">
<stop stop-color="#577FBE"/>
<stop offset="1" stop-color="#A1B8E3" stop-opacity="0.262228"/>
</linearGradient>
<linearGradient id="paint9_linear" x1="1073.36" y1="318.744" x2="920.968" y2="313.723" gradientUnits="userSpaceOnUse">
<stop stop-color="#0C1F63"/>
<stop offset="0.562912" stop-color="#102F7A"/>
<stop offset="1" stop-color="#3861B6"/>
</linearGradient>
<linearGradient id="paint10_linear" x1="1090.06" y1="112.629" x2="1049.86" y2="81.754" gradientUnits="userSpaceOnUse">
<stop stop-color="#294FA9"/>
<stop offset="1" stop-color="#316EEA"/>
</linearGradient>
<radialGradient id="paint11_radial" cx="0" cy="0" r="1" gradientUnits="userSpaceOnUse" gradientTransform="translate(985.019 84.4902) rotate(96.9322) scale(47.3725 99.9135)">
<stop stop-color="#70B8F9"/>
<stop offset="1" stop-color="#3D82F0"/>
</radialGradient>
<linearGradient id="paint12_linear" x1="1013.93" y1="195.856" x2="1013.93" y2="218.135" gradientUnits="userSpaceOnUse">
<stop stop-color="#6886B3"/>
<stop offset="1" stop-color="#90AADB"/>
</linearGradient>
<linearGradient id="paint13_linear" x1="972.072" y1="171.525" x2="1007.82" y2="179.115" gradientUnits="userSpaceOnUse">
<stop stop-color="#CFDDF3"/>
<stop offset="1" stop-color="#A1B8E3"/>
</linearGradient>
<linearGradient id="paint14_linear" x1="1014.3" y1="162.244" x2="989.782" y2="161.396" gradientUnits="userSpaceOnUse">
<stop stop-color="#072246"/>
<stop offset="1" stop-color="#143B8C"/>
</linearGradient>
<radialGradient id="paint15_radial" cx="0" cy="0" r="1" gradientUnits="userSpaceOnUse" gradientTransform="translate(994.918 126.123) rotate(-11.9357) scale(31.6507 132.259)">
<stop stop-color="#2D6DC0"/>
<stop offset="1" stop-color="#143B8C"/>
</radialGradient>
<linearGradient id="paint16_linear" x1="923.242" y1="201.352" x2="923.242" y2="253.03" gradientUnits="userSpaceOnUse">
<stop stop-color="#F4F8FF"/>
<stop offset="1" stop-color="#E5EFFD"/>
</linearGradient>
<linearGradient id="paint17_linear" x1="914.758" y1="216.565" x2="914.758" y2="242.823" gradientUnits="userSpaceOnUse">
<stop stop-color="#18407E"/>
<stop offset="1" stop-color="#90AADB"/>
</linearGradient>
<linearGradient id="paint18_linear" x1="892.9" y1="236.553" x2="902.822" y2="188.048" gradientUnits="userSpaceOnUse">
<stop stop-color="#577FBE"/>
<stop offset="1" stop-color="#B1C9F7"/>
</linearGradient>
<linearGradient id="paint19_linear" x1="909.747" y1="192.191" x2="909.747" y2="232.93" gradientUnits="userSpaceOnUse">
<stop stop-color="#A9C4E5"/>
<stop offset="1" stop-color="#7192C7"/>
</linearGradient>
<linearGradient id="paint20_linear" x1="1216.71" y1="48.6895" x2="1176.41" y2="18.8153" gradientUnits="userSpaceOnUse">
<stop stop-color="#294FA9"/>
<stop offset="1" stop-color="#316EEA"/>
</linearGradient>
<radialGradient id="paint21_radial" cx="0" cy="0" r="1" gradientUnits="userSpaceOnUse" gradientTransform="translate(1119.39 25.7031) rotate(97.3227) scale(44.0019 97.9209)">
<stop stop-color="#70B8F9"/>
<stop offset="1" stop-color="#3D82F0"/>
</radialGradient>
<linearGradient id="paint22_linear" x1="1156.72" y1="133.061" x2="1140.51" y2="142.177" gradientUnits="userSpaceOnUse">
<stop stop-color="#6886B3"/>
<stop offset="1" stop-color="#90AADB"/>
</linearGradient>
<linearGradient id="paint23_linear" x1="1132.82" y1="104.338" x2="1132.82" y2="156.474" gradientUnits="userSpaceOnUse">
<stop stop-color="#A9C4E5"/>
<stop offset="1" stop-color="#7192C7"/>
</linearGradient>
<linearGradient id="paint24_linear" x1="1101.31" y1="118.309" x2="1141.24" y2="126.909" gradientUnits="userSpaceOnUse">
<stop stop-color="#CFDDF3"/>
<stop offset="1" stop-color="#A1B8E3"/>
</linearGradient>
<linearGradient id="paint25_linear" x1="1199.95" y1="275.327" x2="1101.13" y2="290.551" gradientUnits="userSpaceOnUse">
<stop stop-color="#2664C7"/>
<stop offset="1" stop-color="#3D82F0"/>
</linearGradient>
<linearGradient id="paint26_linear" x1="1124.31" y1="433.02" x2="1124.31" y2="652.553" gradientUnits="userSpaceOnUse">
<stop stop-color="#75A8D6"/>
<stop offset="1" stop-color="#92A8CA" stop-opacity="0.01"/>
</linearGradient>
<linearGradient id="paint27_linear" x1="1065.36" y1="332.279" x2="1059.95" y2="412.17" gradientUnits="userSpaceOnUse">
<stop stop-color="#75A8D6"/>
<stop offset="1" stop-color="#92A8CA" stop-opacity="0.01"/>
</linearGradient>
<linearGradient id="paint28_linear" x1="1074.38" y1="320.481" x2="1035" y2="377.365" gradientUnits="userSpaceOnUse">
<stop stop-color="#577FBE"/>
<stop offset="1" stop-color="#A1B8E3"/>
</linearGradient>
<linearGradient id="paint29_linear" x1="1078.61" y1="337.016" x2="1078.61" y2="395.704" gradientUnits="userSpaceOnUse">
<stop stop-color="#A9C4E5"/>
<stop offset="1" stop-color="#7192C7"/>
</linearGradient>
<linearGradient id="paint30_linear" x1="1235.58" y1="371.046" x2="1216.99" y2="203.968" gradientUnits="userSpaceOnUse">
<stop stop-color="#F4F8FF"/>
<stop offset="1" stop-color="#C3D8F5"/>
</linearGradient>
<linearGradient id="paint31_linear" x1="1131.18" y1="309.567" x2="1069.45" y2="326.475" gradientUnits="userSpaceOnUse">
<stop stop-color="white" stop-opacity="0.5"/>
<stop offset="1" stop-color="#AFC3E5"/>
</linearGradient>
<linearGradient id="paint32_linear" x1="1122.99" y1="226.398" x2="1071.35" y2="183.727" gradientUnits="userSpaceOnUse">
<stop stop-color="white" stop-opacity="0.01"/>
<stop offset="1" stop-color="#A1B8E3"/>
</linearGradient>
<linearGradient id="paint33_linear" x1="1185" y1="457.542" x2="1233.94" y2="456.216" gradientUnits="userSpaceOnUse">
<stop stop-color="#EAF0F7" stop-opacity="0.115546"/>
<stop offset="1" stop-color="#D1DDED"/>
</linearGradient>
<linearGradient id="paint34_linear" x1="1123.62" y1="199.92" x2="1141.88" y2="198.798" gradientUnits="userSpaceOnUse">
<stop stop-color="#EAF0F7" stop-opacity="0.115546"/>
<stop offset="1" stop-color="#D1DDED"/>
</linearGradient>
<linearGradient id="paint35_linear" x1="1145.06" y1="195.037" x2="1161.07" y2="194.066" gradientUnits="userSpaceOnUse">
<stop stop-color="#EAF0F7" stop-opacity="0.115546"/>
<stop offset="1" stop-color="#D1DDED"/>
</linearGradient>
<linearGradient id="paint36_linear" x1="1213.33" y1="316.194" x2="1264.15" y2="301.992" gradientUnits="userSpaceOnUse">
<stop stop-color="#E2E9F4"/>
<stop offset="1" stop-color="#E5EFFD"/>
</linearGradient>
<linearGradient id="paint37_linear" x1="1216.56" y1="215.586" x2="1179.34" y2="221.982" gradientUnits="userSpaceOnUse">
<stop stop-color="white" stop-opacity="0.01"/>
<stop offset="1" stop-color="white"/>
</linearGradient>
<linearGradient id="paint38_linear" x1="1237.68" y1="350.242" x2="1249.66" y2="310.028" gradientUnits="userSpaceOnUse">
<stop stop-color="#577FBE"/>
<stop offset="1" stop-color="#A1B8E3"/>
</linearGradient>
<linearGradient id="paint39_linear" x1="1230.39" y1="288.331" x2="1223.52" y2="309.92" gradientUnits="userSpaceOnUse">
<stop stop-color="white" stop-opacity="0.5"/>
<stop offset="1" stop-color="#A1B8E3" stop-opacity="0.01"/>
</linearGradient>
<linearGradient id="paint40_linear" x1="1063.2" y1="199.463" x2="1063.2" y2="342.531" gradientUnits="userSpaceOnUse">
<stop stop-color="#B5CCEF"/>
<stop offset="1" stop-color="#E5EFFD"/>
</linearGradient>
<linearGradient id="paint41_linear" x1="1148.04" y1="95.0603" x2="1159.37" y2="73.7655" gradientUnits="userSpaceOnUse">
<stop stop-color="#2D6DC0"/>
<stop offset="1" stop-color="#143B8C"/>
</linearGradient>
<linearGradient id="paint42_linear" x1="1201.44" y1="286.411" x2="1171.18" y2="250.766" gradientUnits="userSpaceOnUse">
<stop stop-color="#FF7F31"/>
<stop offset="1" stop-color="#FFD25F"/>
</linearGradient>
<linearGradient id="paint43_linear" x1="1035.41" y1="418.571" x2="1094.57" y2="413.305" gradientUnits="userSpaceOnUse">
<stop stop-color="#FF7F31"/>
<stop offset="1" stop-color="#FFD25F"/>
</linearGradient>
<linearGradient id="paint44_linear" x1="1129.94" y1="288.974" x2="1071.05" y2="268.112" gradientUnits="userSpaceOnUse">
<stop stop-color="#FF7F31"/>
<stop offset="1" stop-color="#FFC83A"/>
</linearGradient>
<linearGradient id="paint45_linear" x1="1197.76" y1="331.237" x2="1197.76" y2="288.928" gradientUnits="userSpaceOnUse">
<stop stop-color="#577FBE"/>
<stop offset="1" stop-color="#A1B8E3"/>
</linearGradient>
</defs>
</svg>
