<svg width="36" height="36" viewBox="0 0 36 36" fill="none" xmlns="http://www.w3.org/2000/svg">
<circle cx="18" cy="18" r="18" fill="white"/>
<path fill-rule="evenodd" clip-rule="evenodd" d="M18 8C18.3797 8 18.7265 8.21496 18.8955 8.55491L21.4433 13.6808L27.1437 14.5083C27.5211 14.5631 27.8345 14.8277 27.9517 15.1906C28.0688 15.5536 27.9694 15.9515 27.6953 16.2167L26.1416 17.7195C25.7446 18.1035 25.1116 18.093 24.7276 17.696C24.3436 17.299 24.3541 16.666 24.7511 16.282L24.841 16.195L20.6374 15.5848C20.3126 15.5376 20.0316 15.3341 19.8855 15.0403L18 11.2467L16.1145 15.0403C15.9684 15.3341 15.6875 15.5376 15.3627 15.5848L11.159 16.195L14.1953 19.1319C14.4331 19.362 14.5418 19.6948 14.4854 20.0209L13.7676 24.1774L16.5367 22.7313C17.0262 22.4756 17.6303 22.6652 17.886 23.1547C18.1417 23.6443 17.9521 24.2484 17.4625 24.504L12.901 26.8864C12.5638 27.0625 12.156 27.032 11.8487 26.8079C11.5414 26.5837 11.3879 26.2046 11.4526 25.8298L12.4246 20.2017L8.30478 16.2167C8.03067 15.9515 7.93123 15.5536 8.0484 15.1906C8.16558 14.8277 8.47897 14.5631 8.85638 14.5083L14.5568 13.6808L17.1045 8.55491C17.2735 8.21496 17.6204 8 18 8Z" fill="#0A6ED1"/>
<path fill-rule="evenodd" clip-rule="evenodd" d="M20 24C20 23.4477 20.4477 23 21 23H27C27.5523 23 28 23.4477 28 24C28 24.5523 27.5523 25 27 25H21C20.4477 25 20 24.5523 20 24Z" fill="#0A6ED1"/>
<path fill-rule="evenodd" clip-rule="evenodd" d="M20 21C20 20.4477 20.4477 20 21 20H27C27.5523 20 28 20.4477 28 21C28 21.5523 27.5523 22 27 22H21C20.4477 22 20 21.5523 20 21Z" fill="#0A6ED1"/>
<path fill-rule="evenodd" clip-rule="evenodd" d="M20 27C20 26.4477 20.4477 26 21 26H27C27.5523 26 28 26.4477 28 27C28 27.5523 27.5523 28 27 28H21C20.4477 28 20 27.5523 20 27Z" fill="#0A6ED1"/>
</svg>
