<svg width="150" height="36" viewBox="0 0 150 36" fill="none" xmlns="http://www.w3.org/2000/svg">
<rect width="150" height="36" rx="18" fill="white"/>
<rect x="0.5" y="0.5" width="149" height="35" rx="17.5" stroke="black" stroke-opacity="0.15"/>
<path fill-rule="evenodd" clip-rule="evenodd" d="M439 16.3333C439 11.731 442.731 8 447.333 8C451.936 8 455.667 11.731 455.667 16.3333C455.667 20.9357 451.936 24.6667 447.333 24.6667C442.731 24.6667 439 20.9357 439 16.3333ZM447.333 10.0833C443.882 10.0833 441.083 12.8816 441.083 16.3333C441.083 19.7851 443.882 22.5833 447.333 22.5833C450.785 22.5833 453.583 19.7851 453.583 16.3333C453.583 12.8816 450.785 10.0833 447.333 10.0833Z" fill="#0A6ED1"/>
<path fill-rule="evenodd" clip-rule="evenodd" d="M451.805 20.8051C452.212 20.3983 452.871 20.3983 453.278 20.8051L457.445 24.9718C457.852 25.3786 457.852 26.0381 457.445 26.4449C457.038 26.8517 456.379 26.8517 455.972 26.4449L451.805 22.2782C451.398 21.8714 451.398 21.2119 451.805 20.8051Z" fill="#0A6ED1"/>
</svg>
