<svg width="18" height="17" viewBox="0 0 18 17" fill="none" xmlns="http://www.w3.org/2000/svg">
<path fill-rule="evenodd" clip-rule="evenodd" d="M7.00003 9C7.00003 8.44772 7.44774 8 8.00003 8H17C17.5523 8 18 8.44772 18 9C18 9.55228 17.5523 10 17 10H8.00003C7.44774 10 7.00003 9.55228 7.00003 9Z" fill="#353B44"/>
<path fill-rule="evenodd" clip-rule="evenodd" d="M7.00003 5C7.00003 4.44772 7.44774 4 8.00003 4H14C14.5523 4 15 4.44772 15 5C15 5.55228 14.5523 6 14 6H8.00003C7.44774 6 7.00003 5.55228 7.00003 5Z" fill="#353B44"/>
<path fill-rule="evenodd" clip-rule="evenodd" d="M7.00003 1C7.00003 0.447715 7.44774 0 8.00003 0H11C11.5523 0 12 0.447715 12 1C12 1.55228 11.5523 2 11 2H8.00003C7.44774 2 7.00003 1.55228 7.00003 1Z" fill="#353B44"/>
<path fill-rule="evenodd" clip-rule="evenodd" d="M4.00003 0C4.55231 0 5.00003 0.447715 5.00003 1V13C5.00003 13.5523 4.55231 14 4.00003 14C3.44774 14 3.00003 13.5523 3.00003 13V1C3.00003 0.447715 3.44774 0 4.00003 0Z" fill="#353B44"/>
<path fill-rule="evenodd" clip-rule="evenodd" d="M7.00003 13L4.00003 16L1.00003 13H7.00003Z" fill="#353B44"/>
<path fill-rule="evenodd" clip-rule="evenodd" d="M0.0761497 12.6173C0.230931 12.2436 0.595567 12 1.00003 12H7.00003C7.40449 12 7.76913 12.2436 7.92391 12.6173C8.07869 12.991 7.99313 13.4211 7.70714 13.7071L4.70714 16.7071C4.31661 17.0976 3.68345 17.0976 3.29292 16.7071L0.292922 13.7071C0.00692445 13.4211 -0.0786313 12.991 0.0761497 12.6173Z" fill="#353B44"/>
</svg>
