<svg width="24" height="24" viewBox="0 0 24 24" fill="none" xmlns="http://www.w3.org/2000/svg">
<path fill-rule="evenodd" clip-rule="evenodd" d="M12 2C12.3797 2 12.7265 2.21496 12.8955 2.55491L15.4433 7.68081L21.1437 8.50827C21.5211 8.56305 21.8345 8.82772 21.9517 9.19064C22.0688 9.55355 21.9694 9.95152 21.6953 10.2167L17.5755 14.2017L18.5474 19.8298C18.6122 20.2046 18.4587 20.5837 18.1514 20.8079C17.8441 21.032 17.4362 21.0625 17.0991 20.8864L12 18.2233L6.90096 20.8864C6.56381 21.0625 6.15596 21.032 5.84868 20.8079C5.54139 20.5837 5.38789 20.2046 5.45262 19.8298L6.4246 14.2017L2.30478 10.2167C2.03067 9.95152 1.93123 9.55355 2.0484 9.19064C2.16558 8.82772 2.47897 8.56305 2.85638 8.50827L8.55678 7.68081L11.1045 2.55491C11.2735 2.21496 11.6204 2 12 2ZM12 5.24674L10.1145 9.04025C9.96844 9.33414 9.68746 9.53765 9.36268 9.58479L5.15902 10.195L8.19528 13.1319C8.43312 13.362 8.54176 13.6948 8.48544 14.0209L7.76759 18.1774L11.5371 16.2088C11.8271 16.0573 12.1729 16.0573 12.463 16.2088L16.2325 18.1774L15.5146 14.0209C15.4583 13.6948 15.5669 13.362 15.8048 13.1319L18.841 10.195L14.6374 9.58479C14.3126 9.53765 14.0316 9.33414 13.8855 9.04025L12 5.24674Z" fill="#F0AB00"/>
</svg>
