<svg width="24" height="24" viewBox="0 0 24 24" fill="none" xmlns="http://www.w3.org/2000/svg">
<path fill-rule="evenodd" clip-rule="evenodd" d="M20.7071 7.29289C21.0976 7.68342 21.0976 8.31658 20.7071 8.70711L13.7071 15.7071C13.3166 16.0976 12.6834 16.0976 12.2929 15.7071L9 12.4142L3.70711 17.7071C3.31658 18.0976 2.68342 18.0976 2.29289 17.7071C1.90237 17.3166 1.90237 16.6834 2.29289 16.2929L8.29289 10.2929C8.68342 9.90237 9.31658 9.90237 9.70711 10.2929L13 13.5858L19.2929 7.29289C19.6834 6.90237 20.3166 6.90237 20.7071 7.29289Z" fill="#C2C2C2"/>
<path fill-rule="evenodd" clip-rule="evenodd" d="M17 7H21V11L17 7Z" fill="#C2C2C2"/>
<path fill-rule="evenodd" clip-rule="evenodd" d="M16.0761 6.61732C16.2309 6.24364 16.5955 6 17 6H21C21.5523 6 22 6.44772 22 7V11C22 11.4045 21.7564 11.7691 21.3827 11.9239C21.009 12.0787 20.5789 11.9931 20.2929 11.7071L16.2929 7.70711C16.0069 7.42111 15.9213 6.99099 16.0761 6.61732Z" fill="#C2C2C2"/>
</svg>
