<svg width="20" height="12" viewBox="0 0 20 12" fill="none" xmlns="http://www.w3.org/2000/svg">
<path fill-rule="evenodd" clip-rule="evenodd" d="M18.7071 1.29289C19.0976 1.68342 19.0976 2.31658 18.7071 2.70711L11.7071 9.70711C11.3166 10.0976 10.6834 10.0976 10.2929 9.70711L7 6.41421L1.70711 11.7071C1.31658 12.0976 0.683417 12.0976 0.292893 11.7071C-0.0976311 11.3166 -0.0976311 10.6834 0.292893 10.2929L6.29289 4.29289C6.68342 3.90237 7.31658 3.90237 7.70711 4.29289L11 7.58579L17.2929 1.29289C17.6834 0.902369 18.3166 0.902369 18.7071 1.29289Z" fill="#C2C2C2"/>
<path fill-rule="evenodd" clip-rule="evenodd" d="M15 1H19V5L15 1Z" fill="#C2C2C2"/>
<path fill-rule="evenodd" clip-rule="evenodd" d="M14.0761 0.617317C14.2309 0.243642 14.5955 0 15 0H19C19.5523 0 20 0.447715 20 1V5C20 5.40446 19.7564 5.7691 19.3827 5.92388C19.009 6.07866 18.5789 5.9931 18.2929 5.70711L14.2929 1.70711C14.0069 1.42111 13.9213 0.990991 14.0761 0.617317Z" fill="#C2C2C2"/>
</svg>
