<svg width="526" height="376" viewBox="0 0 526 376" fill="none" xmlns="http://www.w3.org/2000/svg">
<mask id="mask0" mask-type="alpha" maskUnits="userSpaceOnUse" x="0" y="0" width="526" height="376">
<rect width="526" height="376" fill="#C4C4C4"/>
</mask>
<g mask="url(#mask0)">
<g opacity="0.5" filter="url(#filter0_i)">
<path fill-rule="evenodd" clip-rule="evenodd" d="M48.8377 302.132C48.4009 289.661 15.7627 292.472 3.17248 293.675C-9.41788 294.878 -10.561 277.793 0.301922 275.253C11.1647 272.714 30.8635 274.024 41.07 271.68C51.2764 269.336 38.3656 256.763 52.2724 255.248C66.1793 253.732 94.935 255.135 103.508 254.828C116.973 254.344 123.881 270.483 100.291 271.216C93.7853 271.418 92.4803 285.756 114.439 281.817C128.22 279.346 155.257 279.289 160.882 285.599C164.109 289.219 162.99 298.946 157.442 304.317C153.321 308.307 140.214 309.085 135.08 310.007C123.035 312.171 125.416 323.783 129.523 326.174C139.243 331.832 165.918 321.154 166.633 336.691C166.949 343.556 142.678 344.664 132.726 344.58C108.318 344.375 92.2807 346.54 91.1552 338.25C90.0255 329.928 106.322 335.545 105.519 325.315C105.099 319.968 106.224 308.608 95.7688 309.204C110.084 308.388 49.4278 318.977 48.8377 302.132Z" fill="url(#paint0_linear)"/>
</g>
<path fill-rule="evenodd" clip-rule="evenodd" d="M357.269 321.648H126.854C123.602 321.648 120.965 319.012 120.965 315.759V70.2533C120.965 67.0007 123.602 64.3643 126.854 64.3643H357.269C360.522 64.3643 363.158 67.0007 363.158 70.2533V315.759C363.158 319.001 360.539 321.631 357.269 321.648Z" fill="url(#paint1_radial)"/>
<g opacity="0.1">
<path fill-rule="evenodd" clip-rule="evenodd" d="M232.494 174.785H167.713C165.68 174.785 164.032 173.137 164.032 171.104V110.74C164.032 108.707 165.68 107.059 167.713 107.059H232.494C234.527 107.059 236.175 108.707 236.175 110.74V171.104C236.175 173.125 234.546 174.766 232.494 174.785Z" fill="#7E9ACA"/>
<path fill-rule="evenodd" clip-rule="evenodd" d="M324.144 174.785H259.363C257.33 174.785 255.682 173.137 255.682 171.104V110.74C255.682 108.707 257.33 107.059 259.363 107.059H324.144C326.177 107.059 327.825 108.707 327.825 110.74V171.104C327.825 173.125 326.196 174.766 324.144 174.785Z" fill="#7E9ACA"/>
<path fill-rule="evenodd" clip-rule="evenodd" d="M202.679 235.518H167.712C165.679 235.518 164.031 233.87 164.031 231.837V196.87C164.031 194.837 165.679 193.189 167.712 193.189H202.679C204.712 193.189 206.36 194.837 206.36 196.87V231.837C206.36 233.858 204.731 235.498 202.679 235.518Z" fill="#7E9ACA"/>
<path fill-rule="evenodd" clip-rule="evenodd" d="M202.679 287.048H167.712C165.679 287.048 164.031 285.4 164.031 283.367V248.4C164.031 246.368 165.679 244.72 167.712 244.72H202.679C204.712 244.72 206.36 246.368 206.36 248.4V283.367C206.36 285.388 204.731 287.029 202.679 287.048Z" fill="#7E9ACA"/>
<path fill-rule="evenodd" clip-rule="evenodd" d="M325.615 204.968H213.721C213.111 204.968 212.617 204.473 212.617 203.864V195.03C212.617 194.42 213.111 193.926 213.721 193.926H325.615C326.225 193.926 326.72 194.42 326.72 195.03V203.864C326.72 204.462 326.244 204.949 325.615 204.968Z" fill="#7E9ACA"/>
<path fill-rule="evenodd" clip-rule="evenodd" d="M325.615 256.498H213.721C213.111 256.498 212.617 256.004 212.617 255.394V246.56C212.617 245.95 213.111 245.456 213.721 245.456H325.615C326.225 245.456 326.72 245.95 326.72 246.56V255.394C326.72 255.992 326.244 256.48 325.615 256.498Z" fill="#7E9ACA"/>
<path fill-rule="evenodd" clip-rule="evenodd" d="M299.85 223.374H213.721C213.111 223.374 212.616 222.88 212.616 222.27V213.436C212.616 212.826 213.111 212.332 213.721 212.332H299.85C300.46 212.332 300.954 212.826 300.954 213.436V222.27C300.954 222.868 300.478 223.356 299.85 223.374Z" fill="#7E9ACA"/>
<path fill-rule="evenodd" clip-rule="evenodd" d="M299.85 274.903H213.721C213.111 274.903 212.616 274.409 212.616 273.799V264.965C212.616 264.356 213.111 263.861 213.721 263.861H299.85C300.46 263.861 300.954 264.356 300.954 264.965V273.799C300.954 274.398 300.478 274.885 299.85 274.903Z" fill="#7E9ACA"/>
</g>
<path fill-rule="evenodd" clip-rule="evenodd" d="M228.442 170.736H163.661C161.628 170.736 159.98 169.088 159.98 167.056V106.691C159.98 104.659 161.628 103.011 163.661 103.011H228.442C230.475 103.011 232.123 104.659 232.123 106.691V167.056C232.123 169.076 230.494 170.717 228.442 170.736Z" fill="white"/>
<g opacity="0.4">
<path fill-rule="evenodd" clip-rule="evenodd" d="M165.343 153.917C165.343 153.917 167.977 148.107 173.244 136.488L186.015 139.022L195.839 125.593L212.115 119.059L226.334 128.513" fill="black" fill-opacity="0.01"/>
<path d="M165.343 153.917C165.343 153.917 167.977 148.107 173.244 136.488L186.015 139.022L195.839 125.593L212.115 119.059L226.334 128.513" stroke="#D6E3FA" stroke-width="2"/>
</g>
<path fill-rule="evenodd" clip-rule="evenodd" d="M185.871 141.379C187.279 141.379 188.42 140.238 188.42 138.83C188.42 137.423 187.279 136.282 185.871 136.282C184.464 136.282 183.323 137.423 183.323 138.83C183.323 140.238 184.464 141.379 185.871 141.379Z" fill="#FACA39"/>
<path fill-rule="evenodd" clip-rule="evenodd" d="M173.356 140.047C174.764 140.047 175.905 138.906 175.905 137.499C175.905 136.092 174.764 134.951 173.356 134.951C171.949 134.951 170.808 136.092 170.808 137.499C170.808 138.906 171.949 140.047 173.356 140.047Z" fill="#FACA39"/>
<path fill-rule="evenodd" clip-rule="evenodd" d="M195.81 128.128C197.217 128.128 198.358 126.987 198.358 125.579C198.358 124.172 197.217 123.031 195.81 123.031C194.403 123.031 193.262 124.172 193.262 125.579C193.262 126.987 194.403 128.128 195.81 128.128Z" fill="#FACA39"/>
<path fill-rule="evenodd" clip-rule="evenodd" d="M212.004 122.237C213.412 122.237 214.552 121.096 214.552 119.689C214.552 118.281 213.412 117.14 212.004 117.14C210.597 117.14 209.456 118.281 209.456 119.689C209.456 121.096 210.597 122.237 212.004 122.237Z" fill="#FACA39"/>
<path fill-rule="evenodd" clip-rule="evenodd" d="M320.093 170.736H255.311C253.279 170.736 251.631 169.088 251.631 167.056V106.691C251.631 104.659 253.279 103.011 255.311 103.011H320.093C322.125 103.011 323.773 104.659 323.773 106.691V167.056C323.773 169.076 322.145 170.717 320.093 170.736Z" fill="white"/>
<path fill-rule="evenodd" clip-rule="evenodd" d="M273.716 161.534H265.251C264.438 161.534 263.778 160.875 263.778 160.062V125.463C263.778 124.649 264.438 123.99 265.251 123.99H273.716C274.529 123.99 275.189 124.649 275.189 125.463V160.062C275.189 160.863 274.548 161.515 273.716 161.534Z" fill="url(#paint2_linear)"/>
<path fill-rule="evenodd" clip-rule="evenodd" d="M292.119 161.536H283.653C282.84 161.536 282.181 161.032 282.181 160.41V133.952C282.181 133.33 282.84 132.826 283.653 132.826H292.119C292.932 132.826 293.591 133.33 293.591 133.952V160.41C293.591 161.023 292.95 161.522 292.119 161.536Z" fill="url(#paint3_linear)"/>
<path fill-rule="evenodd" clip-rule="evenodd" d="M310.154 161.535H301.689C300.875 161.535 300.216 161.153 300.216 160.683V140.67C300.216 140.2 300.875 139.818 301.689 139.818H310.154C310.967 139.818 311.627 140.2 311.627 140.67V160.683C311.627 161.147 310.986 161.524 310.154 161.535Z" fill="url(#paint4_linear)"/>
<path fill-rule="evenodd" clip-rule="evenodd" d="M322.671 200.921H210.776C210.166 200.921 209.672 200.427 209.672 199.817V190.983C209.672 190.373 210.166 189.879 210.776 189.879H322.671C323.28 189.879 323.775 190.373 323.775 190.983V199.817C323.775 200.415 323.299 200.902 322.671 200.921Z" fill="white"/>
<path fill-rule="evenodd" clip-rule="evenodd" d="M322.671 252.45H210.776C210.166 252.45 209.672 251.956 209.672 251.346V242.512C209.672 241.902 210.166 241.408 210.776 241.408H322.671C323.28 241.408 323.775 241.902 323.775 242.512V251.346C323.775 251.945 323.299 252.432 322.671 252.45Z" fill="white"/>
<path fill-rule="evenodd" clip-rule="evenodd" d="M296.905 219.322H210.776C210.166 219.322 209.672 218.828 209.672 218.218V209.384C209.672 208.775 210.166 208.28 210.776 208.28H296.905C297.515 208.28 298.01 208.775 298.01 209.384V218.218C298.01 218.817 297.534 219.304 296.905 219.322Z" fill="white"/>
<path fill-rule="evenodd" clip-rule="evenodd" d="M296.905 270.852H210.776C210.166 270.852 209.672 270.357 209.672 269.748V260.914C209.672 260.304 210.166 259.809 210.776 259.809H296.905C297.515 259.809 298.01 260.304 298.01 260.914V269.748C298.01 270.346 297.534 270.833 296.905 270.852Z" fill="white"/>
<path fill-rule="evenodd" clip-rule="evenodd" d="M198.63 231.472H163.663C161.63 231.472 159.982 229.824 159.982 227.791V192.824C159.982 190.791 161.63 189.143 163.663 189.143H198.63C200.663 189.143 202.311 190.791 202.311 192.824V227.791C202.311 229.812 200.682 231.452 198.63 231.472Z" fill="white"/>
<path fill-rule="evenodd" clip-rule="evenodd" d="M198.63 283H163.662C161.63 283 159.982 281.352 159.982 279.32V244.353C159.982 242.32 161.63 240.672 163.662 240.672H198.63C200.662 240.672 202.31 242.32 202.31 244.353V279.32C202.31 281.34 200.682 282.981 198.63 283Z" fill="white"/>
<path opacity="0.5" fill-rule="evenodd" clip-rule="evenodd" d="M195.75 353.443L295.497 334.892L394.22 343.087L271.392 406.001" fill="url(#paint5_linear)"/>
<g filter="url(#filter1_d)">
<path fill-rule="evenodd" clip-rule="evenodd" d="M316.455 288.969C313.198 288.969 310.558 291.609 310.558 294.866V300.586C310.558 303.843 313.198 306.483 316.455 306.483H319.561C319.775 306.941 320.072 307.37 320.45 307.748C322.197 309.495 325.03 309.495 326.777 307.748L326.871 307.654C327.223 307.302 327.504 306.906 327.715 306.483H331.186C334.442 306.483 337.083 303.843 337.083 300.586V294.866C337.083 291.609 334.442 288.969 331.186 288.969H316.455Z" fill="#F05971"/>
<path fill-rule="evenodd" clip-rule="evenodd" d="M323.855 303.167C313.134 297.231 320.888 289.852 323.855 294.822C326.823 289.852 334.577 297.231 323.855 303.167Z" fill="white"/>
</g>
<path fill-rule="evenodd" clip-rule="evenodd" d="M299.757 279.689C297.634 280.14 296.278 282.227 296.729 284.351L298.736 293.792C299.188 295.916 301.275 297.272 303.399 296.82L308.36 295.766C308.665 296.169 309.044 296.527 309.492 296.818C311.564 298.164 314.335 297.575 315.681 295.503L315.754 295.391C316.025 294.973 316.217 294.527 316.335 294.071L321.653 292.94C323.777 292.489 325.132 290.401 324.681 288.278L322.674 278.836C322.223 276.713 320.135 275.357 318.012 275.808L299.757 279.689Z" fill="url(#paint6_linear)"/>
<g filter="url(#filter2_d)">
<path fill-rule="evenodd" clip-rule="evenodd" d="M365.546 294.511C362.289 294.511 359.649 297.151 359.649 300.408V306.128C359.649 309.385 362.289 312.025 365.546 312.025H368.652C368.867 312.483 369.163 312.912 369.541 313.29C371.288 315.037 374.121 315.037 375.868 313.29L375.963 313.196C376.315 312.844 376.596 312.448 376.806 312.025H380.277C383.534 312.025 386.174 309.385 386.174 306.128V300.408C386.174 297.151 383.534 294.511 380.277 294.511H365.546Z" fill="url(#paint7_linear)"/>
<path fill-rule="evenodd" clip-rule="evenodd" d="M372.947 308.71C362.226 302.774 369.98 295.395 372.947 300.365C375.914 295.395 383.668 302.774 372.947 308.71Z" fill="white"/>
</g>
<g filter="url(#filter3_d)">
<path fill-rule="evenodd" clip-rule="evenodd" d="M332.292 290.945C329.036 290.945 326.396 293.585 326.396 296.842V302.563C326.396 305.82 329.036 308.46 332.292 308.46H335.398C335.613 308.917 335.909 309.346 336.287 309.725C338.034 311.472 340.867 311.472 342.614 309.725L342.709 309.63C343.061 309.278 343.342 308.882 343.552 308.46H347.023C350.28 308.46 352.92 305.82 352.92 302.563V296.842C352.92 293.585 350.28 290.945 347.023 290.945H332.292Z" fill="url(#paint8_linear)"/>
<path fill-rule="evenodd" clip-rule="evenodd" d="M339.691 305.143C328.97 299.208 336.724 291.829 339.691 296.798C342.659 291.829 350.413 299.208 339.691 305.143Z" fill="white"/>
</g>
<path fill-rule="evenodd" clip-rule="evenodd" d="M378.098 278.04C375.983 277.551 373.872 278.87 373.384 280.986L371.213 290.39C370.724 292.506 372.043 294.617 374.159 295.105L379.1 296.246C379.206 296.74 379.398 297.225 379.682 297.679C380.991 299.774 383.751 300.411 385.847 299.102L385.96 299.031C386.382 298.767 386.745 298.445 387.045 298.08L392.342 299.303C394.458 299.792 396.569 298.473 397.057 296.357L399.228 286.952C399.717 284.837 398.398 282.726 396.282 282.238L378.098 278.04Z" fill="url(#paint9_linear)"/>
<path fill-rule="evenodd" clip-rule="evenodd" d="M324.229 276.589C322.145 277.2 320.951 279.383 321.561 281.467L324.274 290.73C324.884 292.814 327.068 294.008 329.151 293.398L334.019 291.972C334.353 292.351 334.758 292.68 335.227 292.936C337.395 294.122 340.114 293.326 341.299 291.158L341.363 291.041C341.602 290.604 341.761 290.145 341.844 289.681L347.061 288.153C349.145 287.542 350.339 285.358 349.729 283.275L347.016 274.012C346.406 271.928 344.222 270.734 342.139 271.344L324.229 276.589Z" fill="url(#paint10_linear)"/>
<g filter="url(#filter4_d)">
<path fill-rule="evenodd" clip-rule="evenodd" d="M319.973 290.395C317.835 290.772 316.407 292.811 316.784 294.95L318.46 304.455C318.837 306.593 320.876 308.021 323.014 307.644L328.009 306.763C328.3 307.177 328.666 307.548 329.104 307.854C331.128 309.272 333.918 308.78 335.335 306.756L335.412 306.646C335.697 306.239 335.905 305.8 336.039 305.347L341.393 304.403C343.531 304.026 344.959 301.987 344.582 299.849L342.906 290.344C342.529 288.206 340.49 286.778 338.352 287.155L319.973 290.395Z" fill="url(#paint11_linear)"/>
</g>
<path fill-rule="evenodd" clip-rule="evenodd" d="M355.853 266.677C353.865 265.803 351.546 266.705 350.671 268.692L346.784 277.527C345.909 279.514 346.811 281.834 348.798 282.708L353.441 284.751C353.452 285.256 353.551 285.768 353.745 286.267C354.64 288.57 357.233 289.71 359.536 288.815L359.66 288.767C360.124 288.586 360.541 288.337 360.904 288.035L365.88 290.225C367.867 291.099 370.187 290.197 371.062 288.21L374.949 279.375C375.823 277.388 374.921 275.068 372.934 274.193L355.853 266.677Z" fill="url(#paint12_linear)"/>
<g filter="url(#filter5_d)">
<path fill-rule="evenodd" clip-rule="evenodd" d="M342.4 276.14C340.229 276.102 338.439 277.831 338.401 280.002L338.232 289.652C338.194 291.823 339.923 293.614 342.094 293.652L347.165 293.74C347.371 294.202 347.66 294.636 348.032 295.02C349.748 296.798 352.58 296.847 354.358 295.131L354.454 295.038C354.812 294.692 355.1 294.301 355.317 293.882L360.753 293.977C362.924 294.015 364.715 292.286 364.753 290.115L364.921 280.465C364.959 278.294 363.23 276.503 361.059 276.466L342.4 276.14Z" fill="url(#paint13_linear)"/>
</g>
<g filter="url(#filter6_d)">
<path fill-rule="evenodd" clip-rule="evenodd" d="M342.971 288.739C340.806 288.588 338.927 290.221 338.776 292.386L338.102 302.015C337.951 304.181 339.584 306.059 341.75 306.211L346.809 306.565C346.991 307.036 347.257 307.485 347.607 307.888C349.228 309.753 352.054 309.951 353.919 308.329L354.02 308.242C354.396 307.915 354.704 307.54 354.943 307.133L360.366 307.513C362.532 307.664 364.411 306.031 364.562 303.865L365.235 294.237C365.387 292.071 363.754 290.192 361.588 290.041L342.971 288.739Z" fill="url(#paint14_linear)"/>
</g>
<g filter="url(#filter7_d)">
<path fill-rule="evenodd" clip-rule="evenodd" d="M357.303 292.097C355.319 292.98 354.427 295.304 355.31 297.288L359.236 306.105C360.119 308.089 362.443 308.981 364.427 308.098L369.06 306.035C369.442 306.366 369.887 306.637 370.386 306.829C372.693 307.714 375.281 306.562 376.166 304.255L376.214 304.13C376.392 303.666 376.488 303.19 376.508 302.718L381.475 300.507C383.459 299.624 384.351 297.3 383.468 295.317L379.542 286.499C378.659 284.516 376.335 283.624 374.351 284.507L357.303 292.097Z" fill="url(#paint15_linear)"/>
</g>
<path fill-rule="evenodd" clip-rule="evenodd" d="M294.328 285.406L342.23 306.859V358.25L295.886 334.259L294.328 285.406Z" fill="url(#paint16_linear)"/>
<path fill-rule="evenodd" clip-rule="evenodd" d="M397.654 294.906L342.23 306.885V358.248L396.611 342.446L397.654 294.906Z" fill="url(#paint17_linear)"/>
<mask id="mask1" mask-type="alpha" maskUnits="userSpaceOnUse" x="342" y="294" width="56" height="65">
<path fill-rule="evenodd" clip-rule="evenodd" d="M397.654 294.906L342.23 306.885V358.248L396.611 342.446L397.654 294.906Z" fill="white"/>
</mask>
<g mask="url(#mask1)">
<g opacity="0.218583">
<path fill-rule="evenodd" clip-rule="evenodd" d="M355.343 297.27L406.734 346.038L398.989 285.743L355.343 297.27Z" fill="url(#paint18_linear)" style="mix-blend-mode:multiply"/>
</g>
</g>
<path fill-rule="evenodd" clip-rule="evenodd" d="M294.411 285.01L275.325 304.744L322.651 328.161L341.834 306.728L294.411 285.01Z" fill="url(#paint19_linear)"/>
<path fill-rule="evenodd" clip-rule="evenodd" d="M397.155 294.907L417.448 316.242L362.618 328.558L342.229 306.714L397.155 294.907Z" fill="url(#paint20_linear)"/>
<path opacity="0.5" fill-rule="evenodd" clip-rule="evenodd" d="M113.523 51C42.0982 122.602 147.059 223.88 210.746 147.801C318.032 19.6385 409.391 115.94 409.391 115.94" fill="black" fill-opacity="0.01"/>
<path opacity="0.5" fill-rule="evenodd" clip-rule="evenodd" d="M101.152 56.1841C101.409 56.4384 101.419 56.8612 101.174 57.1283C101.022 57.2944 100.713 57.4906 100.563 57.6571C100.32 57.926 100.07 57.9095 99.8111 57.6571C99.552 57.4046 99.5391 56.982 99.7823 56.713C99.9348 56.5443 100.088 56.3758 100.243 56.2074C100.488 55.9402 100.895 55.9298 101.152 56.1841ZM97.2032 60.7101C97.4757 60.9467 97.5119 61.3679 97.284 61.6509C97.0121 61.9885 96.7438 62.3267 96.4791 62.6654C96.2552 62.9518 95.8501 62.9955 95.5742 62.7631C95.2984 62.5306 95.2563 62.1101 95.4801 61.8237C95.7489 61.4799 96.0212 61.1367 96.2971 60.7941C96.525 60.5111 96.9306 60.4736 97.2032 60.7101ZM93.1975 66.0013C93.4868 66.2155 93.554 66.6325 93.3476 66.9328C93.0989 67.2948 92.854 67.6574 92.6129 68.0203C92.4113 68.324 92.0107 68.4004 91.7182 68.1911C91.4257 67.9817 91.3521 67.5658 91.5538 67.2621C91.7987 66.8933 92.0476 66.5249 92.3003 66.1571C92.5066 65.8568 92.9083 65.7871 93.1975 66.0013ZM89.6146 71.5929C89.9199 71.7816 90.02 72.1915 89.8382 72.5084C89.6176 72.8932 89.401 73.2783 89.1886 73.6639C89.0122 73.984 88.6192 74.095 88.3108 73.9119C88.0024 73.7287 87.8955 73.3207 88.0719 73.0005C88.2881 72.6083 88.5084 72.2165 88.7328 71.8251C88.9145 71.5082 89.3093 71.4042 89.6146 71.5929ZM86.5028 77.4773C86.8229 77.6373 86.9575 78.0364 86.8033 78.3688C86.6155 78.7737 86.432 79.179 86.2528 79.5844C86.1046 79.9196 85.7227 80.0667 85.3999 79.9128C85.077 79.7589 84.9354 79.3625 85.0835 79.0272C85.2661 78.6143 85.453 78.2017 85.6442 77.7893C85.7983 77.457 86.1827 77.3173 86.5028 77.4773ZM83.9142 83.6317C84.2473 83.76 84.4171 84.1444 84.2935 84.4902C84.1426 84.912 83.9963 85.3339 83.8543 85.7559C83.7372 86.1041 83.3703 86.2878 83.0349 86.1661C82.6996 86.0445 82.5226 85.6636 82.6398 85.3154C82.7845 84.8853 82.9336 84.4553 83.0873 84.0254C83.211 83.6796 83.5812 83.5033 83.9142 83.6317ZM288.213 85.6315C288.217 86.0003 287.933 86.3031 287.577 86.3077C287.155 86.3132 286.732 86.3219 286.307 86.3338C285.952 86.3437 285.656 86.0529 285.647 85.6841C285.637 85.3154 285.917 85.0085 286.272 84.9986C286.703 84.9865 287.133 84.9777 287.561 84.9721C287.917 84.9675 288.208 85.2627 288.213 85.6315ZM292.048 85.6959C292.064 85.3274 292.365 85.0421 292.719 85.0586C293.151 85.0787 293.581 85.102 294.009 85.1283C294.364 85.1502 294.634 85.4663 294.613 85.8345C294.592 86.2027 294.288 86.4835 293.933 86.4617C293.511 86.4357 293.087 86.4128 292.662 86.393C292.307 86.3764 292.032 86.0643 292.048 85.6959ZM281.813 85.9057C281.842 86.2732 281.58 86.5963 281.226 86.6273C280.806 86.664 280.386 86.7039 279.965 86.7471C279.611 86.7833 279.296 86.5151 279.261 86.148C279.226 85.781 279.485 85.4541 279.838 85.4179C280.266 85.3741 280.692 85.3336 281.118 85.2963C281.472 85.2653 281.783 85.5381 281.813 85.9057ZM298.433 86.1834C298.475 85.8171 298.794 85.5547 299.147 85.5975C299.576 85.6494 300.004 85.7044 300.429 85.7624C300.782 85.8103 301.03 86.1456 300.984 86.5113C300.937 86.877 300.614 87.1347 300.262 87.0867C299.842 87.0296 299.421 86.9754 298.998 86.9242C298.645 86.8814 298.392 86.5498 298.433 86.1834ZM275.442 86.6529C275.497 87.0173 275.257 87.3588 274.906 87.4157C274.492 87.4826 274.078 87.5527 273.663 87.6261C273.312 87.688 272.98 87.4434 272.92 87.0797C272.861 86.7161 273.097 86.3712 273.447 86.3094C273.868 86.2349 274.288 86.1638 274.708 86.0959C275.059 86.0391 275.388 86.2884 275.442 86.6529ZM304.771 87.1393C304.837 86.7769 305.173 86.5384 305.523 86.6066C305.947 86.6896 306.37 86.7754 306.79 86.864C307.138 86.9372 307.363 87.2897 307.293 87.6512C307.222 88.0127 306.883 88.2463 306.535 88.173C306.12 88.0857 305.703 88.0011 305.284 87.9193C304.935 87.851 304.706 87.5018 304.771 87.1393ZM269.127 87.8626C269.205 88.2222 268.988 88.5801 268.642 88.6618C268.237 88.7574 267.831 88.8561 267.425 88.958C267.079 89.0445 266.732 88.8239 266.648 88.4654C266.565 88.1068 266.778 87.746 267.123 87.6595C267.535 87.5563 267.946 87.4562 268.357 87.3594C268.703 87.2776 269.048 87.5029 269.127 87.8626ZM311.032 88.549C311.121 88.192 311.472 87.9778 311.816 88.0706C312.234 88.1833 312.649 88.2985 313.062 88.4161C313.405 88.5137 313.606 88.8811 313.512 89.2368C313.419 89.5925 313.065 89.8018 312.722 89.7043C312.314 89.5882 311.904 89.4745 311.493 89.3634C311.149 89.2706 310.942 88.906 311.032 88.549ZM262.934 89.5049C263.035 89.8584 262.841 90.2303 262.501 90.3356C262.091 90.4624 261.68 90.5925 261.268 90.7259C260.929 90.8357 260.568 90.6393 260.462 90.2872C260.356 89.9351 260.546 89.5606 260.885 89.4508C261.302 89.3156 261.718 89.1839 262.134 89.0554C262.474 88.9502 262.832 89.1514 262.934 89.5049ZM317.188 90.3922C317.299 90.0421 317.663 89.8523 318.001 89.9684C318.409 90.1089 318.815 90.2517 319.219 90.3966C319.555 90.5171 319.733 90.8974 319.617 91.246C319.501 91.5946 319.134 91.7795 318.799 91.659C318.4 91.5159 317.999 91.375 317.596 91.2363C317.259 91.1202 317.076 90.7423 317.188 90.3922ZM81.8986 90.0174C82.2421 90.1116 82.447 90.477 82.3564 90.8336C82.2459 91.2683 82.1399 91.7029 82.0384 92.1373C81.9546 92.4958 81.6068 92.7158 81.2616 92.6289C80.9164 92.5419 80.7044 92.1809 80.7881 91.8224C80.8917 91.3793 80.9998 90.9361 81.1125 90.4927C81.2031 90.1361 81.5551 89.9233 81.8986 90.0174ZM256.868 91.555C256.99 91.9012 256.819 92.285 256.486 92.4122C256.084 92.5654 255.682 92.7217 255.279 92.8814C254.947 93.0128 254.575 92.84 254.448 92.4954C254.322 92.1507 254.488 91.7648 254.82 91.6334C255.228 91.4718 255.636 91.3135 256.042 91.1584C256.376 91.0312 256.745 91.2088 256.868 91.555ZM323.215 92.6446C323.348 92.3025 323.723 92.137 324.052 92.2749C324.45 92.4412 324.844 92.6093 325.236 92.7792C325.564 92.9212 325.719 93.3123 325.582 93.6527C325.445 93.9931 325.069 94.1539 324.741 94.0118C324.354 93.844 323.964 93.6779 323.571 93.5137C323.242 93.3758 323.082 92.9867 323.215 92.6446ZM250.919 93.9938C251.061 94.3319 250.912 94.7255 250.587 94.873C250.199 95.0484 249.811 95.2268 249.423 95.4084C249.099 95.5597 248.718 95.4098 248.572 95.0734C248.427 94.737 248.571 94.3417 248.895 94.1903C249.288 94.0067 249.68 93.8262 250.072 93.6488C250.398 93.5012 250.777 93.6557 250.919 93.9938ZM329.092 95.2787C329.245 94.9455 329.629 94.8038 329.949 94.9621C330.334 95.1516 330.715 95.3425 331.093 95.5346C331.412 95.6968 331.544 96.0968 331.388 96.4281C331.232 96.7594 330.846 96.8965 330.527 96.7343C330.154 96.5444 329.777 96.3558 329.397 96.1685C329.076 96.0102 328.94 95.6118 329.092 95.2787ZM245.084 96.8022C245.244 97.1315 245.117 97.5332 244.8 97.6993C244.429 97.8939 244.057 98.0912 243.685 98.2915C243.369 98.4611 242.981 98.3331 242.818 98.0056C242.654 97.6781 242.777 97.2751 243.093 97.1054C243.469 96.903 243.845 96.7035 244.22 96.5069C244.537 96.3407 244.924 96.4729 245.084 96.8022ZM80.4974 96.5819C80.8482 96.6399 81.0874 96.9822 81.0315 97.3465C80.9636 97.7896 80.9001 98.2324 80.8412 98.6749C80.7925 99.0402 80.4677 99.2954 80.1158 99.2449C79.7639 99.1943 79.5181 98.8572 79.5668 98.4918C79.6269 98.0404 79.6917 97.5886 79.761 97.1365C79.8169 96.7722 80.1466 96.5239 80.4974 96.5819ZM334.797 98.2639C334.967 97.9404 335.358 97.822 335.67 97.9992C336.055 98.2182 336.436 98.438 336.813 98.6585C337.122 98.8395 337.232 99.2468 337.058 99.5682C336.883 99.8895 336.491 100.003 336.181 99.8223C335.808 99.6043 335.432 99.387 335.052 99.1705C334.74 98.9932 334.626 98.5873 334.797 98.2639ZM239.43 99.9221C239.606 100.242 239.499 100.65 239.191 100.833C238.814 101.057 238.437 101.283 238.06 101.513C237.753 101.699 237.359 101.592 237.18 101.274C237 100.956 237.103 100.547 237.41 100.36C237.791 100.128 238.172 99.8997 238.552 99.6738C238.861 99.4908 239.254 99.6019 239.43 99.9221ZM340.364 101.605C340.552 101.292 340.949 101.196 341.25 101.391C341.62 101.631 341.985 101.87 342.346 102.11C342.646 102.308 342.733 102.721 342.542 103.032C342.351 103.343 341.953 103.434 341.653 103.235C341.297 102.998 340.935 102.761 340.57 102.525C340.268 102.329 340.176 101.918 340.364 101.605ZM233.967 103.314C234.158 103.625 234.07 104.038 233.77 104.236C233.411 104.473 233.052 104.713 232.693 104.956C232.395 105.157 231.997 105.07 231.803 104.761C231.609 104.451 231.694 104.038 231.991 103.837C232.354 103.592 232.717 103.349 233.079 103.11C233.378 102.911 233.776 103.003 233.967 103.314ZM79.7396 103.262C80.0943 103.283 80.3656 103.598 80.3456 103.966C80.3213 104.413 80.3015 104.86 80.2861 105.306C80.2734 105.674 79.9753 105.962 79.6202 105.949C79.2652 105.936 78.9877 105.626 79.0004 105.258C79.0161 104.803 79.0363 104.347 79.0611 103.891C79.0811 103.523 79.3849 103.241 79.7396 103.262ZM345.728 105.25C345.933 104.948 346.334 104.875 346.624 105.087C346.971 105.34 347.311 105.591 347.646 105.841C347.935 106.056 348.001 106.473 347.794 106.773C347.586 107.073 347.184 107.141 346.896 106.926C346.564 106.678 346.227 106.43 345.885 106.18C345.594 105.968 345.524 105.552 345.728 105.25ZM228.602 107.01C228.806 107.312 228.736 107.728 228.446 107.94C228.106 108.188 227.765 108.439 227.424 108.692C227.136 108.907 226.734 108.838 226.527 108.538C226.32 108.238 226.387 107.821 226.676 107.606C227.02 107.351 227.363 107.098 227.706 106.848C227.997 106.635 228.398 106.708 228.602 107.01ZM350.894 109.195C351.114 108.905 351.518 108.855 351.797 109.083C352.142 109.365 352.479 109.644 352.807 109.919C353.083 110.15 353.127 110.571 352.904 110.858C352.681 111.145 352.276 111.19 351.999 110.959C351.675 110.687 351.342 110.411 351.001 110.132C350.722 109.904 350.674 109.484 350.894 109.195ZM79.6389 109.988C79.9938 109.971 80.2945 110.257 80.3106 110.625C80.3301 111.071 80.354 111.517 80.3821 111.962C80.4054 112.33 80.137 112.648 79.7825 112.672C79.428 112.696 79.1217 112.417 79.0984 112.049C79.0697 111.596 79.0453 111.141 79.0254 110.686C79.0093 110.317 79.284 110.005 79.6389 109.988ZM223.437 110.916C223.653 111.208 223.6 111.628 223.318 111.852C222.974 112.126 222.63 112.402 222.286 112.681C222.006 112.907 221.601 112.855 221.383 112.565C221.164 112.274 221.214 111.854 221.495 111.627C221.842 111.346 222.188 111.068 222.535 110.792C222.817 110.568 223.221 110.623 223.437 110.916ZM355.838 113.432C356.074 113.156 356.48 113.131 356.746 113.375C357.08 113.684 357.399 113.981 357.702 114.268C357.965 114.516 357.984 114.938 357.745 115.211C357.505 115.484 357.099 115.504 356.836 115.255C356.537 114.973 356.222 114.679 355.892 114.375C355.626 114.13 355.602 113.708 355.838 113.432ZM218.435 115.027C218.662 115.311 218.624 115.732 218.35 115.968C218.026 116.247 217.701 116.529 217.376 116.813C217.105 117.05 216.699 117.014 216.47 116.732C216.241 116.45 216.276 116.029 216.548 115.791C216.875 115.505 217.202 115.221 217.529 114.94C217.803 114.704 218.208 114.743 218.435 115.027ZM80.1942 116.691C80.5457 116.637 80.8726 116.889 80.9243 117.254C80.9868 117.696 81.0535 118.136 81.1244 118.575C81.1832 118.939 80.9468 119.283 80.5964 119.344C80.246 119.405 79.9144 119.16 79.8556 118.796C79.7833 118.348 79.7152 117.899 79.6514 117.449C79.5997 117.084 79.8427 116.744 80.1942 116.691ZM360.52 117.993C360.777 117.739 361.184 117.748 361.43 118.015C361.562 118.159 361.662 118.27 361.73 118.345C361.763 118.383 361.789 118.412 361.807 118.432L361.826 118.454L361.832 118.461L361.833 118.462M360.52 117.993C360.263 118.248 360.254 118.671 360.499 118.937ZM360.499 118.937C360.627 119.077 360.723 119.183 360.787 119.255ZM360.787 119.255C360.819 119.29 360.843 119.317 360.858 119.335ZM360.858 119.335L360.875 119.354ZM360.875 119.354L360.879 119.359ZM360.879 119.359L360.88 119.359ZM361.833 118.462C361.833 118.462 361.834 118.463 361.357 118.911L361.833 118.462C362.072 118.736 362.052 119.159 361.789 119.406ZM213.515 119.392C213.752 119.667 213.729 120.089 213.463 120.335C213.147 120.629 212.829 120.924 212.512 121.222C212.249 121.47 211.842 121.449 211.603 121.175C211.365 120.902 211.386 120.479 211.649 120.232C211.969 119.932 212.288 119.634 212.607 119.338C212.872 119.093 213.279 119.117 213.515 119.392ZM81.3921 123.302C81.7368 123.213 82.0861 123.43 82.1723 123.788C82.2765 124.22 82.3847 124.651 82.4969 125.08C82.5899 125.436 82.3873 125.803 82.0444 125.9C81.7016 125.996 81.3482 125.786 81.2552 125.43C81.1409 124.992 81.0305 124.553 80.9243 124.112C80.838 123.754 81.0475 123.392 81.3921 123.302ZM208.852 123.828C209.097 124.095 209.087 124.518 208.83 124.772C208.522 125.076 208.214 125.383 207.906 125.692C207.65 125.948 207.243 125.94 206.996 125.675C206.749 125.409 206.757 124.986 207.012 124.73C207.323 124.42 207.632 124.111 207.942 123.805C208.199 123.55 208.607 123.561 208.852 123.828ZM204.201 128.545C204.454 128.804 204.457 129.227 204.207 129.489C203.918 129.793 203.629 130.1 203.339 130.408C203.091 130.672 202.684 130.677 202.43 130.419C202.176 130.162 202.17 129.739 202.419 129.475C202.71 129.165 203.001 128.857 203.291 128.551C203.541 128.289 203.948 128.286 204.201 128.545ZM83.2099 129.759C83.5445 129.635 83.9125 129.817 84.0318 130.164C84.1758 130.583 84.3237 131.001 84.4753 131.417C84.601 131.762 84.4336 132.148 84.1014 132.278C83.7691 132.409 83.3978 132.235 83.2721 131.89C83.1175 131.466 82.9668 131.04 82.82 130.613C82.7007 130.265 82.8752 129.883 83.2099 129.759ZM199.826 133.254C200.086 133.505 200.1 133.928 199.858 134.198C199.567 134.521 199.276 134.847 198.985 135.174C198.744 135.446 198.337 135.463 198.076 135.212C197.815 134.962 197.798 134.54 198.039 134.269C198.332 133.939 198.625 133.612 198.917 133.286C199.159 133.017 199.567 133.002 199.826 133.254ZM85.6189 136.004C85.9406 135.848 86.3236 135.992 86.4743 136.326C86.6561 136.729 86.8416 137.13 87.0306 137.529C87.1874 137.86 87.056 138.26 86.7372 138.423C86.4184 138.586 86.0329 138.449 85.8761 138.118C85.6836 137.712 85.4946 137.303 85.3092 136.892C85.1585 136.558 85.2972 136.161 85.6189 136.004ZM195.438 138.245C195.705 138.489 195.73 138.911 195.494 139.188C195.222 139.508 194.949 139.83 194.676 140.154C194.442 140.431 194.036 140.46 193.768 140.217C193.501 139.974 193.474 139.552 193.708 139.274C193.982 138.949 194.256 138.625 194.53 138.303C194.766 138.027 195.172 138.001 195.438 138.245ZM88.5878 141.984C88.8939 141.797 89.2883 141.903 89.4686 142.22C89.6862 142.604 89.9071 142.985 90.1313 143.364C90.3174 143.678 90.2229 144.089 89.9202 144.282C89.6176 144.475 89.2214 144.377 89.0353 144.063C88.8069 143.677 88.5818 143.289 88.3602 142.898C88.1798 142.581 88.2818 142.171 88.5878 141.984ZM191.316 143.183C191.588 143.421 191.623 143.842 191.394 144.124C191.12 144.462 190.846 144.802 190.572 145.144C190.344 145.427 189.939 145.465 189.666 145.229C189.393 144.993 189.356 144.572 189.584 144.288C189.859 143.945 190.135 143.604 190.41 143.264C190.639 142.982 191.045 142.946 191.316 143.183ZM92.0847 147.648C92.3725 147.432 92.7747 147.499 92.9829 147.798C93.234 148.158 93.4882 148.516 93.7455 148.871C93.9591 149.166 93.9021 149.584 93.6182 149.806C93.3343 150.028 92.931 149.969 92.7175 149.674C92.4553 149.312 92.1963 148.948 91.9405 148.581C91.7323 148.282 91.7968 147.864 92.0847 147.648ZM187.175 148.391C187.452 148.622 187.497 149.042 187.274 149.33C187.137 149.508 186.999 149.687 186.861 149.866C186.72 150.048 186.579 150.23 186.438 150.411C186.215 150.698 185.809 150.742 185.533 150.509C185.258 150.277 185.215 149.856 185.439 149.57C185.578 149.392 185.717 149.212 185.856 149.032C185.994 148.852 186.133 148.673 186.271 148.494C186.493 148.206 186.898 148.16 187.175 148.391ZM96.0775 152.947C96.3445 152.703 96.7509 152.731 96.9853 153.008C97.2678 153.342 97.5532 153.673 97.8413 154.001C98.0807 154.274 98.062 154.696 97.7995 154.945C97.537 155.193 97.1301 155.174 96.8908 154.901C96.5971 154.567 96.3063 154.23 96.0184 153.889C95.784 153.612 95.8105 153.19 96.0775 152.947ZM182.967 153.606C183.229 153.855 183.247 154.278 183.007 154.55C182.718 154.878 182.428 155.202 182.137 155.522C181.893 155.791 181.486 155.803 181.227 155.55C180.969 155.296 180.957 154.874 181.201 154.605C181.487 154.29 181.773 153.971 182.058 153.648C182.298 153.376 182.705 153.357 182.967 153.606ZM100.535 157.829C100.778 157.561 101.185 157.548 101.444 157.801C101.756 158.105 102.07 158.406 102.387 158.704C102.65 158.951 102.671 159.373 102.432 159.647C102.194 159.92 101.787 159.942 101.524 159.694C101.201 159.391 100.88 159.084 100.563 158.774C100.304 158.521 100.291 158.098 100.535 157.829ZM178.437 158.423C178.679 158.694 178.663 159.116 178.402 159.367C178.084 159.673 177.764 159.975 177.444 160.272C177.179 160.518 176.773 160.495 176.536 160.22C176.299 159.945 176.322 159.522 176.587 159.277C176.901 158.985 177.215 158.688 177.528 158.387C177.789 158.136 178.196 158.153 178.437 158.423ZM105.424 162.243C105.641 161.951 106.045 161.896 106.327 162.121C106.665 162.392 107.006 162.659 107.349 162.923C107.635 163.142 107.696 163.56 107.485 163.857C107.273 164.153 106.871 164.216 106.585 163.997C106.235 163.728 105.887 163.456 105.541 163.179C105.26 162.954 105.208 162.535 105.424 162.243ZM173.534 162.807C173.75 163.099 173.697 163.519 173.415 163.743C173.068 164.02 172.72 164.292 172.371 164.559C172.085 164.778 171.682 164.714 171.472 164.417C171.261 164.12 171.322 163.702 171.608 163.483C171.95 163.222 172.291 162.955 172.632 162.684C172.914 162.459 173.318 162.514 173.534 162.807ZM110.712 166.128C110.899 165.815 111.296 165.718 111.598 165.912C111.961 166.146 112.326 166.375 112.693 166.6C112.999 166.787 113.1 167.197 112.92 167.515C112.739 167.832 112.345 167.938 112.039 167.75C111.664 167.52 111.291 167.286 110.921 167.048C110.619 166.854 110.525 166.442 110.712 166.128ZM168.249 166.678C168.435 166.992 168.341 167.403 168.038 167.597C167.664 167.836 167.288 168.07 166.913 168.299C166.606 168.485 166.212 168.379 166.033 168.061C165.853 167.742 165.956 167.333 166.262 167.147C166.63 166.923 166.997 166.694 167.363 166.46C167.666 166.266 168.062 166.364 168.249 166.678ZM116.359 169.423C116.513 169.09 116.897 168.95 117.217 169.11C117.602 169.302 117.989 169.489 118.377 169.671C118.7 169.824 118.844 170.219 118.697 170.555C118.551 170.891 118.169 171.04 117.846 170.888C117.449 170.701 117.054 170.51 116.661 170.314C116.34 170.154 116.205 169.756 116.359 169.423ZM162.594 169.944C162.745 170.278 162.607 170.675 162.286 170.832C161.887 171.027 161.488 171.215 161.089 171.398C160.764 171.547 160.385 171.395 160.241 171.057C160.098 170.72 160.245 170.325 160.57 170.176C160.96 169.998 161.349 169.813 161.738 169.624C162.06 169.467 162.443 169.61 162.594 169.944ZM122.318 172.059C122.434 171.711 122.801 171.526 123.137 171.648C123.54 171.793 123.945 171.934 124.351 172.07C124.69 172.183 124.875 172.559 124.767 172.91C124.658 173.262 124.295 173.454 123.957 173.341C123.541 173.202 123.127 173.058 122.714 172.909C122.378 172.788 122.201 172.407 122.318 172.059ZM156.611 172.508C156.723 172.859 156.539 173.236 156.202 173.352C155.785 173.495 155.367 173.632 154.949 173.763C154.609 173.869 154.25 173.67 154.147 173.316C154.045 172.963 154.237 172.591 154.577 172.484C154.985 172.356 155.392 172.223 155.799 172.083C156.136 171.968 156.5 172.158 156.611 172.508ZM128.529 173.967C128.605 173.607 128.948 173.379 129.295 173.458C129.712 173.553 130.13 173.643 130.548 173.727C130.897 173.797 131.125 174.148 131.057 174.51C130.99 174.872 130.652 175.109 130.303 175.038C129.874 174.952 129.446 174.86 129.02 174.763C128.673 174.684 128.453 174.327 128.529 173.967ZM150.369 174.288C150.437 174.65 150.209 175.001 149.86 175.071C149.43 175.157 149 175.238 148.57 175.313C148.219 175.374 147.888 175.128 147.829 174.764C147.77 174.401 148.007 174.056 148.357 173.995C148.777 173.923 149.196 173.844 149.615 173.759C149.964 173.689 150.302 173.926 150.369 174.288ZM134.915 175.083C134.948 174.716 135.261 174.445 135.615 174.479C136.039 174.52 136.463 174.555 136.888 174.584C137.243 174.608 137.511 174.927 137.488 175.295C137.464 175.663 137.157 175.941 136.803 175.917C136.367 175.887 135.931 175.851 135.497 175.809C135.143 175.775 134.883 175.45 134.915 175.083ZM143.96 175.225C143.982 175.593 143.713 175.91 143.358 175.933C142.921 175.961 142.485 175.983 142.049 176C141.694 176.013 141.396 175.725 141.383 175.356C141.37 174.988 141.648 174.678 142.003 174.665C142.427 174.649 142.852 174.627 143.278 174.599C143.633 174.577 143.938 174.856 143.96 175.225Z" fill="#8CA4D4"/>
<g opacity="0.6">
<path fill-rule="evenodd" clip-rule="evenodd" d="M116.134 23C126.15 23 134.269 31.1191 134.269 41.1345C134.269 51.1499 126.15 59.269 116.134 59.269C106.119 59.269 98 51.1499 98 41.1345C98 31.1191 106.119 23 116.134 23Z" fill="url(#paint21_linear)"/>
<mask id="mask2" mask-type="alpha" maskUnits="userSpaceOnUse" x="98" y="23" width="37" height="37">
<path fill-rule="evenodd" clip-rule="evenodd" d="M116.134 23C126.15 23 134.269 31.1191 134.269 41.1345C134.269 51.1499 126.15 59.269 116.134 59.269C106.119 59.269 98 51.1499 98 41.1345C98 31.1191 106.119 23 116.134 23Z" fill="white"/>
</mask>
<g mask="url(#mask2)">
</g>
<path fill-rule="evenodd" clip-rule="evenodd" d="M117.831 34.3416L116.135 28.7695V41.7761L121.905 47.7283L120.808 44.1221L117.831 41.0515V34.3416Z" fill="white"/>
</g>
<path fill-rule="evenodd" clip-rule="evenodd" d="M7.83204 202.24C7.83204 209.052 1.81011 222.401 9.66274 225.861C17.5154 229.322 24.4595 211.347 24.4595 211.347C24.4595 211.347 23.861 198.149 16.7618 198.149C9.66274 198.149 7.83204 195.429 7.83204 202.24Z" fill="url(#paint22_linear)"/>
<mask id="mask3" mask-type="alpha" maskUnits="userSpaceOnUse" x="5" y="197" width="20" height="30">
<path fill-rule="evenodd" clip-rule="evenodd" d="M7.83204 202.24C7.83204 209.052 1.81011 222.401 9.66274 225.861C17.5154 229.322 24.4595 211.347 24.4595 211.347C24.4595 211.347 23.861 198.149 16.7618 198.149C9.66274 198.149 7.83204 195.429 7.83204 202.24Z" fill="white"/>
</mask>
<g mask="url(#mask3)">
<g opacity="0.5">
<path fill-rule="evenodd" clip-rule="evenodd" d="M7.37989 205.29C8.01315 206.489 16.6426 212.832 18.0696 214.332C19.4965 215.831 19.8227 219.751 20.6421 219.346C21.4615 218.941 20.6421 207.443 20.6421 207.443C20.6421 207.443 6.74663 204.091 7.37989 205.29Z" fill="#3D82F0" style="mix-blend-mode:multiply"/>
</g>
</g>
<path fill-rule="evenodd" clip-rule="evenodd" d="M21.8776 356.687C21.7458 360.205 20.6056 364.569 21.5155 366.348C22.4255 368.127 27.2258 369.203 28.8209 369.255C30.4159 369.307 31.0433 366.818 33.4721 368.188C35.9009 369.558 50.0217 369.945 51.135 364.743C52.2484 359.541 45.0911 359.308 41.9077 359.205C38.7243 359.101 35.4072 357.547 30.8209 353.643C26.2346 349.738 22.0095 353.169 21.8776 356.687Z" fill="url(#paint23_linear)"/>
<path fill-rule="evenodd" clip-rule="evenodd" d="M37.2135 357.888C37.1859 358.097 37.3454 358.287 37.5697 358.313C37.5655 358.312 37.5656 358.312 37.5702 358.314C37.5819 358.318 37.623 358.332 37.6974 358.374C37.7895 358.425 37.9046 358.503 38.0333 358.606C38.2906 358.812 38.5809 359.102 38.83 359.441C39.341 360.137 39.6089 360.933 39.2761 361.628C39.184 361.82 39.2766 362.045 39.4829 362.131C39.6892 362.217 39.9312 362.131 40.0233 361.938C40.5307 360.879 40.0741 359.785 39.5052 359.011C39.2144 358.615 38.8759 358.276 38.5668 358.028C38.4123 357.905 38.2597 357.799 38.1188 357.72C37.9891 357.648 37.8295 357.575 37.6694 357.556C37.4451 357.531 37.241 357.679 37.2135 357.888Z" fill="white"/>
<path fill-rule="evenodd" clip-rule="evenodd" d="M41.1376 358.791C41.1101 359 41.2696 359.19 41.4938 359.216C41.7155 359.241 42.1791 359.401 42.5523 359.786C42.9097 360.154 43.2039 360.749 43.0797 361.692C43.0521 361.901 43.2116 362.091 43.4359 362.117C43.6601 362.143 43.8643 361.994 43.8918 361.785C44.0436 360.634 43.6836 359.815 43.1594 359.274C42.651 358.75 42.0056 358.506 41.5936 358.459C41.3693 358.434 41.1652 358.582 41.1376 358.791Z" fill="white"/>
<path fill-rule="evenodd" clip-rule="evenodd" d="M92.963 364.126C93.2923 367.633 92.7314 372.094 93.8673 373.756C95.0032 375.418 99.9084 375.941 101.498 375.812C103.088 375.682 103.385 373.14 105.975 374.224C108.565 375.308 122.631 374.089 123.056 368.8C123.481 363.51 116.346 364.092 113.173 364.35C110 364.609 106.504 363.443 101.441 360.089C96.3786 356.734 92.6337 360.619 92.963 364.126Z" fill="url(#paint24_linear)"/>
<path fill-rule="evenodd" clip-rule="evenodd" d="M108.343 363.573C108.343 363.783 108.527 363.954 108.752 363.954C108.748 363.954 108.748 363.954 108.753 363.955C108.765 363.958 108.808 363.967 108.887 364C108.985 364.041 109.11 364.105 109.251 364.193C109.533 364.368 109.859 364.623 110.151 364.931C110.749 365.563 111.119 366.323 110.88 367.05C110.813 367.252 110.935 367.465 111.151 367.526C111.367 367.588 111.596 367.475 111.662 367.274C112.027 366.165 111.431 365.13 110.765 364.427C110.424 364.067 110.044 363.769 109.705 363.558C109.535 363.453 109.37 363.366 109.22 363.303C109.082 363.246 108.914 363.192 108.752 363.192C108.527 363.192 108.343 363.362 108.343 363.573Z" fill="white"/>
<path fill-rule="evenodd" clip-rule="evenodd" d="M112.355 364.022C112.355 364.233 112.538 364.403 112.764 364.403C112.987 364.403 113.469 364.509 113.889 364.848C114.292 365.174 114.662 365.731 114.662 366.681C114.662 366.892 114.845 367.062 115.071 367.062C115.297 367.062 115.48 366.892 115.48 366.681C115.48 365.521 115.016 364.749 114.425 364.272C113.852 363.81 113.179 363.641 112.764 363.641C112.538 363.641 112.355 363.812 112.355 364.022Z" fill="white"/>
<path fill-rule="evenodd" clip-rule="evenodd" d="M79.7848 238.093C79.7848 238.093 95.2082 290.743 97.2161 302.723C99.2241 314.703 104.138 355.198 103.444 361.729C100.088 364.918 94.0414 363.009 92.9882 362.424C91.9349 361.839 85.4458 328.521 79.7848 315.596C74.1238 302.672 61.3845 290.776 52.9902 277.772C52.9902 286.236 46.5082 308.886 46.5082 308.886C46.5082 308.886 37.0564 348.886 33.8399 355.36C32.3137 357.657 24.609 355.973 21.6206 355.36C21.6206 349.294 28.064 318.644 28.064 308.004C28.064 297.364 26.282 278.081 25.6163 270.176C24.9505 262.271 23.3239 246.934 25.6163 238.093C31.4273 238.093 79.7848 238.093 79.7848 238.093Z" fill="url(#paint25_linear)"/>
<mask id="mask4" mask-type="alpha" maskUnits="userSpaceOnUse" x="21" y="238" width="83" height="126">
<path fill-rule="evenodd" clip-rule="evenodd" d="M79.7848 238.093C79.7848 238.093 95.2082 290.743 97.2161 302.723C99.2241 314.703 104.138 355.198 103.444 361.729C100.088 364.918 94.0414 363.009 92.9882 362.424C91.9349 361.839 85.4458 328.521 79.7848 315.596C74.1238 302.672 61.3845 290.776 52.9902 277.772C52.9902 286.236 46.5082 308.886 46.5082 308.886C46.5082 308.886 37.0564 348.886 33.8399 355.36C32.3137 357.657 24.609 355.973 21.6206 355.36C21.6206 349.294 28.064 318.644 28.064 308.004C28.064 297.364 26.282 278.081 25.6163 270.176C24.9505 262.271 23.3239 246.934 25.6163 238.093C31.4273 238.093 79.7848 238.093 79.7848 238.093Z" fill="white"/>
</mask>
<g mask="url(#mask4)">
<g opacity="0.5">
<path fill-rule="evenodd" clip-rule="evenodd" d="M44.856 315.035C44.856 309.881 47.7058 267.771 48.3605 269.499C49.0152 271.227 54.1137 280.559 54.1137 280.559C54.1137 280.559 44.856 320.188 44.856 315.035Z" fill="#A1B8E3" style="mix-blend-mode:multiply"/>
</g>
<path fill-rule="evenodd" clip-rule="evenodd" d="M48.4208 269.152C48.6406 269.103 48.8612 269.23 48.9136 269.434C49.299 270.941 50.2427 272.765 51.2875 274.561C51.7448 275.346 52.2259 276.134 52.6815 276.879C53.2491 277.808 53.777 278.671 54.1696 279.386C54.2725 279.574 54.1928 279.803 53.9917 279.899C53.7905 279.995 53.544 279.921 53.4411 279.734C53.0504 279.022 52.5426 278.192 51.9877 277.285C51.5332 276.542 51.0472 275.747 50.5682 274.924C49.5224 273.127 48.5305 271.225 48.1177 269.611C48.0653 269.406 48.201 269.201 48.4208 269.152Z" fill="white"/>
<g opacity="0.5">
<path fill-rule="evenodd" clip-rule="evenodd" d="M29.1855 246.891C32.7908 248.698 46.9094 256.387 65.1017 253.306C74.0904 251.783 79.8725 249.791 82.4662 246.891C82.4662 245.463 80.286 239.456 79.6772 237.158C79.0684 234.859 24.7703 244.679 29.1855 246.891Z" fill="url(#paint26_linear)" style="mix-blend-mode:multiply"/>
</g>
</g>
<path fill-rule="evenodd" clip-rule="evenodd" d="M52.5081 126.175C52.5081 126.175 54.592 129.936 58.122 131.533C61.6519 133.13 63.416 133.911 63.416 133.911L61.9153 139.335C61.9153 139.335 64.7124 147.31 63.416 149.998C62.1196 152.687 58.122 154.473 55.7952 156.871C53.4685 159.268 51.3174 167.401 51.3174 167.401H35.9819L35.2875 156.871C35.2875 156.871 31.1976 141.676 38.1366 133.911C45.0755 126.146 52.5081 126.175 52.5081 126.175Z" fill="url(#paint27_linear)"/>
<mask id="mask5" mask-type="alpha" maskUnits="userSpaceOnUse" x="34" y="126" width="30" height="42">
<path fill-rule="evenodd" clip-rule="evenodd" d="M52.5081 126.175C52.5081 126.175 54.592 129.936 58.122 131.533C61.6519 133.13 63.416 133.911 63.416 133.911L61.9153 139.335C61.9153 139.335 64.7124 147.31 63.416 149.998C62.1196 152.687 58.122 154.473 55.7952 156.871C53.4685 159.268 51.3174 167.401 51.3174 167.401H35.9819L35.2875 156.871C35.2875 156.871 31.1976 141.676 38.1366 133.911C45.0755 126.146 52.5081 126.175 52.5081 126.175Z" fill="white"/>
</mask>
<g mask="url(#mask5)">
<g opacity="0.5">
<path fill-rule="evenodd" clip-rule="evenodd" d="M57.7047 155.439C53.8337 155.439 47.795 152.245 46.6327 151.154C45.4705 150.063 56.3102 161.867 55.4054 163.747C54.6915 165.23 52.1432 165.683 53.7504 165.683C59.5469 165.683 61.5758 155.439 57.7047 155.439Z" fill="#3D82F0" style="mix-blend-mode:multiply"/>
</g>
</g>
<path fill-rule="evenodd" clip-rule="evenodd" d="M35.2871 156.427C21.7658 144.652 11.0592 134.603 20.2929 120.6C29.5266 106.598 51.0113 101.89 55.0272 118.912C55.0272 126.215 49.2395 130.116 49.2395 130.116C49.2395 130.116 48.1568 132.169 51.0113 134.347C53.8658 136.525 51.0113 138.324 51.0113 138.324C51.0113 138.324 45.3745 134.946 43.9025 139.445C42.4305 143.943 47.8639 145.553 47.8639 146.679C49.7367 150.817 45.8716 154.602 45.8716 154.602C45.8716 154.602 43.8928 156.427 35.2871 156.427Z" fill="url(#paint28_linear)"/>
<path fill-rule="evenodd" clip-rule="evenodd" d="M21.3401 172.312C21.3401 172.312 6.86589 195.969 5.11953 201.175C3.37318 206.38 21.3401 209.391 21.3401 209.391L28.8378 179.632L21.3401 172.312Z" fill="url(#paint29_linear)"/>
<path fill-rule="evenodd" clip-rule="evenodd" d="M52.6082 164.165C52.6082 164.165 63.5098 166.846 69.9335 173.929C76.3573 181.011 74.9258 202.32 76.7453 215.002C78.5647 227.685 86.4815 236.903 74.253 244.06C62.0246 251.217 27.4497 249.592 24.6222 244.06C21.7946 238.529 18.5718 204.529 18.5718 204.529C18.5718 204.529 18.5718 173.929 22.4339 171.349C26.296 168.769 35.3119 163.784 35.3119 163.784C35.3119 163.784 35.1098 164.543 39.459 165.294C43.8081 166.046 52.6082 164.165 52.6082 164.165Z" fill="#D6E3FA"/>
<mask id="mask6" mask-type="alpha" maskUnits="userSpaceOnUse" x="18" y="163" width="63" height="86">
<path fill-rule="evenodd" clip-rule="evenodd" d="M52.6082 164.165C52.6082 164.165 63.5098 166.846 69.9335 173.929C76.3573 181.011 74.9258 202.32 76.7453 215.002C78.5647 227.685 86.4815 236.903 74.253 244.06C62.0246 251.217 27.4497 249.592 24.6222 244.06C21.7946 238.529 18.5718 204.529 18.5718 204.529C18.5718 204.529 18.5718 173.929 22.4339 171.349C26.296 168.769 35.3119 163.784 35.3119 163.784C35.3119 163.784 35.1098 164.543 39.459 165.294C43.8081 166.046 52.6082 164.165 52.6082 164.165Z" fill="white"/>
</mask>
<g mask="url(#mask6)">
<path opacity="0.5" fill-rule="evenodd" clip-rule="evenodd" d="M61.6641 188.374C61.6641 188.374 67.5443 213.983 71.0827 218.783C74.6211 223.583 76.9218 238.108 79.754 239.84C82.5862 241.572 86.6548 221.758 84.6205 214.974C82.5863 208.19 73.4168 191.573 73.4168 191.573L61.6641 188.374Z" fill="url(#paint30_linear)"/>
<path opacity="0.5" fill-rule="evenodd" clip-rule="evenodd" d="M37.9018 165.541C40.5189 167.158 47.338 168.034 53.0697 168.034C58.8015 168.034 60.5941 168.09 63.3367 167.313C66.0792 166.535 65.0158 165.541 63.3367 165.541C61.6575 165.541 56.4493 164.401 53.6461 164.401C50.8429 164.401 35.2848 163.924 37.9018 165.541Z" fill="url(#paint31_linear)"/>
</g>
<path fill-rule="evenodd" clip-rule="evenodd" d="M34.8163 164.168C34.8163 164.168 34.479 160.251 34.479 158.987C34.479 157.724 45.7705 159.508 53.8962 160.216C54.7779 163.368 54.6218 163.576 54.6218 164.168C54.6218 164.463 52.5925 166.999 41.6747 166.177C37.6893 165.877 34.8163 164.168 34.8163 164.168Z" fill="#E1ECFF"/>
<path fill-rule="evenodd" clip-rule="evenodd" d="M91.271 194.475C93.7064 189.379 95.0842 181.507 92.504 180.436C89.9238 179.366 86.2652 184.796 83.8297 189.892C81.3943 194.989 82.9071 198.29 84.4003 199.665C86.0751 199.987 88.8355 199.572 91.271 194.475Z" fill="#A1B8E3"/>
<path fill-rule="evenodd" clip-rule="evenodd" d="M88.396 179.243L99.8147 183.622C99.8147 183.622 109.942 158.445 110.556 155.178C111.171 151.91 108.448 147.299 108.008 145.655C107.568 144.011 107.639 140.143 108.869 138.727C110.098 137.311 110.422 137.817 111.341 137.603C112.259 137.39 117.708 126.501 118.327 125.133C118.945 123.765 120.046 122.906 121.167 123.362C122.288 123.818 122.183 125.035 121.741 126.111C121.298 127.187 118.812 133.228 119.094 134.279C119.375 135.331 123.753 136.691 124.975 137.389C126.197 138.087 128.277 140.383 127.237 143.704C126.197 147.026 121.398 153.047 121.741 154.327C122.083 155.607 117.237 177.307 115.695 185.985C114.153 194.663 112.137 200.749 104.264 200.247C96.3906 199.745 80.0749 191.588 80.0749 191.588C80.0749 191.588 81.1416 185.253 83.1798 182.862C85.218 180.472 88.396 179.243 88.396 179.243Z" fill="url(#paint32_linear)"/>
<mask id="mask7" mask-type="alpha" maskUnits="userSpaceOnUse" x="80" y="123" width="48" height="78">
<path fill-rule="evenodd" clip-rule="evenodd" d="M88.396 179.243L99.8147 183.622C99.8147 183.622 109.942 158.445 110.556 155.178C111.171 151.91 108.448 147.299 108.008 145.655C107.568 144.011 107.639 140.143 108.869 138.727C110.098 137.311 110.422 137.817 111.341 137.603C112.259 137.39 117.708 126.501 118.327 125.133C118.945 123.765 120.046 122.906 121.167 123.362C122.288 123.818 122.183 125.035 121.741 126.111C121.298 127.187 118.812 133.228 119.094 134.279C119.375 135.331 123.753 136.691 124.975 137.389C126.197 138.087 128.277 140.383 127.237 143.704C126.197 147.026 121.398 153.047 121.741 154.327C122.083 155.607 117.237 177.307 115.695 185.985C114.153 194.663 112.137 200.749 104.264 200.247C96.3906 199.745 80.0749 191.588 80.0749 191.588C80.0749 191.588 81.1416 185.253 83.1798 182.862C85.218 180.472 88.396 179.243 88.396 179.243Z" fill="white"/>
</mask>
<g mask="url(#mask7)">
<g opacity="0.5">
<path fill-rule="evenodd" clip-rule="evenodd" d="M92.144 180.409C92.144 180.409 89.7238 193.599 91.2423 197.48C92.7609 201.361 84.4321 195.885 84.4321 195.885C84.4321 195.885 84.5943 190.233 85.8743 187.664C87.1543 185.095 92.144 180.409 92.144 180.409Z" fill="#3D82F0" style="mix-blend-mode:multiply"/>
</g>
<path fill-rule="evenodd" clip-rule="evenodd" d="M99.2031 183.151C99.2974 182.96 99.5403 182.876 99.7456 182.964C99.7948 182.985 99.848 183.007 99.9047 183.031C100.586 183.315 101.788 183.815 102.861 185.2C102.993 185.371 102.952 185.609 102.769 185.732C102.585 185.855 102.33 185.817 102.197 185.646C101.255 184.43 100.226 184.001 99.565 183.724C99.5087 183.701 99.455 183.678 99.4042 183.657C99.1989 183.569 99.1088 183.343 99.2031 183.151Z" fill="#223762"/>
</g>
<path fill-rule="evenodd" clip-rule="evenodd" d="M84.2989 199.627C85.5848 193.632 87.4382 185.381 92.5872 180.443C74.2133 173.061 68.4234 170.444 62.6468 168.145C56.8703 165.846 51.614 180.989 62.6468 188.522C73.6797 196.055 81.2328 198.366 84.2989 199.627Z" fill="url(#paint33_linear)"/>
<path fill-rule="evenodd" clip-rule="evenodd" d="M348 123.703L354.182 115.822L374.221 128.059L358.872 110.844L366.333 104L385.093 136.147L348 123.703Z" fill="url(#paint34_linear)"/>
<path fill-rule="evenodd" clip-rule="evenodd" d="M354.595 116.158L359.174 115.54L375.202 128.729L354.595 116.158Z" fill="#E1A846"/>
<path fill-rule="evenodd" clip-rule="evenodd" d="M358.716 115.344L359.334 110.595L374.377 128.729L358.716 115.344Z" fill="#E6B052"/>
<path fill-rule="evenodd" clip-rule="evenodd" d="M456.663 333.569V328.777H465.852V334.649L459.693 335.341L456.663 333.569Z" fill="url(#paint35_linear)"/>
<path fill-rule="evenodd" clip-rule="evenodd" d="M505.764 315.651L500.638 311.642L507.072 303.181L511.796 308.803L505.764 315.651Z" fill="url(#paint36_linear)"/>
<path fill-rule="evenodd" clip-rule="evenodd" d="M484.99 245.425C484.99 245.425 487.126 270.926 488.64 274.711C490.154 278.496 508.514 303.719 508.514 303.719C508.514 303.719 507.567 306.703 505.6 308.881C503.751 310.929 501.83 312.112 500.349 313.027C496.752 310.174 473.297 286.237 473.297 286.237C473.297 286.237 471.315 273.145 473.297 265.975C475.278 258.806 484.99 245.425 484.99 245.425Z" fill="url(#paint37_linear)"/>
<path fill-rule="evenodd" clip-rule="evenodd" d="M449.444 222.856C449.444 224.343 451.722 230.792 452.427 238.668C452.923 244.214 451.824 250.468 452.153 256.197C452.951 270.06 456.619 329.734 456.619 329.734C456.619 329.734 459.12 331.554 461.94 331.972C464.759 332.39 469.378 331.184 469.378 331.184C469.378 331.184 474.689 290.387 477.255 280.417C478.491 275.618 477.432 265.149 481.97 257.186C484.057 253.523 485.618 248.898 486.696 244.972C488.165 239.616 487.552 233.976 485.635 228.763L480.901 215.89C480.901 215.89 449.444 220.321 449.444 222.856Z" fill="url(#paint38_linear)"/>
<mask id="mask8" mask-type="alpha" maskUnits="userSpaceOnUse" x="449" y="215" width="39" height="118">
<path fill-rule="evenodd" clip-rule="evenodd" d="M449.444 222.856C449.444 224.343 451.722 230.792 452.427 238.668C452.923 244.214 451.824 250.468 452.153 256.197C452.951 270.06 456.619 329.734 456.619 329.734C456.619 329.734 459.12 331.554 461.94 331.972C464.759 332.39 469.378 331.184 469.378 331.184C469.378 331.184 474.689 290.387 477.255 280.417C478.491 275.618 477.432 265.149 481.97 257.186C484.057 253.523 485.618 248.898 486.696 244.972C488.165 239.616 487.552 233.976 485.635 228.763L480.901 215.89C480.901 215.89 449.444 220.321 449.444 222.856Z" fill="white"/>
</mask>
<g mask="url(#mask8)">
<g opacity="0.5">
<path fill-rule="evenodd" clip-rule="evenodd" d="M451.053 224.632C456.12 226.036 475.052 226.911 483.38 222.044C491.708 217.178 462.793 218.762 462.793 218.762C462.793 218.762 445.985 223.228 451.053 224.632Z" fill="url(#paint39_linear)" style="mix-blend-mode:multiply"/>
</g>
<g opacity="0.5">
<path fill-rule="evenodd" clip-rule="evenodd" d="M469.135 244.769C467.492 244.32 465.982 244.145 464.633 242.53C463.593 241.286 462.571 239.258 462.571 236.596C462.571 230.48 464.202 227.704 464.202 227.704" fill="url(#paint40_linear)" style="mix-blend-mode:multiply"/>
</g>
</g>
<path fill-rule="evenodd" clip-rule="evenodd" d="M518.138 318.395C518.138 318.395 515.148 313.465 513.263 311.218C511.377 308.971 509.876 307.182 509.876 307.182C509.876 307.182 509.228 309.839 507.588 311.276C506.143 312.541 505.671 312.884 502.719 313.187C500.98 316.79 499.764 324.091 496.246 330.783C495.901 332.449 496.838 333.71 497.551 334.398C497.952 334.785 498.563 334.745 498.992 334.389L506.884 327.838L510.41 320.368L513.198 322.54L518.138 318.395Z" fill="url(#paint41_radial)"/>
<path fill-rule="evenodd" clip-rule="evenodd" d="M464.977 346.866C464.977 346.866 465.853 340.796 465.853 337.672C465.853 334.549 465.853 332.061 465.853 332.061C465.853 332.061 463.658 333.785 461.488 333.835C459.575 333.878 458.996 333.835 456.55 332.061C452.918 333.81 444.596 339.268 437.63 342.32C437.63 343.509 438.109 345.231 438.438 346.274C438.611 346.821 439.102 347.17 439.642 347.156L450.351 346.866L457.821 343.185L458.556 346.866H464.977Z" fill="url(#paint42_radial)"/>
<path fill-rule="evenodd" clip-rule="evenodd" d="M428.457 126.012C428.794 127.047 431.799 129.815 432.531 132.918C432.967 134.762 432.639 136.612 432.639 138.036C432.639 141.857 433.926 141.711 436.664 141.133C439.228 142.623 439.674 145.961 442.537 147.698C445.401 149.435 450.347 143.153 451.979 144.943C452.512 145.527 452.818 146.645 453.886 147.698C454.998 148.795 454.392 153.538 454.392 153.538C454.392 153.538 464.092 152.142 465.196 147.057C464.004 144.698 461.243 137.368 461.243 135.368C461.243 133.368 465.804 125.74 453.374 118.337C440.943 110.935 427.92 124.361 428.457 126.012Z" fill="url(#paint43_linear)"/>
<mask id="mask9" mask-type="alpha" maskUnits="userSpaceOnUse" x="428" y="116" width="38" height="38">
<path fill-rule="evenodd" clip-rule="evenodd" d="M428.457 126.012C428.794 127.047 431.799 129.815 432.531 132.918C432.967 134.762 432.639 136.612 432.639 138.036C432.639 141.857 433.926 141.711 436.664 141.133C439.228 142.623 439.674 145.961 442.537 147.698C445.401 149.435 450.347 143.153 451.979 144.943C452.512 145.527 452.818 146.645 453.886 147.698C454.998 148.795 454.392 153.538 454.392 153.538C454.392 153.538 464.092 152.142 465.196 147.057C464.004 144.698 461.243 137.368 461.243 135.368C461.243 133.368 465.804 125.74 453.374 118.337C440.943 110.935 427.92 124.361 428.457 126.012Z" fill="white"/>
</mask>
<g mask="url(#mask9)">
<g opacity="0.5">
<path fill-rule="evenodd" clip-rule="evenodd" d="M449.114 146.067C451.166 144.692 453.909 140.115 453.909 139.762C453.909 139.409 455.351 150.912 455.351 150.912C455.351 150.912 447.063 147.443 449.114 146.067Z" fill="#3D82F0" style="mix-blend-mode:multiply"/>
</g>
<path fill-rule="evenodd" clip-rule="evenodd" d="M440.243 141.938C440.291 142.096 440.194 142.261 440.026 142.307C438.759 142.651 438.018 143.219 437.581 144.169C437.511 144.319 437.325 144.389 437.164 144.323C437.004 144.258 436.93 144.082 437 143.931C437.527 142.788 438.439 142.117 439.851 141.734C440.019 141.689 440.194 141.78 440.243 141.938Z" fill="#223762"/>
</g>
<path fill-rule="evenodd" clip-rule="evenodd" d="M409.749 183.996C407.325 181.794 404.326 181.04 402.443 178.033C400.561 175.026 395.092 164.922 396.514 163.616C397.936 162.31 401.496 158.788 402.839 158.788C404.181 158.788 406.65 164.129 407.877 166.559C409.105 168.989 411.172 174.168 411.172 176.305C411.172 178.443 412.172 186.197 409.749 183.996Z" fill="url(#paint44_linear)"/>
<path fill-rule="evenodd" clip-rule="evenodd" d="M393.248 157.577C392.744 156.657 393.031 155.496 393.902 154.929L399.514 151.276C400.614 150.56 402.078 150.93 402.722 152.087L411.779 168.357C412.295 169.284 412.004 170.459 411.119 171.026L405.082 174.889C404.135 175.495 402.883 175.169 402.338 174.174L393.248 157.577Z" fill="#223762"/>
<path fill-rule="evenodd" clip-rule="evenodd" d="M395.089 156.026C394.839 155.557 394.99 154.965 395.431 154.688L401.207 151.055C401.668 150.765 402.269 150.928 402.535 151.417L411.252 167.431C411.509 167.904 411.356 168.504 410.907 168.78L404.982 172.431C404.518 172.717 403.92 172.548 403.658 172.058L395.089 156.026Z" fill="url(#paint45_linear)"/>
<path fill-rule="evenodd" clip-rule="evenodd" d="M441.613 185.074C441.613 185.074 430.813 199.365 430.274 199.365C429.736 199.365 417.332 180.79 417.332 179.942C417.332 179.093 418.217 175.767 415.762 172.22C413.308 168.672 411.809 162.457 410.518 161.351C409.226 160.244 409.217 159.762 408.567 160.361C407.918 160.96 407.96 161.473 408.567 162.779C409.175 164.086 410.518 167.842 410.518 168.808C410.518 169.775 409.896 173.218 410.518 174.529C411.139 175.84 410.545 180.942 411.316 183.541C412.087 186.14 426.07 212.509 430.172 211.943C434.275 211.376 448.768 195.736 448.768 195.736C448.768 195.736 451.012 188.843 447.329 186.265C443.645 183.686 441.613 185.074 441.613 185.074Z" fill="url(#paint46_linear)"/>
<mask id="mask10" mask-type="alpha" maskUnits="userSpaceOnUse" x="408" y="160" width="42" height="52">
<path fill-rule="evenodd" clip-rule="evenodd" d="M441.613 185.074C441.613 185.074 430.813 199.365 430.274 199.365C429.736 199.365 417.332 180.79 417.332 179.942C417.332 179.093 418.217 175.767 415.762 172.22C413.308 168.672 411.809 162.457 410.518 161.351C409.226 160.244 409.217 159.762 408.567 160.361C407.918 160.96 407.96 161.473 408.567 162.779C409.175 164.086 410.518 167.842 410.518 168.808C410.518 169.775 409.896 173.218 410.518 174.529C411.139 175.84 410.545 180.942 411.316 183.541C412.087 186.14 426.07 212.509 430.172 211.943C434.275 211.376 448.768 195.736 448.768 195.736C448.768 195.736 451.012 188.843 447.329 186.265C443.645 183.686 441.613 185.074 441.613 185.074Z" fill="white"/>
</mask>
<g mask="url(#mask10)">
<g opacity="0.5">
<path fill-rule="evenodd" clip-rule="evenodd" d="M438.943 185.75C438.943 185.75 442.283 189.853 445.106 192.699C446.715 196.817 445.485 199.865 446.715 199.44C447.945 199.015 450.302 187.526 449.124 185.75C448.627 185 445.03 181.977 442.283 182.469C440.69 182.754 438.943 185.75 438.943 185.75Z" fill="#3D82F0" style="mix-blend-mode:multiply"/>
</g>
<path fill-rule="evenodd" clip-rule="evenodd" d="M429.804 198.282C429.878 198.146 430.007 198.131 430.092 198.248C430.176 198.365 430.258 198.54 430.333 198.728C430.411 198.922 430.492 199.153 430.573 199.401C430.728 199.878 430.889 200.434 431.033 200.933C431.038 200.951 431.043 200.969 431.049 200.988C431.096 201.151 431.051 201.345 430.949 201.42C430.847 201.496 430.726 201.425 430.679 201.261C430.674 201.245 430.669 201.229 430.665 201.212C430.519 200.709 430.362 200.165 430.211 199.702C430.133 199.463 430.059 199.251 429.99 199.081C429.92 198.904 429.864 198.795 429.826 198.742C429.74 198.624 429.731 198.418 429.804 198.282Z" fill="#223762"/>
</g>
<path fill-rule="evenodd" clip-rule="evenodd" d="M446.603 190.294C441.431 186.717 435.436 180.145 438.433 177.236C441.431 174.327 452.756 160.115 455.095 157.141C457.433 154.167 460.458 172.812 457.221 177.236C453.984 181.66 451.016 186.627 446.603 190.294Z" fill="url(#paint47_linear)"/>
<path fill-rule="evenodd" clip-rule="evenodd" d="M447.926 222.57C447.28 217.943 451.216 203.922 447.613 195.588C446.061 192 443.706 189.101 443.55 185.087C443.334 179.54 445.85 173.044 447.28 170.285C452.776 159.689 452.648 153.8 454.239 152.123C456.539 152.123 462.713 150.371 464.981 146.976C467.526 148.407 476.342 158.604 479.013 164.281C481.683 169.958 480.832 187.427 480.832 197.888C480.832 208.348 482.26 215.229 482.26 217.943C482.26 220.656 448.864 229.302 447.926 222.57Z" fill="url(#paint48_linear)"/>
<path fill-rule="evenodd" clip-rule="evenodd" d="M464.816 223.109C464.816 223.109 467.539 215.054 467.539 211.857C467.539 208.661 463.455 185.214 464.816 182.597C466.178 179.981 475.04 206.527 475.04 206.527C475.04 206.527 471.27 217.682 470.017 220.274C468.764 222.867 464.816 223.109 464.816 223.109Z" fill="url(#paint49_linear)" style="mix-blend-mode:multiply"/>
<path fill-rule="evenodd" clip-rule="evenodd" d="M441.267 124.348C432.864 119.6 430.202 128.246 428.974 127.147C425.729 122.944 427.443 118.165 428.974 114.173C431.549 107.459 447.296 96.3805 459.709 108.218C472.121 120.056 461.885 140.411 461.885 140.411C461.885 140.411 458.759 139.207 457.966 135.913C457.173 132.619 449.825 131.112 449.825 131.112C449.825 131.112 451.885 127.86 449.825 125.886C447.765 123.913 446.872 124.553 446.237 125.211C445.581 125.534 445.507 128.438 445.507 128.438C445.507 128.438 442.89 125.211 441.267 124.348Z" fill="url(#paint50_radial)"/>
<path fill-rule="evenodd" clip-rule="evenodd" d="M464.66 131.351C464.66 132.362 466.896 135.401 470.902 135.401C474.907 135.401 486.895 132.266 490.869 142.065C494.843 151.864 489.358 152.325 495.831 159.403C502.305 166.48 502.552 185.642 486.727 181.06C470.902 176.477 473.396 155.649 473.396 150.091C473.396 144.534 467.448 142.548 462.111 141.295C459.203 135.401 464.66 130.34 464.66 131.351Z" fill="#223762"/>
<mask id="mask11" mask-type="alpha" maskUnits="userSpaceOnUse" x="461" y="131" width="39" height="51">
<path fill-rule="evenodd" clip-rule="evenodd" d="M464.66 131.351C464.66 132.362 466.896 135.401 470.902 135.401C474.907 135.401 486.895 132.266 490.869 142.065C494.843 151.864 489.358 152.325 495.831 159.403C502.305 166.48 502.552 185.642 486.727 181.06C470.902 176.477 473.396 155.649 473.396 150.091C473.396 144.534 467.448 142.548 462.111 141.295C459.203 135.401 464.66 130.34 464.66 131.351Z" fill="white"/>
</mask>
<g mask="url(#mask11)">
<g opacity="0.3">
<path fill-rule="evenodd" clip-rule="evenodd" d="M462.461 140.386C466.738 139.187 476.088 139.242 478.832 144.597C481.576 149.953 486.114 174.132 476.015 175.172C465.915 176.211 458.185 141.585 462.461 140.386Z" fill="#223762" style="mix-blend-mode:multiply"/>
</g>
<path fill-rule="evenodd" clip-rule="evenodd" d="M467.709 131.716C467.961 132.168 467.776 132.727 467.296 132.964C464.05 134.568 463.88 137.843 463.88 140.142C463.88 140.653 463.44 141.067 462.898 141.067C462.355 141.067 461.915 140.653 461.915 140.142C461.915 137.945 461.987 133.499 466.382 131.328C466.863 131.091 467.457 131.265 467.709 131.716Z" fill="#D6E3FA"/>
</g>
<path fill-rule="evenodd" clip-rule="evenodd" d="M469.978 211.637C468.968 207.309 463.126 184.16 464.46 178.354C465.795 172.548 476.067 169.729 477.141 176.596C478.011 182.152 480.582 203.964 481.531 212.084C481.766 214.092 481.431 216.12 480.568 217.948L471.712 236.704L467.957 244.112C467.957 244.112 464.46 243.528 462.831 239.044C462.299 237.582 462.629 235.887 463.388 234.135C466.655 226.605 470.796 215.149 469.978 211.637Z" fill="url(#paint51_linear)"/>
<mask id="mask12" mask-type="alpha" maskUnits="userSpaceOnUse" x="462" y="172" width="20" height="73">
<path fill-rule="evenodd" clip-rule="evenodd" d="M469.978 211.637C468.968 207.309 463.126 184.16 464.46 178.354C465.795 172.548 476.067 169.729 477.141 176.596C478.011 182.152 480.582 203.964 481.531 212.084C481.766 214.092 481.431 216.12 480.568 217.948L471.712 236.704L467.957 244.112C467.957 244.112 464.46 243.528 462.831 239.044C462.299 237.582 462.629 235.887 463.388 234.135C466.655 226.605 470.796 215.149 469.978 211.637Z" fill="white"/>
</mask>
<g mask="url(#mask12)">
<g opacity="0.5">
<path fill-rule="evenodd" clip-rule="evenodd" d="M465.761 186.791C469.525 187.715 476.249 188.18 479.188 186.791C482.128 185.403 478.259 181.104 478.259 181.104C478.259 181.104 461.997 185.868 465.761 186.791Z" fill="#3D82F0" style="mix-blend-mode:multiply"/>
</g>
</g>
<path fill-rule="evenodd" clip-rule="evenodd" d="M461.891 183.948C460.232 179.057 457.144 159.155 465.57 156.968C473.996 154.78 478.979 177.822 478.979 179.992C478.979 182.162 463.549 188.839 461.891 183.948Z" fill="url(#paint52_linear)"/>
<path fill-rule="evenodd" clip-rule="evenodd" d="M451.219 172.734C451.32 172.165 451.895 171.81 452.448 171.976L457.108 173.373C457.578 173.514 457.868 173.984 457.782 174.466L455.872 185.298C455.795 185.738 455.426 186.068 454.98 186.095L452.094 186.273C451.806 186.29 451.525 186.178 451.328 185.967L449.603 184.118C449.396 183.896 449.305 183.59 449.358 183.291L451.219 172.734Z" fill="url(#paint53_linear)"/>
<path fill-rule="evenodd" clip-rule="evenodd" d="M399.39 134.508C400.068 134.472 400.658 134.842 400.708 135.335L401.528 143.39C401.578 143.883 401.07 144.312 400.392 144.348C399.714 144.385 399.124 144.015 399.074 143.522L398.253 135.467C398.203 134.974 398.712 134.545 399.39 134.508Z" fill="url(#paint54_linear)"/>
<path fill-rule="evenodd" clip-rule="evenodd" d="M409.997 134.561C410.57 134.733 410.863 135.247 410.651 135.711L406.959 143.765C406.747 144.229 406.11 144.466 405.536 144.294C404.963 144.122 404.67 143.607 404.882 143.144L408.574 135.089C408.786 134.626 409.423 134.389 409.997 134.561Z" fill="url(#paint55_linear)"/>
<path fill-rule="evenodd" clip-rule="evenodd" d="M417.076 142.134C417.413 142.595 417.33 143.254 416.891 143.607L409.707 149.383C409.268 149.736 408.639 149.649 408.301 149.189C407.964 148.729 408.047 148.069 408.486 147.716L415.67 141.941C416.109 141.588 416.739 141.674 417.076 142.134Z" fill="url(#paint56_linear)"/>
<path opacity="0.460603" fill-rule="evenodd" clip-rule="evenodd" d="M394.969 155.486L440.889 118.751L458.633 150.661L404.557 172.57L394.969 155.486Z" fill="url(#paint57_linear)"/>
</g>
<defs>
<filter id="filter0_i" x="-7.12207" y="240.529" width="173.758" height="104.161" filterUnits="userSpaceOnUse" color-interpolation-filters="sRGB">
<feFlood flood-opacity="0" result="BackgroundImageFix"/>
<feBlend mode="normal" in="SourceGraphic" in2="BackgroundImageFix" result="shape"/>
<feColorMatrix in="SourceAlpha" type="matrix" values="0 0 0 0 0 0 0 0 0 0 0 0 0 0 0 0 0 0 127 0" result="hardAlpha"/>
<feOffset dy="-14"/>
<feGaussianBlur stdDeviation="12.5"/>
<feComposite in2="hardAlpha" operator="arithmetic" k2="-1" k3="1"/>
<feColorMatrix type="matrix" values="0 0 0 0 0.788056 0 0 0 0 0.827193 0 0 0 0 0.89764 0 0 0 0.337126 0"/>
<feBlend mode="normal" in2="shape" result="effect1_innerShadow"/>
</filter>
<filter id="filter1_d" x="290.558" y="271.969" width="64.5245" height="58.0898" filterUnits="userSpaceOnUse" color-interpolation-filters="sRGB">
<feFlood flood-opacity="0" result="BackgroundImageFix"/>
<feColorMatrix in="SourceAlpha" type="matrix" values="0 0 0 0 0 0 0 0 0 0 0 0 0 0 0 0 0 0 127 0"/>
<feOffset dx="-1" dy="2"/>
<feGaussianBlur stdDeviation="9.5"/>
<feColorMatrix type="matrix" values="0 0 0 0 0.563271 0 0 0 0 0.0744316 0 0 0 0 0.0744316 0 0 0 0.5 0"/>
<feBlend mode="normal" in2="BackgroundImageFix" result="effect1_dropShadow"/>
<feBlend mode="normal" in="SourceGraphic" in2="effect1_dropShadow" result="shape"/>
</filter>
<filter id="filter2_d" x="339.649" y="277.511" width="64.5245" height="58.0897" filterUnits="userSpaceOnUse" color-interpolation-filters="sRGB">
<feFlood flood-opacity="0" result="BackgroundImageFix"/>
<feColorMatrix in="SourceAlpha" type="matrix" values="0 0 0 0 0 0 0 0 0 0 0 0 0 0 0 0 0 0 127 0"/>
<feOffset dx="-1" dy="2"/>
<feGaussianBlur stdDeviation="9.5"/>
<feColorMatrix type="matrix" values="0 0 0 0 0.563271 0 0 0 0 0.0744316 0 0 0 0 0.0744316 0 0 0 0.5 0"/>
<feBlend mode="normal" in2="BackgroundImageFix" result="effect1_dropShadow"/>
<feBlend mode="normal" in="SourceGraphic" in2="effect1_dropShadow" result="shape"/>
</filter>
<filter id="filter3_d" x="306.396" y="273.945" width="64.5245" height="58.0896" filterUnits="userSpaceOnUse" color-interpolation-filters="sRGB">
<feFlood flood-opacity="0" result="BackgroundImageFix"/>
<feColorMatrix in="SourceAlpha" type="matrix" values="0 0 0 0 0 0 0 0 0 0 0 0 0 0 0 0 0 0 127 0"/>
<feOffset dx="-1" dy="2"/>
<feGaussianBlur stdDeviation="9.5"/>
<feColorMatrix type="matrix" values="0 0 0 0 0.563271 0 0 0 0 0.0744316 0 0 0 0 0.0744316 0 0 0 0.5 0"/>
<feBlend mode="normal" in2="BackgroundImageFix" result="effect1_dropShadow"/>
<feBlend mode="normal" in="SourceGraphic" in2="effect1_dropShadow" result="shape"/>
</filter>
<filter id="filter4_d" x="296.724" y="270.095" width="65.9183" height="59.5695" filterUnits="userSpaceOnUse" color-interpolation-filters="sRGB">
<feFlood flood-opacity="0" result="BackgroundImageFix"/>
<feColorMatrix in="SourceAlpha" type="matrix" values="0 0 0 0 0 0 0 0 0 0 0 0 0 0 0 0 0 0 127 0"/>
<feOffset dx="-1" dy="2"/>
<feGaussianBlur stdDeviation="9.5"/>
<feColorMatrix type="matrix" values="0 0 0 0 0.563271 0 0 0 0 0.0744316 0 0 0 0 0.0744316 0 0 0 0.5 0"/>
<feBlend mode="normal" in2="BackgroundImageFix" result="effect1_dropShadow"/>
<feBlend mode="normal" in="SourceGraphic" in2="effect1_dropShadow" result="shape"/>
</filter>
<filter id="filter5_d" x="318.231" y="259.14" width="64.6901" height="58.2473" filterUnits="userSpaceOnUse" color-interpolation-filters="sRGB">
<feFlood flood-opacity="0" result="BackgroundImageFix"/>
<feColorMatrix in="SourceAlpha" type="matrix" values="0 0 0 0 0 0 0 0 0 0 0 0 0 0 0 0 0 0 127 0"/>
<feOffset dx="-1" dy="2"/>
<feGaussianBlur stdDeviation="9.5"/>
<feColorMatrix type="matrix" values="0 0 0 0 0.563271 0 0 0 0 0.0744316 0 0 0 0 0.0744316 0 0 0 0.5 0"/>
<feBlend mode="normal" in2="BackgroundImageFix" result="effect1_dropShadow"/>
<feBlend mode="normal" in="SourceGraphic" in2="effect1_dropShadow" result="shape"/>
</filter>
<filter id="filter6_d" x="318.093" y="271.729" width="65.1526" height="58.6976" filterUnits="userSpaceOnUse" color-interpolation-filters="sRGB">
<feFlood flood-opacity="0" result="BackgroundImageFix"/>
<feColorMatrix in="SourceAlpha" type="matrix" values="0 0 0 0 0 0 0 0 0 0 0 0 0 0 0 0 0 0 127 0"/>
<feOffset dx="-1" dy="2"/>
<feGaussianBlur stdDeviation="9.5"/>
<feColorMatrix type="matrix" values="0 0 0 0 0.563271 0 0 0 0 0.0744316 0 0 0 0 0.0744316 0 0 0 0.5 0"/>
<feBlend mode="normal" in2="BackgroundImageFix" result="effect1_dropShadow"/>
<feBlend mode="normal" in="SourceGraphic" in2="effect1_dropShadow" result="shape"/>
</filter>
<filter id="filter7_d" x="334.97" y="267.166" width="66.8388" height="62.2725" filterUnits="userSpaceOnUse" color-interpolation-filters="sRGB">
<feFlood flood-opacity="0" result="BackgroundImageFix"/>
<feColorMatrix in="SourceAlpha" type="matrix" values="0 0 0 0 0 0 0 0 0 0 0 0 0 0 0 0 0 0 127 0"/>
<feOffset dx="-1" dy="2"/>
<feGaussianBlur stdDeviation="9.5"/>
<feColorMatrix type="matrix" values="0 0 0 0 0.563271 0 0 0 0 0.0744316 0 0 0 0 0.0744316 0 0 0 0.5 0"/>
<feBlend mode="normal" in2="BackgroundImageFix" result="effect1_dropShadow"/>
<feBlend mode="normal" in="SourceGraphic" in2="effect1_dropShadow" result="shape"/>
</filter>
<linearGradient id="paint0_linear" x1="108.381" y1="332.811" x2="117.476" y2="271.374" gradientUnits="userSpaceOnUse">
<stop stop-color="#ECF1FF"/>
<stop offset="1" stop-color="white"/>
</linearGradient>
<radialGradient id="paint1_radial" cx="0" cy="0" r="1" gradientUnits="userSpaceOnUse" gradientTransform="translate(330.634 93.26) rotate(118.593) scale(306.468 297.234)">
<stop stop-color="#EDF3FD"/>
<stop offset="0.40887" stop-color="#DCE8FB"/>
<stop offset="1" stop-color="#AEBDD8"/>
</radialGradient>
<linearGradient id="paint2_linear" x1="276.628" y1="174.892" x2="276.628" y2="127.873" gradientUnits="userSpaceOnUse">
<stop stop-color="#FDE76B"/>
<stop offset="1" stop-color="#FAB539"/>
</linearGradient>
<linearGradient id="paint3_linear" x1="295.031" y1="171.751" x2="295.031" y2="135.796" gradientUnits="userSpaceOnUse">
<stop stop-color="#FDE76B"/>
<stop offset="1" stop-color="#FAB539"/>
</linearGradient>
<linearGradient id="paint4_linear" x1="313.066" y1="169.262" x2="313.066" y2="142.064" gradientUnits="userSpaceOnUse">
<stop stop-color="#FDE76B"/>
<stop offset="1" stop-color="#FAB539"/>
</linearGradient>
<linearGradient id="paint5_linear" x1="223.358" y1="325.279" x2="220.801" y2="391.396" gradientUnits="userSpaceOnUse">
<stop stop-color="#9CB4E0"/>
<stop offset="1" stop-color="white" stop-opacity="0.01"/>
</linearGradient>
<linearGradient id="paint6_linear" x1="324.222" y1="276.263" x2="309.356" y2="294.354" gradientUnits="userSpaceOnUse">
<stop stop-color="#FF6B67"/>
<stop offset="1" stop-color="#F05971"/>
</linearGradient>
<linearGradient id="paint7_linear" x1="388.222" y1="296.246" x2="369.92" y2="310.852" gradientUnits="userSpaceOnUse">
<stop stop-color="#FF6B67"/>
<stop offset="1" stop-color="#F05971"/>
</linearGradient>
<linearGradient id="paint8_linear" x1="354.968" y1="292.681" x2="336.666" y2="307.286" gradientUnits="userSpaceOnUse">
<stop stop-color="#FF6B67"/>
<stop offset="1" stop-color="#F05971"/>
</linearGradient>
<linearGradient id="paint9_linear" x1="401.718" y1="285.274" x2="380.6" y2="295.388" gradientUnits="userSpaceOnUse">
<stop stop-color="#FF6B67"/>
<stop offset="1" stop-color="#F05971"/>
</linearGradient>
<linearGradient id="paint10_linear" x1="348.365" y1="271.329" x2="334.906" y2="290.49" gradientUnits="userSpaceOnUse">
<stop stop-color="#FF6B67"/>
<stop offset="1" stop-color="#F05971"/>
</linearGradient>
<linearGradient id="paint11_linear" x1="344.542" y1="287.826" x2="329.054" y2="305.387" gradientUnits="userSpaceOnUse">
<stop stop-color="#FF6B67"/>
<stop offset="1" stop-color="#F05971"/>
</linearGradient>
<linearGradient id="paint12_linear" x1="377.708" y1="278.19" x2="355.074" y2="284.187" gradientUnits="userSpaceOnUse">
<stop stop-color="#FF6B67"/>
<stop offset="1" stop-color="#F05971"/>
</linearGradient>
<linearGradient id="paint13_linear" x1="367.008" y1="278.305" x2="348.453" y2="292.589" gradientUnits="userSpaceOnUse">
<stop stop-color="#FF6B67"/>
<stop offset="1" stop-color="#F05971"/>
</linearGradient>
<linearGradient id="paint14_linear" x1="367.432" y1="292.189" x2="348.156" y2="305.483" gradientUnits="userSpaceOnUse">
<stop stop-color="#FF6B67"/>
<stop offset="1" stop-color="#F05971"/>
</linearGradient>
<linearGradient id="paint15_linear" x1="380.52" y1="283.66" x2="369.741" y2="304.447" gradientUnits="userSpaceOnUse">
<stop stop-color="#FF6B67"/>
<stop offset="1" stop-color="#F05971"/>
</linearGradient>
<linearGradient id="paint16_linear" x1="274.648" y1="302.874" x2="328.355" y2="351.29" gradientUnits="userSpaceOnUse">
<stop stop-color="#85A6DB"/>
<stop offset="1" stop-color="#C6D4EE"/>
</linearGradient>
<linearGradient id="paint17_linear" x1="409.778" y1="328.453" x2="363.552" y2="375.005" gradientUnits="userSpaceOnUse">
<stop stop-color="#EDF3FD"/>
<stop offset="1" stop-color="#D0DAEA"/>
</linearGradient>
<linearGradient id="paint18_linear" x1="387.056" y1="304.823" x2="364.113" y2="331.458" gradientUnits="userSpaceOnUse">
<stop stop-color="#B4C9E7"/>
<stop offset="1" stop-color="#BECFEC" stop-opacity="0.101789"/>
</linearGradient>
<linearGradient id="paint19_linear" x1="275.325" y1="285.01" x2="275.325" y2="328.161" gradientUnits="userSpaceOnUse">
<stop stop-color="#EDF3FD"/>
<stop offset="1" stop-color="#D6E3FA"/>
</linearGradient>
<linearGradient id="paint20_linear" x1="434.344" y1="294.638" x2="429.2" y2="345.387" gradientUnits="userSpaceOnUse">
<stop stop-color="#E5ECF8"/>
<stop offset="1" stop-color="#C6D4EE"/>
</linearGradient>
<linearGradient id="paint21_linear" x1="113.741" y1="33.0361" x2="102.857" y2="54.4559" gradientUnits="userSpaceOnUse">
<stop stop-color="#CBDAF1"/>
<stop offset="1" stop-color="#9CB3DF"/>
</linearGradient>
<linearGradient id="paint22_linear" x1="20.6148" y1="235.666" x2="29.3495" y2="221.238" gradientUnits="userSpaceOnUse">
<stop stop-color="#70B8F9"/>
<stop offset="1" stop-color="#3D82F0"/>
</linearGradient>
<linearGradient id="paint23_linear" x1="23.4599" y1="374.977" x2="34.1653" y2="357.398" gradientUnits="userSpaceOnUse">
<stop stop-color="#47689B"/>
<stop offset="1" stop-color="#223762"/>
</linearGradient>
<linearGradient id="paint24_linear" x1="96.9257" y1="382.1" x2="105.433" y2="363.519" gradientUnits="userSpaceOnUse">
<stop stop-color="#47689B"/>
<stop offset="1" stop-color="#223762"/>
</linearGradient>
<linearGradient id="paint25_linear" x1="65.335" y1="389.917" x2="115.672" y2="267.043" gradientUnits="userSpaceOnUse">
<stop stop-color="#CFDDF3"/>
<stop offset="1" stop-color="#A1B8E3"/>
</linearGradient>
<linearGradient id="paint26_linear" x1="92.1213" y1="250.328" x2="91.5879" y2="240.185" gradientUnits="userSpaceOnUse">
<stop stop-color="#CFDDF3" stop-opacity="0.477723"/>
<stop offset="1" stop-color="#A1B8E3"/>
</linearGradient>
<linearGradient id="paint27_linear" x1="61.9637" y1="115.796" x2="42.244" y2="130.074" gradientUnits="userSpaceOnUse">
<stop stop-color="#70B8F9"/>
<stop offset="1" stop-color="#3D82F0"/>
</linearGradient>
<linearGradient id="paint28_linear" x1="25.158" y1="115.613" x2="42.0324" y2="139.491" gradientUnits="userSpaceOnUse">
<stop stop-color="#164898"/>
<stop offset="1" stop-color="#223762"/>
</linearGradient>
<linearGradient id="paint29_linear" x1="6.93807" y1="204.851" x2="25.4612" y2="202.24" gradientUnits="userSpaceOnUse">
<stop stop-color="#EDF3FD"/>
<stop offset="1" stop-color="#D6E3FA"/>
</linearGradient>
<linearGradient id="paint30_linear" x1="76.1828" y1="224.024" x2="88.0024" y2="215.936" gradientUnits="userSpaceOnUse">
<stop stop-color="#CFDDF3"/>
<stop offset="1" stop-color="#A1B8E3"/>
</linearGradient>
<linearGradient id="paint31_linear" x1="100.817" y1="172.363" x2="100.669" y2="161.572" gradientUnits="userSpaceOnUse">
<stop stop-color="#CFDDF3"/>
<stop offset="1" stop-color="#A1B8E3"/>
</linearGradient>
<linearGradient id="paint32_linear" x1="166.889" y1="235.528" x2="143.074" y2="133.012" gradientUnits="userSpaceOnUse">
<stop stop-color="#70B8F9"/>
<stop offset="1" stop-color="#3D82F0"/>
</linearGradient>
<linearGradient id="paint33_linear" x1="50.3857" y1="177.389" x2="61.3099" y2="201.428" gradientUnits="userSpaceOnUse">
<stop stop-color="#D6E3FA"/>
<stop offset="1" stop-color="#E3EDFE"/>
</linearGradient>
<linearGradient id="paint34_linear" x1="350.485" y1="144.538" x2="390.252" y2="138.163" gradientUnits="userSpaceOnUse">
<stop stop-color="#FDAE6B"/>
<stop offset="1" stop-color="#FAE539"/>
</linearGradient>
<linearGradient id="paint35_linear" x1="456.663" y1="328.777" x2="456.663" y2="335.341" gradientUnits="userSpaceOnUse">
<stop stop-color="#003F9B"/>
<stop offset="1" stop-color="#3D82F0"/>
</linearGradient>
<linearGradient id="paint36_linear" x1="500.638" y1="303.181" x2="500.638" y2="315.651" gradientUnits="userSpaceOnUse">
<stop stop-color="#003F9B"/>
<stop offset="1" stop-color="#3D82F0"/>
</linearGradient>
<linearGradient id="paint37_linear" x1="470.933" y1="279.553" x2="495.042" y2="292.231" gradientUnits="userSpaceOnUse">
<stop stop-color="#6A89BB"/>
<stop offset="1" stop-color="#839ED6"/>
</linearGradient>
<linearGradient id="paint38_linear" x1="526.71" y1="149.178" x2="460.402" y2="153.176" gradientUnits="userSpaceOnUse">
<stop stop-color="#CFDDF3"/>
<stop offset="1" stop-color="#A1B8E3"/>
</linearGradient>
<linearGradient id="paint39_linear" x1="491.62" y1="224.153" x2="491.472" y2="219.809" gradientUnits="userSpaceOnUse">
<stop stop-color="#CFDDF3" stop-opacity="0.477723"/>
<stop offset="1" stop-color="#A1B8E3"/>
</linearGradient>
<linearGradient id="paint40_linear" x1="468.56" y1="230.028" x2="462.856" y2="231.542" gradientUnits="userSpaceOnUse">
<stop stop-color="#CFDDF3" stop-opacity="0.174423"/>
<stop offset="1" stop-color="#5477B8"/>
</linearGradient>
<radialGradient id="paint41_radial" cx="0" cy="0" r="1" gradientUnits="userSpaceOnUse" gradientTransform="translate(493.625 329.891) rotate(20.6826) scale(10.3774 30.7793)">
<stop stop-color="#47689B"/>
<stop offset="1" stop-color="#223762"/>
</radialGradient>
<radialGradient id="paint42_radial" cx="0" cy="0" r="1" gradientUnits="userSpaceOnUse" gradientTransform="translate(437.63 339.608) rotate(61.6485) scale(11.1652 32.4168)">
<stop stop-color="#47689B"/>
<stop offset="1" stop-color="#223762"/>
</radialGradient>
<linearGradient id="paint43_linear" x1="423.685" y1="151.116" x2="443.817" y2="151.116" gradientUnits="userSpaceOnUse">
<stop stop-color="#70B8F9"/>
<stop offset="1" stop-color="#3D82F0"/>
</linearGradient>
<linearGradient id="paint44_linear" x1="407.034" y1="169.31" x2="402.52" y2="172.719" gradientUnits="userSpaceOnUse">
<stop stop-color="#2F71DA"/>
<stop offset="1" stop-color="#3D82F0"/>
</linearGradient>
<linearGradient id="paint45_linear" x1="411.377" y1="172.57" x2="411.377" y2="150.911" gradientUnits="userSpaceOnUse">
<stop stop-color="#EDF3FD"/>
<stop offset="1" stop-color="white"/>
</linearGradient>
<linearGradient id="paint46_linear" x1="406.752" y1="162.119" x2="406.752" y2="174.974" gradientUnits="userSpaceOnUse">
<stop stop-color="#70B8F9"/>
<stop offset="1" stop-color="#3D82F0"/>
</linearGradient>
<linearGradient id="paint47_linear" x1="442.692" y1="182.739" x2="457.662" y2="178.591" gradientUnits="userSpaceOnUse">
<stop stop-color="#CFDDF3"/>
<stop offset="1" stop-color="#A1B8E3"/>
</linearGradient>
<linearGradient id="paint48_linear" x1="457.689" y1="227.84" x2="492.051" y2="213.303" gradientUnits="userSpaceOnUse">
<stop stop-color="#EDF3FD"/>
<stop offset="1" stop-color="#D6E3FA"/>
</linearGradient>
<linearGradient id="paint49_linear" x1="466.159" y1="251.599" x2="481.204" y2="250.095" gradientUnits="userSpaceOnUse">
<stop stop-color="#D1DEF3" stop-opacity="0.126387"/>
<stop offset="1" stop-color="#A4BAE4"/>
</linearGradient>
<radialGradient id="paint50_radial" cx="0" cy="0" r="1" gradientUnits="userSpaceOnUse" gradientTransform="translate(446.82 103) rotate(90) scale(15.3071 42.9842)">
<stop stop-color="#47689B"/>
<stop offset="1" stop-color="#223762"/>
</radialGradient>
<linearGradient id="paint51_linear" x1="482.118" y1="200.013" x2="467.591" y2="199.738" gradientUnits="userSpaceOnUse">
<stop stop-color="#0060C9"/>
<stop offset="1" stop-color="#3D82F0"/>
</linearGradient>
<linearGradient id="paint52_linear" x1="472.158" y1="199.383" x2="490.714" y2="190.096" gradientUnits="userSpaceOnUse">
<stop stop-color="#E3EDFE"/>
<stop offset="1" stop-color="#B8C8E6"/>
</linearGradient>
<linearGradient id="paint53_linear" x1="461.081" y1="169.273" x2="450.703" y2="170.278" gradientUnits="userSpaceOnUse">
<stop stop-color="#D2DFF5" stop-opacity="0.542714"/>
<stop offset="1" stop-color="#C5D5F5"/>
</linearGradient>
<linearGradient id="paint54_linear" x1="399.481" y1="135.401" x2="399.481" y2="143.456" gradientUnits="userSpaceOnUse">
<stop stop-color="#FFB417"/>
<stop offset="1" stop-color="#FECC4C"/>
</linearGradient>
<linearGradient id="paint55_linear" x1="405.921" y1="135.4" x2="405.921" y2="143.455" gradientUnits="userSpaceOnUse">
<stop stop-color="#FFB417"/>
<stop offset="1" stop-color="#FECC4C"/>
</linearGradient>
<linearGradient id="paint56_linear" x1="409.097" y1="142.429" x2="409.097" y2="148.73" gradientUnits="userSpaceOnUse">
<stop stop-color="#FFB417"/>
<stop offset="1" stop-color="#FECC4C"/>
</linearGradient>
<linearGradient id="paint57_linear" x1="424.228" y1="124.63" x2="389.133" y2="157.377" gradientUnits="userSpaceOnUse">
<stop stop-color="white" stop-opacity="0.01"/>
<stop offset="1" stop-color="#4C9CFE"/>
</linearGradient>
</defs>
</svg>
