<svg width="48" height="20" viewBox="0 0 48 20" fill="none" xmlns="http://www.w3.org/2000/svg">
<path d="M0.0253906 9.72266C0.0253906 8.1276 0.241048 6.73193 0.672363 5.53564C1.10368 4.33122 1.69775 3.33024 2.45459 2.53271C3.21956 1.72705 4.11475 1.12891 5.14014 0.738281C6.16553 0.347656 7.26009 0.152344 8.42383 0.152344C9.58757 0.152344 10.5926 0.298828 11.439 0.591797C12.2935 0.876628 13.0218 1.28353 13.624 1.8125C14.2262 2.34147 14.7104 2.95996 15.0767 3.66797C15.4429 4.37598 15.7236 5.14502 15.9189 5.9751L12.0737 7.09814C11.9272 6.56917 11.7523 6.08496 11.5488 5.64551C11.3535 5.19792 11.1134 4.8195 10.8286 4.51025C10.5438 4.20101 10.2061 3.96094 9.81543 3.79004C9.4248 3.611 8.9528 3.52148 8.39941 3.52148C6.9834 3.52148 5.91325 4.07894 5.18896 5.19385C4.46468 6.30062 4.10254 7.81022 4.10254 9.72266C4.10254 11.6758 4.47689 13.222 5.22559 14.3613C5.97428 15.5007 7.0485 16.0703 8.44824 16.0703C9.54688 16.0703 10.3892 15.7407 10.9751 15.0815C11.561 14.4142 12.0208 13.4458 12.3545 12.1763L16.1753 13.0308C15.9393 13.9585 15.626 14.813 15.2354 15.5942C14.8447 16.3674 14.3361 17.0347 13.7095 17.5962C13.0828 18.1496 12.3341 18.5809 11.4634 18.8901C10.6007 19.1994 9.58757 19.354 8.42383 19.354C7.22754 19.354 6.1167 19.1587 5.09131 18.7681C4.06592 18.3693 3.1748 17.7752 2.41797 16.9858C1.66927 16.1965 1.08333 15.1995 0.660156 13.9951C0.236979 12.7826 0.0253906 11.3584 0.0253906 9.72266ZM17.3228 19L28.0771 0.494141H32.2031L21.4487 19H17.3228ZM31.0923 15.3745V12.4204L39.5151 0.494141H43.9951V12.1763H47.1201V15.3745H43.9951V19H40.0645V15.3745H31.0923ZM35.2915 12.1763H40.0645V5.35254H40.0156L35.2915 12.1763Z" fill="#F0AB00"/>
</svg>
