<svg width="746" height="498" viewBox="0 0 746 498" fill="none" xmlns="http://www.w3.org/2000/svg">
<mask id="mask0" mask-type="alpha" maskUnits="userSpaceOnUse" x="0" y="0" width="746" height="498">
<rect width="746" height="498" fill="#C4C4C4"/>
</mask>
<g mask="url(#mask0)">
<g opacity="0.5" filter="url(#filter0_i)">
<path fill-rule="evenodd" clip-rule="evenodd" d="M279.382 151.862C278.847 136.534 238.909 139.989 223.503 141.468C208.096 142.946 206.697 121.948 219.99 118.827C233.283 115.705 257.387 117.316 269.877 114.435C282.366 111.554 266.568 96.1012 283.585 94.2387C300.602 92.3762 335.79 94.1006 346.28 93.7222C362.757 93.1279 371.211 112.964 342.344 113.864C334.383 114.112 332.786 131.735 359.657 126.894C376.519 123.856 409.604 123.786 416.487 131.542C420.436 135.991 419.067 147.946 412.278 154.547C407.235 159.451 391.197 160.408 384.914 161.541C370.175 164.201 373.088 178.473 378.114 181.411C390.008 188.365 422.649 175.241 423.524 194.336C423.911 202.774 394.211 204.136 382.033 204.033C352.166 203.78 332.542 206.442 331.165 196.253C329.782 186.025 349.724 192.929 348.741 180.354C348.227 173.784 349.604 159.821 336.81 160.554C354.327 159.551 280.104 172.565 279.382 151.862Z" fill="url(#paint0_linear)"/>
</g>
<g opacity="0.5" filter="url(#filter1_i)">
<path fill-rule="evenodd" clip-rule="evenodd" d="M551.356 102.686C551.396 87.3485 511.356 89.306 495.905 90.2068C480.454 91.1077 479.843 70.0714 493.243 67.45C506.643 64.8286 530.671 67.3408 543.259 64.9292C555.848 62.5176 540.639 46.4846 557.714 45.2606C574.789 44.0366 609.887 47.0773 620.384 47.0919C636.872 47.115 644.577 67.2539 615.697 67.0725C607.732 67.0224 605.477 84.5723 632.51 80.7413C649.474 78.3372 682.539 79.5058 689.126 87.5135C692.905 92.108 691.09 104.003 684.059 110.346C678.836 115.057 662.773 115.412 656.452 116.31C641.623 118.416 644.001 132.787 648.913 135.911C660.538 143.305 693.648 131.413 693.807 150.527C693.878 158.974 664.148 159.223 651.982 158.664C622.145 157.293 602.435 159.218 601.441 148.985C600.442 138.712 620.112 146.358 619.6 133.755C619.333 127.17 621.231 113.269 608.419 113.522C625.961 113.176 551.303 123.401 551.356 102.686Z" fill="url(#paint1_linear)"/>
</g>
<path fill-rule="evenodd" clip-rule="evenodd" d="M713.934 233.746C714.495 234.12 714.647 234.877 714.273 235.438C702.89 252.522 692.943 276.745 685.838 299.284C678.724 321.85 674.524 342.522 674.524 352.494C674.524 353.168 673.977 353.715 673.303 353.715C672.629 353.715 672.083 353.168 672.083 352.494C672.083 342.126 676.384 321.153 683.51 298.55C690.644 275.918 700.674 251.445 712.242 234.085C712.615 233.524 713.373 233.372 713.934 233.746Z" fill="url(#paint2_linear)"/>
<path fill-rule="evenodd" clip-rule="evenodd" d="M702.63 244.338C702.63 244.338 703.595 234.212 698.484 225.359C693.372 216.505 686.941 210.649 684.12 212.278C681.299 213.907 683.155 222.404 688.267 231.258C693.378 240.111 702.63 244.338 702.63 244.338Z" fill="url(#paint3_linear)"/>
<path fill-rule="evenodd" clip-rule="evenodd" d="M708.508 247.841C708.508 247.841 716.996 253.447 727.213 253.09C737.43 252.734 745.62 249.805 745.506 246.549C745.392 243.293 737.018 240.943 726.801 241.3C716.585 241.657 708.508 247.841 708.508 247.841Z" fill="url(#paint4_linear)"/>
<path fill-rule="evenodd" clip-rule="evenodd" d="M697.516 273.722C697.516 273.722 705.699 279.764 715.92 279.943C726.141 280.121 734.473 277.625 734.53 274.368C734.587 271.11 726.347 268.325 716.126 268.147C705.904 267.968 697.516 273.722 697.516 273.722Z" fill="url(#paint5_linear)"/>
<path fill-rule="evenodd" clip-rule="evenodd" d="M688.565 299.759C688.565 299.759 696.748 305.801 706.969 305.98C717.19 306.158 725.523 303.662 725.579 300.405C725.636 297.147 717.396 294.362 707.175 294.184C696.954 294.005 688.565 299.759 688.565 299.759Z" fill="url(#paint6_linear)"/>
<path fill-rule="evenodd" clip-rule="evenodd" d="M715.202 230.884C715.202 230.884 724.662 227.146 730.23 218.573C735.798 209.999 738.097 201.611 735.364 199.836C732.632 198.062 725.904 203.574 720.336 212.147C714.768 220.721 715.202 230.884 715.202 230.884Z" fill="url(#paint7_linear)"/>
<path fill-rule="evenodd" clip-rule="evenodd" d="M690.884 270.682C690.884 270.682 689.899 260.558 683.192 252.843C676.485 245.127 669.055 240.605 666.596 242.743C664.138 244.88 667.581 252.867 674.288 260.583C680.995 268.298 690.884 270.682 690.884 270.682Z" fill="url(#paint8_linear)"/>
<path fill-rule="evenodd" clip-rule="evenodd" d="M681.294 297.814C681.294 297.814 679.256 287.848 671.779 280.876C664.303 273.904 656.441 270.184 654.219 272.566C651.997 274.949 656.257 282.532 663.733 289.504C671.21 296.476 681.294 297.814 681.294 297.814Z" fill="url(#paint9_linear)"/>
<g opacity="0.3">
<path fill-rule="evenodd" clip-rule="evenodd" d="M79.8237 344.208C74.8589 348.6 55.9775 339.816 48.4914 326.182C41.0054 312.547 54.892 307.694 36.0038 285.887C17.1155 264.08 4.99568 255.729 16.4582 219.784C27.9208 183.84 12.0854 163.864 33.0089 154.486C53.9324 145.108 65.9822 176.232 63.5821 203.608C61.1821 230.985 66.091 236.658 86.5568 233.821C107.023 230.985 89.7681 271.176 89.7681 279.949C89.7681 288.721 102.178 305.016 99.6034 317.275C97.029 329.535 84.7886 339.816 79.8237 344.208Z" fill="url(#paint10_linear)"/>
<path fill-rule="evenodd" clip-rule="evenodd" d="M78.8262 264.057C79.6238 264.057 80.2704 264.703 80.2704 265.501C80.2704 273.03 78.408 281.819 76.1103 289.427C73.8171 297.021 71.0351 303.618 69.0989 306.75C68.6795 307.429 67.7895 307.639 67.111 307.219C66.4326 306.8 66.2226 305.91 66.642 305.231C68.3844 302.413 71.0802 296.093 73.3452 288.592C75.6057 281.107 77.3819 272.626 77.3819 265.501C77.3819 264.703 78.0285 264.057 78.8262 264.057Z" fill="url(#paint11_linear)"/>
<path fill-rule="evenodd" clip-rule="evenodd" d="M24.3955 241.293C23.7495 241.761 23.6052 242.664 24.0731 243.31C28.8952 249.967 36.1908 254.48 42.0361 258.078L42.1903 258.173C45.1005 259.963 47.5931 261.497 49.382 262.981C51.2542 264.533 51.9582 265.715 51.9582 266.7C51.9582 267.498 52.6048 268.144 53.4025 268.144C54.2001 268.144 54.8467 267.498 54.8467 266.7C54.8467 264.318 53.1876 262.384 51.2258 260.757C49.2771 259.141 46.6333 257.515 43.83 255.79C43.7369 255.733 43.6435 255.675 43.55 255.618C37.629 251.974 30.8447 247.735 26.4124 241.615C25.9445 240.969 25.0415 240.825 24.3955 241.293Z" fill="url(#paint12_linear)"/>
<path fill-rule="evenodd" clip-rule="evenodd" d="M42.7641 199.029C43.5617 199.029 44.2083 199.675 44.2083 200.473C44.2083 220.235 50.0119 244.858 57.7576 270.31C62.816 286.931 68.6705 303.809 74.2354 319.852C77.1916 328.374 80.066 336.661 82.6961 344.549C90.7041 368.565 94.3398 389.704 96.0428 399.605C96.3796 401.564 96.6409 403.082 96.8454 404.097C97.003 404.879 96.4968 405.641 95.7149 405.798C94.933 405.956 94.1714 405.45 94.0138 404.668C93.8001 403.607 93.5307 402.043 93.1856 400.039C91.469 390.07 87.88 369.227 79.9559 345.462C77.3485 337.642 74.4857 329.389 71.5352 320.882C65.9578 304.802 60.0669 287.819 54.9943 271.151C47.2384 245.666 41.3198 220.692 41.3198 200.473C41.3198 199.675 41.9664 199.029 42.7641 199.029Z" fill="url(#paint13_linear)"/>
</g>
<path opacity="0.084933" fill-rule="evenodd" clip-rule="evenodd" d="M613.362 355.782C633.246 355.782 649.365 354.872 649.365 353.748C649.365 352.625 633.246 351.714 613.362 351.714C593.478 351.714 577.359 352.625 577.359 353.748C577.359 354.872 593.478 355.782 613.362 355.782Z" fill="#8699BF"/>
<g opacity="0.3">
<path fill-rule="evenodd" clip-rule="evenodd" d="M654.915 259.583C654.429 259.721 654.146 260.227 654.284 260.713C658.479 275.548 659.99 295.141 659.856 312.871C659.721 330.624 657.939 346.346 655.628 353.458C655.472 353.939 655.735 354.456 656.216 354.612C656.697 354.768 657.213 354.505 657.369 354.024C659.772 346.628 661.552 330.667 661.686 312.885C661.821 295.081 660.308 275.29 656.045 260.215C655.908 259.729 655.402 259.446 654.915 259.583Z" fill="url(#paint14_linear)"/>
<path fill-rule="evenodd" clip-rule="evenodd" d="M660.585 269.778C660.585 269.778 662.231 262.317 667.929 257.187C673.627 252.057 679.577 249.376 681.219 251.199C682.861 253.023 679.573 258.66 673.875 263.79C668.177 268.921 660.585 269.778 660.585 269.778Z" fill="url(#paint15_linear)"/>
<path fill-rule="evenodd" clip-rule="evenodd" d="M655.479 270.88C655.479 270.88 648.119 272.929 640.914 270.307C633.709 267.685 628.549 263.69 629.388 261.384C630.227 259.078 636.748 259.335 643.953 261.957C651.158 264.579 655.479 270.88 655.479 270.88Z" fill="url(#paint16_linear)"/>
<path fill-rule="evenodd" clip-rule="evenodd" d="M657.355 291.9C657.355 291.9 650.112 294.331 642.78 292.09C635.448 289.848 630.085 286.129 630.803 283.782C631.52 281.435 638.046 281.35 645.378 283.592C652.71 285.834 657.355 291.9 657.355 291.9Z" fill="url(#paint17_linear)"/>
<path fill-rule="evenodd" clip-rule="evenodd" d="M657.732 312.555C657.732 312.555 650.489 314.986 643.157 312.745C635.825 310.503 630.463 306.784 631.18 304.437C631.898 302.09 638.423 302.005 645.755 304.247C653.087 306.489 657.732 312.555 657.732 312.555Z" fill="url(#paint18_linear)"/>
<path fill-rule="evenodd" clip-rule="evenodd" d="M654.64 257.236C654.64 257.236 648.739 252.382 646.755 244.976C644.771 237.57 645.083 231.052 647.454 230.417C649.824 229.781 653.354 235.27 655.338 242.676C657.323 250.082 654.64 257.236 654.64 257.236Z" fill="url(#paint19_linear)"/>
<path fill-rule="evenodd" clip-rule="evenodd" d="M662.903 291.305C662.903 291.305 665.942 284.296 672.514 280.347C679.086 276.398 685.438 274.902 686.702 277.005C687.966 279.109 683.663 284.015 677.091 287.964C670.519 291.913 662.903 291.305 662.903 291.305Z" fill="url(#paint20_linear)"/>
<path fill-rule="evenodd" clip-rule="evenodd" d="M663.489 312.892C663.489 312.892 667.244 306.238 674.193 302.998C681.142 299.758 687.615 298.934 688.652 301.158C689.689 303.382 684.897 307.811 677.948 311.051C670.999 314.292 663.489 312.892 663.489 312.892Z" fill="url(#paint21_linear)"/>
</g>
<path fill-rule="evenodd" clip-rule="evenodd" d="M266.251 351.625C264.899 350.792 232.925 336.83 235.878 333.844C238.83 330.857 253.231 330.857 253.231 330.857C253.231 330.857 267.603 352.459 266.251 351.625Z" fill="url(#paint22_linear)" style="mix-blend-mode:multiply"/>
<g filter="url(#filter2_i)">
<path fill-rule="evenodd" clip-rule="evenodd" d="M118.122 361.518C104.678 357.994 65.0197 340.954 76.6166 321.011C88.2135 301.069 99.8103 295.326 88.2135 286.212C76.6166 277.098 84.8558 256.827 96.3205 248.484C107.785 240.141 80.6356 215.287 93.0726 202.137C105.51 188.986 145.266 209.3 146.186 234.166C147.107 259.031 156.356 257.309 161.057 268.536C165.758 279.763 133.194 296.615 137.953 308.813C142.711 321.011 170.468 333.733 154.21 350.166C137.953 366.599 131.566 365.043 118.122 361.518Z" fill="url(#paint23_radial)"/>
</g>
<path fill-rule="evenodd" clip-rule="evenodd" d="M121.698 387.577C123.266 359.459 94.2773 347.734 114.896 308.15C135.515 268.567 121.188 234.389 114.896 221.374" fill="black" fill-opacity="0.01"/>
<path fill-rule="evenodd" clip-rule="evenodd" d="M114.267 220.074C114.985 219.727 115.849 220.028 116.196 220.746C122.546 233.881 137.121 268.611 116.177 308.818C111.101 318.561 109.123 326.503 108.924 333.348C108.725 340.191 110.302 346.045 112.497 351.636C113.565 354.355 114.772 356.996 115.996 359.674L116.111 359.926C117.369 362.678 118.639 365.47 119.745 368.354C121.964 374.142 123.546 380.358 123.139 387.658C123.095 388.454 122.413 389.064 121.617 389.02C120.82 388.975 120.211 388.294 120.255 387.497C120.632 380.738 119.179 374.944 117.048 369.388C115.979 366.601 114.746 363.887 113.484 361.127L113.357 360.848C112.142 358.19 110.905 355.486 109.808 352.691C107.53 346.888 105.823 340.631 106.037 333.264C106.251 325.899 108.381 317.532 113.615 307.484C133.909 268.525 119.83 234.898 113.596 222.003C113.248 221.285 113.549 220.421 114.267 220.074Z" fill="url(#paint24_linear)"/>
<path opacity="0.3" fill-rule="evenodd" clip-rule="evenodd" d="M119.771 290.814C116.178 289.104 109.564 284.287 106.292 276.853L119.771 290.814Z" fill="black" fill-opacity="0.01"/>
<path opacity="0.3" fill-rule="evenodd" clip-rule="evenodd" d="M105.807 275.752C106.416 275.484 107.126 275.76 107.394 276.369C110.518 283.467 116.876 288.104 120.289 289.728C120.889 290.013 121.144 290.731 120.858 291.331C120.573 291.932 119.855 292.187 119.255 291.901C115.48 290.105 108.61 285.108 105.191 277.338C104.923 276.73 105.199 276.02 105.807 275.752Z" fill="url(#paint25_linear)"/>
<path opacity="0.3" fill-rule="evenodd" clip-rule="evenodd" d="M108.699 341.844C103.116 339.532 91.6965 333.186 90.887 323.55L108.699 341.844Z" fill="black" fill-opacity="0.01"/>
<path opacity="0.3" fill-rule="evenodd" clip-rule="evenodd" d="M90.7867 322.351C91.449 322.295 92.0311 322.787 92.0867 323.45C92.4528 327.807 95.2333 331.535 98.7789 334.523C102.309 337.499 106.44 339.606 109.16 340.732C109.774 340.986 110.066 341.69 109.812 342.304C109.557 342.918 108.853 343.21 108.239 342.956C105.376 341.77 101.006 339.549 97.2276 336.364C93.4654 333.193 90.1316 328.929 89.6881 323.651C89.6325 322.989 90.1243 322.407 90.7867 322.351Z" fill="url(#paint26_linear)"/>
<path opacity="0.3" fill-rule="evenodd" clip-rule="evenodd" d="M110.625 318.254C115.65 319.669 123.104 318.381 129.4 309.107L110.625 318.254Z" fill="black" fill-opacity="0.01"/>
<path opacity="0.3" fill-rule="evenodd" clip-rule="evenodd" d="M130.076 308.112C130.626 308.485 130.769 309.234 130.396 309.783C123.841 319.438 115.876 320.982 110.299 319.413C109.659 319.233 109.287 318.568 109.467 317.928C109.647 317.288 110.311 316.916 110.951 317.096C115.425 318.355 122.367 317.325 128.404 308.431C128.778 307.882 129.526 307.738 130.076 308.112Z" fill="url(#paint27_linear)"/>
<path opacity="0.3" fill-rule="evenodd" clip-rule="evenodd" d="M124.586 246.524C127.86 243.943 134.227 233.746 133.732 224.861L124.586 246.524Z" fill="black" fill-opacity="0.01"/>
<path opacity="0.3" fill-rule="evenodd" clip-rule="evenodd" d="M133.666 223.659C134.329 223.622 134.897 224.13 134.934 224.794C135.197 229.521 133.641 234.504 131.655 238.583C129.68 242.639 127.172 246.018 125.331 247.469C124.809 247.881 124.052 247.792 123.641 247.27C123.229 246.748 123.319 245.991 123.841 245.579C125.274 244.449 127.587 241.439 129.491 237.53C131.383 233.644 132.762 229.086 132.531 224.928C132.494 224.264 133.002 223.696 133.666 223.659Z" fill="url(#paint28_linear)"/>
<path opacity="0.5" fill-rule="evenodd" clip-rule="evenodd" d="M201 443.398L343.872 388H542L435.997 459" fill="url(#paint29_linear)"/>
<path fill-rule="evenodd" clip-rule="evenodd" d="M464.384 370.835C510.218 370.835 547.374 367.92 547.374 364.325C547.374 360.731 510.218 357.816 464.384 357.816C418.55 357.816 381.393 360.731 381.393 364.325C381.393 367.92 418.55 370.835 464.384 370.835Z" fill="#8699BF"/>
<path d="M352.954 34.5285C352.954 16.5635 367.518 2 385.483 2H530.932C548.897 2 563.46 16.5635 563.46 34.5285V357.955C563.46 375.92 548.897 390.484 530.932 390.484H385.483C367.518 390.484 352.954 375.92 352.954 357.955V34.5285Z" fill="url(#paint30_linear)"/>
<path d="M335.761 34.5285C335.761 16.5635 350.324 2 368.289 2H513.738C531.703 2 546.267 16.5635 546.267 34.5285V357.955C546.267 375.92 531.703 390.484 513.738 390.484H368.289C350.324 390.484 335.761 375.92 335.761 357.955V34.5285Z" fill="url(#paint31_linear)"/>
<path d="M385.948 30.5787C385.948 28.6539 387.508 27.0935 389.433 27.0935H493.06C494.984 27.0935 496.545 28.6539 496.545 30.5787C496.545 32.5035 494.984 34.0639 493.06 34.0639H389.433C387.508 34.0639 385.948 32.5035 385.948 30.5787Z" fill="url(#paint32_linear)"/>
<path fill-rule="evenodd" clip-rule="evenodd" d="M440.781 382.119C451.56 382.119 460.298 373.381 460.298 362.602C460.298 351.823 451.56 343.085 440.781 343.085C430.002 343.085 421.264 351.823 421.264 362.602C421.264 373.381 430.002 382.119 440.781 382.119Z" fill="url(#paint33_linear)"/>
<g filter="url(#filter3_d)">
<path d="M344.59 63.3393C344.59 60.2595 347.087 57.7629 350.166 57.7629H532.326C535.406 57.7629 537.903 60.2595 537.903 63.3393V329.144C537.903 332.224 535.406 334.72 532.326 334.72H350.166C347.087 334.72 344.59 332.224 344.59 329.144V63.3393Z" fill="white"/>
</g>
<mask id="mask1" mask-type="alpha" maskUnits="userSpaceOnUse" x="344" y="57" width="194" height="278">
<path d="M344.59 63.3393C344.59 60.2595 347.087 57.7629 350.166 57.7629H532.326C535.406 57.7629 537.903 60.2595 537.903 63.3393V329.144C537.903 332.224 535.406 334.72 532.326 334.72H350.166C347.087 334.72 344.59 332.224 344.59 329.144V63.3393Z" fill="white"/>
</mask>
<g mask="url(#mask1)">
<g opacity="0.6">
<path d="M353.883 279.421C353.883 274.288 358.044 270.127 363.177 270.127H519.314C524.447 270.127 528.608 274.288 528.608 279.421V313.809C528.608 318.941 524.447 323.102 519.314 323.102H363.177C358.044 323.102 353.883 318.941 353.883 313.809V279.421Z" fill="url(#paint34_linear)"/>
<path fill-rule="evenodd" clip-rule="evenodd" d="M380.371 316.132C391.15 316.132 399.888 307.394 399.888 296.615C399.888 285.836 391.15 277.098 380.371 277.098C369.592 277.098 360.854 285.836 360.854 296.615C360.854 307.394 369.592 316.132 380.371 316.132Z" fill="#A1B8E3"/>
<path d="M406.858 283.371C406.858 281.189 408.627 279.421 410.808 279.421H511.182C513.363 279.421 515.132 281.189 515.132 283.371C515.132 285.552 513.363 287.321 511.182 287.321H410.808C408.627 287.321 406.858 285.552 406.858 283.371Z" fill="#A1B8E3"/>
<path d="M406.858 296.383C406.858 294.201 408.627 292.433 410.808 292.433H485.624C487.805 292.433 489.574 294.201 489.574 296.383C489.574 298.564 487.805 300.333 485.624 300.333H410.808C408.627 300.333 406.858 298.564 406.858 296.383Z" fill="#A1B8E3"/>
<path opacity="0.5" d="M406.858 311.021C406.858 309.481 408.106 308.232 409.646 308.232H434.74C436.28 308.232 437.528 309.481 437.528 311.021C437.528 312.56 436.28 313.809 434.74 313.809H409.646C408.106 313.809 406.858 312.56 406.858 311.021Z" fill="#A1B8E3"/>
</g>
<g opacity="0.6">
<path d="M353.883 215.294C353.883 210.161 358.044 206 363.177 206H519.314C524.447 206 528.608 210.161 528.608 215.294V249.681C528.608 254.814 524.447 258.975 519.314 258.975H363.177C358.044 258.975 353.883 254.814 353.883 249.681V215.294Z" fill="url(#paint35_linear)"/>
<path fill-rule="evenodd" clip-rule="evenodd" d="M380.371 252.005C391.15 252.005 399.888 243.267 399.888 232.488C399.888 221.709 391.15 212.971 380.371 212.971C369.592 212.971 360.854 221.709 360.854 232.488C360.854 243.267 369.592 252.005 380.371 252.005Z" fill="#A1B8E3"/>
<path d="M406.858 219.244C406.858 217.063 408.627 215.294 410.808 215.294H511.182C513.363 215.294 515.132 217.063 515.132 219.244C515.132 221.426 513.363 223.194 511.182 223.194H410.808C408.627 223.194 406.858 221.426 406.858 219.244Z" fill="#A1B8E3"/>
<path d="M406.858 232.255C406.858 230.074 408.627 228.305 410.808 228.305H485.624C487.805 228.305 489.574 230.074 489.574 232.255C489.574 234.437 487.805 236.205 485.624 236.205H410.808C408.627 236.205 406.858 234.437 406.858 232.255Z" fill="#A1B8E3"/>
<path opacity="0.5" d="M406.858 246.893C406.858 245.353 408.106 244.105 409.646 244.105H434.74C436.28 244.105 437.528 245.353 437.528 246.893C437.528 248.433 436.28 249.681 434.74 249.681H409.646C408.106 249.681 406.858 248.433 406.858 246.893Z" fill="#A1B8E3"/>
</g>
<g opacity="0.6">
<path d="M353.883 81.4623C353.883 76.3295 358.044 72.1685 363.177 72.1685H519.314C524.447 72.1685 528.608 76.3295 528.608 81.4623V115.85C528.608 120.982 524.447 125.144 519.314 125.144H363.177C358.044 125.144 353.883 120.982 353.883 115.85V81.4623Z" fill="url(#paint36_linear)"/>
<path fill-rule="evenodd" clip-rule="evenodd" d="M380.371 118.173C391.15 118.173 399.888 109.435 399.888 98.6563C399.888 87.8773 391.15 79.1392 380.371 79.1392C369.592 79.1392 360.854 87.8773 360.854 98.6563C360.854 109.435 369.592 118.173 380.371 118.173Z" fill="#A1B8E3"/>
<path d="M406.858 85.4125C406.858 83.2311 408.627 81.4626 410.808 81.4626H511.182C513.363 81.4626 515.132 83.2311 515.132 85.4125C515.132 87.594 513.363 89.3624 511.182 89.3624H410.808C408.627 89.3624 406.858 87.594 406.858 85.4125Z" fill="#A1B8E3"/>
<path d="M406.858 98.4233C406.858 96.2418 408.627 94.4734 410.808 94.4734H485.624C487.805 94.4734 489.574 96.2418 489.574 98.4233C489.574 100.605 487.805 102.373 485.624 102.373H410.808C408.627 102.373 406.858 100.605 406.858 98.4233Z" fill="#A1B8E3"/>
<path opacity="0.5" d="M406.858 113.061C406.858 111.521 408.106 110.273 409.646 110.273H434.74C436.28 110.273 437.528 111.521 437.528 113.061C437.528 114.601 436.28 115.849 434.74 115.849H409.646C408.106 115.849 406.858 114.601 406.858 113.061Z" fill="#A1B8E3"/>
</g>
</g>
<g filter="url(#filter4_d)">
<path d="M340.192 140.196C340.192 134.994 344.409 130.777 349.61 130.777H507.845C513.047 130.777 517.264 134.994 517.264 140.196V175.045C517.264 180.247 513.047 184.464 507.845 184.464H349.61C344.409 184.464 340.192 180.247 340.192 175.045V140.196Z" fill="url(#paint37_linear)"/>
<path fill-rule="evenodd" clip-rule="evenodd" d="M367.035 177.4C377.959 177.4 386.814 168.544 386.814 157.621C386.814 146.697 377.959 137.841 367.035 137.841C356.111 137.841 347.256 146.697 347.256 157.621C347.256 168.544 356.111 177.4 367.035 177.4Z" fill="#FFB417"/>
<path d="M393.878 144.199C393.878 141.988 395.671 140.196 397.881 140.196H499.604C501.814 140.196 503.606 141.988 503.606 144.199C503.606 146.41 501.814 148.202 499.604 148.202H397.881C395.671 148.202 393.878 146.41 393.878 144.199Z" fill="#FFB417"/>
<path d="M393.878 157.385C393.878 155.174 395.671 153.382 397.881 153.382H473.702C475.913 153.382 477.705 155.174 477.705 157.385C477.705 159.596 475.913 161.388 473.702 161.388H397.881C395.671 161.388 393.878 159.596 393.878 157.385Z" fill="#FFB417"/>
<path opacity="0.5" d="M393.878 172.22C393.878 170.659 395.143 169.394 396.704 169.394H422.135C423.695 169.394 424.96 170.659 424.96 172.22C424.96 173.78 423.695 175.045 422.135 175.045H396.704C395.143 175.045 393.878 173.78 393.878 172.22Z" fill="#FFB417"/>
</g>
<path opacity="0.5" fill-rule="evenodd" clip-rule="evenodd" d="M109 486L299 474C294.599 477.857 289.11 480.305 283.262 481.019L144.255 498" fill="url(#paint38_linear)"/>
<path opacity="0.5" fill-rule="evenodd" clip-rule="evenodd" d="M30 471H217C213.796 474.065 209.618 475.846 205.233 476.014L75.4212 481" fill="url(#paint39_linear)"/>
<path fill-rule="evenodd" clip-rule="evenodd" d="M175.842 269.364C175.842 277.703 168.974 294.043 177.93 298.28C186.886 302.516 194.806 280.513 194.806 280.513C194.806 280.513 194.124 264.355 186.027 264.355C177.93 264.355 175.842 261.026 175.842 269.364Z" fill="url(#paint40_linear)"/>
<mask id="mask2" mask-type="alpha" maskUnits="userSpaceOnUse" x="173" y="263" width="22" height="36">
<path fill-rule="evenodd" clip-rule="evenodd" d="M175.842 269.364C175.842 277.703 168.974 294.043 177.93 298.28C186.886 302.516 194.806 280.513 194.806 280.513C194.806 280.513 194.124 264.355 186.027 264.355C177.93 264.355 175.842 261.026 175.842 269.364Z" fill="white"/>
</mask>
<g mask="url(#mask2)">
<g opacity="0.5">
<path fill-rule="evenodd" clip-rule="evenodd" d="M175.326 273.098C176.048 274.566 185.89 282.33 187.518 284.166C189.145 286.002 189.518 290.801 190.452 290.305C191.387 289.809 190.452 275.733 190.452 275.733C190.452 275.733 174.604 271.631 175.326 273.098Z" fill="#3D82F0" style="mix-blend-mode:multiply"/>
</g>
</g>
<path fill-rule="evenodd" clip-rule="evenodd" d="M191.861 458.428C191.711 462.734 190.41 468.077 191.448 470.254C192.486 472.432 197.961 473.749 199.78 473.812C201.599 473.876 202.315 470.829 205.085 472.506C207.855 474.183 223.961 474.657 225.23 468.289C226.5 461.921 218.337 461.636 214.706 461.51C211.075 461.383 207.292 459.48 202.061 454.701C196.83 449.921 192.011 454.121 191.861 458.428Z" fill="url(#paint41_linear)"/>
<path fill-rule="evenodd" clip-rule="evenodd" d="M209.353 459.895C209.322 460.151 209.504 460.384 209.76 460.415C209.755 460.415 209.755 460.415 209.76 460.417C209.774 460.422 209.821 460.439 209.905 460.49C210.01 460.553 210.142 460.648 210.289 460.774C210.582 461.027 210.913 461.382 211.197 461.797C211.78 462.648 212.086 463.623 211.706 464.473C211.601 464.708 211.707 464.984 211.942 465.089C212.177 465.194 212.453 465.089 212.558 464.853C213.137 463.557 212.616 462.217 211.967 461.27C211.636 460.785 211.25 460.37 210.897 460.067C210.721 459.915 210.547 459.786 210.386 459.69C210.238 459.601 210.056 459.511 209.873 459.489C209.618 459.458 209.385 459.639 209.353 459.895Z" fill="white"/>
<path fill-rule="evenodd" clip-rule="evenodd" d="M213.829 460.999C213.797 461.255 213.979 461.488 214.235 461.519C214.488 461.55 215.016 461.745 215.442 462.216C215.85 462.667 216.185 463.396 216.044 464.55C216.012 464.806 216.194 465.039 216.45 465.07C216.706 465.102 216.938 464.92 216.97 464.664C217.143 463.254 216.732 462.252 216.134 461.59C215.555 460.949 214.818 460.65 214.349 460.593C214.093 460.561 213.86 460.743 213.829 460.999Z" fill="white"/>
<path fill-rule="evenodd" clip-rule="evenodd" d="M272.937 467.532C273.312 471.825 272.673 477.286 273.968 479.32C275.264 481.355 280.858 481.995 282.672 481.837C284.485 481.678 284.824 478.567 287.778 479.894C290.732 481.221 306.775 479.728 307.259 473.253C307.743 466.778 299.606 467.49 295.987 467.806C292.368 468.123 288.381 466.696 282.607 462.589C276.832 458.483 272.561 463.239 272.937 467.532Z" fill="url(#paint42_linear)"/>
<path fill-rule="evenodd" clip-rule="evenodd" d="M290.477 466.856C290.477 467.114 290.685 467.323 290.943 467.323C290.938 467.323 290.938 467.323 290.944 467.324C290.958 467.327 291.006 467.339 291.097 467.379C291.209 467.429 291.351 467.507 291.512 467.615C291.834 467.829 292.206 468.141 292.538 468.519C293.22 469.292 293.643 470.223 293.369 471.113C293.294 471.359 293.432 471.62 293.679 471.696C293.925 471.772 294.186 471.633 294.262 471.387C294.678 470.029 293.998 468.763 293.238 467.902C292.85 467.461 292.416 467.096 292.029 466.838C291.836 466.709 291.648 466.603 291.476 466.526C291.319 466.456 291.127 466.389 290.943 466.389C290.685 466.389 290.477 466.598 290.477 466.856Z" fill="white"/>
<path fill-rule="evenodd" clip-rule="evenodd" d="M295.053 467.406C295.053 467.664 295.262 467.873 295.519 467.873C295.774 467.873 296.323 468.002 296.803 468.418C297.262 468.815 297.684 469.498 297.684 470.661C297.684 470.919 297.893 471.128 298.151 471.128C298.408 471.128 298.617 470.919 298.617 470.661C298.617 469.241 298.088 468.296 297.413 467.712C296.76 467.146 295.993 466.939 295.519 466.939C295.262 466.939 295.053 467.148 295.053 467.406Z" fill="white"/>
<path fill-rule="evenodd" clip-rule="evenodd" d="M257.907 313.251C257.907 313.251 275.498 377.702 277.788 392.367C280.078 407.033 285.683 456.604 284.892 464.598C281.064 468.502 274.167 466.165 272.966 465.449C271.765 464.733 264.364 423.947 257.907 408.126C251.451 392.304 236.921 377.742 227.347 361.824C227.347 372.185 219.954 399.912 219.954 399.912C219.954 399.912 209.174 448.876 205.505 456.802C203.764 459.614 194.977 457.552 191.569 456.802C191.569 449.376 198.918 411.856 198.918 398.831C198.918 385.806 196.885 362.202 196.126 352.525C195.366 342.848 193.511 324.074 196.126 313.251C202.754 313.251 257.907 313.251 257.907 313.251Z" fill="url(#paint43_linear)"/>
<mask id="mask3" mask-type="alpha" maskUnits="userSpaceOnUse" x="191" y="313" width="94" height="154">
<path fill-rule="evenodd" clip-rule="evenodd" d="M257.907 313.251C257.907 313.251 275.498 377.702 277.788 392.367C280.078 407.033 285.683 456.604 284.892 464.598C281.064 468.502 274.167 466.165 272.966 465.449C271.765 464.733 264.364 423.947 257.907 408.126C251.451 392.304 236.921 377.742 227.347 361.824C227.347 372.185 219.954 399.912 219.954 399.912C219.954 399.912 209.174 448.876 205.505 456.802C203.764 459.614 194.977 457.552 191.569 456.802C191.569 449.376 198.918 411.856 198.918 398.831C198.918 385.806 196.885 362.202 196.126 352.525C195.366 342.848 193.511 324.074 196.126 313.251C202.754 313.251 257.907 313.251 257.907 313.251Z" fill="white"/>
</mask>
<g mask="url(#mask3)">
<g opacity="0.5">
<path fill-rule="evenodd" clip-rule="evenodd" d="M218.07 407.438C218.07 401.13 221.32 349.581 222.067 351.696C222.813 353.812 228.628 365.235 228.628 365.235C228.628 365.235 218.07 413.747 218.07 407.438Z" fill="#A1B8E3" style="mix-blend-mode:multiply"/>
</g>
<path fill-rule="evenodd" clip-rule="evenodd" d="M222.135 351.271C222.386 351.212 222.637 351.366 222.697 351.617C223.137 353.461 224.213 355.694 225.405 357.892C225.926 358.854 226.475 359.818 226.994 360.73C227.642 361.867 228.244 362.924 228.692 363.799C228.809 364.029 228.718 364.31 228.489 364.427C228.259 364.545 227.978 364.454 227.861 364.224C227.415 363.353 226.836 362.337 226.203 361.227C225.685 360.317 225.13 359.345 224.584 358.337C223.391 356.137 222.26 353.808 221.789 351.833C221.729 351.583 221.884 351.331 222.135 351.271Z" fill="white"/>
<g opacity="0.5">
<path fill-rule="evenodd" clip-rule="evenodd" d="M200.197 324.018C204.309 326.23 220.412 335.643 241.161 331.871C251.413 330.007 258.008 327.568 260.966 324.018C260.966 322.27 258.479 314.917 257.785 312.103C257.091 309.29 195.162 321.31 200.197 324.018Z" fill="url(#paint44_linear)" style="mix-blend-mode:multiply"/>
</g>
</g>
<path fill-rule="evenodd" clip-rule="evenodd" d="M226.795 176.249C226.795 176.249 229.172 180.853 233.198 182.808C237.224 184.763 239.236 185.719 239.236 185.719L237.524 192.358C237.524 192.358 240.714 202.121 239.236 205.412C237.757 208.703 233.198 210.89 230.544 213.825C227.89 216.76 225.437 226.715 225.437 226.715H207.946L207.154 213.825C207.154 213.825 202.49 195.224 210.404 185.719C218.318 176.214 226.795 176.249 226.795 176.249Z" fill="url(#paint45_linear)"/>
<mask id="mask4" mask-type="alpha" maskUnits="userSpaceOnUse" x="205" y="176" width="35" height="51">
<path fill-rule="evenodd" clip-rule="evenodd" d="M226.795 176.249C226.795 176.249 229.172 180.853 233.198 182.808C237.224 184.763 239.236 185.719 239.236 185.719L237.524 192.358C237.524 192.358 240.714 202.121 239.236 205.412C237.757 208.703 233.198 210.89 230.544 213.825C227.89 216.76 225.437 226.715 225.437 226.715H207.946L207.154 213.825C207.154 213.825 202.49 195.224 210.404 185.719C218.318 176.214 226.795 176.249 226.795 176.249Z" fill="white"/>
</mask>
<g mask="url(#mask4)">
<g opacity="0.5">
<path fill-rule="evenodd" clip-rule="evenodd" d="M232.724 212.072C228.309 212.072 221.422 208.162 220.096 206.827C218.77 205.491 231.133 219.94 230.101 222.241C229.287 224.057 226.381 224.612 228.214 224.612C234.825 224.612 237.139 212.072 232.724 212.072Z" fill="#3D82F0" style="mix-blend-mode:multiply"/>
</g>
</g>
<path fill-rule="evenodd" clip-rule="evenodd" d="M207.155 213.281C191.733 198.866 179.522 186.565 190.054 169.424C200.585 152.283 225.089 146.521 229.669 167.357C229.669 176.297 223.068 181.073 223.068 181.073C223.068 181.073 221.833 183.586 225.089 186.252C228.345 188.918 225.089 191.121 225.089 191.121C225.089 191.121 218.66 186.986 216.981 192.492C215.302 197.999 221.499 199.97 221.499 201.349C223.635 206.414 219.227 211.047 219.227 211.047C219.227 211.047 216.97 213.281 207.155 213.281Z" fill="url(#paint46_linear)"/>
<path fill-rule="evenodd" clip-rule="evenodd" d="M191.248 232.725C191.248 232.725 174.74 261.685 172.748 268.058C170.756 274.43 191.248 278.115 191.248 278.115L199.799 241.687L191.248 232.725Z" fill="url(#paint47_linear)"/>
<path fill-rule="evenodd" clip-rule="evenodd" d="M226.912 222.755C226.912 222.755 239.345 226.037 246.672 234.707C253.998 243.377 252.366 269.462 254.441 284.987C256.516 300.512 265.546 311.796 251.598 320.558C237.651 329.319 198.217 327.329 194.993 320.558C191.768 313.786 188.092 272.166 188.092 272.166C188.092 272.166 188.092 234.707 192.497 231.549C196.902 228.391 207.185 222.289 207.185 222.289C207.185 222.289 206.954 223.217 211.914 224.138C216.875 225.058 226.912 222.755 226.912 222.755Z" fill="#D6E3FA"/>
<mask id="mask5" mask-type="alpha" maskUnits="userSpaceOnUse" x="188" y="222" width="72" height="105">
<path fill-rule="evenodd" clip-rule="evenodd" d="M226.912 222.755C226.912 222.755 239.345 226.037 246.672 234.707C253.998 243.377 252.366 269.462 254.441 284.987C256.516 300.512 265.546 311.796 251.598 320.558C237.651 329.319 198.217 327.329 194.993 320.558C191.768 313.786 188.092 272.166 188.092 272.166C188.092 272.166 188.092 234.707 192.497 231.549C196.902 228.391 207.185 222.289 207.185 222.289C207.185 222.289 206.954 223.217 211.914 224.138C216.875 225.058 226.912 222.755 226.912 222.755Z" fill="white"/>
</mask>
<g mask="url(#mask5)">
<path opacity="0.5" fill-rule="evenodd" clip-rule="evenodd" d="M237.239 252.388C237.239 252.388 243.946 283.736 247.981 289.612C252.017 295.488 254.641 313.268 257.871 315.389C261.102 317.509 265.742 293.254 263.422 284.949C261.102 276.645 250.643 256.304 250.643 256.304L237.239 252.388Z" fill="url(#paint48_linear)"/>
<path opacity="0.5" fill-rule="evenodd" clip-rule="evenodd" d="M210.139 224.436C213.123 226.416 220.901 227.488 227.438 227.488C233.976 227.488 236.02 227.557 239.148 226.605C242.276 225.653 241.063 224.436 239.148 224.436C237.233 224.436 231.293 223.04 228.096 223.04C224.898 223.04 207.154 222.457 210.139 224.436Z" fill="url(#paint49_linear)"/>
</g>
<path fill-rule="evenodd" clip-rule="evenodd" d="M206.619 222.755C206.619 222.755 206.234 217.96 206.234 216.414C206.234 214.867 219.113 217.051 228.38 217.918C229.386 221.776 229.208 222.031 229.208 222.755C229.208 223.117 226.894 226.221 214.441 225.214C209.896 224.847 206.619 222.755 206.619 222.755Z" fill="#E1ECFF"/>
<path fill-rule="evenodd" clip-rule="evenodd" d="M271.007 259.861C273.785 253.622 275.356 243.986 272.413 242.676C269.47 241.365 265.298 248.012 262.52 254.251C259.742 260.49 261.468 264.531 263.171 266.214C265.081 266.608 268.229 266.1 271.007 259.861Z" fill="#A1B8E3"/>
<path fill-rule="evenodd" clip-rule="evenodd" d="M267.73 241.212L280.754 246.573C280.754 246.573 292.304 215.753 293.005 211.753C293.706 207.753 290.6 202.109 290.098 200.096C289.597 198.084 289.678 193.348 291.08 191.615C292.482 189.882 292.852 190.501 293.9 190.24C294.947 189.979 301.162 176.649 301.867 174.974C302.572 173.299 303.829 172.248 305.107 172.806C306.385 173.364 306.266 174.854 305.761 176.172C305.256 177.489 302.421 184.883 302.742 186.17C303.063 187.458 308.057 189.123 309.45 189.977C310.843 190.832 313.216 193.642 312.03 197.708C310.844 201.774 305.37 209.144 305.761 210.712C306.152 212.279 300.625 238.842 298.866 249.465C297.107 260.089 294.807 267.539 285.828 266.924C276.848 266.309 258.24 256.325 258.24 256.325C258.24 256.325 259.456 248.569 261.781 245.643C264.106 242.717 267.73 241.212 267.73 241.212Z" fill="url(#paint50_linear)"/>
<mask id="mask6" mask-type="alpha" maskUnits="userSpaceOnUse" x="241" y="172" width="87" height="102">
<path fill-rule="evenodd" clip-rule="evenodd" d="M267.73 241.212L280.754 246.573C280.754 246.573 292.304 215.753 293.005 211.753C293.706 207.753 290.6 202.109 290.098 200.096C289.597 198.084 289.678 193.348 291.08 191.615C292.482 189.882 292.852 190.501 293.9 190.24C294.947 189.979 301.162 176.649 301.867 174.974C302.572 173.299 303.829 172.248 305.107 172.806C306.385 173.364 306.266 174.854 305.761 176.172C305.256 177.489 302.421 184.883 302.742 186.17C303.063 187.458 308.057 189.123 309.45 189.977C310.843 190.832 313.216 193.642 312.03 197.708C310.844 201.774 305.37 209.144 305.761 210.712C306.152 212.279 300.625 238.842 298.866 249.465C297.107 260.089 294.807 267.539 285.828 266.924C276.848 266.309 258.24 256.325 258.24 256.325C258.24 256.325 259.456 248.569 261.781 245.643C264.106 242.717 267.73 241.212 267.73 241.212Z" fill="white"/>
</mask>
<g mask="url(#mask6)">
<g opacity="0.5">
<path fill-rule="evenodd" clip-rule="evenodd" d="M272.005 242.638C272.005 242.638 269.245 258.785 270.977 263.536C272.709 268.287 263.209 261.583 263.209 261.583C263.209 261.583 263.394 254.664 264.854 251.519C266.314 248.375 272.005 242.638 272.005 242.638Z" fill="#3D82F0" style="mix-blend-mode:multiply"/>
</g>
<path fill-rule="evenodd" clip-rule="evenodd" d="M280.056 245.995C280.163 245.761 280.44 245.658 280.675 245.765C280.731 245.791 280.791 245.818 280.856 245.847C281.634 246.195 283.004 246.808 284.228 248.503C284.378 248.712 284.331 249.003 284.122 249.154C283.913 249.305 283.622 249.258 283.471 249.049C282.396 247.56 281.223 247.035 280.469 246.696C280.404 246.668 280.343 246.64 280.285 246.614C280.051 246.506 279.948 246.229 280.056 245.995Z" fill="#223762"/>
</g>
<path fill-rule="evenodd" clip-rule="evenodd" d="M263.055 266.166C264.522 258.826 266.635 248.726 272.508 242.681C251.552 233.645 244.948 230.441 238.36 227.627C231.772 224.812 225.777 243.35 238.36 252.572C250.943 261.793 259.558 264.621 263.055 266.166Z" fill="url(#paint51_linear)"/>
<path d="M524.415 442.088H715.925V445.179C715.925 450.051 711.975 454.001 707.102 454.001H533.238C528.365 454.001 524.415 450.051 524.415 445.179V442.088Z" fill="#CAD7F1"/>
<path fill-rule="evenodd" clip-rule="evenodd" d="M546.979 405.357H694.226C699.067 405.357 704.229 408.624 705.757 412.653L715.988 439.651C717.516 443.681 714.079 446.948 708.312 446.948H532.893C527.126 446.948 523.69 443.681 525.217 439.651L535.449 412.653C536.976 408.624 542.138 405.357 546.979 405.357Z" fill="#EBF1FD"/>
<mask id="mask7" mask-type="alpha" maskUnits="userSpaceOnUse" x="524" y="405" width="193" height="42">
<path fill-rule="evenodd" clip-rule="evenodd" d="M546.979 405.357H694.226C699.067 405.357 704.229 408.624 705.757 412.653L715.988 439.651C717.516 443.681 714.079 446.948 708.312 446.948H532.893C527.126 446.948 523.69 443.681 525.217 439.651L535.449 412.653C536.976 408.624 542.138 405.357 546.979 405.357Z" fill="white"/>
</mask>
<g mask="url(#mask7)">
<path fill-rule="evenodd" clip-rule="evenodd" d="M553.467 441.463C565.321 441.463 576.162 434.603 577.68 426.14C579.199 417.677 571.981 410.817 561.56 410.817C551.139 410.817 540.298 417.677 537.347 426.14C534.395 434.603 541.613 441.463 553.467 441.463Z" fill="#CAD7F1"/>
<path fill-rule="evenodd" clip-rule="evenodd" d="M590.985 412.802H688.822C690.948 412.802 693.117 414.191 693.666 415.904C694.215 417.616 692.888 419.005 690.703 419.005H590.166C587.981 419.005 586.417 417.616 586.673 415.904C586.928 414.191 588.859 412.802 590.985 412.802Z" fill="#CAD7F1"/>
<path fill-rule="evenodd" clip-rule="evenodd" d="M589.406 423.227H665.646C667.869 423.227 669.962 424.615 670.321 426.328C670.68 428.04 669.122 429.429 666.84 429.429H588.587C586.305 429.429 584.663 428.04 584.918 426.328C585.174 424.615 587.183 423.227 589.406 423.227Z" fill="#CAD7F1"/>
<path opacity="0.5" fill-rule="evenodd" clip-rule="evenodd" d="M586.913 435.636H613.835C615.487 435.636 616.81 436.616 616.791 437.825C616.771 439.034 615.392 440.014 613.711 440.014H586.313C584.632 440.014 583.415 439.034 583.595 437.825C583.776 436.616 585.261 435.636 586.913 435.636Z" fill="#CAD7F1"/>
</g>
<g filter="url(#filter5_d)">
<path d="M517.418 425.363L708.899 428.705L708.845 431.795C708.76 436.667 704.741 440.547 699.869 440.462L526.032 437.428C521.16 437.343 517.279 433.325 517.364 428.453L517.418 425.363Z" fill="#CAD7F1"/>
<path fill-rule="evenodd" clip-rule="evenodd" d="M540.619 389.03L687.845 391.6C692.684 391.684 697.789 395.041 699.246 399.097L709.005 426.269C710.461 430.325 706.968 433.531 701.202 433.43L525.81 430.369C520.044 430.268 516.665 426.942 518.262 422.939L528.964 396.124C530.561 392.122 535.78 388.945 540.619 389.03Z" fill="#EBF1FD"/>
<mask id="mask8" mask-type="alpha" maskUnits="userSpaceOnUse" x="517" y="388" width="193" height="46">
<path fill-rule="evenodd" clip-rule="evenodd" d="M540.619 389.03L687.845 391.6C692.684 391.684 697.789 395.041 699.246 399.097L709.005 426.269C710.461 430.325 706.968 433.531 701.202 433.43L525.81 430.369C520.044 430.268 516.665 426.942 518.262 422.939L528.964 396.124C530.561 392.122 535.78 388.945 540.619 389.03Z" fill="white"/>
</mask>
<g mask="url(#mask8)">
<path fill-rule="evenodd" clip-rule="evenodd" d="M546.476 425.244C558.328 425.451 569.287 418.781 570.953 410.346C572.618 401.911 565.522 394.926 555.102 394.744C544.683 394.562 533.724 401.232 530.625 409.642C527.527 418.052 534.623 425.037 546.476 425.244Z" fill="#CAD7F1"/>
<path fill-rule="evenodd" clip-rule="evenodd" d="M584.488 397.243L682.31 398.95C684.436 398.987 686.58 400.413 687.099 402.135C687.618 403.857 686.268 405.222 684.083 405.184L583.561 403.43C581.377 403.392 579.837 401.976 580.122 400.268C580.408 398.56 582.363 397.206 584.488 397.243Z" fill="#CAD7F1"/>
<path fill-rule="evenodd" clip-rule="evenodd" d="M582.728 407.638L658.956 408.968C661.179 409.007 663.247 410.432 663.576 412.15C663.906 413.869 662.323 415.23 660.042 415.19L581.801 413.825C579.519 413.785 577.901 412.368 578.187 410.66C578.472 408.952 580.505 407.599 582.728 407.638Z" fill="#CAD7F1"/>
<path opacity="0.5" fill-rule="evenodd" clip-rule="evenodd" d="M580.019 420.002L606.936 420.472C608.588 420.501 609.894 421.504 609.853 422.712C609.813 423.921 608.417 424.876 606.736 424.847L579.342 424.369C577.661 424.34 576.462 423.338 576.663 422.133C576.865 420.927 578.367 419.973 580.019 420.002Z" fill="#CAD7F1"/>
</g>
</g>
<g filter="url(#filter6_d)">
<path d="M528.62 414.578L720.013 407.894L720.121 410.983C720.291 415.852 716.481 419.938 711.611 420.108L537.853 426.176C532.984 426.346 528.898 422.536 528.728 417.666L528.62 414.578Z" fill="#CAD7F1"/>
<path fill-rule="evenodd" clip-rule="evenodd" d="M549.888 377.081L697.046 371.942C701.884 371.773 707.157 374.858 708.824 378.832L719.992 405.456C721.659 409.43 718.338 412.815 712.575 413.016L537.262 419.138C531.499 419.339 527.951 416.195 529.336 412.114L538.62 384.776C540.005 380.695 545.05 377.25 549.888 377.081Z" fill="#EBF1FD"/>
<mask id="mask9" mask-type="alpha" maskUnits="userSpaceOnUse" x="527" y="371" width="194" height="49">
<path fill-rule="evenodd" clip-rule="evenodd" d="M549.888 377.081L697.046 371.942C701.884 371.773 707.157 374.858 708.824 378.832L719.992 405.456C721.659 409.43 718.338 412.815 712.575 413.016L537.262 419.138C531.499 419.339 527.951 416.195 529.336 412.114L538.62 384.776C540.005 380.695 545.05 377.25 549.888 377.081Z" fill="white"/>
</mask>
<g mask="url(#mask9)">
<path fill-rule="evenodd" clip-rule="evenodd" d="M557.632 412.938C569.479 412.525 580.073 405.29 581.295 396.78C582.518 388.269 575.065 381.665 564.65 382.028C554.236 382.392 543.641 389.627 540.987 398.187C538.332 406.748 545.785 413.352 557.632 412.938Z" fill="#CAD7F1"/>
<path fill-rule="evenodd" clip-rule="evenodd" d="M594.127 382.986L691.904 379.572C694.029 379.498 696.245 380.809 696.853 382.502C697.462 384.194 696.185 385.628 694.001 385.705L593.525 389.213C591.341 389.289 589.73 387.957 589.925 386.236C590.121 384.515 592.002 383.06 594.127 382.986Z" fill="#CAD7F1"/>
<path fill-rule="evenodd" clip-rule="evenodd" d="M592.913 393.459L669.106 390.798C671.328 390.721 673.468 392.035 673.887 393.734C674.305 395.433 672.796 396.875 670.516 396.955L592.311 399.686C590.031 399.766 588.341 398.435 588.536 396.715C588.732 394.994 590.691 393.537 592.913 393.459Z" fill="#CAD7F1"/>
<path opacity="0.5" fill-rule="evenodd" clip-rule="evenodd" d="M590.854 405.948L617.759 405.008C619.41 404.95 620.767 405.884 620.79 407.093C620.813 408.301 619.469 409.329 617.789 409.388L590.407 410.344C588.727 410.403 587.477 409.466 587.615 408.251C587.753 407.037 589.203 406.005 590.854 405.948Z" fill="#CAD7F1"/>
</g>
</g>
<path d="M511 396.974H702.435V400.143C702.435 405.015 698.485 408.966 693.612 408.966H519.823C514.95 408.966 511 405.016 511 400.143V396.974Z" fill="#C6D5EF"/>
<path fill-rule="evenodd" clip-rule="evenodd" d="M533.555 360H680.745C685.584 360 690.744 363.288 692.27 367.345L702.498 394.521C704.025 398.577 700.59 401.866 694.825 401.866H519.474C513.71 401.866 510.275 398.577 511.801 394.521L522.029 367.345C523.556 363.288 528.716 360 533.555 360Z" fill="#EBF1FD"/>
<mask id="mask10" mask-type="alpha" maskUnits="userSpaceOnUse" x="511" y="360" width="192" height="42">
<path fill-rule="evenodd" clip-rule="evenodd" d="M533.555 360H680.745C685.584 360 690.744 363.288 692.27 367.345L702.498 394.521C704.025 398.577 700.59 401.866 694.825 401.866H519.474C513.71 401.866 510.275 398.577 511.801 394.521L522.029 367.345C523.556 363.288 528.716 360 533.555 360Z" fill="white"/>
</mask>
<g mask="url(#mask10)">
<path opacity="0.5" fill-rule="evenodd" clip-rule="evenodd" d="M540.04 396.345C551.889 396.345 562.726 389.439 564.243 380.92C565.761 372.402 558.547 365.496 548.13 365.496C537.712 365.496 526.876 372.402 523.926 380.92C520.976 389.439 528.19 396.345 540.04 396.345Z" fill="#AABFE5"/>
<path opacity="0.5" fill-rule="evenodd" clip-rule="evenodd" d="M577.543 367.495H675.342C677.467 367.495 679.635 368.892 680.184 370.616C680.732 372.34 679.407 373.738 677.223 373.738H576.725C574.541 373.738 572.977 372.34 573.232 370.616C573.488 368.892 575.418 367.495 577.543 367.495Z" fill="#AABFE5"/>
<path opacity="0.5" fill-rule="evenodd" clip-rule="evenodd" d="M575.965 377.987H652.175C654.397 377.987 656.489 379.385 656.848 381.109C657.207 382.833 655.649 384.23 653.369 384.23H575.146C572.865 384.23 571.224 382.833 571.479 381.109C571.734 379.385 573.743 377.987 575.965 377.987Z" fill="#AABFE5"/>
<path opacity="0.3" fill-rule="evenodd" clip-rule="evenodd" d="M573.473 390.479H600.384C602.035 390.479 603.358 391.465 603.339 392.682C603.319 393.899 601.941 394.885 600.26 394.885H572.873C571.192 394.885 569.976 393.899 570.157 392.682C570.337 391.465 571.822 390.479 573.473 390.479Z" fill="#A1B8E3"/>
</g>
</g>
<defs>
<filter id="filter0_i" x="210.906" y="79.3562" width="212.622" height="124.813" filterUnits="userSpaceOnUse" color-interpolation-filters="sRGB">
<feFlood flood-opacity="0" result="BackgroundImageFix"/>
<feBlend mode="normal" in="SourceGraphic" in2="BackgroundImageFix" result="shape"/>
<feColorMatrix in="SourceAlpha" type="matrix" values="0 0 0 0 0 0 0 0 0 0 0 0 0 0 0 0 0 0 127 0" result="hardAlpha"/>
<feOffset dy="-14"/>
<feGaussianBlur stdDeviation="12.5"/>
<feComposite in2="hardAlpha" operator="arithmetic" k2="-1" k3="1"/>
<feColorMatrix type="matrix" values="0 0 0 0 0.788056 0 0 0 0 0.827193 0 0 0 0 0.89764 0 0 0 0.337126 0"/>
<feBlend mode="normal" in2="shape" result="effect1_innerShadow"/>
</filter>
<filter id="filter1_i" x="483.72" y="30.9702" width="210.087" height="127.874" filterUnits="userSpaceOnUse" color-interpolation-filters="sRGB">
<feFlood flood-opacity="0" result="BackgroundImageFix"/>
<feBlend mode="normal" in="SourceGraphic" in2="BackgroundImageFix" result="shape"/>
<feColorMatrix in="SourceAlpha" type="matrix" values="0 0 0 0 0 0 0 0 0 0 0 0 0 0 0 0 0 0 127 0" result="hardAlpha"/>
<feOffset dy="-14"/>
<feGaussianBlur stdDeviation="12.5"/>
<feComposite in2="hardAlpha" operator="arithmetic" k2="-1" k3="1"/>
<feColorMatrix type="matrix" values="0 0 0 0 0.788056 0 0 0 0 0.827193 0 0 0 0 0.89764 0 0 0 0.337126 0"/>
<feBlend mode="normal" in2="shape" result="effect1_innerShadow"/>
</filter>
<filter id="filter2_i" x="66.519" y="192.008" width="95.0037" height="171.804" filterUnits="userSpaceOnUse" color-interpolation-filters="sRGB">
<feFlood flood-opacity="0" result="BackgroundImageFix"/>
<feBlend mode="normal" in="SourceGraphic" in2="BackgroundImageFix" result="shape"/>
<feColorMatrix in="SourceAlpha" type="matrix" values="0 0 0 0 0 0 0 0 0 0 0 0 0 0 0 0 0 0 127 0" result="hardAlpha"/>
<feOffset dx="-8" dy="-6"/>
<feGaussianBlur stdDeviation="15"/>
<feComposite in2="hardAlpha" operator="arithmetic" k2="-1" k3="1"/>
<feColorMatrix type="matrix" values="0 0 0 0 0.269084 0 0 0 0 0.79451 0 0 0 0 0.470313 0 0 0 0.5 0"/>
<feBlend mode="normal" in2="shape" result="effect1_innerShadow"/>
</filter>
<filter id="filter3_d" x="182.59" y="-104.237" width="517.312" height="600.957" filterUnits="userSpaceOnUse" color-interpolation-filters="sRGB">
<feFlood flood-opacity="0" result="BackgroundImageFix"/>
<feColorMatrix in="SourceAlpha" type="matrix" values="0 0 0 0 0 0 0 0 0 0 0 0 0 0 0 0 0 0 127 0"/>
<feOffset/>
<feGaussianBlur stdDeviation="81"/>
<feColorMatrix type="matrix" values="0 0 0 0 1 0 0 0 0 1 0 0 0 0 1 0 0 0 1 0"/>
<feBlend mode="normal" in2="BackgroundImageFix" result="effect1_dropShadow"/>
<feBlend mode="normal" in="SourceGraphic" in2="effect1_dropShadow" result="shape"/>
</filter>
<filter id="filter4_d" x="340.192" y="130.777" width="187.072" height="63.6867" filterUnits="userSpaceOnUse" color-interpolation-filters="sRGB">
<feFlood flood-opacity="0" result="BackgroundImageFix"/>
<feColorMatrix in="SourceAlpha" type="matrix" values="0 0 0 0 0 0 0 0 0 0 0 0 0 0 0 0 0 0 127 0"/>
<feOffset dx="10" dy="10"/>
<feColorMatrix type="matrix" values="0 0 0 0 1 0 0 0 0 0.706613 0 0 0 0 0.0893703 0 0 0 0.173347 0"/>
<feBlend mode="normal" in2="BackgroundImageFix" result="effect1_dropShadow"/>
<feBlend mode="normal" in="SourceGraphic" in2="effect1_dropShadow" result="shape"/>
</filter>
<filter id="filter5_d" x="494.21" y="378.644" width="226.755" height="85.9725" filterUnits="userSpaceOnUse" color-interpolation-filters="sRGB">
<feFlood flood-opacity="0" result="BackgroundImageFix"/>
<feColorMatrix in="SourceAlpha" type="matrix" values="0 0 0 0 0 0 0 0 0 0 0 0 0 0 0 0 0 0 127 0"/>
<feOffset dx="-6" dy="7"/>
<feGaussianBlur stdDeviation="8.5"/>
<feColorMatrix type="matrix" values="0 0 0 0 0.260846 0 0 0 0 0.436705 0 0 0 0 0.80195 0 0 0 0.186 0"/>
<feBlend mode="normal" in2="BackgroundImageFix" result="effect1_dropShadow"/>
<feBlend mode="normal" in="SourceGraphic" in2="effect1_dropShadow" result="shape"/>
</filter>
<filter id="filter6_d" x="504.777" y="361.17" width="226.832" height="89.3137" filterUnits="userSpaceOnUse" color-interpolation-filters="sRGB">
<feFlood flood-opacity="0" result="BackgroundImageFix"/>
<feColorMatrix in="SourceAlpha" type="matrix" values="0 0 0 0 0 0 0 0 0 0 0 0 0 0 0 0 0 0 127 0"/>
<feOffset dx="-6" dy="7"/>
<feGaussianBlur stdDeviation="8.5"/>
<feColorMatrix type="matrix" values="0 0 0 0 0.260846 0 0 0 0 0.436705 0 0 0 0 0.80195 0 0 0 0.186 0"/>
<feBlend mode="normal" in2="BackgroundImageFix" result="effect1_dropShadow"/>
<feBlend mode="normal" in="SourceGraphic" in2="effect1_dropShadow" result="shape"/>
</filter>
<linearGradient id="paint0_linear" x1="352.244" y1="189.567" x2="363.469" y2="114.073" gradientUnits="userSpaceOnUse">
<stop stop-color="#ECF1FF"/>
<stop offset="1" stop-color="white"/>
</linearGradient>
<linearGradient id="paint1_linear" x1="623.242" y1="141.96" x2="634.787" y2="66.0078" gradientUnits="userSpaceOnUse">
<stop stop-color="#ECF1FF"/>
<stop offset="1" stop-color="white"/>
</linearGradient>
<linearGradient id="paint2_linear" x1="673.303" y1="234.762" x2="673.303" y2="352.494" gradientUnits="userSpaceOnUse">
<stop stop-color="#CFDDF3"/>
<stop offset="1" stop-color="#A1B8E3"/>
</linearGradient>
<linearGradient id="paint3_linear" x1="673.572" y1="167.47" x2="650.681" y2="188.933" gradientUnits="userSpaceOnUse">
<stop stop-color="#CFDDF3"/>
<stop offset="1" stop-color="#A1B8E3"/>
</linearGradient>
<linearGradient id="paint4_linear" x1="790.021" y1="258.272" x2="781.817" y2="227.984" gradientUnits="userSpaceOnUse">
<stop stop-color="#CFDDF3"/>
<stop offset="1" stop-color="#A1B8E3"/>
</linearGradient>
<linearGradient id="paint5_linear" x1="778.371" y1="288.404" x2="771.763" y2="257.728" gradientUnits="userSpaceOnUse">
<stop stop-color="#CFDDF3"/>
<stop offset="1" stop-color="#A1B8E3"/>
</linearGradient>
<linearGradient id="paint6_linear" x1="769.42" y1="314.441" x2="762.813" y2="283.765" gradientUnits="userSpaceOnUse">
<stop stop-color="#CFDDF3"/>
<stop offset="1" stop-color="#A1B8E3"/>
</linearGradient>
<linearGradient id="paint7_linear" x1="770.5" y1="170.095" x2="740.984" y2="159.443" gradientUnits="userSpaceOnUse">
<stop stop-color="#CFDDF3"/>
<stop offset="1" stop-color="#A1B8E3"/>
</linearGradient>
<linearGradient id="paint8_linear" x1="647.692" y1="200.771" x2="629.317" y2="226.207" gradientUnits="userSpaceOnUse">
<stop stop-color="#CFDDF3"/>
<stop offset="1" stop-color="#A1B8E3"/>
</linearGradient>
<linearGradient id="paint9_linear" x1="631.031" y1="232.8" x2="615.415" y2="260.018" gradientUnits="userSpaceOnUse">
<stop stop-color="#CFDDF3"/>
<stop offset="1" stop-color="#A1B8E3"/>
</linearGradient>
<linearGradient id="paint10_linear" x1="2.83135" y1="211.736" x2="123.121" y2="269.803" gradientUnits="userSpaceOnUse">
<stop stop-color="#CFDDF3"/>
<stop offset="1" stop-color="#7FA1E0"/>
</linearGradient>
<linearGradient id="paint11_linear" x1="67.8705" y1="265.501" x2="67.8705" y2="305.991" gradientUnits="userSpaceOnUse">
<stop stop-color="#CFDDF3"/>
<stop offset="1" stop-color="#A1B8E3"/>
</linearGradient>
<linearGradient id="paint12_linear" x1="53.4025" y1="242.463" x2="53.4025" y2="266.7" gradientUnits="userSpaceOnUse">
<stop stop-color="#CFDDF3"/>
<stop offset="1" stop-color="#A1B8E3"/>
</linearGradient>
<linearGradient id="paint13_linear" x1="42.7641" y1="200.473" x2="42.7641" y2="404.382" gradientUnits="userSpaceOnUse">
<stop stop-color="#CFDDF3"/>
<stop offset="1" stop-color="#A1B8E3"/>
</linearGradient>
<linearGradient id="paint14_linear" x1="683.785" y1="269.763" x2="656.499" y2="353.741" gradientUnits="userSpaceOnUse">
<stop stop-color="#CFDDF3"/>
<stop offset="1" stop-color="#A1B8E3"/>
</linearGradient>
<linearGradient id="paint15_linear" x1="699.099" y1="221.651" x2="710.479" y2="242.36" gradientUnits="userSpaceOnUse">
<stop stop-color="#CFDDF3"/>
<stop offset="1" stop-color="#A1B8E3"/>
</linearGradient>
<linearGradient id="paint16_linear" x1="594.904" y1="259.468" x2="607.846" y2="239.698" gradientUnits="userSpaceOnUse">
<stop stop-color="#CFDDF3"/>
<stop offset="1" stop-color="#A1B8E3"/>
</linearGradient>
<linearGradient id="paint17_linear" x1="596.266" y1="283.674" x2="608.156" y2="263.254" gradientUnits="userSpaceOnUse">
<stop stop-color="#CFDDF3"/>
<stop offset="1" stop-color="#A1B8E3"/>
</linearGradient>
<linearGradient id="paint18_linear" x1="596.643" y1="304.329" x2="608.533" y2="283.909" gradientUnits="userSpaceOnUse">
<stop stop-color="#CFDDF3"/>
<stop offset="1" stop-color="#A1B8E3"/>
</linearGradient>
<linearGradient id="paint19_linear" x1="629.244" y1="201.07" x2="652.861" y2="200.332" gradientUnits="userSpaceOnUse">
<stop stop-color="#CFDDF3"/>
<stop offset="1" stop-color="#A1B8E3"/>
</linearGradient>
<linearGradient id="paint20_linear" x1="709.892" y1="251.412" x2="717.112" y2="273.911" gradientUnits="userSpaceOnUse">
<stop stop-color="#CFDDF3"/>
<stop offset="1" stop-color="#A1B8E3"/>
</linearGradient>
<linearGradient id="paint21_linear" x1="714.391" y1="278.128" x2="719.219" y2="301.259" gradientUnits="userSpaceOnUse">
<stop stop-color="#CFDDF3"/>
<stop offset="1" stop-color="#A1B8E3"/>
</linearGradient>
<linearGradient id="paint22_linear" x1="234.908" y1="333.207" x2="242.739" y2="357.482" gradientUnits="userSpaceOnUse">
<stop stop-color="#EDF3FD" stop-opacity="0.01"/>
<stop offset="1" stop-color="#D6E3FA"/>
</linearGradient>
<radialGradient id="paint23_radial" cx="0" cy="0" r="1" gradientUnits="userSpaceOnUse" gradientTransform="translate(141.237 215.969) rotate(150.84) scale(103.299 319.271)">
<stop stop-color="#64CF9B"/>
<stop offset="1" stop-color="#ADF9A9"/>
</radialGradient>
<linearGradient id="paint24_linear" x1="105.329" y1="219.084" x2="105.329" y2="389.503" gradientUnits="userSpaceOnUse">
<stop stop-color="#80D4AE"/>
<stop offset="1" stop-color="#4CB67D"/>
</linearGradient>
<linearGradient id="paint25_linear" x1="104.367" y1="274.928" x2="104.367" y2="292.74" gradientUnits="userSpaceOnUse">
<stop stop-color="#64DEA8"/>
<stop offset="1" stop-color="#4CB67D"/>
</linearGradient>
<linearGradient id="paint26_linear" x1="88.9617" y1="321.625" x2="88.9617" y2="343.769" gradientUnits="userSpaceOnUse">
<stop stop-color="#64DEA8"/>
<stop offset="1" stop-color="#4CB67D"/>
</linearGradient>
<linearGradient id="paint27_linear" x1="108.7" y1="307.182" x2="108.7" y2="320.661" gradientUnits="userSpaceOnUse">
<stop stop-color="#64DEA8"/>
<stop offset="1" stop-color="#4CB67D"/>
</linearGradient>
<linearGradient id="paint28_linear" x1="122.66" y1="222.935" x2="122.66" y2="248.45" gradientUnits="userSpaceOnUse">
<stop stop-color="#64DEA8"/>
<stop offset="1" stop-color="#4CB67D"/>
</linearGradient>
<linearGradient id="paint29_linear" x1="291.446" y1="391.997" x2="291.084" y2="443.242" gradientUnits="userSpaceOnUse">
<stop stop-color="#D0DCF1"/>
<stop offset="1" stop-color="white"/>
</linearGradient>
<linearGradient id="paint30_linear" x1="632.215" y1="-47.5023" x2="401.542" y2="8.43087" gradientUnits="userSpaceOnUse">
<stop stop-color="#47689B"/>
<stop offset="1" stop-color="#223762"/>
</linearGradient>
<linearGradient id="paint31_linear" x1="467.255" y1="-122.878" x2="174.386" y2="11.8256" gradientUnits="userSpaceOnUse">
<stop stop-color="#47689B"/>
<stop offset="1" stop-color="#223762"/>
</linearGradient>
<linearGradient id="paint32_linear" x1="403.418" y1="40.2053" x2="550.447" y2="40.2053" gradientUnits="userSpaceOnUse">
<stop stop-color="#365383"/>
<stop offset="1" stop-color="#1C2C4C"/>
</linearGradient>
<linearGradient id="paint33_linear" x1="447.56" y1="404.8" x2="476.032" y2="364.541" gradientUnits="userSpaceOnUse">
<stop stop-color="#365383"/>
<stop offset="1" stop-color="#1C2C4C"/>
</linearGradient>
<linearGradient id="paint34_linear" x1="577.714" y1="381.923" x2="572.361" y2="301.243" gradientUnits="userSpaceOnUse">
<stop stop-color="#EDF3FD"/>
<stop offset="1" stop-color="#D6E3FA"/>
</linearGradient>
<linearGradient id="paint35_linear" x1="577.714" y1="317.796" x2="572.361" y2="237.115" gradientUnits="userSpaceOnUse">
<stop stop-color="#EDF3FD"/>
<stop offset="1" stop-color="#D6E3FA"/>
</linearGradient>
<linearGradient id="paint36_linear" x1="577.714" y1="183.964" x2="572.361" y2="103.284" gradientUnits="userSpaceOnUse">
<stop stop-color="#EDF3FD"/>
<stop offset="1" stop-color="#D6E3FA"/>
</linearGradient>
<linearGradient id="paint37_linear" x1="609.298" y1="208.038" x2="598.071" y2="129.206" gradientUnits="userSpaceOnUse">
<stop stop-color="#FFE883"/>
<stop offset="1" stop-color="#FECC4C"/>
</linearGradient>
<linearGradient id="paint38_linear" x1="283.976" y1="461.279" x2="21.5445" y2="461.279" gradientUnits="userSpaceOnUse">
<stop stop-color="#D0DCF1"/>
<stop offset="1" stop-color="white" stop-opacity="0.01"/>
</linearGradient>
<linearGradient id="paint39_linear" x1="202.213" y1="465.699" x2="-56.0746" y2="465.699" gradientUnits="userSpaceOnUse">
<stop stop-color="#D0DCF1"/>
<stop offset="1" stop-color="white" stop-opacity="0.01"/>
</linearGradient>
<linearGradient id="paint40_linear" x1="190.421" y1="310.282" x2="201.448" y2="293.311" gradientUnits="userSpaceOnUse">
<stop stop-color="#70B8F9"/>
<stop offset="1" stop-color="#3D82F0"/>
</linearGradient>
<linearGradient id="paint41_linear" x1="193.666" y1="480.817" x2="207.176" y2="460.148" gradientUnits="userSpaceOnUse">
<stop stop-color="#47689B"/>
<stop offset="1" stop-color="#223762"/>
</linearGradient>
<linearGradient id="paint42_linear" x1="277.456" y1="489.534" x2="288.347" y2="467.372" gradientUnits="userSpaceOnUse">
<stop stop-color="#47689B"/>
<stop offset="1" stop-color="#223762"/>
</linearGradient>
<linearGradient id="paint43_linear" x1="241.427" y1="499.104" x2="306.149" y2="351.904" gradientUnits="userSpaceOnUse">
<stop stop-color="#CFDDF3"/>
<stop offset="1" stop-color="#A1B8E3"/>
</linearGradient>
<linearGradient id="paint44_linear" x1="271.978" y1="328.225" x2="271.277" y2="315.815" gradientUnits="userSpaceOnUse">
<stop stop-color="#CFDDF3" stop-opacity="0.477723"/>
<stop offset="1" stop-color="#A1B8E3"/>
</linearGradient>
<linearGradient id="paint45_linear" x1="237.579" y1="163.544" x2="214.02" y2="179.437" gradientUnits="userSpaceOnUse">
<stop stop-color="#70B8F9"/>
<stop offset="1" stop-color="#3D82F0"/>
</linearGradient>
<linearGradient id="paint46_linear" x1="195.602" y1="163.319" x2="216.705" y2="191.141" gradientUnits="userSpaceOnUse">
<stop stop-color="#164898"/>
<stop offset="1" stop-color="#223762"/>
</linearGradient>
<linearGradient id="paint47_linear" x1="174.822" y1="272.558" x2="196.003" y2="269.777" gradientUnits="userSpaceOnUse">
<stop stop-color="#EDF3FD"/>
<stop offset="1" stop-color="#D6E3FA"/>
</linearGradient>
<linearGradient id="paint48_linear" x1="253.798" y1="296.028" x2="267.871" y2="287.056" gradientUnits="userSpaceOnUse">
<stop stop-color="#CFDDF3"/>
<stop offset="1" stop-color="#A1B8E3"/>
</linearGradient>
<linearGradient id="paint49_linear" x1="281.896" y1="232.787" x2="281.702" y2="219.578" gradientUnits="userSpaceOnUse">
<stop stop-color="#CFDDF3"/>
<stop offset="1" stop-color="#A1B8E3"/>
</linearGradient>
<linearGradient id="paint50_linear" x1="357.254" y1="310.113" x2="326.207" y2="185.588" gradientUnits="userSpaceOnUse">
<stop stop-color="#70B8F9"/>
<stop offset="1" stop-color="#3D82F0"/>
</linearGradient>
<linearGradient id="paint51_linear" x1="224.376" y1="238.943" x2="238.365" y2="267.624" gradientUnits="userSpaceOnUse">
<stop stop-color="#D6E3FA"/>
<stop offset="1" stop-color="#E3EDFE"/>
</linearGradient>
</defs>
</svg>
