<svg width="526" height="376" viewBox="0 0 526 376" fill="none" xmlns="http://www.w3.org/2000/svg">
<mask id="mask0" mask-type="alpha" maskUnits="userSpaceOnUse" x="0" y="0" width="526" height="376">
<rect width="526" height="376" fill="#C4C4C4"/>
</mask>
<g mask="url(#mask0)">
<g opacity="0.5" filter="url(#filter0_i)">
<path fill-rule="evenodd" clip-rule="evenodd" d="M191.222 137.301C190.818 125.712 160.623 128.324 148.976 129.442C137.328 130.56 136.27 114.685 146.32 112.325C156.369 109.965 174.593 111.183 184.036 109.004C193.478 106.826 181.534 95.1437 194.4 93.7355C207.265 92.3275 233.868 93.6312 241.799 93.3451C254.256 92.8958 260.648 107.893 238.823 108.573C232.805 108.761 231.597 122.084 251.912 118.424C264.661 116.127 289.674 116.074 294.878 121.938C297.863 125.302 296.829 134.34 291.696 139.331C287.883 143.038 275.758 143.761 271.008 144.618C259.864 146.629 262.067 157.419 265.867 159.641C274.859 164.898 299.537 154.976 300.198 169.412C300.491 175.792 278.037 176.822 268.83 176.744C246.249 176.553 231.413 178.564 230.371 170.862C229.326 163.129 244.403 168.348 243.66 158.842C243.271 153.874 244.313 143.318 234.64 143.872C247.883 143.114 191.768 152.952 191.222 137.301Z" fill="url(#paint0_linear)"/>
</g>
<g opacity="0.5" filter="url(#filter1_i)">
<path fill-rule="evenodd" clip-rule="evenodd" d="M378.135 100.122C378.165 88.5267 347.894 90.0066 336.212 90.6876C324.531 91.3687 324.069 75.4646 334.2 73.4828C344.33 71.5008 362.496 73.4002 372.013 71.5769C381.531 69.7537 370.032 57.6322 382.942 56.7068C395.851 55.7815 422.386 58.0803 430.322 58.0914C442.788 58.1088 448.613 73.3345 426.778 73.1973C420.757 73.1595 419.052 86.4278 439.49 83.5314C452.316 81.7138 477.313 82.5973 482.293 88.6514C485.151 92.125 483.778 101.118 478.463 105.913C474.514 109.475 462.37 109.744 457.591 110.422C446.38 112.014 448.177 122.879 451.891 125.242C460.68 130.832 485.712 121.841 485.833 136.292C485.886 142.678 463.409 142.866 454.211 142.444C431.654 141.407 416.752 142.862 416 135.126C415.245 127.359 430.116 133.139 429.73 123.612C429.527 118.633 430.963 108.123 421.276 108.315C434.538 108.053 378.095 115.784 378.135 100.122Z" fill="url(#paint1_linear)"/>
</g>
<path fill-rule="evenodd" clip-rule="evenodd" d="M487.809 199.206C488.233 199.488 488.347 200.061 488.065 200.485C479.459 213.401 471.938 231.715 466.567 248.754C461.189 265.815 458.013 281.444 458.013 288.983C458.013 289.493 457.6 289.906 457.09 289.906C456.581 289.906 456.168 289.493 456.168 288.983C456.168 281.144 459.42 265.288 464.807 248.199C470.201 231.089 477.784 212.587 486.529 199.462C486.812 199.038 487.384 198.923 487.809 199.206Z" fill="url(#paint2_linear)"/>
<path fill-rule="evenodd" clip-rule="evenodd" d="M479.263 207.214C479.263 207.214 479.992 199.558 476.128 192.865C472.263 186.171 467.402 181.744 465.268 182.975C463.135 184.207 464.539 190.631 468.403 197.324C472.268 204.018 479.263 207.214 479.263 207.214Z" fill="url(#paint3_linear)"/>
<path fill-rule="evenodd" clip-rule="evenodd" d="M483.706 209.862C483.706 209.862 490.124 214.101 497.848 213.831C505.572 213.561 511.764 211.347 511.678 208.886C511.592 206.424 505.261 204.647 497.536 204.917C489.812 205.187 483.706 209.862 483.706 209.862Z" fill="url(#paint4_linear)"/>
<path fill-rule="evenodd" clip-rule="evenodd" d="M475.396 229.43C475.396 229.43 481.582 233.998 489.31 234.133C497.038 234.268 503.337 232.381 503.38 229.918C503.423 227.455 497.193 225.35 489.466 225.215C481.738 225.08 475.396 229.43 475.396 229.43Z" fill="url(#paint5_linear)"/>
<path fill-rule="evenodd" clip-rule="evenodd" d="M468.629 249.114C468.629 249.114 474.815 253.682 482.543 253.817C490.271 253.952 496.57 252.065 496.613 249.603C496.656 247.14 490.426 245.034 482.699 244.899C474.971 244.764 468.629 249.114 468.629 249.114Z" fill="url(#paint6_linear)"/>
<path fill-rule="evenodd" clip-rule="evenodd" d="M488.767 197.043C488.767 197.043 495.92 194.217 500.129 187.735C504.339 181.253 506.076 174.911 504.011 173.57C501.945 172.228 496.858 176.395 492.649 182.877C488.439 189.359 488.767 197.043 488.767 197.043Z" fill="url(#paint7_linear)"/>
<path fill-rule="evenodd" clip-rule="evenodd" d="M470.382 227.131C470.382 227.131 469.637 219.477 464.567 213.644C459.496 207.811 453.879 204.392 452.02 206.008C450.161 207.624 452.765 213.662 457.835 219.495C462.906 225.328 470.382 227.131 470.382 227.131Z" fill="url(#paint8_linear)"/>
<path fill-rule="evenodd" clip-rule="evenodd" d="M463.131 247.644C463.131 247.644 461.591 240.109 455.938 234.838C450.286 229.567 444.342 226.754 442.662 228.556C440.982 230.357 444.203 236.09 449.855 241.361C455.508 246.632 463.131 247.644 463.131 247.644Z" fill="url(#paint9_linear)"/>
<g opacity="0.3">
<path fill-rule="evenodd" clip-rule="evenodd" d="M50.5346 306.696C46.2497 310.487 29.9543 302.906 23.4936 291.139C17.0328 279.372 29.0175 275.183 12.7162 256.363C-3.58513 237.543 -14.045 230.335 -4.15236 199.314C5.74029 168.292 -7.92631 151.052 10.1315 142.958C28.1893 134.865 38.5887 161.726 36.5174 185.353C34.4461 208.98 38.6826 213.876 56.3455 211.428C74.0084 208.98 59.1169 243.666 59.1169 251.238C59.1169 258.809 69.8271 272.872 67.6052 283.452C65.3834 294.033 54.8194 302.906 50.5346 306.696Z" fill="url(#paint10_linear)"/>
<path fill-rule="evenodd" clip-rule="evenodd" d="M49.6737 237.521C50.3621 237.521 50.9202 238.08 50.9202 238.768C50.9202 245.266 49.3128 252.851 47.3299 259.417C45.3507 265.971 42.9497 271.665 41.2787 274.368C40.9167 274.953 40.1486 275.134 39.5631 274.772C38.9776 274.411 38.7964 273.642 39.1583 273.057C40.6621 270.624 42.9887 265.17 44.9435 258.697C46.8944 252.237 48.4273 244.917 48.4273 238.768C48.4273 238.08 48.9853 237.521 49.6737 237.521Z" fill="url(#paint11_linear)"/>
<path fill-rule="evenodd" clip-rule="evenodd" d="M2.69796 217.877C2.14046 218.281 2.01587 219.06 2.41968 219.617C6.58135 225.363 12.8778 229.258 17.9225 232.362L18.0556 232.444C20.5672 233.99 22.7184 235.314 24.2623 236.594C25.878 237.934 26.4857 238.954 26.4857 239.804C26.4857 240.492 27.0437 241.05 27.7321 241.05C28.4205 241.05 28.9785 240.492 28.9785 239.804C28.9785 237.749 27.5466 236.079 25.8536 234.675C24.1717 233.28 21.89 231.877 19.4707 230.388C19.3903 230.339 19.3097 230.289 19.229 230.239C14.119 227.095 8.26388 223.436 4.43857 218.155C4.03476 217.598 3.25546 217.473 2.69796 217.877Z" fill="url(#paint12_linear)"/>
<path fill-rule="evenodd" clip-rule="evenodd" d="M18.5506 181.399C19.239 181.399 19.797 181.957 19.797 182.646C19.797 199.701 24.8058 220.952 31.4906 242.918C35.8563 257.263 40.9089 271.829 45.7117 285.675C48.2629 293.03 50.7437 300.181 53.0135 306.989C59.9248 327.716 63.0625 345.959 64.5323 354.505C64.823 356.195 65.0484 357.506 65.2249 358.382C65.3609 359.056 64.9241 359.714 64.2493 359.85C63.5745 359.986 62.9172 359.549 62.7812 358.874C62.5967 357.959 62.3642 356.609 62.0664 354.879C60.5849 346.275 57.4874 328.287 50.6487 307.777C48.3984 301.029 45.9277 293.905 43.3813 286.564C38.5678 272.686 33.4837 258.029 29.1058 243.644C22.4122 221.649 17.3042 200.096 17.3042 182.646C17.3042 181.957 17.8622 181.399 18.5506 181.399Z" fill="url(#paint13_linear)"/>
</g>
<path opacity="0.084933" fill-rule="evenodd" clip-rule="evenodd" d="M443.721 291.47C458.754 291.47 470.941 290.782 470.941 289.932C470.941 289.083 458.754 288.395 443.721 288.395C428.688 288.395 416.502 289.083 416.502 289.932C416.502 290.782 428.688 291.47 443.721 291.47Z" fill="#8699BF"/>
<g opacity="0.3">
<path fill-rule="evenodd" clip-rule="evenodd" d="M443.189 218.741C442.821 218.845 442.607 219.228 442.711 219.595C445.882 230.811 447.025 245.624 446.924 259.029C446.822 272.45 445.475 284.336 443.727 289.714C443.609 290.077 443.808 290.468 444.172 290.586C444.535 290.704 444.926 290.505 445.044 290.141C446.861 284.55 448.206 272.482 448.308 259.039C448.409 245.579 447.266 230.616 444.043 219.219C443.939 218.851 443.556 218.637 443.189 218.741Z" fill="url(#paint14_linear)"/>
<path fill-rule="evenodd" clip-rule="evenodd" d="M447.475 226.448C447.475 226.448 448.72 220.808 453.027 216.929C457.335 213.05 461.833 211.024 463.075 212.402C464.316 213.781 461.83 218.043 457.522 221.921C453.215 225.8 447.475 226.448 447.475 226.448Z" fill="url(#paint15_linear)"/>
<path fill-rule="evenodd" clip-rule="evenodd" d="M443.615 227.281C443.615 227.281 438.05 228.83 432.603 226.848C427.156 224.865 423.255 221.845 423.889 220.102C424.524 218.358 429.454 218.552 434.901 220.535C440.348 222.518 443.615 227.281 443.615 227.281Z" fill="url(#paint16_linear)"/>
<path fill-rule="evenodd" clip-rule="evenodd" d="M445.033 243.173C445.033 243.173 439.557 245.011 434.014 243.316C428.47 241.622 424.416 238.81 424.959 237.035C425.501 235.261 430.434 235.197 435.978 236.892C441.521 238.587 445.033 243.173 445.033 243.173Z" fill="url(#paint17_linear)"/>
<path fill-rule="evenodd" clip-rule="evenodd" d="M445.318 258.789C445.318 258.789 439.842 260.627 434.299 258.933C428.756 257.238 424.702 254.426 425.244 252.652C425.786 250.878 430.72 250.813 436.263 252.508C441.806 254.203 445.318 258.789 445.318 258.789Z" fill="url(#paint18_linear)"/>
<path fill-rule="evenodd" clip-rule="evenodd" d="M442.98 216.966C442.98 216.966 438.519 213.296 437.019 207.697C435.519 202.098 435.755 197.17 437.547 196.69C439.339 196.21 442.008 200.359 443.508 205.958C445.009 211.557 442.98 216.966 442.98 216.966Z" fill="url(#paint19_linear)"/>
<path fill-rule="evenodd" clip-rule="evenodd" d="M449.227 242.723C449.227 242.723 451.525 237.424 456.494 234.438C461.463 231.453 466.265 230.322 467.22 231.912C468.176 233.502 464.923 237.211 459.954 240.197C454.985 243.182 449.227 242.723 449.227 242.723Z" fill="url(#paint20_linear)"/>
<path fill-rule="evenodd" clip-rule="evenodd" d="M449.67 259.044C449.67 259.044 452.51 254.014 457.763 251.564C463.017 249.114 467.911 248.491 468.695 250.172C469.479 251.854 465.856 255.203 460.602 257.652C455.349 260.102 449.67 259.044 449.67 259.044Z" fill="url(#paint21_linear)"/>
</g>
<path fill-rule="evenodd" clip-rule="evenodd" d="M181.295 288.328C180.272 287.698 156.099 277.143 158.331 274.885C160.563 272.627 171.451 272.627 171.451 272.627C171.451 272.627 182.317 288.959 181.295 288.328Z" fill="url(#paint22_linear)" style="mix-blend-mode:multiply"/>
<g filter="url(#filter2_i)">
<path fill-rule="evenodd" clip-rule="evenodd" d="M83.5874 321.636C71.9848 318.594 37.758 303.888 47.7666 286.676C57.7751 269.465 67.7837 264.509 57.7751 256.643C47.7666 248.777 54.8774 231.283 64.7718 224.083C74.6663 216.882 51.2352 195.432 61.9688 184.083C72.7023 172.734 107.014 190.265 107.808 211.725C108.603 233.185 116.585 231.699 120.642 241.388C124.699 251.078 96.5953 265.621 100.702 276.149C104.809 286.676 128.764 297.656 114.733 311.838C100.702 326.02 95.19 324.677 83.5874 321.636Z" fill="url(#paint23_radial)"/>
</g>
<path fill-rule="evenodd" clip-rule="evenodd" d="M86.6733 344.126C88.0269 319.858 63.0086 309.739 80.8035 275.577C98.5985 241.415 86.2336 211.918 80.8035 200.686" fill="black" fill-opacity="0.01"/>
<path fill-rule="evenodd" clip-rule="evenodd" d="M80.2604 199.563C80.8802 199.263 81.6255 199.523 81.9251 200.143C87.4051 211.479 99.9839 241.452 81.9083 276.153C77.5281 284.562 75.8206 291.416 75.649 297.323C75.4775 303.229 76.8379 308.281 78.7325 313.106C79.654 315.453 80.696 317.733 81.7523 320.043L81.8519 320.261C82.9372 322.636 84.0334 325.045 84.9879 327.534C86.9033 332.529 88.2686 337.894 87.9172 344.195C87.8788 344.882 87.2906 345.408 86.6033 345.37C85.916 345.331 85.3899 344.743 85.4282 344.056C85.7536 338.222 84.4991 333.222 82.6604 328.427C81.7378 326.021 80.6733 323.679 79.5846 321.297L79.4747 321.057C78.4261 318.763 77.359 316.429 76.4121 314.017C74.4456 309.009 72.9726 303.609 73.1572 297.251C73.3419 290.894 75.1802 283.673 79.6974 275.001C97.2117 241.378 85.0608 212.357 79.6807 201.228C79.3811 200.608 79.6406 199.863 80.2604 199.563Z" fill="url(#paint24_linear)"/>
<path opacity="0.3" fill-rule="evenodd" clip-rule="evenodd" d="M85.0108 260.614C81.9093 259.138 76.2015 254.981 73.3774 248.565Z" fill="black" fill-opacity="0.01"/>
<path opacity="0.3" fill-rule="evenodd" clip-rule="evenodd" d="M72.9594 247.616C73.4844 247.385 74.0974 247.623 74.3285 248.148C77.0251 254.274 82.5119 258.276 85.4574 259.677C85.9754 259.924 86.1955 260.543 85.949 261.061C85.7026 261.579 85.0828 261.799 84.5648 261.553C81.3074 260.003 75.3786 255.69 72.4271 248.985C72.196 248.46 72.4343 247.847 72.9594 247.616Z" fill="url(#paint25_linear)"/>
<path opacity="0.3" fill-rule="evenodd" clip-rule="evenodd" d="M75.4549 304.655C70.6361 302.66 60.7809 297.183 60.0823 288.867Z" fill="black" fill-opacity="0.01"/>
<path opacity="0.3" fill-rule="evenodd" clip-rule="evenodd" d="M59.996 287.832C60.5676 287.784 61.07 288.208 61.118 288.78C61.4339 292.541 63.8336 295.758 66.8936 298.337C69.9398 300.905 73.5055 302.723 75.8529 303.695C76.3829 303.915 76.6347 304.522 76.4152 305.052C76.1958 305.582 75.5883 305.834 75.0582 305.615C72.5868 304.591 68.8155 302.674 65.5548 299.926C62.3078 297.189 59.4306 293.509 59.0479 288.954C58.9999 288.382 59.4243 287.88 59.996 287.832Z" fill="url(#paint26_linear)"/>
<path opacity="0.3" fill-rule="evenodd" clip-rule="evenodd" d="M77.1169 284.297C81.4541 285.518 87.8864 284.407 93.3205 276.403Z" fill="black" fill-opacity="0.01"/>
<path opacity="0.3" fill-rule="evenodd" clip-rule="evenodd" d="M93.9043 275.544C94.3789 275.866 94.5024 276.512 94.1802 276.986C88.5231 285.319 81.6494 286.652 76.8359 285.297C76.2837 285.141 75.9621 284.568 76.1175 284.016C76.2729 283.463 76.8465 283.142 77.3987 283.297C81.2595 284.384 87.2505 283.495 92.4615 275.82C92.7837 275.345 93.4297 275.221 93.9043 275.544Z" fill="url(#paint27_linear)"/>
<path opacity="0.3" fill-rule="evenodd" clip-rule="evenodd" d="M89.1655 222.391C91.9913 220.162 97.4863 211.363 97.0595 203.694Z" fill="black" fill-opacity="0.01"/>
<path opacity="0.3" fill-rule="evenodd" clip-rule="evenodd" d="M97.0022 202.658C97.575 202.626 98.0651 203.064 98.097 203.637C98.3241 207.717 96.9808 212.017 95.2665 215.538C93.562 219.038 91.398 221.954 89.8091 223.207C89.3586 223.562 88.7055 223.485 88.3503 223.034C87.9951 222.584 88.0723 221.931 88.5228 221.576C89.7597 220.6 91.7561 218.002 93.3988 214.628C95.0317 211.275 96.2226 207.342 96.0229 203.753C95.991 203.18 96.4295 202.69 97.0022 202.658Z" fill="url(#paint28_linear)"/>
<path opacity="0.5" fill-rule="evenodd" clip-rule="evenodd" d="M131.963 357.711L239.979 315.828H389.77L309.628 369.506" fill="url(#paint29_linear)"/>
<path fill-rule="evenodd" clip-rule="evenodd" d="M331.089 302.851C365.741 302.851 393.833 300.648 393.833 297.93C393.833 295.212 365.741 293.009 331.089 293.009C296.437 293.009 268.346 295.212 268.346 297.93C268.346 300.648 296.437 302.851 331.089 302.851Z" fill="#8699BF"/>
<path d="M246.845 48.5926C246.845 35.0105 257.855 24 271.438 24H381.402C394.984 24 405.994 35.0105 405.994 48.5926V293.114C405.994 306.696 394.984 317.706 381.402 317.706H271.438C257.855 317.706 246.845 306.696 246.845 293.114V48.5926Z" fill="url(#paint30_linear)"/>
<path d="M233.846 48.5936C233.846 35.0115 244.857 24.001 258.439 24.001H368.403C381.985 24.001 392.996 35.0115 392.996 48.5936V293.115C392.996 306.697 381.985 317.707 368.403 317.707H258.439C244.857 317.707 233.846 306.697 233.846 293.115V48.5936Z" fill="url(#paint31_linear)"/>
<path d="M271.789 45.6066C271.789 44.1514 272.969 42.9717 274.424 42.9717H352.769C354.224 42.9717 355.404 44.1514 355.404 45.6066V45.6066C355.404 47.0618 354.224 48.2415 352.769 48.2415H274.424C272.969 48.2415 271.789 47.0618 271.789 45.6066V45.6066Z" fill="url(#paint32_linear)"/>
<path fill-rule="evenodd" clip-rule="evenodd" d="M313.245 311.382C321.394 311.382 328.001 304.776 328.001 296.627C328.001 288.477 321.394 281.871 313.245 281.871C305.096 281.871 298.49 288.477 298.49 296.627C298.49 304.776 305.096 311.382 313.245 311.382Z" fill="url(#paint33_linear)"/>
<g filter="url(#filter3_d)">
<path d="M240.521 70.3741C240.521 68.0457 242.409 66.1582 244.737 66.1582H382.456C384.784 66.1582 386.672 68.0457 386.672 70.3741V271.331C386.672 273.659 384.784 275.547 382.456 275.547H244.737C242.409 275.547 240.521 273.659 240.521 271.331V70.3741Z" fill="white"/>
</g>
<mask id="mask1" mask-type="alpha" maskUnits="userSpaceOnUse" x="240" y="66" width="147" height="210">
<path d="M240.521 70.3741C240.521 68.0457 242.409 66.1582 244.737 66.1582H382.456C384.784 66.1582 386.672 68.0457 386.672 70.3741V271.331C386.672 273.659 384.784 275.547 382.456 275.547H244.737C242.409 275.547 240.521 273.659 240.521 271.331V70.3741Z" fill="white"/>
</mask>
<g mask="url(#mask1)">
<g opacity="0.6">
<path d="M247.547 233.739C247.547 229.859 250.693 226.713 254.574 226.713H372.618C376.499 226.713 379.645 229.859 379.645 233.739V259.737C379.645 263.618 376.499 266.764 372.618 266.764H254.574C250.693 266.764 247.547 263.618 247.547 259.737V233.739Z" fill="url(#paint34_linear)"/>
<path fill-rule="evenodd" clip-rule="evenodd" d="M267.573 261.494C275.722 261.494 282.328 254.887 282.328 246.738C282.328 238.589 275.722 231.982 267.573 231.982C259.423 231.982 252.817 238.589 252.817 246.738C252.817 254.887 259.423 261.494 267.573 261.494Z" fill="#A1B8E3"/>
<path d="M287.598 236.726C287.598 235.076 288.935 233.739 290.584 233.739H366.47C368.119 233.739 369.456 235.076 369.456 236.726V236.726C369.456 238.375 368.119 239.712 366.47 239.712H290.584C288.935 239.712 287.598 238.375 287.598 236.726V236.726Z" fill="#A1B8E3"/>
<path d="M287.598 246.562C287.598 244.913 288.935 243.576 290.584 243.576H347.147C348.797 243.576 350.134 244.913 350.134 246.562V246.562C350.134 248.212 348.797 249.549 347.147 249.549H290.584C288.935 249.549 287.598 248.212 287.598 246.562V246.562Z" fill="#A1B8E3"/>
<path opacity="0.5" d="M287.598 257.629C287.598 256.465 288.542 255.521 289.706 255.521H308.678C309.842 255.521 310.785 256.465 310.785 257.629V257.629C310.785 258.794 309.842 259.737 308.678 259.737H289.706C288.542 259.737 287.598 258.794 287.598 257.629V257.629Z" fill="#A1B8E3"/>
</g>
<g opacity="0.6">
<path d="M247.547 185.257C247.547 181.376 250.693 178.23 254.574 178.23H372.618C376.499 178.23 379.645 181.376 379.645 185.257V211.255C379.645 215.135 376.499 218.281 372.618 218.281H254.574C250.693 218.281 247.547 215.135 247.547 211.255V185.257Z" fill="url(#paint35_linear)"/>
<path fill-rule="evenodd" clip-rule="evenodd" d="M267.573 213.011C275.722 213.011 282.328 206.405 282.328 198.256C282.328 190.106 275.722 183.5 267.573 183.5C259.423 183.5 252.817 190.106 252.817 198.256C252.817 206.405 259.423 213.011 267.573 213.011Z" fill="#A1B8E3"/>
<path d="M287.598 188.243C287.598 186.594 288.935 185.257 290.584 185.257H366.47C368.119 185.257 369.456 186.594 369.456 188.243V188.243C369.456 189.892 368.119 191.229 366.47 191.229H290.584C288.935 191.229 287.598 189.892 287.598 188.243V188.243Z" fill="#A1B8E3"/>
<path d="M287.598 198.08C287.598 196.431 288.935 195.094 290.584 195.094H347.147C348.797 195.094 350.134 196.431 350.134 198.08V198.08C350.134 199.729 348.797 201.066 347.147 201.066H290.584C288.935 201.066 287.598 199.729 287.598 198.08V198.08Z" fill="#A1B8E3"/>
<path opacity="0.5" d="M287.598 209.146C287.598 207.982 288.542 207.038 289.706 207.038H308.678C309.842 207.038 310.785 207.982 310.785 209.146V209.146C310.785 210.31 309.842 211.254 308.678 211.254H289.706C288.542 211.254 287.598 210.31 287.598 209.146V209.146Z" fill="#A1B8E3"/>
</g>
<g opacity="0.6">
<path d="M247.547 84.0763C247.547 80.1957 250.693 77.0498 254.574 77.0498H372.618C376.499 77.0498 379.645 80.1957 379.645 84.0763V110.074C379.645 113.955 376.499 117.101 372.618 117.101H254.574C250.693 117.101 247.547 113.955 247.547 110.074V84.0763Z" fill="url(#paint36_linear)"/>
<path fill-rule="evenodd" clip-rule="evenodd" d="M267.573 111.83C275.722 111.83 282.328 105.224 282.328 97.0749C282.328 88.9256 275.722 82.3193 267.573 82.3193C259.423 82.3193 252.817 88.9256 252.817 97.0749C252.817 105.224 259.423 111.83 267.573 111.83Z" fill="#A1B8E3"/>
<path d="M287.598 87.0624C287.598 85.4132 288.935 84.0762 290.584 84.0762H366.47C368.119 84.0762 369.456 85.4132 369.456 87.0624V87.0624C369.456 88.7117 368.119 90.0487 366.47 90.0487H290.584C288.935 90.0487 287.598 88.7117 287.598 87.0624V87.0624Z" fill="#A1B8E3"/>
<path d="M287.598 96.8984C287.598 95.2491 288.935 93.9121 290.584 93.9121H347.147C348.797 93.9121 350.134 95.2491 350.134 96.8984V96.8984C350.134 98.5476 348.797 99.8846 347.147 99.8846H290.584C288.935 99.8846 287.598 98.5476 287.598 96.8984V96.8984Z" fill="#A1B8E3"/>
<path opacity="0.5" d="M287.598 107.965C287.598 106.801 288.542 105.857 289.706 105.857H308.678C309.842 105.857 310.785 106.801 310.785 107.965V107.965C310.785 109.13 309.842 110.073 308.678 110.073H289.706C288.542 110.073 287.598 109.13 287.598 107.965V107.965Z" fill="#A1B8E3"/>
</g>
</g>
<g filter="url(#filter4_d)">
<path d="M237.196 128.48C237.196 124.547 240.384 121.359 244.317 121.359H363.947C367.88 121.359 371.068 124.547 371.068 128.48V154.827C371.068 158.76 367.88 161.948 363.947 161.948H244.317C240.384 161.948 237.196 158.76 237.196 154.827V128.48Z" fill="url(#paint37_linear)"/>
<path fill-rule="evenodd" clip-rule="evenodd" d="M257.491 156.608C265.749 156.608 272.444 149.913 272.444 141.654C272.444 133.395 265.749 126.7 257.491 126.7C249.232 126.7 242.537 133.395 242.537 141.654C242.537 149.913 249.232 156.608 257.491 156.608Z" fill="#FFB417"/>
<path d="M277.785 131.507C277.785 129.835 279.14 128.48 280.811 128.48H357.716C359.388 128.48 360.743 129.835 360.743 131.507V131.507C360.743 133.178 359.388 134.533 357.716 134.533H280.811C279.14 134.533 277.785 133.178 277.785 131.507V131.507Z" fill="#FFB417"/>
<path d="M277.785 141.476C277.785 139.804 279.14 138.449 280.811 138.449H338.134C339.806 138.449 341.16 139.804 341.16 141.476V141.476C341.16 143.147 339.806 144.502 338.134 144.502H280.811C279.14 144.502 277.785 143.147 277.785 141.476V141.476Z" fill="#FFB417"/>
<path opacity="0.5" d="M277.785 152.69C277.785 151.51 278.741 150.554 279.921 150.554H299.147C300.327 150.554 301.284 151.51 301.284 152.69V152.69C301.284 153.87 300.327 154.826 299.147 154.826H279.921C278.741 154.826 277.785 153.87 277.785 152.69V152.69Z" fill="#FFB417"/>
</g>
<path opacity="0.5" fill-rule="evenodd" clip-rule="evenodd" d="M56.7266 378.827L200.373 369.755V369.755C197.045 372.671 192.895 374.522 188.474 375.062L83.3806 387.9" fill="url(#paint38_linear)"/>
<path opacity="0.5" fill-rule="evenodd" clip-rule="evenodd" d="M-3 367.487H138.378V367.487C135.956 369.805 132.797 371.151 129.481 371.278L31.3399 375.048" fill="url(#paint39_linear)"/>
<path fill-rule="evenodd" clip-rule="evenodd" d="M113.541 208.206C113.541 214.763 108.14 227.613 115.182 230.944C122.225 234.275 128.453 216.973 128.453 216.973C128.453 216.973 127.917 204.267 121.549 204.267C115.182 204.267 113.541 201.649 113.541 208.206Z" fill="url(#paint40_linear)"/>
<mask id="mask2" mask-type="alpha" maskUnits="userSpaceOnUse" x="111" y="203" width="18" height="29">
<path fill-rule="evenodd" clip-rule="evenodd" d="M113.541 208.206C113.541 214.763 108.14 227.613 115.182 230.944C122.225 234.275 128.453 216.973 128.453 216.973C128.453 216.973 127.917 204.267 121.549 204.267C115.182 204.267 113.541 201.649 113.541 208.206Z" fill="white"/>
</mask>
<g mask="url(#mask2)">
<g opacity="0.5">
<path fill-rule="evenodd" clip-rule="evenodd" d="M113.135 211.142C113.703 212.296 121.442 218.402 122.722 219.845C124.002 221.289 124.294 225.062 125.029 224.673C125.764 224.283 125.029 213.214 125.029 213.214C125.029 213.214 112.567 209.988 113.135 211.142Z" fill="#3D82F0" style="mix-blend-mode:multiply"/>
</g>
</g>
<path fill-rule="evenodd" clip-rule="evenodd" d="M126.137 356.878C126.019 360.265 124.996 364.466 125.812 366.178C126.628 367.891 130.934 368.926 132.364 368.976C133.795 369.026 134.358 366.63 136.536 367.949C138.714 369.268 151.379 369.64 152.378 364.633C153.376 359.626 146.957 359.401 144.102 359.302C141.247 359.202 138.272 357.706 134.158 353.947C130.045 350.189 126.255 353.492 126.137 356.878Z" fill="url(#paint41_linear)"/>
<path fill-rule="evenodd" clip-rule="evenodd" d="M139.893 358.032C139.868 358.233 140.011 358.416 140.212 358.441C140.209 358.441 140.209 358.441 140.213 358.442C140.223 358.446 140.26 358.46 140.327 358.5C140.41 358.549 140.513 358.624 140.628 358.724C140.859 358.922 141.119 359.201 141.343 359.528C141.801 360.197 142.041 360.963 141.743 361.632C141.66 361.817 141.743 362.034 141.928 362.117C142.113 362.199 142.33 362.116 142.413 361.931C142.868 360.912 142.459 359.858 141.948 359.113C141.687 358.732 141.384 358.406 141.107 358.167C140.968 358.048 140.831 357.947 140.705 357.871C140.589 357.801 140.445 357.73 140.302 357.713C140.101 357.688 139.918 357.831 139.893 358.032Z" fill="white"/>
<path fill-rule="evenodd" clip-rule="evenodd" d="M143.412 358.901C143.387 359.102 143.53 359.285 143.731 359.31C143.93 359.334 144.346 359.488 144.681 359.858C145.001 360.213 145.265 360.786 145.154 361.694C145.129 361.895 145.272 362.078 145.473 362.102C145.674 362.127 145.857 361.984 145.882 361.783C146.018 360.674 145.695 359.886 145.225 359.366C144.769 358.861 144.19 358.627 143.821 358.581C143.62 358.557 143.437 358.7 143.412 358.901Z" fill="white"/>
<path fill-rule="evenodd" clip-rule="evenodd" d="M189.892 364.037C190.187 367.413 189.684 371.707 190.703 373.307C191.722 374.908 196.121 375.411 197.547 375.286C198.973 375.161 199.24 372.715 201.563 373.758C203.885 374.802 216.501 373.628 216.882 368.536C217.263 363.444 210.864 364.004 208.018 364.253C205.172 364.502 202.037 363.38 197.496 360.151C192.955 356.922 189.597 360.662 189.892 364.037Z" fill="url(#paint42_linear)"/>
<path fill-rule="evenodd" clip-rule="evenodd" d="M203.685 363.505C203.685 363.708 203.849 363.872 204.052 363.872C204.048 363.872 204.048 363.872 204.052 363.873C204.063 363.876 204.101 363.885 204.172 363.916C204.261 363.956 204.372 364.017 204.499 364.102C204.752 364.271 205.044 364.516 205.306 364.813C205.842 365.421 206.174 366.153 205.96 366.853C205.9 367.047 206.009 367.252 206.203 367.311C206.396 367.371 206.602 367.262 206.661 367.068C206.989 366.001 206.454 365.005 205.856 364.327C205.551 363.981 205.21 363.694 204.906 363.491C204.754 363.39 204.606 363.306 204.471 363.246C204.347 363.191 204.196 363.138 204.052 363.138C203.849 363.138 203.685 363.303 203.685 363.505Z" fill="white"/>
<path fill-rule="evenodd" clip-rule="evenodd" d="M207.283 363.938C207.283 364.141 207.447 364.305 207.65 364.305C207.85 364.305 208.282 364.407 208.659 364.733C209.02 365.046 209.352 365.583 209.352 366.498C209.352 366.7 209.516 366.865 209.719 366.865C209.922 366.865 210.086 366.7 210.086 366.498C210.086 365.381 209.67 364.638 209.14 364.179C208.625 363.733 208.022 363.571 207.65 363.571C207.447 363.571 207.283 363.735 207.283 363.938Z" fill="white"/>
<path fill-rule="evenodd" clip-rule="evenodd" d="M178.073 242.716C178.073 242.716 191.906 293.398 193.707 304.93C195.508 316.462 199.915 355.443 199.293 361.73C196.283 364.8 190.86 362.962 189.915 362.399C188.97 361.836 183.15 329.764 178.073 317.322C172.996 304.88 161.57 293.43 154.042 280.912C154.042 289.059 148.228 310.863 148.228 310.863C148.228 310.863 139.751 349.367 136.866 355.599C135.497 357.81 128.587 356.189 125.907 355.599C125.907 349.759 131.686 320.255 131.686 310.013C131.686 299.771 130.088 281.209 129.491 273.599C128.893 265.99 127.435 251.227 129.491 242.716C134.702 242.716 178.073 242.716 178.073 242.716Z" fill="url(#paint43_linear)"/>
<mask id="mask3" mask-type="alpha" maskUnits="userSpaceOnUse" x="125" y="242" width="75" height="122">
<path fill-rule="evenodd" clip-rule="evenodd" d="M178.073 242.716C178.073 242.716 191.906 293.398 193.707 304.93C195.508 316.462 199.915 355.443 199.293 361.73C196.283 364.8 190.86 362.962 189.915 362.399C188.97 361.836 183.15 329.764 178.073 317.322C172.996 304.88 161.57 293.43 154.042 280.912C154.042 289.059 148.228 310.863 148.228 310.863C148.228 310.863 139.751 349.367 136.866 355.599C135.497 357.81 128.587 356.189 125.907 355.599C125.907 349.759 131.686 320.255 131.686 310.013C131.686 299.771 130.088 281.209 129.491 273.599C128.893 265.99 127.435 251.227 129.491 242.716C134.702 242.716 178.073 242.716 178.073 242.716Z" fill="white"/>
</mask>
<g mask="url(#mask3)">
<g opacity="0.5">
<path fill-rule="evenodd" clip-rule="evenodd" d="M146.747 316.781C146.747 311.82 149.303 271.284 149.89 272.947C150.477 274.611 155.05 283.594 155.05 283.594C155.05 283.594 146.747 321.742 146.747 316.781Z" fill="#A1B8E3" style="mix-blend-mode:multiply"/>
</g>
<path fill-rule="evenodd" clip-rule="evenodd" d="M149.943 272.614C150.14 272.567 150.338 272.688 150.385 272.885C150.731 274.335 151.577 276.091 152.514 277.82C152.925 278.576 153.356 279.334 153.765 280.052C154.274 280.945 154.747 281.777 155.099 282.465C155.192 282.646 155.12 282.867 154.94 282.959C154.759 283.051 154.538 282.98 154.446 282.799C154.096 282.114 153.64 281.315 153.142 280.442C152.735 279.727 152.299 278.962 151.869 278.17C150.931 276.44 150.042 274.609 149.671 273.056C149.624 272.858 149.746 272.661 149.943 272.614Z" fill="white"/>
<g opacity="0.5">
<path fill-rule="evenodd" clip-rule="evenodd" d="M132.692 251.182C135.926 252.921 148.588 260.323 164.905 257.357C172.966 255.891 178.152 253.973 180.478 251.182C180.478 249.807 178.523 244.025 177.977 241.813C177.431 239.6 128.732 249.053 132.692 251.182Z" fill="url(#paint44_linear)" style="mix-blend-mode:multiply"/>
</g>
</g>
<path fill-rule="evenodd" clip-rule="evenodd" d="M153.608 134.983C153.608 134.983 155.477 138.604 158.643 140.141C161.809 141.678 163.391 142.431 163.391 142.431L162.045 147.651C162.045 147.651 164.554 155.328 163.391 157.916C162.228 160.505 158.643 162.224 156.556 164.532C154.469 166.84 152.54 174.668 152.54 174.668H138.786L138.163 164.532C138.163 164.532 134.495 149.905 140.718 142.431C146.942 134.956 153.608 134.983 153.608 134.983Z" fill="url(#paint45_linear)"/>
<mask id="mask4" mask-type="alpha" maskUnits="userSpaceOnUse" x="137" y="134" width="27" height="41">
<path fill-rule="evenodd" clip-rule="evenodd" d="M153.608 134.983C153.608 134.983 155.477 138.604 158.643 140.141C161.809 141.678 163.391 142.431 163.391 142.431L162.045 147.651C162.045 147.651 164.554 155.328 163.391 157.916C162.228 160.505 158.643 162.224 156.556 164.532C154.469 166.84 152.54 174.668 152.54 174.668H138.786L138.163 164.532C138.163 164.532 134.495 149.905 140.718 142.431C146.942 134.956 153.608 134.983 153.608 134.983Z" fill="white"/>
</mask>
<g mask="url(#mask4)">
<g opacity="0.5">
<path fill-rule="evenodd" clip-rule="evenodd" d="M158.27 163.153C154.798 163.153 149.382 160.079 148.34 159.028C147.297 157.978 157.019 169.34 156.208 171.15C155.568 172.578 153.282 173.015 154.723 173.015C159.922 173.015 161.742 163.153 158.27 163.153Z" fill="#3D82F0" style="mix-blend-mode:multiply"/>
</g>
</g>
<path fill-rule="evenodd" clip-rule="evenodd" d="M138.164 164.103C126.037 152.769 116.434 143.095 124.716 129.616C132.997 116.137 152.266 111.606 155.868 127.991C155.868 135.021 150.677 138.777 150.677 138.777C150.677 138.777 149.706 140.753 152.266 142.849C154.827 144.945 152.266 146.678 152.266 146.678C152.266 146.678 147.211 143.426 145.891 147.756C144.57 152.087 149.444 153.637 149.444 154.721C151.123 158.704 147.657 162.347 147.657 162.347C147.657 162.347 145.882 164.103 138.164 164.103Z" fill="url(#paint46_linear)"/>
<path fill-rule="evenodd" clip-rule="evenodd" d="M125.655 179.395C125.655 179.395 112.673 202.167 111.107 207.179C109.541 212.19 125.655 215.088 125.655 215.088L132.38 186.442L125.655 179.395Z" fill="url(#paint47_linear)"/>
<path fill-rule="evenodd" clip-rule="evenodd" d="M153.7 171.554C153.7 171.554 163.477 174.135 169.238 180.953C175 187.771 173.716 208.283 175.348 220.491C176.98 232.699 184.08 241.573 173.112 248.462C162.145 255.352 131.136 253.787 128.6 248.462C126.064 243.137 123.173 210.409 123.173 210.409C123.173 210.409 123.173 180.953 126.637 178.47C130.101 175.986 138.187 171.188 138.187 171.188C138.187 171.188 138.006 171.918 141.906 172.641C145.807 173.365 153.7 171.554 153.7 171.554Z" fill="#D6E3FA"/>
<mask id="mask5" mask-type="alpha" maskUnits="userSpaceOnUse" x="123" y="171" width="57" height="83">
<path fill-rule="evenodd" clip-rule="evenodd" d="M153.7 171.554C153.7 171.554 163.477 174.135 169.238 180.953C175 187.771 173.716 208.283 175.348 220.491C176.98 232.699 184.08 241.573 173.112 248.462C162.145 255.352 131.136 253.787 128.6 248.462C126.064 243.137 123.173 210.409 123.173 210.409C123.173 210.409 123.173 180.953 126.637 178.47C130.101 175.986 138.187 171.188 138.187 171.188C138.187 171.188 138.006 171.918 141.906 172.641C145.807 173.365 153.7 171.554 153.7 171.554Z" fill="white"/>
</mask>
<g mask="url(#mask5)">
<path opacity="0.5" fill-rule="evenodd" clip-rule="evenodd" d="M161.821 194.856C161.821 194.856 167.095 219.508 170.268 224.128C173.442 228.749 175.505 242.731 178.045 244.398C180.585 246.065 184.234 226.992 182.41 220.462C180.585 213.931 172.362 197.936 172.362 197.936L161.821 194.856Z" fill="url(#paint48_linear)"/>
<path opacity="0.5" fill-rule="evenodd" clip-rule="evenodd" d="M140.51 172.876C142.857 174.433 148.973 175.275 154.114 175.275C159.255 175.275 160.863 175.33 163.322 174.581C165.782 173.833 164.828 172.876 163.322 172.876C161.816 172.876 157.145 171.778 154.631 171.778C152.117 171.778 138.163 171.319 140.51 172.876Z" fill="url(#paint49_linear)"/>
</g>
<path fill-rule="evenodd" clip-rule="evenodd" d="M137.742 171.553C137.742 171.553 137.44 167.783 137.44 166.567C137.44 165.351 147.567 167.068 154.855 167.749C155.645 170.783 155.505 170.984 155.505 171.553C155.505 171.838 153.685 174.278 143.893 173.487C140.319 173.198 137.742 171.553 137.742 171.553Z" fill="#E1ECFF"/>
<path fill-rule="evenodd" clip-rule="evenodd" d="M188.375 200.732C190.559 195.826 191.795 188.249 189.481 187.218C187.167 186.188 183.885 191.415 181.701 196.321C179.517 201.227 180.874 204.405 182.213 205.728C183.715 206.038 186.191 205.638 188.375 200.732Z" fill="#A1B8E3"/>
<path fill-rule="evenodd" clip-rule="evenodd" d="M185.798 186.067L196.039 190.282C196.039 190.282 205.122 166.047 205.673 162.901C206.224 159.756 203.782 155.317 203.387 153.735C202.993 152.152 203.057 148.428 204.159 147.065C205.262 145.703 205.553 146.189 206.377 145.984C207.2 145.779 212.088 135.296 212.642 133.979C213.196 132.662 214.184 131.836 215.19 132.275C216.195 132.714 216.101 133.885 215.704 134.921C215.307 135.957 213.078 141.772 213.33 142.784C213.582 143.796 217.509 145.105 218.605 145.778C219.701 146.45 221.567 148.66 220.634 151.857C219.701 155.054 215.397 160.85 215.704 162.082C216.011 163.315 211.665 184.203 210.282 192.557C208.898 200.911 207.09 206.769 200.029 206.286C192.968 205.802 178.335 197.951 178.335 197.951C178.335 197.951 179.292 191.852 181.12 189.551C182.948 187.25 185.798 186.067 185.798 186.067Z" fill="url(#paint50_linear)"/>
<mask id="mask6" mask-type="alpha" maskUnits="userSpaceOnUse" x="178" y="132" width="43" height="75">
<path fill-rule="evenodd" clip-rule="evenodd" d="M185.798 186.067L196.039 190.282C196.039 190.282 205.122 166.047 205.673 162.901C206.224 159.756 203.782 155.317 203.387 153.735C202.993 152.152 203.057 148.428 204.159 147.065C205.262 145.703 205.553 146.189 206.377 145.984C207.2 145.779 212.088 135.296 212.642 133.979C213.196 132.662 214.184 131.836 215.19 132.275C216.195 132.714 216.101 133.885 215.704 134.921C215.307 135.957 213.078 141.772 213.33 142.784C213.582 143.796 217.509 145.105 218.605 145.778C219.701 146.45 221.567 148.66 220.634 151.857C219.701 155.054 215.397 160.85 215.704 162.082C216.011 163.315 211.665 184.203 210.282 192.557C208.898 200.911 207.09 206.769 200.029 206.286C192.968 205.802 178.335 197.951 178.335 197.951C178.335 197.951 179.292 191.852 181.12 189.551C182.948 187.25 185.798 186.067 185.798 186.067Z" fill="white"/>
</mask>
<g mask="url(#mask6)">
<g opacity="0.5">
<path fill-rule="evenodd" clip-rule="evenodd" d="M189.159 187.188C189.159 187.188 186.989 199.886 188.351 203.622C189.713 207.358 182.243 202.086 182.243 202.086C182.243 202.086 182.388 196.645 183.536 194.172C184.684 191.699 189.159 187.188 189.159 187.188Z" fill="#3D82F0" style="mix-blend-mode:multiply"/>
</g>
<path fill-rule="evenodd" clip-rule="evenodd" d="M195.49 189.828C195.575 189.644 195.793 189.563 195.977 189.648C196.021 189.668 196.069 189.69 196.12 189.712C196.731 189.986 197.809 190.468 198.771 191.8C198.89 191.965 198.853 192.194 198.688 192.313C198.524 192.431 198.295 192.394 198.176 192.23C197.331 191.06 196.408 190.646 195.815 190.38C195.765 190.357 195.716 190.336 195.671 190.315C195.487 190.23 195.406 190.013 195.49 189.828Z" fill="#223762"/>
</g>
<path fill-rule="evenodd" clip-rule="evenodd" d="M182.122 205.691C183.275 199.92 184.937 191.977 189.555 187.223C173.076 180.118 167.883 177.598 162.702 175.385C157.521 173.172 152.807 187.75 162.702 195.001C172.597 202.252 179.372 204.476 182.122 205.691Z" fill="url(#paint51_linear)"/>
<path d="M375.449 357.146H521.23V359.499C521.23 363.208 518.223 366.215 514.514 366.215H382.165C378.456 366.215 375.449 363.208 375.449 359.499V357.146Z" fill="#CAD7F1"/>
<path fill-rule="evenodd" clip-rule="evenodd" d="M392.625 329.186H504.713C508.398 329.186 512.328 331.672 513.49 334.74L521.279 355.291C522.441 358.359 519.825 360.846 515.436 360.846H381.903C377.513 360.846 374.897 358.359 376.059 355.291L383.848 334.74C385.011 331.672 388.94 329.186 392.625 329.186Z" fill="#EBF1FD"/>
<mask id="mask7" mask-type="alpha" maskUnits="userSpaceOnUse" x="375" y="329" width="147" height="32">
<path fill-rule="evenodd" clip-rule="evenodd" d="M392.625 329.186H504.713C508.398 329.186 512.328 331.672 513.49 334.74L521.279 355.291C522.441 358.359 519.825 360.846 515.436 360.846H381.903C377.513 360.846 374.897 358.359 376.059 355.291L383.848 334.74C385.011 331.672 388.94 329.186 392.625 329.186Z" fill="white"/>
</mask>
<g mask="url(#mask7)">
<path fill-rule="evenodd" clip-rule="evenodd" d="M397.564 356.671C406.588 356.671 414.84 351.449 415.995 345.007C417.151 338.565 411.657 333.343 403.724 333.343C395.792 333.343 387.539 338.565 385.293 345.007C383.046 351.449 388.54 356.671 397.564 356.671Z" fill="#CAD7F1"/>
<path fill-rule="evenodd" clip-rule="evenodd" d="M426.124 334.854H500.599C502.217 334.854 503.868 335.911 504.286 337.215C504.704 338.519 503.694 339.576 502.031 339.576H425.5C423.837 339.576 422.646 338.519 422.841 337.215C423.035 335.911 424.505 334.854 426.124 334.854Z" fill="#CAD7F1"/>
<path fill-rule="evenodd" clip-rule="evenodd" d="M424.921 342.789H482.957C484.649 342.789 486.242 343.846 486.516 345.15C486.789 346.453 485.603 347.51 483.866 347.51H424.298C422.561 347.51 421.311 346.453 421.505 345.15C421.7 343.846 423.229 342.789 424.921 342.789Z" fill="#CAD7F1"/>
<path opacity="0.5" fill-rule="evenodd" clip-rule="evenodd" d="M423.024 352.235H443.517C444.774 352.235 445.782 352.981 445.767 353.902C445.752 354.822 444.703 355.568 443.423 355.568H422.567C421.287 355.568 420.361 354.822 420.498 353.902C420.635 352.981 421.766 352.235 423.024 352.235Z" fill="#CAD7F1"/>
</g>
<g filter="url(#filter5_d)">
<path d="M370.123 344.414L515.882 346.958L515.841 349.31C515.776 353.019 512.717 355.973 509.009 355.908L376.68 353.598C372.971 353.534 370.017 350.475 370.082 346.766L370.123 344.414Z" fill="#CAD7F1"/>
<path fill-rule="evenodd" clip-rule="evenodd" d="M387.784 316.757L499.855 318.713C503.539 318.777 507.425 321.332 508.534 324.42L515.963 345.104C517.072 348.191 514.412 350.632 510.023 350.555L376.511 348.225C372.122 348.148 369.549 345.616 370.765 342.569L378.911 322.157C380.127 319.11 384.1 316.693 387.784 316.757Z" fill="#EBF1FD"/>
<mask id="mask8" mask-type="alpha" maskUnits="userSpaceOnUse" x="370" y="316" width="147" height="35">
<path fill-rule="evenodd" clip-rule="evenodd" d="M387.784 316.757L499.855 318.713C503.539 318.777 507.425 321.332 508.534 324.42L515.963 345.104C517.072 348.191 514.412 350.632 510.023 350.555L376.511 348.225C372.122 348.148 369.549 345.616 370.765 342.569L378.911 322.157C380.127 319.11 384.1 316.693 387.784 316.757Z" fill="white"/>
</mask>
<g mask="url(#mask8)">
<path fill-rule="evenodd" clip-rule="evenodd" d="M392.242 344.323C401.264 344.481 409.606 339.403 410.874 332.982C412.142 326.562 406.74 321.244 398.809 321.106C390.877 320.967 382.535 326.045 380.176 332.447C377.818 338.848 383.219 344.166 392.242 344.323Z" fill="#CAD7F1"/>
<path fill-rule="evenodd" clip-rule="evenodd" d="M421.178 323.009L495.642 324.309C497.26 324.337 498.892 325.422 499.287 326.733C499.682 328.044 498.654 329.083 496.991 329.054L420.472 327.718C418.809 327.689 417.637 326.612 417.854 325.312C418.071 324.012 419.559 322.981 421.178 323.009Z" fill="#CAD7F1"/>
<path fill-rule="evenodd" clip-rule="evenodd" d="M419.838 330.921L477.864 331.934C479.556 331.964 481.131 333.048 481.381 334.357C481.632 335.665 480.427 336.701 478.691 336.671L419.132 335.631C417.395 335.601 416.164 334.522 416.381 333.222C416.598 331.922 418.146 330.892 419.838 330.921Z" fill="#CAD7F1"/>
<path opacity="0.5" fill-rule="evenodd" clip-rule="evenodd" d="M417.776 340.333L438.266 340.691C439.523 340.713 440.517 341.476 440.486 342.396C440.455 343.316 439.393 344.044 438.113 344.022L417.261 343.658C415.981 343.635 415.068 342.873 415.221 341.955C415.375 341.038 416.518 340.311 417.776 340.333Z" fill="#CAD7F1"/>
</g>
</g>
<g filter="url(#filter6_d)">
<path d="M378.65 336.203L524.342 331.115L524.425 333.466C524.554 337.173 521.654 340.283 517.947 340.413L385.678 345.032C381.971 345.161 378.861 342.261 378.732 338.554L378.65 336.203Z" fill="#CAD7F1"/>
<path fill-rule="evenodd" clip-rule="evenodd" d="M394.839 307.66L506.859 303.748C510.542 303.62 514.556 305.968 515.825 308.993L524.326 329.26C525.595 332.285 523.067 334.862 518.68 335.015L385.228 339.675C380.841 339.828 378.14 337.435 379.195 334.328L386.262 313.518C387.316 310.411 391.157 307.789 394.839 307.66Z" fill="#EBF1FD"/>
<mask id="mask9" mask-type="alpha" maskUnits="userSpaceOnUse" x="378" y="303" width="147" height="37">
<path fill-rule="evenodd" clip-rule="evenodd" d="M394.839 307.66L506.859 303.748C510.542 303.62 514.556 305.968 515.825 308.993L524.326 329.26C525.595 332.285 523.067 334.862 518.68 335.015L385.228 339.675C380.841 339.828 378.14 337.435 379.195 334.328L386.262 313.518C387.316 310.411 391.157 307.789 394.839 307.66Z" fill="white"/>
</mask>
<g mask="url(#mask9)">
<path fill-rule="evenodd" clip-rule="evenodd" d="M400.734 334.956C409.752 334.641 417.817 329.134 418.747 322.656C419.678 316.178 414.005 311.15 406.077 311.427C398.149 311.704 390.084 317.211 388.063 323.727C386.043 330.244 391.716 335.271 400.734 334.956Z" fill="#CAD7F1"/>
<path fill-rule="evenodd" clip-rule="evenodd" d="M428.515 312.155L502.945 309.556C504.563 309.5 506.249 310.498 506.712 311.787C507.176 313.075 506.204 314.166 504.541 314.224L428.057 316.895C426.395 316.953 425.168 315.939 425.317 314.629C425.465 313.319 426.897 312.212 428.515 312.155Z" fill="#CAD7F1"/>
<path fill-rule="evenodd" clip-rule="evenodd" d="M427.591 320.127L485.591 318.102C487.282 318.043 488.912 319.043 489.23 320.337C489.549 321.63 488.4 322.728 486.664 322.788L427.133 324.867C425.397 324.928 424.11 323.915 424.259 322.606C424.408 321.296 425.9 320.186 427.591 320.127Z" fill="#CAD7F1"/>
<path opacity="0.5" fill-rule="evenodd" clip-rule="evenodd" d="M426.024 329.634L446.505 328.919C447.761 328.875 448.794 329.585 448.812 330.506C448.829 331.426 447.806 332.208 446.527 332.253L425.684 332.981C424.405 333.025 423.453 332.312 423.558 331.387C423.663 330.463 424.767 329.678 426.024 329.634Z" fill="#CAD7F1"/>
</g>
</g>
<path d="M365.237 322.805H510.962V325.217C510.962 328.926 507.955 331.933 504.245 331.933H371.953C368.244 331.933 365.237 328.926 365.237 325.217V322.805Z" fill="#C6D5EF"/>
<path fill-rule="evenodd" clip-rule="evenodd" d="M382.406 294.659H494.451C498.134 294.659 502.062 297.162 503.224 300.25L511.01 320.937C512.172 324.025 509.557 326.528 505.169 326.528H371.688C367.3 326.528 364.685 324.025 365.847 320.937L373.633 300.25C374.795 297.162 378.723 294.659 382.406 294.659Z" fill="#EBF1FD"/>
<mask id="mask10" mask-type="alpha" maskUnits="userSpaceOnUse" x="365" y="294" width="147" height="33">
<path fill-rule="evenodd" clip-rule="evenodd" d="M382.406 294.659H494.451C498.134 294.659 502.062 297.162 503.224 300.25L511.01 320.937C512.172 324.025 509.557 326.528 505.169 326.528H371.688C367.3 326.528 364.685 324.025 365.847 320.937L373.633 300.25C374.795 297.162 378.723 294.659 382.406 294.659Z" fill="white"/>
</mask>
<g mask="url(#mask10)">
<path opacity="0.5" fill-rule="evenodd" clip-rule="evenodd" d="M387.343 322.325C396.363 322.325 404.612 317.069 405.767 310.584C406.923 304.1 401.431 298.843 393.501 298.843C385.571 298.843 377.323 304.1 375.077 310.584C372.831 317.069 378.323 322.325 387.343 322.325Z" fill="#AABFE5"/>
<path opacity="0.5" fill-rule="evenodd" clip-rule="evenodd" d="M415.892 300.364H490.338C491.956 300.364 493.606 301.428 494.024 302.74C494.442 304.053 493.432 305.117 491.77 305.117H415.269C413.606 305.117 412.416 304.053 412.61 302.74C412.805 301.428 414.274 300.364 415.892 300.364Z" fill="#AABFE5"/>
<path opacity="0.5" fill-rule="evenodd" clip-rule="evenodd" d="M414.69 308.352H472.703C474.394 308.352 475.987 309.415 476.26 310.728C476.534 312.04 475.348 313.104 473.612 313.104H414.067C412.331 313.104 411.081 312.04 411.275 310.728C411.47 309.415 412.999 308.352 414.69 308.352Z" fill="#AABFE5"/>
<path opacity="0.3" fill-rule="evenodd" clip-rule="evenodd" d="M412.793 317.859H433.278C434.535 317.859 435.542 318.61 435.527 319.537C435.513 320.463 434.464 321.214 433.184 321.214H412.336C411.057 321.214 410.131 320.463 410.268 319.537C410.406 318.61 411.536 317.859 412.793 317.859Z" fill="#A1B8E3"/>
</g>
</g>
<defs>
<filter id="filter0_i" x="139.452" y="79.0684" width="160.749" height="97.7782" filterUnits="userSpaceOnUse" color-interpolation-filters="sRGB">
<feFlood flood-opacity="0" result="BackgroundImageFix"/>
<feBlend mode="normal" in="SourceGraphic" in2="BackgroundImageFix" result="shape"/>
<feColorMatrix in="SourceAlpha" type="matrix" values="0 0 0 0 0 0 0 0 0 0 0 0 0 0 0 0 0 0 127 0" result="hardAlpha"/>
<feOffset dy="-14"/>
<feGaussianBlur stdDeviation="12.5"/>
<feComposite in2="hardAlpha" operator="arithmetic" k2="-1" k3="1"/>
<feColorMatrix type="matrix" values="0 0 0 0 0.788056 0 0 0 0 0.827193 0 0 0 0 0.89764 0 0 0 0.337126 0"/>
<feBlend mode="normal" in2="shape" result="effect1_innerShadow"/>
</filter>
<filter id="filter1_i" x="327" y="42.4873" width="158.833" height="100.093" filterUnits="userSpaceOnUse" color-interpolation-filters="sRGB">
<feFlood flood-opacity="0" result="BackgroundImageFix"/>
<feBlend mode="normal" in="SourceGraphic" in2="BackgroundImageFix" result="shape"/>
<feColorMatrix in="SourceAlpha" type="matrix" values="0 0 0 0 0 0 0 0 0 0 0 0 0 0 0 0 0 0 127 0" result="hardAlpha"/>
<feOffset dy="-14"/>
<feGaussianBlur stdDeviation="12.5"/>
<feComposite in2="hardAlpha" operator="arithmetic" k2="-1" k3="1"/>
<feColorMatrix type="matrix" values="0 0 0 0 0.788056 0 0 0 0 0.827193 0 0 0 0 0.89764 0 0 0 0.337126 0"/>
<feBlend mode="normal" in2="shape" result="effect1_innerShadow"/>
</filter>
<filter id="filter2_i" x="37.9563" y="174.52" width="83.0876" height="149.096" filterUnits="userSpaceOnUse" color-interpolation-filters="sRGB">
<feFlood flood-opacity="0" result="BackgroundImageFix"/>
<feBlend mode="normal" in="SourceGraphic" in2="BackgroundImageFix" result="shape"/>
<feColorMatrix in="SourceAlpha" type="matrix" values="0 0 0 0 0 0 0 0 0 0 0 0 0 0 0 0 0 0 127 0" result="hardAlpha"/>
<feOffset dx="-8" dy="-6"/>
<feGaussianBlur stdDeviation="15"/>
<feComposite in2="hardAlpha" operator="arithmetic" k2="-1" k3="1"/>
<feColorMatrix type="matrix" values="0 0 0 0 0.269084 0 0 0 0 0.79451 0 0 0 0 0.470313 0 0 0 0.5 0"/>
<feBlend mode="normal" in2="shape" result="effect1_innerShadow"/>
</filter>
<filter id="filter3_d" x="78.5215" y="-95.8418" width="470.15" height="533.389" filterUnits="userSpaceOnUse" color-interpolation-filters="sRGB">
<feFlood flood-opacity="0" result="BackgroundImageFix"/>
<feColorMatrix in="SourceAlpha" type="matrix" values="0 0 0 0 0 0 0 0 0 0 0 0 0 0 0 0 0 0 127 0"/>
<feOffset/>
<feGaussianBlur stdDeviation="81"/>
<feColorMatrix type="matrix" values="0 0 0 0 1 0 0 0 0 1 0 0 0 0 1 0 0 0 1 0"/>
<feBlend mode="normal" in2="BackgroundImageFix" result="effect1_dropShadow"/>
<feBlend mode="normal" in="SourceGraphic" in2="effect1_dropShadow" result="shape"/>
</filter>
<filter id="filter4_d" x="237.196" y="121.359" width="143.872" height="50.5889" filterUnits="userSpaceOnUse" color-interpolation-filters="sRGB">
<feFlood flood-opacity="0" result="BackgroundImageFix"/>
<feColorMatrix in="SourceAlpha" type="matrix" values="0 0 0 0 0 0 0 0 0 0 0 0 0 0 0 0 0 0 127 0"/>
<feOffset dx="10" dy="10"/>
<feColorMatrix type="matrix" values="0 0 0 0 1 0 0 0 0 0.706613 0 0 0 0 0.0893703 0 0 0 0.173347 0"/>
<feBlend mode="normal" in2="BackgroundImageFix" result="effect1_dropShadow"/>
<feBlend mode="normal" in="SourceGraphic" in2="effect1_dropShadow" result="shape"/>
</filter>
<filter id="filter5_d" x="347.081" y="306.756" width="180.134" height="73.1533" filterUnits="userSpaceOnUse" color-interpolation-filters="sRGB">
<feFlood flood-opacity="0" result="BackgroundImageFix"/>
<feColorMatrix in="SourceAlpha" type="matrix" values="0 0 0 0 0 0 0 0 0 0 0 0 0 0 0 0 0 0 127 0"/>
<feOffset dx="-6" dy="7"/>
<feGaussianBlur stdDeviation="8.5"/>
<feColorMatrix type="matrix" values="0 0 0 0 0.260846 0 0 0 0 0.436705 0 0 0 0 0.80195 0 0 0 0.186 0"/>
<feBlend mode="normal" in2="BackgroundImageFix" result="effect1_dropShadow"/>
<feBlend mode="normal" in="SourceGraphic" in2="effect1_dropShadow" result="shape"/>
</filter>
<filter id="filter6_d" x="355.65" y="293.743" width="180.004" height="75.2925" filterUnits="userSpaceOnUse" color-interpolation-filters="sRGB">
<feFlood flood-opacity="0" result="BackgroundImageFix"/>
<feColorMatrix in="SourceAlpha" type="matrix" values="0 0 0 0 0 0 0 0 0 0 0 0 0 0 0 0 0 0 127 0"/>
<feOffset dx="-6" dy="7"/>
<feGaussianBlur stdDeviation="8.5"/>
<feColorMatrix type="matrix" values="0 0 0 0 0.260846 0 0 0 0 0.436705 0 0 0 0 0.80195 0 0 0 0.186 0"/>
<feBlend mode="normal" in2="BackgroundImageFix" result="effect1_dropShadow"/>
<feBlend mode="normal" in="SourceGraphic" in2="effect1_dropShadow" result="shape"/>
</filter>
<linearGradient id="paint0_linear" x1="246.308" y1="165.807" x2="254.794" y2="108.731" gradientUnits="userSpaceOnUse">
<stop stop-color="#ECF1FF"/>
<stop offset="1" stop-color="white"/>
</linearGradient>
<linearGradient id="paint1_linear" x1="432.483" y1="129.815" x2="441.211" y2="72.3924" gradientUnits="userSpaceOnUse">
<stop stop-color="#ECF1FF"/>
<stop offset="1" stop-color="white"/>
</linearGradient>
<linearGradient id="paint2_linear" x1="457.09" y1="199.974" x2="457.09" y2="288.983" gradientUnits="userSpaceOnUse">
<stop stop-color="#CFDDF3"/>
<stop offset="1" stop-color="#A1B8E3"/>
</linearGradient>
<linearGradient id="paint3_linear" x1="457.294" y1="149.099" x2="439.987" y2="165.326" gradientUnits="userSpaceOnUse">
<stop stop-color="#CFDDF3"/>
<stop offset="1" stop-color="#A1B8E3"/>
</linearGradient>
<linearGradient id="paint4_linear" x1="545.333" y1="217.748" x2="539.13" y2="194.85" gradientUnits="userSpaceOnUse">
<stop stop-color="#CFDDF3"/>
<stop offset="1" stop-color="#A1B8E3"/>
</linearGradient>
<linearGradient id="paint5_linear" x1="536.525" y1="240.53" x2="531.529" y2="217.338" gradientUnits="userSpaceOnUse">
<stop stop-color="#CFDDF3"/>
<stop offset="1" stop-color="#A1B8E3"/>
</linearGradient>
<linearGradient id="paint6_linear" x1="529.758" y1="260.214" x2="524.762" y2="237.023" gradientUnits="userSpaceOnUse">
<stop stop-color="#CFDDF3"/>
<stop offset="1" stop-color="#A1B8E3"/>
</linearGradient>
<linearGradient id="paint7_linear" x1="530.574" y1="151.084" x2="508.259" y2="143.031" gradientUnits="userSpaceOnUse">
<stop stop-color="#CFDDF3"/>
<stop offset="1" stop-color="#A1B8E3"/>
</linearGradient>
<linearGradient id="paint8_linear" x1="437.728" y1="174.275" x2="423.835" y2="193.506" gradientUnits="userSpaceOnUse">
<stop stop-color="#CFDDF3"/>
<stop offset="1" stop-color="#A1B8E3"/>
</linearGradient>
<linearGradient id="paint9_linear" x1="425.131" y1="198.491" x2="413.325" y2="219.069" gradientUnits="userSpaceOnUse">
<stop stop-color="#CFDDF3"/>
<stop offset="1" stop-color="#A1B8E3"/>
</linearGradient>
<linearGradient id="paint10_linear" x1="-15.9129" y1="192.368" x2="87.9019" y2="242.482" gradientUnits="userSpaceOnUse">
<stop stop-color="#CFDDF3"/>
<stop offset="1" stop-color="#7FA1E0"/>
</linearGradient>
<linearGradient id="paint11_linear" x1="40.2186" y1="238.768" x2="40.2186" y2="273.712" gradientUnits="userSpaceOnUse">
<stop stop-color="#CFDDF3"/>
<stop offset="1" stop-color="#A1B8E3"/>
</linearGradient>
<linearGradient id="paint12_linear" x1="27.7321" y1="218.886" x2="27.7321" y2="239.804" gradientUnits="userSpaceOnUse">
<stop stop-color="#CFDDF3"/>
<stop offset="1" stop-color="#A1B8E3"/>
</linearGradient>
<linearGradient id="paint13_linear" x1="18.5506" y1="182.646" x2="18.5506" y2="358.628" gradientUnits="userSpaceOnUse">
<stop stop-color="#CFDDF3"/>
<stop offset="1" stop-color="#A1B8E3"/>
</linearGradient>
<linearGradient id="paint14_linear" x1="465.015" y1="226.438" x2="444.385" y2="289.928" gradientUnits="userSpaceOnUse">
<stop stop-color="#CFDDF3"/>
<stop offset="1" stop-color="#A1B8E3"/>
</linearGradient>
<linearGradient id="paint15_linear" x1="476.593" y1="190.063" x2="485.196" y2="205.719" gradientUnits="userSpaceOnUse">
<stop stop-color="#CFDDF3"/>
<stop offset="1" stop-color="#A1B8E3"/>
</linearGradient>
<linearGradient id="paint16_linear" x1="397.818" y1="218.654" x2="407.603" y2="203.707" gradientUnits="userSpaceOnUse">
<stop stop-color="#CFDDF3"/>
<stop offset="1" stop-color="#A1B8E3"/>
</linearGradient>
<linearGradient id="paint17_linear" x1="398.848" y1="236.954" x2="407.837" y2="221.515" gradientUnits="userSpaceOnUse">
<stop stop-color="#CFDDF3"/>
<stop offset="1" stop-color="#A1B8E3"/>
</linearGradient>
<linearGradient id="paint18_linear" x1="399.133" y1="252.57" x2="408.122" y2="237.132" gradientUnits="userSpaceOnUse">
<stop stop-color="#CFDDF3"/>
<stop offset="1" stop-color="#A1B8E3"/>
</linearGradient>
<linearGradient id="paint19_linear" x1="423.78" y1="174.503" x2="441.636" y2="173.945" gradientUnits="userSpaceOnUse">
<stop stop-color="#CFDDF3"/>
<stop offset="1" stop-color="#A1B8E3"/>
</linearGradient>
<linearGradient id="paint20_linear" x1="484.753" y1="212.562" x2="490.211" y2="229.573" gradientUnits="userSpaceOnUse">
<stop stop-color="#CFDDF3"/>
<stop offset="1" stop-color="#A1B8E3"/>
</linearGradient>
<linearGradient id="paint21_linear" x1="488.154" y1="232.762" x2="491.804" y2="250.249" gradientUnits="userSpaceOnUse">
<stop stop-color="#CFDDF3"/>
<stop offset="1" stop-color="#A1B8E3"/>
</linearGradient>
<linearGradient id="paint22_linear" x1="157.598" y1="274.403" x2="163.518" y2="292.756" gradientUnits="userSpaceOnUse">
<stop stop-color="#EDF3FD" stop-opacity="0.01"/>
<stop offset="1" stop-color="#D6E3FA"/>
</linearGradient>
<radialGradient id="paint23_radial" cx="0" cy="0" r="1" gradientUnits="userSpaceOnUse" gradientTransform="translate(103.536 196.021) rotate(150.84) scale(89.1509 275.543)">
<stop stop-color="#64CF9B"/>
<stop offset="1" stop-color="#ADF9A9"/>
</radialGradient>
<linearGradient id="paint24_linear" x1="72.5466" y1="198.709" x2="72.5466" y2="345.787" gradientUnits="userSpaceOnUse">
<stop stop-color="#80D4AE"/>
<stop offset="1" stop-color="#4CB67D"/>
</linearGradient>
<linearGradient id="paint25_linear" x1="71.7159" y1="246.904" x2="71.7159" y2="262.277" gradientUnits="userSpaceOnUse">
<stop stop-color="#64DEA8"/>
<stop offset="1" stop-color="#4CB67D"/>
</linearGradient>
<linearGradient id="paint26_linear" x1="58.421" y1="287.205" x2="58.421" y2="306.317" gradientUnits="userSpaceOnUse">
<stop stop-color="#64DEA8"/>
<stop offset="1" stop-color="#4CB67D"/>
</linearGradient>
<linearGradient id="paint27_linear" x1="75.4554" y1="274.741" x2="75.4554" y2="286.374" gradientUnits="userSpaceOnUse">
<stop stop-color="#64DEA8"/>
<stop offset="1" stop-color="#4CB67D"/>
</linearGradient>
<linearGradient id="paint28_linear" x1="87.504" y1="202.033" x2="87.504" y2="224.053" gradientUnits="userSpaceOnUse">
<stop stop-color="#64DEA8"/>
<stop offset="1" stop-color="#4CB67D"/>
</linearGradient>
<linearGradient id="paint29_linear" x1="200.343" y1="318.85" x2="200.069" y2="357.593" gradientUnits="userSpaceOnUse">
<stop stop-color="#D0DCF1"/>
<stop offset="1" stop-color="white"/>
</linearGradient>
<linearGradient id="paint30_linear" x1="457.975" y1="-13.4253" x2="283.579" y2="28.8619" gradientUnits="userSpaceOnUse">
<stop stop-color="#47689B"/>
<stop offset="1" stop-color="#223762"/>
</linearGradient>
<linearGradient id="paint31_linear" x1="333.26" y1="-70.4107" x2="111.841" y2="31.4295" gradientUnits="userSpaceOnUse">
<stop stop-color="#47689B"/>
<stop offset="1" stop-color="#223762"/>
</linearGradient>
<linearGradient id="paint32_linear" x1="284.997" y1="52.8846" x2="396.156" y2="52.8846" gradientUnits="userSpaceOnUse">
<stop stop-color="#365383"/>
<stop offset="1" stop-color="#1C2C4C"/>
</linearGradient>
<linearGradient id="paint33_linear" x1="318.37" y1="328.53" x2="339.896" y2="298.093" gradientUnits="userSpaceOnUse">
<stop stop-color="#365383"/>
<stop offset="1" stop-color="#1C2C4C"/>
</linearGradient>
<linearGradient id="paint34_linear" x1="416.771" y1="311.234" x2="412.724" y2="250.237" gradientUnits="userSpaceOnUse">
<stop stop-color="#EDF3FD"/>
<stop offset="1" stop-color="#D6E3FA"/>
</linearGradient>
<linearGradient id="paint35_linear" x1="416.771" y1="262.752" x2="412.724" y2="201.755" gradientUnits="userSpaceOnUse">
<stop stop-color="#EDF3FD"/>
<stop offset="1" stop-color="#D6E3FA"/>
</linearGradient>
<linearGradient id="paint36_linear" x1="416.771" y1="161.571" x2="412.724" y2="100.574" gradientUnits="userSpaceOnUse">
<stop stop-color="#EDF3FD"/>
<stop offset="1" stop-color="#D6E3FA"/>
</linearGradient>
<linearGradient id="paint37_linear" x1="440.649" y1="179.771" x2="432.161" y2="120.171" gradientUnits="userSpaceOnUse">
<stop stop-color="#FFE883"/>
<stop offset="1" stop-color="#FECC4C"/>
</linearGradient>
<linearGradient id="paint38_linear" x1="189.014" y1="360.137" x2="-9.39262" y2="360.137" gradientUnits="userSpaceOnUse">
<stop stop-color="#D0DCF1"/>
<stop offset="1" stop-color="white" stop-opacity="0.01"/>
</linearGradient>
<linearGradient id="paint39_linear" x1="127.199" y1="363.48" x2="-68.0752" y2="363.48" gradientUnits="userSpaceOnUse">
<stop stop-color="#D0DCF1"/>
<stop offset="1" stop-color="white" stop-opacity="0.01"/>
</linearGradient>
<linearGradient id="paint40_linear" x1="125.005" y1="240.382" x2="133.676" y2="227.037" gradientUnits="userSpaceOnUse">
<stop stop-color="#70B8F9"/>
<stop offset="1" stop-color="#3D82F0"/>
</linearGradient>
<linearGradient id="paint41_linear" x1="127.556" y1="374.484" x2="138.18" y2="358.231" gradientUnits="userSpaceOnUse">
<stop stop-color="#47689B"/>
<stop offset="1" stop-color="#223762"/>
</linearGradient>
<linearGradient id="paint42_linear" x1="193.446" y1="381.339" x2="202.01" y2="363.912" gradientUnits="userSpaceOnUse">
<stop stop-color="#47689B"/>
<stop offset="1" stop-color="#223762"/>
</linearGradient>
<linearGradient id="paint43_linear" x1="165.114" y1="388.864" x2="216.009" y2="273.111" gradientUnits="userSpaceOnUse">
<stop stop-color="#CFDDF3"/>
<stop offset="1" stop-color="#A1B8E3"/>
</linearGradient>
<linearGradient id="paint44_linear" x1="189.138" y1="254.49" x2="188.587" y2="244.731" gradientUnits="userSpaceOnUse">
<stop stop-color="#CFDDF3" stop-opacity="0.477723"/>
<stop offset="1" stop-color="#A1B8E3"/>
</linearGradient>
<linearGradient id="paint45_linear" x1="162.088" y1="124.993" x2="143.562" y2="137.49" gradientUnits="userSpaceOnUse">
<stop stop-color="#70B8F9"/>
<stop offset="1" stop-color="#3D82F0"/>
</linearGradient>
<linearGradient id="paint46_linear" x1="129.079" y1="124.815" x2="145.673" y2="146.693" gradientUnits="userSpaceOnUse">
<stop stop-color="#164898"/>
<stop offset="1" stop-color="#223762"/>
</linearGradient>
<linearGradient id="paint47_linear" x1="112.738" y1="210.718" x2="129.394" y2="208.53" gradientUnits="userSpaceOnUse">
<stop stop-color="#EDF3FD"/>
<stop offset="1" stop-color="#D6E3FA"/>
</linearGradient>
<linearGradient id="paint48_linear" x1="174.842" y1="229.174" x2="185.909" y2="222.118" gradientUnits="userSpaceOnUse">
<stop stop-color="#CFDDF3"/>
<stop offset="1" stop-color="#A1B8E3"/>
</linearGradient>
<linearGradient id="paint49_linear" x1="196.938" y1="179.443" x2="196.785" y2="169.055" gradientUnits="userSpaceOnUse">
<stop stop-color="#CFDDF3"/>
<stop offset="1" stop-color="#A1B8E3"/>
</linearGradient>
<linearGradient id="paint50_linear" x1="256.196" y1="240.248" x2="231.782" y2="142.326" gradientUnits="userSpaceOnUse">
<stop stop-color="#70B8F9"/>
<stop offset="1" stop-color="#3D82F0"/>
</linearGradient>
<linearGradient id="paint51_linear" x1="151.706" y1="184.284" x2="162.706" y2="206.838" gradientUnits="userSpaceOnUse">
<stop stop-color="#D6E3FA"/>
<stop offset="1" stop-color="#E3EDFE"/>
</linearGradient>
</defs>
</svg>
