<svg width="712" height="490" viewBox="0 0 712 490" fill="none" xmlns="http://www.w3.org/2000/svg">
<g opacity="0.5" filter="url(#filter0_i)">
<path fill-rule="evenodd" clip-rule="evenodd" d="M108.593 351.494C108.063 336.364 68.4674 339.774 53.1935 341.234C37.9194 342.693 36.5326 321.966 49.711 318.885C62.8893 315.804 86.7871 317.394 99.1691 314.55C111.551 311.707 95.8883 296.454 112.76 294.616C129.631 292.777 164.516 294.479 174.916 294.106C191.251 293.519 199.633 313.099 171.013 313.987C163.121 314.232 161.538 331.627 188.178 326.849C204.896 323.85 237.696 323.781 244.52 331.436C248.435 335.828 247.078 347.628 240.347 354.144C235.348 358.985 219.447 359.929 213.218 361.048C198.605 363.673 201.494 377.76 206.477 380.661C218.268 387.525 250.629 374.571 251.497 393.419C251.88 401.747 222.435 403.092 210.362 402.99C180.751 402.741 161.296 405.367 159.93 395.311C158.56 385.215 178.331 392.029 177.356 379.618C176.847 373.132 178.212 359.35 165.527 360.074C182.894 359.083 109.308 371.929 108.593 351.494Z" fill="url(#paint0_linear)"/>
</g>
<path fill-rule="evenodd" clip-rule="evenodd" d="M481.215 347.045H229.051C225.492 347.045 222.606 344.16 222.606 340.6V71.9211C222.606 68.3615 225.492 65.4762 229.051 65.4762H481.215C484.774 65.4762 487.66 68.3615 487.66 71.9211V340.6C487.66 344.148 484.794 347.026 481.215 347.045Z" fill="url(#paint1_radial)"/>
<g opacity="0.1">
<path fill-rule="evenodd" clip-rule="evenodd" d="M344.66 186.321H273.764C271.539 186.321 269.736 184.518 269.736 182.293V116.231C269.736 114.006 271.539 112.203 273.764 112.203H344.66C346.884 112.203 348.688 114.006 348.688 116.231V182.293C348.688 184.505 346.906 186.3 344.66 186.321Z" fill="#7E9ACA"/>
<path fill-rule="evenodd" clip-rule="evenodd" d="M444.961 186.321H374.065C371.841 186.321 370.037 184.518 370.037 182.293V116.231C370.037 114.006 371.841 112.203 374.065 112.203H444.961C447.186 112.203 448.989 114.006 448.989 116.231V182.293C448.989 184.505 447.207 186.3 444.961 186.321Z" fill="#7E9ACA"/>
<path fill-rule="evenodd" clip-rule="evenodd" d="M312.032 252.786H273.764C271.539 252.786 269.736 250.983 269.736 248.758V210.49C269.736 208.266 271.539 206.462 273.764 206.462H312.032C314.256 206.462 316.06 208.266 316.06 210.49V248.758C316.06 250.969 314.278 252.765 312.032 252.786Z" fill="#7E9ACA"/>
<path fill-rule="evenodd" clip-rule="evenodd" d="M312.032 309.181H273.764C271.539 309.181 269.736 307.377 269.736 305.152V266.885C269.736 264.66 271.539 262.857 273.764 262.857H312.032C314.256 262.857 316.06 264.66 316.06 266.885V305.152C316.06 307.364 314.278 309.159 312.032 309.181Z" fill="#7E9ACA"/>
<path fill-rule="evenodd" clip-rule="evenodd" d="M446.572 219.352H324.116C323.449 219.352 322.908 218.811 322.908 218.144V208.476C322.908 207.809 323.449 207.268 324.116 207.268H446.572C447.24 207.268 447.781 207.809 447.781 208.476V218.144C447.781 218.799 447.26 219.332 446.572 219.352Z" fill="#7E9ACA"/>
<path fill-rule="evenodd" clip-rule="evenodd" d="M446.572 275.747H324.116C323.449 275.747 322.908 275.206 322.908 274.538V264.871C322.908 264.203 323.449 263.662 324.116 263.662H446.572C447.24 263.662 447.781 264.203 447.781 264.871V274.538C447.781 275.193 447.26 275.726 446.572 275.747Z" fill="#7E9ACA"/>
<path fill-rule="evenodd" clip-rule="evenodd" d="M418.375 239.493H324.116C323.449 239.493 322.908 238.952 322.908 238.285V228.617C322.908 227.95 323.449 227.409 324.116 227.409H418.375C419.043 227.409 419.584 227.95 419.584 228.617V238.285C419.584 238.94 419.063 239.473 418.375 239.493Z" fill="#7E9ACA"/>
<path fill-rule="evenodd" clip-rule="evenodd" d="M418.375 295.887H324.116C323.449 295.887 322.908 295.346 322.908 294.679V285.011C322.908 284.344 323.449 283.803 324.116 283.803H418.375C419.043 283.803 419.584 284.344 419.584 285.011V294.679C419.584 295.334 419.063 295.867 418.375 295.887Z" fill="#7E9ACA"/>
</g>
<path fill-rule="evenodd" clip-rule="evenodd" d="M340.229 181.89H269.333C267.108 181.89 265.305 180.087 265.305 177.862V111.8C265.305 109.575 267.108 107.772 269.333 107.772H340.229C342.453 107.772 344.257 109.575 344.257 111.8V177.862C344.257 180.073 342.475 181.869 340.229 181.89Z" fill="white"/>
<g opacity="0.4">
<path fill-rule="evenodd" clip-rule="evenodd" d="M271.172 163.483C271.172 163.483 274.055 157.125 279.819 144.408L293.796 147.181L304.546 132.485L322.359 125.334L337.92 135.681" fill="black" fill-opacity="0.01"/>
<path d="M271.172 163.483C271.172 163.483 274.055 157.125 279.819 144.408L293.796 147.181L304.546 132.485L322.359 125.334L337.92 135.681" stroke="#D6E3FA" stroke-width="2"/>
</g>
<path fill-rule="evenodd" clip-rule="evenodd" d="M293.638 149.758C295.178 149.758 296.427 148.509 296.427 146.969C296.427 145.429 295.178 144.18 293.638 144.18C292.098 144.18 290.849 145.429 290.849 146.969C290.849 148.509 292.098 149.758 293.638 149.758Z" fill="#FACA39"/>
<path fill-rule="evenodd" clip-rule="evenodd" d="M279.942 148.302C281.482 148.302 282.731 147.053 282.731 145.513C282.731 143.973 281.482 142.724 279.942 142.724C278.402 142.724 277.153 143.973 277.153 145.513C277.153 147.053 278.402 148.302 279.942 148.302Z" fill="#FACA39"/>
<path fill-rule="evenodd" clip-rule="evenodd" d="M304.514 135.256C306.054 135.256 307.303 134.008 307.303 132.468C307.303 130.927 306.054 129.679 304.514 129.679C302.974 129.679 301.725 130.927 301.725 132.468C301.725 134.008 302.974 135.256 304.514 135.256Z" fill="#FACA39"/>
<path fill-rule="evenodd" clip-rule="evenodd" d="M322.238 128.811C323.778 128.811 325.027 127.563 325.027 126.022C325.027 124.482 323.778 123.234 322.238 123.234C320.698 123.234 319.449 124.482 319.449 126.022C319.449 127.563 320.698 128.811 322.238 128.811Z" fill="#FACA39"/>
<path fill-rule="evenodd" clip-rule="evenodd" d="M440.53 181.89H369.634C367.41 181.89 365.606 180.087 365.606 177.862V111.8C365.606 109.575 367.41 107.772 369.634 107.772H440.53C442.755 107.772 444.558 109.575 444.558 111.8V177.862C444.558 180.073 442.776 181.869 440.53 181.89Z" fill="white"/>
<path fill-rule="evenodd" clip-rule="evenodd" d="M389.775 171.82H380.51C379.621 171.82 378.899 171.098 378.899 170.208V132.344C378.899 131.454 379.621 130.732 380.51 130.732H389.775C390.665 130.732 391.387 131.454 391.387 132.344V170.208C391.387 171.086 390.685 171.799 389.775 171.82Z" fill="url(#paint2_linear)"/>
<path fill-rule="evenodd" clip-rule="evenodd" d="M409.916 171.82H400.651C399.762 171.82 399.04 171.268 399.04 170.588V141.632C399.04 140.952 399.762 140.4 400.651 140.4H409.916C410.806 140.4 411.527 140.952 411.527 141.632V170.588C411.527 171.259 410.826 171.804 409.916 171.82Z" fill="url(#paint3_linear)"/>
<path fill-rule="evenodd" clip-rule="evenodd" d="M429.654 171.82H420.389C419.5 171.82 418.778 171.403 418.778 170.888V148.986C418.778 148.471 419.5 148.054 420.389 148.054H429.654C430.544 148.054 431.265 148.471 431.265 148.986V170.888C431.265 171.395 430.564 171.808 429.654 171.82Z" fill="url(#paint4_linear)"/>
<path fill-rule="evenodd" clip-rule="evenodd" d="M443.35 214.921H320.893C320.226 214.921 319.685 214.38 319.685 213.713V204.045C319.685 203.378 320.226 202.837 320.893 202.837H443.35C444.017 202.837 444.558 203.378 444.558 204.045V213.713C444.558 214.368 444.037 214.901 443.35 214.921Z" fill="white"/>
<path fill-rule="evenodd" clip-rule="evenodd" d="M443.35 271.315H320.893C320.226 271.315 319.685 270.774 319.685 270.107V260.439C319.685 259.772 320.226 259.231 320.893 259.231H443.35C444.017 259.231 444.558 259.772 444.558 260.439V270.107C444.558 270.762 444.037 271.295 443.35 271.315Z" fill="white"/>
<path fill-rule="evenodd" clip-rule="evenodd" d="M415.153 235.062H320.894C320.226 235.062 319.685 234.521 319.685 233.854V224.186C319.685 223.519 320.226 222.978 320.894 222.978H415.153C415.82 222.978 416.361 223.519 416.361 224.186V233.854C416.361 234.508 415.84 235.042 415.153 235.062Z" fill="white"/>
<path fill-rule="evenodd" clip-rule="evenodd" d="M415.153 291.456H320.894C320.226 291.456 319.685 290.915 319.685 290.248V280.58C319.685 279.913 320.226 279.372 320.894 279.372H415.153C415.82 279.372 416.361 279.913 416.361 280.58V290.248C416.361 290.903 415.84 291.436 415.153 291.456Z" fill="white"/>
<path fill-rule="evenodd" clip-rule="evenodd" d="M307.601 248.355H269.333C267.108 248.355 265.305 246.551 265.305 244.327V206.059C265.305 203.834 267.108 202.031 269.333 202.031H307.601C309.825 202.031 311.629 203.834 311.629 206.059V244.327C311.629 246.538 309.847 248.333 307.601 248.355Z" fill="white"/>
<path fill-rule="evenodd" clip-rule="evenodd" d="M307.601 304.749H269.333C267.108 304.749 265.305 302.946 265.305 300.721V262.453C265.305 260.229 267.108 258.425 269.333 258.425H307.601C309.825 258.425 311.629 260.229 311.629 262.453V300.721C311.629 302.933 309.847 304.728 307.601 304.749Z" fill="white"/>
<path opacity="0.5" fill-rule="evenodd" clip-rule="evenodd" d="M315 400.066L422.329 380.104L528.556 388.923L396.391 456.619" fill="url(#paint5_linear)"/>
<g filter="url(#filter1_d)">
<path fill-rule="evenodd" clip-rule="evenodd" d="M444.879 330.69C441.375 330.69 438.534 333.531 438.534 337.035V343.191C438.534 346.695 441.375 349.536 444.879 349.536H448.221C448.452 350.028 448.771 350.49 449.178 350.897C451.058 352.777 454.106 352.777 455.986 350.897L456.088 350.795C456.466 350.416 456.769 349.99 456.995 349.536H460.73C464.234 349.536 467.075 346.695 467.075 343.191V337.035C467.075 333.531 464.234 330.69 460.73 330.69H444.879Z" fill="#F05971"/>
<path fill-rule="evenodd" clip-rule="evenodd" d="M452.842 345.968C441.306 339.581 449.649 331.641 452.842 336.989C456.035 331.641 464.378 339.581 452.842 345.968Z" fill="white"/>
</g>
<path fill-rule="evenodd" clip-rule="evenodd" d="M426.911 320.704C424.625 321.19 423.167 323.436 423.653 325.721L425.812 335.88C426.298 338.165 428.544 339.624 430.829 339.138L436.167 338.003C436.495 338.437 436.903 338.822 437.385 339.136C439.615 340.584 442.597 339.95 444.045 337.72L444.123 337.6C444.415 337.15 444.622 336.671 444.748 336.179L450.471 334.963C452.756 334.477 454.215 332.231 453.729 329.946L451.57 319.787C451.084 317.502 448.838 316.043 446.552 316.529L426.911 320.704Z" fill="url(#paint6_linear)"/>
<g filter="url(#filter2_d)">
<path fill-rule="evenodd" clip-rule="evenodd" d="M497.701 336.654C494.197 336.654 491.356 339.494 491.356 342.999V349.154C491.356 352.659 494.197 355.499 497.701 355.499H501.043C501.274 355.992 501.593 356.453 501.999 356.86C503.879 358.74 506.928 358.74 508.808 356.86L508.909 356.759C509.288 356.38 509.59 355.954 509.817 355.499H513.552C517.056 355.499 519.897 352.659 519.897 349.154V342.999C519.897 339.494 517.056 336.654 513.552 336.654H497.701Z" fill="url(#paint7_linear)"/>
<path fill-rule="evenodd" clip-rule="evenodd" d="M505.663 351.932C494.128 345.545 502.471 337.605 505.663 342.952C508.857 337.605 517.2 345.545 505.663 351.932Z" fill="white"/>
</g>
<g filter="url(#filter3_d)">
<path fill-rule="evenodd" clip-rule="evenodd" d="M461.919 332.82C458.414 332.82 455.574 335.66 455.574 339.165V345.32C455.574 348.825 458.414 351.665 461.919 351.665H465.261C465.491 352.158 465.81 352.619 466.217 353.026C468.097 354.906 471.145 354.906 473.025 353.026L473.127 352.925C473.506 352.546 473.808 352.12 474.034 351.665H477.769C481.273 351.665 484.114 348.825 484.114 345.32V339.165C484.114 335.66 481.273 332.82 477.769 332.82H461.919Z" fill="url(#paint8_linear)"/>
<path fill-rule="evenodd" clip-rule="evenodd" d="M469.881 348.097C458.345 341.711 466.688 333.771 469.881 339.118C473.074 333.771 481.418 341.711 469.881 348.097Z" fill="white"/>
</g>
<path fill-rule="evenodd" clip-rule="evenodd" d="M511.21 318.929C508.934 318.403 506.662 319.822 506.137 322.099L503.8 332.218C503.275 334.495 504.694 336.766 506.971 337.291L512.288 338.519C512.402 339.051 512.609 339.572 512.914 340.06C514.322 342.315 517.292 343.001 519.547 341.592L519.669 341.516C520.123 341.232 520.514 340.885 520.837 340.493L526.537 341.809C528.813 342.334 531.084 340.915 531.61 338.638L533.946 328.519C534.471 326.243 533.052 323.971 530.776 323.446L511.21 318.929Z" fill="url(#paint9_linear)"/>
<path fill-rule="evenodd" clip-rule="evenodd" d="M453.243 317.371C451.001 318.027 449.716 320.377 450.373 322.619L453.292 332.586C453.948 334.828 456.298 336.113 458.54 335.457L463.777 333.923C464.137 334.331 464.573 334.684 465.078 334.96C467.41 336.236 470.336 335.379 471.611 333.047L471.68 332.921C471.937 332.451 472.108 331.957 472.197 331.457L477.811 329.813C480.053 329.156 481.339 326.806 480.682 324.564L477.763 314.597C477.106 312.355 474.756 311.07 472.514 311.727L453.243 317.371Z" fill="url(#paint10_linear)"/>
<g filter="url(#filter4_d)">
<path fill-rule="evenodd" clip-rule="evenodd" d="M448.664 332.225C446.363 332.631 444.827 334.825 445.233 337.125L447.036 347.353C447.442 349.654 449.636 351.19 451.936 350.784L457.311 349.837C457.623 350.282 458.017 350.681 458.489 351.011C460.667 352.536 463.669 352.007 465.194 349.829L465.276 349.711C465.583 349.272 465.807 348.8 465.951 348.313L471.712 347.297C474.013 346.892 475.549 344.698 475.143 342.397L473.34 332.169C472.934 329.869 470.74 328.332 468.439 328.738L448.664 332.225Z" fill="url(#paint11_linear)"/>
</g>
<path fill-rule="evenodd" clip-rule="evenodd" d="M487.272 306.704C485.133 305.763 482.637 306.733 481.696 308.872L477.513 318.378C476.572 320.516 477.543 323.012 479.681 323.953L484.676 326.151C484.689 326.695 484.795 327.246 485.003 327.782C485.967 330.26 488.757 331.488 491.235 330.524L491.369 330.472C491.868 330.278 492.317 330.01 492.707 329.685L498.061 332.041C500.199 332.982 502.696 332.011 503.637 329.873L507.82 320.367C508.76 318.229 507.79 315.732 505.651 314.791L487.272 306.704Z" fill="url(#paint12_linear)"/>
<g filter="url(#filter5_d)">
<path fill-rule="evenodd" clip-rule="evenodd" d="M472.796 316.885C470.461 316.845 468.534 318.705 468.493 321.041L468.312 331.425C468.271 333.761 470.132 335.687 472.467 335.728L477.924 335.823C478.146 336.32 478.456 336.787 478.856 337.201C480.703 339.114 483.751 339.167 485.663 337.32L485.767 337.22C486.152 336.848 486.462 336.427 486.696 335.977L492.545 336.079C494.881 336.119 496.807 334.259 496.848 331.923L497.03 321.539C497.07 319.203 495.21 317.277 492.874 317.236L472.796 316.885Z" fill="url(#paint13_linear)"/>
</g>
<g filter="url(#filter6_d)">
<path fill-rule="evenodd" clip-rule="evenodd" d="M473.41 330.443C471.079 330.28 469.058 332.037 468.895 334.368L468.17 344.728C468.007 347.059 469.765 349.08 472.095 349.243L477.539 349.624C477.735 350.131 478.021 350.614 478.398 351.048C480.142 353.054 483.183 353.267 485.19 351.523L485.298 351.429C485.702 351.077 486.034 350.673 486.291 350.236L492.127 350.644C494.457 350.807 496.479 349.05 496.642 346.719L497.366 336.359C497.529 334.028 495.772 332.007 493.441 331.844L473.41 330.443Z" fill="url(#paint14_linear)"/>
</g>
<g filter="url(#filter7_d)">
<path fill-rule="evenodd" clip-rule="evenodd" d="M488.83 334.057C486.696 335.007 485.736 337.508 486.687 339.642L490.911 349.13C491.861 351.264 494.362 352.224 496.496 351.274L501.481 349.054C501.892 349.41 502.371 349.702 502.908 349.908C505.39 350.861 508.175 349.621 509.128 347.139L509.179 347.005C509.371 346.505 509.474 345.993 509.496 345.485L514.84 343.106C516.975 342.156 517.934 339.655 516.984 337.521L512.76 328.033C511.81 325.899 509.309 324.939 507.175 325.89L488.83 334.057Z" fill="url(#paint15_linear)"/>
</g>
<path fill-rule="evenodd" clip-rule="evenodd" d="M421.069 326.856L472.613 349.939V405.236L422.745 379.422L421.069 326.856Z" fill="url(#paint16_linear)"/>
<path fill-rule="evenodd" clip-rule="evenodd" d="M532.25 337.08L472.613 349.969V405.236L531.128 388.233L532.25 337.08Z" fill="url(#paint17_linear)"/>
<mask id="mask0" mask-type="alpha" maskUnits="userSpaceOnUse" x="472" y="337" width="61" height="69">
<path fill-rule="evenodd" clip-rule="evenodd" d="M532.25 337.08L472.613 349.969V405.236L531.128 388.233L532.25 337.08Z" fill="white"/>
</mask>
<g mask="url(#mask0)">
<g opacity="0.218583">
<path fill-rule="evenodd" clip-rule="evenodd" d="M486.724 339.624L542.021 392.099L533.688 327.221L486.724 339.624Z" fill="url(#paint18_linear)" style="mix-blend-mode:multiply"/>
</g>
</g>
<path fill-rule="evenodd" clip-rule="evenodd" d="M421.159 326.43L400.622 347.665L451.546 372.862L472.187 349.799L421.159 326.43Z" fill="url(#paint19_linear)"/>
<path fill-rule="evenodd" clip-rule="evenodd" d="M531.714 337.08L553.549 360.036L494.552 373.288L472.613 349.784L531.714 337.08Z" fill="url(#paint20_linear)"/>
<path fill-rule="evenodd" clip-rule="evenodd" d="M525 127.903L532.5 118.342L556.81 133.187L538.19 112.303L547.241 104L570 143L525 127.903Z" fill="url(#paint21_linear)"/>
<path fill-rule="evenodd" clip-rule="evenodd" d="M533 118.75L538.556 118L558 134L533 118.75Z" fill="#E1A846"/>
<path fill-rule="evenodd" clip-rule="evenodd" d="M538 117.762L538.75 112L557 134L538 117.762Z" fill="#E6B052"/>
<path opacity="0.5" fill-rule="evenodd" clip-rule="evenodd" d="M187.065 39C100.416 130.351 227.75 259.565 305.012 162.501C435.167 -1.01181 546 121.852 546 121.852" fill="black" fill-opacity="0.01"/>
<path opacity="0.5" fill-rule="evenodd" clip-rule="evenodd" d="M187.528 38.2455C187.882 38.5846 187.896 39.1482 187.558 39.5044C187.349 39.7259 187.14 39.9476 186.933 40.1695C186.597 40.5281 186.037 40.546 185.68 40.2094C185.323 39.8728 185.305 39.3093 185.64 38.9507C185.85 38.7258 186.062 38.501 186.274 38.2765C186.612 37.9203 187.173 37.9064 187.528 38.2455ZM182.086 44.2802C182.461 44.5957 182.511 45.1572 182.197 45.5345C181.822 45.9847 181.453 46.4356 181.088 46.8872C180.779 47.269 180.221 47.3273 179.841 47.0174C179.461 46.7075 179.403 46.1467 179.711 45.7649C180.081 45.3065 180.457 44.8489 180.837 44.3921C181.151 44.0148 181.71 43.9647 182.086 44.2802ZM176.565 51.335C176.964 51.6206 177.057 52.1767 176.772 52.5771C176.43 53.0598 176.092 53.5432 175.76 54.0271C175.482 54.432 174.93 54.5339 174.527 54.2548C174.124 53.9756 174.022 53.4211 174.3 53.0162C174.638 52.5244 174.981 52.0332 175.329 51.5428C175.613 51.1425 176.167 51.0494 176.565 51.335ZM171.628 58.7905C172.049 59.0421 172.187 59.5886 171.936 60.0112C171.632 60.5242 171.334 61.0378 171.041 61.5518C170.798 61.9787 170.256 62.1267 169.831 61.8825C169.406 61.6382 169.259 61.0942 169.502 60.6674C169.8 60.1444 170.103 59.622 170.413 59.1001C170.663 58.6776 171.207 58.539 171.628 58.7905ZM167.34 66.6364C167.781 66.8497 167.966 67.3819 167.754 67.825C167.495 68.365 167.242 68.9053 166.995 69.4459C166.791 69.8928 166.265 70.0889 165.82 69.8837C165.375 69.6786 165.179 69.15 165.384 68.703C165.635 68.1524 165.893 67.6022 166.156 67.0524C166.369 66.6093 166.898 66.423 167.34 66.6364ZM163.772 74.8422C164.231 75.0133 164.465 75.5258 164.295 75.9869C164.087 76.5493 163.885 77.1119 163.69 77.6745C163.528 78.1388 163.023 78.3837 162.561 78.2215C162.098 78.0594 161.854 77.5515 162.016 77.0872C162.215 76.5138 162.421 75.9404 162.633 75.3672C162.803 74.9061 163.313 74.6711 163.772 74.8422ZM445.314 77.5087C445.32 78.0005 444.928 78.4041 444.438 78.4103C443.857 78.4176 443.273 78.4292 442.688 78.445C442.198 78.4583 441.791 78.0705 441.778 77.5789C441.765 77.0872 442.151 76.678 442.64 76.6647C443.234 76.6487 443.826 76.637 444.416 76.6295C444.906 76.6233 445.308 77.017 445.314 77.5087ZM450.599 77.5945C450.621 77.1032 451.036 76.7228 451.525 76.7448C452.119 76.7716 452.712 76.8026 453.302 76.8378C453.791 76.8669 454.163 77.2884 454.134 77.7794C454.105 78.2703 453.686 78.6447 453.197 78.6156C452.615 78.581 452.031 78.5504 451.445 78.524C450.956 78.5019 450.577 78.0858 450.599 77.5945ZM436.494 77.8742C436.535 78.3643 436.173 78.7951 435.685 78.8364C435.107 78.8854 434.528 78.9386 433.947 78.9961C433.46 79.0444 433.026 78.6868 432.978 78.1974C432.93 77.708 433.286 77.2721 433.773 77.2238C434.362 77.1654 434.95 77.1114 435.536 77.0618C436.024 77.0204 436.453 77.3842 436.494 77.8742ZM459.399 78.2446C459.456 77.7561 459.896 77.4063 460.382 77.4633C460.974 77.5326 461.563 77.6059 462.15 77.6831C462.635 77.747 462.977 78.1941 462.913 78.6818C462.85 79.1694 462.405 79.5129 461.919 79.449C461.341 79.3728 460.76 79.3005 460.177 79.2322C459.691 79.1752 459.342 78.733 459.399 78.2446ZM427.715 78.8705C427.791 79.3564 427.46 79.8117 426.976 79.8875C426.406 79.9768 425.835 80.0703 425.262 80.1682C424.78 80.2507 424.322 79.9245 424.24 79.4397C424.158 78.9548 424.482 78.4949 424.965 78.4125C425.546 78.3133 426.125 78.2184 426.703 78.1279C427.186 78.0521 427.64 78.3846 427.715 78.8705ZM468.133 79.5191C468.224 79.0358 468.687 78.7178 469.168 78.8088C469.753 78.9195 470.336 79.0339 470.915 79.1519C471.395 79.2496 471.705 79.7196 471.608 80.2015C471.511 80.6835 471.043 80.9951 470.563 80.8974C469.991 80.781 469.417 80.6681 468.84 80.559C468.359 80.468 468.043 80.0024 468.133 79.5191ZM419.012 80.4834C419.12 80.963 418.821 81.4401 418.344 81.5491C417.786 81.6765 417.227 81.8081 416.666 81.944C416.19 82.0593 415.711 81.7652 415.596 81.2872C415.482 80.8091 415.774 80.328 416.25 80.2127C416.818 80.075 417.385 79.9416 417.951 79.8125C418.428 79.7035 418.903 80.0039 419.012 80.4834ZM476.761 81.3987C476.884 80.9227 477.368 80.6371 477.842 80.7608C478.417 80.9111 478.989 81.0646 479.559 81.2215C480.031 81.3516 480.309 81.8415 480.179 82.3158C480.05 82.79 479.562 83.0691 479.09 82.939C478.528 82.7843 477.963 82.6327 477.396 82.4845C476.922 82.3608 476.637 81.8746 476.761 81.3987ZM410.477 82.6732C410.617 83.1445 410.35 83.6404 409.881 83.7808C409.315 83.9498 408.749 84.1233 408.181 84.3011C407.714 84.4476 407.217 84.1858 407.071 83.7163C406.925 83.2468 407.186 82.7475 407.653 82.601C408.228 82.4209 408.802 82.2452 409.375 82.0739C409.844 81.9335 410.338 82.2019 410.477 82.6732ZM485.244 83.8563C485.398 83.3895 485.9 83.1365 486.364 83.2912C486.927 83.4786 487.487 83.6689 488.043 83.8621C488.506 84.0228 488.751 84.5299 488.591 84.9947C488.431 85.4595 487.927 85.706 487.464 85.5453C486.915 85.3546 486.362 85.1667 485.807 84.9817C485.342 84.827 485.09 84.3231 485.244 83.8563ZM160.994 83.3566C161.468 83.4821 161.75 83.9693 161.625 84.4448C161.473 85.0244 161.327 85.6038 161.187 86.1831C161.072 86.661 160.592 86.9544 160.117 86.8385C159.641 86.7226 159.349 86.2411 159.464 85.7632C159.607 85.1724 159.756 84.5814 159.911 83.9903C160.036 83.5148 160.521 83.2311 160.994 83.3566ZM402.118 85.4067C402.286 85.8683 402.051 86.38 401.591 86.5496C401.038 86.7538 400.483 86.9623 399.928 87.1751C399.47 87.3504 398.958 87.12 398.784 86.6605C398.609 86.201 398.839 85.6864 399.296 85.5112C399.858 85.2957 400.42 85.0846 400.98 84.8779C401.439 84.7083 401.949 84.945 402.118 85.4067ZM493.55 86.8595C493.733 86.4033 494.25 86.1826 494.704 86.3665C495.252 86.5882 495.796 86.8124 496.336 87.0389C496.788 87.2283 497.001 87.7498 496.812 88.2036C496.624 88.6575 496.105 88.8718 495.653 88.6824C495.119 88.4587 494.582 88.2373 494.041 88.0183C493.587 87.8344 493.367 87.3156 493.55 86.8595ZM393.92 88.6584C394.115 89.1091 393.91 89.634 393.462 89.8307C392.928 90.0645 392.394 90.3025 391.858 90.5445C391.412 90.7463 390.887 90.5463 390.686 90.0979C390.485 89.6494 390.684 89.1222 391.131 88.9204C391.672 88.6756 392.213 88.4349 392.753 88.1983C393.201 88.0017 393.724 88.2076 393.92 88.6584ZM501.65 90.3716C501.86 89.9274 502.389 89.7384 502.831 89.9495C503.36 90.2022 503.885 90.4567 504.406 90.7129C504.846 90.9291 505.028 91.4624 504.813 91.9041C504.598 92.3458 504.067 92.5287 503.627 92.3124C503.112 92.0592 502.593 91.8077 502.07 91.558C501.628 91.347 501.44 90.8158 501.65 90.3716ZM385.879 92.403C386.1 92.842 385.924 93.3775 385.487 93.5991C384.976 93.8585 384.463 94.1216 383.95 94.3886C383.515 94.6148 382.98 94.4442 382.755 94.0075C382.53 93.5708 382.7 93.0334 383.135 92.8072C383.653 92.5374 384.171 92.2714 384.688 92.0092C385.125 91.7876 385.659 91.9639 385.879 92.403ZM159.064 92.1092C159.547 92.1866 159.877 92.643 159.8 93.1286C159.706 93.7195 159.619 94.3099 159.537 94.8998C159.47 95.387 159.023 95.7273 158.538 95.6599C158.053 95.5925 157.714 95.1429 157.781 94.6558C157.864 94.0539 157.953 93.4515 158.049 92.8486C158.126 92.3629 158.58 92.0319 159.064 92.1092ZM509.511 94.3518C509.746 93.9206 510.285 93.7626 510.714 93.999C511.244 94.2909 511.769 94.584 512.289 94.878C512.716 95.1194 512.867 95.6624 512.626 96.0909C512.386 96.5194 511.846 96.6711 511.419 96.4298C510.905 96.139 510.386 95.8493 509.862 95.5607C509.433 95.3243 509.275 94.7831 509.511 94.3518ZM378.087 96.5628C378.33 96.9897 378.183 97.5337 377.758 97.7778C377.239 98.0759 376.719 98.378 376.198 98.684C375.776 98.9325 375.233 98.7898 374.986 98.3654C374.738 97.941 374.88 97.3955 375.303 97.1471C375.828 96.838 376.353 96.5329 376.877 96.2318C377.302 95.9877 377.844 96.1359 378.087 96.5628ZM517.183 98.806C517.442 98.3888 517.989 98.2614 518.404 98.5217C518.914 98.8409 519.418 99.1603 519.915 99.4795C520.327 99.7444 520.448 100.295 520.184 100.709C519.921 101.124 519.373 101.245 518.96 100.98C518.468 100.664 517.97 100.349 517.466 100.033C517.051 99.7726 516.924 99.2233 517.183 98.806ZM370.558 101.085C370.821 101.5 370.7 102.05 370.287 102.315C369.793 102.631 369.298 102.951 368.803 103.275C368.392 103.543 367.843 103.426 367.576 103.014C367.309 102.602 367.425 102.05 367.836 101.782C368.336 101.455 368.835 101.132 369.334 100.813C369.747 100.549 370.295 100.67 370.558 101.085ZM158.019 101.016C158.508 101.043 158.882 101.464 158.854 101.955C158.821 102.551 158.794 103.146 158.772 103.741C158.755 104.232 158.344 104.616 157.855 104.599C157.365 104.581 156.983 104.168 157.001 103.677C157.022 103.07 157.05 102.463 157.084 101.855C157.112 101.364 157.53 100.988 158.019 101.016ZM524.576 103.666C524.857 103.264 525.41 103.167 525.81 103.45C526.287 103.786 526.757 104.121 527.219 104.455C527.617 104.741 527.707 105.298 527.422 105.697C527.136 106.097 526.582 106.188 526.185 105.901C525.728 105.571 525.263 105.24 524.791 104.907C524.391 104.624 524.294 104.069 524.576 103.666ZM363.165 106.013C363.447 106.415 363.35 106.971 362.95 107.254C362.481 107.585 362.012 107.919 361.542 108.256C361.144 108.543 360.59 108.45 360.305 108.05C360.021 107.65 360.112 107.094 360.51 106.808C360.984 106.468 361.457 106.13 361.93 105.797C362.331 105.514 362.884 105.611 363.165 106.013ZM531.694 108.926C531.997 108.54 532.554 108.473 532.939 108.778C533.414 109.154 533.878 109.525 534.33 109.892C534.712 110.2 534.771 110.761 534.464 111.144C534.157 111.527 533.599 111.587 533.218 111.278C532.771 110.916 532.312 110.549 531.842 110.177C531.457 109.872 531.391 109.312 531.694 108.926ZM157.88 109.984C158.369 109.962 158.784 110.342 158.806 110.833C158.833 111.429 158.866 112.023 158.905 112.615C158.937 113.106 158.567 113.53 158.078 113.562C157.59 113.595 157.168 113.223 157.136 112.732C157.096 112.127 157.062 111.521 157.035 110.914C157.013 110.423 157.391 110.006 157.88 109.984ZM356.047 111.221C356.345 111.611 356.271 112.17 355.883 112.469C355.409 112.834 354.935 113.202 354.461 113.574C354.074 113.876 353.517 113.807 353.216 113.419C352.915 113.032 352.984 112.472 353.37 112.17C353.849 111.795 354.326 111.424 354.804 111.056C355.192 110.757 355.749 110.831 356.047 111.221ZM538.507 114.576C538.832 114.208 539.393 114.174 539.759 114.501C540.22 114.912 540.659 115.308 541.076 115.69C541.438 116.021 541.465 116.584 541.135 116.948C540.805 117.312 540.245 117.338 539.883 117.007C539.471 116.63 539.037 116.238 538.582 115.833C538.216 115.506 538.182 114.943 538.507 114.576ZM349.154 116.703C349.466 117.082 349.414 117.643 349.037 117.957C348.59 118.329 348.143 118.705 347.695 119.084C347.321 119.4 346.761 119.352 346.446 118.976C346.131 118.6 346.179 118.038 346.553 117.721C347.004 117.34 347.455 116.961 347.906 116.586C348.282 116.272 348.841 116.325 349.154 116.703ZM158.646 118.921C159.13 118.849 159.581 119.186 159.652 119.672C159.738 120.261 159.83 120.848 159.928 121.433C160.009 121.918 159.683 122.377 159.2 122.459C158.717 122.54 158.26 122.213 158.179 121.728C158.079 121.131 157.986 120.532 157.898 119.932C157.826 119.445 158.161 118.993 158.646 118.921ZM544.96 120.658C545.314 120.318 545.875 120.331 546.214 120.687C546.396 120.879 546.534 121.027 546.627 121.127C546.673 121.178 546.709 121.216 546.733 121.242L546.76 121.273L546.768 121.281L546.77 121.283L546.77 121.284M544.96 120.658C544.606 120.997 544.593 121.561 544.931 121.917L544.96 120.658ZM544.931 121.917C545.108 122.102 545.24 122.244 545.328 122.339L544.931 121.917ZM545.328 122.339C545.372 122.387 545.405 122.423 545.426 122.446L545.328 122.339ZM545.426 122.446L545.45 122.472L545.426 122.446ZM545.45 122.472L545.455 122.478L545.45 122.472ZM545.455 122.478L545.456 122.479L545.455 122.478ZM546.771 121.284C546.771 121.284 546.771 121.284 546.113 121.882L546.771 121.284C547.099 121.649 547.071 122.212 546.708 122.542M342.374 122.523C342.7 122.89 342.668 123.453 342.303 123.78C341.866 124.171 341.429 124.566 340.992 124.963C340.628 125.293 340.068 125.265 339.739 124.9C339.411 124.535 339.439 123.972 339.802 123.642C340.243 123.242 340.683 122.845 341.122 122.451C341.488 122.124 342.048 122.156 342.374 122.523ZM160.297 127.736C160.772 127.617 161.253 127.907 161.372 128.384C161.515 128.96 161.664 129.535 161.819 130.107C161.947 130.582 161.668 131.071 161.196 131.2C160.723 131.328 160.236 131.048 160.108 130.573C159.95 129.99 159.798 129.404 159.652 128.816C159.533 128.339 159.822 127.856 160.297 127.736ZM335.947 128.437C336.285 128.793 336.271 129.357 335.917 129.696C335.493 130.102 335.068 130.511 334.643 130.922C334.291 131.264 333.73 131.253 333.39 130.899C333.05 130.545 333.06 129.982 333.413 129.64C333.84 129.226 334.267 128.815 334.694 128.406C335.048 128.067 335.61 128.081 335.947 128.437ZM329.538 134.726C329.887 135.072 329.891 135.636 329.547 135.986C329.148 136.391 328.75 136.799 328.351 137.21C328.009 137.562 327.448 137.569 327.097 137.226C326.747 136.882 326.74 136.319 327.082 135.966C327.483 135.553 327.884 135.143 328.285 134.735C328.629 134.385 329.19 134.381 329.538 134.726ZM162.802 136.346C163.263 136.18 163.77 136.422 163.934 136.885C164.133 137.445 164.337 138.002 164.545 138.556C164.719 139.016 164.488 139.53 164.03 139.704C163.572 139.878 163.061 139.646 162.887 139.187C162.674 138.621 162.467 138.054 162.264 137.483C162.1 137.02 162.34 136.511 162.802 136.346ZM323.509 141.005C323.867 141.34 323.887 141.904 323.553 142.263C323.152 142.695 322.751 143.129 322.35 143.566C322.018 143.927 321.457 143.95 321.097 143.616C320.737 143.283 320.715 142.72 321.047 142.358C321.45 141.919 321.854 141.482 322.257 141.048C322.591 140.689 323.151 140.669 323.509 141.005ZM166.121 144.672C166.565 144.464 167.093 144.656 167.3 145.101C167.551 145.639 167.806 146.173 168.067 146.705C168.283 147.147 168.102 147.68 167.663 147.897C167.223 148.114 166.692 147.933 166.476 147.491C166.211 146.949 165.95 146.404 165.695 145.857C165.487 145.411 165.678 144.881 166.121 144.672ZM317.463 147.66C317.829 147.986 317.864 148.549 317.54 148.917C317.164 149.344 316.788 149.773 316.412 150.205C316.089 150.575 315.529 150.613 315.161 150.289C314.793 149.965 314.755 149.402 315.078 149.032C315.456 148.598 315.834 148.167 316.211 147.738C316.536 147.369 317.096 147.334 317.463 147.66ZM170.213 152.645C170.635 152.396 171.178 152.537 171.427 152.961C171.727 153.472 172.031 153.98 172.34 154.485C172.596 154.904 172.466 155.452 172.049 155.71C171.632 155.967 171.086 155.836 170.83 155.417C170.515 154.903 170.205 154.385 169.899 153.865C169.651 153.441 169.791 152.895 170.213 152.645ZM311.782 154.244C312.157 154.561 312.205 155.123 311.889 155.499C311.512 155.95 311.134 156.403 310.756 156.858C310.442 157.236 309.883 157.287 309.507 156.972C309.131 156.657 309.081 156.096 309.394 155.718C309.774 155.26 310.153 154.805 310.533 154.352C310.848 153.976 311.407 153.928 311.782 154.244ZM175.032 160.197C175.429 159.909 175.983 159.998 176.27 160.397C176.616 160.878 176.966 161.355 177.321 161.828C177.615 162.221 177.536 162.779 177.145 163.075C176.754 163.371 176.198 163.292 175.904 162.899C175.543 162.416 175.186 161.93 174.833 161.441C174.546 161.042 174.635 160.486 175.032 160.197ZM306.075 161.188C306.457 161.496 306.518 162.056 306.212 162.44C306.022 162.677 305.832 162.915 305.642 163.154C305.448 163.398 305.254 163.64 305.06 163.881C304.751 164.263 304.193 164.322 303.813 164.012C303.432 163.703 303.374 163.142 303.682 162.76C303.874 162.522 304.066 162.283 304.257 162.043C304.448 161.803 304.638 161.564 304.829 161.325C305.135 160.942 305.693 160.88 306.075 161.188ZM180.534 167.262C180.902 166.938 181.462 166.974 181.785 167.344C182.175 167.79 182.568 168.231 182.965 168.668C183.295 169.032 183.269 169.595 182.907 169.926C182.546 170.258 181.985 170.232 181.655 169.869C181.25 169.423 180.85 168.973 180.453 168.519C180.13 168.149 180.166 167.587 180.534 167.262ZM300.276 168.141C300.637 168.473 300.662 169.037 300.331 169.4C299.932 169.837 299.532 170.27 299.131 170.696C298.795 171.054 298.234 171.07 297.878 170.733C297.522 170.395 297.506 169.832 297.842 169.474C298.237 169.054 298.631 168.628 299.023 168.197C299.354 167.834 299.914 167.809 300.276 168.141ZM186.677 173.773C187.012 173.414 187.573 173.397 187.93 173.734C188.36 174.14 188.793 174.541 189.229 174.938C189.592 175.268 189.621 175.831 189.292 176.196C188.964 176.56 188.403 176.589 188.04 176.259C187.595 175.854 187.153 175.445 186.715 175.031C186.359 174.694 186.341 174.131 186.677 173.773ZM294.033 174.564C294.366 174.925 294.345 175.488 293.985 175.823C293.546 176.231 293.106 176.633 292.665 177.03C292.3 177.357 291.74 177.326 291.413 176.959C291.087 176.593 291.118 176.03 291.483 175.702C291.917 175.313 292.349 174.917 292.781 174.516C293.14 174.182 293.701 174.203 294.033 174.564ZM193.415 179.657C193.714 179.267 194.271 179.195 194.659 179.495C195.125 179.856 195.595 180.213 196.068 180.564C196.462 180.856 196.545 181.413 196.254 181.809C195.963 182.204 195.408 182.288 195.014 181.996C194.532 181.638 194.053 181.274 193.577 180.906C193.189 180.606 193.117 180.047 193.415 179.657ZM287.276 180.409C287.574 180.799 287.501 181.358 287.113 181.658C286.634 182.027 286.154 182.389 285.674 182.745C285.279 183.037 284.724 182.952 284.434 182.556C284.144 182.16 284.228 181.603 284.622 181.311C285.093 180.962 285.564 180.607 286.033 180.245C286.422 179.945 286.978 180.019 287.276 180.409ZM200.702 184.838C200.96 184.42 201.507 184.291 201.923 184.55C202.423 184.861 202.926 185.166 203.432 185.466C203.854 185.717 203.994 186.263 203.745 186.686C203.496 187.11 202.952 187.25 202.53 187C202.014 186.694 201.5 186.381 200.989 186.064C200.573 185.805 200.445 185.256 200.702 184.838ZM279.992 185.571C280.249 185.989 280.119 186.538 279.702 186.796C279.186 187.115 278.669 187.427 278.152 187.732C277.729 187.981 277.186 187.838 276.939 187.414C276.691 186.99 276.833 186.444 277.255 186.195C277.762 185.897 278.268 185.592 278.773 185.279C279.19 185.021 279.736 185.152 279.992 185.571ZM208.484 189.231C208.696 188.787 209.226 188.6 209.667 188.813C210.197 189.069 210.73 189.318 211.265 189.562C211.711 189.765 211.908 190.292 211.706 190.74C211.504 191.188 210.979 191.387 210.533 191.184C209.986 190.935 209.442 190.68 208.9 190.419C208.458 190.206 208.272 189.674 208.484 189.231ZM272.2 189.925C272.408 190.37 272.218 190.901 271.775 191.11C271.226 191.369 270.676 191.62 270.126 191.864C269.679 192.063 269.155 191.859 268.957 191.41C268.76 190.96 268.962 190.434 269.41 190.235C269.948 189.997 270.484 189.751 271.021 189.498C271.464 189.289 271.992 189.48 272.2 189.925ZM216.696 192.745C216.856 192.281 217.362 192.035 217.824 192.197C218.38 192.391 218.938 192.579 219.498 192.76C219.964 192.911 220.22 193.412 220.07 193.881C219.92 194.349 219.421 194.606 218.955 194.455C218.382 194.27 217.811 194.078 217.242 193.879C216.779 193.717 216.535 193.21 216.696 192.745ZM263.955 193.345C264.109 193.812 263.856 194.315 263.391 194.469C262.816 194.659 262.241 194.842 261.665 195.017C261.196 195.159 260.701 194.893 260.56 194.422C260.418 193.951 260.683 193.454 261.152 193.312C261.714 193.142 262.275 192.963 262.836 192.778C263.301 192.624 263.802 192.877 263.955 193.345ZM225.256 195.29C225.361 194.809 225.833 194.505 226.312 194.611C226.886 194.737 227.461 194.857 228.038 194.969C228.519 195.063 228.833 195.53 228.74 196.013C228.647 196.496 228.181 196.811 227.701 196.718C227.109 196.602 226.52 196.48 225.931 196.35C225.453 196.245 225.151 195.77 225.256 195.29ZM255.354 195.717C255.447 196.2 255.133 196.667 254.652 196.761C254.059 196.877 253.466 196.984 252.873 197.084C252.39 197.165 251.933 196.838 251.853 196.353C251.772 195.868 252.098 195.408 252.581 195.327C253.158 195.23 253.736 195.125 254.314 195.013C254.795 194.919 255.26 195.234 255.354 195.717ZM234.056 196.777C234.101 196.287 234.533 195.927 235.02 195.972C235.604 196.026 236.189 196.073 236.775 196.112C237.264 196.145 237.634 196.569 237.601 197.06C237.569 197.55 237.146 197.922 236.658 197.889C236.057 197.849 235.457 197.801 234.858 197.745C234.37 197.7 234.012 197.267 234.056 196.777ZM246.521 196.966C246.551 197.457 246.18 197.88 245.691 197.91C245.089 197.948 244.488 197.977 243.888 197.999C243.398 198.017 242.987 197.633 242.969 197.142C242.952 196.65 243.334 196.237 243.823 196.22C244.408 196.198 244.994 196.169 245.581 196.133C246.07 196.102 246.49 196.475 246.521 196.966Z" fill="#8CA4D4"/>
<g opacity="0.6">
<path fill-rule="evenodd" clip-rule="evenodd" d="M212 0C224.15 0 234 9.84975 234 22C234 34.1502 224.15 44 212 44C199.85 44 190 34.1502 190 22C190 9.84975 199.85 0 212 0Z" fill="url(#paint22_linear)"/>
<mask id="mask1" mask-type="alpha" maskUnits="userSpaceOnUse" x="190" y="0" width="44" height="44">
<path fill-rule="evenodd" clip-rule="evenodd" d="M212 0C224.15 0 234 9.84975 234 22C234 34.1502 224.15 44 212 44C199.85 44 190 34.1502 190 22C190 9.84975 199.85 0 212 0Z" fill="white"/>
</mask>
<g mask="url(#mask1)">
</g>
<path fill-rule="evenodd" clip-rule="evenodd" d="M214.057 13.7599L212 7V22.7791L219 30L217.669 25.6251L214.057 21.9V13.7599Z" fill="white"/>
</g>
<path fill-rule="evenodd" clip-rule="evenodd" d="M3.76352 258.219C3.76352 267.27 -4.23784 285.006 6.19597 289.604C16.6298 294.203 25.8565 270.32 25.8565 270.32C25.8565 270.32 25.0612 252.782 15.6286 252.782C6.19597 252.782 3.76352 249.168 3.76352 258.219Z" fill="url(#paint23_linear)"/>
<mask id="mask2" mask-type="alpha" maskUnits="userSpaceOnUse" x="0" y="252" width="26" height="39">
<path fill-rule="evenodd" clip-rule="evenodd" d="M3.76352 258.219C3.76352 267.27 -4.23784 285.006 6.19597 289.604C16.6298 294.203 25.8565 270.32 25.8565 270.32C25.8565 270.32 25.0612 252.782 15.6286 252.782C6.19597 252.782 3.76352 249.168 3.76352 258.219Z" fill="white"/>
</mask>
<g mask="url(#mask2)">
<g opacity="0.5">
<path fill-rule="evenodd" clip-rule="evenodd" d="M3.16249 262.272C4.0039 263.865 15.4699 272.292 17.3659 274.285C19.2619 276.278 19.6954 281.486 20.7841 280.948C21.8728 280.41 20.7841 265.131 20.7841 265.131C20.7841 265.131 2.32108 260.679 3.16249 262.272Z" fill="#3D82F0" style="mix-blend-mode:multiply"/>
</g>
</g>
<path fill-rule="evenodd" clip-rule="evenodd" d="M22.425 463.434C22.2498 468.108 20.7348 473.907 21.9439 476.27C23.153 478.634 29.5312 480.064 31.6505 480.132C33.7698 480.201 34.6035 476.894 37.8306 478.715C41.0577 480.535 59.8202 481.049 61.2995 474.137C62.7788 467.226 53.2688 466.916 49.0391 466.779C44.8093 466.641 40.4018 464.576 34.308 459.388C28.2141 454.201 22.6002 458.76 22.425 463.434Z" fill="url(#paint24_linear)"/>
<path fill-rule="evenodd" clip-rule="evenodd" d="M42.8031 465.027C42.7666 465.304 42.9785 465.557 43.2765 465.591C43.2709 465.59 43.271 465.591 43.2771 465.593C43.2927 465.598 43.3473 465.617 43.4461 465.672C43.5686 465.741 43.7214 465.844 43.8924 465.981C44.2343 466.255 44.62 466.64 44.9511 467.091C45.63 468.014 45.986 469.072 45.5438 469.996C45.4214 470.251 45.5444 470.55 45.8186 470.664C46.0927 470.778 46.4142 470.664 46.5365 470.408C47.2108 469.001 46.604 467.547 45.8481 466.518C45.4618 465.993 45.0121 465.542 44.6013 465.213C44.396 465.048 44.1933 464.909 44.006 464.804C43.8337 464.707 43.6217 464.61 43.409 464.586C43.111 464.552 42.8397 464.749 42.8031 465.027Z" fill="white"/>
<path fill-rule="evenodd" clip-rule="evenodd" d="M48.0163 466.225C47.9797 466.502 48.1917 466.755 48.4896 466.789C48.7841 466.823 49.4002 467.035 49.8961 467.546C50.3709 468.035 50.7618 468.826 50.5967 470.079C50.5601 470.357 50.772 470.61 51.07 470.644C51.368 470.678 51.6392 470.48 51.6758 470.203C51.8775 468.673 51.3992 467.585 50.7026 466.867C50.0271 466.17 49.1696 465.846 48.6221 465.784C48.3241 465.749 48.0529 465.947 48.0163 466.225Z" fill="white"/>
<path fill-rule="evenodd" clip-rule="evenodd" d="M116.877 473.315C117.314 477.975 116.569 483.902 118.078 486.111C119.588 488.319 126.105 489.014 128.218 488.842C130.33 488.67 130.725 485.293 134.167 486.733C137.608 488.173 156.298 486.553 156.862 479.525C157.426 472.497 147.946 473.269 143.73 473.613C139.514 473.957 134.869 472.408 128.142 467.95C121.415 463.493 116.439 468.656 116.877 473.315Z" fill="url(#paint25_linear)"/>
<path fill-rule="evenodd" clip-rule="evenodd" d="M137.311 472.582C137.311 472.862 137.554 473.088 137.854 473.088C137.849 473.088 137.849 473.088 137.855 473.09C137.871 473.093 137.928 473.106 138.033 473.149C138.164 473.204 138.329 473.289 138.517 473.405C138.892 473.638 139.325 473.977 139.713 474.387C140.507 475.226 140.999 476.236 140.681 477.203C140.593 477.47 140.754 477.753 141.041 477.835C141.328 477.917 141.632 477.767 141.72 477.5C142.205 476.026 141.413 474.652 140.528 473.717C140.076 473.239 139.57 472.843 139.12 472.563C138.894 472.423 138.675 472.307 138.475 472.224C138.292 472.148 138.069 472.075 137.854 472.075C137.554 472.075 137.311 472.302 137.311 472.582Z" fill="white"/>
<path fill-rule="evenodd" clip-rule="evenodd" d="M142.642 473.178C142.642 473.458 142.885 473.685 143.185 473.685C143.482 473.685 144.121 473.825 144.68 474.276C145.216 474.708 145.707 475.449 145.707 476.711C145.707 476.991 145.951 477.218 146.251 477.218C146.551 477.218 146.794 476.991 146.794 476.711C146.794 475.17 146.177 474.144 145.392 473.511C144.631 472.896 143.737 472.672 143.185 472.672C142.885 472.672 142.642 472.899 142.642 473.178Z" fill="white"/>
<path fill-rule="evenodd" clip-rule="evenodd" d="M99.367 305.854C99.367 305.854 119.86 375.811 122.528 391.729C125.196 407.647 131.725 461.453 130.804 470.131C126.344 474.368 118.31 471.831 116.91 471.054C115.511 470.277 106.889 426.007 99.367 408.834C91.8453 391.661 74.9185 375.855 63.765 358.577C63.765 369.823 55.1523 399.918 55.1523 399.918C55.1523 399.918 42.5936 453.066 38.3199 461.668C36.292 464.72 26.0548 462.482 22.084 461.668C22.084 453.608 30.6454 412.883 30.6454 398.746C30.6454 384.608 28.2777 358.987 27.3931 348.483C26.5085 337.98 24.3472 317.602 27.3931 305.854C35.1143 305.854 99.367 305.854 99.367 305.854Z" fill="url(#paint26_linear)"/>
<mask id="mask3" mask-type="alpha" maskUnits="userSpaceOnUse" x="22" y="305" width="109" height="168">
<path fill-rule="evenodd" clip-rule="evenodd" d="M99.367 305.854C99.367 305.854 119.86 375.811 122.528 391.729C125.196 407.647 131.725 461.453 130.804 470.131C126.344 474.368 118.31 471.831 116.91 471.054C115.511 470.277 106.889 426.007 99.367 408.834C91.8453 391.661 74.9185 375.855 63.765 358.577C63.765 369.823 55.1523 399.918 55.1523 399.918C55.1523 399.918 42.5936 453.066 38.3199 461.668C36.292 464.72 26.0548 462.482 22.084 461.668C22.084 453.608 30.6454 412.883 30.6454 398.746C30.6454 384.608 28.2777 358.987 27.3931 348.483C26.5085 337.98 24.3472 317.602 27.3931 305.854C35.1143 305.854 99.367 305.854 99.367 305.854Z" fill="white"/>
</mask>
<g mask="url(#mask3)">
<g opacity="0.5">
<path fill-rule="evenodd" clip-rule="evenodd" d="M52.9573 408.088C52.9573 401.24 56.7439 345.288 57.6138 347.584C58.4837 349.88 65.2581 362.28 65.2581 362.28C65.2581 362.28 52.9573 414.936 52.9573 408.088Z" fill="#A1B8E3" style="mix-blend-mode:multiply"/>
</g>
<path fill-rule="evenodd" clip-rule="evenodd" d="M57.6932 347.123C57.9852 347.058 58.2784 347.226 58.348 347.498C58.8601 349.499 60.1139 351.923 61.5023 354.309C62.1098 355.353 62.7491 356.399 63.3544 357.39C64.1085 358.623 64.81 359.771 65.3317 360.721C65.4684 360.97 65.3625 361.275 65.0952 361.403C64.828 361.53 64.5004 361.431 64.3637 361.182C63.8446 360.237 63.1698 359.134 62.4326 357.929C61.8287 356.941 61.183 355.886 60.5465 354.792C59.157 352.404 57.839 349.877 57.2905 347.733C57.2208 347.461 57.4011 347.188 57.6932 347.123Z" fill="white"/>
<g opacity="0.5">
<path fill-rule="evenodd" clip-rule="evenodd" d="M32.1359 317.542C36.9263 319.942 55.6857 330.16 79.858 326.065C91.8012 324.042 99.4839 321.394 102.93 317.542C102.93 315.644 100.033 307.663 99.2244 304.609C98.4155 301.555 26.2694 314.602 32.1359 317.542Z" fill="url(#paint27_linear)" style="mix-blend-mode:multiply"/>
</g>
</g>
<path fill-rule="evenodd" clip-rule="evenodd" d="M63.1225 157.149C63.1225 157.149 65.8914 162.147 70.5817 164.269C75.2719 166.391 77.6159 167.429 77.6159 167.429L75.6219 174.635C75.6219 174.635 79.3384 185.231 77.6159 188.804C75.8933 192.376 70.5817 194.75 67.4902 197.935C64.3986 201.121 61.5405 211.927 61.5405 211.927H41.1641L40.2415 197.935C40.2415 197.935 34.8072 177.746 44.027 167.429C53.2468 157.112 63.1225 157.149 63.1225 157.149Z" fill="url(#paint28_linear)"/>
<mask id="mask4" mask-type="alpha" maskUnits="userSpaceOnUse" x="38" y="157" width="41" height="55">
<path fill-rule="evenodd" clip-rule="evenodd" d="M63.1225 157.149C63.1225 157.149 65.8914 162.147 70.5817 164.269C75.2719 166.391 77.6159 167.429 77.6159 167.429L75.6219 174.635C75.6219 174.635 79.3384 185.231 77.6159 188.804C75.8933 192.376 70.5817 194.75 67.4902 197.935C64.3986 201.121 61.5405 211.927 61.5405 211.927H41.1641L40.2415 197.935C40.2415 197.935 34.8072 177.746 44.027 167.429C53.2468 157.112 63.1225 157.149 63.1225 157.149Z" fill="white"/>
</mask>
<g mask="url(#mask4)">
<g opacity="0.5">
<path fill-rule="evenodd" clip-rule="evenodd" d="M70.0292 196.033C64.8858 196.033 56.8622 191.79 55.3179 190.34C53.7736 188.89 68.1763 204.574 66.9741 207.072C66.0256 209.042 62.6396 209.645 64.7751 209.645C72.4769 209.645 75.1727 196.033 70.0292 196.033Z" fill="#3D82F0" style="mix-blend-mode:multiply"/>
</g>
</g>
<path fill-rule="evenodd" clip-rule="evenodd" d="M40.2424 197.345C22.2766 181.699 8.0508 168.347 20.3196 149.742C32.5884 131.137 61.1352 124.882 66.4712 147.498C66.4712 157.202 58.7811 162.386 58.7811 162.386C58.7811 162.386 57.3424 165.114 61.1352 168.007C64.928 170.901 61.1352 173.292 61.1352 173.292C61.1352 173.292 53.6456 168.804 51.6898 174.781C49.7339 180.758 56.9534 182.897 56.9534 184.393C59.4418 189.891 54.3061 194.921 54.3061 194.921C54.3061 194.921 51.677 197.345 40.2424 197.345Z" fill="url(#paint29_linear)"/>
<path fill-rule="evenodd" clip-rule="evenodd" d="M21.7112 218.45C21.7112 218.45 2.47921 249.884 0.158821 256.801C-2.16157 263.718 21.7112 267.718 21.7112 267.718L31.6733 228.177L21.7112 218.45Z" fill="url(#paint30_linear)"/>
<path fill-rule="evenodd" clip-rule="evenodd" d="M63.2585 207.629C63.2585 207.629 77.7435 211.19 86.2788 220.601C94.8141 230.012 92.912 258.325 95.3295 275.176C97.7471 292.027 108.266 304.276 92.0181 313.786C75.7701 323.295 29.8303 321.136 26.0734 313.786C22.3164 306.435 18.0342 261.26 18.0342 261.26C18.0342 261.26 18.0342 220.601 23.1658 217.174C28.2974 213.746 40.2769 207.122 40.2769 207.122C40.2769 207.122 40.0083 208.13 45.7871 209.129C51.5658 210.128 63.2585 207.629 63.2585 207.629Z" fill="#D6E3FA"/>
<mask id="mask5" mask-type="alpha" maskUnits="userSpaceOnUse" x="18" y="207" width="83" height="114">
<path fill-rule="evenodd" clip-rule="evenodd" d="M63.2585 207.629C63.2585 207.629 77.7435 211.19 86.2788 220.601C94.8141 230.012 92.912 258.325 95.3295 275.176C97.7471 292.027 108.266 304.276 92.0181 313.786C75.7701 323.295 29.8303 321.136 26.0734 313.786C22.3164 306.435 18.0342 261.26 18.0342 261.26C18.0342 261.26 18.0342 220.601 23.1658 217.174C28.2974 213.746 40.2769 207.122 40.2769 207.122C40.2769 207.122 40.0083 208.13 45.7871 209.129C51.5658 210.128 63.2585 207.629 63.2585 207.629Z" fill="white"/>
</mask>
<g mask="url(#mask5)">
<path opacity="0.5" fill-rule="evenodd" clip-rule="evenodd" d="M75.2893 239.792C75.2893 239.792 83.1024 273.819 87.8039 280.196C92.5054 286.574 95.5624 305.874 99.3255 308.175C103.089 310.476 108.495 284.149 105.792 275.136C103.089 266.122 90.9052 244.043 90.9052 244.043L75.2893 239.792Z" fill="url(#paint31_linear)"/>
<path opacity="0.5" fill-rule="evenodd" clip-rule="evenodd" d="M43.7175 209.453C47.1948 211.602 56.2553 212.765 63.8711 212.765C71.4869 212.765 73.8689 212.84 77.5129 211.807C81.1569 210.773 79.744 209.453 77.5129 209.453C75.2818 209.453 68.3616 207.937 64.637 207.937C60.9123 207.937 40.2402 207.304 43.7175 209.453Z" fill="url(#paint32_linear)"/>
</g>
<path fill-rule="evenodd" clip-rule="evenodd" d="M39.6181 207.629C39.6181 207.629 39.17 202.424 39.17 200.746C39.17 199.067 54.173 201.437 64.9697 202.378C66.1412 206.565 65.9338 206.842 65.9338 207.629C65.9338 208.022 63.2375 211.39 48.7309 210.298C43.4355 209.899 39.6181 207.629 39.6181 207.629Z" fill="#E1ECFF"/>
<path fill-rule="evenodd" clip-rule="evenodd" d="M114.629 247.904C117.865 241.132 119.696 230.672 116.268 229.25C112.839 227.828 107.978 235.043 104.742 241.814C101.506 248.586 103.516 252.973 105.5 254.799C107.725 255.227 111.393 254.676 114.629 247.904Z" fill="#A1B8E3"/>
<path fill-rule="evenodd" clip-rule="evenodd" d="M110.812 227.662L125.984 233.481C125.984 233.481 139.44 200.028 140.256 195.686C141.073 191.345 137.455 185.218 136.871 183.034C136.286 180.849 136.381 175.709 138.014 173.828C139.648 171.947 140.079 172.619 141.299 172.335C142.519 172.052 149.76 157.583 150.581 155.765C151.402 153.948 152.866 152.807 154.355 153.413C155.844 154.018 155.706 155.635 155.117 157.065C154.529 158.496 151.226 166.521 151.6 167.918C151.974 169.315 157.792 171.123 159.415 172.05C161.038 172.978 163.803 176.029 162.421 180.442C161.039 184.855 154.662 192.855 155.117 194.556C155.573 196.257 149.133 225.089 147.084 236.62C145.035 248.151 142.356 256.238 131.895 255.57C121.435 254.903 99.7557 244.065 99.7557 244.065C99.7557 244.065 101.173 235.647 103.881 232.471C106.589 229.295 110.812 227.662 110.812 227.662Z" fill="url(#paint33_linear)"/>
<mask id="mask6" mask-type="alpha" maskUnits="userSpaceOnUse" x="99" y="153" width="64" height="103">
<path fill-rule="evenodd" clip-rule="evenodd" d="M110.812 227.662L125.984 233.481C125.984 233.481 139.44 200.028 140.256 195.686C141.073 191.345 137.455 185.218 136.871 183.034C136.286 180.849 136.381 175.709 138.014 173.828C139.648 171.947 140.079 172.619 141.299 172.335C142.519 172.052 149.76 157.583 150.581 155.765C151.402 153.948 152.866 152.807 154.355 153.413C155.844 154.018 155.706 155.635 155.117 157.065C154.529 158.496 151.226 166.521 151.6 167.918C151.974 169.315 157.792 171.123 159.415 172.05C161.038 172.978 163.803 176.029 162.421 180.442C161.039 184.855 154.662 192.855 155.117 194.556C155.573 196.257 149.133 225.089 147.084 236.62C145.035 248.151 142.356 256.238 131.895 255.57C121.435 254.903 99.7557 244.065 99.7557 244.065C99.7557 244.065 101.173 235.647 103.881 232.471C106.589 229.295 110.812 227.662 110.812 227.662Z" fill="white"/>
</mask>
<g mask="url(#mask6)">
<g opacity="0.5">
<path fill-rule="evenodd" clip-rule="evenodd" d="M115.792 229.209C115.792 229.209 112.576 246.736 114.594 251.893C116.611 257.049 105.545 249.772 105.545 249.772C105.545 249.772 105.76 242.262 107.461 238.849C109.162 235.436 115.792 229.209 115.792 229.209Z" fill="#3D82F0" style="mix-blend-mode:multiply"/>
</g>
<path fill-rule="evenodd" clip-rule="evenodd" d="M125.171 232.853C125.297 232.599 125.619 232.488 125.892 232.604C125.958 232.632 126.028 232.662 126.104 232.693C127.009 233.07 128.606 233.736 130.031 235.575C130.207 235.802 130.152 236.119 129.909 236.282C129.665 236.446 129.326 236.395 129.15 236.168C127.898 234.553 126.531 233.982 125.652 233.615C125.577 233.583 125.506 233.554 125.439 233.525C125.166 233.408 125.046 233.107 125.171 232.853Z" fill="#223762"/>
</g>
<path fill-rule="evenodd" clip-rule="evenodd" d="M105.365 254.748C107.074 246.782 109.536 235.819 116.378 229.257C91.9644 219.449 84.2713 215.971 76.596 212.917C68.9206 209.862 61.9366 229.983 76.596 239.993C91.2554 250.002 101.291 253.071 105.365 254.748Z" fill="url(#paint34_linear)"/>
<path fill-rule="evenodd" clip-rule="evenodd" d="M646.521 361.251V356.258H656.095V362.376L649.678 363.096L646.521 361.251Z" fill="url(#paint35_linear)"/>
<path fill-rule="evenodd" clip-rule="evenodd" d="M697.682 342.58L692.341 338.403L699.045 329.586L703.967 335.445L697.682 342.58Z" fill="url(#paint36_linear)"/>
<path fill-rule="evenodd" clip-rule="evenodd" d="M676.035 269.404C676.035 269.404 678.261 295.976 679.839 299.92C681.417 303.864 700.548 330.146 700.548 330.146C700.548 330.146 699.56 333.255 697.511 335.525C695.585 337.659 693.583 338.891 692.04 339.844C688.292 336.872 663.852 311.93 663.852 311.93C663.852 311.93 661.787 298.288 663.852 290.817C665.916 283.346 676.035 269.404 676.035 269.404Z" fill="url(#paint37_linear)"/>
<path fill-rule="evenodd" clip-rule="evenodd" d="M638.998 245.887C638.998 247.437 641.371 254.157 642.106 262.364C642.623 268.143 641.477 274.659 641.821 280.628C642.652 295.073 646.474 357.253 646.474 357.253C646.474 357.253 649.08 359.149 652.018 359.585C654.956 360.021 659.769 358.763 659.769 358.763C659.769 358.763 665.302 316.254 667.977 305.866C669.264 300.865 668.161 289.956 672.889 281.659C675.064 277.842 676.691 273.023 677.813 268.932C679.345 263.352 678.706 257.474 676.708 252.042L671.775 238.629C671.775 238.629 638.998 243.246 638.998 245.887Z" fill="url(#paint38_linear)"/>
<mask id="mask7" mask-type="alpha" maskUnits="userSpaceOnUse" x="638" y="238" width="41" height="122">
<path fill-rule="evenodd" clip-rule="evenodd" d="M638.998 245.887C638.998 247.437 641.371 254.157 642.106 262.364C642.623 268.143 641.477 274.659 641.821 280.628C642.652 295.073 646.474 357.253 646.474 357.253C646.474 357.253 649.08 359.149 652.018 359.585C654.956 360.021 659.769 358.763 659.769 358.763C659.769 358.763 665.302 316.254 667.977 305.866C669.264 300.865 668.161 289.956 672.889 281.659C675.064 277.842 676.691 273.023 677.813 268.932C679.345 263.352 678.706 257.474 676.708 252.042L671.775 238.629C671.775 238.629 638.998 243.246 638.998 245.887Z" fill="white"/>
</mask>
<g mask="url(#mask7)">
<g opacity="0.5">
<path fill-rule="evenodd" clip-rule="evenodd" d="M640.674 247.737C645.954 249.2 665.68 250.112 674.358 245.041C683.036 239.97 652.907 241.621 652.907 241.621C652.907 241.621 635.394 246.275 640.674 247.737Z" fill="url(#paint39_linear)" style="mix-blend-mode:multiply"/>
</g>
<g opacity="0.5">
<path fill-rule="evenodd" clip-rule="evenodd" d="M659.515 268.72C657.803 268.252 656.229 268.07 654.824 266.387C653.74 265.091 652.676 262.978 652.676 260.204C652.676 253.831 654.375 250.939 654.375 250.939" fill="url(#paint40_linear)" style="mix-blend-mode:multiply"/>
</g>
</g>
<path fill-rule="evenodd" clip-rule="evenodd" d="M710.575 345.44C710.575 345.44 707.46 340.302 705.496 337.961C703.531 335.62 701.967 333.755 701.967 333.755C701.967 333.755 701.292 336.524 699.583 338.021C698.077 339.34 697.586 339.697 694.51 340.013C692.698 343.767 691.43 351.374 687.765 358.347C687.405 360.083 688.382 361.397 689.124 362.114C689.542 362.517 690.179 362.476 690.626 362.105L698.849 355.279L702.523 347.495L705.428 349.759L710.575 345.44Z" fill="url(#paint41_radial)"/>
<path fill-rule="evenodd" clip-rule="evenodd" d="M655.183 375.104C655.183 375.104 656.095 368.779 656.095 365.524C656.095 362.269 656.095 359.677 656.095 359.677C656.095 359.677 653.808 361.474 651.547 361.526C649.554 361.571 648.951 361.526 646.403 359.677C642.617 361.5 633.946 367.187 626.688 370.367C626.688 371.606 627.187 373.4 627.53 374.487C627.71 375.057 628.222 375.421 628.784 375.406L639.942 375.104L647.726 371.269L648.493 375.104H655.183Z" fill="url(#paint42_radial)"/>
<path fill-rule="evenodd" clip-rule="evenodd" d="M617.13 144.978C617.481 146.056 620.612 148.941 621.375 152.173C621.829 154.096 621.487 156.023 621.487 157.507C621.487 161.488 622.829 161.336 625.682 160.734C628.353 162.286 628.817 165.765 631.801 167.574C634.785 169.384 639.939 162.838 641.639 164.703C642.195 165.312 642.513 166.477 643.626 167.574C644.785 168.717 644.153 173.659 644.153 173.659C644.153 173.659 654.261 172.205 655.411 166.906C654.169 164.448 651.292 156.811 651.292 154.727C651.292 152.643 656.045 144.694 643.093 136.981C630.14 129.268 616.57 143.258 617.13 144.978Z" fill="url(#paint43_linear)"/>
<mask id="mask8" mask-type="alpha" maskUnits="userSpaceOnUse" x="617" y="134" width="39" height="40">
<path fill-rule="evenodd" clip-rule="evenodd" d="M617.13 144.978C617.481 146.056 620.612 148.941 621.375 152.173C621.829 154.096 621.487 156.023 621.487 157.507C621.487 161.488 622.829 161.336 625.682 160.734C628.353 162.286 628.817 165.765 631.801 167.574C634.785 169.384 639.939 162.838 641.639 164.703C642.195 165.312 642.513 166.477 643.626 167.574C644.785 168.717 644.153 173.659 644.153 173.659C644.153 173.659 654.261 172.205 655.411 166.906C654.169 164.448 651.292 156.811 651.292 154.727C651.292 152.643 656.045 144.694 643.093 136.981C630.14 129.268 616.57 143.258 617.13 144.978Z" fill="white"/>
</mask>
<g mask="url(#mask8)">
<g opacity="0.5">
<path fill-rule="evenodd" clip-rule="evenodd" d="M638.654 165.876C640.791 164.443 643.65 159.674 643.65 159.306C643.65 158.938 645.153 170.924 645.153 170.924C645.153 170.924 636.517 167.31 638.654 165.876Z" fill="#3D82F0" style="mix-blend-mode:multiply"/>
</g>
<path fill-rule="evenodd" clip-rule="evenodd" d="M629.411 161.574C629.461 161.739 629.36 161.911 629.185 161.958C627.864 162.316 627.093 162.908 626.637 163.898C626.564 164.055 626.37 164.127 626.203 164.059C626.036 163.991 625.959 163.808 626.031 163.651C626.581 162.459 627.531 161.76 629.002 161.361C629.177 161.314 629.36 161.409 629.411 161.574Z" fill="#223762"/>
</g>
<path fill-rule="evenodd" clip-rule="evenodd" d="M597.636 205.396C595.111 203.103 591.986 202.316 590.024 199.184C588.063 196.051 582.364 185.522 583.846 184.161C585.328 182.8 589.037 179.131 590.436 179.131C591.835 179.131 594.407 184.696 595.687 187.228C596.966 189.76 599.12 195.156 599.12 197.383C599.12 199.611 600.161 207.69 597.636 205.396Z" fill="url(#paint44_linear)"/>
<path fill-rule="evenodd" clip-rule="evenodd" d="M580.442 177.872C579.917 176.913 580.216 175.703 581.123 175.112L586.971 171.306C588.117 170.559 589.643 170.945 590.314 172.151L599.751 189.104C600.288 190.069 599.985 191.295 599.063 191.885L592.773 195.91C591.786 196.542 590.482 196.202 589.914 195.165L580.442 177.872Z" fill="#223762"/>
<path fill-rule="evenodd" clip-rule="evenodd" d="M582.361 176.253C582.1 175.765 582.257 175.148 582.717 174.859L588.736 171.074C589.217 170.771 589.842 170.942 590.119 171.451L599.203 188.138C599.471 188.63 599.311 189.255 598.843 189.544L592.669 193.347C592.186 193.645 591.563 193.469 591.29 192.959L582.361 176.253Z" fill="url(#paint45_linear)"/>
<path fill-rule="evenodd" clip-rule="evenodd" d="M630.837 206.519C630.837 206.519 619.583 221.41 619.022 221.41C618.461 221.41 605.537 202.055 605.537 201.171C605.537 200.287 606.459 196.822 603.901 193.125C601.343 189.428 599.782 182.953 598.436 181.8C597.09 180.647 597.081 180.144 596.404 180.768C595.728 181.392 595.771 181.927 596.404 183.288C597.037 184.65 598.436 188.563 598.436 189.57C598.436 190.577 597.789 194.165 598.436 195.531C599.083 196.897 598.465 202.213 599.268 204.921C600.072 207.63 614.641 235.106 618.916 234.516C623.191 233.926 638.292 217.628 638.292 217.628C638.292 217.628 640.631 210.446 636.793 207.759C632.954 205.073 630.837 206.519 630.837 206.519Z" fill="url(#paint46_linear)"/>
<mask id="mask9" mask-type="alpha" maskUnits="userSpaceOnUse" x="595" y="180" width="44" height="55">
<path fill-rule="evenodd" clip-rule="evenodd" d="M630.837 206.519C630.837 206.519 619.583 221.41 619.022 221.41C618.461 221.41 605.537 202.055 605.537 201.171C605.537 200.287 606.459 196.822 603.901 193.125C601.343 189.428 599.782 182.953 598.436 181.8C597.09 180.647 597.081 180.144 596.404 180.768C595.728 181.392 595.771 181.927 596.404 183.288C597.037 184.65 598.436 188.563 598.436 189.57C598.436 190.577 597.789 194.165 598.436 195.531C599.083 196.897 598.465 202.213 599.268 204.921C600.072 207.63 614.641 235.106 618.916 234.516C623.191 233.926 638.292 217.628 638.292 217.628C638.292 217.628 640.631 210.446 636.793 207.759C632.954 205.073 630.837 206.519 630.837 206.519Z" fill="white"/>
</mask>
<g mask="url(#mask9)">
<g opacity="0.5">
<path fill-rule="evenodd" clip-rule="evenodd" d="M628.056 207.225C628.056 207.225 631.536 211.5 634.477 214.466C636.154 218.757 634.872 221.933 636.154 221.49C637.436 221.047 639.892 209.076 638.664 207.225C638.145 206.444 634.398 203.294 631.536 203.806C629.876 204.103 628.056 207.225 628.056 207.225Z" fill="#3D82F0" style="mix-blend-mode:multiply"/>
</g>
<path fill-rule="evenodd" clip-rule="evenodd" d="M618.533 220.282C618.609 220.14 618.744 220.124 618.832 220.246C618.92 220.368 619.005 220.55 619.084 220.746C619.165 220.948 619.249 221.189 619.333 221.447C619.495 221.944 619.663 222.524 619.813 223.044C619.818 223.063 619.824 223.082 619.829 223.101C619.879 223.271 619.832 223.473 619.726 223.552C619.619 223.631 619.493 223.556 619.444 223.386C619.439 223.369 619.434 223.352 619.429 223.335C619.278 222.811 619.114 222.244 618.957 221.761C618.876 221.512 618.798 221.291 618.727 221.114C618.653 220.93 618.595 220.816 618.555 220.761C618.466 220.638 618.456 220.424 618.533 220.282Z" fill="#223762"/>
</g>
<path fill-rule="evenodd" clip-rule="evenodd" d="M636.037 211.957C630.648 208.23 624.401 201.381 627.524 198.351C630.648 195.32 642.449 180.511 644.885 177.412C647.322 174.313 650.474 193.741 647.101 198.351C643.728 202.961 640.635 208.136 636.037 211.957Z" fill="url(#paint47_linear)"/>
<path fill-rule="evenodd" clip-rule="evenodd" d="M637.416 245.588C636.744 240.767 640.844 226.157 637.09 217.474C635.473 213.734 633.019 210.714 632.857 206.532C632.631 200.751 635.253 193.983 636.744 191.108C642.47 180.068 642.337 173.932 643.995 172.184C646.392 172.184 652.825 170.358 655.188 166.82C657.839 168.312 667.026 178.937 669.808 184.852C672.591 190.767 671.704 208.97 671.704 219.87C671.704 230.769 673.192 237.94 673.192 240.767C673.192 243.594 638.394 252.603 637.416 245.588Z" fill="url(#paint48_linear)"/>
<path fill-rule="evenodd" clip-rule="evenodd" d="M655.017 246.151C655.017 246.151 657.853 237.758 657.853 234.428C657.853 231.097 653.598 206.666 655.017 203.939C656.435 201.213 665.67 228.873 665.67 228.873C665.67 228.873 661.741 240.497 660.436 243.198C659.131 245.899 655.017 246.151 655.017 246.151Z" fill="url(#paint49_linear)" style="mix-blend-mode:multiply"/>
<path fill-rule="evenodd" clip-rule="evenodd" d="M630.477 143.245C621.723 138.297 618.948 147.306 617.668 146.161C614.288 141.781 616.073 136.802 617.668 132.642C620.352 125.646 636.76 114.103 649.694 126.438C662.627 138.773 651.961 159.982 651.961 159.982C651.961 159.982 648.705 158.728 647.878 155.295C647.052 151.862 639.395 150.293 639.395 150.293C639.395 150.293 641.541 146.904 639.395 144.847C637.249 142.791 636.318 143.458 635.657 144.144C634.974 144.48 634.896 147.506 634.896 147.506C634.896 147.506 632.169 144.144 630.477 143.245Z" fill="url(#paint50_radial)"/>
<path fill-rule="evenodd" clip-rule="evenodd" d="M654.853 150.542C654.853 151.596 657.183 154.762 661.357 154.762C665.53 154.762 678.022 151.495 682.163 161.706C686.304 171.916 680.588 172.396 687.333 179.771C694.078 187.146 694.336 207.112 677.846 202.337C661.357 197.563 663.956 175.859 663.956 170.069C663.956 164.278 657.758 162.209 652.197 160.903C649.167 154.762 654.853 149.488 654.853 150.542Z" fill="#223762"/>
<mask id="mask10" mask-type="alpha" maskUnits="userSpaceOnUse" x="651" y="150" width="41" height="54">
<path fill-rule="evenodd" clip-rule="evenodd" d="M654.853 150.542C654.853 151.596 657.183 154.762 661.357 154.762C665.53 154.762 678.022 151.495 682.163 161.706C686.304 171.916 680.588 172.396 687.333 179.771C694.078 187.146 694.336 207.112 677.846 202.337C661.357 197.563 663.956 175.859 663.956 170.069C663.956 164.278 657.758 162.209 652.197 160.903C649.167 154.762 654.853 149.488 654.853 150.542Z" fill="white"/>
</mask>
<g mask="url(#mask10)">
<g opacity="0.3">
<path fill-rule="evenodd" clip-rule="evenodd" d="M652.562 159.958C657.018 158.709 666.761 158.765 669.62 164.346C672.479 169.926 677.207 195.121 666.684 196.204C656.161 197.287 648.106 161.207 652.562 159.958Z" fill="#223762" style="mix-blend-mode:multiply"/>
</g>
<path fill-rule="evenodd" clip-rule="evenodd" d="M658.029 150.923C658.292 151.393 658.099 151.976 657.599 152.223C654.217 153.893 654.039 157.306 654.039 159.702C654.039 160.234 653.581 160.665 653.016 160.665C652.45 160.665 651.992 160.234 651.992 159.702C651.992 157.413 652.067 152.78 656.647 150.518C657.147 150.27 657.766 150.452 658.029 150.923Z" fill="#D6E3FA"/>
</g>
<path fill-rule="evenodd" clip-rule="evenodd" d="M660.394 234.197C659.342 229.687 653.254 205.567 654.645 199.517C656.036 193.467 666.739 190.53 667.859 197.684C668.764 203.474 671.443 226.202 672.432 234.663C672.677 236.756 672.328 238.869 671.429 240.773L662.201 260.316L658.289 268.036C658.289 268.036 654.645 267.427 652.947 262.755C652.393 261.232 652.736 259.465 653.528 257.64C656.932 249.793 661.247 237.857 660.394 234.197Z" fill="url(#paint51_linear)"/>
<mask id="mask11" mask-type="alpha" maskUnits="userSpaceOnUse" x="652" y="193" width="21" height="76">
<path fill-rule="evenodd" clip-rule="evenodd" d="M660.394 234.197C659.342 229.687 653.254 205.567 654.645 199.517C656.036 193.467 666.739 190.53 667.859 197.684C668.764 203.474 671.443 226.202 672.432 234.663C672.677 236.756 672.328 238.869 671.429 240.773L662.201 260.316L658.289 268.036C658.289 268.036 654.645 267.427 652.947 262.755C652.393 261.232 652.736 259.465 653.528 257.64C656.932 249.793 661.247 237.857 660.394 234.197Z" fill="white"/>
</mask>
<g mask="url(#mask11)">
<g opacity="0.5">
<path fill-rule="evenodd" clip-rule="evenodd" d="M656 208.31C659.923 209.272 666.929 209.756 669.992 208.31C673.055 206.863 669.024 202.383 669.024 202.383C669.024 202.383 652.078 207.347 656 208.31Z" fill="#3D82F0" style="mix-blend-mode:multiply"/>
</g>
</g>
<path fill-rule="evenodd" clip-rule="evenodd" d="M651.967 205.345C650.239 200.248 647.021 179.511 655.801 177.231C664.581 174.952 669.773 198.961 669.773 201.222C669.773 203.484 653.695 210.441 651.967 205.345Z" fill="url(#paint52_linear)"/>
<path fill-rule="evenodd" clip-rule="evenodd" d="M640.847 193.663C640.952 193.07 641.55 192.7 642.128 192.873L646.983 194.329C647.472 194.476 647.774 194.965 647.686 195.468L645.695 206.755C645.615 207.213 645.23 207.557 644.766 207.585L641.758 207.77C641.458 207.789 641.165 207.672 640.96 207.452L639.163 205.525C638.947 205.294 638.852 204.975 638.907 204.663L640.847 193.663Z" fill="url(#paint53_linear)"/>
<path fill-rule="evenodd" clip-rule="evenodd" d="M586.842 153.829C587.548 153.791 588.163 154.177 588.216 154.691L589.071 163.084C589.123 163.597 588.593 164.045 587.886 164.083C587.18 164.121 586.565 163.735 586.513 163.222L585.658 154.828C585.606 154.315 586.136 153.868 586.842 153.829Z" fill="url(#paint54_linear)"/>
<path fill-rule="evenodd" clip-rule="evenodd" d="M597.895 153.885C598.493 154.064 598.798 154.601 598.576 155.084L594.73 163.476C594.509 163.959 593.845 164.206 593.247 164.027C592.649 163.848 592.344 163.312 592.566 162.829L596.412 154.436C596.634 153.953 597.297 153.706 597.895 153.885Z" fill="url(#paint55_linear)"/>
<path fill-rule="evenodd" clip-rule="evenodd" d="M605.271 161.777C605.623 162.257 605.536 162.944 605.079 163.311L597.593 169.33C597.136 169.697 596.48 169.607 596.129 169.128C595.778 168.648 595.864 167.961 596.322 167.593L603.807 161.575C604.265 161.207 604.92 161.298 605.271 161.777Z" fill="url(#paint56_linear)"/>
<path opacity="0.460603" fill-rule="evenodd" clip-rule="evenodd" d="M582.235 175.691L630.083 137.413L648.572 170.663L592.226 193.492L582.235 175.691Z" fill="url(#paint57_linear)"/>
<defs>
<filter id="filter0_i" x="40.7045" y="279.744" width="210.796" height="123.38" filterUnits="userSpaceOnUse" color-interpolation-filters="sRGB">
<feFlood flood-opacity="0" result="BackgroundImageFix"/>
<feBlend mode="normal" in="SourceGraphic" in2="BackgroundImageFix" result="shape"/>
<feColorMatrix in="SourceAlpha" type="matrix" values="0 0 0 0 0 0 0 0 0 0 0 0 0 0 0 0 0 0 127 0" result="hardAlpha"/>
<feOffset dy="-14"/>
<feGaussianBlur stdDeviation="12.5"/>
<feComposite in2="hardAlpha" operator="arithmetic" k2="-1" k3="1"/>
<feColorMatrix type="matrix" values="0 0 0 0 0.788056 0 0 0 0 0.827193 0 0 0 0 0.89764 0 0 0 0.337126 0"/>
<feBlend mode="normal" in2="shape" result="effect1_innerShadow"/>
</filter>
<filter id="filter1_d" x="418.534" y="313.69" width="66.5407" height="59.6169" filterUnits="userSpaceOnUse" color-interpolation-filters="sRGB">
<feFlood flood-opacity="0" result="BackgroundImageFix"/>
<feColorMatrix in="SourceAlpha" type="matrix" values="0 0 0 0 0 0 0 0 0 0 0 0 0 0 0 0 0 0 127 0"/>
<feOffset dx="-1" dy="2"/>
<feGaussianBlur stdDeviation="9.5"/>
<feColorMatrix type="matrix" values="0 0 0 0 0.563271 0 0 0 0 0.0744316 0 0 0 0 0.0744316 0 0 0 0.5 0"/>
<feBlend mode="normal" in2="BackgroundImageFix" result="effect1_dropShadow"/>
<feBlend mode="normal" in="SourceGraphic" in2="effect1_dropShadow" result="shape"/>
</filter>
<filter id="filter2_d" x="471.356" y="319.654" width="66.5407" height="59.6168" filterUnits="userSpaceOnUse" color-interpolation-filters="sRGB">
<feFlood flood-opacity="0" result="BackgroundImageFix"/>
<feColorMatrix in="SourceAlpha" type="matrix" values="0 0 0 0 0 0 0 0 0 0 0 0 0 0 0 0 0 0 127 0"/>
<feOffset dx="-1" dy="2"/>
<feGaussianBlur stdDeviation="9.5"/>
<feColorMatrix type="matrix" values="0 0 0 0 0.563271 0 0 0 0 0.0744316 0 0 0 0 0.0744316 0 0 0 0.5 0"/>
<feBlend mode="normal" in2="BackgroundImageFix" result="effect1_dropShadow"/>
<feBlend mode="normal" in="SourceGraphic" in2="effect1_dropShadow" result="shape"/>
</filter>
<filter id="filter3_d" x="435.574" y="315.82" width="66.5407" height="59.6167" filterUnits="userSpaceOnUse" color-interpolation-filters="sRGB">
<feFlood flood-opacity="0" result="BackgroundImageFix"/>
<feColorMatrix in="SourceAlpha" type="matrix" values="0 0 0 0 0 0 0 0 0 0 0 0 0 0 0 0 0 0 127 0"/>
<feOffset dx="-1" dy="2"/>
<feGaussianBlur stdDeviation="9.5"/>
<feColorMatrix type="matrix" values="0 0 0 0 0.563271 0 0 0 0 0.0744316 0 0 0 0 0.0744316 0 0 0 0.5 0"/>
<feBlend mode="normal" in2="BackgroundImageFix" result="effect1_dropShadow"/>
<feBlend mode="normal" in="SourceGraphic" in2="effect1_dropShadow" result="shape"/>
</filter>
<filter id="filter4_d" x="424.498" y="311.003" width="69.8608" height="64.2444" filterUnits="userSpaceOnUse" color-interpolation-filters="sRGB">
<feFlood flood-opacity="0" result="BackgroundImageFix"/>
<feColorMatrix in="SourceAlpha" type="matrix" values="0 0 0 0 0 0 0 0 0 0 0 0 0 0 0 0 0 0 127 0"/>
<feOffset dx="-1" dy="2"/>
<feGaussianBlur stdDeviation="9.5"/>
<feColorMatrix type="matrix" values="0 0 0 0 0.563271 0 0 0 0 0.0744316 0 0 0 0 0.0744316 0 0 0 0.5 0"/>
<feBlend mode="normal" in2="BackgroundImageFix" result="effect1_dropShadow"/>
<feBlend mode="normal" in="SourceGraphic" in2="effect1_dropShadow" result="shape"/>
</filter>
<filter id="filter5_d" x="448.19" y="299.812" width="66.9136" height="60.1117" filterUnits="userSpaceOnUse" color-interpolation-filters="sRGB">
<feFlood flood-opacity="0" result="BackgroundImageFix"/>
<feColorMatrix in="SourceAlpha" type="matrix" values="0 0 0 0 0 0 0 0 0 0 0 0 0 0 0 0 0 0 127 0"/>
<feOffset dx="-1" dy="2"/>
<feGaussianBlur stdDeviation="9.5"/>
<feColorMatrix type="matrix" values="0 0 0 0 0.563271 0 0 0 0 0.0744316 0 0 0 0 0.0744316 0 0 0 0.5 0"/>
<feBlend mode="normal" in2="BackgroundImageFix" result="effect1_dropShadow"/>
<feBlend mode="normal" in="SourceGraphic" in2="effect1_dropShadow" result="shape"/>
</filter>
<filter id="filter6_d" x="447.682" y="313.148" width="67.9791" height="61.5547" filterUnits="userSpaceOnUse" color-interpolation-filters="sRGB">
<feFlood flood-opacity="0" result="BackgroundImageFix"/>
<feColorMatrix in="SourceAlpha" type="matrix" values="0 0 0 0 0 0 0 0 0 0 0 0 0 0 0 0 0 0 127 0"/>
<feOffset dx="-1" dy="2"/>
<feGaussianBlur stdDeviation="9.5"/>
<feColorMatrix type="matrix" values="0 0 0 0 0.563271 0 0 0 0 0.0744316 0 0 0 0 0.0744316 0 0 0 0.5 0"/>
<feBlend mode="normal" in2="BackgroundImageFix" result="effect1_dropShadow"/>
<feBlend mode="normal" in="SourceGraphic" in2="effect1_dropShadow" result="shape"/>
</filter>
<filter id="filter7_d" x="464.966" y="307.169" width="72.8655" height="69.3563" filterUnits="userSpaceOnUse" color-interpolation-filters="sRGB">
<feFlood flood-opacity="0" result="BackgroundImageFix"/>
<feColorMatrix in="SourceAlpha" type="matrix" values="0 0 0 0 0 0 0 0 0 0 0 0 0 0 0 0 0 0 127 0"/>
<feOffset dx="-1" dy="2"/>
<feGaussianBlur stdDeviation="9.5"/>
<feColorMatrix type="matrix" values="0 0 0 0 0.563271 0 0 0 0 0.0744316 0 0 0 0 0.0744316 0 0 0 0.5 0"/>
<feBlend mode="normal" in2="BackgroundImageFix" result="effect1_dropShadow"/>
<feBlend mode="normal" in="SourceGraphic" in2="effect1_dropShadow" result="shape"/>
</filter>
<linearGradient id="paint0_linear" x1="180.828" y1="388.712" x2="191.862" y2="314.179" gradientUnits="userSpaceOnUse">
<stop stop-color="#ECF1FF"/>
<stop offset="1" stop-color="white"/>
</linearGradient>
<radialGradient id="paint1_radial" cx="0" cy="0" r="1" gradientUnits="userSpaceOnUse" gradientTransform="translate(452.066 97.0994) rotate(118.593) scale(335.396 325.29)">
<stop stop-color="#EDF3FD"/>
<stop offset="0.40887" stop-color="#DCE8FB"/>
<stop offset="1" stop-color="#AEBDD8"/>
</radialGradient>
<linearGradient id="paint2_linear" x1="392.962" y1="186.439" x2="392.962" y2="134.982" gradientUnits="userSpaceOnUse">
<stop stop-color="#FDE76B"/>
<stop offset="1" stop-color="#FAB539"/>
</linearGradient>
<linearGradient id="paint3_linear" x1="413.103" y1="182.999" x2="413.103" y2="143.65" gradientUnits="userSpaceOnUse">
<stop stop-color="#FDE76B"/>
<stop offset="1" stop-color="#FAB539"/>
</linearGradient>
<linearGradient id="paint4_linear" x1="432.841" y1="180.276" x2="432.841" y2="150.512" gradientUnits="userSpaceOnUse">
<stop stop-color="#FDE76B"/>
<stop offset="1" stop-color="#FAB539"/>
</linearGradient>
<linearGradient id="paint5_linear" x1="344.706" y1="369.761" x2="341.955" y2="440.904" gradientUnits="userSpaceOnUse">
<stop stop-color="#9CB4E0"/>
<stop offset="1" stop-color="white" stop-opacity="0.01"/>
</linearGradient>
<linearGradient id="paint6_linear" x1="453.234" y1="317.018" x2="437.239" y2="336.485" gradientUnits="userSpaceOnUse">
<stop stop-color="#FF6B67"/>
<stop offset="1" stop-color="#F05971"/>
</linearGradient>
<linearGradient id="paint7_linear" x1="522.101" y1="338.521" x2="502.407" y2="354.237" gradientUnits="userSpaceOnUse">
<stop stop-color="#FF6B67"/>
<stop offset="1" stop-color="#F05971"/>
</linearGradient>
<linearGradient id="paint8_linear" x1="486.319" y1="334.687" x2="466.625" y2="350.403" gradientUnits="userSpaceOnUse">
<stop stop-color="#FF6B67"/>
<stop offset="1" stop-color="#F05971"/>
</linearGradient>
<linearGradient id="paint9_linear" x1="536.625" y1="326.713" x2="513.901" y2="337.596" gradientUnits="userSpaceOnUse">
<stop stop-color="#FF6B67"/>
<stop offset="1" stop-color="#F05971"/>
</linearGradient>
<linearGradient id="paint10_linear" x1="479.214" y1="311.71" x2="464.732" y2="332.328" gradientUnits="userSpaceOnUse">
<stop stop-color="#FF6B67"/>
<stop offset="1" stop-color="#F05971"/>
</linearGradient>
<linearGradient id="paint11_linear" x1="475.1" y1="329.46" x2="458.435" y2="348.356" gradientUnits="userSpaceOnUse">
<stop stop-color="#FF6B67"/>
<stop offset="1" stop-color="#F05971"/>
</linearGradient>
<linearGradient id="paint12_linear" x1="510.789" y1="319.092" x2="486.433" y2="325.545" gradientUnits="userSpaceOnUse">
<stop stop-color="#FF6B67"/>
<stop offset="1" stop-color="#F05971"/>
</linearGradient>
<linearGradient id="paint13_linear" x1="499.275" y1="319.215" x2="479.31" y2="334.585" gradientUnits="userSpaceOnUse">
<stop stop-color="#FF6B67"/>
<stop offset="1" stop-color="#F05971"/>
</linearGradient>
<linearGradient id="paint14_linear" x1="499.73" y1="334.156" x2="478.988" y2="348.46" gradientUnits="userSpaceOnUse">
<stop stop-color="#FF6B67"/>
<stop offset="1" stop-color="#F05971"/>
</linearGradient>
<linearGradient id="paint15_linear" x1="513.813" y1="324.978" x2="502.214" y2="347.346" gradientUnits="userSpaceOnUse">
<stop stop-color="#FF6B67"/>
<stop offset="1" stop-color="#F05971"/>
</linearGradient>
<linearGradient id="paint16_linear" x1="399.893" y1="345.652" x2="457.683" y2="397.748" gradientUnits="userSpaceOnUse">
<stop stop-color="#85A6DB"/>
<stop offset="1" stop-color="#C6D4EE"/>
</linearGradient>
<linearGradient id="paint17_linear" x1="545.296" y1="373.177" x2="495.556" y2="423.267" gradientUnits="userSpaceOnUse">
<stop stop-color="#EDF3FD"/>
<stop offset="1" stop-color="#D0DAEA"/>
</linearGradient>
<linearGradient id="paint18_linear" x1="520.848" y1="347.752" x2="496.161" y2="376.411" gradientUnits="userSpaceOnUse">
<stop stop-color="#B4C9E7"/>
<stop offset="1" stop-color="#BECFEC" stop-opacity="0.101789"/>
</linearGradient>
<linearGradient id="paint19_linear" x1="400.622" y1="326.43" x2="400.622" y2="372.862" gradientUnits="userSpaceOnUse">
<stop stop-color="#EDF3FD"/>
<stop offset="1" stop-color="#D6E3FA"/>
</linearGradient>
<linearGradient id="paint20_linear" x1="571.729" y1="336.79" x2="566.195" y2="391.397" gradientUnits="userSpaceOnUse">
<stop stop-color="#E5ECF8"/>
<stop offset="1" stop-color="#C6D4EE"/>
</linearGradient>
<linearGradient id="paint21_linear" x1="528.014" y1="153.179" x2="576.259" y2="145.445" gradientUnits="userSpaceOnUse">
<stop stop-color="#FDAE6B"/>
<stop offset="1" stop-color="#FAE539"/>
</linearGradient>
<linearGradient id="paint22_linear" x1="209.096" y1="12.1753" x2="195.892" y2="38.161" gradientUnits="userSpaceOnUse">
<stop stop-color="#CBDAF1"/>
<stop offset="1" stop-color="#9CB3DF"/>
</linearGradient>
<linearGradient id="paint23_linear" x1="20.748" y1="302.632" x2="32.3539" y2="283.461" gradientUnits="userSpaceOnUse">
<stop stop-color="#70B8F9"/>
<stop offset="1" stop-color="#3D82F0"/>
</linearGradient>
<linearGradient id="paint24_linear" x1="24.5273" y1="487.735" x2="38.7517" y2="464.378" gradientUnits="userSpaceOnUse">
<stop stop-color="#47689B"/>
<stop offset="1" stop-color="#223762"/>
</linearGradient>
<linearGradient id="paint25_linear" x1="122.142" y1="497.196" x2="133.446" y2="472.508" gradientUnits="userSpaceOnUse">
<stop stop-color="#47689B"/>
<stop offset="1" stop-color="#223762"/>
</linearGradient>
<linearGradient id="paint26_linear" x1="80.1676" y1="507.584" x2="147.051" y2="344.321" gradientUnits="userSpaceOnUse">
<stop stop-color="#CFDDF3"/>
<stop offset="1" stop-color="#A1B8E3"/>
</linearGradient>
<linearGradient id="paint27_linear" x1="115.759" y1="322.108" x2="115.05" y2="308.632" gradientUnits="userSpaceOnUse">
<stop stop-color="#CFDDF3" stop-opacity="0.477723"/>
<stop offset="1" stop-color="#A1B8E3"/>
</linearGradient>
<linearGradient id="paint28_linear" x1="75.6862" y1="143.36" x2="49.4846" y2="162.33" gradientUnits="userSpaceOnUse">
<stop stop-color="#70B8F9"/>
<stop offset="1" stop-color="#3D82F0"/>
</linearGradient>
<linearGradient id="paint29_linear" x1="26.7839" y1="143.115" x2="49.205" y2="174.842" gradientUnits="userSpaceOnUse">
<stop stop-color="#164898"/>
<stop offset="1" stop-color="#223762"/>
</linearGradient>
<linearGradient id="paint30_linear" x1="2.57512" y1="261.686" x2="27.1869" y2="258.217" gradientUnits="userSpaceOnUse">
<stop stop-color="#EDF3FD"/>
<stop offset="1" stop-color="#D6E3FA"/>
</linearGradient>
<linearGradient id="paint31_linear" x1="94.5804" y1="287.16" x2="110.285" y2="276.414" gradientUnits="userSpaceOnUse">
<stop stop-color="#CFDDF3"/>
<stop offset="1" stop-color="#A1B8E3"/>
</linearGradient>
<linearGradient id="paint32_linear" x1="127.313" y1="218.517" x2="127.117" y2="204.179" gradientUnits="userSpaceOnUse">
<stop stop-color="#CFDDF3"/>
<stop offset="1" stop-color="#A1B8E3"/>
</linearGradient>
<linearGradient id="paint33_linear" x1="215.106" y1="302.449" x2="183.463" y2="166.235" gradientUnits="userSpaceOnUse">
<stop stop-color="#70B8F9"/>
<stop offset="1" stop-color="#3D82F0"/>
</linearGradient>
<linearGradient id="paint34_linear" x1="60.3046" y1="225.199" x2="74.8196" y2="257.141" gradientUnits="userSpaceOnUse">
<stop stop-color="#D6E3FA"/>
<stop offset="1" stop-color="#E3EDFE"/>
</linearGradient>
<linearGradient id="paint35_linear" x1="646.521" y1="356.258" x2="646.521" y2="363.096" gradientUnits="userSpaceOnUse">
<stop stop-color="#003F9B"/>
<stop offset="1" stop-color="#3D82F0"/>
</linearGradient>
<linearGradient id="paint36_linear" x1="692.341" y1="329.586" x2="692.341" y2="342.58" gradientUnits="userSpaceOnUse">
<stop stop-color="#003F9B"/>
<stop offset="1" stop-color="#3D82F0"/>
</linearGradient>
<linearGradient id="paint37_linear" x1="661.389" y1="304.965" x2="686.509" y2="318.176" gradientUnits="userSpaceOnUse">
<stop stop-color="#6A89BB"/>
<stop offset="1" stop-color="#839ED6"/>
</linearGradient>
<linearGradient id="paint38_linear" x1="719.508" y1="169.116" x2="650.415" y2="173.282" gradientUnits="userSpaceOnUse">
<stop stop-color="#CFDDF3"/>
<stop offset="1" stop-color="#A1B8E3"/>
</linearGradient>
<linearGradient id="paint39_linear" x1="682.944" y1="247.239" x2="682.79" y2="242.712" gradientUnits="userSpaceOnUse">
<stop stop-color="#CFDDF3" stop-opacity="0.477723"/>
<stop offset="1" stop-color="#A1B8E3"/>
</linearGradient>
<linearGradient id="paint40_linear" x1="658.916" y1="253.36" x2="652.973" y2="254.938" gradientUnits="userSpaceOnUse">
<stop stop-color="#CFDDF3" stop-opacity="0.174423"/>
<stop offset="1" stop-color="#5477B8"/>
</linearGradient>
<radialGradient id="paint41_radial" cx="0" cy="0" r="1" gradientUnits="userSpaceOnUse" gradientTransform="translate(685.033 357.418) rotate(20.6826) scale(10.8131 32.0716)">
<stop stop-color="#47689B"/>
<stop offset="1" stop-color="#223762"/>
</radialGradient>
<radialGradient id="paint42_radial" cx="0" cy="0" r="1" gradientUnits="userSpaceOnUse" gradientTransform="translate(626.688 367.542) rotate(61.6485) scale(11.634 33.7778)">
<stop stop-color="#47689B"/>
<stop offset="1" stop-color="#223762"/>
</radialGradient>
<linearGradient id="paint43_linear" x1="612.157" y1="171.136" x2="633.135" y2="171.136" gradientUnits="userSpaceOnUse">
<stop stop-color="#70B8F9"/>
<stop offset="1" stop-color="#3D82F0"/>
</linearGradient>
<linearGradient id="paint44_linear" x1="594.807" y1="190.094" x2="590.104" y2="193.647" gradientUnits="userSpaceOnUse">
<stop stop-color="#2F71DA"/>
<stop offset="1" stop-color="#3D82F0"/>
</linearGradient>
<linearGradient id="paint45_linear" x1="599.332" y1="193.492" x2="599.332" y2="170.924" gradientUnits="userSpaceOnUse">
<stop stop-color="#EDF3FD"/>
<stop offset="1" stop-color="white"/>
</linearGradient>
<linearGradient id="paint46_linear" x1="594.512" y1="182.6" x2="594.512" y2="195.995" gradientUnits="userSpaceOnUse">
<stop stop-color="#70B8F9"/>
<stop offset="1" stop-color="#3D82F0"/>
</linearGradient>
<linearGradient id="paint47_linear" x1="631.962" y1="204.084" x2="647.56" y2="199.763" gradientUnits="userSpaceOnUse">
<stop stop-color="#CFDDF3"/>
<stop offset="1" stop-color="#A1B8E3"/>
</linearGradient>
<linearGradient id="paint48_linear" x1="647.59" y1="251.079" x2="683.394" y2="235.932" gradientUnits="userSpaceOnUse">
<stop stop-color="#EDF3FD"/>
<stop offset="1" stop-color="#D6E3FA"/>
</linearGradient>
<linearGradient id="paint49_linear" x1="656.416" y1="275.838" x2="672.093" y2="274.271" gradientUnits="userSpaceOnUse">
<stop stop-color="#D1DEF3" stop-opacity="0.126387"/>
<stop offset="1" stop-color="#A4BAE4"/>
</linearGradient>
<radialGradient id="paint50_radial" cx="0" cy="0" r="1" gradientUnits="userSpaceOnUse" gradientTransform="translate(636.264 121) rotate(90) scale(15.9498 44.789)">
<stop stop-color="#47689B"/>
<stop offset="1" stop-color="#223762"/>
</radialGradient>
<linearGradient id="paint51_linear" x1="673.044" y1="222.085" x2="657.907" y2="221.799" gradientUnits="userSpaceOnUse">
<stop stop-color="#0060C9"/>
<stop offset="1" stop-color="#3D82F0"/>
</linearGradient>
<linearGradient id="paint52_linear" x1="662.665" y1="221.427" x2="682.001" y2="211.751" gradientUnits="userSpaceOnUse">
<stop stop-color="#E3EDFE"/>
<stop offset="1" stop-color="#B8C8E6"/>
</linearGradient>
<linearGradient id="paint53_linear" x1="651.123" y1="190.057" x2="640.309" y2="191.104" gradientUnits="userSpaceOnUse">
<stop stop-color="#D2DFF5" stop-opacity="0.542714"/>
<stop offset="1" stop-color="#C5D5F5"/>
</linearGradient>
<linearGradient id="paint54_linear" x1="586.937" y1="154.759" x2="586.937" y2="163.153" gradientUnits="userSpaceOnUse">
<stop stop-color="#FFB417"/>
<stop offset="1" stop-color="#FECC4C"/>
</linearGradient>
<linearGradient id="paint55_linear" x1="593.648" y1="154.76" x2="593.648" y2="163.152" gradientUnits="userSpaceOnUse">
<stop stop-color="#FFB417"/>
<stop offset="1" stop-color="#FECC4C"/>
</linearGradient>
<linearGradient id="paint56_linear" x1="596.957" y1="162.084" x2="596.957" y2="168.65" gradientUnits="userSpaceOnUse">
<stop stop-color="#FFB417"/>
<stop offset="1" stop-color="#FECC4C"/>
</linearGradient>
<linearGradient id="paint57_linear" x1="612.723" y1="143.539" x2="576.155" y2="177.661" gradientUnits="userSpaceOnUse">
<stop stop-color="white" stop-opacity="0.01"/>
<stop offset="1" stop-color="#4C9CFE"/>
</linearGradient>
</defs>
</svg>
