<svg width="651" height="504" viewBox="0 0 651 504" fill="none" xmlns="http://www.w3.org/2000/svg">
<path opacity="0.7" fill-rule="evenodd" clip-rule="evenodd" d="M44.0821 355.998C58.7659 355.998 70.6696 358.577 70.6696 361.758C70.6696 364.94 58.7659 367.519 44.0821 367.519C29.3983 367.519 17.4946 364.94 17.4946 361.758C17.4946 358.577 29.3983 355.998 44.0821 355.998Z" fill="url(#paint0_linear)"/>
<path fill-rule="evenodd" clip-rule="evenodd" d="M79.5132 328.244C81.5136 331.749 82.634 335.676 82.634 339.823C82.634 354.629 68.3498 366.632 50.7291 366.632C33.1085 366.632 18.8242 354.629 18.8242 339.823C18.8242 335.435 20.0789 331.293 22.3033 327.636C36.4371 329.874 64.5694 329.73 79.5132 328.244Z" fill="url(#paint1_linear)"/>
<mask id="mask0" mask-type="alpha" maskUnits="userSpaceOnUse" x="18" y="327" width="65" height="40">
<path fill-rule="evenodd" clip-rule="evenodd" d="M79.5132 328.244C81.5136 331.749 82.634 335.676 82.634 339.823C82.634 354.629 68.3498 366.632 50.7291 366.632C33.1085 366.632 18.8242 354.629 18.8242 339.823C18.8242 335.435 20.0789 331.293 22.3033 327.636C36.4371 329.874 64.5694 329.73 79.5132 328.244Z" fill="white"/>
</mask>
<g mask="url(#mask0)">
</g>
<path fill-rule="evenodd" clip-rule="evenodd" d="M50.9515 322.32C66.9814 322.32 79.9761 325.395 79.9761 329.188C79.9761 332.981 66.9814 336.056 50.9515 336.056C34.9215 336.056 21.9268 332.981 21.9268 329.188C21.9268 325.395 34.9215 322.32 50.9515 322.32Z" fill="url(#paint2_linear)"/>
<mask id="mask1" mask-type="alpha" maskUnits="userSpaceOnUse" x="21" y="322" width="59" height="15">
<path fill-rule="evenodd" clip-rule="evenodd" d="M50.9515 322.32C66.9814 322.32 79.9761 325.395 79.9761 329.188C79.9761 332.981 66.9814 336.056 50.9515 336.056C34.9215 336.056 21.9268 332.981 21.9268 329.188C21.9268 325.395 34.9215 322.32 50.9515 322.32Z" fill="white"/>
</mask>
<g mask="url(#mask1)">
</g>
<g filter="url(#filter0_i)">
<path fill-rule="evenodd" clip-rule="evenodd" d="M48.513 324.092C46.9279 313.123 42.5675 297.283 29.4586 280.222C21.7366 270.173 21.7114 245.699 20.5962 243C26.6555 245.084 37.5405 250.455 48.513 265.599C60.0152 281.475 52.7183 313.852 48.513 324.092Z" fill="url(#paint3_linear)"/>
</g>
<mask id="mask2" mask-type="alpha" maskUnits="userSpaceOnUse" x="20" y="243" width="35" height="82">
<path fill-rule="evenodd" clip-rule="evenodd" d="M48.513 324.092C46.9279 313.123 42.5675 297.283 29.4586 280.222C21.7366 270.173 21.7114 245.699 20.5962 243C26.6555 245.084 37.5405 250.455 48.513 265.599C60.0152 281.475 52.7183 313.852 48.513 324.092Z" fill="white"/>
</mask>
<g mask="url(#mask2)">
<g style="mix-blend-mode:multiply" opacity="0.5">
<path fill-rule="evenodd" clip-rule="evenodd" d="M48.0693 324.092C49.2789 297.428 45.9591 280.599 35.5215 264.713Z" fill="black" fill-opacity="0.01"/>
</g>
</g>
<g filter="url(#filter1_i)">
<path fill-rule="evenodd" clip-rule="evenodd" d="M48.5627 335.351C43.6658 327.519 35.0137 316.904 19.2756 308.297C10.0047 303.228 1.75832 284.572 0 282.889C5.32417 282.442 15.4358 282.881 28.8996 290.744C43.0134 298.987 48.3293 326.129 48.5627 335.351Z" fill="url(#paint4_linear)"/>
</g>
<mask id="mask3" mask-type="alpha" maskUnits="userSpaceOnUse" x="0" y="282" width="49" height="54">
<path fill-rule="evenodd" clip-rule="evenodd" d="M48.5627 335.351C43.6658 327.519 35.0137 316.904 19.2756 308.297C10.0047 303.228 1.75832 284.572 0 282.889C5.32417 282.442 15.4358 282.881 28.8996 290.744C43.0134 298.987 48.3293 326.129 48.5627 335.351Z" fill="white"/>
</mask>
<g mask="url(#mask3)">
<g style="mix-blend-mode:multiply" opacity="0.5">
<path fill-rule="evenodd" clip-rule="evenodd" d="M48.2239 335.5C40.1835 314.759 31.9931 303.041 18.688 294.433Z" fill="black" fill-opacity="0.01"/>
</g>
</g>
<g filter="url(#filter2_i)">
<path fill-rule="evenodd" clip-rule="evenodd" d="M52.0799 336.425C55.941 327.994 63.1815 316.309 77.7408 305.71C86.3173 299.466 92.1102 279.827 93.6431 277.924C88.2818 278.165 78.267 279.907 65.8766 289.472C52.888 299.5 51.1155 327.212 52.0799 336.425Z" fill="url(#paint5_linear)"/>
</g>
<mask id="mask4" mask-type="alpha" maskUnits="userSpaceOnUse" x="51" y="277" width="43" height="60">
<path fill-rule="evenodd" clip-rule="evenodd" d="M52.0799 336.425C55.941 327.994 63.1815 316.309 77.7408 305.71C86.3173 299.466 92.1102 279.827 93.6431 277.924C88.2818 278.165 78.267 279.907 65.8766 289.472C52.888 299.5 51.1155 327.212 52.0799 336.425Z" fill="white"/>
</mask>
<g mask="url(#mask4)">
<g style="mix-blend-mode:multiply" opacity="0.5">
<path fill-rule="evenodd" clip-rule="evenodd" d="M50.9565 336.406C56.2736 314.717 62.911 301.993 75.0466 291.705Z" fill="black" fill-opacity="0.01"/>
</g>
</g>
<path fill-rule="evenodd" clip-rule="evenodd" d="M579.761 355.648H261.255C256.759 355.648 253.114 352.003 253.114 347.507V8.14054C253.114 3.64441 256.759 0 261.255 0H579.761C584.257 0 587.902 3.64441 587.902 8.14054V347.507C587.902 351.988 584.281 355.623 579.761 355.648Z" fill="url(#paint6_radial)"/>
<g opacity="0.1">
<path fill-rule="evenodd" clip-rule="evenodd" d="M533.97 152.638H444.422C441.612 152.638 439.333 150.36 439.333 147.55V64.1078C439.333 61.2978 441.612 59.0198 444.422 59.0198H533.97C536.78 59.0198 539.057 61.2978 539.057 64.1078V147.55C539.057 150.343 536.806 152.611 533.97 152.638Z" fill="#7E9ACA"/>
<path fill-rule="evenodd" clip-rule="evenodd" d="M366.067 236.589H317.732C314.922 236.589 312.644 234.311 312.644 231.501V183.166C312.644 180.356 314.922 178.078 317.732 178.078H366.067C368.877 178.078 371.155 180.356 371.155 183.166V231.501C371.155 234.295 368.904 236.562 366.067 236.589Z" fill="#7E9ACA"/>
<path fill-rule="evenodd" clip-rule="evenodd" d="M366.067 307.821H317.732C314.922 307.821 312.644 305.543 312.644 302.733V254.397C312.644 251.587 314.922 249.309 317.732 249.309H366.067C368.877 249.309 371.155 251.587 371.155 254.397V302.733C371.155 305.526 368.904 307.794 366.067 307.821Z" fill="#7E9ACA"/>
<path fill-rule="evenodd" clip-rule="evenodd" d="M536.004 194.359H381.33C380.488 194.359 379.804 193.676 379.804 192.833V180.622C379.804 179.779 380.488 179.095 381.33 179.095H536.004C536.847 179.095 537.531 179.779 537.531 180.622V192.833C537.531 193.66 536.873 194.334 536.004 194.359Z" fill="#7E9ACA"/>
<path fill-rule="evenodd" clip-rule="evenodd" d="M536.004 265.591H381.33C380.488 265.591 379.804 264.908 379.804 264.065V251.854C379.804 251.011 380.488 250.327 381.33 250.327H536.004C536.847 250.327 537.531 251.011 537.531 251.854V264.065C537.531 264.892 536.873 265.566 536.004 265.591Z" fill="#7E9ACA"/>
<path fill-rule="evenodd" clip-rule="evenodd" d="M500.389 219.799H381.331C380.488 219.799 379.804 219.116 379.804 218.273V206.062C379.804 205.219 380.488 204.535 381.331 204.535H500.389C501.232 204.535 501.915 205.219 501.915 206.062V218.273C501.915 219.1 501.257 219.773 500.389 219.799Z" fill="#7E9ACA"/>
<path fill-rule="evenodd" clip-rule="evenodd" d="M500.389 291.031H381.331C380.488 291.031 379.804 290.347 379.804 289.504V277.293C379.804 276.45 380.488 275.767 381.331 275.767H500.389C501.232 275.767 501.915 276.45 501.915 277.293V289.504C501.915 290.331 501.257 291.005 500.389 291.031Z" fill="#7E9ACA"/>
</g>
<path fill-rule="evenodd" clip-rule="evenodd" d="M528.372 147.042H438.824C436.014 147.042 433.736 144.764 433.736 141.954V58.5111C433.736 55.7011 436.014 53.4231 438.824 53.4231H528.372C531.182 53.4231 533.46 55.7011 533.46 58.5111V141.954C533.46 144.747 531.209 147.014 528.372 147.042Z" fill="white"/>
<path fill-rule="evenodd" clip-rule="evenodd" d="M464.264 134.321H452.561C451.438 134.321 450.526 133.41 450.526 132.286V84.4595C450.526 83.3356 451.438 82.4243 452.561 82.4243H464.264C465.388 82.4243 466.299 83.3356 466.299 84.4595V132.286C466.299 133.394 465.413 134.296 464.264 134.321Z" fill="url(#paint7_linear)"/>
<path fill-rule="evenodd" clip-rule="evenodd" d="M489.703 134.321H478.001C476.877 134.321 475.966 133.625 475.966 132.765V96.1916C475.966 95.3321 476.877 94.6353 478.001 94.6353H489.703C490.827 94.6353 491.738 95.3321 491.738 96.1916V132.765C491.738 133.612 490.853 134.302 489.703 134.321Z" fill="url(#paint8_linear)"/>
<path fill-rule="evenodd" clip-rule="evenodd" d="M514.635 134.321H502.933C501.809 134.321 500.897 133.794 500.897 133.144V105.48C500.897 104.83 501.809 104.302 502.933 104.302H514.635C515.759 104.302 516.67 104.83 516.67 105.48V133.144C516.67 133.785 515.784 134.307 514.635 134.321Z" fill="url(#paint9_linear)"/>
<path fill-rule="evenodd" clip-rule="evenodd" d="M531.933 188.763H377.259C376.416 188.763 375.733 188.08 375.733 187.237V175.026C375.733 174.183 376.416 173.5 377.259 173.5H531.933C532.776 173.5 533.459 174.183 533.459 175.026V187.237C533.459 188.064 532.801 188.738 531.933 188.763Z" fill="white"/>
<path fill-rule="evenodd" clip-rule="evenodd" d="M531.933 259.995H377.259C376.416 259.995 375.733 259.311 375.733 258.468V246.257C375.733 245.414 376.416 244.731 377.259 244.731H531.933C532.776 244.731 533.459 245.414 533.459 246.257V258.468C533.459 259.296 532.801 259.969 531.933 259.995Z" fill="white"/>
<path fill-rule="evenodd" clip-rule="evenodd" d="M496.317 214.203H377.259C376.416 214.203 375.733 213.52 375.733 212.677V200.466C375.733 199.623 376.416 198.939 377.259 198.939H496.317C497.16 198.939 497.844 199.623 497.844 200.466V212.677C497.844 213.504 497.186 214.177 496.317 214.203Z" fill="white"/>
<path fill-rule="evenodd" clip-rule="evenodd" d="M496.317 285.434H377.259C376.416 285.434 375.733 284.751 375.733 283.908V271.697C375.733 270.854 376.416 270.17 377.259 270.17H496.317C497.16 270.17 497.844 270.854 497.844 271.697V283.908C497.844 284.735 497.186 285.408 496.317 285.434Z" fill="white"/>
<path fill-rule="evenodd" clip-rule="evenodd" d="M360.469 230.993H312.133C309.323 230.993 307.045 228.715 307.045 225.905V177.57C307.045 174.76 309.323 172.482 312.133 172.482H360.469C363.279 172.482 365.557 174.76 365.557 177.57V225.905C365.557 228.699 363.306 230.966 360.469 230.993Z" fill="white"/>
<path fill-rule="evenodd" clip-rule="evenodd" d="M360.469 302.225H312.133C309.323 302.225 307.045 299.947 307.045 297.137V248.801C307.045 245.991 309.323 243.713 312.133 243.713H360.469C363.279 243.713 365.557 245.991 365.557 248.801V297.137C365.557 299.93 363.306 302.198 360.469 302.225Z" fill="white"/>
<g opacity="0.6">
<path opacity="0.6" fill-rule="evenodd" clip-rule="evenodd" d="M336.45 219.749C346.382 219.749 354.434 211.698 354.434 201.767C354.434 191.835 346.382 183.784 336.45 183.784C326.517 183.784 318.465 191.835 318.465 201.767C318.465 211.698 326.517 219.749 336.45 219.749Z" fill="url(#paint10_linear)"/>
<mask id="mask5" mask-type="alpha" maskUnits="userSpaceOnUse" x="318" y="183" width="37" height="37">
<path fill-rule="evenodd" clip-rule="evenodd" d="M336.45 219.749C346.382 219.749 354.434 211.698 354.434 201.767C354.434 191.835 346.382 183.784 336.45 183.784C326.517 183.784 318.465 191.835 318.465 201.767C318.465 211.698 326.517 219.749 336.45 219.749Z" fill="white"/>
</mask>
<g mask="url(#mask5)">
<path opacity="0.7" fill-rule="evenodd" clip-rule="evenodd" d="M327.113 213.068C327.113 207.858 331.337 203.634 336.548 203.634V203.634C341.758 203.634 345.982 207.858 345.982 213.068V224.662H327.113V213.068Z" fill="white"/>
<path fill-rule="evenodd" clip-rule="evenodd" d="M336.45 206.582C340.304 206.582 343.428 203.458 343.428 199.605C343.428 195.752 340.304 192.628 336.45 192.628C332.597 192.628 329.473 195.752 329.473 199.605C329.473 203.458 332.597 206.582 336.45 206.582Z" fill="white"/>
</g>
</g>
<g opacity="0.6">
<path opacity="0.6" fill-rule="evenodd" clip-rule="evenodd" d="M336.45 291.686C346.382 291.686 354.434 283.635 354.434 273.704C354.434 263.772 346.382 255.721 336.45 255.721C326.517 255.721 318.465 263.772 318.465 273.704C318.465 283.635 326.517 291.686 336.45 291.686Z" fill="url(#paint11_linear)"/>
<mask id="mask6" mask-type="alpha" maskUnits="userSpaceOnUse" x="318" y="255" width="37" height="37">
<path fill-rule="evenodd" clip-rule="evenodd" d="M336.45 291.686C346.382 291.686 354.434 283.635 354.434 273.704C354.434 263.772 346.382 255.721 336.45 255.721C326.517 255.721 318.465 263.772 318.465 273.704C318.465 283.635 326.517 291.686 336.45 291.686Z" fill="white"/>
</mask>
<g mask="url(#mask6)">
<path opacity="0.7" fill-rule="evenodd" clip-rule="evenodd" d="M327.113 285.005C327.113 279.795 331.337 275.571 336.548 275.571V275.571C341.758 275.571 345.982 279.795 345.982 285.005V296.599H327.113V285.005Z" fill="white"/>
<path fill-rule="evenodd" clip-rule="evenodd" d="M336.45 278.519C340.304 278.519 343.428 275.395 343.428 271.542C343.428 267.689 340.304 264.565 336.45 264.565C332.597 264.565 329.473 267.689 329.473 271.542C329.473 275.395 332.597 278.519 336.45 278.519Z" fill="white"/>
</g>
</g>
<g filter="url(#filter3_d)">
<path fill-rule="evenodd" clip-rule="evenodd" d="M349.612 144.77C374.679 144.77 395 124.452 395 99.3881C395 74.324 374.679 54.0056 349.612 54.0056C324.546 54.0056 304.225 74.324 304.225 99.3881C304.225 124.452 324.546 144.77 349.612 144.77Z" fill="url(#paint12_linear)"/>
<mask id="mask7" mask-type="alpha" maskUnits="userSpaceOnUse" x="304" y="54" width="91" height="91">
<path fill-rule="evenodd" clip-rule="evenodd" d="M349.387 144.904C374.454 144.904 394.774 124.586 394.774 99.5216C394.774 74.4576 374.454 54.1392 349.387 54.1392C324.321 54.1392 304 74.4576 304 99.5216C304 124.586 324.321 144.904 349.387 144.904Z" fill="white"/>
</mask>
<g mask="url(#mask7)">
<path opacity="0.7" fill-rule="evenodd" clip-rule="evenodd" d="M325.993 127.871C325.993 114.698 336.672 104.019 349.845 104.019V104.019C363.017 104.019 373.696 114.698 373.696 127.871V157.274H325.993V127.871Z" fill="white"/>
<path fill-rule="evenodd" clip-rule="evenodd" d="M349.613 111.428C359.333 111.428 367.212 103.55 367.212 93.8312C367.212 84.1125 359.333 76.2339 349.613 76.2339C339.894 76.2339 332.014 84.1125 332.014 93.8312C332.014 103.55 339.894 111.428 349.613 111.428Z" fill="white"/>
</g>
</g>
<path fill-rule="evenodd" clip-rule="evenodd" d="M175.73 242.189C175.73 251.73 167.872 270.426 178.119 275.273C188.367 280.121 197.429 254.945 197.429 254.945C197.429 254.945 196.647 236.458 187.383 236.458C178.119 236.458 175.73 232.649 175.73 242.189Z" fill="url(#paint13_linear)"/>
<mask id="mask8" mask-type="alpha" maskUnits="userSpaceOnUse" x="172" y="235" width="26" height="41">
<path fill-rule="evenodd" clip-rule="evenodd" d="M175.73 242.189C175.73 251.73 167.872 270.426 178.119 275.273C188.367 280.121 197.429 254.945 197.429 254.945C197.429 254.945 196.647 236.458 187.383 236.458C178.119 236.458 175.73 232.649 175.73 242.189Z" fill="white"/>
</mask>
<g mask="url(#mask8)">
<g opacity="0.5">
<path fill-rule="evenodd" clip-rule="evenodd" d="M175.14 246.461C175.966 248.141 187.227 257.024 189.089 259.125C190.952 261.225 191.377 266.716 192.447 266.149C193.516 265.581 192.447 249.476 192.447 249.476C192.447 249.476 174.313 244.782 175.14 246.461Z" fill="#3D82F0" style="mix-blend-mode:multiply"/>
</g>
</g>
<path fill-rule="evenodd" clip-rule="evenodd" d="M194.058 458.511C193.886 463.439 192.398 469.551 193.586 472.043C194.773 474.534 201.038 476.041 203.119 476.114C205.201 476.187 206.019 472.701 209.189 474.619C212.358 476.538 230.786 477.08 232.239 469.794C233.692 462.509 224.351 462.182 220.197 462.037C216.043 461.892 211.714 459.715 205.729 454.247C199.744 448.778 194.231 453.584 194.058 458.511Z" fill="url(#paint14_linear)"/>
<path fill-rule="evenodd" clip-rule="evenodd" d="M214.071 460.19C214.035 460.483 214.243 460.749 214.536 460.785C214.53 460.785 214.53 460.785 214.536 460.787C214.552 460.793 214.605 460.812 214.702 460.871C214.823 460.943 214.973 461.052 215.141 461.196C215.476 461.485 215.855 461.891 216.18 462.366C216.847 463.34 217.197 464.455 216.763 465.428C216.642 465.697 216.763 466.013 217.032 466.133C217.302 466.253 217.617 466.133 217.738 465.863C218.4 464.38 217.804 462.847 217.061 461.763C216.682 461.209 216.24 460.734 215.837 460.387C215.635 460.213 215.436 460.066 215.252 459.955C215.083 459.854 214.875 459.751 214.666 459.725C214.373 459.69 214.107 459.898 214.071 460.19Z" fill="white"/>
<path fill-rule="evenodd" clip-rule="evenodd" d="M219.191 461.453C219.155 461.746 219.363 462.012 219.655 462.048C219.945 462.084 220.55 462.307 221.037 462.846C221.503 463.362 221.887 464.196 221.725 465.517C221.689 465.809 221.897 466.076 222.19 466.112C222.482 466.148 222.749 465.939 222.785 465.647C222.983 464.034 222.513 462.887 221.829 462.13C221.165 461.396 220.323 461.054 219.786 460.988C219.493 460.952 219.226 461.161 219.191 461.453Z" fill="white"/>
<path fill-rule="evenodd" clip-rule="evenodd" d="M286.364 468.879C286.794 473.79 286.062 480.039 287.545 482.367C289.027 484.695 295.428 485.427 297.503 485.246C299.578 485.064 299.966 481.504 303.345 483.023C306.725 484.541 325.081 482.833 325.635 475.424C326.189 468.016 316.879 468.831 312.738 469.193C308.597 469.555 304.035 467.922 297.429 463.224C290.822 458.525 285.935 463.967 286.364 468.879Z" fill="url(#paint15_linear)"/>
<path fill-rule="evenodd" clip-rule="evenodd" d="M306.434 468.106C306.434 468.401 306.673 468.64 306.967 468.64C306.962 468.64 306.962 468.64 306.968 468.642C306.984 468.645 307.04 468.658 307.143 468.704C307.271 468.761 307.434 468.851 307.618 468.974C307.986 469.22 308.412 469.577 308.793 470.008C309.573 470.894 310.056 471.958 309.743 472.977C309.657 473.259 309.815 473.557 310.097 473.644C310.379 473.73 310.678 473.572 310.764 473.29C311.241 471.737 310.462 470.288 309.593 469.302C309.149 468.799 308.653 468.381 308.21 468.086C307.989 467.938 307.774 467.816 307.577 467.729C307.397 467.649 307.178 467.572 306.967 467.572C306.673 467.572 306.434 467.811 306.434 468.106Z" fill="white"/>
<path fill-rule="evenodd" clip-rule="evenodd" d="M311.669 468.736C311.669 469.03 311.908 469.269 312.203 469.269C312.495 469.269 313.122 469.417 313.671 469.893C314.197 470.348 314.68 471.129 314.68 472.46C314.68 472.755 314.919 472.994 315.214 472.994C315.509 472.994 315.748 472.755 315.748 472.46C315.748 470.835 315.142 469.754 314.37 469.086C313.622 468.438 312.745 468.202 312.203 468.202C311.908 468.202 311.669 468.441 311.669 468.736Z" fill="white"/>
<path fill-rule="evenodd" clip-rule="evenodd" d="M269.626 292.404C269.626 292.404 289.753 366.147 292.373 382.927C294.994 399.706 301.406 456.424 300.501 465.571C296.121 470.038 288.23 467.364 286.856 466.544C285.482 465.725 277.013 419.06 269.626 400.957C262.238 382.854 245.614 366.193 234.66 347.98C234.66 359.834 226.201 391.559 226.201 391.559C226.201 391.559 213.866 447.583 209.669 456.651C207.677 459.868 197.623 457.509 193.723 456.651C193.723 448.154 202.132 405.225 202.132 390.323C202.132 375.42 199.806 348.412 198.937 337.34C198.069 326.268 195.946 304.787 198.937 292.404C206.521 292.404 269.626 292.404 269.626 292.404Z" fill="url(#paint16_linear)"/>
<mask id="mask9" mask-type="alpha" maskUnits="userSpaceOnUse" x="193" y="292" width="108" height="177">
<path fill-rule="evenodd" clip-rule="evenodd" d="M269.626 292.404C269.626 292.404 289.753 366.147 292.373 382.927C294.994 399.706 301.406 456.424 300.501 465.571C296.121 470.038 288.23 467.364 286.856 466.544C285.482 465.725 277.013 419.06 269.626 400.957C262.238 382.854 245.614 366.193 234.66 347.98C234.66 359.834 226.201 391.559 226.201 391.559C226.201 391.559 213.866 447.583 209.669 456.651C207.677 459.868 197.623 457.509 193.723 456.651C193.723 448.154 202.132 405.225 202.132 390.323C202.132 375.42 199.806 348.412 198.937 337.34C198.069 326.268 195.946 304.787 198.937 292.404C206.521 292.404 269.626 292.404 269.626 292.404Z" fill="white"/>
</mask>
<g mask="url(#mask9)">
<g opacity="0.5">
<path fill-rule="evenodd" clip-rule="evenodd" d="M224.045 400.171C224.045 392.953 227.764 333.972 228.618 336.392C229.473 338.813 236.126 351.883 236.126 351.883C236.126 351.883 224.045 407.389 224.045 400.171Z" fill="#A1B8E3" style="mix-blend-mode:multiply"/>
</g>
<path fill-rule="evenodd" clip-rule="evenodd" d="M228.696 335.906C228.983 335.837 229.271 336.014 229.339 336.301C229.842 338.411 231.073 340.966 232.437 343.481C233.034 344.582 233.661 345.684 234.256 346.728C234.997 348.029 235.686 349.238 236.198 350.24C236.332 350.503 236.228 350.824 235.966 350.959C235.703 351.093 235.382 350.989 235.247 350.726C234.737 349.73 234.075 348.567 233.351 347.296C232.758 346.256 232.123 345.143 231.498 343.99C230.133 341.473 228.839 338.809 228.3 336.549C228.232 336.262 228.409 335.974 228.696 335.906Z" fill="white"/>
<g opacity="0.5">
<path fill-rule="evenodd" clip-rule="evenodd" d="M203.595 304.724C208.3 307.254 226.725 318.024 250.465 313.708C262.195 311.576 269.741 308.785 273.125 304.724C273.125 302.723 270.28 294.31 269.486 291.091C268.691 287.872 197.834 301.625 203.595 304.724Z" fill="url(#paint17_linear)" style="mix-blend-mode:multiply"/>
</g>
</g>
<path fill-rule="evenodd" clip-rule="evenodd" d="M234.029 135.649C234.029 135.649 236.748 140.918 241.355 143.154C245.961 145.391 248.263 146.485 248.263 146.485L246.305 154.081C246.305 154.081 249.955 165.251 248.263 169.017C246.572 172.783 241.355 175.285 238.318 178.643C235.282 182.001 232.475 193.392 232.475 193.392H212.463L211.556 178.643C211.556 178.643 206.219 157.361 215.274 146.485C224.33 135.61 234.029 135.649 234.029 135.649Z" fill="url(#paint18_linear)"/>
<mask id="mask10" mask-type="alpha" maskUnits="userSpaceOnUse" x="209" y="135" width="40" height="59">
<path fill-rule="evenodd" clip-rule="evenodd" d="M234.029 135.649C234.029 135.649 236.748 140.918 241.355 143.154C245.961 145.391 248.263 146.485 248.263 146.485L246.305 154.081C246.305 154.081 249.955 165.251 248.263 169.017C246.572 172.783 241.355 175.285 238.318 178.643C235.282 182.001 232.475 193.392 232.475 193.392H212.463L211.556 178.643C211.556 178.643 206.219 157.361 215.274 146.485C224.33 135.61 234.029 135.649 234.029 135.649Z" fill="white"/>
</mask>
<g mask="url(#mask10)">
<g opacity="0.5">
<path fill-rule="evenodd" clip-rule="evenodd" d="M240.812 176.638C235.76 176.638 227.88 172.165 226.363 170.637C224.847 169.108 238.992 185.641 237.812 188.274C236.88 190.351 233.554 190.987 235.652 190.987C243.216 190.987 245.864 176.638 240.812 176.638Z" fill="#3D82F0" style="mix-blend-mode:multiply"/>
</g>
</g>
<path fill-rule="evenodd" clip-rule="evenodd" d="M211.558 178.02C193.913 161.528 179.941 147.453 191.991 127.841C204.041 108.229 232.078 101.636 237.318 125.476C237.318 135.705 229.766 141.17 229.766 141.17C229.766 141.17 228.353 144.045 232.078 147.095C235.803 150.145 232.078 152.666 232.078 152.666C232.078 152.666 224.722 147.935 222.801 154.235C220.88 160.536 227.971 162.791 227.971 164.368C230.414 170.164 225.371 175.465 225.371 175.465C225.371 175.465 222.788 178.02 211.558 178.02Z" fill="url(#paint19_linear)"/>
<path fill-rule="evenodd" clip-rule="evenodd" d="M193.357 200.268C193.357 200.268 174.469 233.403 172.19 240.694C169.911 247.986 193.357 252.202 193.357 252.202L203.141 210.522L193.357 200.268Z" fill="url(#paint20_linear)"/>
<path fill-rule="evenodd" clip-rule="evenodd" d="M234.162 188.862C234.162 188.862 248.389 192.616 256.771 202.536C265.154 212.456 263.286 242.302 265.661 260.065C268.035 277.828 278.366 290.74 262.408 300.764C246.45 310.788 201.331 308.512 197.641 300.764C193.951 293.016 189.746 245.396 189.746 245.396C189.746 245.396 189.746 202.536 194.786 198.923C199.825 195.31 211.591 188.328 211.591 188.328C211.591 188.328 211.327 189.39 217.003 190.443C222.678 191.496 234.162 188.862 234.162 188.862Z" fill="#D6E3FA"/>
<mask id="mask11" mask-type="alpha" maskUnits="userSpaceOnUse" x="189" y="188" width="83" height="120">
<path fill-rule="evenodd" clip-rule="evenodd" d="M234.162 188.862C234.162 188.862 248.389 192.616 256.771 202.536C265.154 212.456 263.286 242.302 265.661 260.065C268.035 277.828 278.366 290.74 262.408 300.764C246.45 310.788 201.331 308.512 197.641 300.764C193.951 293.016 189.746 245.396 189.746 245.396C189.746 245.396 189.746 202.536 194.786 198.923C199.825 195.31 211.591 188.328 211.591 188.328C211.591 188.328 211.327 189.39 217.003 190.443C222.678 191.496 234.162 188.862 234.162 188.862Z" fill="white"/>
</mask>
<g mask="url(#mask11)">
<path opacity="0.5" fill-rule="evenodd" clip-rule="evenodd" d="M245.979 222.766C245.979 222.766 253.652 258.634 258.27 265.357C262.887 272.08 265.89 292.424 269.585 294.85C273.281 297.276 278.591 269.524 275.936 260.022C273.281 250.521 261.316 227.247 261.316 227.247L245.979 222.766Z" fill="url(#paint21_linear)"/>
<path opacity="0.5" fill-rule="evenodd" clip-rule="evenodd" d="M214.969 190.785C218.385 193.05 227.283 194.276 234.763 194.276C242.243 194.276 244.582 194.355 248.161 193.266C251.74 192.177 250.353 190.785 248.161 190.785C245.97 190.785 239.173 189.187 235.515 189.187C231.857 189.187 211.554 188.519 214.969 190.785Z" fill="url(#paint22_linear)"/>
</g>
<path fill-rule="evenodd" clip-rule="evenodd" d="M210.945 188.861C210.945 188.861 210.504 183.375 210.504 181.605C210.504 179.836 225.24 182.334 235.843 183.326C236.994 187.74 236.79 188.032 236.79 188.861C236.79 189.275 234.142 192.826 219.895 191.675C214.694 191.254 210.945 188.861 210.945 188.861Z" fill="#E1ECFF"/>
<path fill-rule="evenodd" clip-rule="evenodd" d="M284.616 231.316C287.794 224.178 289.592 213.152 286.225 211.653C282.858 210.154 278.083 217.759 274.905 224.897C271.727 232.036 273.701 236.66 275.65 238.585C277.835 239.036 281.437 238.455 284.616 231.316Z" fill="#A1B8E3"/>
<path fill-rule="evenodd" clip-rule="evenodd" d="M280.865 209.979L295.766 216.113C295.766 216.113 308.982 180.85 309.784 176.273C310.585 171.697 307.032 165.238 306.458 162.936C305.884 160.633 305.977 155.215 307.581 153.232C309.186 151.249 309.609 151.957 310.808 151.658C312.006 151.359 319.117 136.108 319.924 134.191C320.73 132.275 322.168 131.073 323.631 131.711C325.093 132.35 324.957 134.054 324.379 135.562C323.801 137.069 320.558 145.529 320.925 147.002C321.292 148.475 327.006 150.38 328.6 151.358C330.194 152.336 332.909 155.552 331.552 160.203C330.195 164.855 323.932 173.288 324.379 175.082C324.826 176.875 318.502 207.267 316.489 219.422C314.477 231.578 311.846 240.102 301.572 239.398C291.298 238.695 270.006 227.271 270.006 227.271C270.006 227.271 271.398 218.397 274.058 215.049C276.718 211.701 280.865 209.979 280.865 209.979Z" fill="url(#paint23_linear)"/>
<mask id="mask12" mask-type="alpha" maskUnits="userSpaceOnUse" x="250" y="130" width="100" height="117">
<path fill-rule="evenodd" clip-rule="evenodd" d="M280.865 209.979L295.766 216.113C295.766 216.113 308.982 180.85 309.784 176.273C310.585 171.697 307.032 165.238 306.458 162.936C305.884 160.633 305.977 155.215 307.581 153.232C309.186 151.249 309.609 151.957 310.808 151.658C312.006 151.359 319.117 136.108 319.924 134.191C320.73 132.275 322.168 131.073 323.631 131.711C325.093 132.35 324.957 134.054 324.379 135.562C323.801 137.069 320.558 145.529 320.925 147.002C321.292 148.475 327.006 150.38 328.6 151.358C330.194 152.336 332.909 155.552 331.552 160.203C330.195 164.855 323.932 173.288 324.379 175.082C324.826 176.875 318.502 207.267 316.489 219.422C314.477 231.578 311.846 240.102 301.572 239.398C291.298 238.695 270.006 227.271 270.006 227.271C270.006 227.271 271.398 218.397 274.058 215.049C276.718 211.701 280.865 209.979 280.865 209.979Z" fill="white"/>
</mask>
<g mask="url(#mask12)">
<g opacity="0.5">
<path fill-rule="evenodd" clip-rule="evenodd" d="M285.757 211.611C285.757 211.611 282.598 230.086 284.58 235.522C286.562 240.958 275.693 233.287 275.693 233.287C275.693 233.287 275.904 225.371 277.575 221.773C279.245 218.175 285.757 211.611 285.757 211.611Z" fill="#3D82F0" style="mix-blend-mode:multiply"/>
</g>
<path fill-rule="evenodd" clip-rule="evenodd" d="M294.969 215.452C295.092 215.184 295.409 215.067 295.677 215.19C295.741 215.219 295.81 215.25 295.885 215.283C296.774 215.681 298.342 216.382 299.742 218.321C299.915 218.561 299.861 218.894 299.622 219.067C299.383 219.239 299.049 219.186 298.876 218.947C297.647 217.243 296.304 216.642 295.441 216.255C295.368 216.222 295.298 216.19 295.231 216.16C294.963 216.037 294.846 215.72 294.969 215.452Z" fill="#223762"/>
</g>
<path fill-rule="evenodd" clip-rule="evenodd" d="M275.518 238.53C277.196 230.133 279.614 218.577 286.334 211.66C262.356 201.321 254.8 197.655 247.262 194.435C239.724 191.215 232.865 212.426 247.262 222.976C261.66 233.527 271.516 236.763 275.518 238.53Z" fill="url(#paint24_linear)"/>
<path fill-rule="evenodd" clip-rule="evenodd" d="M643.346 307.722L542.625 288.924C513.395 331.754 499.563 367.875 501.13 397.285C519.597 404.939 555.15 417.052 607.787 433.624L650.14 319.724C651.875 315.058 649.499 309.869 644.834 308.134C644.351 307.955 643.853 307.817 643.346 307.722Z" fill="url(#paint25_linear)"/>
<path fill-rule="evenodd" clip-rule="evenodd" d="M542.658 313.461C543.577 316.632 543.162 318.921 541.411 320.327C538.785 322.436 536.147 326.024 533.547 326.319C530.947 326.614 528.132 328.04 527.676 331.687C527.456 333.449 518.434 342.559 515.211 355.091C514.395 358.264 515.387 363.147 518.189 369.739L525.643 365.636L536.259 348.44C548.049 344.344 554.696 341.807 556.199 340.829C558.453 339.361 565.755 333.079 564.347 330.724C562.939 328.369 567.519 313.405 570.239 310.496C572.96 307.588 575.188 300.5 575.243 297.883C575.297 295.266 576.24 287.431 569.45 287.681C564.923 287.848 555.993 296.441 542.658 313.461Z" fill="url(#paint26_linear)"/>
<mask id="mask13" mask-type="alpha" maskUnits="userSpaceOnUse" x="514" y="287" width="62" height="83">
<path fill-rule="evenodd" clip-rule="evenodd" d="M542.658 313.461C543.577 316.632 543.162 318.921 541.411 320.327C538.785 322.436 536.147 326.024 533.547 326.319C530.947 326.614 528.132 328.04 527.676 331.687C527.456 333.449 518.434 342.559 515.211 355.091C514.395 358.264 515.387 363.147 518.189 369.739L525.643 365.636L536.259 348.44C548.049 344.344 554.696 341.807 556.199 340.829C558.453 339.361 565.755 333.079 564.347 330.724C562.939 328.369 567.519 313.405 570.239 310.496C572.96 307.588 575.188 300.5 575.243 297.883C575.297 295.266 576.24 287.431 569.45 287.681C564.923 287.848 555.993 296.441 542.658 313.461Z" fill="white"/>
</mask>
<g mask="url(#mask13)">
<path fill-rule="evenodd" clip-rule="evenodd" d="M568.056 326.922C568.056 326.922 555.176 304.064 549.16 298.328C543.144 292.592 577.865 286.81 577.865 286.81L568.056 331.237V326.922Z" fill="url(#paint27_linear)" style="mix-blend-mode:multiply"/>
</g>
<path fill-rule="evenodd" clip-rule="evenodd" d="M535.62 259.697C532.512 261.79 535.163 270.213 531.799 275.021C529.959 277.65 526.09 279.112 524.304 280.158C519.25 283.118 524.443 285.231 525.488 286.992C526.532 288.754 525.7 292.734 524.917 295.871C524.135 299.008 521.36 306.077 524.336 307.656C527.311 309.236 545.577 316.132 550.859 314.025C556.141 311.919 558.03 301.368 559.332 300.681C560.634 299.995 561.548 300.719 562.75 301.019C565.879 301.799 568.704 300.046 570.208 297.55C571.911 294.724 574.332 296.014 573.023 292.152C571.003 286.194 559.297 262.728 554.646 261.041C549.995 259.354 540.427 256.459 535.62 259.697Z" fill="url(#paint28_radial)"/>
<path fill-rule="evenodd" clip-rule="evenodd" d="M550.792 266.144C538.897 263.178 533.365 265.835 529.058 256.59C526.514 251.129 531.467 234.379 539.809 234C541.862 243.363 551.779 244.168 557.525 244.946C588.378 249.123 591.607 277.333 582.37 293.95C579.396 299.299 576.645 303.143 574.191 306.025C572.633 307.855 570.597 310.059 569.909 311.105C569.679 311.454 567.689 315.86 567.345 315.774C566.305 315.515 566.722 315.463 567.233 310.902C567.743 306.342 568.028 305.114 568.953 301.404C569.226 300.308 574.4 291.888 570.427 288.84C567.778 286.808 564.2 288.049 559.692 292.564L556.954 291.532C558.763 287.511 559.906 284.542 560.384 282.626C561.101 279.752 562.687 269.11 550.792 266.144Z" fill="url(#paint29_linear)"/>
<path fill-rule="evenodd" clip-rule="evenodd" d="M550.792 266.144C538.897 263.178 533.365 265.835 529.058 256.59C526.514 251.129 531.467 234.379 539.809 234C541.862 243.363 551.779 244.168 557.525 244.946C588.378 249.123 591.607 277.333 582.37 293.95C579.396 299.299 576.645 303.143 574.191 306.025C572.633 307.855 570.597 310.059 569.909 311.105C569.679 311.454 567.689 315.86 567.345 315.774C566.305 315.515 566.722 315.463 567.233 310.902C567.743 306.342 568.028 305.114 568.953 301.404C569.226 300.308 574.4 291.888 570.427 288.84C567.778 286.808 564.2 288.049 559.692 292.564L556.954 291.532C558.763 287.511 559.906 284.542 560.384 282.626C561.101 279.752 562.687 269.11 550.792 266.144Z" fill="url(#paint30_linear)"/>
<path fill-rule="evenodd" clip-rule="evenodd" d="M556.958 291.67C556.05 293.694 552.624 298.358 549.532 300.043C546.44 301.728 539.927 301.831 538.59 299.91C537.254 297.989 531.185 289.288 525.715 287.924C525.441 289.026 524.691 290.899 523.467 293.544C527.701 295.305 530.159 296.96 530.844 298.511C531.87 300.838 532.421 299.279 531.396 300.313C530.371 301.347 525.019 300.552 524.613 296.517C523.069 299.73 521.411 308.403 521.996 310.384C522.58 312.366 525.945 313.274 529.266 313.488C532.587 313.701 544.42 315.507 547.433 314.891C550.447 314.275 554.276 314.629 556.797 307.328C559.318 300.027 558.758 295.297 562.048 289.078C565.338 282.86 557.866 289.647 556.958 291.67Z" fill="url(#paint31_linear)"/>
<g filter="url(#filter4_i)">
<path fill-rule="evenodd" clip-rule="evenodd" d="M566.384 321.2C578.885 324.047 587.285 328.793 591.583 335.437C598.029 345.403 601.26 371.876 601.26 380.463C601.26 389.05 602.288 410.114 601.26 415.861C600.232 421.608 595.511 425.877 585.742 425.877C579.229 425.877 542.315 413.763 475 389.535C483.853 385.158 488.42 382.133 488.702 380.463C489.124 377.957 509.667 332.262 516.164 327.607C522.661 322.953 536.148 320.75 541.555 320.75C540.764 322.944 539.005 324.715 541.492 327.607C543.978 330.5 548.857 331.005 553.689 328.998C556.911 327.659 561.143 325.06 566.384 321.2Z" fill="#3D82F0"/>
<path fill-rule="evenodd" clip-rule="evenodd" d="M566.384 321.2C578.885 324.047 587.285 328.793 591.583 335.437C598.029 345.403 601.26 371.876 601.26 380.463C601.26 389.05 602.288 410.114 601.26 415.861C600.232 421.608 595.511 425.877 585.742 425.877C579.229 425.877 542.315 413.763 475 389.535C483.853 385.158 488.42 382.133 488.702 380.463C489.124 377.957 509.667 332.262 516.164 327.607C522.661 322.953 536.148 320.75 541.555 320.75C540.764 322.944 539.005 324.715 541.492 327.607C543.978 330.5 548.857 331.005 553.689 328.998C556.911 327.659 561.143 325.06 566.384 321.2Z" fill="url(#paint32_linear)"/>
</g>
<mask id="mask14" mask-type="alpha" maskUnits="userSpaceOnUse" x="475" y="320" width="127" height="106">
<path fill-rule="evenodd" clip-rule="evenodd" d="M566.384 321.2C578.885 324.047 587.285 328.793 591.583 335.437C598.029 345.403 601.26 371.876 601.26 380.463C601.26 389.05 602.288 410.114 601.26 415.861C600.232 421.608 595.511 425.877 585.742 425.877C579.229 425.877 542.315 413.763 475 389.535C483.853 385.158 488.42 382.133 488.702 380.463C489.124 377.957 509.667 332.262 516.164 327.607C522.661 322.953 536.148 320.75 541.555 320.75C540.764 322.944 539.005 324.715 541.492 327.607C543.978 330.5 548.857 331.005 553.689 328.998C556.911 327.659 561.143 325.06 566.384 321.2Z" fill="white"/>
<path fill-rule="evenodd" clip-rule="evenodd" d="M566.384 321.2C578.885 324.047 587.285 328.793 591.583 335.437C598.029 345.403 601.26 371.876 601.26 380.463C601.26 389.05 602.288 410.114 601.26 415.861C600.232 421.608 595.511 425.877 585.742 425.877C579.229 425.877 542.315 413.763 475 389.535C483.853 385.158 488.42 382.133 488.702 380.463C489.124 377.957 509.667 332.262 516.164 327.607C522.661 322.953 536.148 320.75 541.555 320.75C540.764 322.944 539.005 324.715 541.492 327.607C543.978 330.5 548.857 331.005 553.689 328.998C556.911 327.659 561.143 325.06 566.384 321.2Z" stroke="white"/>
</mask>
<g mask="url(#mask14)">
<g opacity="0.585435">
<path fill-rule="evenodd" clip-rule="evenodd" d="M534.969 322.508C524.616 333.105 545.039 338.752 553.378 335.929C561.718 333.105 571.076 322.508 571.076 322.508C571.076 322.508 547.495 304.96 541.232 313.734C534.969 322.508 545.322 311.911 534.969 322.508Z" fill="url(#paint33_linear)" style="mix-blend-mode:multiply"/>
</g>
<g opacity="0.54654">
<path fill-rule="evenodd" clip-rule="evenodd" d="M520.215 418.387C527.587 418.387 575.518 410.45 575.518 404.007C575.518 397.564 571.823 352.175 571.823 352.175" fill="url(#paint34_linear)" style="mix-blend-mode:multiply"/>
</g>
<g opacity="0.54654">
<path fill-rule="evenodd" clip-rule="evenodd" d="M453.066 390.445C456.405 390.445 471.842 410.002 485.946 403.42C502.984 395.467 512.905 366.023 512.905 362.499C512.905 359.802 517.378 350.239 515.675 339.82C514.665 333.643 506.422 320.224 506.422 320.224" fill="url(#paint35_linear)" style="mix-blend-mode:multiply"/>
</g>
</g>
<path fill-rule="evenodd" clip-rule="evenodd" d="M86.7557 303.984L178.206 281.888C195.119 327.49 202.793 364.996 201.226 394.407C182.759 402.061 155.058 411.985 118.123 424.179L80.3604 315.709C78.7239 311.008 81.2081 305.87 85.909 304.233C86.187 304.137 86.4695 304.054 86.7557 303.984Z" fill="url(#paint36_linear)"/>
<path fill-rule="evenodd" clip-rule="evenodd" d="M65.1865 404.718L344.546 346.4C349.404 345.386 354.449 345.729 359.126 347.391L535.322 410.009C578.74 425.439 573.752 488.382 528.447 496.782L493.593 503.245C490.884 503.747 488.134 504 485.378 504H110.252C85.3628 504 65.1865 483.823 65.1865 458.935V404.718Z" fill="url(#paint37_linear)"/>
<g style="mix-blend-mode:multiply" opacity="0.196931">
<path fill-rule="evenodd" clip-rule="evenodd" d="M265.547 414.373L375.866 396.542L459.803 433.318L338.286 465.553" fill="url(#paint38_linear)"/>
</g>
<path fill-rule="evenodd" clip-rule="evenodd" d="M270.657 444.239L330.62 433.936C363.718 454.62 379.938 465.028 379.28 465.161C378.345 465.349 312.132 476.927 307.659 478.128C308.078 477.059 295.74 465.76 270.657 444.239Z" fill="url(#paint39_linear)"/>
<path fill-rule="evenodd" clip-rule="evenodd" d="M306.259 428.239L368.923 424.022L403.373 454.122L325.303 459.508L306.259 428.239Z" fill="url(#paint40_linear)"/>
<g filter="url(#filter5_i)">
<path fill-rule="evenodd" clip-rule="evenodd" d="M460.075 432.744L516.986 410.083C518.142 409.623 518.706 408.313 518.245 407.156C518.007 406.556 517.521 406.087 516.912 405.869L444.448 379.897L372.962 397.564L460.075 432.744Z" fill="url(#paint41_linear)"/>
</g>
<g filter="url(#filter6_i)">
<path fill-rule="evenodd" clip-rule="evenodd" d="M360.291 323.97L440.589 349.954C442.951 350.719 444.704 352.717 445.155 355.159L459.523 433.027L372.511 397.73L356.819 327.129C356.495 325.671 357.414 324.227 358.872 323.903C359.342 323.798 359.832 323.822 360.291 323.97Z" fill="url(#paint42_linear)"/>
<path fill-rule="evenodd" clip-rule="evenodd" d="M360.291 323.97L440.589 349.954C442.951 350.719 444.704 352.717 445.155 355.159L459.523 433.027L372.511 397.73L356.819 327.129C356.495 325.671 357.414 324.227 358.872 323.903C359.342 323.798 359.832 323.822 360.291 323.97Z" fill="url(#paint43_linear)" fill-opacity="0.23"/>
</g>
<path fill-rule="evenodd" clip-rule="evenodd" d="M400.572 381.36C404.71 383.378 409.074 383.374 410.874 379.683C412.674 375.992 409.427 371.814 405.289 369.796C401.15 367.777 397.237 367.781 395.437 371.472C393.637 375.163 396.434 379.341 400.572 381.36Z" fill="#D6E3FA"/>
<path fill-rule="evenodd" clip-rule="evenodd" d="M161.854 427.144L121.059 408.803C120.012 408.332 119.551 407.117 120.03 406.088C120.295 405.519 120.81 405.099 121.43 404.951L200.28 386.035L242.358 405.573L161.854 427.144Z" fill="url(#paint44_linear)"/>
<path fill-rule="evenodd" clip-rule="evenodd" d="M258.916 345.004L184.31 358.048C181.9 358.469 179.963 360.234 179.354 362.563L162.391 427.342L239.024 409.706C240.88 409.279 242.37 407.925 242.949 406.14L261.738 348.171C262.157 346.877 261.43 345.495 260.114 345.082C259.727 344.961 259.316 344.934 258.916 345.004Z" fill="url(#paint45_linear)"/>
<path fill-rule="evenodd" clip-rule="evenodd" d="M217.402 391.281C213.814 393.534 209.805 393.983 207.759 390.837C205.713 387.691 208.254 383.581 211.842 381.329C215.43 379.077 219.026 378.674 221.071 381.82C223.117 384.966 220.991 389.029 217.402 391.281Z" fill="#D6E3FA"/>
<defs>
<filter id="filter0_i" x="20.5962" y="233" width="34.097" height="91.0918" filterUnits="userSpaceOnUse" color-interpolation-filters="sRGB">
<feFlood flood-opacity="0" result="BackgroundImageFix"/>
<feBlend mode="normal" in="SourceGraphic" in2="BackgroundImageFix" result="shape"/>
<feColorMatrix in="SourceAlpha" type="matrix" values="0 0 0 0 0 0 0 0 0 0 0 0 0 0 0 0 0 0 127 0" result="hardAlpha"/>
<feOffset dy="-10"/>
<feGaussianBlur stdDeviation="11"/>
<feComposite in2="hardAlpha" operator="arithmetic" k2="-1" k3="1"/>
<feColorMatrix type="matrix" values="0 0 0 0 0.221483 0 0 0 0 0.77854 0 0 0 0 0.610041 0 0 0 1 0"/>
<feBlend mode="normal" in2="shape" result="effect1_innerShadow"/>
</filter>
<filter id="filter1_i" x="0" y="272.769" width="48.5627" height="62.582" filterUnits="userSpaceOnUse" color-interpolation-filters="sRGB">
<feFlood flood-opacity="0" result="BackgroundImageFix"/>
<feBlend mode="normal" in="SourceGraphic" in2="BackgroundImageFix" result="shape"/>
<feColorMatrix in="SourceAlpha" type="matrix" values="0 0 0 0 0 0 0 0 0 0 0 0 0 0 0 0 0 0 127 0" result="hardAlpha"/>
<feOffset dy="-10"/>
<feGaussianBlur stdDeviation="11"/>
<feComposite in2="hardAlpha" operator="arithmetic" k2="-1" k3="1"/>
<feColorMatrix type="matrix" values="0 0 0 0 0.221483 0 0 0 0 0.77854 0 0 0 0 0.610041 0 0 0 1 0"/>
<feBlend mode="normal" in2="shape" result="effect1_innerShadow"/>
</filter>
<filter id="filter2_i" x="51.8589" y="267.924" width="41.7842" height="68.501" filterUnits="userSpaceOnUse" color-interpolation-filters="sRGB">
<feFlood flood-opacity="0" result="BackgroundImageFix"/>
<feBlend mode="normal" in="SourceGraphic" in2="BackgroundImageFix" result="shape"/>
<feColorMatrix in="SourceAlpha" type="matrix" values="0 0 0 0 0 0 0 0 0 0 0 0 0 0 0 0 0 0 127 0" result="hardAlpha"/>
<feOffset dy="-10"/>
<feGaussianBlur stdDeviation="11"/>
<feComposite in2="hardAlpha" operator="arithmetic" k2="-1" k3="1"/>
<feColorMatrix type="matrix" values="0 0 0 0 0.221483 0 0 0 0 0.77854 0 0 0 0 0.610041 0 0 0 1 0"/>
<feBlend mode="normal" in2="shape" result="effect1_innerShadow"/>
</filter>
<filter id="filter3_d" x="304.225" y="54.0056" width="95.7745" height="95.8984" filterUnits="userSpaceOnUse" color-interpolation-filters="sRGB">
<feFlood flood-opacity="0" result="BackgroundImageFix"/>
<feColorMatrix in="SourceAlpha" type="matrix" values="0 0 0 0 0 0 0 0 0 0 0 0 0 0 0 0 0 0 127 0"/>
<feOffset dx="5" dy="5"/>
<feColorMatrix type="matrix" values="0 0 0 0 1 0 0 0 0 0.705882 0 0 0 0 0.0901961 0 0 0 0.320143 0"/>
<feBlend mode="normal" in2="BackgroundImageFix" result="effect1_dropShadow"/>
<feBlend mode="normal" in="SourceGraphic" in2="effect1_dropShadow" result="shape"/>
</filter>
<filter id="filter4_i" x="463" y="320.75" width="138.717" height="106.128" filterUnits="userSpaceOnUse" color-interpolation-filters="sRGB">
<feFlood flood-opacity="0" result="BackgroundImageFix"/>
<feBlend mode="normal" in="SourceGraphic" in2="BackgroundImageFix" result="shape"/>
<feColorMatrix in="SourceAlpha" type="matrix" values="0 0 0 0 0 0 0 0 0 0 0 0 0 0 0 0 0 0 127 0" result="hardAlpha"/>
<feOffset dx="-12" dy="1"/>
<feGaussianBlur stdDeviation="13.5"/>
<feComposite in2="hardAlpha" operator="arithmetic" k2="-1" k3="1"/>
<feColorMatrix type="matrix" values="0 0 0 0 0.0901961 0 0 0 0 0.254902 0 0 0 0 0.572549 0 0 0 0.204201 0"/>
<feBlend mode="normal" in2="shape" result="effect1_innerShadow"/>
</filter>
<filter id="filter5_i" x="355.962" y="372.897" width="162.444" height="59.8474" filterUnits="userSpaceOnUse" color-interpolation-filters="sRGB">
<feFlood flood-opacity="0" result="BackgroundImageFix"/>
<feBlend mode="normal" in="SourceGraphic" in2="BackgroundImageFix" result="shape"/>
<feColorMatrix in="SourceAlpha" type="matrix" values="0 0 0 0 0 0 0 0 0 0 0 0 0 0 0 0 0 0 127 0" result="hardAlpha"/>
<feOffset dx="-17" dy="-7"/>
<feGaussianBlur stdDeviation="12"/>
<feComposite in2="hardAlpha" operator="arithmetic" k2="-1" k3="1"/>
<feColorMatrix type="matrix" values="0 0 0 0 0.239216 0 0 0 0 0.509804 0 0 0 0 0.941176 0 0 0 0.775419 0"/>
<feBlend mode="normal" in2="shape" result="effect1_innerShadow"/>
</filter>
<filter id="filter6_i" x="350.754" y="323.839" width="108.769" height="111.189" filterUnits="userSpaceOnUse" color-interpolation-filters="sRGB">
<feFlood flood-opacity="0" result="BackgroundImageFix"/>
<feBlend mode="normal" in="SourceGraphic" in2="BackgroundImageFix" result="shape"/>
<feColorMatrix in="SourceAlpha" type="matrix" values="0 0 0 0 0 0 0 0 0 0 0 0 0 0 0 0 0 0 127 0" result="hardAlpha"/>
<feOffset dx="-6" dy="2"/>
<feGaussianBlur stdDeviation="6"/>
<feComposite in2="hardAlpha" operator="arithmetic" k2="-1" k3="1"/>
<feColorMatrix type="matrix" values="0 0 0 0 1 0 0 0 0 1 0 0 0 0 1 0 0 0 0.5 0"/>
<feBlend mode="normal" in2="shape" result="effect1_innerShadow"/>
</filter>
<linearGradient id="paint0_linear" x1="71.5558" y1="355.554" x2="17.0515" y2="355.554" gradientUnits="userSpaceOnUse">
<stop stop-color="#D9E5F6" stop-opacity="0.712636"/>
<stop offset="1" stop-color="#B2C6EA"/>
</linearGradient>
<linearGradient id="paint1_linear" x1="72.6478" y1="382.554" x2="81.5692" y2="348.471" gradientUnits="userSpaceOnUse">
<stop stop-color="#ACC5E9"/>
<stop offset="0.627469" stop-color="#D3E3FB"/>
<stop offset="1" stop-color="#EAF2FF"/>
</linearGradient>
<linearGradient id="paint2_linear" x1="23.702" y1="319.147" x2="22.2863" y2="341.845" gradientUnits="userSpaceOnUse">
<stop stop-color="#86A8D9"/>
<stop offset="1" stop-color="#BCD0F2"/>
</linearGradient>
<linearGradient id="paint3_linear" x1="14.8117" y1="264.997" x2="62.4375" y2="314.865" gradientUnits="userSpaceOnUse">
<stop stop-color="#B1FFBE"/>
<stop offset="0.444207" stop-color="#5CDB8E"/>
<stop offset="1" stop-color="#149654"/>
</linearGradient>
<linearGradient id="paint4_linear" x1="14.1195" y1="280.145" x2="20.9674" y2="333.065" gradientUnits="userSpaceOnUse">
<stop stop-color="#B1FFBE"/>
<stop offset="0.444207" stop-color="#5CDB8E"/>
<stop offset="1" stop-color="#149654"/>
</linearGradient>
<linearGradient id="paint5_linear" x1="44.4756" y1="293.408" x2="75.839" y2="342.632" gradientUnits="userSpaceOnUse">
<stop stop-color="#B1FFBE"/>
<stop offset="0.444207" stop-color="#5CDB8E"/>
<stop offset="1" stop-color="#149654"/>
</linearGradient>
<radialGradient id="paint6_radial" cx="0" cy="0" r="1" gradientUnits="userSpaceOnUse" gradientTransform="translate(542.943 39.9431) rotate(118.593) scale(423.636 410.871)">
<stop stop-color="#EDF3FD"/>
<stop offset="0.40887" stop-color="#DCE8FB"/>
<stop offset="1" stop-color="#AEBDD8"/>
</radialGradient>
<linearGradient id="paint7_linear" x1="468.289" y1="152.787" x2="468.289" y2="87.7921" gradientUnits="userSpaceOnUse">
<stop stop-color="#FDE76B"/>
<stop offset="1" stop-color="#FAB539"/>
</linearGradient>
<linearGradient id="paint8_linear" x1="493.729" y1="148.442" x2="493.729" y2="98.74" gradientUnits="userSpaceOnUse">
<stop stop-color="#FDE76B"/>
<stop offset="1" stop-color="#FAB539"/>
</linearGradient>
<linearGradient id="paint9_linear" x1="518.66" y1="145.002" x2="518.66" y2="107.407" gradientUnits="userSpaceOnUse">
<stop stop-color="#FDE76B"/>
<stop offset="1" stop-color="#FAB539"/>
</linearGradient>
<linearGradient id="paint10_linear" x1="335.634" y1="178.934" x2="316.977" y2="210.422" gradientUnits="userSpaceOnUse">
<stop stop-color="#CBDAF1"/>
<stop offset="1" stop-color="#7089B9"/>
</linearGradient>
<linearGradient id="paint11_linear" x1="335.634" y1="250.871" x2="316.977" y2="282.359" gradientUnits="userSpaceOnUse">
<stop stop-color="#CBDAF1"/>
<stop offset="1" stop-color="#7089B9"/>
</linearGradient>
<linearGradient id="paint12_linear" x1="442.18" y1="184.625" x2="389.857" y2="73.2204" gradientUnits="userSpaceOnUse">
<stop stop-color="#FFE883"/>
<stop offset="1" stop-color="#FECC4C"/>
</linearGradient>
<linearGradient id="paint13_linear" x1="192.411" y1="289.007" x2="205.028" y2="269.589" gradientUnits="userSpaceOnUse">
<stop stop-color="#70B8F9"/>
<stop offset="1" stop-color="#3D82F0"/>
</linearGradient>
<linearGradient id="paint14_linear" x1="196.123" y1="484.128" x2="211.581" y2="460.479" gradientUnits="userSpaceOnUse">
<stop stop-color="#47689B"/>
<stop offset="1" stop-color="#223762"/>
</linearGradient>
<linearGradient id="paint15_linear" x1="291.536" y1="494.053" x2="303.996" y2="468.696" gradientUnits="userSpaceOnUse">
<stop stop-color="#47689B"/>
<stop offset="1" stop-color="#223762"/>
</linearGradient>
<linearGradient id="paint16_linear" x1="250.769" y1="505.052" x2="324.823" y2="336.63" gradientUnits="userSpaceOnUse">
<stop stop-color="#CFDDF3"/>
<stop offset="1" stop-color="#A1B8E3"/>
</linearGradient>
<linearGradient id="paint17_linear" x1="285.725" y1="309.537" x2="284.924" y2="295.338" gradientUnits="userSpaceOnUse">
<stop stop-color="#CFDDF3" stop-opacity="0.477723"/>
<stop offset="1" stop-color="#A1B8E3"/>
</linearGradient>
<linearGradient id="paint18_linear" x1="246.368" y1="121.113" x2="219.411" y2="139.297" gradientUnits="userSpaceOnUse">
<stop stop-color="#70B8F9"/>
<stop offset="1" stop-color="#3D82F0"/>
</linearGradient>
<linearGradient id="paint19_linear" x1="198.34" y1="120.856" x2="222.485" y2="152.689" gradientUnits="userSpaceOnUse">
<stop stop-color="#164898"/>
<stop offset="1" stop-color="#223762"/>
</linearGradient>
<linearGradient id="paint20_linear" x1="174.563" y1="245.844" x2="198.797" y2="242.661" gradientUnits="userSpaceOnUse">
<stop stop-color="#EDF3FD"/>
<stop offset="1" stop-color="#D6E3FA"/>
</linearGradient>
<linearGradient id="paint21_linear" x1="264.925" y1="272.698" x2="281.027" y2="262.432" gradientUnits="userSpaceOnUse">
<stop stop-color="#CFDDF3"/>
<stop offset="1" stop-color="#A1B8E3"/>
</linearGradient>
<linearGradient id="paint22_linear" x1="297.072" y1="200.339" x2="296.85" y2="185.226" gradientUnits="userSpaceOnUse">
<stop stop-color="#CFDDF3"/>
<stop offset="1" stop-color="#A1B8E3"/>
</linearGradient>
<linearGradient id="paint23_linear" x1="383.296" y1="288.814" x2="347.772" y2="146.336" gradientUnits="userSpaceOnUse">
<stop stop-color="#70B8F9"/>
<stop offset="1" stop-color="#3D82F0"/>
</linearGradient>
<linearGradient id="paint24_linear" x1="231.262" y1="207.382" x2="247.267" y2="240.199" gradientUnits="userSpaceOnUse">
<stop stop-color="#D6E3FA"/>
<stop offset="1" stop-color="#E3EDFE"/>
</linearGradient>
<linearGradient id="paint25_linear" x1="566.902" y1="376.561" x2="624.493" y2="359.4" gradientUnits="userSpaceOnUse">
<stop stop-color="#7FA0D4"/>
<stop offset="1" stop-color="#D6E3FA"/>
</linearGradient>
<linearGradient id="paint26_linear" x1="554.444" y1="283.816" x2="529.44" y2="303.464" gradientUnits="userSpaceOnUse">
<stop stop-color="#5D6FAA"/>
<stop offset="1" stop-color="#90AADB"/>
</linearGradient>
<linearGradient id="paint27_linear" x1="548.271" y1="286.81" x2="548.271" y2="331.237" gradientUnits="userSpaceOnUse">
<stop stop-color="#CFDDF3"/>
<stop offset="1" stop-color="#A1B8E3" stop-opacity="0.01"/>
</linearGradient>
<radialGradient id="paint28_radial" cx="0" cy="0" r="1" gradientUnits="userSpaceOnUse" gradientTransform="translate(530.092 276.941) rotate(23.4052) scale(23.3613 31.3922)">
<stop stop-color="#E1EDFF"/>
<stop offset="1" stop-color="#A1B8E3"/>
</radialGradient>
<linearGradient id="paint29_linear" x1="512.959" y1="232.872" x2="524.682" y2="273.337" gradientUnits="userSpaceOnUse">
<stop stop-color="#2D6DC0"/>
<stop offset="1" stop-color="#143B8C"/>
</linearGradient>
<linearGradient id="paint30_linear" x1="547.17" y1="268.72" x2="555.953" y2="309.957" gradientUnits="userSpaceOnUse">
<stop stop-color="#174293" stop-opacity="0.01"/>
<stop offset="1" stop-color="#051E4B"/>
</linearGradient>
<linearGradient id="paint31_linear" x1="500.666" y1="301.011" x2="518.403" y2="330.828" gradientUnits="userSpaceOnUse">
<stop stop-color="#2D6DC0"/>
<stop offset="1" stop-color="#143B8C"/>
</linearGradient>
<linearGradient id="paint32_linear" x1="509.66" y1="378.983" x2="503.111" y2="403.022" gradientUnits="userSpaceOnUse">
<stop stop-color="#2E7DE7" stop-opacity="0.01"/>
<stop offset="1" stop-color="#00357E" stop-opacity="0.5"/>
</linearGradient>
<linearGradient id="paint33_linear" x1="571.076" y1="336.652" x2="571.076" y2="310.809" gradientUnits="userSpaceOnUse">
<stop stop-color="#70B8F9" stop-opacity="0.275872"/>
<stop offset="1" stop-color="#3D82F0"/>
</linearGradient>
<linearGradient id="paint34_linear" x1="543.139" y1="402.989" x2="570.137" y2="416.89" gradientUnits="userSpaceOnUse">
<stop stop-color="#3D82F0" stop-opacity="0.01"/>
<stop offset="1" stop-color="#3D82F0"/>
</linearGradient>
<linearGradient id="paint35_linear" x1="479.178" y1="385.111" x2="511.308" y2="399.868" gradientUnits="userSpaceOnUse">
<stop stop-color="#3D82F0" stop-opacity="0.01"/>
<stop offset="1" stop-color="#3D82F0"/>
</linearGradient>
<linearGradient id="paint36_linear" x1="155.145" y1="327.436" x2="109.744" y2="318.241" gradientUnits="userSpaceOnUse">
<stop stop-color="#7FA0D4"/>
<stop offset="1" stop-color="#D6E3FA"/>
</linearGradient>
<linearGradient id="paint37_linear" x1="108.745" y1="351.962" x2="107.612" y2="461.275" gradientUnits="userSpaceOnUse">
<stop stop-color="#EAEFFF"/>
<stop offset="1" stop-color="white"/>
</linearGradient>
<linearGradient id="paint38_linear" x1="304.123" y1="394.2" x2="302.44" y2="436.263" gradientUnits="userSpaceOnUse">
<stop stop-color="#0041B2"/>
<stop offset="1" stop-color="#2D64D7" stop-opacity="0.01"/>
</linearGradient>
<linearGradient id="paint39_linear" x1="270.657" y1="433.936" x2="270.657" y2="478.128" gradientUnits="userSpaceOnUse">
<stop stop-color="#B2C7E8"/>
<stop offset="1" stop-color="#D6E3FA"/>
</linearGradient>
<linearGradient id="paint40_linear" x1="306.259" y1="424.022" x2="306.259" y2="459.507" gradientUnits="userSpaceOnUse">
<stop stop-color="#C6D6EE"/>
<stop offset="1" stop-color="#E5EFFD"/>
</linearGradient>
<linearGradient id="paint41_linear" x1="430.988" y1="397.979" x2="468.364" y2="397.979" gradientUnits="userSpaceOnUse">
<stop stop-color="#002B64"/>
<stop offset="1" stop-color="#0F3177"/>
</linearGradient>
<linearGradient id="paint42_linear" x1="419.556" y1="316.294" x2="347.546" y2="363.226" gradientUnits="userSpaceOnUse">
<stop stop-color="#DBE9FF"/>
<stop offset="0.440948" stop-color="#A7BDE4"/>
<stop offset="1" stop-color="#5876AF"/>
</linearGradient>
<linearGradient id="paint43_linear" x1="420.373" y1="402.041" x2="415.319" y2="413.914" gradientUnits="userSpaceOnUse">
<stop stop-color="#869FCE" stop-opacity="0.01"/>
<stop offset="1" stop-color="#4975C1"/>
</linearGradient>
<linearGradient id="paint44_linear" x1="91.9227" y1="412.77" x2="99.2958" y2="441.037" gradientUnits="userSpaceOnUse">
<stop stop-color="#47689B"/>
<stop offset="1" stop-color="#223762"/>
</linearGradient>
<linearGradient id="paint45_linear" x1="213.413" y1="305.44" x2="138.036" y2="401.151" gradientUnits="userSpaceOnUse">
<stop stop-color="#CFDDF3"/>
<stop offset="0.473556" stop-color="#B3C7E9"/>
<stop offset="1" stop-color="#728FC5"/>
</linearGradient>
</defs>
</svg>
