<svg width="519" height="346" viewBox="0 0 519 346" fill="none" xmlns="http://www.w3.org/2000/svg">
<path fill-rule="evenodd" clip-rule="evenodd" d="M434.026 268.451H157.734C153.834 268.451 150.673 265.7 150.673 262.306V6.14465C150.673 2.75088 153.834 0 157.734 0H434.026C437.926 0 441.088 2.75088 441.088 6.14465V262.306C441.088 265.688 437.947 268.432 434.026 268.451Z" fill="url(#paint0_radial)"/>
<g opacity="0.1">
<path fill-rule="evenodd" clip-rule="evenodd" d="M380.864 105.458H308.018C305.732 105.458 303.879 103.605 303.879 101.319V33.4396C303.879 31.1536 305.732 29.3005 308.018 29.3005H380.864C383.15 29.3005 385.003 31.1536 385.003 33.4396V101.319C385.003 103.591 383.172 105.436 380.864 105.458Z" fill="#7E9ACA"/>
<path fill-rule="evenodd" clip-rule="evenodd" d="M244.277 173.752H204.956C202.671 173.752 200.817 171.899 200.817 169.613V130.292C200.817 128.006 202.671 126.153 204.956 126.153H244.277C246.563 126.153 248.416 128.006 248.416 130.292V169.613C248.416 171.885 246.585 173.73 244.277 173.752Z" fill="#7E9ACA"/>
<path fill-rule="evenodd" clip-rule="evenodd" d="M244.277 231.697H204.956C202.671 231.697 200.817 229.844 200.817 227.558V188.238C200.817 185.952 202.671 184.099 204.956 184.099H244.277C246.563 184.099 248.416 185.952 248.416 188.238V227.558C248.416 229.83 246.585 231.675 244.277 231.697Z" fill="#7E9ACA"/>
<path fill-rule="evenodd" clip-rule="evenodd" d="M382.519 139.397H256.694C256.008 139.397 255.452 138.841 255.452 138.155V128.222C255.452 127.536 256.008 126.98 256.694 126.98H382.519C383.205 126.98 383.76 127.536 383.76 128.222V138.155C383.76 138.828 383.225 139.376 382.519 139.397Z" fill="#7E9ACA"/>
<path fill-rule="evenodd" clip-rule="evenodd" d="M382.519 197.344H256.694C256.008 197.344 255.452 196.788 255.452 196.102V186.169C255.452 185.483 256.008 184.927 256.694 184.927H382.519C383.205 184.927 383.76 185.483 383.76 186.169V196.102C383.76 196.775 383.225 197.323 382.519 197.344Z" fill="#7E9ACA"/>
<path fill-rule="evenodd" clip-rule="evenodd" d="M353.546 160.092H256.694C256.008 160.092 255.452 159.536 255.452 158.85V148.917C255.452 148.231 256.008 147.675 256.694 147.675H353.546C354.232 147.675 354.788 148.231 354.788 148.917V158.85C354.788 159.523 354.252 160.071 353.546 160.092Z" fill="#7E9ACA"/>
<path fill-rule="evenodd" clip-rule="evenodd" d="M353.546 218.038H256.694C256.008 218.038 255.452 217.482 255.452 216.796V206.863C255.452 206.177 256.008 205.621 256.694 205.621H353.546C354.232 205.621 354.788 206.177 354.788 206.863V216.796C354.788 217.469 354.252 218.017 353.546 218.038Z" fill="#7E9ACA"/>
</g>
<path fill-rule="evenodd" clip-rule="evenodd" d="M376.311 100.907H303.465C301.179 100.907 299.326 99.0535 299.326 96.7676V28.8883C299.326 26.6024 301.179 24.7493 303.465 24.7493H376.311C378.597 24.7493 380.45 26.6024 380.45 28.8883V96.7676C380.45 99.0399 378.619 100.885 376.311 100.907Z" fill="white"/>
<path fill-rule="evenodd" clip-rule="evenodd" d="M324.159 90.5599H314.639C313.725 90.5599 312.984 89.8187 312.984 88.9043V49.9979C312.984 49.0836 313.725 48.3423 314.639 48.3423H324.159C325.073 48.3423 325.814 49.0836 325.814 49.9979V88.9043C325.814 89.8058 325.094 90.539 324.159 90.5599Z" fill="url(#paint1_linear)"/>
<path fill-rule="evenodd" clip-rule="evenodd" d="M344.852 90.5599H335.332C334.418 90.5599 333.677 89.9931 333.677 89.2939V59.5419C333.677 58.8427 334.418 58.2759 335.332 58.2759H344.852C345.766 58.2759 346.507 58.8427 346.507 59.5419V89.2939C346.507 89.9833 345.787 90.544 344.852 90.5599Z" fill="url(#paint2_linear)"/>
<path fill-rule="evenodd" clip-rule="evenodd" d="M365.133 90.5611H355.614C354.7 90.5611 353.958 90.1324 353.958 89.6034V67.0988C353.958 66.5699 354.7 66.1411 355.614 66.1411H365.133C366.048 66.1411 366.789 66.5699 366.789 67.0988V89.6034C366.789 90.1249 366.069 90.549 365.133 90.5611Z" fill="url(#paint3_linear)"/>
<path fill-rule="evenodd" clip-rule="evenodd" d="M379.207 134.846H253.382C252.696 134.846 252.14 134.29 252.14 133.604V123.67C252.14 122.985 252.696 122.429 253.382 122.429H379.207C379.893 122.429 380.449 122.985 380.449 123.67V133.604C380.449 134.277 379.913 134.825 379.207 134.846Z" fill="white"/>
<path fill-rule="evenodd" clip-rule="evenodd" d="M379.207 192.791H253.382C252.696 192.791 252.14 192.236 252.14 191.55V181.616C252.14 180.93 252.696 180.375 253.382 180.375H379.207C379.893 180.375 380.449 180.93 380.449 181.616V191.55C380.449 192.223 379.913 192.771 379.207 192.791Z" fill="white"/>
<path fill-rule="evenodd" clip-rule="evenodd" d="M350.234 155.541H253.382C252.696 155.541 252.14 154.985 252.14 154.299V144.365C252.14 143.68 252.696 143.124 253.382 143.124H350.234C350.92 143.124 351.476 143.68 351.476 144.365V154.299C351.476 154.972 350.941 155.52 350.234 155.541Z" fill="white"/>
<path fill-rule="evenodd" clip-rule="evenodd" d="M350.234 213.485H253.382C252.696 213.485 252.14 212.929 252.14 212.243V202.31C252.14 201.624 252.696 201.068 253.382 201.068H350.234C350.92 201.068 351.476 201.624 351.476 202.31V212.243C351.476 212.916 350.941 213.464 350.234 213.485Z" fill="white"/>
<path fill-rule="evenodd" clip-rule="evenodd" d="M239.724 169.199H200.403C198.118 169.199 196.265 167.346 196.265 165.06V125.74C196.265 123.454 198.118 121.601 200.403 121.601H239.724C242.01 121.601 243.863 123.454 243.863 125.74V165.06C243.863 167.332 242.032 169.177 239.724 169.199Z" fill="white"/>
<path fill-rule="evenodd" clip-rule="evenodd" d="M239.723 227.145H200.403C198.117 227.145 196.264 225.292 196.264 223.006V183.685C196.264 181.399 198.117 179.546 200.403 179.546H239.723C242.009 179.546 243.862 181.399 243.862 183.685V223.006C243.862 225.278 242.031 227.123 239.723 227.145Z" fill="white"/>
<g opacity="0.6">
<path opacity="0.6" fill-rule="evenodd" clip-rule="evenodd" d="M220.185 160.053C228.265 160.053 234.815 153.504 234.815 145.425C234.815 137.346 228.265 130.796 220.185 130.796C212.105 130.796 205.555 137.346 205.555 145.425C205.555 153.504 212.105 160.053 220.185 160.053Z" fill="url(#paint4_linear)"/>
<mask id="mask0" mask-type="alpha" maskUnits="userSpaceOnUse" x="205" y="130" width="30" height="31">
<path fill-rule="evenodd" clip-rule="evenodd" d="M220.185 160.053C228.265 160.053 234.815 153.504 234.815 145.425C234.815 137.346 228.265 130.796 220.185 130.796C212.105 130.796 205.555 137.346 205.555 145.425C205.555 153.504 212.105 160.053 220.185 160.053Z" fill="white"/>
</mask>
<g mask="url(#mask0)">
<path opacity="0.7" fill-rule="evenodd" clip-rule="evenodd" d="M212.589 154.617C212.589 150.379 216.025 146.943 220.264 146.943V146.943C224.502 146.943 227.939 150.379 227.939 154.617V164.049H212.589V154.617Z" fill="white"/>
<path fill-rule="evenodd" clip-rule="evenodd" d="M220.184 149.34C223.319 149.34 225.86 146.799 225.86 143.665C225.86 140.53 223.319 137.989 220.184 137.989C217.049 137.989 214.508 140.53 214.508 143.665C214.508 146.799 217.049 149.34 220.184 149.34Z" fill="white"/>
</g>
</g>
<g opacity="0.6">
<path opacity="0.6" fill-rule="evenodd" clip-rule="evenodd" d="M220.185 218.573C228.265 218.573 234.815 212.024 234.815 203.945C234.815 195.866 228.265 189.316 220.185 189.316C212.105 189.316 205.555 195.866 205.555 203.945C205.555 212.024 212.105 218.573 220.185 218.573Z" fill="url(#paint5_linear)"/>
<mask id="mask1" mask-type="alpha" maskUnits="userSpaceOnUse" x="205" y="189" width="30" height="30">
<path fill-rule="evenodd" clip-rule="evenodd" d="M220.185 218.573C228.265 218.573 234.815 212.024 234.815 203.945C234.815 195.866 228.265 189.316 220.185 189.316C212.105 189.316 205.555 195.866 205.555 203.945C205.555 212.024 212.105 218.573 220.185 218.573Z" fill="white"/>
</mask>
<g mask="url(#mask1)">
<path opacity="0.7" fill-rule="evenodd" clip-rule="evenodd" d="M212.589 213.137C212.589 208.898 216.025 205.462 220.264 205.462V205.462C224.502 205.462 227.939 208.898 227.939 213.137V222.569H212.589V213.137Z" fill="white"/>
<path fill-rule="evenodd" clip-rule="evenodd" d="M220.184 207.861C223.319 207.861 225.86 205.32 225.86 202.186C225.86 199.052 223.319 196.51 220.184 196.51C217.049 196.51 214.508 199.052 214.508 202.186C214.508 205.32 217.049 207.861 220.184 207.861Z" fill="white"/>
</g>
</g>
<g filter="url(#filter0_d)">
<path fill-rule="evenodd" clip-rule="evenodd" d="M230.889 99.0592C251.28 99.0592 267.811 82.5304 267.811 62.1411C267.811 41.7519 251.28 25.2231 230.889 25.2231C210.498 25.2231 193.967 41.7519 193.967 62.1411C193.967 82.5304 210.498 99.0592 230.889 99.0592Z" fill="url(#paint6_linear)"/>
<mask id="mask2" mask-type="alpha" maskUnits="userSpaceOnUse" x="193" y="25" width="75" height="75">
<path fill-rule="evenodd" clip-rule="evenodd" d="M230.708 99.1675C251.1 99.1675 267.63 82.6388 267.63 62.2495C267.63 41.8603 251.1 25.3315 230.708 25.3315C210.317 25.3315 193.786 41.8603 193.786 62.2495C193.786 82.6388 210.317 99.1675 230.708 99.1675Z" fill="white"/>
</mask>
<g mask="url(#mask2)">
<path opacity="0.7" fill-rule="evenodd" clip-rule="evenodd" d="M211.678 85.3111C211.678 74.5952 220.365 65.9082 231.081 65.9082V65.9082C241.797 65.9082 250.484 74.5951 250.484 85.311V109.23H211.678V85.3111Z" fill="white"/>
<path fill-rule="evenodd" clip-rule="evenodd" d="M230.891 71.9347C238.798 71.9347 245.208 65.5256 245.208 57.6196C245.208 49.7136 238.798 43.3044 230.891 43.3044C222.985 43.3044 216.575 49.7136 216.575 57.6196C216.575 65.5256 222.985 71.9347 230.891 71.9347Z" fill="white"/>
</g>
</g>
<path fill-rule="evenodd" clip-rule="evenodd" d="M95.3722 176.791C95.3722 184.552 88.9795 199.761 97.3156 203.704C105.652 207.648 113.024 187.168 113.024 187.168C113.024 187.168 112.388 172.129 104.852 172.129C97.3156 172.129 95.3722 169.03 95.3722 176.791Z" fill="url(#paint7_linear)"/>
<mask id="mask3" mask-type="alpha" maskUnits="userSpaceOnUse" x="93" y="171" width="21" height="34">
<path fill-rule="evenodd" clip-rule="evenodd" d="M95.3722 176.791C95.3722 184.552 88.9795 199.761 97.3156 203.704C105.652 207.648 113.024 187.168 113.024 187.168C113.024 187.168 112.388 172.129 104.852 172.129C97.3156 172.129 95.3722 169.03 95.3722 176.791Z" fill="white"/>
</mask>
<g mask="url(#mask3)">
<g opacity="0.5">
<path fill-rule="evenodd" clip-rule="evenodd" d="M94.8912 180.266C95.5634 181.632 104.724 188.858 106.239 190.567C107.754 192.276 108.1 196.742 108.97 196.281C109.84 195.82 108.97 182.718 108.97 182.718C108.97 182.718 94.2189 178.9 94.8912 180.266Z" fill="#3D82F0" style="mix-blend-mode:multiply"/>
</g>
</g>
<path fill-rule="evenodd" clip-rule="evenodd" d="M110.281 352.765C110.141 356.774 108.931 361.746 109.897 363.773C110.863 365.8 115.959 367.025 117.652 367.085C119.345 367.144 120.011 364.308 122.589 365.869C125.168 367.43 140.158 367.871 141.34 361.944C142.522 356.017 134.924 355.752 131.545 355.634C128.165 355.515 124.644 353.745 119.775 349.296C114.906 344.848 110.421 348.757 110.281 352.765Z" fill="url(#paint8_linear)"/>
<path fill-rule="evenodd" clip-rule="evenodd" d="M171.753 217.639C171.753 217.639 188.126 277.628 190.257 291.278C192.389 304.928 197.605 351.068 196.869 358.509C193.306 362.142 186.887 359.967 185.769 359.3C184.651 358.634 177.762 320.672 171.753 305.946C165.743 291.22 152.219 277.666 143.308 262.85C143.308 272.493 136.427 298.301 136.427 298.301C136.427 298.301 126.393 343.875 122.978 351.252C121.358 353.87 113.179 351.95 110.007 351.252C110.007 344.34 116.847 309.418 116.847 297.295C116.847 285.172 114.955 263.201 114.248 254.194C113.542 245.187 111.815 227.713 114.248 217.639C120.417 217.639 171.753 217.639 171.753 217.639Z" fill="url(#paint9_linear)"/>
<mask id="mask4" mask-type="alpha" maskUnits="userSpaceOnUse" x="110" y="217" width="87" height="144">
<path fill-rule="evenodd" clip-rule="evenodd" d="M171.753 217.639C171.753 217.639 188.126 277.628 190.257 291.278C192.389 304.928 197.605 351.068 196.869 358.509C193.306 362.142 186.887 359.967 185.769 359.3C184.651 358.634 177.762 320.672 171.753 305.946C165.743 291.22 152.219 277.666 143.308 262.85C143.308 272.493 136.427 298.301 136.427 298.301C136.427 298.301 126.393 343.875 122.978 351.252C121.358 353.87 113.179 351.95 110.007 351.252C110.007 344.34 116.847 309.418 116.847 297.295C116.847 285.172 114.955 263.201 114.248 254.194C113.542 245.187 111.815 227.713 114.248 217.639C120.417 217.639 171.753 217.639 171.753 217.639Z" fill="white"/>
</mask>
<g mask="url(#mask4)">
<g opacity="0.5">
<path fill-rule="evenodd" clip-rule="evenodd" d="M134.673 305.307C134.673 299.435 137.698 251.455 138.393 253.424C139.088 255.393 144.5 266.025 144.5 266.025C144.5 266.025 134.673 311.179 134.673 305.307Z" fill="#A1B8E3" style="mix-blend-mode:multiply"/>
</g>
<path fill-rule="evenodd" clip-rule="evenodd" d="M138.458 253.028C138.691 252.972 138.925 253.116 138.981 253.35C139.39 255.066 140.392 257.145 141.501 259.19C141.987 260.086 142.497 260.983 142.981 261.832C143.583 262.89 144.144 263.874 144.561 264.689C144.67 264.902 144.585 265.164 144.372 265.273C144.158 265.383 143.897 265.298 143.787 265.084C143.373 264.274 142.833 263.328 142.244 262.294C141.762 261.448 141.246 260.542 140.738 259.604C139.627 257.557 138.574 255.389 138.136 253.551C138.08 253.318 138.225 253.084 138.458 253.028Z" fill="white"/>
<g opacity="0.5">
<path fill-rule="evenodd" clip-rule="evenodd" d="M118.036 227.662C121.864 229.72 136.852 238.482 156.164 234.971C165.706 233.236 171.845 230.966 174.598 227.662C174.598 226.035 172.284 219.19 171.637 216.572C170.991 213.953 113.349 225.141 118.036 227.662Z" fill="url(#paint10_linear)" style="mix-blend-mode:multiply"/>
</g>
</g>
<path fill-rule="evenodd" clip-rule="evenodd" d="M142.795 90.1209C142.795 90.1209 145.008 94.4065 148.755 96.2259C152.502 98.0454 154.375 98.9356 154.375 98.9356L152.782 105.115C152.782 105.115 155.751 114.202 154.375 117.265C152.999 120.329 148.755 122.364 146.285 125.095C143.815 127.827 141.531 137.094 141.531 137.094H125.252L124.514 125.095C124.514 125.095 120.173 107.783 127.539 98.9356C134.905 90.0885 142.795 90.1209 142.795 90.1209Z" fill="url(#paint11_linear)"/>
<mask id="mask5" mask-type="alpha" maskUnits="userSpaceOnUse" x="123" y="90" width="32" height="48">
<path fill-rule="evenodd" clip-rule="evenodd" d="M142.795 90.1209C142.795 90.1209 145.008 94.4065 148.755 96.2259C152.502 98.0454 154.375 98.9356 154.375 98.9356L152.782 105.115C152.782 105.115 155.751 114.202 154.375 117.265C152.999 120.329 148.755 122.364 146.285 125.095C143.815 127.827 141.531 137.094 141.531 137.094H125.252L124.514 125.095C124.514 125.095 120.173 107.783 127.539 98.9356C134.905 90.0885 142.795 90.1209 142.795 90.1209Z" fill="white"/>
</mask>
<g mask="url(#mask5)">
<g opacity="0.5">
<path fill-rule="evenodd" clip-rule="evenodd" d="M148.315 123.465C144.205 123.465 137.795 119.826 136.561 118.583C135.327 117.34 146.834 130.788 145.874 132.93C145.116 134.62 142.411 135.137 144.117 135.137C150.27 135.137 152.424 123.465 148.315 123.465Z" fill="#3D82F0" style="mix-blend-mode:multiply"/>
</g>
</g>
<path fill-rule="evenodd" clip-rule="evenodd" d="M124.515 124.59C110.161 111.173 98.7948 99.7237 108.597 83.7694C118.399 67.8152 141.207 62.4519 145.47 81.8457C145.47 90.1669 139.326 94.6122 139.326 94.6122C139.326 94.6122 138.177 96.9512 141.207 99.4324C144.237 101.914 141.207 103.964 141.207 103.964C141.207 103.964 135.223 100.115 133.661 105.241C132.098 110.366 137.866 112.201 137.866 113.484C139.854 118.198 135.751 122.511 135.751 122.511C135.751 122.511 133.65 124.59 124.515 124.59Z" fill="url(#paint12_linear)"/>
<path fill-rule="evenodd" clip-rule="evenodd" d="M109.709 142.688C109.709 142.688 94.3435 169.643 92.4896 175.575C90.6357 181.506 109.709 184.936 109.709 184.936L117.668 151.03L109.709 142.688Z" fill="url(#paint13_linear)"/>
<path fill-rule="evenodd" clip-rule="evenodd" d="M142.905 133.409C142.905 133.409 154.478 136.463 161.298 144.533C168.117 152.603 166.597 176.882 168.529 191.332C170.46 205.782 178.865 216.286 165.883 224.44C152.902 232.595 116.198 230.743 113.196 224.44C110.194 218.137 106.773 179.399 106.773 179.399C106.773 179.399 106.773 144.533 110.873 141.594C114.973 138.655 124.544 132.975 124.544 132.975C124.544 132.975 124.329 133.839 128.946 134.696C133.563 135.552 142.905 133.409 142.905 133.409Z" fill="#D6E3FA"/>
<mask id="mask6" mask-type="alpha" maskUnits="userSpaceOnUse" x="106" y="132" width="67" height="98">
<path fill-rule="evenodd" clip-rule="evenodd" d="M142.905 133.409C142.905 133.409 154.478 136.463 161.298 144.533C168.117 152.603 166.597 176.882 168.529 191.332C170.46 205.782 178.865 216.286 165.883 224.44C152.902 232.595 116.198 230.743 113.196 224.44C110.194 218.137 106.773 179.399 106.773 179.399C106.773 179.399 106.773 144.533 110.873 141.594C114.973 138.655 124.544 132.975 124.544 132.975C124.544 132.975 124.329 133.839 128.946 134.696C133.563 135.552 142.905 133.409 142.905 133.409Z" fill="white"/>
</mask>
<g mask="url(#mask6)">
<path opacity="0.5" fill-rule="evenodd" clip-rule="evenodd" d="M152.519 160.99C152.519 160.99 158.761 190.168 162.517 195.638C166.274 201.107 168.716 217.656 171.723 219.63C174.729 221.603 179.048 199.027 176.889 191.298C174.729 183.568 164.995 164.636 164.995 164.636L152.519 160.99Z" fill="url(#paint14_linear)"/>
<path opacity="0.5" fill-rule="evenodd" clip-rule="evenodd" d="M127.293 134.974C130.072 136.816 137.311 137.814 143.395 137.814C149.48 137.814 151.383 137.878 154.295 136.992C157.206 136.106 156.077 134.974 154.295 134.974C152.512 134.974 146.983 133.674 144.007 133.674C141.031 133.674 124.515 133.131 127.293 134.974Z" fill="url(#paint15_linear)"/>
</g>
<path fill-rule="evenodd" clip-rule="evenodd" d="M124.016 133.408C124.016 133.408 123.658 128.945 123.658 127.505C123.658 126.066 135.645 128.099 144.271 128.905C145.207 132.496 145.041 132.734 145.041 133.408C145.041 133.745 142.887 136.633 131.297 135.697C127.066 135.355 124.016 133.408 124.016 133.408Z" fill="#E1ECFF"/>
<path fill-rule="evenodd" clip-rule="evenodd" d="M183.946 167.946C186.531 162.139 187.994 153.169 185.255 151.95C182.516 150.73 178.632 156.917 176.046 162.724C173.461 168.531 175.067 172.292 176.652 173.858C178.43 174.226 181.36 173.753 183.946 167.946Z" fill="#A1B8E3"/>
<path fill-rule="evenodd" clip-rule="evenodd" d="M180.894 150.587L193.016 155.577C193.016 155.577 203.766 126.891 204.419 123.168C205.071 119.445 202.181 114.191 201.714 112.318C201.247 110.445 201.322 106.037 202.627 104.424C203.932 102.811 204.277 103.387 205.252 103.144C206.227 102.901 212.011 90.4939 212.668 88.9351C213.324 87.3762 214.493 86.3982 215.683 86.9176C216.873 87.4369 216.762 88.8235 216.292 90.0499C215.822 91.2762 213.183 98.1583 213.482 99.3564C213.781 100.554 218.429 102.104 219.725 102.9C221.022 103.695 223.231 106.311 222.127 110.095C221.023 113.88 215.928 120.74 216.292 122.199C216.656 123.658 211.511 148.381 209.874 158.269C208.237 168.157 206.096 175.092 197.739 174.519C189.381 173.947 172.06 164.654 172.06 164.654C172.06 164.654 173.193 157.435 175.356 154.711C177.52 151.988 180.894 150.587 180.894 150.587Z" fill="url(#paint16_linear)"/>
<mask id="mask7" mask-type="alpha" maskUnits="userSpaceOnUse" x="172" y="86" width="51" height="89">
<path fill-rule="evenodd" clip-rule="evenodd" d="M180.894 150.587L193.016 155.577C193.016 155.577 203.766 126.891 204.419 123.168C205.071 119.445 202.181 114.191 201.714 112.318C201.247 110.445 201.322 106.037 202.627 104.424C203.932 102.811 204.277 103.387 205.252 103.144C206.227 102.901 212.011 90.4939 212.668 88.9351C213.324 87.3762 214.493 86.3982 215.683 86.9176C216.873 87.4369 216.762 88.8235 216.292 90.0499C215.822 91.2762 213.183 98.1583 213.482 99.3564C213.781 100.554 218.429 102.104 219.725 102.9C221.022 103.695 223.231 106.311 222.127 110.095C221.023 113.88 215.928 120.74 216.292 122.199C216.656 123.658 211.511 148.381 209.874 158.269C208.237 168.157 206.096 175.092 197.739 174.519C189.381 173.947 172.06 164.654 172.06 164.654C172.06 164.654 173.193 157.435 175.356 154.711C177.52 151.988 180.894 150.587 180.894 150.587Z" fill="white"/>
</mask>
<g mask="url(#mask7)">
<g opacity="0.5">
<path fill-rule="evenodd" clip-rule="evenodd" d="M184.872 151.915C184.872 151.915 182.303 166.945 183.915 171.367C185.527 175.789 176.685 169.548 176.685 169.548C176.685 169.548 176.857 163.108 178.216 160.182C179.575 157.255 184.872 151.915 184.872 151.915Z" fill="#3D82F0" style="mix-blend-mode:multiply"/>
</g>
<path fill-rule="evenodd" clip-rule="evenodd" d="M192.366 155.04C192.466 154.822 192.724 154.726 192.942 154.827C192.994 154.85 193.05 154.876 193.111 154.903C193.834 155.226 195.109 155.797 196.249 157.374C196.389 157.569 196.345 157.84 196.151 157.981C195.956 158.121 195.685 158.077 195.544 157.883C194.544 156.497 193.452 156.008 192.75 155.693C192.69 155.666 192.633 155.641 192.579 155.616C192.361 155.516 192.266 155.258 192.366 155.04Z" fill="#223762"/>
</g>
<path fill-rule="evenodd" clip-rule="evenodd" d="M176.544 173.814C177.909 166.982 179.877 157.581 185.343 151.955C165.838 143.544 159.691 140.562 153.559 137.943C147.426 135.323 141.847 152.578 153.559 161.161C165.271 169.744 173.289 172.376 176.544 173.814Z" fill="url(#paint17_linear)"/>
<path fill-rule="evenodd" clip-rule="evenodd" d="M510.011 207.973L428.076 192.681C404.298 227.522 393.046 256.906 394.32 280.831C409.343 287.057 438.265 296.911 481.084 310.392L515.538 217.735C516.949 213.94 515.017 209.719 511.221 208.308C510.828 208.162 510.423 208.049 510.011 207.973Z" fill="url(#paint18_linear)"/>
<path fill-rule="evenodd" clip-rule="evenodd" d="M428.101 212.64C428.849 215.219 428.511 217.081 427.087 218.225C424.95 219.941 422.805 222.859 420.69 223.1C418.575 223.34 416.285 224.5 415.914 227.467C415.735 228.9 408.395 236.31 405.773 246.506C405.109 249.087 405.917 253.059 408.196 258.422L414.26 255.084L422.896 241.095C432.487 237.763 437.894 235.699 439.116 234.903C440.95 233.709 446.89 228.599 445.745 226.683C444.599 224.767 448.326 212.594 450.538 210.228C452.751 207.862 454.564 202.096 454.608 199.967C454.652 197.838 455.42 191.465 449.896 191.668C446.214 191.804 438.949 198.794 428.101 212.64Z" fill="url(#paint19_linear)"/>
<mask id="mask8" mask-type="alpha" maskUnits="userSpaceOnUse" x="405" y="191" width="50" height="68">
<path fill-rule="evenodd" clip-rule="evenodd" d="M428.101 212.64C428.849 215.219 428.511 217.081 427.087 218.225C424.95 219.941 422.805 222.859 420.69 223.1C418.575 223.34 416.285 224.5 415.914 227.467C415.735 228.9 408.395 236.31 405.773 246.506C405.109 249.087 405.917 253.059 408.196 258.422L414.26 255.084L422.896 241.095C432.487 237.763 437.894 235.699 439.116 234.903C440.95 233.709 446.89 228.599 445.745 226.683C444.599 224.767 448.326 212.594 450.538 210.228C452.751 207.862 454.564 202.096 454.608 199.967C454.652 197.838 455.42 191.465 449.896 191.668C446.214 191.804 438.949 198.794 428.101 212.64Z" fill="white"/>
</mask>
<g mask="url(#mask8)">
<path fill-rule="evenodd" clip-rule="evenodd" d="M448.762 223.59C448.762 223.59 438.284 204.996 433.39 200.329C428.496 195.663 456.741 190.959 456.741 190.959L448.762 227.1V223.59Z" fill="url(#paint20_linear)" style="mix-blend-mode:multiply"/>
</g>
<path fill-rule="evenodd" clip-rule="evenodd" d="M422.376 168.903C419.848 170.606 422.005 177.458 419.268 181.369C417.771 183.508 414.624 184.697 413.171 185.548C409.059 187.956 413.284 189.675 414.134 191.108C414.983 192.541 414.306 195.779 413.67 198.331C413.034 200.883 410.776 206.633 413.197 207.918C415.617 209.203 430.476 214.812 434.773 213.099C439.07 211.386 440.607 202.802 441.666 202.244C442.725 201.685 443.469 202.275 444.446 202.519C446.991 203.153 449.289 201.727 450.513 199.697C451.898 197.398 453.868 198.447 452.803 195.305C451.16 190.459 441.637 171.369 437.853 169.997C434.07 168.624 426.287 166.27 422.376 168.903Z" fill="url(#paint21_radial)"/>
<path fill-rule="evenodd" clip-rule="evenodd" d="M434.718 174.149C425.041 171.736 420.541 173.897 417.037 166.377C414.968 161.935 418.997 148.309 425.783 148C427.453 155.617 435.52 156.272 440.195 156.905C465.294 160.303 467.92 183.251 460.406 196.769C457.987 201.12 455.749 204.247 453.753 206.592C452.485 208.08 450.828 209.873 450.269 210.724C450.082 211.008 448.463 214.592 448.183 214.522C447.337 214.312 447.677 214.269 448.092 210.559C448.507 206.849 448.739 205.851 449.492 202.832C449.714 201.941 453.923 195.092 450.69 192.612C448.536 190.959 445.625 191.969 441.958 195.641L439.731 194.802C441.202 191.531 442.132 189.116 442.521 187.557C443.104 185.219 444.394 176.562 434.718 174.149Z" fill="url(#paint22_linear)"/>
<path fill-rule="evenodd" clip-rule="evenodd" d="M434.718 174.149C425.041 171.736 420.541 173.897 417.037 166.377C414.968 161.935 418.997 148.309 425.783 148C427.453 155.617 435.52 156.272 440.195 156.905C465.294 160.303 467.92 183.251 460.406 196.769C457.987 201.12 455.749 204.247 453.753 206.592C452.485 208.08 450.828 209.873 450.269 210.724C450.082 211.008 448.463 214.592 448.183 214.522C447.337 214.312 447.677 214.269 448.092 210.559C448.507 206.849 448.739 205.851 449.492 202.832C449.714 201.941 453.923 195.092 450.69 192.612C448.536 190.959 445.625 191.969 441.958 195.641L439.731 194.802C441.202 191.531 442.132 189.116 442.521 187.557C443.104 185.219 444.394 176.562 434.718 174.149Z" fill="url(#paint23_linear)"/>
<path fill-rule="evenodd" clip-rule="evenodd" d="M439.734 194.913C438.995 196.559 436.208 200.354 433.693 201.724C431.177 203.095 425.879 203.179 424.792 201.616C423.705 200.054 418.768 192.976 414.318 191.866C414.095 192.762 413.485 194.286 412.489 196.438C415.933 197.87 417.933 199.216 418.49 200.478C419.325 202.371 419.773 201.103 418.939 201.944C418.106 202.785 413.752 202.138 413.422 198.856C412.166 201.47 410.817 208.525 411.292 210.137C411.768 211.749 414.505 212.488 417.207 212.661C419.909 212.835 429.534 214.304 431.986 213.803C434.437 213.302 437.552 213.59 439.603 207.651C441.654 201.711 441.198 197.863 443.874 192.805C446.551 187.746 440.472 193.267 439.734 194.913Z" fill="url(#paint24_linear)"/>
<g filter="url(#filter1_i)">
<path fill-rule="evenodd" clip-rule="evenodd" d="M447.403 218.936C457.572 221.253 464.405 225.113 467.902 230.518C473.146 238.625 475.773 260.161 475.773 267.146C475.773 274.131 476.61 291.267 475.773 295.942C474.937 300.617 471.097 304.09 463.15 304.09C457.852 304.09 427.823 294.235 373.063 274.526C380.265 270.965 383.98 268.505 384.209 267.146C384.553 265.107 401.264 227.935 406.549 224.149C411.835 220.362 422.806 218.57 427.204 218.57C426.561 220.355 425.131 221.796 427.153 224.149C429.176 226.502 433.144 226.913 437.076 225.279C439.697 224.191 443.139 222.076 447.403 218.936Z" fill="#3D82F0"/>
<path fill-rule="evenodd" clip-rule="evenodd" d="M447.403 218.936C457.572 221.253 464.405 225.113 467.902 230.518C473.146 238.625 475.773 260.161 475.773 267.146C475.773 274.131 476.61 291.267 475.773 295.942C474.937 300.617 471.097 304.09 463.15 304.09C457.852 304.09 427.823 294.235 373.063 274.526C380.265 270.965 383.98 268.505 384.209 267.146C384.553 265.107 401.264 227.935 406.549 224.149C411.835 220.362 422.806 218.57 427.204 218.57C426.561 220.355 425.131 221.796 427.153 224.149C429.176 226.502 433.144 226.913 437.076 225.279C439.697 224.191 443.139 222.076 447.403 218.936Z" fill="url(#paint25_linear)"/>
</g>
<mask id="mask9" mask-type="alpha" maskUnits="userSpaceOnUse" x="373" y="218" width="104" height="87">
<path fill-rule="evenodd" clip-rule="evenodd" d="M447.403 218.936C457.572 221.253 464.405 225.113 467.902 230.518C473.146 238.625 475.773 260.161 475.773 267.146C475.773 274.131 476.61 291.267 475.773 295.942C474.937 300.617 471.097 304.09 463.15 304.09C457.852 304.09 427.823 294.235 373.063 274.526C380.265 270.965 383.98 268.505 384.209 267.146C384.553 265.107 401.264 227.935 406.549 224.149C411.835 220.362 422.806 218.57 427.204 218.57C426.561 220.355 425.131 221.796 427.153 224.149C429.176 226.502 433.144 226.913 437.076 225.279C439.697 224.191 443.139 222.076 447.403 218.936Z" fill="white"/>
<path fill-rule="evenodd" clip-rule="evenodd" d="M447.403 218.936C457.572 221.253 464.405 225.113 467.902 230.518C473.146 238.625 475.773 260.161 475.773 267.146C475.773 274.131 476.61 291.267 475.773 295.942C474.937 300.617 471.097 304.09 463.15 304.09C457.852 304.09 427.823 294.235 373.063 274.526C380.265 270.965 383.98 268.505 384.209 267.146C384.553 265.107 401.264 227.935 406.549 224.149C411.835 220.362 422.806 218.57 427.204 218.57C426.561 220.355 425.131 221.796 427.153 224.149C429.176 226.502 433.144 226.913 437.076 225.279C439.697 224.191 443.139 222.076 447.403 218.936Z" stroke="white"/>
</mask>
<g mask="url(#mask9)">
<g opacity="0.585435">
<path fill-rule="evenodd" clip-rule="evenodd" d="M421.847 220.001C413.425 228.622 430.039 233.215 436.822 230.918C443.606 228.622 451.219 220.001 451.219 220.001C451.219 220.001 432.037 205.726 426.942 212.864C421.847 220.001 430.268 211.38 421.847 220.001Z" fill="url(#paint26_linear)" style="mix-blend-mode:multiply"/>
</g>
<g opacity="0.54654">
<path fill-rule="evenodd" clip-rule="evenodd" d="M409.845 297.998C415.843 297.998 454.834 291.541 454.834 286.3C454.834 281.059 451.828 244.135 451.828 244.135" fill="url(#paint27_linear)" style="mix-blend-mode:multiply"/>
</g>
<g opacity="0.54654">
<path fill-rule="evenodd" clip-rule="evenodd" d="M355.221 275.267C357.937 275.267 370.495 291.177 381.969 285.822C395.829 279.353 403.899 255.4 403.899 252.533C403.899 250.339 407.538 242.56 406.152 234.084C405.331 229.06 398.626 218.143 398.626 218.143" fill="url(#paint28_linear)" style="mix-blend-mode:multiply"/>
</g>
</g>
<path fill-rule="evenodd" clip-rule="evenodd" d="M24.4777 224.173L98.8712 206.198C112.63 243.294 118.872 273.805 117.598 297.73C102.575 303.956 80.0407 312.03 49.9951 321.949L19.2753 233.71C17.944 229.886 19.9649 225.707 23.789 224.375C24.0151 224.296 24.245 224.229 24.4777 224.173Z" fill="url(#paint29_linear)"/>
<path fill-rule="evenodd" clip-rule="evenodd" d="M19.5483 302.728L306.356 248.531C311.344 247.588 316.523 247.907 321.324 249.451L502.219 307.645C546.794 321.984 541.674 380.479 495.16 388.285L459.377 394.291C456.596 394.758 453.772 394.993 450.943 394.993H65.8149C40.2626 394.993 19.5483 376.242 19.5483 353.112V302.728Z" fill="url(#paint30_linear)"/>
<g style="mix-blend-mode:multiply" opacity="0.196931">
<path fill-rule="evenodd" clip-rule="evenodd" d="M231.083 298.49L320.826 283.985L389.107 313.901L290.255 340.124" fill="url(#paint31_linear)"/>
</g>
<path fill-rule="evenodd" clip-rule="evenodd" d="M175.045 290.014L223.825 281.634C250.75 298.459 263.944 306.926 263.409 307.034C262.648 307.188 208.785 316.606 205.146 317.583C205.487 316.713 195.451 307.522 175.045 290.014Z" fill="url(#paint32_linear)"/>
<path fill-rule="evenodd" clip-rule="evenodd" d="M204.007 276.999L254.984 273.569L283.008 298.054L219.499 302.435L204.007 276.999Z" fill="url(#paint33_linear)"/>
<g filter="url(#filter2_i)">
<path fill-rule="evenodd" clip-rule="evenodd" d="M386.68 313.151L432.976 294.717C433.916 294.342 434.375 293.276 434.001 292.336C433.806 291.847 433.411 291.466 432.916 291.288L373.967 270.161L315.814 284.533L386.68 313.151Z" fill="url(#paint34_linear)"/>
</g>
<g filter="url(#filter3_i)">
<path fill-rule="evenodd" clip-rule="evenodd" d="M305.507 224.665L370.828 245.803C372.75 246.425 374.176 248.05 374.542 250.037L386.23 313.382L315.447 284.668L302.682 227.235C302.419 226.049 303.166 224.874 304.352 224.61C304.735 224.525 305.134 224.544 305.507 224.665Z" fill="url(#paint35_linear)"/>
<path fill-rule="evenodd" clip-rule="evenodd" d="M305.507 224.665L370.828 245.803C372.75 246.425 374.176 248.05 374.542 250.037L386.23 313.382L315.447 284.668L302.682 227.235C302.419 226.049 303.166 224.874 304.352 224.61C304.735 224.525 305.134 224.544 305.507 224.665Z" fill="url(#paint36_linear)" fill-opacity="0.23"/>
</g>
<path fill-rule="evenodd" clip-rule="evenodd" d="M338.276 271.351C341.643 272.993 345.192 272.989 346.657 269.987C348.121 266.984 345.48 263.586 342.113 261.944C338.746 260.302 335.563 260.305 334.099 263.307C332.634 266.31 334.91 269.709 338.276 271.351Z" fill="#D6E3FA"/>
<path fill-rule="evenodd" clip-rule="evenodd" d="M87.959 320.254L55.112 304.601C54.269 304.199 53.9162 303.203 54.3238 302.375C54.5496 301.916 54.9767 301.585 55.4832 301.475L119.952 287.513L153.822 304.163L87.959 320.254Z" fill="url(#paint37_linear)"/>
<path fill-rule="evenodd" clip-rule="evenodd" d="M168.381 255.201L107.47 264.464C105.502 264.763 103.895 266.164 103.357 268.047L88.3927 320.425L151.035 307.464C152.553 307.15 153.789 306.076 154.292 304.635L170.619 257.828C170.983 256.784 170.417 255.646 169.354 255.287C169.042 255.181 168.707 255.152 168.381 255.201Z" fill="url(#paint38_linear)"/>
<path fill-rule="evenodd" clip-rule="evenodd" d="M133.783 292.089C130.825 293.856 127.556 294.15 125.949 291.554C124.342 288.959 126.482 285.662 129.441 283.895C132.4 282.128 135.331 281.865 136.938 284.461C138.545 287.056 136.742 290.322 133.783 292.089Z" fill="#D6E3FA"/>
<path opacity="0.7" fill-rule="evenodd" clip-rule="evenodd" d="M35.8602 333.923C47.8053 333.923 57.4888 336.021 57.4888 338.61C57.4888 341.198 47.8053 343.296 35.8602 343.296C23.9151 343.296 14.2317 341.198 14.2317 338.61C14.2317 336.021 23.9151 333.923 35.8602 333.923Z" fill="url(#paint39_linear)"/>
<path fill-rule="evenodd" clip-rule="evenodd" d="M64.6832 311.345C66.3105 314.196 67.2219 317.391 67.2219 320.764C67.2219 332.809 55.6019 342.573 41.2677 342.573C26.9335 342.573 15.3135 332.809 15.3135 320.764C15.3135 317.195 16.3341 313.825 18.1437 310.851C29.6413 312.671 52.5266 312.554 64.6832 311.345Z" fill="url(#paint40_linear)"/>
<mask id="mask10" mask-type="alpha" maskUnits="userSpaceOnUse" x="15" y="310" width="53" height="33">
<path fill-rule="evenodd" clip-rule="evenodd" d="M64.6832 311.345C66.3105 314.196 67.2219 317.391 67.2219 320.764C67.2219 332.809 55.6019 342.573 41.2677 342.573C26.9335 342.573 15.3135 332.809 15.3135 320.764C15.3135 317.195 16.3341 313.825 18.1437 310.851C29.6413 312.671 52.5266 312.554 64.6832 311.345Z" fill="white"/>
</mask>
<g mask="url(#mask10)">
</g>
<path fill-rule="evenodd" clip-rule="evenodd" d="M41.449 306.526C54.4891 306.526 65.0601 309.028 65.0601 312.113C65.0601 315.199 54.4891 317.701 41.449 317.701C28.4089 317.701 17.8378 315.199 17.8378 312.113C17.8378 309.028 28.4089 306.526 41.449 306.526Z" fill="url(#paint41_linear)"/>
<mask id="mask11" mask-type="alpha" maskUnits="userSpaceOnUse" x="17" y="306" width="49" height="12">
<path fill-rule="evenodd" clip-rule="evenodd" d="M41.449 306.526C54.4891 306.526 65.0601 309.028 65.0601 312.113C65.0601 315.199 54.4891 317.701 41.449 317.701C28.4089 317.701 17.8378 315.199 17.8378 312.113C17.8378 309.028 28.4089 306.526 41.449 306.526Z" fill="white"/>
</mask>
<g mask="url(#mask11)">
</g>
<g filter="url(#filter4_i)">
<path fill-rule="evenodd" clip-rule="evenodd" d="M39.4653 307.967C38.1759 299.044 34.6287 286.159 23.9648 272.28C17.6831 264.105 17.6626 244.196 16.7554 242C21.6846 243.695 30.5393 248.064 39.4653 260.384C48.8222 273.299 42.8863 299.637 39.4653 307.967Z" fill="url(#paint42_linear)"/>
</g>
<mask id="mask12" mask-type="alpha" maskUnits="userSpaceOnUse" x="16" y="242" width="29" height="66">
<path fill-rule="evenodd" clip-rule="evenodd" d="M39.4653 307.967C38.1759 299.044 34.6287 286.159 23.9648 272.28C17.6831 264.105 17.6626 244.196 16.7554 242C21.6846 243.695 30.5393 248.064 39.4653 260.384C48.8222 273.299 42.8863 299.637 39.4653 307.967Z" fill="white"/>
</mask>
<g mask="url(#mask12)">
<g style="mix-blend-mode:multiply" opacity="0.5">
<path fill-rule="evenodd" clip-rule="evenodd" d="M39.105 307.967C40.0891 286.276 37.3884 272.586 28.8976 259.663Z" fill="black" fill-opacity="0.01"/>
</g>
</g>
<g filter="url(#filter5_i)">
<path fill-rule="evenodd" clip-rule="evenodd" d="M39.5051 317.126C35.5215 310.755 28.4832 302.12 15.6804 295.119C8.13869 290.994 1.43037 275.818 0 274.449C4.33114 274.085 12.5568 274.443 23.5094 280.839C34.9908 287.544 39.3152 309.624 39.5051 317.126Z" fill="url(#paint43_linear)"/>
</g>
<mask id="mask13" mask-type="alpha" maskUnits="userSpaceOnUse" x="0" y="274" width="40" height="44">
<path fill-rule="evenodd" clip-rule="evenodd" d="M39.5051 317.126C35.5215 310.755 28.4832 302.12 15.6804 295.119C8.13869 290.994 1.43037 275.818 0 274.449C4.33114 274.085 12.5568 274.443 23.5094 280.839C34.9908 287.544 39.3152 309.624 39.5051 317.126Z" fill="white"/>
</mask>
<g mask="url(#mask13)">
<g style="mix-blend-mode:multiply" opacity="0.5">
<path fill-rule="evenodd" clip-rule="evenodd" d="M39.2297 317.248C32.689 300.376 26.0262 290.843 15.2026 283.84Z" fill="black" fill-opacity="0.01"/>
</g>
</g>
<g filter="url(#filter6_i)">
<path fill-rule="evenodd" clip-rule="evenodd" d="M42.3657 317.999C45.5067 311.141 51.3967 301.635 63.2405 293.013C70.2174 287.934 74.9298 271.958 76.1768 270.409C71.8155 270.606 63.6686 272.023 53.5891 279.804C43.0231 287.962 41.5812 310.505 42.3657 317.999Z" fill="url(#paint44_linear)"/>
</g>
<mask id="mask14" mask-type="alpha" maskUnits="userSpaceOnUse" x="42" y="270" width="35" height="48">
<path fill-rule="evenodd" clip-rule="evenodd" d="M42.3657 317.999C45.5067 311.141 51.3967 301.635 63.2405 293.013C70.2174 287.934 74.9298 271.958 76.1768 270.409C71.8155 270.606 63.6686 272.023 53.5891 279.804C43.0231 287.962 41.5812 310.505 42.3657 317.999Z" fill="white"/>
</mask>
<g mask="url(#mask14)">
<g style="mix-blend-mode:multiply" opacity="0.5">
<path fill-rule="evenodd" clip-rule="evenodd" d="M41.4528 317.984C45.7782 300.34 51.1775 289.989 61.0497 281.62Z" fill="black" fill-opacity="0.01"/>
</g>
</g>
<defs>
<filter id="filter0_d" x="193.967" y="25.2231" width="78.8438" height="78.9444" filterUnits="userSpaceOnUse" color-interpolation-filters="sRGB">
<feFlood flood-opacity="0" result="BackgroundImageFix"/>
<feColorMatrix in="SourceAlpha" type="matrix" values="0 0 0 0 0 0 0 0 0 0 0 0 0 0 0 0 0 0 127 0"/>
<feOffset dx="5" dy="5"/>
<feColorMatrix type="matrix" values="0 0 0 0 1 0 0 0 0 0.705882 0 0 0 0 0.0901961 0 0 0 0.320143 0"/>
<feBlend mode="normal" in2="BackgroundImageFix" result="effect1_dropShadow"/>
<feBlend mode="normal" in="SourceGraphic" in2="effect1_dropShadow" result="shape"/>
</filter>
<filter id="filter1_i" x="361.063" y="218.57" width="115.082" height="86.5199" filterUnits="userSpaceOnUse" color-interpolation-filters="sRGB">
<feFlood flood-opacity="0" result="BackgroundImageFix"/>
<feBlend mode="normal" in="SourceGraphic" in2="BackgroundImageFix" result="shape"/>
<feColorMatrix in="SourceAlpha" type="matrix" values="0 0 0 0 0 0 0 0 0 0 0 0 0 0 0 0 0 0 127 0" result="hardAlpha"/>
<feOffset dx="-12" dy="1"/>
<feGaussianBlur stdDeviation="13.5"/>
<feComposite in2="hardAlpha" operator="arithmetic" k2="-1" k3="1"/>
<feColorMatrix type="matrix" values="0 0 0 0 0.0901961 0 0 0 0 0.254902 0 0 0 0 0.572549 0 0 0 0.204201 0"/>
<feBlend mode="normal" in2="shape" result="effect1_innerShadow"/>
</filter>
<filter id="filter2_i" x="298.814" y="263.161" width="135.317" height="49.9907" filterUnits="userSpaceOnUse" color-interpolation-filters="sRGB">
<feFlood flood-opacity="0" result="BackgroundImageFix"/>
<feBlend mode="normal" in="SourceGraphic" in2="BackgroundImageFix" result="shape"/>
<feColorMatrix in="SourceAlpha" type="matrix" values="0 0 0 0 0 0 0 0 0 0 0 0 0 0 0 0 0 0 127 0" result="hardAlpha"/>
<feOffset dx="-17" dy="-7"/>
<feGaussianBlur stdDeviation="12"/>
<feComposite in2="hardAlpha" operator="arithmetic" k2="-1" k3="1"/>
<feColorMatrix type="matrix" values="0 0 0 0 0.239216 0 0 0 0 0.509804 0 0 0 0 0.941176 0 0 0 0.775419 0"/>
<feBlend mode="normal" in2="shape" result="effect1_innerShadow"/>
</filter>
<filter id="filter3_i" x="296.629" y="224.558" width="89.601" height="90.8235" filterUnits="userSpaceOnUse" color-interpolation-filters="sRGB">
<feFlood flood-opacity="0" result="BackgroundImageFix"/>
<feBlend mode="normal" in="SourceGraphic" in2="BackgroundImageFix" result="shape"/>
<feColorMatrix in="SourceAlpha" type="matrix" values="0 0 0 0 0 0 0 0 0 0 0 0 0 0 0 0 0 0 127 0" result="hardAlpha"/>
<feOffset dx="-6" dy="2"/>
<feGaussianBlur stdDeviation="6"/>
<feComposite in2="hardAlpha" operator="arithmetic" k2="-1" k3="1"/>
<feColorMatrix type="matrix" values="0 0 0 0 1 0 0 0 0 1 0 0 0 0 1 0 0 0 0.5 0"/>
<feBlend mode="normal" in2="shape" result="effect1_innerShadow"/>
</filter>
<filter id="filter4_i" x="16.7554" y="232" width="27.7374" height="75.9671" filterUnits="userSpaceOnUse" color-interpolation-filters="sRGB">
<feFlood flood-opacity="0" result="BackgroundImageFix"/>
<feBlend mode="normal" in="SourceGraphic" in2="BackgroundImageFix" result="shape"/>
<feColorMatrix in="SourceAlpha" type="matrix" values="0 0 0 0 0 0 0 0 0 0 0 0 0 0 0 0 0 0 127 0" result="hardAlpha"/>
<feOffset dy="-10"/>
<feGaussianBlur stdDeviation="11"/>
<feComposite in2="hardAlpha" operator="arithmetic" k2="-1" k3="1"/>
<feColorMatrix type="matrix" values="0 0 0 0 0.221483 0 0 0 0 0.77854 0 0 0 0 0.610041 0 0 0 1 0"/>
<feBlend mode="normal" in2="shape" result="effect1_innerShadow"/>
</filter>
<filter id="filter5_i" x="0" y="264.352" width="39.5051" height="52.7748" filterUnits="userSpaceOnUse" color-interpolation-filters="sRGB">
<feFlood flood-opacity="0" result="BackgroundImageFix"/>
<feBlend mode="normal" in="SourceGraphic" in2="BackgroundImageFix" result="shape"/>
<feColorMatrix in="SourceAlpha" type="matrix" values="0 0 0 0 0 0 0 0 0 0 0 0 0 0 0 0 0 0 127 0" result="hardAlpha"/>
<feOffset dy="-10"/>
<feGaussianBlur stdDeviation="11"/>
<feComposite in2="hardAlpha" operator="arithmetic" k2="-1" k3="1"/>
<feColorMatrix type="matrix" values="0 0 0 0 0.221483 0 0 0 0 0.77854 0 0 0 0 0.610041 0 0 0 1 0"/>
<feBlend mode="normal" in2="shape" result="effect1_innerShadow"/>
</filter>
<filter id="filter6_i" x="42.1859" y="260.409" width="33.9909" height="57.5898" filterUnits="userSpaceOnUse" color-interpolation-filters="sRGB">
<feFlood flood-opacity="0" result="BackgroundImageFix"/>
<feBlend mode="normal" in="SourceGraphic" in2="BackgroundImageFix" result="shape"/>
<feColorMatrix in="SourceAlpha" type="matrix" values="0 0 0 0 0 0 0 0 0 0 0 0 0 0 0 0 0 0 127 0" result="hardAlpha"/>
<feOffset dy="-10"/>
<feGaussianBlur stdDeviation="11"/>
<feComposite in2="hardAlpha" operator="arithmetic" k2="-1" k3="1"/>
<feColorMatrix type="matrix" values="0 0 0 0 0.221483 0 0 0 0 0.77854 0 0 0 0 0.610041 0 0 0 1 0"/>
<feBlend mode="normal" in2="shape" result="effect1_innerShadow"/>
</filter>
<radialGradient id="paint0_radial" cx="0" cy="0" r="1" gradientUnits="userSpaceOnUse" gradientTransform="translate(402.088 30.1499) rotate(122.063) scale(331.306 344.003)">
<stop stop-color="#EDF3FD"/>
<stop offset="0.40887" stop-color="#DCE8FB"/>
<stop offset="1" stop-color="#AEBDD8"/>
</radialGradient>
<linearGradient id="paint1_linear" x1="327.433" y1="105.581" x2="327.433" y2="52.7089" gradientUnits="userSpaceOnUse">
<stop stop-color="#FDE76B"/>
<stop offset="1" stop-color="#FAB539"/>
</linearGradient>
<linearGradient id="paint2_linear" x1="348.126" y1="102.047" x2="348.126" y2="61.615" gradientUnits="userSpaceOnUse">
<stop stop-color="#FDE76B"/>
<stop offset="1" stop-color="#FAB539"/>
</linearGradient>
<linearGradient id="paint3_linear" x1="368.408" y1="99.2499" x2="368.408" y2="68.6669" gradientUnits="userSpaceOnUse">
<stop stop-color="#FDE76B"/>
<stop offset="1" stop-color="#FAB539"/>
</linearGradient>
<linearGradient id="paint4_linear" x1="219.522" y1="126.851" x2="204.345" y2="152.465" gradientUnits="userSpaceOnUse">
<stop stop-color="#CBDAF1"/>
<stop offset="1" stop-color="#7089B9"/>
</linearGradient>
<linearGradient id="paint5_linear" x1="219.522" y1="185.371" x2="204.345" y2="210.986" gradientUnits="userSpaceOnUse">
<stop stop-color="#CBDAF1"/>
<stop offset="1" stop-color="#7089B9"/>
</linearGradient>
<linearGradient id="paint6_linear" x1="306.192" y1="131.48" x2="263.628" y2="40.8541" gradientUnits="userSpaceOnUse">
<stop stop-color="#FFE883"/>
<stop offset="1" stop-color="#FECC4C"/>
</linearGradient>
<linearGradient id="paint7_linear" x1="108.942" y1="214.876" x2="119.206" y2="199.08" gradientUnits="userSpaceOnUse">
<stop stop-color="#70B8F9"/>
<stop offset="1" stop-color="#3D82F0"/>
</linearGradient>
<linearGradient id="paint8_linear" x1="111.961" y1="373.604" x2="124.535" y2="354.366" gradientUnits="userSpaceOnUse">
<stop stop-color="#47689B"/>
<stop offset="1" stop-color="#223762"/>
</linearGradient>
<linearGradient id="paint9_linear" x1="156.413" y1="390.626" x2="216.654" y2="253.617" gradientUnits="userSpaceOnUse">
<stop stop-color="#CFDDF3"/>
<stop offset="1" stop-color="#A1B8E3"/>
</linearGradient>
<linearGradient id="paint10_linear" x1="184.848" y1="231.578" x2="184.196" y2="220.027" gradientUnits="userSpaceOnUse">
<stop stop-color="#CFDDF3" stop-opacity="0.477723"/>
<stop offset="1" stop-color="#A1B8E3"/>
</linearGradient>
<linearGradient id="paint11_linear" x1="152.833" y1="78.2959" x2="130.904" y2="93.0883" gradientUnits="userSpaceOnUse">
<stop stop-color="#70B8F9"/>
<stop offset="1" stop-color="#3D82F0"/>
</linearGradient>
<linearGradient id="paint12_linear" x1="113.762" y1="78.0869" x2="133.403" y2="103.983" gradientUnits="userSpaceOnUse">
<stop stop-color="#164898"/>
<stop offset="1" stop-color="#223762"/>
</linearGradient>
<linearGradient id="paint13_linear" x1="94.4201" y1="179.764" x2="114.135" y2="177.175" gradientUnits="userSpaceOnUse">
<stop stop-color="#EDF3FD"/>
<stop offset="1" stop-color="#D6E3FA"/>
</linearGradient>
<linearGradient id="paint14_linear" x1="167.931" y1="201.609" x2="181.03" y2="193.258" gradientUnits="userSpaceOnUse">
<stop stop-color="#CFDDF3"/>
<stop offset="1" stop-color="#A1B8E3"/>
</linearGradient>
<linearGradient id="paint15_linear" x1="194.083" y1="142.746" x2="193.902" y2="130.452" gradientUnits="userSpaceOnUse">
<stop stop-color="#CFDDF3"/>
<stop offset="1" stop-color="#A1B8E3"/>
</linearGradient>
<linearGradient id="paint16_linear" x1="264.22" y1="214.718" x2="235.322" y2="98.8145" gradientUnits="userSpaceOnUse">
<stop stop-color="#70B8F9"/>
<stop offset="1" stop-color="#3D82F0"/>
</linearGradient>
<linearGradient id="paint17_linear" x1="140.543" y1="148.475" x2="153.563" y2="175.171" gradientUnits="userSpaceOnUse">
<stop stop-color="#D6E3FA"/>
<stop offset="1" stop-color="#E3EDFE"/>
</linearGradient>
<linearGradient id="paint18_linear" x1="447.825" y1="263.972" x2="494.674" y2="250.011" gradientUnits="userSpaceOnUse">
<stop stop-color="#7FA0D4"/>
<stop offset="1" stop-color="#D6E3FA"/>
</linearGradient>
<linearGradient id="paint19_linear" x1="437.689" y1="188.524" x2="417.349" y2="204.508" gradientUnits="userSpaceOnUse">
<stop stop-color="#5D6FAA"/>
<stop offset="1" stop-color="#90AADB"/>
</linearGradient>
<linearGradient id="paint20_linear" x1="432.668" y1="190.959" x2="432.668" y2="227.1" gradientUnits="userSpaceOnUse">
<stop stop-color="#CFDDF3"/>
<stop offset="1" stop-color="#A1B8E3" stop-opacity="0.01"/>
</linearGradient>
<radialGradient id="paint21_radial" cx="0" cy="0" r="1" gradientUnits="userSpaceOnUse" gradientTransform="translate(417.879 182.931) rotate(23.4052) scale(19.0041 25.5371)">
<stop stop-color="#E1EDFF"/>
<stop offset="1" stop-color="#A1B8E3"/>
</radialGradient>
<linearGradient id="paint22_linear" x1="403.941" y1="147.083" x2="413.478" y2="180" gradientUnits="userSpaceOnUse">
<stop stop-color="#2D6DC0"/>
<stop offset="1" stop-color="#143B8C"/>
</linearGradient>
<linearGradient id="paint23_linear" x1="431.771" y1="176.245" x2="438.916" y2="209.79" gradientUnits="userSpaceOnUse">
<stop stop-color="#174293" stop-opacity="0.01"/>
<stop offset="1" stop-color="#051E4B"/>
</linearGradient>
<linearGradient id="paint24_linear" x1="393.941" y1="202.512" x2="408.37" y2="226.767" gradientUnits="userSpaceOnUse">
<stop stop-color="#2D6DC0"/>
<stop offset="1" stop-color="#143B8C"/>
</linearGradient>
<linearGradient id="paint25_linear" x1="401.258" y1="265.942" x2="395.931" y2="285.498" gradientUnits="userSpaceOnUse">
<stop stop-color="#2E7DE7" stop-opacity="0.01"/>
<stop offset="1" stop-color="#00357E" stop-opacity="0.5"/>
</linearGradient>
<linearGradient id="paint26_linear" x1="451.219" y1="231.507" x2="451.219" y2="210.484" gradientUnits="userSpaceOnUse">
<stop stop-color="#70B8F9" stop-opacity="0.275872"/>
<stop offset="1" stop-color="#3D82F0"/>
</linearGradient>
<linearGradient id="paint27_linear" x1="428.494" y1="285.472" x2="450.457" y2="296.78" gradientUnits="userSpaceOnUse">
<stop stop-color="#3D82F0" stop-opacity="0.01"/>
<stop offset="1" stop-color="#3D82F0"/>
</linearGradient>
<linearGradient id="paint28_linear" x1="376.463" y1="270.928" x2="402.6" y2="282.932" gradientUnits="userSpaceOnUse">
<stop stop-color="#3D82F0" stop-opacity="0.01"/>
<stop offset="1" stop-color="#3D82F0"/>
</linearGradient>
<linearGradient id="paint29_linear" x1="80.1117" y1="243.25" x2="43.1781" y2="235.77" gradientUnits="userSpaceOnUse">
<stop stop-color="#7FA0D4"/>
<stop offset="1" stop-color="#D6E3FA"/>
</linearGradient>
<linearGradient id="paint30_linear" x1="64.2686" y1="253.7" x2="63.3148" y2="355.29" gradientUnits="userSpaceOnUse">
<stop stop-color="#EAEFFF"/>
<stop offset="1" stop-color="white"/>
</linearGradient>
<linearGradient id="paint31_linear" x1="262.463" y1="282.079" x2="261.094" y2="316.297" gradientUnits="userSpaceOnUse">
<stop stop-color="#0041B2"/>
<stop offset="1" stop-color="#2D64D7" stop-opacity="0.01"/>
</linearGradient>
<linearGradient id="paint32_linear" x1="175.045" y1="281.634" x2="175.045" y2="317.583" gradientUnits="userSpaceOnUse">
<stop stop-color="#B2C7E8"/>
<stop offset="1" stop-color="#D6E3FA"/>
</linearGradient>
<linearGradient id="paint33_linear" x1="204.007" y1="273.569" x2="204.007" y2="302.435" gradientUnits="userSpaceOnUse">
<stop stop-color="#C6D6EE"/>
<stop offset="1" stop-color="#E5EFFD"/>
</linearGradient>
<linearGradient id="paint34_linear" x1="363.018" y1="284.87" x2="393.423" y2="284.87" gradientUnits="userSpaceOnUse">
<stop stop-color="#002B64"/>
<stop offset="1" stop-color="#0F3177"/>
</linearGradient>
<linearGradient id="paint35_linear" x1="353.718" y1="218.421" x2="295.139" y2="256.599" gradientUnits="userSpaceOnUse">
<stop stop-color="#DBE9FF"/>
<stop offset="0.440948" stop-color="#A7BDE4"/>
<stop offset="1" stop-color="#5876AF"/>
</linearGradient>
<linearGradient id="paint36_linear" x1="354.383" y1="288.175" x2="350.271" y2="297.834" gradientUnits="userSpaceOnUse">
<stop stop-color="#869FCE" stop-opacity="0.01"/>
<stop offset="1" stop-color="#4975C1"/>
</linearGradient>
<linearGradient id="paint37_linear" x1="31.3444" y1="307.302" x2="36.8308" y2="330.424" gradientUnits="userSpaceOnUse">
<stop stop-color="#47689B"/>
<stop offset="1" stop-color="#223762"/>
</linearGradient>
<linearGradient id="paint38_linear" x1="132.087" y1="222.204" x2="69.0577" y2="298.685" gradientUnits="userSpaceOnUse">
<stop stop-color="#CFDDF3"/>
<stop offset="0.473556" stop-color="#B3C7E9"/>
<stop offset="1" stop-color="#728FC5"/>
</linearGradient>
<linearGradient id="paint39_linear" x1="58.2097" y1="333.563" x2="13.8712" y2="333.563" gradientUnits="userSpaceOnUse">
<stop stop-color="#D9E5F6" stop-opacity="0.712636"/>
<stop offset="1" stop-color="#B2C6EA"/>
</linearGradient>
<linearGradient id="paint40_linear" x1="59.0982" y1="355.525" x2="66.3557" y2="327.8" gradientUnits="userSpaceOnUse">
<stop stop-color="#ACC5E9"/>
<stop offset="0.627469" stop-color="#D3E3FB"/>
<stop offset="1" stop-color="#EAF2FF"/>
</linearGradient>
<linearGradient id="paint41_linear" x1="19.2819" y1="303.945" x2="18.1303" y2="322.41" gradientUnits="userSpaceOnUse">
<stop stop-color="#86A8D9"/>
<stop offset="1" stop-color="#BCD0F2"/>
</linearGradient>
<linearGradient id="paint42_linear" x1="12.0498" y1="259.894" x2="50.7927" y2="300.462" gradientUnits="userSpaceOnUse">
<stop stop-color="#B1FFBE"/>
<stop offset="0.444207" stop-color="#5CDB8E"/>
<stop offset="1" stop-color="#149654"/>
</linearGradient>
<linearGradient id="paint43_linear" x1="11.486" y1="272.217" x2="17.0567" y2="315.267" gradientUnits="userSpaceOnUse">
<stop stop-color="#B1FFBE"/>
<stop offset="0.444207" stop-color="#5CDB8E"/>
<stop offset="1" stop-color="#149654"/>
</linearGradient>
<linearGradient id="paint44_linear" x1="36.1797" y1="283.006" x2="61.6934" y2="323.049" gradientUnits="userSpaceOnUse">
<stop stop-color="#B1FFBE"/>
<stop offset="0.444207" stop-color="#5CDB8E"/>
<stop offset="1" stop-color="#149654"/>
</linearGradient>
</defs>
</svg>
