<svg width="111" height="80" viewBox="0 0 111 80" fill="none" xmlns="http://www.w3.org/2000/svg">
<path d="M12.5103 28L25.0206 40.5104L12.5103 53.0208" stroke="#B1B1B1" stroke-width="2"/>
<circle cx="71" cy="40" r="40" fill="#3D82F0"/>
<path fill-rule="evenodd" clip-rule="evenodd" d="M55 50C55 48.8954 55.8954 48 57 48H65C66.1046 48 67 48.8954 67 50V58C67 59.1046 66.1046 60 65 60H57C55.8954 60 55 59.1046 55 58V50ZM59 52V56H63V52H59Z" fill="white"/>
<path fill-rule="evenodd" clip-rule="evenodd" d="M68.4142 34.5858C69.1953 35.3668 69.1953 36.6332 68.4142 37.4142L60.4142 45.4142C59.6332 46.1953 58.3668 46.1953 57.5858 45.4142L53.5858 41.4142C52.8047 40.6332 52.8047 39.3668 53.5858 38.5858C54.3668 37.8047 55.6332 37.8047 56.4142 38.5858L59 41.1716L65.5858 34.5858C66.3668 33.8047 67.6332 33.8047 68.4142 34.5858Z" fill="white"/>
<path fill-rule="evenodd" clip-rule="evenodd" d="M68.4142 20.5858C69.1953 21.3668 69.1953 22.6332 68.4142 23.4142L60.4142 31.4142C59.6332 32.1953 58.3668 32.1953 57.5858 31.4142L53.5858 27.4142C52.8047 26.6332 52.8047 25.3668 53.5858 24.5858C54.3668 23.8047 55.6332 23.8047 56.4142 24.5858L59 27.1716L65.5858 20.5858C66.3668 19.8047 67.6332 19.8047 68.4142 20.5858Z" fill="white"/>
<path fill-rule="evenodd" clip-rule="evenodd" d="M73 26C73 24.8954 73.8954 24 75 24H87C88.1046 24 89 24.8954 89 26C89 27.1046 88.1046 28 87 28H75C73.8954 28 73 27.1046 73 26Z" fill="white"/>
<path fill-rule="evenodd" clip-rule="evenodd" d="M73 40C73 38.8954 73.8954 38 75 38H87C88.1046 38 89 38.8954 89 40C89 41.1046 88.1046 42 87 42H75C73.8954 42 73 41.1046 73 40Z" fill="white"/>
<path fill-rule="evenodd" clip-rule="evenodd" d="M73 54C73 52.8954 73.8954 52 75 52H87C88.1046 52 89 52.8954 89 54C89 55.1046 88.1046 56 87 56H75C73.8954 56 73 55.1046 73 54Z" fill="white"/>
</svg>
