<svg width="60" height="60" viewBox="0 0 60 60" fill="none" xmlns="http://www.w3.org/2000/svg">
<circle cx="30" cy="30" r="29" stroke="#0A6ED1" stroke-width="2"/>
<path fill-rule="evenodd" clip-rule="evenodd" d="M16.5 22.7999C16.5 20.5632 18.3132 18.75 20.5499 18.75H31.3498C33.5865 18.75 35.3997 20.5632 35.3997 22.7999V28.1999H42.1497C42.8952 28.1999 43.4996 28.8043 43.4996 29.5499V32.2498C43.4996 34.4865 41.6864 36.2998 39.4497 36.2998H20.5499C18.3132 36.2998 16.5 34.4865 16.5 32.2498V22.7999ZM20.5499 21.45C19.8044 21.45 19.2 22.0544 19.2 22.7999V32.2498C19.2 32.9954 19.8044 33.5998 20.5499 33.5998H39.4497C40.1953 33.5998 40.7997 32.9954 40.7997 32.2498V30.8998H34.0498C33.3042 30.8998 32.6998 30.2954 32.6998 29.5499V22.7999C32.6998 22.0544 32.0954 21.45 31.3498 21.45H20.5499Z" fill="#0A6ED1"/>
<path fill-rule="evenodd" clip-rule="evenodd" d="M19.2 37.6497C19.2 35.413 21.0132 33.5998 23.2499 33.5998C25.4866 33.5998 27.2999 35.413 27.2999 37.6497C27.2999 39.8865 25.4866 41.6997 23.2499 41.6997C21.0132 41.6997 19.2 39.8865 19.2 37.6497ZM23.2499 36.2998C22.5043 36.2998 21.8999 36.9042 21.8999 37.6497C21.8999 38.3953 22.5043 38.9997 23.2499 38.9997C23.9955 38.9997 24.5999 38.3953 24.5999 37.6497C24.5999 36.9042 23.9955 36.2998 23.2499 36.2998Z" fill="#0A6ED1"/>
<path fill-rule="evenodd" clip-rule="evenodd" d="M32.6998 37.6497C32.6998 35.413 34.513 33.5998 36.7497 33.5998C38.9865 33.5998 40.7997 35.413 40.7997 37.6497C40.7997 39.8865 38.9865 41.6997 36.7497 41.6997C34.513 41.6997 32.6998 39.8865 32.6998 37.6497ZM36.7497 36.2998C36.0042 36.2998 35.3997 36.9042 35.3997 37.6497C35.3997 38.3953 36.0042 38.9997 36.7497 38.9997C37.4953 38.9997 38.0997 38.3953 38.0997 37.6497C38.0997 36.9042 37.4953 36.2998 36.7497 36.2998Z" fill="#0A6ED1"/>
<path fill-rule="evenodd" clip-rule="evenodd" d="M32.6998 22.7999C32.6998 22.0544 33.3042 21.45 34.0498 21.45H39.4497C40.0017 21.45 40.4981 21.786 40.7031 22.2986L43.4031 29.0485C43.68 29.7407 43.3433 30.5264 42.651 30.8033C41.9588 31.0802 41.1731 30.7435 40.8962 30.0512L38.5357 24.1499H34.0498C33.3042 24.1499 32.6998 23.5455 32.6998 22.7999Z" fill="#0A6ED1"/>
</svg>
