<svg width="60" height="60" viewBox="0 0 60 60" fill="none" xmlns="http://www.w3.org/2000/svg">
<circle cx="30" cy="30" r="29" fill="#0A6ED1" stroke="#0A6ED1" stroke-width="2"/>
<g clip-path="url(#clip0)">
<path fill-rule="evenodd" clip-rule="evenodd" d="M19.875 22.125C19.2537 22.125 18.75 22.6287 18.75 23.25V36.75C18.75 37.3713 19.2537 37.875 19.875 37.875H40.125C40.7463 37.875 41.25 37.3713 41.25 36.75V23.25C41.25 22.6287 40.7463 22.125 40.125 22.125H19.875ZM16.5 23.25C16.5 21.386 18.011 19.875 19.875 19.875H40.125C41.989 19.875 43.5 21.386 43.5 23.25V36.75C43.5 38.614 41.989 40.125 40.125 40.125H19.875C18.011 40.125 16.5 38.614 16.5 36.75V23.25Z" fill="white"/>
<path fill-rule="evenodd" clip-rule="evenodd" d="M36.3554 23.2533C36.6526 23.2211 36.9503 23.3085 37.1829 23.4962L38.5814 24.6244C38.8298 24.8248 38.9814 25.1214 38.9984 25.4401C39.0154 25.7588 38.8962 26.0698 38.6705 26.2955L37.5455 27.4205C37.3345 27.6315 37.0484 27.75 36.75 27.75H35.9508C35.7388 28.4627 35.625 29.2178 35.625 30C35.625 30.7813 35.7385 31.5355 35.9501 32.2474H36.75C37.0488 32.2474 37.3354 32.3663 37.5464 32.5778L38.6714 33.7054C38.8972 33.9317 39.0161 34.2434 38.9983 34.5626C38.9805 34.8818 38.8277 35.1784 38.5781 35.3782L37.1755 36.5012C36.6906 36.8895 35.9828 36.8112 35.5944 36.3265C34.2061 34.5936 33.375 32.3923 33.375 30C33.375 27.605 34.208 25.4015 35.5991 23.6677C35.7861 23.4346 36.0583 23.2855 36.3554 23.2533Z" fill="white"/>
<path fill-rule="evenodd" clip-rule="evenodd" d="M21 34.41C21 32.5957 22.4707 31.125 24.285 31.125H28.965C30.7793 31.125 32.25 32.5957 32.25 34.41V34.5C32.25 35.1213 31.7463 35.625 31.125 35.625H22.125C21.5037 35.625 21 35.1213 21 34.5V34.41Z" fill="white"/>
<path fill-rule="evenodd" clip-rule="evenodd" d="M26.625 28.875C27.8676 28.875 28.875 27.8676 28.875 26.625C28.875 25.3824 27.8676 24.375 26.625 24.375C25.3824 24.375 24.375 25.3824 24.375 26.625C24.375 27.8676 25.3824 28.875 26.625 28.875Z" fill="white"/>
</g>
<defs>
<clipPath id="clip0">
<rect width="27" height="27" fill="white" transform="translate(16.5 16.5)"/>
</clipPath>
</defs>
</svg>
