<svg width="60" height="60" viewBox="0 0 60 60" fill="none" xmlns="http://www.w3.org/2000/svg">
<circle cx="30" cy="30" r="29" stroke="#0A6ED1" stroke-width="2"/>
<path fill-rule="evenodd" clip-rule="evenodd" d="M29.3068 27.2369C28.9256 27.2369 28.6165 27.546 28.6165 27.9272C28.6165 28.3084 28.9256 28.6174 29.3068 28.6174H30.6873C32.5933 28.6174 34.1385 30.1626 34.1385 32.0686C34.1385 33.9747 32.5933 35.5199 30.6873 35.5199H27.2361C26.4736 35.5199 25.8556 34.9018 25.8556 34.1394C25.8556 33.3769 26.4736 32.7589 27.2361 32.7589H30.6873C31.0685 32.7589 31.3775 32.4498 31.3775 32.0686C31.3775 31.6874 31.0685 31.3784 30.6873 31.3784H29.3068C27.4007 31.3784 25.8556 29.8332 25.8556 27.9272C25.8556 26.0211 27.4007 24.4759 29.3068 24.4759H32.758C33.5204 24.4759 34.1385 25.094 34.1385 25.8564C34.1385 26.6189 33.5204 27.2369 32.758 27.2369H29.3068Z" fill="#0A6ED1"/>
<path fill-rule="evenodd" clip-rule="evenodd" d="M20.2381 22.185C20.8819 22.5935 21.0726 23.4465 20.6642 24.0902C20.001 25.1354 19.5091 26.2987 19.227 27.5413C19.0582 28.2848 18.3187 28.7507 17.5752 28.5819C16.8317 28.4131 16.3658 27.6735 16.5346 26.93C16.8879 25.3736 17.5039 23.9175 18.3328 22.6111C18.7413 21.9673 19.5943 21.7765 20.2381 22.185Z" fill="#0A6ED1"/>
<path fill-rule="evenodd" clip-rule="evenodd" d="M39.763 22.185C40.4067 21.7765 41.2598 21.9673 41.6682 22.6111C42.4972 23.9175 43.1132 25.3736 43.4665 26.93C43.6353 27.6735 43.1694 28.4131 42.4259 28.5819C41.6824 28.7507 40.9428 28.2848 40.774 27.5413C40.4919 26.2987 40.0001 25.1354 39.3369 24.0902C38.9284 23.4465 39.1192 22.5935 39.763 22.185Z" fill="#0A6ED1"/>
<path fill-rule="evenodd" clip-rule="evenodd" d="M17.5752 31.4126C18.3187 31.2439 19.0582 31.7097 19.227 32.4533C19.5091 33.6958 20.001 34.8591 20.6642 35.9043C21.0726 36.5481 20.8819 37.4011 20.2381 37.8095C19.5943 38.218 18.7413 38.0272 18.3328 37.3835C17.5039 36.077 16.8879 34.6209 16.5346 33.0645C16.3658 32.321 16.8317 31.5814 17.5752 31.4126Z" fill="#0A6ED1"/>
<path fill-rule="evenodd" clip-rule="evenodd" d="M42.4259 31.4126C43.1694 31.5814 43.6353 32.321 43.4665 33.0645C43.1132 34.6209 42.4972 36.077 41.6682 37.3835C41.2598 38.0272 40.4067 38.218 39.763 37.8095C39.1192 37.4011 38.9284 36.5481 39.3369 35.9043C40.0001 34.8591 40.4919 33.6958 40.774 32.4533C40.9428 31.7097 41.6824 31.2439 42.4259 31.4126Z" fill="#0A6ED1"/>
<path fill-rule="evenodd" clip-rule="evenodd" d="M28.5849 17.5756C28.7535 18.3191 28.2873 19.0586 27.5438 19.2271C26.3092 19.507 25.1528 19.994 24.1127 20.6503C23.4679 21.0571 22.6154 20.8642 22.2085 20.2195C21.8016 19.5747 21.9945 18.7221 22.6393 18.3153C23.9395 17.4949 25.387 16.885 26.9334 16.5345C27.6769 16.3659 28.4164 16.832 28.5849 17.5756Z" fill="#0A6ED1"/>
<path fill-rule="evenodd" clip-rule="evenodd" d="M28.5849 42.4244C28.7535 41.6809 28.2873 40.9414 27.5438 40.7729C26.3092 40.493 25.1528 40.006 24.1127 39.3497C23.4679 38.9429 22.6154 39.1358 22.2085 39.7805C21.8016 40.4253 21.9945 41.2779 22.6393 41.6847C23.9395 42.5051 25.387 43.115 26.9334 43.4655C27.6769 43.6341 28.4164 43.168 28.5849 42.4244Z" fill="#0A6ED1"/>
<path fill-rule="evenodd" clip-rule="evenodd" d="M31.4117 17.5756C31.5802 16.832 32.3197 16.3659 33.0632 16.5345C34.6096 16.885 36.0571 17.4949 37.3573 18.3153C38.0021 18.7221 38.195 19.5747 37.7881 20.2195C37.3812 20.8642 36.5287 21.0571 35.8839 20.6503C34.8438 19.994 33.6874 19.507 32.4528 19.2271C31.7093 19.0586 31.2431 18.3191 31.4117 17.5756Z" fill="#0A6ED1"/>
<path fill-rule="evenodd" clip-rule="evenodd" d="M37.7881 39.7805C38.195 40.4253 38.0021 41.2779 37.3573 41.6847C36.0571 42.5051 34.6096 43.115 33.0632 43.4655C32.3197 43.6341 31.5802 43.168 31.4117 42.4244C31.2431 41.6809 31.7093 40.9414 32.4528 40.7729C33.6874 40.493 34.8438 40.006 35.8839 39.3497C36.5287 38.9429 37.3812 39.1358 37.7881 39.7805Z" fill="#0A6ED1"/>
<path fill-rule="evenodd" clip-rule="evenodd" d="M29.997 21.715C30.7595 21.715 31.3775 22.333 31.3775 23.0955V24.4759C31.3775 25.2384 30.7595 25.8564 29.997 25.8564C29.2346 25.8564 28.6165 25.2384 28.6165 24.4759V23.0955C28.6165 22.333 29.2346 21.715 29.997 21.715Z" fill="#0A6ED1"/>
<path fill-rule="evenodd" clip-rule="evenodd" d="M29.997 34.1394C30.7595 34.1394 31.3775 34.7574 31.3775 35.5199V36.9004C31.3775 37.6628 30.7595 38.2808 29.997 38.2808C29.2346 38.2808 28.6165 37.6628 28.6165 36.9004V35.5199C28.6165 34.7574 29.2346 34.1394 29.997 34.1394Z" fill="#0A6ED1"/>
</svg>
