<svg width="111" height="80" viewBox="0 0 111 80" fill="none" xmlns="http://www.w3.org/2000/svg">
<path d="M12.5103 27L25.0206 39.5104L12.5103 52.0208" stroke="#B1B1B1" stroke-width="2"/>
<circle cx="71" cy="40" r="40" fill="#3D82F0"/>
<path fill-rule="evenodd" clip-rule="evenodd" d="M72.61 43.7948C73.0545 44.684 72.6941 45.7652 71.805 46.2097L68.205 48.0097C67.3159 48.4543 66.2347 48.0939 65.7901 47.2047C65.3455 46.3156 65.7059 45.2344 66.5951 44.7898L70.195 42.9898C71.0842 42.5453 72.1654 42.9057 72.61 43.7948Z" fill="white"/>
<path fill-rule="evenodd" clip-rule="evenodd" d="M71 39.1998C71.9941 39.1998 72.8 40.0057 72.8 40.9998V43.4873L75.4049 44.7898C76.2941 45.2344 76.6545 46.3156 76.2099 47.2048C75.7653 48.0939 74.6841 48.4543 73.795 48.0097L70.195 46.2097C69.5852 45.9048 69.2 45.2816 69.2 44.5998V40.9998C69.2 40.0057 70.0059 39.1998 71 39.1998Z" fill="white"/>
<path fill-rule="evenodd" clip-rule="evenodd" d="M67.6349 32.57C68.3847 32.1951 69.2115 31.9999 70.0499 31.9999H71.9501C72.7885 31.9999 73.6153 32.1951 74.3651 32.57L77.2049 33.9899C77.9516 34.3633 78.3436 35.201 78.1518 36.0134C77.96 36.8259 77.2347 37.3999 76.3999 37.3999H65.6001C64.7653 37.3999 64.04 36.8259 63.8482 36.0134C63.6564 35.201 64.0484 34.3633 64.7951 33.9899L67.6349 32.57Z" fill="white"/>
<path fill-rule="evenodd" clip-rule="evenodd" d="M71 30.1999C72.9882 30.1999 74.6 28.5882 74.6 26.6C74.6 24.6118 72.9882 23 71 23C69.0118 23 67.4 24.6118 67.4 26.6C67.4 28.5882 69.0118 30.1999 71 30.1999Z" fill="white"/>
<path fill-rule="evenodd" clip-rule="evenodd" d="M78.4348 52.3698C79.1846 51.9949 80.0114 51.7997 80.8497 51.7997H82.75C83.5884 51.7997 84.4152 51.9949 85.165 52.3698L88.0048 53.7897C88.7515 54.1631 89.1435 55.0008 88.9517 55.8132C88.7599 56.6257 88.0346 57.1997 87.1998 57.1997H76.3999C75.5652 57.1997 74.8399 56.6257 74.6481 55.8132C74.4563 55.0008 74.8483 54.1631 75.595 53.7897L78.4348 52.3698Z" fill="white"/>
<path fill-rule="evenodd" clip-rule="evenodd" d="M81.7999 49.9997C83.7881 49.9997 85.3999 48.388 85.3999 46.3998C85.3999 44.4116 83.7881 42.7998 81.7999 42.7998C79.8117 42.7998 78.1999 44.4116 78.1999 46.3998C78.1999 48.388 79.8117 49.9997 81.7999 49.9997Z" fill="white"/>
<path fill-rule="evenodd" clip-rule="evenodd" d="M56.835 52.3698C57.5848 51.9949 58.4116 51.7997 59.25 51.7997H61.1503C61.9886 51.7997 62.8154 51.9949 63.5652 52.3698L66.405 53.7897C67.1517 54.1631 67.5437 55.0008 67.3519 55.8132C67.1601 56.6257 66.4348 57.1997 65.6001 57.1997H54.8002C53.9654 57.1997 53.2401 56.6257 53.0483 55.8132C52.8565 55.0008 53.2485 54.1631 53.9952 53.7897L56.835 52.3698Z" fill="white"/>
<path fill-rule="evenodd" clip-rule="evenodd" d="M60.2001 49.9997C62.1883 49.9997 63.8001 48.388 63.8001 46.3998C63.8001 44.4116 62.1883 42.7998 60.2001 42.7998C58.2119 42.7998 56.6001 44.4116 56.6001 46.3998C56.6001 48.388 58.2119 49.9997 60.2001 49.9997Z" fill="white"/>
</svg>