<svg width="113" height="80" viewBox="0 0 113 80" fill="none" xmlns="http://www.w3.org/2000/svg">
<path d="M12.5103 28L25.0206 40.5104L12.5103 53.0208" stroke="#B1B1B1" stroke-width="2"/>
<circle cx="73" cy="40" r="40" fill="#3D82F0"/>
<path fill-rule="evenodd" clip-rule="evenodd" d="M69.6 38C64.6294 38 60.6 42.0294 60.6 47V48.8H62.4C63.3941 48.8 64.2 49.6059 64.2 50.6C64.2 51.5941 63.3941 52.4 62.4 52.4H58.8C57.8059 52.4 57 51.5941 57 50.6V47C57 40.0412 62.6412 34.4 69.6 34.4H71.4C72.3941 34.4 73.2 35.2059 73.2 36.2C73.2 37.1941 72.3941 38 71.4 38H69.6Z" fill="white"/>
<path fill-rule="evenodd" clip-rule="evenodd" d="M82.2 38C82.6774 38 83.1352 38.1896 83.4728 38.5272L87.0728 42.1272C87.7757 42.8302 87.7757 43.9698 87.0728 44.6728L74.4728 57.2728C74.1352 57.6104 73.6774 57.8 73.2 57.8H69.6C68.6059 57.8 67.8 56.9941 67.8 56V52.4C67.8 51.9226 67.9896 51.4648 68.3272 51.1272L80.9272 38.5272C81.2648 38.1896 81.7226 38 82.2 38ZM71.4 53.1456V54.2H72.4544L83.2544 43.4L82.2 42.3456L71.4 53.1456Z" fill="white"/>
<path fill-rule="evenodd" clip-rule="evenodd" d="M86.3272 33.1272C87.0301 32.4243 88.1698 32.4243 88.8728 33.1272L92.4728 36.7272C93.1757 37.4302 93.1757 38.5698 92.4728 39.2728L90.6728 41.0728C89.9698 41.7757 88.8301 41.7757 88.1272 41.0728L84.5272 37.4728C83.8243 36.7698 83.8243 35.6302 84.5272 34.9272L86.3272 33.1272Z" fill="white"/>
<path fill-rule="evenodd" clip-rule="evenodd" d="M62.4 29C62.4 24.0294 66.4294 20 71.4 20C76.3706 20 80.4 24.0294 80.4 29C80.4 33.9706 76.3706 38 71.4 38C66.4294 38 62.4 33.9706 62.4 29ZM71.4 23.6C68.4177 23.6 66 26.0177 66 29C66 31.9823 68.4177 34.4 71.4 34.4C74.3823 34.4 76.8 31.9823 76.8 29C76.8 26.0177 74.3823 23.6 71.4 23.6Z" fill="white"/>
</svg>
