<svg width="60" height="60" viewBox="0 0 60 60" fill="none" xmlns="http://www.w3.org/2000/svg">
<circle cx="30" cy="30" r="29" stroke="#0A6ED1" stroke-width="2"/>
<path fill-rule="evenodd" clip-rule="evenodd" d="M16.5 19.35C16.5 18.6044 17.1044 18 17.85 18H23.25C23.9956 18 24.6 18.6044 24.6 19.35V40.95C24.6 41.6956 23.9956 42.3 23.25 42.3H17.85C17.1044 42.3 16.5 41.6956 16.5 40.95V19.35ZM19.2 20.7V39.6H21.9V20.7H19.2Z" fill="#0A6ED1"/>
<path fill-rule="evenodd" clip-rule="evenodd" d="M28.0652 23.5332C28.5329 23.3084 29.0881 23.3716 29.4933 23.6958L34.05 27.3412V24.75C34.05 24.2311 34.3475 23.758 34.8152 23.5332C35.2829 23.3084 35.8381 23.3716 36.2433 23.6958L42.9933 29.0958C43.3136 29.352 43.5 29.7399 43.5 30.15V40.95C43.5 41.6956 42.8956 42.3 42.15 42.3H23.25C22.5044 42.3 21.9 41.6956 21.9 40.95C21.9 40.2044 22.5044 39.6 23.25 39.6H40.8V30.7988L36.75 27.5588V30.15C36.75 30.6689 36.4525 31.142 35.9848 31.3668C35.5171 31.5916 34.9619 31.5284 34.5567 31.2042L30 27.5588V30.15C30 30.8956 29.3956 31.5 28.65 31.5H17.85C17.1044 31.5 16.5 30.8956 16.5 30.15C16.5 29.4044 17.1044 28.8 17.85 28.8H27.3V24.75C27.3 24.2311 27.5975 23.758 28.0652 23.5332Z" fill="#0A6ED1"/>
<path fill-rule="evenodd" clip-rule="evenodd" d="M31.35 37.575C32.4684 37.575 33.375 36.6684 33.375 35.55C33.375 34.4316 32.4684 33.525 31.35 33.525C30.2316 33.525 29.325 34.4316 29.325 35.55C29.325 36.6684 30.2316 37.575 31.35 37.575Z" fill="#0A6ED1"/>
<path fill-rule="evenodd" clip-rule="evenodd" d="M36.75 37.575C37.8684 37.575 38.775 36.6684 38.775 35.55C38.775 34.4316 37.8684 33.525 36.75 33.525C35.6316 33.525 34.725 34.4316 34.725 35.55C34.725 36.6684 35.6316 37.575 36.75 37.575Z" fill="#0A6ED1"/>
<path fill-rule="evenodd" clip-rule="evenodd" d="M16.5 35.55C16.5 34.8044 17.1044 34.2 17.85 34.2H25.95C26.6956 34.2 27.3 34.8044 27.3 35.55C27.3 36.2956 26.6956 36.9 25.95 36.9H17.85C17.1044 36.9 16.5 36.2956 16.5 35.55Z" fill="#0A6ED1"/>
<path fill-rule="evenodd" clip-rule="evenodd" d="M16.5 24.75C16.5 24.0044 17.1044 23.4 17.85 23.4H23.25C23.9956 23.4 24.6 24.0044 24.6 24.75C24.6 25.4956 23.9956 26.1 23.25 26.1H17.85C17.1044 26.1 16.5 25.4956 16.5 24.75Z" fill="#0A6ED1"/>
</svg>
