<svg width="110" height="80" viewBox="0 0 110 80" fill="none" xmlns="http://www.w3.org/2000/svg">
<path d="M12.5103 27L25.0206 39.5104L12.5103 52.0208" stroke="#B1B1B1" stroke-width="2"/>
<circle cx="70" cy="40" r="40" fill="#3D82F0"/>
<path fill-rule="evenodd" clip-rule="evenodd" d="M87.4142 44.6832C88.1953 45.4671 88.1953 46.7381 87.4142 47.522L75.4142 59.5659C74.6332 60.3498 73.3668 60.3498 72.5858 59.5659C71.8047 58.782 71.8047 57.511 72.5858 56.7271L84.5858 44.6832C85.3668 43.8993 86.6332 43.8993 87.4142 44.6832Z" fill="white"/>
<path fill-rule="evenodd" clip-rule="evenodd" d="M72.5858 44.6832C73.3668 43.8993 74.6332 43.8993 75.4142 44.6832L87.4142 56.7271C88.1953 57.511 88.1953 58.782 87.4142 59.5659C86.6332 60.3498 85.3668 60.3498 84.5858 59.5659L72.5858 47.522C71.8047 46.7381 71.8047 45.4671 72.5858 44.6832Z" fill="white"/>
<path fill-rule="evenodd" clip-rule="evenodd" d="M66 38.0733C60.4772 38.0733 56 42.5668 56 48.1099V50.1172H68C69.1046 50.1172 70 51.0159 70 52.1245C70 53.2332 69.1046 54.1319 68 54.1319H54C52.8954 54.1319 52 53.2332 52 52.1245V48.1099C52 40.3496 58.268 34.0586 66 34.0586H70C73.5801 34.0586 76.8506 35.41 79.3251 37.6291C80.1487 38.3678 80.2198 39.6367 79.4839 40.4634C78.7479 41.2901 77.4836 41.3615 76.6599 40.6228C74.8901 39.0357 72.5595 38.0733 70 38.0733H66Z" fill="white"/>
<path fill-rule="evenodd" clip-rule="evenodd" d="M58 28.0366C58 22.4936 62.4772 18 68 18C73.5228 18 78 22.4936 78 28.0366C78 33.5797 73.5228 38.0733 68 38.0733C62.4772 38.0733 58 33.5797 58 28.0366ZM68 22.0147C64.6863 22.0147 62 24.7108 62 28.0366C62 31.3625 64.6863 34.0586 68 34.0586C71.3137 34.0586 74 31.3625 74 28.0366C74 24.7108 71.3137 22.0147 68 22.0147Z" fill="white"/>
</svg>
