<svg width="60" height="60" viewBox="0 0 60 60" fill="none" xmlns="http://www.w3.org/2000/svg">
<circle cx="30" cy="30" r="29" fill="#0A6ED1" stroke="#0A6ED1" stroke-width="2"/>
<g clip-path="url(#clip0)">
<path fill-rule="evenodd" clip-rule="evenodd" d="M38.3056 18.8357C38.7259 19.0098 39 19.42 39 19.875V26.625C39 27.2464 38.4964 27.75 37.875 27.75C37.2537 27.75 36.75 27.2464 36.75 26.625V22.591L22.591 36.75H28.875C29.4964 36.75 30 37.2537 30 37.875C30 38.4964 29.4964 39 28.875 39H19.875C19.42 39 19.0098 38.7259 18.8357 38.3056C18.6615 37.8852 18.7578 37.4013 19.0795 37.0795L37.0795 19.0795C37.4013 18.7578 37.8852 18.6615 38.3056 18.8357Z" fill="white"/>
<path fill-rule="evenodd" clip-rule="evenodd" d="M33.375 36.75C33.375 34.2648 35.3898 32.25 37.875 32.25C40.3603 32.25 42.375 34.2648 42.375 36.75C42.375 39.2353 40.3603 41.25 37.875 41.25C35.3898 41.25 33.375 39.2353 33.375 36.75ZM37.875 34.5C36.6324 34.5 35.625 35.5074 35.625 36.75C35.625 37.9927 36.6324 39 37.875 39C39.1177 39 40.125 37.9927 40.125 36.75C40.125 35.5074 39.1177 34.5 37.875 34.5Z" fill="white"/>
<path fill-rule="evenodd" clip-rule="evenodd" d="M37.875 30C38.4964 30 39 30.5037 39 31.125V33.375C39 33.9964 38.4964 34.5 37.875 34.5C37.2537 34.5 36.75 33.9964 36.75 33.375V31.125C36.75 30.5037 37.2537 30 37.875 30Z" fill="white"/>
<path fill-rule="evenodd" clip-rule="evenodd" d="M32.3684 33.4351C32.6459 32.8792 33.3215 32.6535 33.8774 32.9309L35.0044 33.4934C35.5603 33.7709 35.7861 34.4465 35.5086 35.0024C35.2311 35.5584 34.5555 35.7841 33.9996 35.5066L32.8726 34.9441C32.3167 34.6666 32.091 33.991 32.3684 33.4351Z" fill="white"/>
<path fill-rule="evenodd" clip-rule="evenodd" d="M43.3809 33.4337C43.6592 33.9892 43.4344 34.6652 42.8789 34.9434L41.7558 35.5059C41.2003 35.7842 40.5244 35.5594 40.2461 35.0039C39.9679 34.4483 40.1927 33.7724 40.7482 33.4942L41.8712 32.9317C42.4267 32.6534 43.1027 32.8782 43.3809 33.4337Z" fill="white"/>
<path fill-rule="evenodd" clip-rule="evenodd" d="M40.2461 38.4962C40.5244 37.9407 41.2003 37.7159 41.7558 37.9942L42.8789 38.5567C43.4344 38.8349 43.6592 39.5108 43.3809 40.0664C43.1027 40.6219 42.4267 40.8467 41.8712 40.5684L40.7482 40.0059C40.1927 39.7277 39.9679 39.0517 40.2461 38.4962Z" fill="white"/>
<path fill-rule="evenodd" clip-rule="evenodd" d="M35.5086 38.4976C35.7861 39.0535 35.5603 39.7291 35.0044 40.0066L33.8774 40.5691C33.3215 40.8466 32.6459 40.6209 32.3684 40.0649C32.091 39.509 32.3167 38.8334 32.8726 38.556L33.9996 37.9935C34.5555 37.716 35.2311 37.9417 35.5086 38.4976Z" fill="white"/>
<path fill-rule="evenodd" clip-rule="evenodd" d="M37.875 39C38.4964 39 39 39.5037 39 40.125V42.375C39 42.9964 38.4964 43.5 37.875 43.5C37.2537 43.5 36.75 42.9964 36.75 42.375V40.125C36.75 39.5037 37.2537 39 37.875 39Z" fill="white"/>
</g>
<defs>
<clipPath id="clip0">
<rect width="27" height="27" fill="white" transform="translate(16.5 16.5)"/>
</clipPath>
</defs>
</svg>
