<svg width="60" height="60" viewBox="0 0 60 60" fill="none" xmlns="http://www.w3.org/2000/svg">
<circle cx="30" cy="30" r="29" stroke="#0A6ED1" stroke-width="2"/>
<path fill-rule="evenodd" clip-rule="evenodd" d="M32.4545 21.6817C32.4545 21.004 33.004 20.4545 33.6817 20.4545H38.5907C39.2685 20.4545 39.818 21.004 39.818 21.6817V24.1362C39.818 24.814 39.2685 25.3635 38.5907 25.3635C37.9129 25.3635 37.3635 24.814 37.3635 24.1362V22.909H33.6817C33.004 22.909 32.4545 22.3595 32.4545 21.6817Z" fill="#0A6ED1"/>
<path fill-rule="evenodd" clip-rule="evenodd" d="M20.182 21.6817C20.182 21.004 20.7315 20.4545 21.4093 20.4545H26.3183C26.996 20.4545 27.5455 21.004 27.5455 21.6817C27.5455 22.3595 26.996 22.909 26.3183 22.909H22.6365V24.1362C22.6365 24.814 22.0871 25.3635 21.4093 25.3635C20.7315 25.3635 20.182 24.814 20.182 24.1362V21.6817Z" fill="#0A6ED1"/>
<path fill-rule="evenodd" clip-rule="evenodd" d="M25.091 19.2272C25.091 18.5495 25.6405 18 26.3183 18H33.6817C34.3595 18 34.909 18.5495 34.909 19.2272V24.1362C34.909 24.814 34.3595 25.3635 33.6817 25.3635H26.3183C25.6405 25.3635 25.091 24.814 25.091 24.1362V19.2272ZM27.5455 20.4545V22.909H32.4545V20.4545H27.5455Z" fill="#0A6ED1"/>
<path fill-rule="evenodd" clip-rule="evenodd" d="M29.3864 30.2725C29.0475 30.2725 28.7728 30.5472 28.7728 30.8861C28.7728 31.225 29.0475 31.4997 29.3864 31.4997H30.6136C32.3081 31.4997 33.6817 32.8734 33.6817 34.5679C33.6817 36.2623 32.3081 37.636 30.6136 37.636H27.5455C26.8677 37.636 26.3183 37.0865 26.3183 36.4087C26.3183 35.7309 26.8677 35.1815 27.5455 35.1815H30.6136C30.9525 35.1815 31.2272 34.9067 31.2272 34.5679C31.2272 34.229 30.9525 33.9542 30.6136 33.9542H29.3864C27.6919 33.9542 26.3183 32.5806 26.3183 30.8861C26.3183 29.1916 27.6919 27.818 29.3864 27.818H32.4545C33.1323 27.818 33.6817 28.3674 33.6817 29.0452C33.6817 29.723 33.1323 30.2725 32.4545 30.2725H29.3864Z" fill="#0A6ED1"/>
<path fill-rule="evenodd" clip-rule="evenodd" d="M30 22.909C30.6778 22.909 31.2272 23.4585 31.2272 24.1362V29.0452C31.2272 29.723 30.6778 30.2725 30 30.2725C29.3222 30.2725 28.7728 29.723 28.7728 29.0452V24.1362C28.7728 23.4585 29.3222 22.909 30 22.909Z" fill="#0A6ED1"/>
<path fill-rule="evenodd" clip-rule="evenodd" d="M39.1396 27.9476C39.7458 28.2507 39.9915 28.9878 39.6884 29.5941L38.4612 32.0486C38.1581 32.6548 37.4209 32.9005 36.8146 32.5974C36.2084 32.2943 35.9627 31.5571 36.2658 30.9509L37.4931 28.4964C37.7962 27.8902 38.5333 27.6444 39.1396 27.9476Z" fill="#0A6ED1"/>
<path fill-rule="evenodd" clip-rule="evenodd" d="M42.8213 27.9476C43.4276 28.2507 43.6733 28.9878 43.3702 29.5941L42.1429 32.0486C41.8398 32.6548 41.1026 32.9005 40.4964 32.5974C39.8902 32.2943 39.6444 31.5571 39.9475 30.9509L41.1748 28.4964C41.4779 27.8902 42.2151 27.6444 42.8213 27.9476Z" fill="#0A6ED1"/>
<path fill-rule="evenodd" clip-rule="evenodd" d="M17.1787 27.9476C17.7849 27.6444 18.5221 27.8902 18.8252 28.4964L20.0524 30.9509C20.3556 31.5571 20.1098 32.2943 19.5036 32.5974C18.8974 32.9005 18.1602 32.6548 17.8571 32.0486L16.6298 29.5941C16.3267 28.9878 16.5724 28.2507 17.1787 27.9476Z" fill="#0A6ED1"/>
<path fill-rule="evenodd" clip-rule="evenodd" d="M21.4093 35.1815C22.0871 35.1815 22.6365 35.7309 22.6365 36.4087V40.0905H37.3635V36.4087C37.3635 35.7309 37.9129 35.1815 38.5907 35.1815C39.2685 35.1815 39.818 35.7309 39.818 36.4087V41.3177C39.818 41.9955 39.2685 42.545 38.5907 42.545H21.4093C20.7315 42.545 20.182 41.9955 20.182 41.3177V36.4087C20.182 35.7309 20.7315 35.1815 21.4093 35.1815Z" fill="#0A6ED1"/>
<path fill-rule="evenodd" clip-rule="evenodd" d="M20.8604 27.9476C21.4667 27.6444 22.2038 27.8902 22.5069 28.4964L23.7342 30.9509C24.0373 31.5571 23.7916 32.2943 23.1854 32.5974C22.5791 32.9005 21.8419 32.6548 21.5388 32.0486L20.3116 29.5941C20.0085 28.9878 20.2542 28.2507 20.8604 27.9476Z" fill="#0A6ED1"/>
<path fill-rule="evenodd" clip-rule="evenodd" d="M30 35.1815C30.6778 35.1815 31.2272 35.7309 31.2272 36.4087V41.3177C31.2272 41.9955 30.6778 42.545 30 42.545C29.3222 42.545 28.7728 41.9955 28.7728 41.3177V36.4087C28.7728 35.7309 29.3222 35.1815 30 35.1815Z" fill="#0A6ED1"/>
</svg>
