<svg width="115" height="80" viewBox="0 0 115 80" fill="none" xmlns="http://www.w3.org/2000/svg">
<path d="M12.5103 27L25.0206 39.5104L12.5103 52.0208" stroke="#B1B1B1" stroke-width="2"/>
<circle cx="75" cy="40" r="40" fill="#3D82F0"/>
<path fill-rule="evenodd" clip-rule="evenodd" d="M66.4737 38.9473C63.3344 38.9473 60.7895 41.4923 60.7895 44.6316V46.5263H66.4737C67.5201 46.5263 68.3684 47.3746 68.3684 48.421C68.3684 49.4675 67.5201 50.3158 66.4737 50.3158H58.8947C57.8483 50.3158 57 49.4675 57 48.421V44.6316C57 39.3994 61.2415 35.1579 66.4737 35.1579H74.0527C75.0991 35.1579 75.9474 36.0062 75.9474 37.0526C75.9474 38.099 75.0991 38.9473 74.0527 38.9473H66.4737Z" fill="white"/>
<path fill-rule="evenodd" clip-rule="evenodd" d="M60.7895 31.3684C60.7895 27.1827 64.1827 23.7895 68.3684 23.7895C69.2497 23.7895 70.0997 23.9407 70.8914 24.2201C71.8782 24.5684 72.3958 25.6506 72.0475 26.6374C71.6992 27.6242 70.617 28.1418 69.6302 27.7935C69.238 27.6551 68.8141 27.5789 68.3684 27.5789C66.2756 27.5789 64.579 29.2755 64.579 31.3684C64.579 33.4613 66.2756 35.1579 68.3684 35.1579C69.4149 35.1579 70.2632 36.0062 70.2632 37.0526C70.2632 38.099 69.4149 38.9473 68.3684 38.9473C64.1827 38.9473 60.7895 35.5541 60.7895 31.3684Z" fill="white"/>
<path fill-rule="evenodd" clip-rule="evenodd" d="M77.8421 38.9473C72.61 38.9473 68.3684 43.1889 68.3684 48.421L68.3684 50.3158H75.9474C76.9938 50.3158 77.8421 51.1641 77.8421 52.2105C77.8421 53.2569 76.9938 54.1052 75.9474 54.1052H66.4737C65.4273 54.1052 64.579 53.2569 64.579 52.2105V48.421C64.579 41.096 70.5171 35.1579 77.8421 35.1579C78.8886 35.1579 79.7369 36.0062 79.7369 37.0526C79.7369 38.099 78.8886 38.9473 77.8421 38.9473Z" fill="white"/>
<path fill-rule="evenodd" clip-rule="evenodd" d="M86.3684 44.6316C85.8452 44.6316 85.4211 45.0557 85.4211 45.5789C85.4211 46.1021 85.8452 46.5263 86.3684 46.5263H88.2632C90.8792 46.5263 93 48.647 93 51.2631C93 53.8792 90.8792 56 88.2632 56H83.5263C82.4799 56 81.6316 55.1517 81.6316 54.1052C81.6316 53.0588 82.4799 52.2105 83.5263 52.2105H88.2632C88.7864 52.2105 89.2105 51.7863 89.2105 51.2631C89.2105 50.7399 88.7864 50.3158 88.2632 50.3158H86.3684C83.7523 50.3158 81.6316 48.195 81.6316 45.5789C81.6316 42.9628 83.7523 40.8421 86.3684 40.8421H91.1053C92.1517 40.8421 93 41.6904 93 42.7368C93 43.7833 92.1517 44.6316 91.1053 44.6316H86.3684Z" fill="white"/>
<path fill-rule="evenodd" clip-rule="evenodd" d="M87.3158 37.0526C88.3622 37.0526 89.2105 37.9009 89.2105 38.9473V40.8421C89.2105 41.8885 88.3622 42.7368 87.3158 42.7368C86.2694 42.7368 85.4211 41.8885 85.4211 40.8421V38.9473C85.4211 37.9009 86.2694 37.0526 87.3158 37.0526Z" fill="white"/>
<path fill-rule="evenodd" clip-rule="evenodd" d="M87.3158 54.1052C88.3622 54.1052 89.2105 54.9535 89.2105 56V57.8947C89.2105 58.9411 88.3622 59.7894 87.3158 59.7894C86.2694 59.7894 85.4211 58.9411 85.4211 57.8947V56C85.4211 54.9535 86.2694 54.1052 87.3158 54.1052Z" fill="white"/>
<path fill-rule="evenodd" clip-rule="evenodd" d="M68.3684 29.4737C68.3684 24.2415 72.61 20 77.8421 20C83.0743 20 87.3158 24.2415 87.3158 29.4737C87.3158 34.7058 83.0743 38.9473 77.8421 38.9473C72.61 38.9473 68.3684 34.7058 68.3684 29.4737ZM77.8421 23.7895C74.7028 23.7895 72.1579 26.3344 72.1579 29.4737C72.1579 32.613 74.7028 35.1579 77.8421 35.1579C80.9814 35.1579 83.5263 32.613 83.5263 29.4737C83.5263 26.3344 80.9814 23.7895 77.8421 23.7895Z" fill="white"/>
</svg>
