<svg width="60" height="60" viewBox="0 0 60 60" fill="none" xmlns="http://www.w3.org/2000/svg">
<circle cx="30" cy="30" r="29" stroke="#0A6ED1" stroke-width="2"/>
<path fill-rule="evenodd" clip-rule="evenodd" d="M27.45 30C23.7221 30 20.7 33.0221 20.7 36.75V38.1H26.1C26.8456 38.1 27.45 38.7044 27.45 39.45C27.45 40.1956 26.8456 40.8 26.1 40.8H19.35C18.6044 40.8 18 40.1956 18 39.45V36.75C18 31.5309 22.2309 27.3 27.45 27.3H28.8C29.5456 27.3 30.15 27.9044 30.15 28.65C30.15 29.3956 29.5456 30 28.8 30H27.45Z" fill="#0A6ED1"/>
<path fill-rule="evenodd" clip-rule="evenodd" d="M30.15 36.75C30.15 33.7677 32.5677 31.35 35.55 31.35C38.5323 31.35 40.95 33.7677 40.95 36.75C40.95 39.7323 38.5323 42.15 35.55 42.15C32.5677 42.15 30.15 39.7323 30.15 36.75ZM35.55 34.05C34.0588 34.05 32.85 35.2588 32.85 36.75C32.85 38.2412 34.0588 39.45 35.55 39.45C37.0412 39.45 38.25 38.2412 38.25 36.75C38.25 35.2588 37.0412 34.05 35.55 34.05Z" fill="#0A6ED1"/>
<path fill-rule="evenodd" clip-rule="evenodd" d="M38.25 36.75C38.25 36.0044 38.8544 35.4 39.6 35.4H40.95C41.6956 35.4 42.3 36.0044 42.3 36.75C42.3 37.4956 41.6956 38.1 40.95 38.1H39.6C38.8544 38.1 38.25 37.4956 38.25 36.75Z" fill="#0A6ED1"/>
<path fill-rule="evenodd" clip-rule="evenodd" d="M28.8 36.75C28.8 36.0044 29.4044 35.4 30.15 35.4H31.5C32.2456 35.4 32.85 36.0044 32.85 36.75C32.85 37.4956 32.2456 38.1 31.5 38.1H30.15C29.4044 38.1 28.8 37.4956 28.8 36.75Z" fill="#0A6ED1"/>
<path fill-rule="evenodd" clip-rule="evenodd" d="M35.55 39.45C36.2956 39.45 36.9 40.0544 36.9 40.8V42.15C36.9 42.8956 36.2956 43.5 35.55 43.5C34.8044 43.5 34.2 42.8956 34.2 42.15V40.8C34.2 40.0544 34.8044 39.45 35.55 39.45Z" fill="#0A6ED1"/>
<path fill-rule="evenodd" clip-rule="evenodd" d="M35.55 30C36.2956 30 36.9 30.6044 36.9 31.35V32.7C36.9 33.4456 36.2956 34.05 35.55 34.05C34.8044 34.05 34.2 33.4456 34.2 32.7V31.35C34.2 30.6044 34.8044 30 35.55 30Z" fill="#0A6ED1"/>
<path fill-rule="evenodd" clip-rule="evenodd" d="M40.5546 31.7454C41.0818 32.2726 41.0818 33.1274 40.5546 33.6546L39.8796 34.3296C39.3524 34.8568 38.4976 34.8568 37.9704 34.3296C37.4432 33.8024 37.4432 32.9476 37.9704 32.4204L38.6454 31.7454C39.1726 31.2182 40.0274 31.2182 40.5546 31.7454Z" fill="#0A6ED1"/>
<path fill-rule="evenodd" clip-rule="evenodd" d="M30.5454 31.7454C31.0726 31.2182 31.9274 31.2182 32.4546 31.7454L33.1296 32.4204C33.6568 32.9476 33.6568 33.8024 33.1296 34.3296C32.6024 34.8568 31.7476 34.8568 31.2204 34.3296L30.5454 33.6546C30.0182 33.1274 30.0182 32.2726 30.5454 31.7454Z" fill="#0A6ED1"/>
<path fill-rule="evenodd" clip-rule="evenodd" d="M37.9704 39.1704C38.4976 38.6432 39.3524 38.6432 39.8796 39.1704L40.5546 39.8454C41.0818 40.3726 41.0818 41.2274 40.5546 41.7546C40.0274 42.2818 39.1726 42.2818 38.6454 41.7546L37.9704 41.0796C37.4432 40.5524 37.4432 39.6976 37.9704 39.1704Z" fill="#0A6ED1"/>
<path fill-rule="evenodd" clip-rule="evenodd" d="M33.1296 39.1704C33.6568 39.6976 33.6568 40.5524 33.1296 41.0796L32.4546 41.7546C31.9274 42.2818 31.0726 42.2818 30.5454 41.7546C30.0182 41.2274 30.0182 40.3726 30.5454 39.8454L31.2204 39.1704C31.7476 38.6432 32.6024 38.6432 33.1296 39.1704Z" fill="#0A6ED1"/>
<path fill-rule="evenodd" clip-rule="evenodd" d="M22.05 23.25C22.05 19.5221 25.0721 16.5 28.8 16.5C32.5279 16.5 35.55 19.5221 35.55 23.25C35.55 26.9779 32.5279 30 28.8 30C25.0721 30 22.05 26.9779 22.05 23.25ZM28.8 19.2C26.5632 19.2 24.75 21.0132 24.75 23.25C24.75 25.4868 26.5632 27.3 28.8 27.3C31.0368 27.3 32.85 25.4868 32.85 23.25C32.85 21.0132 31.0368 19.2 28.8 19.2Z" fill="#0A6ED1"/>
</svg>
