<svg width="110" height="80" viewBox="0 0 110 80" fill="none" xmlns="http://www.w3.org/2000/svg">
<path d="M12.5103 28L25.0206 40.5104L12.5103 53.0208" stroke="#B1B1B1" stroke-width="2"/>
<circle cx="70" cy="40" r="40" fill="#3D82F0"/>
<path fill-rule="evenodd" clip-rule="evenodd" d="M65.2632 40.0588C60.031 40.0588 55.7895 44.3253 55.7895 49.5882V51.4941H65.2632C66.3096 51.4941 67.1579 52.3474 67.1579 53.4C67.1579 54.4526 66.3096 55.3059 65.2632 55.3059H53.8947C52.8483 55.3059 52 54.4526 52 53.4V49.5882C52 42.2201 57.9381 36.2471 65.2632 36.2471H67.1579C68.2043 36.2471 69.0526 37.1004 69.0526 38.1529C69.0526 39.2055 68.2043 40.0588 67.1579 40.0588H65.2632Z" fill="white"/>
<path fill-rule="evenodd" clip-rule="evenodd" d="M69.0526 47.6824C69.0526 43.472 72.4458 40.0588 76.6316 40.0588C80.8173 40.0588 84.2105 43.472 84.2105 47.6824C84.2105 51.8927 80.8173 55.3059 76.6316 55.3059C72.4458 55.3059 69.0526 51.8927 69.0526 47.6824ZM76.6316 43.8706C74.5387 43.8706 72.8421 45.5772 72.8421 47.6824C72.8421 49.7875 74.5387 51.4941 76.6316 51.4941C78.7244 51.4941 80.4211 49.7875 80.4211 47.6824C80.4211 45.5772 78.7244 43.8706 76.6316 43.8706Z" fill="white"/>
<path fill-rule="evenodd" clip-rule="evenodd" d="M80.976 52.0523C81.716 51.308 82.9156 51.308 83.6556 52.0523L87.445 55.8641C88.185 56.6084 88.185 57.8151 87.445 58.5594C86.7051 59.3037 85.5054 59.3037 84.7655 58.5594L80.976 54.7477C80.2361 54.0034 80.2361 52.7966 80.976 52.0523Z" fill="white"/>
<path fill-rule="evenodd" clip-rule="evenodd" d="M57.6842 30.5294C57.6842 25.2665 61.9257 21 67.1579 21C72.3901 21 76.6316 25.2665 76.6316 30.5294C76.6316 35.7924 72.3901 40.0588 67.1579 40.0588C61.9257 40.0588 57.6842 35.7924 57.6842 30.5294ZM67.1579 24.8118C64.0186 24.8118 61.4737 27.3716 61.4737 30.5294C61.4737 33.6872 64.0186 36.2471 67.1579 36.2471C70.2972 36.2471 72.8421 33.6872 72.8421 30.5294C72.8421 27.3716 70.2972 24.8118 67.1579 24.8118Z" fill="white"/>
</svg>
