<svg width="60" height="60" viewBox="0 0 60 60" fill="none" xmlns="http://www.w3.org/2000/svg">
<circle cx="30" cy="30" r="29" stroke="#0A6ED1" stroke-width="2"/>
<path fill-rule="evenodd" clip-rule="evenodd" d="M33 20.55C33 19.8044 33.6044 19.2 34.35 19.2H37.05C39.2868 19.2 41.1 21.0132 41.1 23.25V34.05C41.1 34.7956 40.4956 35.4 39.75 35.4C39.0044 35.4 38.4 34.7956 38.4 34.05V23.25C38.4 22.5044 37.7956 21.9 37.05 21.9H34.35C33.6044 21.9 33 21.2956 33 20.55Z" fill="#0A6ED1"/>
<path fill-rule="evenodd" clip-rule="evenodd" d="M19.5 23.25C19.5 21.0132 21.3132 19.2 23.55 19.2H26.25C26.9956 19.2 27.6 19.8044 27.6 20.55C27.6 21.2956 26.9956 21.9 26.25 21.9H23.55C22.8044 21.9 22.2 22.5044 22.2 23.25V39.45C22.2 40.1956 22.8044 40.8 23.55 40.8H31.65C32.3956 40.8 33 41.4044 33 42.15C33 42.8956 32.3956 43.5 31.65 43.5H23.55C21.3132 43.5 19.5 41.6868 19.5 39.45V23.25Z" fill="#0A6ED1"/>
<path fill-rule="evenodd" clip-rule="evenodd" d="M24.9 32.7C24.9 29.7177 27.3177 27.3 30.3 27.3C33.2823 27.3 35.7 29.7177 35.7 32.7C35.7 35.6823 33.2823 38.1 30.3 38.1C27.3177 38.1 24.9 35.6823 24.9 32.7ZM30.3 30C28.8088 30 27.6 31.2088 27.6 32.7C27.6 34.1912 28.8088 35.4 30.3 35.4C31.7912 35.4 33 34.1912 33 32.7C33 31.2088 31.7912 30 30.3 30Z" fill="#0A6ED1"/>
<path fill-rule="evenodd" clip-rule="evenodd" d="M33.3954 35.7954C33.9226 35.2682 34.7774 35.2682 35.3046 35.7954L39.3546 39.8454C39.8818 40.3726 39.8818 41.2274 39.3546 41.7546C38.8274 42.2818 37.9726 42.2818 37.4454 41.7546L33.3954 37.7046C32.8682 37.1774 32.8682 36.3226 33.3954 35.7954Z" fill="#0A6ED1"/>
<path fill-rule="evenodd" clip-rule="evenodd" d="M24.9 19.2C24.9 17.7088 26.1088 16.5 27.6 16.5H33C34.4912 16.5 35.7 17.7088 35.7 19.2V21.9C35.7 23.3912 34.4912 24.6 33 24.6H27.6C26.1088 24.6 24.9 23.3912 24.9 21.9V19.2ZM33 19.2H27.6V21.9H33V19.2Z" fill="#0A6ED1"/>
</svg>
