<svg width="60" height="60" viewBox="0 0 60 60" fill="none" xmlns="http://www.w3.org/2000/svg">
<circle cx="30" cy="30" r="29" fill="#0A6ED1" stroke="#0A6ED1" stroke-width="2"/>
<path fill-rule="evenodd" clip-rule="evenodd" d="M20.25 25.8913C20.25 24.5946 21.3012 23.5435 22.5978 23.5435H36.6848C37.9814 23.5435 39.0326 24.5946 39.0326 25.8913V36.2679C39.0326 37.5317 38.3554 38.6986 37.2581 39.3257L30.2237 43.3453C29.8628 43.5516 29.4198 43.5516 29.0589 43.3453L22.0245 39.3257C20.9272 38.6986 20.25 37.5317 20.25 36.2679V25.8913ZM36.6848 25.8913H22.5978V36.2679C22.5978 36.6892 22.8236 37.0782 23.1893 37.2872L29.6413 40.974L36.0933 37.2872C36.4591 37.0782 36.6848 36.6892 36.6848 36.2679V25.8913Z" fill="white"/>
<path fill-rule="evenodd" clip-rule="evenodd" d="M22.5978 21.1957C22.5978 20.5473 23.1234 20.0217 23.7717 20.0217H35.5109C36.1592 20.0217 36.6848 20.5473 36.6848 21.1957C36.6848 21.844 36.1592 22.3696 35.5109 22.3696H23.7717C23.1234 22.3696 22.5978 21.844 22.5978 21.1957Z" fill="white"/>
<path fill-rule="evenodd" clip-rule="evenodd" d="M24.9457 17.6739C24.9457 17.0256 25.4712 16.5 26.1196 16.5H33.163C33.8114 16.5 34.337 17.0256 34.337 17.6739C34.337 18.3222 33.8114 18.8478 33.163 18.8478H26.1196C25.4712 18.8478 24.9457 18.3222 24.9457 17.6739Z" fill="white"/>
<path fill-rule="evenodd" clip-rule="evenodd" d="M33.9931 28.583C34.4516 29.0414 34.4516 29.7847 33.9931 30.2431L29.2975 34.9388C28.839 35.3972 28.0958 35.3972 27.6373 34.9388L25.2895 32.591C24.831 32.1325 24.831 31.3892 25.2895 30.9308C25.7479 30.4723 26.4912 30.4723 26.9496 30.9308L28.4674 32.4485L32.333 28.583C32.7914 28.1245 33.5347 28.1245 33.9931 28.583Z" fill="white"/>
</svg>
