<svg width="60" height="60" viewBox="0 0 60 60" fill="none" xmlns="http://www.w3.org/2000/svg">
<circle cx="30" cy="30" r="29" stroke="#0A6ED1" stroke-width="2"/>
<path fill-rule="evenodd" clip-rule="evenodd" d="M53.8341 26.1659C53.0507 25.3824 51.7804 25.3824 50.997 26.1659L44.735 32.4278C44.2558 32.907 43.547 33.0743 42.9042 32.86L28.2741 27.9833L27.9358 28.6599L38.9902 34.9767C39.4743 35.2533 39.8018 35.7399 39.8758 36.2926C39.9499 36.8453 39.7619 37.4009 39.3676 37.7952L34.0003 43.1626C33.6647 43.4981 33.2097 43.6866 32.7352 43.6866H26.6844L26.1899 44.6756L31.7462 47.4537C32.0924 47.6268 32.3732 47.9076 32.5463 48.2538L35.3244 53.8101L36.3134 53.3156V47.2648C36.3134 46.7903 36.5019 46.3353 36.8374 45.9997L40.4157 42.4215C41.1144 41.7228 42.2472 41.7228 42.9459 42.4215C43.6446 43.1202 43.6446 44.253 42.9459 44.9517L39.8917 48.0059V54.4214C39.8917 55.099 39.5088 55.7185 38.9027 56.0216L35.3244 57.8107C34.4406 58.2526 33.3659 57.8944 32.924 57.0106L29.6125 50.3875L22.9894 47.076C22.1056 46.6341 21.7474 45.5594 22.1893 44.6756L23.9784 41.0973C24.2815 40.4912 24.901 40.1083 25.5786 40.1083H31.9941L35.1811 36.9213L24.691 30.927C23.8666 30.4559 23.5538 29.4227 23.9784 28.5734L25.7675 24.9952C26.1657 24.1988 27.0889 23.8164 27.9335 24.098L42.9867 29.1157L48.4668 23.6356C50.6476 21.4548 54.1835 21.4548 56.3644 23.6356C58.5452 25.8165 58.5452 29.3524 56.3644 31.5332L55.4698 32.4278C54.7711 33.1265 53.6383 33.1265 52.9396 32.4278C52.2409 31.7291 52.2409 30.5963 52.9396 29.8976L53.8341 29.003C54.6176 28.2196 54.6176 26.9493 53.8341 26.1659Z" fill="white"/>
<path fill-rule="evenodd" clip-rule="evenodd" d="M35.7894 24.5302C36.4881 25.2289 36.4881 26.3617 35.7894 27.0604L34.0003 28.8495C33.3016 29.5482 32.1688 29.5482 31.4701 28.8495C30.7714 28.1508 30.7714 27.018 31.4701 26.3193L33.2592 24.5302C33.9579 23.8315 35.0907 23.8315 35.7894 24.5302Z" fill="white"/>
<path fill-rule="evenodd" clip-rule="evenodd" d="M34.0003 45.9997C34.699 46.6984 34.699 47.8312 34.0003 48.5299L32.2111 50.3191C31.5124 51.0178 30.3796 51.0178 29.6809 50.3191C28.9822 49.6204 28.9822 48.4876 29.6809 47.7889L31.4701 45.9997C32.1688 45.301 33.3016 45.301 34.0003 45.9997Z" fill="white"/>
<path fill-rule="evenodd" clip-rule="evenodd" d="M41.1568 26.3193C41.8555 27.018 41.8555 28.1508 41.1568 28.8495L39.3676 30.6387C38.6689 31.3374 37.5361 31.3374 36.8374 30.6387C36.1387 29.94 36.1387 28.8072 36.8374 28.1085L38.6266 26.3193C39.3253 25.6206 40.4581 25.6206 41.1568 26.3193Z" fill="white"/>
<path fill-rule="evenodd" clip-rule="evenodd" d="M49.7319 41.8975C49.2378 41.8975 48.8373 42.298 48.8373 42.792C48.8373 43.2861 49.2378 43.6866 49.7319 43.6866H51.521C53.9913 43.6866 55.9938 45.6891 55.9938 48.1594C55.9938 50.6297 53.9913 52.6322 51.521 52.6322H47.0482C46.0601 52.6322 45.2591 51.8312 45.2591 50.8431C45.2591 49.855 46.0601 49.054 47.0482 49.054H51.521C52.0151 49.054 52.4156 48.6535 52.4156 48.1594C52.4156 47.6654 52.0151 47.2648 51.521 47.2648H49.7319C47.2616 47.2648 45.2591 45.2623 45.2591 42.792C45.2591 40.3218 47.2616 38.3192 49.7319 38.3192H54.2047C55.1928 38.3192 55.9938 39.1202 55.9938 40.1083C55.9938 41.0964 55.1928 41.8975 54.2047 41.8975H49.7319Z" fill="white"/>
<path fill-rule="evenodd" clip-rule="evenodd" d="M50.6264 34.7409C51.6145 34.7409 52.4156 35.542 52.4156 36.5301V38.3192C52.4156 39.3073 51.6145 40.1083 50.6264 40.1083C49.6383 40.1083 48.8373 39.3073 48.8373 38.3192V36.5301C48.8373 35.542 49.6383 34.7409 50.6264 34.7409Z" fill="white"/>
<path fill-rule="evenodd" clip-rule="evenodd" d="M50.6264 50.8431C51.6145 50.8431 52.4156 51.6441 52.4156 52.6322V54.4214C52.4156 55.4095 51.6145 56.2105 50.6264 56.2105C49.6383 56.2105 48.8373 55.4095 48.8373 54.4214V52.6322C48.8373 51.6441 49.6383 50.8431 50.6264 50.8431Z" fill="white"/>
</svg>
