<svg width="24" height="30" viewBox="0 0 24 30" fill="none" xmlns="http://www.w3.org/2000/svg">
<path fill-rule="evenodd" clip-rule="evenodd" d="M6.66667 0C7.58714 0 8.33333 0.746192 8.33333 1.66667V8.33333C8.33333 9.25381 7.58714 10 6.66667 10C5.74619 10 5 9.25381 5 8.33333V1.66667C5 0.746192 5.74619 0 6.66667 0Z" fill="#0A6ED1"/>
<path fill-rule="evenodd" clip-rule="evenodd" d="M16.6667 0C17.5871 0 18.3333 0.746192 18.3333 1.66667V8.33333C18.3333 9.25381 17.5871 10 16.6667 10C15.7462 10 15 9.25381 15 8.33333V1.66667C15 0.746192 15.7462 0 16.6667 0Z" fill="#0A6ED1"/>
<path fill-rule="evenodd" clip-rule="evenodd" d="M5 10C4.07953 10 3.33333 10.7462 3.33333 11.6667V16.5494C3.33333 17.1066 3.61184 17.627 4.0755 17.9361L7.59117 20.2799C8.05483 20.589 8.33333 21.1094 8.33333 21.6667V26.6667H15V21.6667C15 21.1094 15.2785 20.589 15.7422 20.2799L19.2578 17.9361C19.7215 17.627 20 17.1066 20 16.5494V11.6667C20 10.7462 19.2538 10 18.3333 10H5ZM0 11.6667C0 8.90524 2.23858 6.66667 5 6.66667H18.3333C21.0948 6.66667 23.3333 8.90524 23.3333 11.6667V16.5494C23.3333 18.2212 22.4978 19.7823 21.1068 20.7096L18.3333 22.5586V28.3333C18.3333 29.2538 17.5871 30 16.6667 30H6.66667C5.74619 30 5 29.2538 5 28.3333V22.5586L2.2265 20.7096C0.835505 19.7823 0 18.2212 0 16.5494V11.6667Z" fill="#000000"/>
</svg>
