<svg width="30" height="30" viewBox="0 0 30 30" fill="none" xmlns="http://www.w3.org/2000/svg">
<path fill-rule="evenodd" clip-rule="evenodd" d="M11.6667 16.6667C7.06429 16.6667 3.33333 20.3976 3.33333 25V26.6667H11.6667C12.5871 26.6667 13.3333 27.4129 13.3333 28.3333C13.3333 29.2538 12.5871 30 11.6667 30H1.66667C0.746192 30 0 29.2538 0 28.3333V25C0 18.5567 5.22334 13.3333 11.6667 13.3333H15C17.9834 13.3333 20.7088 14.4554 22.7709 16.2979C23.4573 16.9112 23.5165 17.9648 22.9032 18.6512C22.2899 19.3376 21.2363 19.3968 20.5499 18.7835C19.0751 17.4658 17.1329 16.6667 15 16.6667H11.6667Z" fill="#353B44"/>
<path fill-rule="evenodd" clip-rule="evenodd" d="M29.5118 20.4882C30.1627 21.139 30.1627 22.1943 29.5118 22.8452L22.8452 29.5118C22.1943 30.1627 21.139 30.1627 20.4882 29.5118L17.1548 26.1785C16.5039 25.5276 16.5039 24.4724 17.1548 23.8215C17.8057 23.1706 18.861 23.1706 19.5118 23.8215L21.6667 25.9763L27.1548 20.4882C27.8057 19.8373 28.861 19.8373 29.5118 20.4882Z" fill="#353B44"/>
<path fill-rule="evenodd" clip-rule="evenodd" d="M5 8.33333C5 3.73096 8.73096 0 13.3333 0C17.9357 0 21.6667 3.73096 21.6667 8.33333C21.6667 12.9357 17.9357 16.6667 13.3333 16.6667C8.73096 16.6667 5 12.9357 5 8.33333ZM13.3333 3.33333C10.5719 3.33333 8.33333 5.57191 8.33333 8.33333C8.33333 11.0948 10.5719 13.3333 13.3333 13.3333C16.0948 13.3333 18.3333 11.0948 18.3333 8.33333C18.3333 5.57191 16.0948 3.33333 13.3333 3.33333Z" fill="#353B44"/>
<path fill-rule="evenodd" clip-rule="evenodd" d="M29.5117 20.4882C30.1626 21.139 30.1626 22.1943 29.5117 22.8452L22.845 29.5118C22.1941 30.1627 21.1389 30.1627 20.488 29.5118L17.1547 26.1785C16.5038 25.5276 16.5038 24.4724 17.1547 23.8215C17.8055 23.1706 18.8608 23.1706 19.5117 23.8215L21.6665 25.9763L27.1547 20.4882C27.8055 19.8373 28.8608 19.8373 29.5117 20.4882Z" fill="#0A6ED1"/>
</svg>
