<svg width="30" height="30" viewBox="0 0 30 30" fill="none" xmlns="http://www.w3.org/2000/svg">
<path fill-rule="evenodd" clip-rule="evenodd" d="M0 1.57895C0 0.706919 0.671625 6.27405e-08 1.50012 6.27405e-08H4.50035C5.06861 6.27405e-08 5.5881 0.337976 5.84217 0.872993L11.4281 12.6354H21.6308L27.1969 2.37498C27.6077 1.6177 28.524 1.35433 29.2435 1.78672C29.9629 2.21912 30.2132 3.18354 29.8023 3.94081L23.8044 14.9973C23.5374 15.4895 23.0402 15.7933 22.5017 15.7933H10.5008C9.93254 15.7933 9.41306 15.4554 9.15898 14.9203L3.5731 3.15789H1.50012C0.671625 3.15789 0 2.45098 0 1.57895Z" fill="#000000"/>
<path fill-rule="evenodd" clip-rule="evenodd" d="M23.5625 0.462463C24.1483 1.07908 24.1483 2.07881 23.5625 2.69543L17.562 9.01122C16.9762 9.62784 16.0264 9.62784 15.4405 9.01122L12.4403 5.85333C11.8545 5.23671 11.8545 4.23697 12.4403 3.62036C13.0261 3.00374 13.9759 3.00374 14.5618 3.62036L16.5013 5.66177L21.441 0.462463C22.0268 -0.154154 22.9766 -0.154154 23.5625 0.462463Z" fill="#000000"/>
<path fill-rule="evenodd" clip-rule="evenodd" d="M11.1717 12.7983C11.9127 13.1883 12.2131 14.1367 11.8426 14.9167L9.92782 18.9474H25.502C26.3305 18.9474 27.0021 19.6543 27.0021 20.5263C27.0021 21.3983 26.3305 22.1053 25.502 22.1053H7.50058C6.98067 22.1053 6.49783 21.8219 6.2245 21.3564C5.95117 20.8909 5.92632 20.3096 6.15883 19.8202L9.15906 13.5044C9.52958 12.7244 10.4307 12.4083 11.1717 12.7983Z" fill="#000000"/>
<path fill-rule="evenodd" clip-rule="evenodd" d="M24.0018 30C25.6588 30 27.0021 28.5862 27.0021 26.8421C27.0021 25.098 25.6588 23.6842 24.0018 23.6842C22.3449 23.6842 21.0016 25.098 21.0016 26.8421C21.0016 28.5862 22.3449 30 24.0018 30Z" fill="#000000"/>
<path fill-rule="evenodd" clip-rule="evenodd" d="M9.00069 30C10.6577 30 12.0009 28.5862 12.0009 26.8421C12.0009 25.098 10.6577 23.6842 9.00069 23.6842C7.34371 23.6842 6.00046 25.098 6.00046 26.8421C6.00046 28.5862 7.34371 30 9.00069 30Z" fill="#000000"/>
<path fill-rule="evenodd" clip-rule="evenodd" d="M23.5615 0.462463C24.1474 1.07908 24.1474 2.07881 23.5615 2.69543L17.5611 9.01122C16.9753 9.62784 16.0254 9.62784 15.4396 9.01122L12.4394 5.85333C11.8535 5.23671 11.8535 4.23697 12.4394 3.62036C13.0252 3.00374 13.975 3.00374 14.5609 3.62036L16.5003 5.66177L21.4401 0.462463C22.0259 -0.154154 22.9757 -0.154154 23.5615 0.462463Z" fill="#0A6ED1"/>
</svg>
