<svg width="22" height="30" viewBox="0 0 22 30" fill="none" xmlns="http://www.w3.org/2000/svg">
<path fill-rule="evenodd" clip-rule="evenodd" d="M13.6364 4.09091C13.6364 3.33779 14.2469 2.72727 15 2.72727H20.4545C21.2077 2.72727 21.8182 3.33779 21.8182 4.09091V10.9091C21.8182 11.6622 21.2077 12.2727 20.4545 12.2727C19.7014 12.2727 19.0909 11.6622 19.0909 10.9091V5.45455H15C14.2469 5.45455 13.6364 4.84402 13.6364 4.09091Z" fill="#000000"/>
<path fill-rule="evenodd" clip-rule="evenodd" d="M0 4.09091C0 3.33779 0.610521 2.72727 1.36364 2.72727H6.81818C7.5713 2.72727 8.18182 3.33779 8.18182 4.09091C8.18182 4.84402 7.5713 5.45455 6.81818 5.45455H2.72727V24.5455H9.54545C10.2986 24.5455 10.9091 25.156 10.9091 25.9091C10.9091 26.6622 10.2986 27.2727 9.54545 27.2727H1.36364C0.610521 27.2727 0 26.6622 0 25.9091V4.09091Z" fill="#000000"/>
<path fill-rule="evenodd" clip-rule="evenodd" d="M5.45455 1.36364C5.45455 0.610521 6.06507 0 6.81818 0H15C15.7531 0 16.3636 0.610521 16.3636 1.36364V6.81818C16.3636 7.5713 15.7531 8.18182 15 8.18182H6.81818C6.06507 8.18182 5.45455 7.5713 5.45455 6.81818V1.36364ZM8.18182 2.72727V5.45455H13.6364V2.72727H8.18182Z" fill="#000000"/>
<path fill-rule="evenodd" clip-rule="evenodd" d="M5.45455 12.2727C5.45455 11.5196 6.06507 10.9091 6.81818 10.9091H13.6364C14.3895 10.9091 15 11.5196 15 12.2727C15 13.0258 14.3895 13.6364 13.6364 13.6364H6.81818C6.06507 13.6364 5.45455 13.0258 5.45455 12.2727Z" fill="#000000"/>
<path fill-rule="evenodd" clip-rule="evenodd" d="M5.45455 16.3636C5.45455 15.6105 6.06507 15 6.81818 15H10.9091C11.6622 15 12.2727 15.6105 12.2727 16.3636C12.2727 17.1168 11.6622 17.7273 10.9091 17.7273H6.81818C6.06507 17.7273 5.45455 17.1168 5.45455 16.3636Z" fill="#000000"/>
<path fill-rule="evenodd" clip-rule="evenodd" d="M5.45455 20.4545C5.45455 19.7014 6.06507 19.0909 6.81818 19.0909H9.54545C10.2986 19.0909 10.9091 19.7014 10.9091 20.4545C10.9091 21.2077 10.2986 21.8182 9.54545 21.8182H6.81818C6.06507 21.8182 5.45455 21.2077 5.45455 20.4545Z" fill="#000000"/>
<path fill-rule="evenodd" clip-rule="evenodd" d="M17.0455 19.0909C16.6689 19.0909 16.3636 19.3962 16.3636 19.7727C16.3636 20.1493 16.6689 20.4545 17.0455 20.4545H18.4091C20.2919 20.4545 21.8182 21.9808 21.8182 23.8636C21.8182 25.7464 20.2919 27.2727 18.4091 27.2727H15C14.2469 27.2727 13.6364 26.6622 13.6364 25.9091C13.6364 25.156 14.2469 24.5455 15 24.5455H18.4091C18.7856 24.5455 19.0909 24.2402 19.0909 23.8636C19.0909 23.4871 18.7856 23.1818 18.4091 23.1818H17.0455C15.1627 23.1818 13.6364 21.6555 13.6364 19.7727C13.6364 17.8899 15.1627 16.3636 17.0455 16.3636H20.4545C21.2077 16.3636 21.8182 16.9742 21.8182 17.7273C21.8182 18.4804 21.2077 19.0909 20.4545 19.0909H17.0455Z" fill="#000000"/>
<path fill-rule="evenodd" clip-rule="evenodd" d="M17.7273 13.6364C18.4804 13.6364 19.0909 14.2469 19.0909 15V16.3636C19.0909 17.1168 18.4804 17.7273 17.7273 17.7273C16.9742 17.7273 16.3636 17.1168 16.3636 16.3636V15C16.3636 14.2469 16.9742 13.6364 17.7273 13.6364Z" fill="#000000"/>
<path fill-rule="evenodd" clip-rule="evenodd" d="M17.7273 25.9091C18.4804 25.9091 19.0909 26.5196 19.0909 27.2727V28.6364C19.0909 29.3895 18.4804 30 17.7273 30C16.9742 30 16.3636 29.3895 16.3636 28.6364V27.2727C16.3636 26.5196 16.9742 25.9091 17.7273 25.9091Z" fill="#000000"/>
<path fill-rule="evenodd" clip-rule="evenodd" d="M5.45508 12.2728C5.45508 11.5197 6.0656 10.9092 6.81871 10.9092H13.6369C14.39 10.9092 15.0005 11.5197 15.0005 12.2728C15.0005 13.0259 14.39 13.6365 13.6369 13.6365H6.81871C6.0656 13.6365 5.45508 13.0259 5.45508 12.2728Z" fill="#0A6ED1"/>
<path fill-rule="evenodd" clip-rule="evenodd" d="M5.45508 16.3637C5.45508 15.6106 6.0656 15.0001 6.81871 15.0001H10.9096C11.6627 15.0001 12.2733 15.6106 12.2733 16.3637C12.2733 17.1168 11.6627 17.7274 10.9096 17.7274H6.81871C6.0656 17.7274 5.45508 17.1168 5.45508 16.3637Z" fill="#0A6ED1"/>
<path fill-rule="evenodd" clip-rule="evenodd" d="M5.45508 20.4546C5.45508 19.7015 6.0656 19.091 6.81871 19.091H9.54599C10.2991 19.091 10.9096 19.7015 10.9096 20.4546C10.9096 21.2077 10.2991 21.8183 9.54599 21.8183H6.81871C6.0656 21.8183 5.45508 21.2077 5.45508 20.4546Z" fill="#0A6ED1"/>
</svg>
