<svg width="32" height="32" viewBox="0 0 32 32" fill="none" xmlns="http://www.w3.org/2000/svg">
<path fill-rule="evenodd" clip-rule="evenodd" d="M16 32C24.8366 32 32 24.8366 32 16C32 7.16344 24.8366 0 16 0C7.16344 0 0 7.16344 0 16C0 24.8366 7.16344 32 16 32ZM10.4 10C9.07452 10 8 11.0913 8 12.4375V20.5625C8 21.9087 9.07452 23 10.4 23H21.6C22.9255 23 24 21.9087 24 20.5625V12.4375C24 11.0913 22.9255 10 21.6 10H10.4ZM9.99988 11.7338C10.1176 11.6646 10.2542 11.625 10.4 11.625H21.6C21.7458 11.625 21.8824 11.6646 22.0001 11.7338C21.992 11.7385 21.984 11.7434 21.976 11.7485L16.424 15.2727C16.1646 15.4374 15.8354 15.4374 15.576 15.2727L10.024 11.7485C10.016 11.7434 10.008 11.7385 9.99988 11.7338ZM9.6 13.3956V20.5625C9.6 21.0112 9.95817 21.375 10.4 21.375H21.6C22.0418 21.375 22.4 21.0112 22.4 20.5625V13.3956L17.272 16.6507C16.4937 17.1447 15.5063 17.1447 14.728 16.6507L9.6 13.3956Z" fill="white"/>
</svg>
