<svg width="32" height="32" viewBox="0 0 32 32" fill="none" xmlns="http://www.w3.org/2000/svg">
<g clip-path="url(#clip0)">
<path fill-rule="evenodd" clip-rule="evenodd" d="M24.0005 23.9854H20.6855V18.7974C20.6855 17.5604 20.6635 15.9694 18.9625 15.9694C17.2375 15.9694 16.9745 17.3174 16.9745 18.7094V23.9854H13.6625V13.3174H16.8405V14.7764H16.8865C17.3285 13.9374 18.4105 13.0524 20.0235 13.0524C23.3805 13.0524 24.0005 15.2614 24.0005 18.1344V23.9854ZM9.9245 11.8604C8.8595 11.8604 8.00049 10.9984 8.00049 9.93741C8.00049 8.87641 8.8595 8.0144 9.9245 8.0144C10.9845 8.0144 11.8455 8.87641 11.8455 9.93741C11.8455 10.9984 10.9845 11.8604 9.9245 11.8604ZM11.5825 23.9854H8.26349V13.3174H11.5825V23.9854ZM16.0005 0.000396729C7.16349 0.000396729 0.000488281 7.1634 0.000488281 16.0004C0.000488281 24.8364 7.16349 32.0004 16.0005 32.0004C24.8375 32.0004 32.0005 24.8364 32.0005 16.0004C32.0005 7.1634 24.8375 0.000396729 16.0005 0.000396729Z" fill="white"/>
</g>
<defs>
<clipPath id="clip0">
<rect width="32" height="32" fill="white"/>
</clipPath>
</defs>
</svg>
