<svg width="670" height="268" viewBox="0 0 670 268" fill="none" xmlns="http://www.w3.org/2000/svg">
<mask id="mask0" mask-type="alpha" maskUnits="userSpaceOnUse" x="0" y="0" width="670" height="268">
<rect width="670" height="268" fill="#C4C4C4"/>
</mask>
<g mask="url(#mask0)">
<g opacity="0.3">
<path fill-rule="evenodd" clip-rule="evenodd" d="M255.445 170.712C252.191 173.59 239.818 167.834 234.913 158.899C230.007 149.964 239.107 146.784 226.73 132.494C214.352 118.204 206.41 112.731 213.921 89.1768C221.433 65.6223 211.056 52.5318 224.767 46.3866C238.478 40.2413 246.375 60.6367 244.802 78.5765C243.229 96.5163 246.446 100.234 259.857 98.3753C273.269 96.5163 261.962 122.853 261.962 128.602C261.962 134.351 270.094 145.029 268.407 153.063C266.72 161.096 258.698 167.834 255.445 170.712Z" fill="url(#paint0_linear)"/>
<path fill-rule="evenodd" clip-rule="evenodd" d="M254.791 118.189C255.314 118.189 255.738 118.613 255.738 119.136C255.738 124.07 254.517 129.829 253.012 134.815C251.509 139.791 249.686 144.114 248.417 146.167C248.142 146.611 247.559 146.749 247.114 146.474C246.67 146.199 246.532 145.616 246.807 145.171C247.949 143.324 249.715 139.183 251.2 134.268C252.681 129.363 253.845 123.805 253.845 119.136C253.845 118.613 254.269 118.189 254.791 118.189Z" fill="url(#paint1_linear)"/>
<path fill-rule="evenodd" clip-rule="evenodd" d="M219.122 103.274C218.699 103.58 218.605 104.172 218.911 104.595C222.071 108.958 226.852 111.915 230.682 114.273L230.783 114.335C232.69 115.508 234.324 116.514 235.496 117.486C236.723 118.503 237.184 119.278 237.184 119.923C237.184 120.446 237.608 120.869 238.131 120.869C238.653 120.869 239.077 120.446 239.077 119.923C239.077 118.362 237.99 117.095 236.704 116.029C235.427 114.97 233.695 113.904 231.858 112.774C231.797 112.736 231.736 112.698 231.674 112.661C227.794 110.273 223.349 107.495 220.444 103.485C220.137 103.062 219.546 102.967 219.122 103.274Z" fill="url(#paint2_linear)"/>
<path fill-rule="evenodd" clip-rule="evenodd" d="M231.16 75.5762C231.682 75.5762 232.106 75.9999 232.106 76.5226C232.106 89.4725 235.909 105.608 240.985 122.287C244.3 133.179 248.136 144.239 251.783 154.752C253.72 160.336 255.604 165.767 257.327 170.936C262.575 186.674 264.957 200.526 266.073 207.014C266.294 208.298 266.465 209.293 266.599 209.958C266.703 210.47 266.371 210.969 265.859 211.073C265.346 211.176 264.847 210.844 264.744 210.332C264.604 209.637 264.427 208.611 264.201 207.298C263.076 200.766 260.724 187.107 255.532 171.534C253.823 166.41 251.947 161.001 250.014 155.427C246.359 144.89 242.498 133.76 239.174 122.838C234.092 106.138 230.213 89.7725 230.213 76.5226C230.213 75.9999 230.637 75.5762 231.16 75.5762Z" fill="url(#paint3_linear)"/>
</g>
<path fill-rule="evenodd" clip-rule="evenodd" d="M277.532 19.0689C277.532 8.53743 286.07 0 296.601 0H381.866C392.398 0 400.935 8.53743 400.935 19.0689V208.668C400.935 219.199 392.398 227.737 381.866 227.737H296.601C286.07 227.737 277.532 219.199 277.532 208.668V19.0689Z" fill="url(#paint4_linear)"/>
<path fill-rule="evenodd" clip-rule="evenodd" d="M267.453 19.0689C267.453 8.53743 275.991 0 286.522 0H371.787C382.319 0 390.856 8.53743 390.856 19.0689V208.668C390.856 219.199 382.319 227.737 371.787 227.737H286.522C275.991 227.737 267.453 219.199 267.453 208.668V19.0689Z" fill="url(#paint5_linear)"/>
<path d="M296.874 16.754C296.874 15.6257 297.789 14.7109 298.917 14.7109H359.665C360.793 14.7109 361.708 15.6257 361.708 16.754C361.708 17.8824 360.793 18.7971 359.665 18.7971H298.917C297.789 18.7971 296.874 17.8824 296.874 16.754Z" fill="url(#paint6_linear)"/>
<path fill-rule="evenodd" clip-rule="evenodd" d="M329.018 222.834C335.337 222.834 340.459 217.711 340.459 211.392C340.459 205.074 335.337 199.951 329.018 199.951C322.699 199.951 317.577 205.074 317.577 211.392C317.577 217.711 322.699 222.834 329.018 222.834Z" fill="url(#paint7_linear)"/>
<g filter="url(#filter0_d)">
<path d="M272.629 35.9584C272.629 34.153 274.093 32.6895 275.898 32.6895H382.684C384.489 32.6895 385.953 34.153 385.953 35.9584V191.778C385.953 193.584 384.489 195.047 382.684 195.047H275.898C274.093 195.047 272.629 193.584 272.629 191.778V35.9584Z" fill="white"/>
</g>
<mask id="mask1" mask-type="alpha" maskUnits="userSpaceOnUse" x="272" y="32" width="115" height="164">
<path d="M272.698 35.9447C272.698 34.1393 274.161 32.6758 275.967 32.6758H382.752C384.558 32.6758 386.021 34.1393 386.021 35.9447V191.765C386.021 193.57 384.558 195.034 382.752 195.034H275.967C274.161 195.034 272.698 193.57 272.698 191.765V35.9447Z" fill="white"/>
</mask>
<g mask="url(#mask1)">
<g opacity="0.6">
<path d="M285.433 45.2197C285.433 42.2107 287.872 39.7715 290.881 39.7715H367.429C370.438 39.7715 372.877 42.2107 372.877 45.2197V65.3783C372.877 68.3872 370.438 70.8265 367.429 70.8265H290.881C287.872 70.8265 285.433 68.3872 285.433 65.3783V45.2197Z" fill="url(#paint8_linear)"/>
</g>
<g opacity="0.6">
<path d="M285.433 124.765C285.433 121.756 287.872 119.316 290.881 119.316H367.429C370.438 119.316 372.877 121.756 372.877 124.765V144.923C372.877 147.932 370.438 150.371 367.429 150.371H290.881C287.872 150.371 285.433 147.932 285.433 144.923V124.765Z" fill="url(#paint9_linear)"/>
</g>
<g opacity="0.6">
<path d="M285.433 164.536C285.433 161.527 287.872 159.088 290.881 159.088H367.429C370.438 159.088 372.877 161.527 372.877 164.536V184.695C372.877 187.704 370.438 190.143 367.429 190.143H290.881C287.872 190.143 285.433 187.704 285.433 184.695V164.536Z" fill="url(#paint10_linear)"/>
</g>
</g>
<g filter="url(#filter1_d)">
<path d="M279.867 80.4307C279.867 77.4217 282.306 74.9824 285.315 74.9824H361.863C364.872 74.9824 367.312 77.4217 367.312 80.4307V100.589C367.312 103.598 364.872 106.037 361.863 106.037H285.315C282.306 106.037 279.867 103.598 279.867 100.589V80.4307Z" fill="url(#paint11_linear)"/>
<path fill-rule="evenodd" clip-rule="evenodd" d="M294.578 102.222C300.896 102.222 306.019 97.1 306.019 90.7812C306.019 84.4623 300.896 79.3398 294.578 79.3398C288.259 79.3398 283.136 84.4623 283.136 90.7812C283.136 97.1 288.259 102.222 294.578 102.222Z" fill="#FFB417"/>
</g>
<path fill-rule="evenodd" clip-rule="evenodd" d="M140.183 123.994C140.183 129.632 135.54 140.679 141.595 143.543C147.65 146.407 153.005 131.531 153.005 131.531C153.005 131.531 152.543 120.608 147.069 120.608C141.595 120.608 140.183 118.357 140.183 123.994Z" fill="url(#paint12_linear)"/>
<mask id="mask2" mask-type="alpha" maskUnits="userSpaceOnUse" x="138" y="120" width="16" height="24">
<path fill-rule="evenodd" clip-rule="evenodd" d="M140.183 123.994C140.183 129.632 135.54 140.679 141.595 143.543C147.65 146.407 153.005 131.531 153.005 131.531C153.005 131.531 152.543 120.608 147.069 120.608C141.595 120.608 140.183 118.357 140.183 123.994Z" fill="white"/>
</mask>
<g mask="url(#mask2)">
<g opacity="0.5">
<path fill-rule="evenodd" clip-rule="evenodd" d="M139.835 126.521C140.323 127.513 146.977 132.762 148.077 134.004C149.177 135.245 149.429 138.489 150.061 138.154C150.693 137.819 150.061 128.302 150.061 128.302C150.061 128.302 139.346 125.529 139.835 126.521Z" fill="#3D82F0" style="mix-blend-mode:multiply"/>
</g>
</g>
<path fill-rule="evenodd" clip-rule="evenodd" d="M151.014 251.815C150.912 254.727 150.033 258.338 150.735 259.811C151.436 261.283 155.138 262.173 156.368 262.216C157.598 262.259 158.082 260.199 159.954 261.333C161.827 262.467 172.715 262.787 173.574 258.482C174.432 254.177 168.914 253.984 166.459 253.899C164.004 253.813 161.446 252.527 157.91 249.295C154.374 246.064 151.116 248.904 151.014 251.815Z" fill="url(#paint13_linear)"/>
<path fill-rule="evenodd" clip-rule="evenodd" d="M162.84 252.805C162.818 252.978 162.941 253.135 163.114 253.156C163.111 253.156 163.111 253.156 163.115 253.157C163.124 253.161 163.155 253.172 163.213 253.207C163.284 253.249 163.373 253.314 163.472 253.399C163.67 253.57 163.894 253.81 164.086 254.09C164.48 254.666 164.687 255.325 164.43 255.9C164.359 256.059 164.43 256.245 164.59 256.316C164.749 256.387 164.935 256.316 165.006 256.157C165.398 255.28 165.045 254.374 164.607 253.734C164.383 253.406 164.122 253.126 163.883 252.921C163.764 252.818 163.646 252.731 163.538 252.666C163.438 252.606 163.315 252.545 163.191 252.53C163.018 252.509 162.861 252.632 162.84 252.805Z" fill="white"/>
<path fill-rule="evenodd" clip-rule="evenodd" d="M165.865 253.552C165.844 253.725 165.967 253.882 166.14 253.904C166.311 253.925 166.668 254.057 166.956 254.375C167.231 254.68 167.458 255.173 167.363 255.953C167.341 256.126 167.464 256.283 167.637 256.305C167.81 256.326 167.968 256.203 167.989 256.03C168.106 255.077 167.828 254.399 167.424 253.952C167.032 253.518 166.534 253.316 166.217 253.277C166.044 253.256 165.886 253.379 165.865 253.552Z" fill="white"/>
<path fill-rule="evenodd" clip-rule="evenodd" d="M205.555 257.941C205.809 260.843 205.376 264.535 206.252 265.911C207.128 267.287 210.91 267.719 212.136 267.612C213.362 267.505 213.591 265.401 215.588 266.298C217.585 267.195 228.432 266.186 228.759 261.809C229.086 257.431 223.585 257.913 221.138 258.127C218.692 258.341 215.996 257.376 212.092 254.6C208.188 251.823 205.301 255.039 205.555 257.941Z" fill="url(#paint14_linear)"/>
<path fill-rule="evenodd" clip-rule="evenodd" d="M217.414 257.485C217.414 257.659 217.556 257.8 217.73 257.8C217.727 257.8 217.727 257.8 217.73 257.801C217.74 257.803 217.773 257.811 217.834 257.838C217.909 257.872 218.005 257.925 218.114 257.997C218.332 258.143 218.583 258.354 218.808 258.609C219.269 259.132 219.555 259.761 219.37 260.363C219.319 260.529 219.413 260.706 219.579 260.757C219.746 260.808 219.922 260.714 219.973 260.548C220.255 259.63 219.795 258.774 219.281 258.191C219.019 257.894 218.726 257.647 218.464 257.473C218.333 257.385 218.206 257.313 218.09 257.262C217.984 257.214 217.854 257.169 217.73 257.169C217.556 257.169 217.414 257.31 217.414 257.485Z" fill="white"/>
<path fill-rule="evenodd" clip-rule="evenodd" d="M220.508 257.856C220.508 258.03 220.649 258.171 220.823 258.171C220.996 258.171 221.367 258.259 221.691 258.539C222.002 258.809 222.287 259.27 222.287 260.056C222.287 260.23 222.428 260.372 222.602 260.372C222.777 260.372 222.918 260.23 222.918 260.056C222.918 259.096 222.56 258.457 222.104 258.063C221.662 257.68 221.143 257.54 220.823 257.54C220.649 257.54 220.508 257.681 220.508 257.856Z" fill="white"/>
<path fill-rule="evenodd" clip-rule="evenodd" d="M195.665 153.664C195.665 153.664 207.558 197.237 209.106 207.152C210.655 217.067 214.444 250.58 213.909 255.985C211.321 258.624 206.658 257.044 205.846 256.56C205.034 256.076 200.03 228.502 195.665 217.806C191.3 207.109 181.477 197.265 175.004 186.503C175.004 193.507 170.006 212.253 170.006 212.253C170.006 212.253 162.718 245.356 160.238 250.714C159.061 252.615 153.12 251.221 150.816 250.714C150.816 245.694 155.784 220.328 155.784 211.522C155.784 202.716 154.41 186.758 153.897 180.216C153.384 173.674 152.129 160.981 153.897 153.664C158.378 153.664 195.665 153.664 195.665 153.664Z" fill="url(#paint15_linear)"/>
<mask id="mask3" mask-type="alpha" maskUnits="userSpaceOnUse" x="150" y="153" width="64" height="105">
<path fill-rule="evenodd" clip-rule="evenodd" d="M195.665 153.664C195.665 153.664 207.558 197.237 209.106 207.152C210.655 217.067 214.444 250.58 213.909 255.985C211.321 258.624 206.658 257.044 205.846 256.56C205.034 256.076 200.03 228.502 195.665 217.806C191.3 207.109 181.477 197.265 175.004 186.503C175.004 193.507 170.006 212.253 170.006 212.253C170.006 212.253 162.718 245.356 160.238 250.714C159.061 252.615 153.12 251.221 150.816 250.714C150.816 245.694 155.784 220.328 155.784 211.522C155.784 202.716 154.41 186.758 153.897 180.216C153.384 173.674 152.129 160.981 153.897 153.664C158.378 153.664 195.665 153.664 195.665 153.664Z" fill="white"/>
</mask>
<g mask="url(#mask3)">
<g opacity="0.5">
<path fill-rule="evenodd" clip-rule="evenodd" d="M168.731 217.343C168.731 213.078 170.929 178.228 171.434 179.658C171.939 181.088 175.87 188.811 175.87 188.811C175.87 188.811 168.731 221.608 168.731 217.343Z" fill="#A1B8E3" style="mix-blend-mode:multiply"/>
</g>
<path fill-rule="evenodd" clip-rule="evenodd" d="M171.48 179.37C171.65 179.33 171.82 179.434 171.86 179.604C172.157 180.85 172.885 182.36 173.691 183.846C174.043 184.496 174.414 185.148 174.766 185.765C175.203 186.533 175.61 187.248 175.913 187.84C175.992 187.995 175.931 188.185 175.776 188.264C175.621 188.344 175.431 188.282 175.351 188.127C175.05 187.538 174.658 186.851 174.231 186.1C173.88 185.486 173.505 184.828 173.136 184.147C172.33 182.66 171.565 181.085 171.246 179.75C171.206 179.581 171.311 179.41 171.48 179.37Z" fill="white"/>
<g opacity="0.5">
<path fill-rule="evenodd" clip-rule="evenodd" d="M156.648 160.943C159.428 162.439 170.314 168.802 184.342 166.252C191.273 164.992 195.731 163.343 197.731 160.943C197.731 159.761 196.05 154.79 195.581 152.888C195.111 150.986 153.243 159.112 156.648 160.943Z" fill="url(#paint16_linear)" style="mix-blend-mode:multiply"/>
</g>
</g>
<path fill-rule="evenodd" clip-rule="evenodd" d="M174.632 61.041C174.632 61.041 176.239 64.1539 178.961 65.4755C181.682 66.797 183.043 67.4436 183.043 67.4436L181.886 71.932C181.886 71.932 184.042 78.5321 183.043 80.7573C182.043 82.9825 178.961 84.4609 177.166 86.445C175.372 88.429 173.714 95.1598 173.714 95.1598H161.889L161.353 86.445C161.353 86.445 158.2 73.8698 163.55 67.4436C168.901 61.0175 174.632 61.041 174.632 61.041Z" fill="url(#paint17_linear)"/>
<mask id="mask4" mask-type="alpha" maskUnits="userSpaceOnUse" x="160" y="61" width="24" height="35">
<path fill-rule="evenodd" clip-rule="evenodd" d="M174.632 61.041C174.632 61.041 176.239 64.1539 178.961 65.4755C181.682 66.797 183.043 67.4436 183.043 67.4436L181.886 71.932C181.886 71.932 184.042 78.5321 183.043 80.7573C182.043 82.9825 178.961 84.4609 177.166 86.445C175.372 88.429 173.714 95.1598 173.714 95.1598H161.889L161.353 86.445C161.353 86.445 158.2 73.8698 163.55 67.4436C168.901 61.0175 174.632 61.041 174.632 61.041Z" fill="white"/>
</mask>
<g mask="url(#mask4)">
<g opacity="0.5">
<path fill-rule="evenodd" clip-rule="evenodd" d="M178.64 85.2611C175.655 85.2611 170.999 82.6181 170.102 81.7151C169.206 80.8121 177.565 90.5808 176.867 92.1366C176.316 93.364 174.351 93.7395 175.591 93.7395C180.06 93.7395 181.625 85.2611 178.64 85.2611Z" fill="#3D82F0" style="mix-blend-mode:multiply"/>
</g>
</g>
<path fill-rule="evenodd" clip-rule="evenodd" d="M161.354 86.0777C150.928 76.3327 142.673 68.0162 149.792 56.4278C156.912 44.8393 173.479 40.9437 176.575 55.0305C176.575 61.0746 172.113 64.3035 172.113 64.3035C172.113 64.3035 171.278 66.0024 173.479 67.8046C175.68 69.6068 173.479 71.0962 173.479 71.0962C173.479 71.0962 169.132 68.3006 167.997 72.0235C166.862 75.7464 171.052 77.079 171.052 78.0109C172.496 81.4354 169.516 84.568 169.516 84.568C169.516 84.568 167.99 86.0777 161.354 86.0777Z" fill="url(#paint18_linear)"/>
<path fill-rule="evenodd" clip-rule="evenodd" d="M150.6 99.2227C150.6 99.2227 139.439 118.801 138.092 123.11C136.746 127.418 150.6 129.909 150.6 129.909L156.381 105.281L150.6 99.2227Z" fill="url(#paint19_linear)"/>
<path fill-rule="evenodd" clip-rule="evenodd" d="M174.711 92.4834C174.711 92.4834 183.117 94.7017 188.07 100.563C193.024 106.425 191.92 124.06 193.323 134.556C194.726 145.052 200.83 152.681 191.401 158.604C181.972 164.527 155.312 163.182 153.132 158.604C150.951 154.026 148.466 125.888 148.466 125.888C148.466 125.888 148.466 100.563 151.444 98.4286C154.422 96.2938 161.374 92.168 161.374 92.168C161.374 92.168 161.218 92.7957 164.572 93.4178C167.926 94.0399 174.711 92.4834 174.711 92.4834Z" fill="#D6E3FA"/>
<mask id="mask5" mask-type="alpha" maskUnits="userSpaceOnUse" x="148" y="92" width="49" height="71">
<path fill-rule="evenodd" clip-rule="evenodd" d="M174.711 92.4834C174.711 92.4834 183.117 94.7017 188.07 100.563C193.024 106.425 191.92 124.06 193.323 134.556C194.726 145.052 200.83 152.681 191.401 158.604C181.972 164.527 155.312 163.182 153.132 158.604C150.951 154.026 148.466 125.888 148.466 125.888C148.466 125.888 148.466 100.563 151.444 98.4286C154.422 96.2938 161.374 92.168 161.374 92.168C161.374 92.168 161.218 92.7957 164.572 93.4178C167.926 94.0399 174.711 92.4834 174.711 92.4834Z" fill="white"/>
</mask>
<g mask="url(#mask5)">
<path opacity="0.5" fill-rule="evenodd" clip-rule="evenodd" d="M181.693 112.518C181.693 112.518 186.227 133.711 188.955 137.684C191.684 141.656 193.458 153.677 195.642 155.11C197.826 156.544 200.963 140.146 199.394 134.531C197.826 128.917 190.755 115.165 190.755 115.165L181.693 112.518Z" fill="url(#paint20_linear)"/>
<path opacity="0.5" fill-rule="evenodd" clip-rule="evenodd" d="M163.371 93.6213C165.389 94.9597 170.647 95.6843 175.067 95.6843C179.486 95.6843 180.868 95.7311 182.983 95.0874C185.098 94.4438 184.278 93.6213 182.983 93.6213C181.688 93.6213 177.672 92.6773 175.511 92.6773C173.349 92.6773 161.353 92.2828 163.371 93.6213Z" fill="url(#paint21_linear)"/>
</g>
<path fill-rule="evenodd" clip-rule="evenodd" d="M160.992 92.4838C160.992 92.4838 160.731 89.2422 160.731 88.1966C160.731 87.1511 169.438 88.6276 175.704 89.2135C176.384 91.8216 176.263 91.9942 176.263 92.4838C176.263 92.7286 174.698 94.8267 166.28 94.1464C163.207 93.8981 160.992 92.4838 160.992 92.4838Z" fill="#E1ECFF"/>
<path fill-rule="evenodd" clip-rule="evenodd" d="M204.524 117.57C206.402 113.352 207.464 106.837 205.474 105.951C203.485 105.066 200.664 109.559 198.786 113.777C196.908 117.995 198.074 120.727 199.226 121.865C200.517 122.131 202.646 121.788 204.524 117.57Z" fill="#A1B8E3"/>
<path fill-rule="evenodd" clip-rule="evenodd" d="M202.308 104.961L211.113 108.585C211.113 108.585 218.922 87.7488 219.396 85.0446C219.869 82.3405 217.77 78.5243 217.431 77.1637C217.092 75.8031 217.147 72.6015 218.094 71.4299C219.042 70.2582 219.293 70.6767 220.001 70.5001C220.709 70.3236 224.911 61.3117 225.387 60.1794C225.864 59.0471 226.713 58.3368 227.578 58.714C228.442 59.0912 228.361 60.0984 228.02 60.9891C227.678 61.8799 225.762 66.8788 225.979 67.749C226.196 68.6192 229.572 69.7449 230.514 70.3227C231.456 70.9006 233.06 72.8006 232.258 75.5493C231.456 78.2981 227.756 83.2808 228.02 84.3405C228.284 85.4002 224.547 103.358 223.358 110.541C222.169 117.723 220.614 122.76 214.544 122.344C208.473 121.928 195.892 115.178 195.892 115.178C195.892 115.178 196.715 109.934 198.286 107.956C199.858 105.978 202.308 104.961 202.308 104.961Z" fill="url(#paint22_linear)"/>
<mask id="mask6" mask-type="alpha" maskUnits="userSpaceOnUse" x="184" y="58" width="59" height="69">
<path fill-rule="evenodd" clip-rule="evenodd" d="M202.308 104.961L211.113 108.585C211.113 108.585 218.922 87.7488 219.396 85.0446C219.869 82.3405 217.77 78.5243 217.431 77.1637C217.092 75.8031 217.147 72.6015 218.094 71.4299C219.042 70.2582 219.293 70.6767 220.001 70.5001C220.709 70.3236 224.911 61.3117 225.387 60.1794C225.864 59.0471 226.713 58.3368 227.578 58.714C228.442 59.0912 228.361 60.0984 228.02 60.9891C227.678 61.8799 225.762 66.8788 225.979 67.749C226.196 68.6192 229.572 69.7449 230.514 70.3227C231.456 70.9006 233.06 72.8006 232.258 75.5493C231.456 78.2981 227.756 83.2808 228.02 84.3405C228.284 85.4002 224.547 103.358 223.358 110.541C222.169 117.723 220.614 122.76 214.544 122.344C208.473 121.928 195.892 115.178 195.892 115.178C195.892 115.178 196.715 109.934 198.286 107.956C199.858 105.978 202.308 104.961 202.308 104.961Z" fill="white"/>
</mask>
<g mask="url(#mask6)">
<g opacity="0.5">
<path fill-rule="evenodd" clip-rule="evenodd" d="M205.198 105.924C205.198 105.924 203.332 116.841 204.503 120.053C205.674 123.265 199.252 118.732 199.252 118.732C199.252 118.732 199.377 114.054 200.364 111.928C201.351 109.803 205.198 105.924 205.198 105.924Z" fill="#3D82F0" style="mix-blend-mode:multiply"/>
</g>
<path fill-rule="evenodd" clip-rule="evenodd" d="M210.641 108.195C210.714 108.037 210.901 107.968 211.059 108.04C211.097 108.058 211.138 108.076 211.182 108.096C211.708 108.331 212.634 108.745 213.461 109.891C213.563 110.032 213.532 110.229 213.39 110.331C213.249 110.433 213.052 110.401 212.95 110.26C212.223 109.254 211.43 108.898 210.92 108.67C210.877 108.65 210.835 108.632 210.796 108.614C210.638 108.541 210.568 108.354 210.641 108.195Z" fill="#223762"/>
</g>
<path fill-rule="evenodd" clip-rule="evenodd" d="M199.147 121.832C200.139 116.871 201.568 110.042 205.538 105.955C191.371 99.8461 186.906 97.6801 182.452 95.7774C177.998 93.8747 173.945 106.408 182.452 112.642C190.959 118.876 196.783 120.788 199.147 121.832Z" fill="url(#paint23_linear)"/>
<path opacity="0.7" fill-rule="evenodd" clip-rule="evenodd" d="M31.3836 233.443C41.8373 233.443 50.3117 235.279 50.3117 237.544C50.3117 239.809 41.8373 241.646 31.3836 241.646C20.93 241.646 12.4556 239.809 12.4556 237.544C12.4556 235.279 20.93 233.443 31.3836 233.443Z" fill="url(#paint24_linear)"/>
<path fill-rule="evenodd" clip-rule="evenodd" d="M56.6074 213.689C58.0315 216.184 58.8292 218.979 58.8292 221.932C58.8292 232.472 48.66 241.017 36.1155 241.017C23.5711 241.017 13.4019 232.472 13.4019 221.932C13.4019 218.808 14.2951 215.859 15.8787 213.256C25.9408 214.849 45.9686 214.746 56.6074 213.689Z" fill="url(#paint25_linear)"/>
<mask id="mask7" mask-type="alpha" maskUnits="userSpaceOnUse" x="13" y="213" width="46" height="29">
<path fill-rule="evenodd" clip-rule="evenodd" d="M56.6074 213.689C58.0315 216.184 58.8292 218.979 58.8292 221.932C58.8292 232.472 48.66 241.017 36.1155 241.017C23.5711 241.017 13.4019 232.472 13.4019 221.932C13.4019 218.808 14.2951 215.859 15.8787 213.256C25.9408 214.849 45.9686 214.746 56.6074 213.689Z" fill="white"/>
</mask>
<g mask="url(#mask7)">
</g>
<path fill-rule="evenodd" clip-rule="evenodd" d="M36.2735 209.469C47.6855 209.469 56.9367 211.658 56.9367 214.358C56.9367 217.059 47.6855 219.248 36.2735 219.248C24.8616 219.248 15.6104 217.059 15.6104 214.358C15.6104 211.658 24.8616 209.469 36.2735 209.469Z" fill="url(#paint26_linear)"/>
<mask id="mask8" mask-type="alpha" maskUnits="userSpaceOnUse" x="15" y="209" width="42" height="11">
<path fill-rule="evenodd" clip-rule="evenodd" d="M36.2735 209.469C47.6855 209.469 56.9367 211.658 56.9367 214.358C56.9367 217.059 47.6855 219.248 36.2735 219.248C24.8616 219.248 15.6104 217.059 15.6104 214.358C15.6104 211.658 24.8616 209.469 36.2735 209.469Z" fill="white"/>
</mask>
<g mask="url(#mask8)">
</g>
<g filter="url(#filter2_i)">
<path fill-rule="evenodd" clip-rule="evenodd" d="M34.538 210.731C33.4096 202.922 30.3053 191.645 20.9729 179.499C15.4755 172.345 15.4575 154.921 14.6636 153C18.9773 154.483 26.7265 158.307 34.538 169.089C42.7266 180.391 37.5319 203.441 34.538 210.731Z" fill="url(#paint27_linear)"/>
</g>
<mask id="mask9" mask-type="alpha" maskUnits="userSpaceOnUse" x="14" y="153" width="25" height="58">
<path fill-rule="evenodd" clip-rule="evenodd" d="M34.538 210.731C33.4096 202.922 30.3053 191.645 20.9729 179.499C15.4755 172.345 15.4575 154.921 14.6636 153C18.9773 154.483 26.7265 158.307 34.538 169.089C42.7266 180.391 37.5319 203.441 34.538 210.731Z" fill="white"/>
</mask>
<g mask="url(#mask9)">
<g style="mix-blend-mode:multiply" opacity="0.5">
<path fill-rule="evenodd" clip-rule="evenodd" d="M34.223 210.732C35.0842 191.749 32.7207 179.769 25.29 168.459L34.223 210.732Z" fill="black" fill-opacity="0.01"/>
</g>
</g>
<g filter="url(#filter3_i)">
<path fill-rule="evenodd" clip-rule="evenodd" d="M34.5726 218.747C31.0864 213.17 24.9269 205.614 13.7226 199.487C7.12251 195.877 1.25177 182.596 0 181.398C3.79037 181.08 10.989 181.392 20.5741 186.99C30.622 192.858 34.4064 212.181 34.5726 218.747Z" fill="url(#paint28_linear)"/>
</g>
<mask id="mask10" mask-type="alpha" maskUnits="userSpaceOnUse" x="0" y="181" width="35" height="38">
<path fill-rule="evenodd" clip-rule="evenodd" d="M34.5726 218.747C31.0864 213.17 24.9269 205.614 13.7226 199.487C7.12251 195.877 1.25177 182.596 0 181.398C3.79037 181.08 10.989 181.392 20.5741 186.99C30.622 192.858 34.4064 212.181 34.5726 218.747Z" fill="white"/>
</mask>
<g mask="url(#mask10)">
<g style="mix-blend-mode:multiply" opacity="0.5">
<path fill-rule="evenodd" clip-rule="evenodd" d="M34.3323 218.852C28.6082 204.086 22.7773 195.744 13.3052 189.615L34.3323 218.852Z" fill="black" fill-opacity="0.01"/>
</g>
</g>
<g filter="url(#filter4_i)">
<path fill-rule="evenodd" clip-rule="evenodd" d="M37.0768 219.513C39.8256 213.511 44.9802 205.192 55.3452 197.647C61.451 193.201 65.575 179.22 66.6663 177.865C62.8496 178.037 55.7199 179.277 46.8989 186.087C37.6521 193.226 36.3902 212.954 37.0768 219.513Z" fill="url(#paint29_linear)"/>
</g>
<mask id="mask11" mask-type="alpha" maskUnits="userSpaceOnUse" x="36" y="177" width="31" height="43">
<path fill-rule="evenodd" clip-rule="evenodd" d="M37.0768 219.513C39.8256 213.511 44.9802 205.192 55.3452 197.647C61.451 193.201 65.575 179.22 66.6663 177.865C62.8496 178.037 55.7199 179.277 46.8989 186.087C37.6521 193.226 36.3902 212.954 37.0768 219.513Z" fill="white"/>
</mask>
<g mask="url(#mask11)">
<g style="mix-blend-mode:multiply" opacity="0.5">
<path fill-rule="evenodd" clip-rule="evenodd" d="M36.2773 219.499C40.0627 204.058 44.7879 195 53.4275 187.676L36.2773 219.499Z" fill="black" fill-opacity="0.01"/>
</g>
</g>
<path fill-rule="evenodd" clip-rule="evenodd" d="M69.8823 40.0371C90.3627 45.7811 105.288 46.636 114.659 42.6019C104.78 51.1948 96.9118 55.0168 91.0528 54.068C82.2642 52.6449 73.2579 42.6019 69.8823 40.0371Z" fill="#A1B8E3"/>
<path fill-rule="evenodd" clip-rule="evenodd" d="M44 23C59.7058 23 62.9825 23 80.8727 23C80.8727 42.2644 91.3384 49.2262 102.502 51.5774C89.4587 58.925 65.011 54.7661 58.088 48.6927C51.1649 42.6194 47.0449 40.2189 44 23Z" fill="url(#paint30_linear)"/>
<path fill-rule="evenodd" clip-rule="evenodd" d="M503.636 72.3027C504.86 73.5064 505.903 74.6735 506.765 75.8042C508.561 78.1578 509.097 81.4112 508.972 81.4933C508.291 81.9416 504.397 79.3557 503.636 77.2555C503.18 75.9964 503.18 74.3455 503.636 72.3027Z" fill="#A1B8E3"/>
<path fill-rule="evenodd" clip-rule="evenodd" d="M471 92.9531C479.952 86.8415 484.644 79.227 485.078 70.1098C487.429 69.7592 491.969 70.1966 503.361 72.1775C504.422 72.362 504.516 74.045 503.643 77.2265C507.484 78.6349 509.243 79.9767 508.922 81.2515C506.138 92.3045 502.456 97.3438 496.898 99.7119C490.522 100.521 481.889 98.2684 471 92.9531Z" fill="url(#paint31_linear)"/>
<path fill-rule="evenodd" clip-rule="evenodd" d="M607.302 3C604.08 11.9692 593.591 17.1462 583 19.1106C587.278 25.796 595.816 36.5399 603.233 44.298C603.586 44.6671 605.015 45.2451 605.391 45.5484C607.663 47.3819 610.096 46.3455 611.359 46.3278C617.605 44.3727 623.15 43.5336 628.348 38.8165C631.013 36.398 632.993 34.1779 633.622 33.1018C632.069 28.3611 624.379 24.2085 607.302 3Z" fill="url(#paint32_linear)"/>
<path fill-rule="evenodd" clip-rule="evenodd" d="M609.802 41.2959C609.921 43.9231 605.299 46.3289 602.658 43.7485C605.49 46.4615 608.009 46.8619 610.098 46.8552C612.188 46.8485 621.945 46.8724 633.583 33.1074C623.287 44.3168 615.482 47.1979 609.802 41.2959Z" fill="#FF9600"/>
<path opacity="0.5" fill-rule="evenodd" clip-rule="evenodd" d="M464.287 225.295L543.772 210.512L622.44 217.042L524.563 267.176" fill="url(#paint33_linear)"/>
<path fill-rule="evenodd" clip-rule="evenodd" d="M542.839 171.553L581.01 188.648V229.599L544.08 210.481L542.839 171.553Z" fill="url(#paint34_linear)"/>
<path fill-rule="evenodd" clip-rule="evenodd" d="M625.176 179.125L581.01 188.67V229.6L624.345 217.008L625.176 179.125Z" fill="url(#paint35_linear)"/>
<mask id="mask12" mask-type="alpha" maskUnits="userSpaceOnUse" x="581" y="179" width="45" height="51">
<path fill-rule="evenodd" clip-rule="evenodd" d="M625.176 179.125L581.01 188.67V229.6L624.345 217.008L625.176 179.125Z" fill="white"/>
</mask>
<g mask="url(#mask12)">
</g>
<path d="M585.269 162.404L625.176 178.966L580.975 188.754L542.839 171.395L585.269 162.404Z" fill="#E4EDFC"/>
<path fill-rule="evenodd" clip-rule="evenodd" d="M536.844 130.541L575.015 147.636V188.587L538.085 169.47L536.844 130.541Z" fill="url(#paint36_linear)"/>
<path fill-rule="evenodd" clip-rule="evenodd" d="M619.181 138.113L575.015 147.659V188.588L618.35 175.996L619.181 138.113Z" fill="url(#paint37_linear)"/>
<mask id="mask13" mask-type="alpha" maskUnits="userSpaceOnUse" x="575" y="138" width="45" height="51">
<path fill-rule="evenodd" clip-rule="evenodd" d="M619.181 138.113L575.015 147.659V188.588L618.35 175.996L619.181 138.113Z" fill="white"/>
</mask>
<g mask="url(#mask13)">
</g>
<path d="M579.274 121.392L619.181 137.954L574.98 147.742L536.844 130.383L579.274 121.392Z" fill="#E4EDFC"/>
<path opacity="0.5" fill-rule="evenodd" clip-rule="evenodd" d="M506.245 243.906L585.729 229.123L664.397 235.654L566.521 285.787" fill="url(#paint38_linear)"/>
<path fill-rule="evenodd" clip-rule="evenodd" d="M584.796 190.164L622.968 207.259V248.21L586.038 229.093L584.796 190.164Z" fill="url(#paint39_linear)"/>
<path fill-rule="evenodd" clip-rule="evenodd" d="M667.133 197.734L622.968 207.28V248.209L666.302 235.617L667.133 197.734Z" fill="url(#paint40_linear)"/>
<mask id="mask14" mask-type="alpha" maskUnits="userSpaceOnUse" x="622" y="197" width="46" height="52">
<path fill-rule="evenodd" clip-rule="evenodd" d="M667.133 197.734L622.968 207.28V248.209L666.302 235.617L667.133 197.734Z" fill="white"/>
</mask>
<g mask="url(#mask14)">
</g>
<path d="M627.227 181.015L667.134 197.577L622.933 207.365L584.797 190.006L627.227 181.015Z" fill="#E4EDFC"/>
<path opacity="0.5" fill-rule="evenodd" clip-rule="evenodd" d="M391 246.455L470.485 231.672L549.153 238.203L451.276 288.336" fill="url(#paint41_linear)"/>
<g filter="url(#filter5_d)">
<path fill-rule="evenodd" clip-rule="evenodd" d="M484.379 195.078C483.334 195.078 482.486 195.926 482.486 196.971V207.142C482.486 208.187 483.334 209.035 484.379 209.035H489.361L491.551 211.225C492.29 211.964 493.489 211.964 494.228 211.225L496.418 209.035H501.73C502.775 209.035 503.623 208.187 503.623 207.142V196.971C503.623 195.926 502.775 195.078 501.73 195.078H484.379Z" fill="#F05971"/>
<path fill-rule="evenodd" clip-rule="evenodd" d="M493.082 206.394C484.539 201.664 490.718 195.784 493.082 199.744C495.447 195.784 501.626 201.664 493.082 206.394Z" fill="white"/>
</g>
<path fill-rule="evenodd" clip-rule="evenodd" d="M470.256 193.153C469.3 193.575 468.868 194.693 469.29 195.649L473.404 204.951C473.826 205.907 474.944 206.34 475.9 205.917L480.456 203.902L483.345 205.02C484.32 205.397 485.416 204.912 485.793 203.937L486.911 201.048L491.769 198.9C492.725 198.478 493.157 197.36 492.734 196.404L488.621 187.102C488.199 186.145 487.081 185.713 486.125 186.136L470.256 193.153Z" fill="url(#paint42_linear)"/>
<g filter="url(#filter6_d)">
<path fill-rule="evenodd" clip-rule="evenodd" d="M523.497 199.494C522.452 199.494 521.604 200.342 521.604 201.387V211.558C521.604 212.603 522.452 213.451 523.497 213.451H528.479L530.669 215.641C531.408 216.38 532.607 216.38 533.346 215.641L535.536 213.451H540.848C541.893 213.451 542.741 212.603 542.741 211.558V201.387C542.741 200.342 541.893 199.494 540.848 199.494H523.497Z" fill="url(#paint43_linear)"/>
<path fill-rule="evenodd" clip-rule="evenodd" d="M532.199 210.808C523.656 206.078 529.835 200.198 532.199 204.158C534.564 200.198 540.743 206.078 532.199 210.808Z" fill="white"/>
</g>
<g filter="url(#filter7_d)">
<path fill-rule="evenodd" clip-rule="evenodd" d="M496.998 196.656C495.953 196.656 495.105 197.504 495.105 198.549V208.72C495.105 209.765 495.953 210.613 496.998 210.613H501.98L504.17 212.803C504.909 213.542 506.108 213.542 506.847 212.803L509.037 210.613H514.349C515.394 210.613 516.242 209.765 516.242 208.72V198.549C516.242 197.504 515.394 196.656 514.349 196.656H496.998Z" fill="url(#paint44_linear)"/>
<path fill-rule="evenodd" clip-rule="evenodd" d="M505.701 207.97C497.158 203.24 503.337 197.36 505.701 201.32C508.066 197.36 514.245 203.24 505.701 207.97Z" fill="white"/>
</g>
<path fill-rule="evenodd" clip-rule="evenodd" d="M534.146 187.836C533.127 187.601 532.111 188.236 531.876 189.254L529.588 199.165C529.353 200.183 529.988 201.2 531.006 201.435L535.86 202.555L537.502 205.182C538.056 206.069 539.224 206.339 540.11 205.785L542.737 204.143L547.913 205.338C548.931 205.573 549.947 204.938 550.183 203.919L552.471 194.009C552.706 192.991 552.071 191.974 551.052 191.739L534.146 187.836Z" fill="url(#paint45_linear)"/>
<path fill-rule="evenodd" clip-rule="evenodd" d="M491.244 183.715C490.226 183.48 489.21 184.115 488.975 185.133L486.688 195.044C486.453 196.063 487.088 197.079 488.107 197.314L492.961 198.434L494.603 201.061C495.157 201.947 496.324 202.217 497.211 201.663L499.838 200.021L505.013 201.215C506.032 201.45 507.048 200.815 507.283 199.796L509.57 189.886C509.805 188.867 509.17 187.851 508.151 187.616L491.244 183.715Z" fill="url(#paint46_linear)"/>
<g filter="url(#filter8_d)">
<path fill-rule="evenodd" clip-rule="evenodd" d="M489.082 198.638C488.053 198.82 487.365 199.801 487.547 200.831L489.313 210.847C489.494 211.877 490.476 212.564 491.506 212.383L496.412 211.518L498.949 213.294C499.805 213.894 500.986 213.686 501.585 212.83L503.362 210.292L508.593 209.37C509.622 209.188 510.31 208.207 510.128 207.177L508.362 197.161C508.18 196.131 507.199 195.444 506.169 195.625L489.082 198.638Z" fill="url(#paint47_linear)"/>
</g>
<path fill-rule="evenodd" clip-rule="evenodd" d="M521.748 177.9C520.829 177.403 519.68 177.745 519.183 178.665L514.346 187.612C513.849 188.532 514.191 189.68 515.111 190.177L519.493 192.547L520.378 195.515C520.677 196.517 521.731 197.087 522.733 196.788L525.701 195.903L530.374 198.429C531.293 198.926 532.442 198.584 532.939 197.664L537.776 188.717C538.273 187.798 537.931 186.649 537.011 186.152L521.748 177.9Z" fill="url(#paint48_linear)"/>
<g filter="url(#filter9_d)">
<path fill-rule="evenodd" clip-rule="evenodd" d="M508.015 187.127C506.97 187.109 506.108 187.941 506.09 188.986L505.912 199.156C505.894 200.201 506.726 201.063 507.772 201.081L512.752 201.168L514.904 203.396C515.63 204.148 516.829 204.169 517.581 203.443L519.809 201.291L525.12 201.384C526.165 201.402 527.027 200.57 527.045 199.525L527.223 189.355C527.241 188.31 526.408 187.448 525.363 187.43L508.015 187.127Z" fill="url(#paint49_linear)"/>
</g>
<g filter="url(#filter10_d)">
<path fill-rule="evenodd" clip-rule="evenodd" d="M505.414 196.06C504.371 195.987 503.467 196.773 503.394 197.816L502.684 207.962C502.611 209.005 503.398 209.909 504.441 209.982L509.41 210.33L511.442 212.668C512.128 213.457 513.324 213.54 514.113 212.854L516.45 210.822L521.749 211.193C522.792 211.266 523.696 210.479 523.769 209.437L524.479 199.29C524.552 198.248 523.765 197.343 522.723 197.27L505.414 196.06Z" fill="url(#paint50_linear)"/>
</g>
<g filter="url(#filter11_d)">
<path fill-rule="evenodd" clip-rule="evenodd" d="M519.548 199.968C518.593 200.394 518.164 201.512 518.589 202.467L522.726 211.759C523.151 212.714 524.27 213.144 525.225 212.718L541.075 205.661C542.03 205.236 542.46 204.117 542.035 203.162L537.898 193.871C537.473 192.916 536.354 192.486 535.399 192.911L519.548 199.968Z" fill="url(#paint51_linear)"/>
</g>
<path fill-rule="evenodd" clip-rule="evenodd" d="M469.552 192.24L507.724 209.335V250.286L470.794 231.169L469.552 192.24Z" fill="url(#paint52_linear)"/>
<path fill-rule="evenodd" clip-rule="evenodd" d="M551.889 199.811L507.723 209.356V250.285L551.058 237.693L551.889 199.811Z" fill="url(#paint53_linear)"/>
<mask id="mask15" mask-type="alpha" maskUnits="userSpaceOnUse" x="507" y="199" width="45" height="52">
<path fill-rule="evenodd" clip-rule="evenodd" d="M551.889 199.811L507.723 209.356V250.285L551.058 237.693L551.889 199.811Z" fill="white"/>
</mask>
<g mask="url(#mask15)">
<g opacity="0.218583">
<path fill-rule="evenodd" clip-rule="evenodd" d="M518.174 201.695L559.126 240.556L552.954 192.51L518.174 201.695Z" fill="url(#paint54_linear)" style="mix-blend-mode:multiply"/>
</g>
</g>
<path fill-rule="evenodd" clip-rule="evenodd" d="M469.619 191.924L454.41 207.65L492.122 226.31L507.408 209.23L469.619 191.924Z" fill="url(#paint55_linear)"/>
<path fill-rule="evenodd" clip-rule="evenodd" d="M551.492 199.811L567.662 216.811L523.971 226.625L507.723 209.219L551.492 199.811Z" fill="url(#paint56_linear)"/>
<line x1="612.07" y1="186.822" x2="641.963" y2="200.108" stroke="white"/>
<line x1="562.254" y1="127.04" x2="592.978" y2="141.156" stroke="white"/>
</g>
<defs>
<filter id="filter0_d" x="110.629" y="-129.311" width="437.324" height="486.358" filterUnits="userSpaceOnUse" color-interpolation-filters="sRGB">
<feFlood flood-opacity="0" result="BackgroundImageFix"/>
<feColorMatrix in="SourceAlpha" type="matrix" values="0 0 0 0 0 0 0 0 0 0 0 0 0 0 0 0 0 0 127 0"/>
<feOffset/>
<feGaussianBlur stdDeviation="81"/>
<feColorMatrix type="matrix" values="0 0 0 0 1 0 0 0 0 1 0 0 0 0 1 0 0 0 1 0"/>
<feBlend mode="normal" in2="BackgroundImageFix" result="effect1_dropShadow"/>
<feBlend mode="normal" in="SourceGraphic" in2="effect1_dropShadow" result="shape"/>
</filter>
<filter id="filter1_d" x="279.867" y="74.9824" width="95.4444" height="39.055" filterUnits="userSpaceOnUse" color-interpolation-filters="sRGB">
<feFlood flood-opacity="0" result="BackgroundImageFix"/>
<feColorMatrix in="SourceAlpha" type="matrix" values="0 0 0 0 0 0 0 0 0 0 0 0 0 0 0 0 0 0 127 0"/>
<feOffset dx="8" dy="8"/>
<feColorMatrix type="matrix" values="0 0 0 0 1 0 0 0 0 0.706613 0 0 0 0 0.0893703 0 0 0 0.173347 0"/>
<feBlend mode="normal" in2="BackgroundImageFix" result="effect1_dropShadow"/>
<feBlend mode="normal" in="SourceGraphic" in2="effect1_dropShadow" result="shape"/>
</filter>
<filter id="filter2_i" x="14.6636" y="143" width="24.2742" height="67.7306" filterUnits="userSpaceOnUse" color-interpolation-filters="sRGB">
<feFlood flood-opacity="0" result="BackgroundImageFix"/>
<feBlend mode="normal" in="SourceGraphic" in2="BackgroundImageFix" result="shape"/>
<feColorMatrix in="SourceAlpha" type="matrix" values="0 0 0 0 0 0 0 0 0 0 0 0 0 0 0 0 0 0 127 0" result="hardAlpha"/>
<feOffset dy="-10"/>
<feGaussianBlur stdDeviation="11"/>
<feComposite in2="hardAlpha" operator="arithmetic" k2="-1" k3="1"/>
<feColorMatrix type="matrix" values="0 0 0 0 0.221483 0 0 0 0 0.77854 0 0 0 0 0.610041 0 0 0 1 0"/>
<feBlend mode="normal" in2="shape" result="effect1_innerShadow"/>
</filter>
<filter id="filter3_i" x="0" y="171.312" width="34.5726" height="47.4341" filterUnits="userSpaceOnUse" color-interpolation-filters="sRGB">
<feFlood flood-opacity="0" result="BackgroundImageFix"/>
<feBlend mode="normal" in="SourceGraphic" in2="BackgroundImageFix" result="shape"/>
<feColorMatrix in="SourceAlpha" type="matrix" values="0 0 0 0 0 0 0 0 0 0 0 0 0 0 0 0 0 0 127 0" result="hardAlpha"/>
<feOffset dy="-10"/>
<feGaussianBlur stdDeviation="11"/>
<feComposite in2="hardAlpha" operator="arithmetic" k2="-1" k3="1"/>
<feColorMatrix type="matrix" values="0 0 0 0 0.221483 0 0 0 0 0.77854 0 0 0 0 0.610041 0 0 0 1 0"/>
<feBlend mode="normal" in2="shape" result="effect1_innerShadow"/>
</filter>
<filter id="filter4_i" x="36.9194" y="167.865" width="29.7469" height="51.6479" filterUnits="userSpaceOnUse" color-interpolation-filters="sRGB">
<feFlood flood-opacity="0" result="BackgroundImageFix"/>
<feBlend mode="normal" in="SourceGraphic" in2="BackgroundImageFix" result="shape"/>
<feColorMatrix in="SourceAlpha" type="matrix" values="0 0 0 0 0 0 0 0 0 0 0 0 0 0 0 0 0 0 127 0" result="hardAlpha"/>
<feOffset dy="-10"/>
<feGaussianBlur stdDeviation="11"/>
<feComposite in2="hardAlpha" operator="arithmetic" k2="-1" k3="1"/>
<feColorMatrix type="matrix" values="0 0 0 0 0.221483 0 0 0 0 0.77854 0 0 0 0 0.610041 0 0 0 1 0"/>
<feBlend mode="normal" in2="shape" result="effect1_innerShadow"/>
</filter>
<filter id="filter5_d" x="462.486" y="178.078" width="59.1363" height="54.7014" filterUnits="userSpaceOnUse" color-interpolation-filters="sRGB">
<feFlood flood-opacity="0" result="BackgroundImageFix"/>
<feColorMatrix in="SourceAlpha" type="matrix" values="0 0 0 0 0 0 0 0 0 0 0 0 0 0 0 0 0 0 127 0"/>
<feOffset dx="-1" dy="2"/>
<feGaussianBlur stdDeviation="9.5"/>
<feColorMatrix type="matrix" values="0 0 0 0 0.563271 0 0 0 0 0.0744316 0 0 0 0 0.0744316 0 0 0 0.5 0"/>
<feBlend mode="normal" in2="BackgroundImageFix" result="effect1_dropShadow"/>
<feBlend mode="normal" in="SourceGraphic" in2="effect1_dropShadow" result="shape"/>
</filter>
<filter id="filter6_d" x="501.604" y="182.494" width="59.1363" height="54.7014" filterUnits="userSpaceOnUse" color-interpolation-filters="sRGB">
<feFlood flood-opacity="0" result="BackgroundImageFix"/>
<feColorMatrix in="SourceAlpha" type="matrix" values="0 0 0 0 0 0 0 0 0 0 0 0 0 0 0 0 0 0 127 0"/>
<feOffset dx="-1" dy="2"/>
<feGaussianBlur stdDeviation="9.5"/>
<feColorMatrix type="matrix" values="0 0 0 0 0.563271 0 0 0 0 0.0744316 0 0 0 0 0.0744316 0 0 0 0.5 0"/>
<feBlend mode="normal" in2="BackgroundImageFix" result="effect1_dropShadow"/>
<feBlend mode="normal" in="SourceGraphic" in2="effect1_dropShadow" result="shape"/>
</filter>
<filter id="filter7_d" x="475.105" y="179.656" width="59.1363" height="54.7014" filterUnits="userSpaceOnUse" color-interpolation-filters="sRGB">
<feFlood flood-opacity="0" result="BackgroundImageFix"/>
<feColorMatrix in="SourceAlpha" type="matrix" values="0 0 0 0 0 0 0 0 0 0 0 0 0 0 0 0 0 0 127 0"/>
<feOffset dx="-1" dy="2"/>
<feGaussianBlur stdDeviation="9.5"/>
<feColorMatrix type="matrix" values="0 0 0 0 0.563271 0 0 0 0 0.0744316 0 0 0 0 0.0744316 0 0 0 0.5 0"/>
<feBlend mode="normal" in2="BackgroundImageFix" result="effect1_dropShadow"/>
<feBlend mode="normal" in="SourceGraphic" in2="effect1_dropShadow" result="shape"/>
</filter>
<filter id="filter8_d" x="467.218" y="178.297" width="61.7154" height="58.1179" filterUnits="userSpaceOnUse" color-interpolation-filters="sRGB">
<feFlood flood-opacity="0" result="BackgroundImageFix"/>
<feColorMatrix in="SourceAlpha" type="matrix" values="0 0 0 0 0 0 0 0 0 0 0 0 0 0 0 0 0 0 127 0"/>
<feOffset dx="-1" dy="2"/>
<feGaussianBlur stdDeviation="9.5"/>
<feColorMatrix type="matrix" values="0 0 0 0 0.563271 0 0 0 0 0.0744316 0 0 0 0 0.0744316 0 0 0 0.5 0"/>
<feBlend mode="normal" in2="BackgroundImageFix" result="effect1_dropShadow"/>
<feBlend mode="normal" in="SourceGraphic" in2="effect1_dropShadow" result="shape"/>
</filter>
<filter id="filter9_d" x="485.831" y="170.094" width="59.4246" height="55.0677" filterUnits="userSpaceOnUse" color-interpolation-filters="sRGB">
<feFlood flood-opacity="0" result="BackgroundImageFix"/>
<feColorMatrix in="SourceAlpha" type="matrix" values="0 0 0 0 0 0 0 0 0 0 0 0 0 0 0 0 0 0 127 0"/>
<feOffset dx="-1" dy="2"/>
<feGaussianBlur stdDeviation="9.5"/>
<feColorMatrix type="matrix" values="0 0 0 0 0.563271 0 0 0 0 0.0744316 0 0 0 0 0.0744316 0 0 0 0.5 0"/>
<feBlend mode="normal" in2="BackgroundImageFix" result="effect1_dropShadow"/>
<feBlend mode="normal" in="SourceGraphic" in2="effect1_dropShadow" result="shape"/>
</filter>
<filter id="filter10_d" x="482.361" y="178.928" width="60.2499" height="56.1351" filterUnits="userSpaceOnUse" color-interpolation-filters="sRGB">
<feFlood flood-opacity="0" result="BackgroundImageFix"/>
<feColorMatrix in="SourceAlpha" type="matrix" values="0 0 0 0 0 0 0 0 0 0 0 0 0 0 0 0 0 0 127 0"/>
<feOffset dx="-1" dy="2"/>
<feGaussianBlur stdDeviation="9.5"/>
<feColorMatrix type="matrix" values="0 0 0 0 0.563271 0 0 0 0 0.0744316 0 0 0 0 0.0744316 0 0 0 0.5 0"/>
<feBlend mode="normal" in2="BackgroundImageFix" result="effect1_dropShadow"/>
<feBlend mode="normal" in="SourceGraphic" in2="effect1_dropShadow" result="shape"/>
</filter>
<filter id="filter11_d" x="497.819" y="175.141" width="62.9857" height="59.3469" filterUnits="userSpaceOnUse" color-interpolation-filters="sRGB">
<feFlood flood-opacity="0" result="BackgroundImageFix"/>
<feColorMatrix in="SourceAlpha" type="matrix" values="0 0 0 0 0 0 0 0 0 0 0 0 0 0 0 0 0 0 127 0"/>
<feOffset dx="-1" dy="2"/>
<feGaussianBlur stdDeviation="9.5"/>
<feColorMatrix type="matrix" values="0 0 0 0 0.563271 0 0 0 0 0.0744316 0 0 0 0 0.0744316 0 0 0 0.5 0"/>
<feBlend mode="normal" in2="BackgroundImageFix" result="effect1_dropShadow"/>
<feBlend mode="normal" in="SourceGraphic" in2="effect1_dropShadow" result="shape"/>
</filter>
<linearGradient id="paint0_linear" x1="204.992" y1="83.9027" x2="283.818" y2="121.954" gradientUnits="userSpaceOnUse">
<stop stop-color="#CFDDF3"/>
<stop offset="1" stop-color="#7FA1E0"/>
</linearGradient>
<linearGradient id="paint1_linear" x1="247.612" y1="119.136" x2="247.612" y2="145.669" gradientUnits="userSpaceOnUse">
<stop stop-color="#CFDDF3"/>
<stop offset="1" stop-color="#A1B8E3"/>
</linearGradient>
<linearGradient id="paint2_linear" x1="238.131" y1="104.04" x2="238.131" y2="119.923" gradientUnits="userSpaceOnUse">
<stop stop-color="#CFDDF3"/>
<stop offset="1" stop-color="#A1B8E3"/>
</linearGradient>
<linearGradient id="paint3_linear" x1="231.16" y1="76.5226" x2="231.16" y2="210.145" gradientUnits="userSpaceOnUse">
<stop stop-color="#CFDDF3"/>
<stop offset="1" stop-color="#A1B8E3"/>
</linearGradient>
<linearGradient id="paint4_linear" x1="441.241" y1="-29.0192" x2="306.015" y2="3.7699" gradientUnits="userSpaceOnUse">
<stop stop-color="#47689B"/>
<stop offset="1" stop-color="#223762"/>
</linearGradient>
<linearGradient id="paint5_linear" x1="344.537" y1="-73.2059" x2="172.852" y2="5.75998" gradientUnits="userSpaceOnUse">
<stop stop-color="#47689B"/>
<stop offset="1" stop-color="#223762"/>
</linearGradient>
<linearGradient id="paint6_linear" x1="307.115" y1="22.3973" x2="393.307" y2="22.3974" gradientUnits="userSpaceOnUse">
<stop stop-color="#365383"/>
<stop offset="1" stop-color="#1C2C4C"/>
</linearGradient>
<linearGradient id="paint7_linear" x1="332.992" y1="236.13" x2="349.682" y2="212.529" gradientUnits="userSpaceOnUse">
<stop stop-color="#365383"/>
<stop offset="1" stop-color="#1C2C4C"/>
</linearGradient>
<linearGradient id="paint8_linear" x1="397.453" y1="105.309" x2="393.784" y2="58.089" gradientUnits="userSpaceOnUse">
<stop stop-color="#EDF3FD"/>
<stop offset="1" stop-color="#D6E3FA"/>
</linearGradient>
<linearGradient id="paint9_linear" x1="397.453" y1="184.853" x2="393.784" y2="137.634" gradientUnits="userSpaceOnUse">
<stop stop-color="#EDF3FD"/>
<stop offset="1" stop-color="#D6E3FA"/>
</linearGradient>
<linearGradient id="paint10_linear" x1="397.453" y1="224.625" x2="393.784" y2="177.405" gradientUnits="userSpaceOnUse">
<stop stop-color="#EDF3FD"/>
<stop offset="1" stop-color="#D6E3FA"/>
</linearGradient>
<linearGradient id="paint11_linear" x1="412.761" y1="119.674" x2="405.21" y2="74.4082" gradientUnits="userSpaceOnUse">
<stop stop-color="#FFE883"/>
<stop offset="1" stop-color="#FECC4C"/>
</linearGradient>
<linearGradient id="paint12_linear" x1="150.04" y1="151.658" x2="157.495" y2="140.184" gradientUnits="userSpaceOnUse">
<stop stop-color="#70B8F9"/>
<stop offset="1" stop-color="#3D82F0"/>
</linearGradient>
<linearGradient id="paint13_linear" x1="152.234" y1="266.951" x2="161.368" y2="252.978" gradientUnits="userSpaceOnUse">
<stop stop-color="#47689B"/>
<stop offset="1" stop-color="#223762"/>
</linearGradient>
<linearGradient id="paint14_linear" x1="208.61" y1="272.816" x2="215.973" y2="257.833" gradientUnits="userSpaceOnUse">
<stop stop-color="#47689B"/>
<stop offset="1" stop-color="#223762"/>
</linearGradient>
<linearGradient id="paint15_linear" x1="184.523" y1="279.314" x2="228.28" y2="179.796" gradientUnits="userSpaceOnUse">
<stop stop-color="#CFDDF3"/>
<stop offset="1" stop-color="#A1B8E3"/>
</linearGradient>
<linearGradient id="paint16_linear" x1="205.176" y1="163.787" x2="204.703" y2="155.397" gradientUnits="userSpaceOnUse">
<stop stop-color="#CFDDF3" stop-opacity="0.477723"/>
<stop offset="1" stop-color="#A1B8E3"/>
</linearGradient>
<linearGradient id="paint17_linear" x1="181.923" y1="52.4519" x2="165.995" y2="63.1964" gradientUnits="userSpaceOnUse">
<stop stop-color="#70B8F9"/>
<stop offset="1" stop-color="#3D82F0"/>
</linearGradient>
<linearGradient id="paint18_linear" x1="153.544" y1="52.3003" x2="167.811" y2="71.1096" gradientUnits="userSpaceOnUse">
<stop stop-color="#164898"/>
<stop offset="1" stop-color="#223762"/>
</linearGradient>
<linearGradient id="paint19_linear" x1="139.494" y1="126.152" x2="153.814" y2="124.272" gradientUnits="userSpaceOnUse">
<stop stop-color="#EDF3FD"/>
<stop offset="1" stop-color="#D6E3FA"/>
</linearGradient>
<linearGradient id="paint20_linear" x1="192.888" y1="142.021" x2="202.402" y2="135.955" gradientUnits="userSpaceOnUse">
<stop stop-color="#CFDDF3"/>
<stop offset="1" stop-color="#A1B8E3"/>
</linearGradient>
<linearGradient id="paint21_linear" x1="211.884" y1="99.2669" x2="211.752" y2="90.3366" gradientUnits="userSpaceOnUse">
<stop stop-color="#CFDDF3"/>
<stop offset="1" stop-color="#A1B8E3"/>
</linearGradient>
<linearGradient id="paint22_linear" x1="262.833" y1="151.543" x2="241.842" y2="67.3554" gradientUnits="userSpaceOnUse">
<stop stop-color="#70B8F9"/>
<stop offset="1" stop-color="#3D82F0"/>
</linearGradient>
<linearGradient id="paint23_linear" x1="172.998" y1="103.428" x2="182.455" y2="122.818" gradientUnits="userSpaceOnUse">
<stop stop-color="#D6E3FA"/>
<stop offset="1" stop-color="#E3EDFE"/>
</linearGradient>
<linearGradient id="paint24_linear" x1="50.9426" y1="233.128" x2="12.1401" y2="233.128" gradientUnits="userSpaceOnUse">
<stop stop-color="#D9E5F6" stop-opacity="0.712636"/>
<stop offset="1" stop-color="#B2C6EA"/>
</linearGradient>
<linearGradient id="paint25_linear" x1="51.7198" y1="252.352" x2="58.0711" y2="228.089" gradientUnits="userSpaceOnUse">
<stop stop-color="#ACC5E9"/>
<stop offset="0.627469" stop-color="#D3E3FB"/>
<stop offset="1" stop-color="#EAF2FF"/>
</linearGradient>
<linearGradient id="paint26_linear" x1="16.8742" y1="207.21" x2="15.8663" y2="223.369" gradientUnits="userSpaceOnUse">
<stop stop-color="#86A8D9"/>
<stop offset="1" stop-color="#BCD0F2"/>
</linearGradient>
<linearGradient id="paint27_linear" x1="10.5455" y1="168.66" x2="44.4511" y2="204.162" gradientUnits="userSpaceOnUse">
<stop stop-color="#B1FFBE"/>
<stop offset="0.444207" stop-color="#5CDB8E"/>
<stop offset="1" stop-color="#149654"/>
</linearGradient>
<linearGradient id="paint28_linear" x1="10.0519" y1="179.445" x2="14.927" y2="217.119" gradientUnits="userSpaceOnUse">
<stop stop-color="#B1FFBE"/>
<stop offset="0.444207" stop-color="#5CDB8E"/>
<stop offset="1" stop-color="#149654"/>
</linearGradient>
<linearGradient id="paint29_linear" x1="31.6631" y1="188.889" x2="53.9913" y2="223.933" gradientUnits="userSpaceOnUse">
<stop stop-color="#B1FFBE"/>
<stop offset="0.444207" stop-color="#5CDB8E"/>
<stop offset="1" stop-color="#149654"/>
</linearGradient>
<linearGradient id="paint30_linear" x1="72.1109" y1="66.8606" x2="84.6333" y2="42.3593" gradientUnits="userSpaceOnUse">
<stop stop-color="#ACC1E3"/>
<stop offset="1" stop-color="#D6E3FA"/>
</linearGradient>
<linearGradient id="paint31_linear" x1="487.702" y1="109.234" x2="504.18" y2="92.4225" gradientUnits="userSpaceOnUse">
<stop stop-color="#ACC1E3"/>
<stop offset="1" stop-color="#D6E3FA"/>
</linearGradient>
<linearGradient id="paint32_linear" x1="599.518" y1="-2.89398" x2="589.889" y2="26.3578" gradientUnits="userSpaceOnUse">
<stop stop-color="#FF9D61"/>
<stop offset="1" stop-color="#FFD873"/>
</linearGradient>
<linearGradient id="paint33_linear" x1="486.286" y1="202.852" x2="484.249" y2="255.538" gradientUnits="userSpaceOnUse">
<stop stop-color="#9CB4E0"/>
<stop offset="1" stop-color="white" stop-opacity="0.01"/>
</linearGradient>
<linearGradient id="paint34_linear" x1="527.157" y1="185.473" x2="569.954" y2="224.053" gradientUnits="userSpaceOnUse">
<stop stop-color="#85A6DB"/>
<stop offset="1" stop-color="#C6D4EE"/>
</linearGradient>
<linearGradient id="paint35_linear" x1="634.837" y1="205.858" x2="598.001" y2="242.953" gradientUnits="userSpaceOnUse">
<stop stop-color="#EDF3FD"/>
<stop offset="1" stop-color="#D0DAEA"/>
</linearGradient>
<linearGradient id="paint36_linear" x1="521.161" y1="144.461" x2="563.959" y2="183.041" gradientUnits="userSpaceOnUse">
<stop stop-color="#85A6DB"/>
<stop offset="1" stop-color="#C6D4EE"/>
</linearGradient>
<linearGradient id="paint37_linear" x1="628.842" y1="164.846" x2="592.006" y2="201.941" gradientUnits="userSpaceOnUse">
<stop stop-color="#EDF3FD"/>
<stop offset="1" stop-color="#D0DAEA"/>
</linearGradient>
<linearGradient id="paint38_linear" x1="528.244" y1="221.463" x2="526.207" y2="274.149" gradientUnits="userSpaceOnUse">
<stop stop-color="#9CB4E0"/>
<stop offset="1" stop-color="white" stop-opacity="0.01"/>
</linearGradient>
<linearGradient id="paint39_linear" x1="569.114" y1="204.084" x2="611.911" y2="242.664" gradientUnits="userSpaceOnUse">
<stop stop-color="#85A6DB"/>
<stop offset="1" stop-color="#C6D4EE"/>
</linearGradient>
<linearGradient id="paint40_linear" x1="676.794" y1="224.467" x2="639.959" y2="261.562" gradientUnits="userSpaceOnUse">
<stop stop-color="#EDF3FD"/>
<stop offset="1" stop-color="#D0DAEA"/>
</linearGradient>
<linearGradient id="paint41_linear" x1="412.999" y1="224.012" x2="410.962" y2="276.698" gradientUnits="userSpaceOnUse">
<stop stop-color="#9CB4E0"/>
<stop offset="1" stop-color="white" stop-opacity="0.01"/>
</linearGradient>
<linearGradient id="paint42_linear" x1="489.932" y1="186.03" x2="480.817" y2="202.656" gradientUnits="userSpaceOnUse">
<stop stop-color="#FF6B67"/>
<stop offset="1" stop-color="#F05971"/>
</linearGradient>
<linearGradient id="paint43_linear" x1="544.373" y1="200.937" x2="529.313" y2="212.457" gradientUnits="userSpaceOnUse">
<stop stop-color="#FF6B67"/>
<stop offset="1" stop-color="#F05971"/>
</linearGradient>
<linearGradient id="paint44_linear" x1="517.874" y1="198.099" x2="502.814" y2="209.619" gradientUnits="userSpaceOnUse">
<stop stop-color="#FF6B67"/>
<stop offset="1" stop-color="#F05971"/>
</linearGradient>
<linearGradient id="paint45_linear" x1="554.162" y1="193.938" x2="536.897" y2="201.775" gradientUnits="userSpaceOnUse">
<stop stop-color="#FF6B67"/>
<stop offset="1" stop-color="#F05971"/>
</linearGradient>
<linearGradient id="paint46_linear" x1="511.262" y1="189.814" x2="493.997" y2="197.653" gradientUnits="userSpaceOnUse">
<stop stop-color="#FF6B67"/>
<stop offset="1" stop-color="#F05971"/>
</linearGradient>
<linearGradient id="paint47_linear" x1="509.891" y1="196.434" x2="497.06" y2="210.394" gradientUnits="userSpaceOnUse">
<stop stop-color="#FF6B67"/>
<stop offset="1" stop-color="#F05971"/>
</linearGradient>
<linearGradient id="paint48_linear" x1="539.426" y1="189.098" x2="520.699" y2="192.069" gradientUnits="userSpaceOnUse">
<stop stop-color="#FF6B67"/>
<stop offset="1" stop-color="#F05971"/>
</linearGradient>
<linearGradient id="paint49_linear" x1="528.863" y1="188.934" x2="513.604" y2="200.189" gradientUnits="userSpaceOnUse">
<stop stop-color="#FF6B67"/>
<stop offset="1" stop-color="#F05971"/>
</linearGradient>
<linearGradient id="paint50_linear" x1="526.139" y1="198.955" x2="510.311" y2="209.397" gradientUnits="userSpaceOnUse">
<stop stop-color="#FF6B67"/>
<stop offset="1" stop-color="#F05971"/>
</linearGradient>
<linearGradient id="paint51_linear" x1="538.26" y1="189.641" x2="529.187" y2="206.29" gradientUnits="userSpaceOnUse">
<stop stop-color="#FF6B67"/>
<stop offset="1" stop-color="#F05971"/>
</linearGradient>
<linearGradient id="paint52_linear" x1="453.87" y1="206.16" x2="496.667" y2="244.741" gradientUnits="userSpaceOnUse">
<stop stop-color="#85A6DB"/>
<stop offset="1" stop-color="#C6D4EE"/>
</linearGradient>
<linearGradient id="paint53_linear" x1="561.55" y1="226.543" x2="524.714" y2="263.638" gradientUnits="userSpaceOnUse">
<stop stop-color="#EDF3FD"/>
<stop offset="1" stop-color="#D0DAEA"/>
</linearGradient>
<linearGradient id="paint54_linear" x1="543.445" y1="207.714" x2="525.163" y2="228.938" gradientUnits="userSpaceOnUse">
<stop stop-color="#B4C9E7"/>
<stop offset="1" stop-color="#BECFEC" stop-opacity="0.101789"/>
</linearGradient>
<linearGradient id="paint55_linear" x1="454.41" y1="191.924" x2="454.41" y2="226.31" gradientUnits="userSpaceOnUse">
<stop stop-color="#EDF3FD"/>
<stop offset="1" stop-color="#D6E3FA"/>
</linearGradient>
<linearGradient id="paint56_linear" x1="581.126" y1="199.596" x2="577.028" y2="240.036" gradientUnits="userSpaceOnUse">
<stop stop-color="#E5ECF8"/>
<stop offset="1" stop-color="#C6D4EE"/>
</linearGradient>
</defs>
</svg>
