<svg width="751" height="504" viewBox="0 0 751 504" fill="none" xmlns="http://www.w3.org/2000/svg">
<mask id="mask0" mask-type="alpha" maskUnits="userSpaceOnUse" x="0" y="0" width="751" height="504">
<rect width="751" height="504" fill="#C4C4C4"/>
</mask>
<g mask="url(#mask0)">
<g opacity="0.3">
<path fill-rule="evenodd" clip-rule="evenodd" d="M253.845 272.198C248.657 276.787 228.929 267.609 221.107 253.363C213.285 239.116 227.794 234.045 208.059 211.26C188.323 188.475 175.659 179.749 187.636 142.192C199.613 104.635 183.067 83.7622 204.929 73.9637C226.792 64.1653 239.382 96.6853 236.874 125.29C234.367 153.895 239.496 159.823 260.88 156.859C282.264 153.895 264.235 195.889 264.235 205.055C264.235 214.222 277.202 231.247 274.512 244.057C271.822 256.866 259.032 267.609 253.845 272.198Z" fill="url(#paint0_linear)"/>
<path fill-rule="evenodd" clip-rule="evenodd" d="M252.803 188.452C253.636 188.452 254.312 189.128 254.312 189.961C254.312 197.828 252.366 207.011 249.965 214.961C247.569 222.895 244.662 229.789 242.639 233.061C242.201 233.77 241.271 233.989 240.562 233.551C239.853 233.113 239.634 232.183 240.072 231.474C241.892 228.529 244.709 221.925 247.076 214.089C249.438 206.267 251.294 197.406 251.294 189.961C251.294 189.128 251.969 188.452 252.803 188.452Z" fill="url(#paint1_linear)"/>
<path fill-rule="evenodd" clip-rule="evenodd" d="M195.929 164.668C195.254 165.157 195.103 166.1 195.592 166.775C200.631 173.731 208.254 178.447 214.361 182.205L214.522 182.305C217.563 184.176 220.168 185.779 222.037 187.329C223.993 188.951 224.729 190.186 224.729 191.215C224.729 192.048 225.404 192.724 226.238 192.724C227.071 192.724 227.747 192.048 227.747 191.215C227.747 188.726 226.013 186.705 223.963 185.005C221.927 183.317 219.165 181.617 216.236 179.815C216.138 179.755 216.041 179.695 215.943 179.635C209.756 175.828 202.668 171.399 198.037 165.005C197.548 164.33 196.604 164.179 195.929 164.668Z" fill="url(#paint2_linear)"/>
<path fill-rule="evenodd" clip-rule="evenodd" d="M215.122 120.506C215.956 120.506 216.631 121.181 216.631 122.015C216.631 142.663 222.695 168.392 230.789 194.985C236.074 212.352 242.191 229.987 248.006 246.75C251.094 255.654 254.098 264.313 256.846 272.555C265.213 297.649 269.012 319.735 270.791 330.082C271.143 332.128 271.416 333.714 271.63 334.775C271.795 335.592 271.266 336.387 270.449 336.552C269.632 336.717 268.836 336.188 268.671 335.371C268.448 334.263 268.167 332.628 267.806 330.534C266.012 320.118 262.262 298.34 253.983 273.509C251.258 265.338 248.267 256.715 245.184 247.827C239.357 231.025 233.201 213.279 227.901 195.864C219.797 169.235 213.613 143.142 213.613 122.015C213.613 121.181 214.289 120.506 215.122 120.506Z" fill="url(#paint3_linear)"/>
</g>
<path fill-rule="evenodd" clip-rule="evenodd" d="M289.062 30.4049C289.062 13.6128 302.675 0 319.467 0H455.42C472.213 0 485.825 13.6128 485.825 30.4049V332.717C485.825 349.509 472.213 363.122 455.42 363.122H319.467C302.675 363.122 289.062 349.509 289.062 332.717V30.4049Z" fill="url(#paint4_linear)"/>
<path fill-rule="evenodd" clip-rule="evenodd" d="M272.991 30.4049C272.991 13.6128 286.604 0 303.396 0H439.35C456.142 0 469.755 13.6128 469.755 30.4049V332.717C469.755 349.509 456.142 363.122 439.35 363.122H303.396C286.604 363.122 272.991 349.509 272.991 332.717V30.4049Z" fill="url(#paint5_linear)"/>
<path d="M319.902 26.7157C319.902 24.9165 321.36 23.458 323.16 23.458H420.021C421.82 23.458 423.279 24.9165 423.279 26.7157C423.279 28.5148 421.82 29.9734 420.021 29.9734H323.16C321.36 29.9734 319.902 28.5148 319.902 26.7157Z" fill="url(#paint6_linear)"/>
<path fill-rule="evenodd" clip-rule="evenodd" d="M371.155 355.305C381.23 355.305 389.398 347.138 389.398 337.062C389.398 326.987 381.23 318.819 371.155 318.819C361.08 318.819 352.912 326.987 352.912 337.062C352.912 347.138 361.08 355.305 371.155 355.305Z" fill="url(#paint7_linear)"/>
<g filter="url(#filter0_d)">
<path d="M281.244 57.3373C281.244 54.4586 283.578 52.125 286.456 52.125H456.724C459.603 52.125 461.936 54.4586 461.936 57.3373V305.789C461.936 308.668 459.603 311.001 456.724 311.001H286.456C283.578 311.001 281.244 308.668 281.244 305.789V57.3373Z" fill="white"/>
</g>
<mask id="mask1" mask-type="alpha" maskUnits="userSpaceOnUse" x="281" y="52" width="182" height="259">
<path d="M281.354 57.3148C281.354 54.4361 283.687 52.1025 286.566 52.1025H456.833C459.712 52.1025 462.046 54.4362 462.046 57.3148V305.767C462.046 308.645 459.712 310.979 456.833 310.979H286.566C283.687 310.979 281.354 308.645 281.354 305.767V57.3148Z" fill="white"/>
</mask>
<g mask="url(#mask1)">
<g opacity="0.6">
<path d="M301.659 72.1041C301.659 67.3063 305.548 63.417 310.346 63.417H432.4C437.198 63.417 441.087 67.3064 441.087 72.1041V104.246C441.087 109.044 437.198 112.934 432.4 112.934H310.346C305.548 112.934 301.659 109.044 301.659 104.246V72.1041Z" fill="url(#paint8_linear)"/>
</g>
<g opacity="0.6">
<path d="M301.659 198.935C301.659 194.137 305.548 190.248 310.346 190.248H432.4C437.198 190.248 441.087 194.137 441.087 198.935V231.078C441.087 235.875 437.198 239.765 432.4 239.765H310.346C305.548 239.765 301.659 235.875 301.659 231.078V198.935Z" fill="url(#paint9_linear)"/>
</g>
<g opacity="0.6">
<path d="M301.659 262.351C301.659 257.553 305.548 253.664 310.346 253.664H432.4C437.198 253.664 441.087 257.553 441.087 262.351V294.494C441.087 299.291 437.198 303.181 432.4 303.181H310.346C305.548 303.181 301.659 299.291 301.659 294.494V262.351Z" fill="url(#paint10_linear)"/>
</g>
</g>
<g filter="url(#filter1_d)">
<path d="M292.785 128.244C292.785 123.446 296.675 119.557 301.472 119.557H423.526C428.324 119.557 432.213 123.446 432.213 128.244V160.386C432.213 165.184 428.324 169.073 423.526 169.073H301.472C296.675 169.073 292.785 165.184 292.785 160.386V128.244Z" fill="url(#paint11_linear)"/>
<path fill-rule="evenodd" clip-rule="evenodd" d="M316.24 162.993C326.315 162.993 334.483 154.825 334.483 144.75C334.483 134.674 326.315 126.507 316.24 126.507C306.165 126.507 297.997 134.674 297.997 144.75C297.997 154.825 306.165 162.993 316.24 162.993Z" fill="#FFB417"/>
</g>
<path fill-rule="evenodd" clip-rule="evenodd" d="M148.274 215.155C148.274 224.144 140.87 241.758 150.525 246.325C160.179 250.892 168.717 227.173 168.717 227.173C168.717 227.173 167.981 209.755 159.253 209.755C150.525 209.755 148.274 206.166 148.274 215.155Z" fill="url(#paint12_linear)"/>
<mask id="mask2" mask-type="alpha" maskUnits="userSpaceOnUse" x="145" y="209" width="24" height="38">
<path fill-rule="evenodd" clip-rule="evenodd" d="M148.274 215.155C148.274 224.144 140.87 241.758 150.525 246.325C160.179 250.892 168.717 227.173 168.717 227.173C168.717 227.173 167.981 209.755 159.253 209.755C150.525 209.755 148.274 206.166 148.274 215.155Z" fill="white"/>
</mask>
<g mask="url(#mask2)">
<g opacity="0.5">
<path fill-rule="evenodd" clip-rule="evenodd" d="M147.718 219.182C148.497 220.764 159.106 229.133 160.861 231.112C162.615 233.092 163.016 238.264 164.024 237.73C165.031 237.196 164.024 222.022 164.024 222.022C164.024 222.022 146.94 217.6 147.718 219.182Z" fill="#3D82F0" style="mix-blend-mode:multiply"/>
</g>
</g>
<path fill-rule="evenodd" clip-rule="evenodd" d="M165.544 418.964C165.381 423.606 163.98 429.365 165.098 431.712C166.217 434.06 172.119 435.48 174.08 435.548C176.041 435.616 176.813 432.332 179.799 434.14C182.785 435.948 200.146 436.458 201.515 429.594C202.884 422.73 194.084 422.423 190.17 422.286C186.256 422.149 182.178 420.098 176.539 414.946C170.9 409.794 165.706 414.322 165.544 418.964Z" fill="url(#paint13_linear)"/>
<path fill-rule="evenodd" clip-rule="evenodd" d="M184.4 420.542C184.366 420.817 184.562 421.068 184.838 421.102C184.833 421.102 184.833 421.102 184.839 421.104C184.853 421.109 184.903 421.128 184.995 421.183C185.108 421.251 185.25 421.353 185.408 421.49C185.724 421.762 186.081 422.144 186.388 422.592C187.016 423.509 187.345 424.56 186.936 425.477C186.823 425.73 186.937 426.028 187.19 426.141C187.444 426.254 187.741 426.14 187.855 425.887C188.478 424.489 187.917 423.045 187.218 422.023C186.86 421.501 186.444 421.054 186.064 420.727C185.874 420.563 185.686 420.424 185.513 420.32C185.354 420.225 185.157 420.128 184.961 420.104C184.685 420.07 184.434 420.266 184.4 420.542Z" fill="white"/>
<path fill-rule="evenodd" clip-rule="evenodd" d="M189.224 421.733C189.19 422.008 189.386 422.259 189.662 422.293C189.934 422.327 190.504 422.537 190.963 423.045C191.403 423.531 191.764 424.317 191.612 425.561C191.578 425.837 191.774 426.088 192.05 426.122C192.325 426.155 192.576 425.959 192.61 425.684C192.797 424.164 192.354 423.083 191.71 422.37C191.085 421.679 190.291 421.357 189.785 421.295C189.509 421.261 189.258 421.457 189.224 421.733Z" fill="white"/>
<path fill-rule="evenodd" clip-rule="evenodd" d="M252.508 428.731C252.913 433.358 252.223 439.245 253.62 441.438C255.016 443.632 261.047 444.322 263.002 444.151C264.957 443.98 265.322 440.626 268.506 442.056C271.69 443.487 288.984 441.877 289.507 434.898C290.029 427.918 281.257 428.685 277.356 429.027C273.454 429.368 269.156 427.829 262.932 423.403C256.707 418.976 252.103 424.103 252.508 428.731Z" fill="url(#paint14_linear)"/>
<path fill-rule="evenodd" clip-rule="evenodd" d="M271.417 428.002C271.417 428.28 271.642 428.505 271.92 428.505C271.915 428.505 271.915 428.505 271.921 428.507C271.936 428.51 271.988 428.523 272.086 428.566C272.206 428.62 272.359 428.704 272.533 428.82C272.88 429.052 273.281 429.388 273.64 429.795C274.375 430.629 274.83 431.632 274.536 432.591C274.454 432.857 274.603 433.138 274.869 433.22C275.134 433.301 275.416 433.152 275.497 432.886C275.946 431.423 275.213 430.058 274.394 429.129C273.976 428.655 273.508 428.261 273.091 427.983C272.883 427.844 272.68 427.729 272.495 427.647C272.325 427.571 272.118 427.499 271.92 427.499C271.642 427.499 271.417 427.725 271.417 428.002Z" fill="white"/>
<path fill-rule="evenodd" clip-rule="evenodd" d="M276.349 428.594C276.349 428.872 276.574 429.097 276.852 429.097C277.127 429.097 277.718 429.237 278.235 429.685C278.731 430.114 279.185 430.85 279.185 432.103C279.185 432.381 279.411 432.606 279.688 432.606C279.966 432.606 280.191 432.381 280.191 432.103C280.191 430.572 279.62 429.554 278.894 428.924C278.189 428.314 277.362 428.091 276.852 428.091C276.574 428.091 276.349 428.317 276.349 428.594Z" fill="white"/>
<path fill-rule="evenodd" clip-rule="evenodd" d="M236.739 262.465C236.739 262.465 255.702 331.942 258.171 347.75C260.64 363.559 266.681 416.996 265.828 425.614C261.702 429.822 254.268 427.302 252.973 426.53C251.678 425.759 243.699 381.793 236.739 364.738C229.779 347.682 214.117 331.985 203.796 314.825C203.796 325.994 195.827 355.883 195.827 355.883C195.827 355.883 184.206 408.666 180.251 417.21C178.375 420.241 168.902 418.018 165.228 417.21C165.228 409.204 173.15 368.759 173.15 354.718C173.15 340.678 170.959 315.232 170.141 304.801C169.322 294.37 167.322 274.132 170.141 262.465C177.285 262.465 236.739 262.465 236.739 262.465Z" fill="url(#paint15_linear)"/>
<mask id="mask3" mask-type="alpha" maskUnits="userSpaceOnUse" x="165" y="262" width="101" height="166">
<path fill-rule="evenodd" clip-rule="evenodd" d="M236.739 262.465C236.739 262.465 255.702 331.942 258.171 347.75C260.64 363.559 266.681 416.996 265.828 425.614C261.702 429.822 254.268 427.302 252.973 426.53C251.678 425.759 243.699 381.793 236.739 364.738C229.779 347.682 214.117 331.985 203.796 314.825C203.796 325.994 195.827 355.883 195.827 355.883C195.827 355.883 184.206 408.666 180.251 417.21C178.375 420.241 168.902 418.018 165.228 417.21C165.228 409.204 173.15 368.759 173.15 354.718C173.15 340.678 170.959 315.232 170.141 304.801C169.322 294.37 167.322 274.132 170.141 262.465C177.285 262.465 236.739 262.465 236.739 262.465Z" fill="white"/>
</mask>
<g mask="url(#mask3)">
<g opacity="0.5">
<path fill-rule="evenodd" clip-rule="evenodd" d="M193.794 363.999C193.794 357.198 197.298 301.63 198.103 303.91C198.908 306.19 205.177 318.505 205.177 318.505C205.177 318.505 193.794 370.799 193.794 363.999Z" fill="#A1B8E3" style="mix-blend-mode:multiply"/>
</g>
<path fill-rule="evenodd" clip-rule="evenodd" d="M198.177 303.452C198.447 303.388 198.719 303.555 198.783 303.825C199.257 305.812 200.417 308.22 201.702 310.589C202.264 311.626 202.855 312.665 203.415 313.649C204.113 314.874 204.762 316.014 205.245 316.957C205.372 317.205 205.274 317.508 205.026 317.634C204.779 317.761 204.476 317.663 204.349 317.415C203.869 316.476 203.245 315.381 202.562 314.184C202.004 313.203 201.406 312.155 200.817 311.069C199.531 308.697 198.312 306.187 197.804 304.058C197.74 303.788 197.907 303.517 198.177 303.452Z" fill="white"/>
<g opacity="0.5">
<path fill-rule="evenodd" clip-rule="evenodd" d="M174.527 274.073C178.96 276.457 196.318 286.604 218.685 282.538C229.737 280.529 236.846 277.899 240.035 274.073C240.035 272.189 237.354 264.262 236.606 261.229C235.857 258.196 169.099 271.154 174.527 274.073Z" fill="url(#paint16_linear)" style="mix-blend-mode:multiply"/>
</g>
</g>
<path fill-rule="evenodd" clip-rule="evenodd" d="M203.201 114.779C203.201 114.779 205.763 119.743 210.103 121.85C214.443 123.957 216.612 124.988 216.612 124.988L214.767 132.145C214.767 132.145 218.206 142.669 216.612 146.217C215.018 149.765 210.103 152.122 207.243 155.285C204.382 158.449 201.737 169.181 201.737 169.181H182.883L182.029 155.285C182.029 155.285 177.001 135.234 185.532 124.988C194.063 114.742 203.201 114.779 203.201 114.779Z" fill="url(#paint17_linear)"/>
<mask id="mask4" mask-type="alpha" maskUnits="userSpaceOnUse" x="180" y="114" width="38" height="56">
<path fill-rule="evenodd" clip-rule="evenodd" d="M203.201 114.779C203.201 114.779 205.763 119.743 210.103 121.85C214.443 123.957 216.612 124.988 216.612 124.988L214.767 132.145C214.767 132.145 218.206 142.669 216.612 146.217C215.018 149.765 210.103 152.122 207.243 155.285C204.382 158.449 201.737 169.181 201.737 169.181H182.883L182.029 155.285C182.029 155.285 177.001 135.234 185.532 124.988C194.063 114.742 203.201 114.779 203.201 114.779Z" fill="white"/>
</mask>
<g mask="url(#mask4)">
<g opacity="0.5">
<path fill-rule="evenodd" clip-rule="evenodd" d="M209.592 153.396C204.833 153.396 197.408 149.182 195.979 147.742C194.55 146.302 207.878 161.878 206.765 164.359C205.888 166.316 202.754 166.915 204.73 166.915C211.857 166.915 214.352 153.396 209.592 153.396Z" fill="#3D82F0" style="mix-blend-mode:multiply"/>
</g>
</g>
<path fill-rule="evenodd" clip-rule="evenodd" d="M182.03 154.7C165.406 139.162 152.243 125.901 163.596 107.424C174.948 88.9462 201.363 82.7347 206.3 105.196C206.3 114.833 199.185 119.981 199.185 119.981C199.185 119.981 197.853 122.69 201.363 125.564C204.873 128.437 201.363 130.812 201.363 130.812C201.363 130.812 194.433 126.355 192.623 132.291C190.813 138.227 197.493 140.352 197.493 141.838C199.796 147.298 195.044 152.293 195.044 152.293C195.044 152.293 192.611 154.7 182.03 154.7Z" fill="url(#paint18_linear)"/>
<path fill-rule="evenodd" clip-rule="evenodd" d="M164.883 175.66C164.883 175.66 147.087 206.878 144.94 213.748C142.793 220.617 164.883 224.59 164.883 224.59L174.101 185.32L164.883 175.66Z" fill="url(#paint19_linear)"/>
<path fill-rule="evenodd" clip-rule="evenodd" d="M203.327 164.912C203.327 164.912 216.731 168.449 224.628 177.796C232.526 187.142 230.766 215.261 233.003 231.996C235.24 248.731 244.974 260.896 229.939 270.341C214.905 279.785 172.396 277.64 168.919 270.341C165.443 263.041 161.48 218.176 161.48 218.176C161.48 218.176 161.48 177.796 166.229 174.392C170.977 170.988 182.062 164.409 182.062 164.409C182.062 164.409 181.814 165.41 187.161 166.402C192.508 167.394 203.327 164.912 203.327 164.912Z" fill="#D6E3FA"/>
<mask id="mask5" mask-type="alpha" maskUnits="userSpaceOnUse" x="161" y="164" width="78" height="113">
<path fill-rule="evenodd" clip-rule="evenodd" d="M203.327 164.912C203.327 164.912 216.731 168.449 224.628 177.796C232.526 187.142 230.766 215.261 233.003 231.996C235.24 248.731 244.974 260.896 229.939 270.341C214.905 279.785 172.396 277.64 168.919 270.341C165.443 263.041 161.48 218.176 161.48 218.176C161.48 218.176 161.48 177.796 166.229 174.392C170.977 170.988 182.062 164.409 182.062 164.409C182.062 164.409 181.814 165.41 187.161 166.402C192.508 167.394 203.327 164.912 203.327 164.912Z" fill="white"/>
</mask>
<g mask="url(#mask5)">
<path opacity="0.5" fill-rule="evenodd" clip-rule="evenodd" d="M214.459 196.856C214.459 196.856 221.689 230.649 226.039 236.983C230.39 243.317 233.219 262.484 236.701 264.77C240.183 267.055 245.185 240.909 242.684 231.957C240.183 223.005 228.909 201.078 228.909 201.078L214.459 196.856Z" fill="url(#paint20_linear)"/>
<path opacity="0.5" fill-rule="evenodd" clip-rule="evenodd" d="M185.246 166.724C188.464 168.859 196.847 170.014 203.894 170.014C210.942 170.014 213.146 170.088 216.517 169.062C219.889 168.036 218.582 166.724 216.517 166.724C214.453 166.724 208.05 165.219 204.603 165.219C201.157 165.219 182.028 164.59 185.246 166.724Z" fill="url(#paint21_linear)"/>
</g>
<path fill-rule="evenodd" clip-rule="evenodd" d="M181.452 164.912C181.452 164.912 181.038 159.744 181.038 158.076C181.038 156.409 194.92 158.764 204.911 159.698C205.995 163.856 205.803 164.132 205.803 164.912C205.803 165.303 203.308 168.648 189.885 167.563C184.985 167.167 181.452 164.912 181.452 164.912Z" fill="#E1ECFF"/>
<path fill-rule="evenodd" clip-rule="evenodd" d="M250.862 204.913C253.857 198.188 255.551 187.8 252.378 186.388C249.206 184.975 244.708 192.14 241.714 198.866C238.719 205.591 240.579 209.948 242.415 211.761C244.474 212.186 247.868 211.639 250.862 204.913Z" fill="#A1B8E3"/>
<path fill-rule="evenodd" clip-rule="evenodd" d="M247.331 184.809L261.37 190.589C261.37 190.589 273.821 157.365 274.576 153.054C275.331 148.742 271.984 142.657 271.443 140.488C270.902 138.318 270.99 133.213 272.501 131.345C274.013 129.477 274.412 130.144 275.541 129.863C276.67 129.581 283.37 115.212 284.129 113.406C284.889 111.601 286.244 110.468 287.622 111.07C289 111.671 288.871 113.277 288.327 114.698C287.783 116.118 284.727 124.088 285.073 125.476C285.419 126.864 290.802 128.658 292.304 129.58C293.806 130.501 296.364 133.531 295.085 137.914C293.807 142.296 287.906 150.241 288.327 151.931C288.748 153.621 282.79 182.255 280.894 193.706C278.998 205.158 276.519 213.189 266.839 212.527C257.16 211.864 237.1 201.101 237.1 201.101C237.1 201.101 238.411 192.74 240.917 189.586C243.423 186.432 247.331 184.809 247.331 184.809Z" fill="url(#paint22_linear)"/>
<mask id="mask6" mask-type="alpha" maskUnits="userSpaceOnUse" x="218" y="110" width="95" height="110">
<path fill-rule="evenodd" clip-rule="evenodd" d="M247.331 184.809L261.37 190.589C261.37 190.589 273.821 157.365 274.576 153.054C275.331 148.742 271.984 142.657 271.443 140.488C270.902 138.318 270.99 133.213 272.501 131.345C274.013 129.477 274.412 130.144 275.541 129.863C276.67 129.581 283.37 115.212 284.129 113.406C284.889 111.601 286.244 110.468 287.622 111.07C289 111.671 288.871 113.277 288.327 114.698C287.783 116.118 284.727 124.088 285.073 125.476C285.419 126.864 290.802 128.658 292.304 129.58C293.806 130.501 296.364 133.531 295.085 137.914C293.807 142.296 287.906 150.241 288.327 151.931C288.748 153.621 282.79 182.255 280.894 193.706C278.998 205.158 276.519 213.189 266.839 212.527C257.16 211.864 237.1 201.101 237.1 201.101C237.1 201.101 238.411 192.74 240.917 189.586C243.423 186.432 247.331 184.809 247.331 184.809Z" fill="white"/>
</mask>
<g mask="url(#mask6)">
<g opacity="0.5">
<path fill-rule="evenodd" clip-rule="evenodd" d="M251.939 186.349C251.939 186.349 248.963 203.755 250.83 208.876C252.697 213.997 242.457 206.77 242.457 206.77C242.457 206.77 242.656 199.312 244.23 195.922C245.804 192.532 251.939 186.349 251.939 186.349Z" fill="#3D82F0" style="mix-blend-mode:multiply"/>
</g>
<path fill-rule="evenodd" clip-rule="evenodd" d="M260.617 189.967C260.733 189.715 261.032 189.604 261.284 189.72C261.345 189.748 261.41 189.777 261.48 189.808C262.318 190.183 263.795 190.843 265.114 192.67C265.277 192.896 265.226 193.21 265.001 193.373C264.776 193.535 264.461 193.485 264.299 193.259C263.14 191.655 261.875 191.088 261.062 190.723C260.993 190.692 260.927 190.663 260.865 190.634C260.612 190.518 260.501 190.22 260.617 189.967Z" fill="#223762"/>
</g>
<path fill-rule="evenodd" clip-rule="evenodd" d="M242.29 211.709C243.871 203.798 246.149 192.91 252.48 186.394C229.89 176.653 222.771 173.199 215.669 170.165C208.567 167.131 202.104 187.115 215.669 197.055C229.234 206.996 238.52 210.044 242.29 211.709Z" fill="url(#paint23_linear)"/>
<path opacity="0.7" fill-rule="evenodd" clip-rule="evenodd" d="M50.6101 376.723C67.2783 376.723 80.7906 379.65 80.7906 383.262C80.7906 386.873 67.2783 389.801 50.6101 389.801C33.9419 389.801 20.4297 386.873 20.4297 383.262C20.4297 379.65 33.9419 376.723 50.6101 376.723Z" fill="url(#paint24_linear)"/>
<path fill-rule="evenodd" clip-rule="evenodd" d="M90.8288 345.219C93.0996 349.198 94.3714 353.655 94.3714 358.363C94.3714 375.17 78.1568 388.794 58.1549 388.794C38.1531 388.794 21.9385 375.17 21.9385 358.363C21.9385 353.381 23.3627 348.68 25.8877 344.529C41.9315 347.069 73.8655 346.906 90.8288 345.219Z" fill="url(#paint25_linear)"/>
<mask id="mask7" mask-type="alpha" maskUnits="userSpaceOnUse" x="21" y="344" width="74" height="45">
<path fill-rule="evenodd" clip-rule="evenodd" d="M90.8288 345.219C93.0996 349.198 94.3714 353.655 94.3714 358.363C94.3714 375.17 78.1568 388.794 58.1549 388.794C38.1531 388.794 21.9385 375.17 21.9385 358.363C21.9385 353.381 23.3627 348.68 25.8877 344.529C41.9315 347.069 73.8655 346.906 90.8288 345.219Z" fill="white"/>
</mask>
<g mask="url(#mask7)">
</g>
<path fill-rule="evenodd" clip-rule="evenodd" d="M58.407 338.495C76.6031 338.495 91.3539 341.986 91.3539 346.292C91.3539 350.598 76.6031 354.088 58.407 354.088C40.2108 354.088 25.46 350.598 25.46 346.292C25.46 341.986 40.2108 338.495 58.407 338.495Z" fill="url(#paint26_linear)"/>
<mask id="mask8" mask-type="alpha" maskUnits="userSpaceOnUse" x="25" y="338" width="67" height="17">
<path fill-rule="evenodd" clip-rule="evenodd" d="M58.407 338.495C76.6031 338.495 91.3539 341.986 91.3539 346.292C91.3539 350.598 76.6031 354.088 58.407 354.088C40.2108 354.088 25.46 350.598 25.46 346.292C25.46 341.986 40.2108 338.495 58.407 338.495Z" fill="white"/>
</mask>
<g mask="url(#mask8)">
</g>
<g filter="url(#filter2_i)">
<path fill-rule="evenodd" clip-rule="evenodd" d="M55.6396 340.506C53.8403 328.055 48.8907 310.075 34.0103 290.709C25.2447 279.301 25.2161 251.52 23.9502 248.456C30.8284 250.821 43.1843 256.918 55.6396 274.109C68.6962 292.13 60.4132 328.882 55.6396 340.506Z" fill="url(#paint27_linear)"/>
</g>
<mask id="mask9" mask-type="alpha" maskUnits="userSpaceOnUse" x="23" y="248" width="40" height="93">
<path fill-rule="evenodd" clip-rule="evenodd" d="M55.6396 340.506C53.8403 328.055 48.8907 310.075 34.0103 290.709C25.2447 279.301 25.2161 251.52 23.9502 248.456C30.8284 250.821 43.1843 256.918 55.6396 274.109C68.6962 292.13 60.4132 328.882 55.6396 340.506Z" fill="white"/>
</mask>
<g mask="url(#mask9)">
<g style="mix-blend-mode:multiply" opacity="0.5">
<path fill-rule="evenodd" clip-rule="evenodd" d="M55.138 340.506C56.5111 310.239 52.7426 291.137 40.8945 273.104L55.138 340.506Z" fill="black" fill-opacity="0.01"/>
</g>
</g>
<g filter="url(#filter3_i)">
<path fill-rule="evenodd" clip-rule="evenodd" d="M55.6952 353.286C50.1365 344.395 40.3152 332.346 22.4503 322.577C11.9265 316.822 2.56575 295.645 0.569824 293.734C6.61349 293.227 18.0915 293.726 33.3749 302.652C49.396 312.008 55.4302 342.818 55.6952 353.286Z" fill="url(#paint28_linear)"/>
</g>
<mask id="mask10" mask-type="alpha" maskUnits="userSpaceOnUse" x="0" y="293" width="56" height="61">
<path fill-rule="evenodd" clip-rule="evenodd" d="M55.6952 353.286C50.1365 344.395 40.3152 332.346 22.4503 322.577C11.9265 316.822 2.56575 295.645 0.569824 293.734C6.61349 293.227 18.0915 293.726 33.3749 302.652C49.396 312.008 55.4302 342.818 55.6952 353.286Z" fill="white"/>
</mask>
<g mask="url(#mask10)">
<g style="mix-blend-mode:multiply" opacity="0.5">
<path fill-rule="evenodd" clip-rule="evenodd" d="M55.3115 353.457C46.1846 329.914 36.8874 316.612 21.7842 306.84L55.3115 353.457Z" fill="black" fill-opacity="0.01"/>
</g>
</g>
<g filter="url(#filter4_i)">
<path fill-rule="evenodd" clip-rule="evenodd" d="M59.6874 354.506C64.0703 344.936 72.2892 331.672 88.8161 319.641C98.5516 312.553 105.127 290.26 106.867 288.1C100.782 288.374 89.4134 290.351 75.3486 301.209C60.6048 312.592 58.5927 344.049 59.6874 354.506Z" fill="url(#paint29_linear)"/>
</g>
<mask id="mask11" mask-type="alpha" maskUnits="userSpaceOnUse" x="59" y="288" width="48" height="67">
<path fill-rule="evenodd" clip-rule="evenodd" d="M59.6874 354.506C64.0703 344.936 72.2892 331.672 88.8161 319.641C98.5516 312.553 105.127 290.26 106.867 288.1C100.782 288.374 89.4134 290.351 75.3486 301.209C60.6048 312.592 58.5927 344.049 59.6874 354.506Z" fill="white"/>
</mask>
<g mask="url(#mask11)">
<g style="mix-blend-mode:multiply" opacity="0.5">
<path fill-rule="evenodd" clip-rule="evenodd" d="M58.4126 354.486C64.4482 329.866 71.9825 315.422 85.7581 303.744L58.4126 354.486Z" fill="black" fill-opacity="0.01"/>
</g>
</g>
<path fill-rule="evenodd" clip-rule="evenodd" d="M69.1753 44.6738C101.831 53.8325 125.629 55.1956 140.57 48.7633C124.82 62.4645 112.273 68.5587 102.931 67.0459C88.918 64.7766 74.5576 48.7633 69.1753 44.6738Z" fill="#A1B8E3"/>
<path fill-rule="evenodd" clip-rule="evenodd" d="M27.9062 17.5098C52.9488 17.5098 58.1734 17.5098 86.6989 17.5098C86.6989 48.2265 103.386 59.327 121.187 63.0758C100.389 74.7914 61.4079 68.1601 50.3693 58.4763C39.3306 48.7925 32.7612 44.965 27.9062 17.5098Z" fill="url(#paint30_linear)"/>
<path fill-rule="evenodd" clip-rule="evenodd" d="M670.095 133.083C672.046 135.002 673.709 136.863 675.085 138.666C677.948 142.419 678.803 147.606 678.604 147.737C677.518 148.452 671.308 144.329 670.095 140.98C669.367 138.973 669.367 136.34 670.095 133.083Z" fill="#A1B8E3"/>
<path fill-rule="evenodd" clip-rule="evenodd" d="M618.058 166.01C632.331 156.265 639.813 144.124 640.505 129.587C644.253 129.028 651.493 129.726 669.657 132.884C671.349 133.178 671.498 135.862 670.106 140.935C676.23 143.18 679.036 145.32 678.524 147.352C674.085 164.976 668.213 173.011 659.351 176.787C649.185 178.078 635.42 174.486 618.058 166.01Z" fill="url(#paint31_linear)"/>
<path fill-rule="evenodd" clip-rule="evenodd" d="M550.312 9.99707C545.175 24.2983 528.449 32.5529 511.562 35.6851C518.383 46.3448 531.997 63.4757 543.823 75.8459C544.386 76.4344 546.665 77.3561 547.264 77.8396C550.888 80.763 554.766 79.1106 556.78 79.0823C566.74 75.965 575.58 74.6271 583.869 67.1057C588.119 63.2495 591.276 59.7095 592.278 57.9938C589.802 50.4348 577.541 43.8137 550.312 9.99707Z" fill="url(#paint32_linear)"/>
<path fill-rule="evenodd" clip-rule="evenodd" d="M554.298 71.0593C554.487 75.2483 547.117 79.0842 542.906 74.97C547.422 79.2958 551.438 79.9341 554.77 79.9235C558.102 79.9129 573.66 79.9509 592.215 58.0029C575.798 75.8761 563.354 80.4699 554.298 71.0593Z" fill="#FF9600"/>
<path opacity="0.5" fill-rule="evenodd" clip-rule="evenodd" d="M424.126 394.94L550.863 371.368L676.298 381.781L520.235 461.718" fill="url(#paint33_linear)"/>
<path fill-rule="evenodd" clip-rule="evenodd" d="M549.375 309.251L610.239 336.509V401.804L551.355 371.322L549.375 309.251Z" fill="url(#paint34_linear)"/>
<path fill-rule="evenodd" clip-rule="evenodd" d="M680.66 321.321L610.239 336.541V401.802L679.335 381.724L680.66 321.321Z" fill="url(#paint35_linear)"/>
<mask id="mask12" mask-type="alpha" maskUnits="userSpaceOnUse" x="610" y="321" width="71" height="81">
<path fill-rule="evenodd" clip-rule="evenodd" d="M680.66 321.321L610.239 336.541V401.802L679.335 381.724L680.66 321.321Z" fill="white"/>
</mask>
<g mask="url(#mask12)">
</g>
<path d="M617.03 294.663L680.66 321.071L610.183 336.678L549.376 308.999L617.03 294.663Z" fill="#E4EDFC"/>
<path fill-rule="evenodd" clip-rule="evenodd" d="M539.817 243.857L600.681 271.115V336.411L541.796 305.928L539.817 243.857Z" fill="url(#paint36_linear)"/>
<path fill-rule="evenodd" clip-rule="evenodd" d="M671.101 255.93L600.68 271.15V336.411L669.776 316.333L671.101 255.93Z" fill="url(#paint37_linear)"/>
<mask id="mask13" mask-type="alpha" maskUnits="userSpaceOnUse" x="600" y="255" width="72" height="82">
<path fill-rule="evenodd" clip-rule="evenodd" d="M671.101 255.93L600.68 271.15V336.411L669.776 316.333L671.101 255.93Z" fill="white"/>
</mask>
<g mask="url(#mask13)">
</g>
<path d="M607.471 229.271L671.102 255.679L600.625 271.285L539.817 243.606L607.471 229.271Z" fill="#E4EDFC"/>
<path opacity="0.5" fill-rule="evenodd" clip-rule="evenodd" d="M491.027 424.616L617.763 401.044L743.198 411.457L587.136 491.394" fill="url(#paint38_linear)"/>
<path fill-rule="evenodd" clip-rule="evenodd" d="M616.276 338.924L677.14 366.182V431.477L618.255 400.995L616.276 338.924Z" fill="url(#paint39_linear)"/>
<path fill-rule="evenodd" clip-rule="evenodd" d="M747.56 350.996L677.139 366.216V431.477L746.236 411.399L747.56 350.996Z" fill="url(#paint40_linear)"/>
<mask id="mask14" mask-type="alpha" maskUnits="userSpaceOnUse" x="677" y="350" width="71" height="82">
<path fill-rule="evenodd" clip-rule="evenodd" d="M747.56 350.996L677.139 366.216V431.477L746.236 411.399L747.56 350.996Z" fill="white"/>
</mask>
<g mask="url(#mask14)">
</g>
<path d="M683.93 324.337L747.561 350.745L677.084 366.352L616.276 338.673L683.93 324.337Z" fill="#E4EDFC"/>
<path opacity="0.5" fill-rule="evenodd" clip-rule="evenodd" d="M328 444.643L454.737 421.071L580.171 431.484L424.109 511.421" fill="url(#paint41_linear)"/>
<g filter="url(#filter5_d)">
<path fill-rule="evenodd" clip-rule="evenodd" d="M476.891 362.722C475.224 362.722 473.873 364.073 473.873 365.74V381.957C473.873 383.624 475.224 384.975 476.891 384.975H484.834L488.327 388.468C489.505 389.646 491.416 389.646 492.595 388.468L496.087 384.975H504.556C506.223 384.975 507.575 383.624 507.575 381.957V365.74C507.575 364.073 506.223 362.722 504.556 362.722H476.891Z" fill="#F05971"/>
<path fill-rule="evenodd" clip-rule="evenodd" d="M490.769 380.764C477.147 373.223 486.999 363.847 490.769 370.161C494.539 363.847 504.391 373.223 490.769 380.764Z" fill="white"/>
</g>
<path fill-rule="evenodd" clip-rule="evenodd" d="M454.372 359.652C452.847 360.326 452.158 362.108 452.832 363.632L459.39 378.464C460.064 379.989 461.846 380.678 463.371 380.004L470.636 376.792L475.242 378.574C476.797 379.175 478.544 378.402 479.146 376.848L480.927 372.241L488.673 368.816C490.198 368.142 490.887 366.36 490.213 364.836L483.655 350.003C482.981 348.479 481.198 347.79 479.674 348.464L454.372 359.652Z" fill="url(#paint42_linear)"/>
<g filter="url(#filter6_d)">
<path fill-rule="evenodd" clip-rule="evenodd" d="M539.264 369.763C537.597 369.763 536.246 371.114 536.246 372.781V388.998C536.246 390.665 537.597 392.016 539.264 392.016H547.207L550.699 395.509C551.878 396.687 553.789 396.687 554.967 395.509L558.46 392.016H566.929C568.596 392.016 569.947 390.665 569.947 388.998V372.781C569.947 371.114 568.596 369.763 566.929 369.763H539.264Z" fill="url(#paint43_linear)"/>
<path fill-rule="evenodd" clip-rule="evenodd" d="M553.14 387.804C539.518 380.263 549.37 370.887 553.14 377.201C556.91 370.887 566.762 380.263 553.14 387.804Z" fill="white"/>
</g>
<g filter="url(#filter7_d)">
<path fill-rule="evenodd" clip-rule="evenodd" d="M497.011 365.238C495.344 365.238 493.993 366.59 493.993 368.256V384.474C493.993 386.141 495.344 387.492 497.011 387.492H504.954L508.447 390.984C509.625 392.163 511.536 392.163 512.715 390.984L516.207 387.492H524.677C526.343 387.492 527.695 386.141 527.695 384.474V368.256C527.695 366.59 526.343 365.238 524.677 365.238H497.011Z" fill="url(#paint44_linear)"/>
<path fill-rule="evenodd" clip-rule="evenodd" d="M510.888 383.279C497.266 375.737 507.118 366.361 510.888 372.676C514.658 366.361 524.51 375.737 510.888 383.279Z" fill="white"/>
</g>
<path fill-rule="evenodd" clip-rule="evenodd" d="M556.243 351.174C554.619 350.799 552.998 351.812 552.623 353.436L548.975 369.238C548.6 370.862 549.613 372.482 551.237 372.857L558.976 374.644L561.594 378.833C562.477 380.246 564.339 380.676 565.753 379.793L569.941 377.175L578.193 379.081C579.817 379.456 581.438 378.443 581.813 376.819L585.461 361.017C585.836 359.393 584.823 357.772 583.199 357.397L556.243 351.174Z" fill="url(#paint45_linear)"/>
<path fill-rule="evenodd" clip-rule="evenodd" d="M487.837 344.601C486.213 344.227 484.593 345.239 484.218 346.864L480.572 362.666C480.197 364.29 481.21 365.91 482.834 366.285L490.574 368.071L493.192 372.259C494.075 373.673 495.937 374.102 497.35 373.219L501.539 370.601L509.791 372.505C511.415 372.88 513.036 371.867 513.41 370.243L517.057 354.441C517.431 352.817 516.418 351.196 514.794 350.821L487.837 344.601Z" fill="url(#paint46_linear)"/>
<g filter="url(#filter8_d)">
<path fill-rule="evenodd" clip-rule="evenodd" d="M484.39 368.399C482.748 368.688 481.652 370.254 481.942 371.895L484.758 387.866C485.047 389.508 486.612 390.604 488.254 390.314L496.076 388.935L500.122 391.768C501.488 392.724 503.37 392.392 504.326 391.027L507.159 386.981L515.499 385.51C517.141 385.221 518.237 383.655 517.947 382.014L515.131 366.043C514.842 364.401 513.276 363.305 511.635 363.595L484.39 368.399Z" fill="url(#paint47_linear)"/>
</g>
<path fill-rule="evenodd" clip-rule="evenodd" d="M536.475 335.331C535.009 334.538 533.178 335.084 532.385 336.55L524.672 350.816C523.88 352.283 524.426 354.114 525.892 354.907L532.879 358.684L534.29 363.417C534.767 365.015 536.448 365.924 538.045 365.447L542.778 364.036L550.228 368.064C551.695 368.856 553.526 368.31 554.319 366.844L562.031 352.578C562.824 351.112 562.278 349.281 560.812 348.488L536.475 335.331Z" fill="url(#paint48_linear)"/>
<g filter="url(#filter9_d)">
<path fill-rule="evenodd" clip-rule="evenodd" d="M514.578 350.044C512.911 350.015 511.536 351.342 511.507 353.009L511.224 369.224C511.195 370.89 512.523 372.265 514.189 372.294L522.131 372.433L525.562 375.986C526.72 377.185 528.631 377.218 529.83 376.06L533.383 372.629L541.85 372.777C543.517 372.806 544.892 371.478 544.921 369.812L545.204 353.597C545.233 351.93 543.905 350.556 542.239 350.527L514.578 350.044Z" fill="url(#paint49_linear)"/>
</g>
<g filter="url(#filter10_d)">
<path fill-rule="evenodd" clip-rule="evenodd" d="M510.431 364.287C508.768 364.17 507.326 365.424 507.209 367.087L506.078 383.265C505.962 384.928 507.216 386.37 508.878 386.486L516.802 387.04L520.042 390.768C521.136 392.026 523.042 392.159 524.3 391.065L528.028 387.825L536.476 388.416C538.139 388.532 539.581 387.278 539.698 385.616L540.829 369.438C540.945 367.775 539.691 366.333 538.029 366.217L510.431 364.287Z" fill="url(#paint50_linear)"/>
</g>
<g filter="url(#filter11_d)">
<path fill-rule="evenodd" clip-rule="evenodd" d="M532.967 370.52C531.444 371.197 530.76 372.981 531.438 374.504L538.034 389.32C538.712 390.842 540.496 391.527 542.018 390.849L567.292 379.597C568.815 378.919 569.5 377.135 568.822 375.612L562.225 360.797C561.547 359.274 559.763 358.589 558.241 359.267L532.967 370.52Z" fill="url(#paint51_linear)"/>
</g>
<path fill-rule="evenodd" clip-rule="evenodd" d="M453.25 358.196L514.113 385.454V450.75L455.229 420.267L453.25 358.196Z" fill="url(#paint52_linear)"/>
<path fill-rule="evenodd" clip-rule="evenodd" d="M584.533 370.266L514.112 385.486V450.747L583.209 430.669L584.533 370.266Z" fill="url(#paint53_linear)"/>
<mask id="mask15" mask-type="alpha" maskUnits="userSpaceOnUse" x="514" y="370" width="71" height="81">
<path fill-rule="evenodd" clip-rule="evenodd" d="M584.533 370.266L514.112 385.486V450.747L583.209 430.669L584.533 370.266Z" fill="white"/>
</mask>
<g mask="url(#mask15)">
<g opacity="0.218583">
<path fill-rule="evenodd" clip-rule="evenodd" d="M530.776 373.27L596.072 435.234L586.232 358.625L530.776 373.27Z" fill="url(#paint54_linear)" style="mix-blend-mode:multiply"/>
</g>
</g>
<path fill-rule="evenodd" clip-rule="evenodd" d="M453.355 357.691L429.105 382.766L489.237 412.519L513.61 385.286L453.355 357.691Z" fill="url(#paint55_linear)"/>
<path fill-rule="evenodd" clip-rule="evenodd" d="M583.901 370.266L609.684 397.373L540.019 413.021L514.113 385.268L583.901 370.266Z" fill="url(#paint56_linear)"/>
<line x1="659.643" y1="333.869" x2="707.307" y2="355.053" stroke="white"/>
<line x1="580.209" y1="238.546" x2="629.197" y2="261.054" stroke="white"/>
</g>
<defs>
<filter id="filter0_d" x="119.244" y="-109.875" width="504.692" height="582.876" filterUnits="userSpaceOnUse" color-interpolation-filters="sRGB">
<feFlood flood-opacity="0" result="BackgroundImageFix"/>
<feColorMatrix in="SourceAlpha" type="matrix" values="0 0 0 0 0 0 0 0 0 0 0 0 0 0 0 0 0 0 127 0"/>
<feOffset/>
<feGaussianBlur stdDeviation="81"/>
<feColorMatrix type="matrix" values="0 0 0 0 1 0 0 0 0 1 0 0 0 0 1 0 0 0 1 0"/>
<feBlend mode="normal" in2="BackgroundImageFix" result="effect1_dropShadow"/>
<feBlend mode="normal" in="SourceGraphic" in2="effect1_dropShadow" result="shape"/>
</filter>
<filter id="filter1_d" x="292.785" y="119.557" width="147.428" height="57.5166" filterUnits="userSpaceOnUse" color-interpolation-filters="sRGB">
<feFlood flood-opacity="0" result="BackgroundImageFix"/>
<feColorMatrix in="SourceAlpha" type="matrix" values="0 0 0 0 0 0 0 0 0 0 0 0 0 0 0 0 0 0 127 0"/>
<feOffset dx="8" dy="8"/>
<feColorMatrix type="matrix" values="0 0 0 0 1 0 0 0 0 0.706613 0 0 0 0 0.0893703 0 0 0 0.173347 0"/>
<feBlend mode="normal" in2="BackgroundImageFix" result="effect1_dropShadow"/>
<feBlend mode="normal" in="SourceGraphic" in2="effect1_dropShadow" result="shape"/>
</filter>
<filter id="filter2_i" x="23.9502" y="238.456" width="38.7047" height="102.05" filterUnits="userSpaceOnUse" color-interpolation-filters="sRGB">
<feFlood flood-opacity="0" result="BackgroundImageFix"/>
<feBlend mode="normal" in="SourceGraphic" in2="BackgroundImageFix" result="shape"/>
<feColorMatrix in="SourceAlpha" type="matrix" values="0 0 0 0 0 0 0 0 0 0 0 0 0 0 0 0 0 0 127 0" result="hardAlpha"/>
<feOffset dy="-10"/>
<feGaussianBlur stdDeviation="11"/>
<feComposite in2="hardAlpha" operator="arithmetic" k2="-1" k3="1"/>
<feColorMatrix type="matrix" values="0 0 0 0 0.221483 0 0 0 0 0.77854 0 0 0 0 0.610041 0 0 0 1 0"/>
<feBlend mode="normal" in2="shape" result="effect1_innerShadow"/>
</filter>
<filter id="filter3_i" x="0.569824" y="283.599" width="55.1253" height="69.6879" filterUnits="userSpaceOnUse" color-interpolation-filters="sRGB">
<feFlood flood-opacity="0" result="BackgroundImageFix"/>
<feBlend mode="normal" in="SourceGraphic" in2="BackgroundImageFix" result="shape"/>
<feColorMatrix in="SourceAlpha" type="matrix" values="0 0 0 0 0 0 0 0 0 0 0 0 0 0 0 0 0 0 127 0" result="hardAlpha"/>
<feOffset dy="-10"/>
<feGaussianBlur stdDeviation="11"/>
<feComposite in2="hardAlpha" operator="arithmetic" k2="-1" k3="1"/>
<feColorMatrix type="matrix" values="0 0 0 0 0.221483 0 0 0 0 0.77854 0 0 0 0 0.610041 0 0 0 1 0"/>
<feBlend mode="normal" in2="shape" result="effect1_innerShadow"/>
</filter>
<filter id="filter4_i" x="59.4365" y="278.1" width="47.4308" height="76.4067" filterUnits="userSpaceOnUse" color-interpolation-filters="sRGB">
<feFlood flood-opacity="0" result="BackgroundImageFix"/>
<feBlend mode="normal" in="SourceGraphic" in2="BackgroundImageFix" result="shape"/>
<feColorMatrix in="SourceAlpha" type="matrix" values="0 0 0 0 0 0 0 0 0 0 0 0 0 0 0 0 0 0 127 0" result="hardAlpha"/>
<feOffset dy="-10"/>
<feGaussianBlur stdDeviation="11"/>
<feComposite in2="hardAlpha" operator="arithmetic" k2="-1" k3="1"/>
<feColorMatrix type="matrix" values="0 0 0 0 0.221483 0 0 0 0 0.77854 0 0 0 0 0.610041 0 0 0 1 0"/>
<feBlend mode="normal" in2="shape" result="effect1_innerShadow"/>
</filter>
<filter id="filter5_d" x="453.873" y="345.722" width="71.7015" height="64.63" filterUnits="userSpaceOnUse" color-interpolation-filters="sRGB">
<feFlood flood-opacity="0" result="BackgroundImageFix"/>
<feColorMatrix in="SourceAlpha" type="matrix" values="0 0 0 0 0 0 0 0 0 0 0 0 0 0 0 0 0 0 127 0"/>
<feOffset dx="-1" dy="2"/>
<feGaussianBlur stdDeviation="9.5"/>
<feColorMatrix type="matrix" values="0 0 0 0 0.563271 0 0 0 0 0.0744316 0 0 0 0 0.0744316 0 0 0 0.5 0"/>
<feBlend mode="normal" in2="BackgroundImageFix" result="effect1_dropShadow"/>
<feBlend mode="normal" in="SourceGraphic" in2="effect1_dropShadow" result="shape"/>
</filter>
<filter id="filter6_d" x="516.246" y="352.763" width="71.7015" height="64.63" filterUnits="userSpaceOnUse" color-interpolation-filters="sRGB">
<feFlood flood-opacity="0" result="BackgroundImageFix"/>
<feColorMatrix in="SourceAlpha" type="matrix" values="0 0 0 0 0 0 0 0 0 0 0 0 0 0 0 0 0 0 127 0"/>
<feOffset dx="-1" dy="2"/>
<feGaussianBlur stdDeviation="9.5"/>
<feColorMatrix type="matrix" values="0 0 0 0 0.563271 0 0 0 0 0.0744316 0 0 0 0 0.0744316 0 0 0 0.5 0"/>
<feBlend mode="normal" in2="BackgroundImageFix" result="effect1_dropShadow"/>
<feBlend mode="normal" in="SourceGraphic" in2="effect1_dropShadow" result="shape"/>
</filter>
<filter id="filter7_d" x="473.993" y="348.238" width="71.7015" height="64.63" filterUnits="userSpaceOnUse" color-interpolation-filters="sRGB">
<feFlood flood-opacity="0" result="BackgroundImageFix"/>
<feColorMatrix in="SourceAlpha" type="matrix" values="0 0 0 0 0 0 0 0 0 0 0 0 0 0 0 0 0 0 127 0"/>
<feOffset dx="-1" dy="2"/>
<feGaussianBlur stdDeviation="9.5"/>
<feColorMatrix type="matrix" values="0 0 0 0 0.563271 0 0 0 0 0.0744316 0 0 0 0 0.0744316 0 0 0 0.5 0"/>
<feBlend mode="normal" in2="BackgroundImageFix" result="effect1_dropShadow"/>
<feBlend mode="normal" in="SourceGraphic" in2="effect1_dropShadow" result="shape"/>
</filter>
<filter id="filter8_d" x="461.417" y="346.07" width="75.8137" height="70.0776" filterUnits="userSpaceOnUse" color-interpolation-filters="sRGB">
<feFlood flood-opacity="0" result="BackgroundImageFix"/>
<feColorMatrix in="SourceAlpha" type="matrix" values="0 0 0 0 0 0 0 0 0 0 0 0 0 0 0 0 0 0 127 0"/>
<feOffset dx="-1" dy="2"/>
<feGaussianBlur stdDeviation="9.5"/>
<feColorMatrix type="matrix" values="0 0 0 0 0.563271 0 0 0 0 0.0744316 0 0 0 0 0.0744316 0 0 0 0.5 0"/>
<feBlend mode="normal" in2="BackgroundImageFix" result="effect1_dropShadow"/>
<feBlend mode="normal" in="SourceGraphic" in2="effect1_dropShadow" result="shape"/>
</filter>
<filter id="filter9_d" x="491.095" y="332.991" width="72.1611" height="65.2141" filterUnits="userSpaceOnUse" color-interpolation-filters="sRGB">
<feFlood flood-opacity="0" result="BackgroundImageFix"/>
<feColorMatrix in="SourceAlpha" type="matrix" values="0 0 0 0 0 0 0 0 0 0 0 0 0 0 0 0 0 0 127 0"/>
<feOffset dx="-1" dy="2"/>
<feGaussianBlur stdDeviation="9.5"/>
<feColorMatrix type="matrix" values="0 0 0 0 0.563271 0 0 0 0 0.0744316 0 0 0 0 0.0744316 0 0 0 0.5 0"/>
<feBlend mode="normal" in2="BackgroundImageFix" result="effect1_dropShadow"/>
<feBlend mode="normal" in="SourceGraphic" in2="effect1_dropShadow" result="shape"/>
</filter>
<filter id="filter10_d" x="485.562" y="347.076" width="73.477" height="66.916" filterUnits="userSpaceOnUse" color-interpolation-filters="sRGB">
<feFlood flood-opacity="0" result="BackgroundImageFix"/>
<feColorMatrix in="SourceAlpha" type="matrix" values="0 0 0 0 0 0 0 0 0 0 0 0 0 0 0 0 0 0 127 0"/>
<feOffset dx="-1" dy="2"/>
<feGaussianBlur stdDeviation="9.5"/>
<feColorMatrix type="matrix" values="0 0 0 0 0.563271 0 0 0 0 0.0744316 0 0 0 0 0.0744316 0 0 0 0.5 0"/>
<feBlend mode="normal" in2="BackgroundImageFix" result="effect1_dropShadow"/>
<feBlend mode="normal" in="SourceGraphic" in2="effect1_dropShadow" result="shape"/>
</filter>
<filter id="filter11_d" x="510.21" y="341.039" width="77.8392" height="72.0372" filterUnits="userSpaceOnUse" color-interpolation-filters="sRGB">
<feFlood flood-opacity="0" result="BackgroundImageFix"/>
<feColorMatrix in="SourceAlpha" type="matrix" values="0 0 0 0 0 0 0 0 0 0 0 0 0 0 0 0 0 0 127 0"/>
<feOffset dx="-1" dy="2"/>
<feGaussianBlur stdDeviation="9.5"/>
<feColorMatrix type="matrix" values="0 0 0 0 0.563271 0 0 0 0 0.0744316 0 0 0 0 0.0744316 0 0 0 0.5 0"/>
<feBlend mode="normal" in2="BackgroundImageFix" result="effect1_dropShadow"/>
<feBlend mode="normal" in="SourceGraphic" in2="effect1_dropShadow" result="shape"/>
</filter>
<linearGradient id="paint0_linear" x1="173.398" y1="133.782" x2="299.084" y2="194.454" gradientUnits="userSpaceOnUse">
<stop stop-color="#CFDDF3"/>
<stop offset="1" stop-color="#7FA1E0"/>
</linearGradient>
<linearGradient id="paint1_linear" x1="241.355" y1="189.961" x2="241.355" y2="232.268" gradientUnits="userSpaceOnUse">
<stop stop-color="#CFDDF3"/>
<stop offset="1" stop-color="#A1B8E3"/>
</linearGradient>
<linearGradient id="paint2_linear" x1="226.238" y1="165.89" x2="226.238" y2="191.215" gradientUnits="userSpaceOnUse">
<stop stop-color="#CFDDF3"/>
<stop offset="1" stop-color="#A1B8E3"/>
</linearGradient>
<linearGradient id="paint3_linear" x1="215.122" y1="122.015" x2="215.122" y2="335.073" gradientUnits="userSpaceOnUse">
<stop stop-color="#CFDDF3"/>
<stop offset="1" stop-color="#A1B8E3"/>
</linearGradient>
<linearGradient id="paint4_linear" x1="550.092" y1="-46.2706" x2="334.478" y2="6.01103" gradientUnits="userSpaceOnUse">
<stop stop-color="#47689B"/>
<stop offset="1" stop-color="#223762"/>
</linearGradient>
<linearGradient id="paint5_linear" x1="395.901" y1="-116.725" x2="122.151" y2="9.18419" gradientUnits="userSpaceOnUse">
<stop stop-color="#47689B"/>
<stop offset="1" stop-color="#223762"/>
</linearGradient>
<linearGradient id="paint6_linear" x1="336.232" y1="35.7138" x2="473.662" y2="35.7138" gradientUnits="userSpaceOnUse">
<stop stop-color="#365383"/>
<stop offset="1" stop-color="#1C2C4C"/>
</linearGradient>
<linearGradient id="paint7_linear" x1="377.491" y1="376.506" x2="404.104" y2="338.875" gradientUnits="userSpaceOnUse">
<stop stop-color="#365383"/>
<stop offset="1" stop-color="#1C2C4C"/>
</linearGradient>
<linearGradient id="paint8_linear" x1="480.273" y1="167.914" x2="474.422" y2="92.6239" gradientUnits="userSpaceOnUse">
<stop stop-color="#EDF3FD"/>
<stop offset="1" stop-color="#D6E3FA"/>
</linearGradient>
<linearGradient id="paint9_linear" x1="480.273" y1="294.745" x2="474.422" y2="219.455" gradientUnits="userSpaceOnUse">
<stop stop-color="#EDF3FD"/>
<stop offset="1" stop-color="#D6E3FA"/>
</linearGradient>
<linearGradient id="paint10_linear" x1="480.273" y1="358.162" x2="474.422" y2="282.871" gradientUnits="userSpaceOnUse">
<stop stop-color="#EDF3FD"/>
<stop offset="1" stop-color="#D6E3FA"/>
</linearGradient>
<linearGradient id="paint11_linear" x1="504.682" y1="190.816" x2="492.643" y2="118.641" gradientUnits="userSpaceOnUse">
<stop stop-color="#FFE883"/>
<stop offset="1" stop-color="#FECC4C"/>
</linearGradient>
<linearGradient id="paint12_linear" x1="163.99" y1="259.264" x2="175.877" y2="240.969" gradientUnits="userSpaceOnUse">
<stop stop-color="#70B8F9"/>
<stop offset="1" stop-color="#3D82F0"/>
</linearGradient>
<linearGradient id="paint13_linear" x1="167.489" y1="443.098" x2="182.052" y2="420.818" gradientUnits="userSpaceOnUse">
<stop stop-color="#47689B"/>
<stop offset="1" stop-color="#223762"/>
</linearGradient>
<linearGradient id="paint14_linear" x1="257.38" y1="452.448" x2="269.12" y2="428.559" gradientUnits="userSpaceOnUse">
<stop stop-color="#47689B"/>
<stop offset="1" stop-color="#223762"/>
</linearGradient>
<linearGradient id="paint15_linear" x1="218.974" y1="462.81" x2="288.743" y2="304.132" gradientUnits="userSpaceOnUse">
<stop stop-color="#CFDDF3"/>
<stop offset="1" stop-color="#A1B8E3"/>
</linearGradient>
<linearGradient id="paint16_linear" x1="251.905" y1="278.608" x2="251.15" y2="265.23" gradientUnits="userSpaceOnUse">
<stop stop-color="#CFDDF3" stop-opacity="0.477723"/>
<stop offset="1" stop-color="#A1B8E3"/>
</linearGradient>
<linearGradient id="paint17_linear" x1="214.827" y1="101.084" x2="189.43" y2="118.216" gradientUnits="userSpaceOnUse">
<stop stop-color="#70B8F9"/>
<stop offset="1" stop-color="#3D82F0"/>
</linearGradient>
<linearGradient id="paint18_linear" x1="169.577" y1="100.843" x2="192.325" y2="130.834" gradientUnits="userSpaceOnUse">
<stop stop-color="#164898"/>
<stop offset="1" stop-color="#223762"/>
</linearGradient>
<linearGradient id="paint19_linear" x1="147.176" y1="218.599" x2="170.008" y2="215.601" gradientUnits="userSpaceOnUse">
<stop stop-color="#EDF3FD"/>
<stop offset="1" stop-color="#D6E3FA"/>
</linearGradient>
<linearGradient id="paint20_linear" x1="232.31" y1="243.9" x2="247.48" y2="234.228" gradientUnits="userSpaceOnUse">
<stop stop-color="#CFDDF3"/>
<stop offset="1" stop-color="#A1B8E3"/>
</linearGradient>
<linearGradient id="paint21_linear" x1="262.598" y1="175.726" x2="262.389" y2="161.487" gradientUnits="userSpaceOnUse">
<stop stop-color="#CFDDF3"/>
<stop offset="1" stop-color="#A1B8E3"/>
</linearGradient>
<linearGradient id="paint22_linear" x1="343.835" y1="259.083" x2="310.367" y2="124.848" gradientUnits="userSpaceOnUse">
<stop stop-color="#70B8F9"/>
<stop offset="1" stop-color="#3D82F0"/>
</linearGradient>
<linearGradient id="paint23_linear" x1="200.594" y1="182.364" x2="215.674" y2="213.282" gradientUnits="userSpaceOnUse">
<stop stop-color="#D6E3FA"/>
<stop offset="1" stop-color="#E3EDFE"/>
</linearGradient>
<linearGradient id="paint24_linear" x1="81.7966" y1="376.22" x2="19.9267" y2="376.22" gradientUnits="userSpaceOnUse">
<stop stop-color="#D9E5F6" stop-opacity="0.712636"/>
<stop offset="1" stop-color="#B2C6EA"/>
</linearGradient>
<linearGradient id="paint25_linear" x1="83.0356" y1="406.868" x2="93.1626" y2="368.18" gradientUnits="userSpaceOnUse">
<stop stop-color="#ACC5E9"/>
<stop offset="0.627469" stop-color="#D3E3FB"/>
<stop offset="1" stop-color="#EAF2FF"/>
</linearGradient>
<linearGradient id="paint26_linear" x1="27.4751" y1="334.894" x2="25.8681" y2="360.659" gradientUnits="userSpaceOnUse">
<stop stop-color="#86A8D9"/>
<stop offset="1" stop-color="#BCD0F2"/>
</linearGradient>
<linearGradient id="paint27_linear" x1="17.384" y1="273.426" x2="71.4458" y2="330.033" gradientUnits="userSpaceOnUse">
<stop stop-color="#B1FFBE"/>
<stop offset="0.444207" stop-color="#5CDB8E"/>
<stop offset="1" stop-color="#149654"/>
</linearGradient>
<linearGradient id="paint28_linear" x1="16.5974" y1="290.62" x2="24.3707" y2="350.691" gradientUnits="userSpaceOnUse">
<stop stop-color="#B1FFBE"/>
<stop offset="0.444207" stop-color="#5CDB8E"/>
<stop offset="1" stop-color="#149654"/>
</linearGradient>
<linearGradient id="paint29_linear" x1="51.0555" y1="305.677" x2="86.6572" y2="361.553" gradientUnits="userSpaceOnUse">
<stop stop-color="#B1FFBE"/>
<stop offset="0.444207" stop-color="#5CDB8E"/>
<stop offset="1" stop-color="#149654"/>
</linearGradient>
<linearGradient id="paint30_linear" x1="72.7285" y1="87.4447" x2="92.6952" y2="48.3778" gradientUnits="userSpaceOnUse">
<stop stop-color="#ACC1E3"/>
<stop offset="1" stop-color="#D6E3FA"/>
</linearGradient>
<linearGradient id="paint31_linear" x1="644.689" y1="191.97" x2="670.963" y2="165.164" gradientUnits="userSpaceOnUse">
<stop stop-color="#ACC1E3"/>
<stop offset="1" stop-color="#D6E3FA"/>
</linearGradient>
<linearGradient id="paint32_linear" x1="537.9" y1="0.599246" x2="522.546" y2="47.2406" gradientUnits="userSpaceOnUse">
<stop stop-color="#FF9D61"/>
<stop offset="1" stop-color="#FFD873"/>
</linearGradient>
<linearGradient id="paint33_linear" x1="459.204" y1="359.154" x2="455.956" y2="443.162" gradientUnits="userSpaceOnUse">
<stop stop-color="#9CB4E0"/>
<stop offset="1" stop-color="white" stop-opacity="0.01"/>
</linearGradient>
<linearGradient id="paint34_linear" x1="524.37" y1="331.446" x2="592.61" y2="392.962" gradientUnits="userSpaceOnUse">
<stop stop-color="#85A6DB"/>
<stop offset="1" stop-color="#C6D4EE"/>
</linearGradient>
<linearGradient id="paint35_linear" x1="696.064" y1="363.946" x2="637.331" y2="423.093" gradientUnits="userSpaceOnUse">
<stop stop-color="#EDF3FD"/>
<stop offset="1" stop-color="#D0DAEA"/>
</linearGradient>
<linearGradient id="paint36_linear" x1="514.812" y1="266.052" x2="583.051" y2="327.568" gradientUnits="userSpaceOnUse">
<stop stop-color="#85A6DB"/>
<stop offset="1" stop-color="#C6D4EE"/>
</linearGradient>
<linearGradient id="paint37_linear" x1="686.505" y1="298.554" x2="627.772" y2="357.702" gradientUnits="userSpaceOnUse">
<stop stop-color="#EDF3FD"/>
<stop offset="1" stop-color="#D0DAEA"/>
</linearGradient>
<linearGradient id="paint38_linear" x1="526.104" y1="388.83" x2="522.856" y2="472.837" gradientUnits="userSpaceOnUse">
<stop stop-color="#9CB4E0"/>
<stop offset="1" stop-color="white" stop-opacity="0.01"/>
</linearGradient>
<linearGradient id="paint39_linear" x1="591.271" y1="361.119" x2="659.51" y2="422.635" gradientUnits="userSpaceOnUse">
<stop stop-color="#85A6DB"/>
<stop offset="1" stop-color="#C6D4EE"/>
</linearGradient>
<linearGradient id="paint40_linear" x1="762.965" y1="393.621" x2="704.231" y2="452.768" gradientUnits="userSpaceOnUse">
<stop stop-color="#EDF3FD"/>
<stop offset="1" stop-color="#D0DAEA"/>
</linearGradient>
<linearGradient id="paint41_linear" x1="363.077" y1="408.858" x2="359.829" y2="492.865" gradientUnits="userSpaceOnUse">
<stop stop-color="#9CB4E0"/>
<stop offset="1" stop-color="white" stop-opacity="0.01"/>
</linearGradient>
<linearGradient id="paint42_linear" x1="485.745" y1="348.295" x2="471.211" y2="374.805" gradientUnits="userSpaceOnUse">
<stop stop-color="#FF6B67"/>
<stop offset="1" stop-color="#F05971"/>
</linearGradient>
<linearGradient id="paint43_linear" x1="572.55" y1="372.063" x2="548.537" y2="390.432" gradientUnits="userSpaceOnUse">
<stop stop-color="#FF6B67"/>
<stop offset="1" stop-color="#F05971"/>
</linearGradient>
<linearGradient id="paint44_linear" x1="530.297" y1="367.539" x2="506.284" y2="385.907" gradientUnits="userSpaceOnUse">
<stop stop-color="#FF6B67"/>
<stop offset="1" stop-color="#F05971"/>
</linearGradient>
<linearGradient id="paint45_linear" x1="588.159" y1="360.903" x2="560.629" y2="373.399" gradientUnits="userSpaceOnUse">
<stop stop-color="#FF6B67"/>
<stop offset="1" stop-color="#F05971"/>
</linearGradient>
<linearGradient id="paint46_linear" x1="519.754" y1="354.327" x2="492.226" y2="366.826" gradientUnits="userSpaceOnUse">
<stop stop-color="#FF6B67"/>
<stop offset="1" stop-color="#F05971"/>
</linearGradient>
<linearGradient id="paint47_linear" x1="517.57" y1="364.884" x2="497.111" y2="387.143" gradientUnits="userSpaceOnUse">
<stop stop-color="#FF6B67"/>
<stop offset="1" stop-color="#F05971"/>
</linearGradient>
<linearGradient id="paint48_linear" x1="564.662" y1="353.185" x2="534.803" y2="357.923" gradientUnits="userSpaceOnUse">
<stop stop-color="#FF6B67"/>
<stop offset="1" stop-color="#F05971"/>
</linearGradient>
<linearGradient id="paint49_linear" x1="547.819" y1="352.925" x2="523.488" y2="370.871" gradientUnits="userSpaceOnUse">
<stop stop-color="#FF6B67"/>
<stop offset="1" stop-color="#F05971"/>
</linearGradient>
<linearGradient id="paint50_linear" x1="543.475" y1="368.903" x2="518.239" y2="385.552" gradientUnits="userSpaceOnUse">
<stop stop-color="#FF6B67"/>
<stop offset="1" stop-color="#F05971"/>
</linearGradient>
<linearGradient id="paint51_linear" x1="562.802" y1="354.052" x2="548.336" y2="380.6" gradientUnits="userSpaceOnUse">
<stop stop-color="#FF6B67"/>
<stop offset="1" stop-color="#F05971"/>
</linearGradient>
<linearGradient id="paint52_linear" x1="428.244" y1="380.391" x2="496.484" y2="441.907" gradientUnits="userSpaceOnUse">
<stop stop-color="#85A6DB"/>
<stop offset="1" stop-color="#C6D4EE"/>
</linearGradient>
<linearGradient id="paint53_linear" x1="599.938" y1="412.89" x2="541.204" y2="472.038" gradientUnits="userSpaceOnUse">
<stop stop-color="#EDF3FD"/>
<stop offset="1" stop-color="#D0DAEA"/>
</linearGradient>
<linearGradient id="paint54_linear" x1="571.07" y1="382.868" x2="541.919" y2="416.71" gradientUnits="userSpaceOnUse">
<stop stop-color="#B4C9E7"/>
<stop offset="1" stop-color="#BECFEC" stop-opacity="0.101789"/>
</linearGradient>
<linearGradient id="paint55_linear" x1="429.105" y1="357.691" x2="429.105" y2="412.519" gradientUnits="userSpaceOnUse">
<stop stop-color="#EDF3FD"/>
<stop offset="1" stop-color="#D6E3FA"/>
</linearGradient>
<linearGradient id="paint56_linear" x1="631.152" y1="369.923" x2="624.617" y2="434.405" gradientUnits="userSpaceOnUse">
<stop stop-color="#E5ECF8"/>
<stop offset="1" stop-color="#C6D4EE"/>
</linearGradient>
</defs>
</svg>
