<svg width="670" height="268" viewBox="0 0 670 268" fill="none" xmlns="http://www.w3.org/2000/svg">
<mask id="mask0" mask-type="alpha" maskUnits="userSpaceOnUse" x="0" y="0" width="670" height="268">
<rect width="670" height="268" fill="#C4C4C4"/>
</mask>
<g mask="url(#mask0)">
<g opacity="0.3">
<path fill-rule="evenodd" clip-rule="evenodd" d="M232.445 198.442C229.191 201.32 216.818 195.564 211.913 186.629C207.007 177.695 216.107 174.514 203.73 160.224C191.352 145.935 183.41 140.462 190.921 116.907C198.433 93.3528 188.056 80.2623 201.767 74.1171C215.478 67.9718 223.375 88.3672 221.802 106.307C220.229 124.247 223.446 127.965 236.857 126.106C250.269 124.247 238.962 150.584 238.962 156.333C238.962 162.082 247.094 172.76 245.407 180.793C243.72 188.827 235.698 195.564 232.445 198.442Z" fill="url(#paint0_linear)"/>
<path fill-rule="evenodd" clip-rule="evenodd" d="M231.791 145.92C232.314 145.92 232.738 146.344 232.738 146.866C232.738 151.8 231.517 157.56 230.012 162.545C228.509 167.521 226.686 171.845 225.417 173.897C225.142 174.342 224.559 174.479 224.114 174.204C223.67 173.93 223.532 173.346 223.807 172.902C224.949 171.055 226.715 166.913 228.2 161.998C229.681 157.093 230.845 151.535 230.845 146.866C230.845 146.344 231.269 145.92 231.791 145.92Z" fill="url(#paint1_linear)"/>
<path fill-rule="evenodd" clip-rule="evenodd" d="M196.122 131.004C195.699 131.311 195.604 131.903 195.911 132.326C199.071 136.688 203.852 139.646 207.682 142.003L207.783 142.065C209.69 143.239 211.324 144.244 212.496 145.216C213.723 146.234 214.184 147.008 214.184 147.654C214.184 148.176 214.608 148.6 215.131 148.6C215.653 148.6 216.077 148.176 216.077 147.654C216.077 146.093 214.99 144.825 213.704 143.759C212.427 142.7 210.695 141.634 208.858 140.504C208.797 140.467 208.735 140.429 208.674 140.391C204.794 138.003 200.348 135.226 197.444 131.216C197.137 130.792 196.546 130.698 196.122 131.004Z" fill="url(#paint2_linear)"/>
<path fill-rule="evenodd" clip-rule="evenodd" d="M208.16 103.307C208.682 103.307 209.106 103.73 209.106 104.253C209.106 117.203 212.909 133.339 217.985 150.017C221.3 160.909 225.136 171.969 228.783 182.482C230.72 188.067 232.604 193.497 234.327 198.666C239.575 214.404 241.957 228.256 243.073 234.745C243.294 236.028 243.465 237.023 243.599 237.688C243.702 238.201 243.371 238.7 242.858 238.803C242.346 238.906 241.847 238.575 241.744 238.062C241.604 237.367 241.427 236.342 241.201 235.029C240.076 228.496 237.724 214.838 232.531 199.265C230.823 194.14 228.947 188.732 227.013 183.158C223.358 172.62 219.498 161.491 216.174 150.568C211.092 133.868 207.213 117.503 207.213 104.253C207.213 103.73 207.637 103.307 208.16 103.307Z" fill="url(#paint3_linear)"/>
</g>
<path opacity="0.5" fill-rule="evenodd" clip-rule="evenodd" d="M116.357 225.069L263.099 206.447L445.313 260.344L305.972 295.347" fill="url(#paint4_linear)"/>
<path fill-rule="evenodd" clip-rule="evenodd" d="M324.669 226.343C325.08 225.305 326.246 224.8 327.273 225.216L352.771 235.52C353.798 235.936 354.298 237.113 353.887 238.151C353.476 239.189 352.31 239.694 351.282 239.279L325.785 228.974C324.757 228.559 324.258 227.381 324.669 226.343Z" fill="url(#paint5_linear)"/>
<path fill-rule="evenodd" clip-rule="evenodd" d="M325.865 232.162C326.332 233.16 325.882 234.339 324.858 234.795L281.885 253.946C280.861 254.402 279.652 253.962 279.185 252.964C278.717 251.966 279.168 250.787 280.191 250.331L323.165 231.18C324.188 230.724 325.397 231.164 325.865 232.162Z" fill="url(#paint6_linear)"/>
<path fill-rule="evenodd" clip-rule="evenodd" d="M352.507 239.616C353.288 240.413 353.26 241.677 352.444 242.44L317.462 275.128C316.646 275.891 315.35 275.863 314.568 275.066C313.787 274.27 313.815 273.005 314.631 272.242L349.613 239.555C350.429 238.792 351.725 238.819 352.507 239.616Z" fill="url(#paint7_linear)"/>
<path fill-rule="evenodd" clip-rule="evenodd" d="M526.28 205.196V220.913C526.28 223.011 523.822 227.188 521.854 227.904L439.269 263.757C431.663 266.526 423.377 266.806 415.602 264.557L265.947 209.37C264.145 208.849 262.904 207.195 262.904 205.315L262.904 189.215L352.893 186.944C356.497 186.423 360.156 186.42 363.761 186.935L526.28 205.196Z" fill="url(#paint8_linear)"/>
<g filter="url(#filter0_d)">
<path fill-rule="evenodd" clip-rule="evenodd" d="M526.28 185.317V203.72C526.28 205.818 524.97 207.693 523.003 208.409L439.269 243.878C431.663 246.647 423.377 246.927 415.602 244.678L265.947 190.642C264.145 190.121 262.904 188.467 262.904 186.587L262.904 169.336L352.893 167.065C356.497 166.544 360.156 166.541 363.761 167.057L526.28 185.317Z" fill="url(#paint9_linear)"/>
</g>
<g filter="url(#filter1_d)">
<path fill-rule="evenodd" clip-rule="evenodd" d="M526.28 166.072V184.283C526.28 186.36 524.97 188.214 523.003 188.923L439.269 224.023C431.663 226.763 423.377 227.04 415.602 224.814L265.947 171.342C264.145 170.826 262.904 169.19 262.904 167.329L262.904 150.257L352.893 148.01C356.497 147.494 360.156 147.491 363.761 148.002L526.28 166.072Z" fill="url(#paint10_linear)"/>
</g>
<g filter="url(#filter2_d)">
<path fill-rule="evenodd" clip-rule="evenodd" d="M526.28 144.733V163.136C526.28 165.234 524.97 167.109 523.003 167.825L439.269 203.294C431.663 206.063 423.377 206.343 415.602 204.094L265.947 150.058C264.145 149.537 262.904 147.883 262.904 146.003L262.904 128.752L352.893 126.481C356.497 125.96 360.156 125.957 363.761 126.473L526.28 144.733Z" fill="url(#paint11_linear)"/>
</g>
<g filter="url(#filter3_d)">
<path fill-rule="evenodd" clip-rule="evenodd" d="M526.28 125.055V143.649C526.28 145.769 524.97 147.663 523.003 148.386L439.269 184.225C431.663 187.023 423.377 187.306 415.602 185.033L265.947 130.435C264.145 129.908 262.904 128.237 262.904 126.337L262.904 108.906L352.893 106.612C356.497 106.085 360.156 106.082 363.761 106.604L526.28 125.055Z" fill="url(#paint12_linear)"/>
</g>
<g filter="url(#filter4_d)">
<path fill-rule="evenodd" clip-rule="evenodd" d="M526.28 105.995V125.725C526.28 127.801 524.97 129.656 523.003 130.365L439.269 163.566C431.663 166.306 423.377 166.583 415.602 164.357L265.947 114.302C264.145 113.787 262.904 112.15 262.904 110.289L262.904 89.8002L352.893 87.553C356.497 87.0372 360.156 87.0344 363.761 87.5447L526.28 105.995Z" fill="url(#paint13_linear)"/>
</g>
<g filter="url(#filter5_d)">
<path fill-rule="evenodd" clip-rule="evenodd" d="M526.28 90.3372V108.543C526.28 110.664 524.97 112.558 523.003 113.281L439.269 144.467C431.663 147.265 423.377 147.548 415.602 145.276L265.947 97.2685C264.145 96.7418 262.904 95.0709 262.904 93.1707L262.904 76.1276L352.893 66.8542C356.497 66.3275 360.156 66.3246 363.761 66.8457L526.28 90.3372Z" fill="url(#paint14_linear)"/>
</g>
<path fill-rule="evenodd" clip-rule="evenodd" d="M348.647 50.4275C354.794 48.7503 361.267 48.621 367.477 50.0515L521.832 85.6035C527.434 86.8939 527.865 94.6431 522.44 96.5369L439.202 125.592C431.502 128.28 423.138 128.459 415.328 126.102L265.893 81.0077C261.852 79.7882 261.93 74.0863 266.002 72.9751L348.647 50.4275Z" fill="url(#paint15_linear)"/>
<path fill-rule="evenodd" clip-rule="evenodd" d="M377.876 54.8594L506.402 85.4686L409.703 120.289L286.094 82.8352L377.876 54.8594Z" fill="white"/>
<path fill-rule="evenodd" clip-rule="evenodd" d="M331.017 209.715C331.388 208.642 332.564 208.071 333.643 208.44L356.623 216.293C357.702 216.662 358.276 217.83 357.905 218.903C357.534 219.976 356.358 220.546 355.279 220.178L332.3 212.325C331.22 211.956 330.646 210.788 331.017 209.715Z" fill="#1B2B4F"/>
<path fill-rule="evenodd" clip-rule="evenodd" d="M331.017 192.168C331.388 191.095 332.564 190.525 333.643 190.893L356.623 198.746C357.702 199.115 358.276 200.283 357.905 201.356C357.534 202.429 356.358 203 355.279 202.631L332.3 194.778C331.22 194.41 330.646 193.241 331.017 192.168Z" fill="#1B2B4F"/>
<path fill-rule="evenodd" clip-rule="evenodd" d="M331.017 172.937C331.388 171.936 332.564 171.403 333.643 171.747L356.623 179.076C357.702 179.42 358.276 180.511 357.905 181.512C357.534 182.514 356.358 183.046 355.279 182.702L332.3 175.373C331.22 175.029 330.646 173.938 331.017 172.937Z" fill="#1B2B4F"/>
<path fill-rule="evenodd" clip-rule="evenodd" d="M331.017 152.297C331.388 151.224 332.564 150.654 333.643 151.022L356.623 158.875C357.702 159.244 358.276 160.412 357.905 161.485C357.534 162.558 356.358 163.129 355.279 162.76L332.3 154.907C331.22 154.538 330.646 153.37 331.017 152.297Z" fill="#1B2B4F"/>
<path fill-rule="evenodd" clip-rule="evenodd" d="M330.991 130.837C331.312 129.755 332.437 129.142 333.502 129.469L356.584 136.539C357.649 136.865 358.253 138.007 357.931 139.089C357.61 140.171 356.486 140.784 355.42 140.457L332.338 133.387C331.273 133.061 330.67 131.919 330.991 130.837Z" fill="#1B2B4F"/>
<path fill-rule="evenodd" clip-rule="evenodd" d="M357.619 115.027C358.72 115.027 359.613 115.935 359.613 117.054V229.428C359.613 230.547 358.72 231.455 357.619 231.455C356.518 231.455 355.625 230.547 355.625 229.428V117.054C355.625 115.935 356.518 115.027 357.619 115.027Z" fill="#1B2B4F"/>
<path fill-rule="evenodd" clip-rule="evenodd" d="M330.905 107.848C332.226 107.848 333.297 108.753 333.297 109.871V219.859C333.297 220.977 332.226 221.883 330.905 221.883C329.583 221.883 328.512 220.977 328.512 219.859V109.871C328.512 108.753 329.583 107.848 330.905 107.848Z" fill="#1B2B4F"/>
<path fill-rule="evenodd" clip-rule="evenodd" d="M128.803 71C127.147 71 125.804 72.3445 125.804 74.0031V90.14C125.804 91.7986 127.147 93.1431 128.803 93.1431H136.944L140.475 96.678C141.646 97.8507 143.546 97.8507 144.717 96.678L148.248 93.1431H156.798C158.455 93.1431 159.798 91.7986 159.798 90.14V74.0031C159.798 72.3445 158.455 71 156.798 71H128.803Z" fill="url(#paint16_linear)"/>
<path fill-rule="evenodd" clip-rule="evenodd" d="M143.331 89.0545C129.86 82.1063 139.603 73.468 143.331 79.2857C147.06 73.468 156.803 82.1063 143.331 89.0545Z" fill="white"/>
<path fill-rule="evenodd" clip-rule="evenodd" d="M79.4935 139.224C79.4935 144.268 75.4176 154.153 80.7326 156.715C86.0475 159.278 90.7476 145.968 90.7476 145.968C90.7476 145.968 90.3425 136.194 85.5375 136.194C80.7326 136.194 79.4935 134.18 79.4935 139.224Z" fill="url(#paint17_linear)"/>
<mask id="mask1" mask-type="alpha" maskUnits="userSpaceOnUse" x="78" y="135" width="13" height="23">
<path fill-rule="evenodd" clip-rule="evenodd" d="M79.4935 139.224C79.4935 144.268 75.4176 154.153 80.7326 156.715C86.0475 159.278 90.7476 145.968 90.7476 145.968C90.7476 145.968 90.3425 136.194 85.5375 136.194C80.7326 136.194 79.4935 134.18 79.4935 139.224Z" fill="white"/>
</mask>
<g mask="url(#mask1)">
<g opacity="0.5">
<path fill-rule="evenodd" clip-rule="evenodd" d="M79.0767 142.345C79.5204 143.144 85.5657 147.371 86.5654 148.371C87.565 149.37 87.7936 151.983 88.3676 151.713C88.9416 151.443 88.3676 143.779 88.3676 143.779C88.3676 143.779 78.6331 141.545 79.0767 142.345Z" fill="#3D82F0" style="mix-blend-mode:multiply"/>
</g>
</g>
<path fill-rule="evenodd" clip-rule="evenodd" d="M88.9153 253.105C88.9153 255.704 88.2599 258.951 88.9153 260.241C89.5708 261.532 92.8195 262.211 93.8913 262.211C94.9631 262.211 95.3216 260.359 96.9861 261.312C98.6506 262.264 108.137 262.211 108.754 258.346C109.37 254.482 104.561 254.482 102.422 254.482C100.282 254.482 98.0171 253.415 94.8409 250.644C91.6646 247.874 88.9153 250.507 88.9153 253.105Z" fill="url(#paint18_linear)"/>
<path fill-rule="evenodd" clip-rule="evenodd" d="M98.2373 252.871C98.1085 253.065 98.2254 253.297 98.4984 253.389C99.1924 253.622 99.4722 253.83 99.6652 254.1C99.7722 254.25 99.8606 254.432 99.9592 254.675C100.007 254.792 100.055 254.92 100.109 255.062L100.114 255.074C100.169 255.22 100.23 255.38 100.3 255.553C100.382 255.76 100.685 255.879 100.975 255.82C101.265 255.761 101.434 255.546 101.351 255.34C101.283 255.172 101.224 255.017 101.169 254.871L101.163 254.856C101.11 254.716 101.06 254.584 101.009 254.46C100.906 254.204 100.795 253.966 100.64 253.749C100.31 253.286 99.8166 252.972 98.9648 252.686C98.6918 252.594 98.3661 252.677 98.2373 252.871Z" fill="white"/>
<path fill-rule="evenodd" clip-rule="evenodd" d="M102.699 254.527C103.014 254.66 103.285 254.958 103.54 255.575C103.619 255.764 103.906 255.874 104.181 255.82C104.457 255.766 104.616 255.568 104.538 255.379C104.273 254.741 103.916 254.204 103.243 253.919C102.552 253.626 101.69 253.664 100.673 253.882C100.4 253.941 100.247 254.141 100.332 254.329C100.418 254.518 100.708 254.623 100.982 254.564C101.919 254.363 102.403 254.401 102.699 254.527Z" fill="white"/>
<path fill-rule="evenodd" clip-rule="evenodd" d="M136.764 257.663C136.764 260.478 136.005 263.996 136.764 265.394C137.523 266.792 141.285 267.527 142.526 267.527C143.767 267.527 144.182 265.521 146.109 266.553C148.036 267.585 159.021 267.527 159.735 263.34C160.448 259.154 154.88 259.154 152.403 259.154C149.926 259.154 147.303 257.998 143.625 254.997C139.947 251.995 136.764 254.848 136.764 257.663Z" fill="url(#paint19_linear)"/>
<path fill-rule="evenodd" clip-rule="evenodd" d="M148.155 257.259C148.049 257.569 148.149 257.935 148.378 258.078C149.06 258.502 149.44 258.92 149.709 259.439C149.99 259.981 150.177 260.681 150.405 261.764C150.474 262.092 150.727 262.282 150.969 262.188C151.211 262.095 151.351 261.753 151.282 261.426C151.054 260.342 150.833 259.459 150.456 258.731C150.067 257.981 149.538 257.442 148.76 256.957C148.531 256.815 148.26 256.95 148.155 257.259Z" fill="white"/>
<path fill-rule="evenodd" clip-rule="evenodd" d="M152.03 260.25C152.266 260.45 152.469 260.898 152.661 261.822C152.72 262.106 152.935 262.271 153.142 262.19C153.349 262.109 153.468 261.812 153.409 261.528C153.211 260.572 152.943 259.765 152.438 259.338C151.92 258.899 151.274 258.956 150.511 259.284C150.306 259.372 150.191 259.672 150.255 259.954C150.319 260.236 150.537 260.394 150.742 260.306C151.445 260.004 151.808 260.062 152.03 260.25Z" fill="white"/>
<path fill-rule="evenodd" clip-rule="evenodd" d="M128.613 165.541C128.613 165.541 139.217 203.889 140.598 212.614C141.979 221.34 145.357 250.834 144.88 255.591C142.572 257.913 138.415 256.523 137.691 256.097C136.967 255.671 132.505 231.404 128.613 221.99C124.721 212.576 115.963 203.913 110.191 194.441C110.191 200.606 105.735 217.103 105.735 217.103C105.735 217.103 99.2363 246.236 97.0249 250.952C95.9756 252.625 90.6784 251.398 88.6238 250.952C88.6238 246.533 93.0538 224.21 93.0538 216.46C93.0538 208.71 91.8286 194.666 91.3709 188.908C90.9132 183.151 89.7948 171.981 91.3709 165.541C95.3662 165.541 128.613 165.541 128.613 165.541Z" fill="url(#paint20_linear)"/>
<mask id="mask2" mask-type="alpha" maskUnits="userSpaceOnUse" x="88" y="165" width="57" height="92">
<path fill-rule="evenodd" clip-rule="evenodd" d="M128.613 165.541C128.613 165.541 139.217 203.889 140.598 212.614C141.979 221.34 145.357 250.834 144.88 255.591C142.572 257.913 138.415 256.523 137.691 256.097C136.967 255.671 132.505 231.404 128.613 221.99C124.721 212.576 115.963 203.913 110.191 194.441C110.191 200.606 105.735 217.103 105.735 217.103C105.735 217.103 99.2363 246.236 97.0249 250.952C95.9756 252.625 90.6784 251.398 88.6238 250.952C88.6238 246.533 93.0538 224.21 93.0538 216.46C93.0538 208.71 91.8286 194.666 91.3709 188.908C90.9132 183.151 89.7948 171.981 91.3709 165.541C95.3662 165.541 128.613 165.541 128.613 165.541Z" fill="white"/>
</mask>
<g mask="url(#mask2)">
<g opacity="0.5">
<path fill-rule="evenodd" clip-rule="evenodd" d="M104.558 221.513C104.558 217.827 106.52 187.713 106.971 188.949C107.421 190.185 110.932 196.858 110.932 196.858C110.932 196.858 104.558 225.198 104.558 221.513Z" fill="#A1B8E3" style="mix-blend-mode:multiply"/>
</g>
<path fill-rule="evenodd" clip-rule="evenodd" d="M107.12 187.861C107.426 187.797 107.733 187.964 107.806 188.234C108.102 189.327 108.832 190.667 109.655 192.007C110.01 192.583 110.387 193.169 110.747 193.726C111.198 194.425 111.621 195.08 111.931 195.615C112.075 195.862 111.964 196.164 111.684 196.291C111.403 196.417 111.06 196.319 110.917 196.072C110.609 195.542 110.215 194.932 109.781 194.26C109.423 193.707 109.038 193.112 108.654 192.486C107.829 191.144 107.032 189.702 106.698 188.467C106.625 188.197 106.814 187.926 107.12 187.861Z" fill="white"/>
<g opacity="0.5">
<path fill-rule="evenodd" clip-rule="evenodd" d="M94.1129 171.943C96.6167 173.28 106.422 178.975 119.057 176.693C125.299 175.565 129.315 174.09 131.116 171.943C131.116 170.885 129.602 166.437 129.179 164.735C128.756 163.033 91.0465 170.304 94.1129 171.943Z" fill="url(#paint21_linear)" style="mix-blend-mode:multiply"/>
</g>
</g>
<path fill-rule="evenodd" clip-rule="evenodd" d="M110.714 83.7441C110.714 83.7441 112.132 86.4579 114.533 87.6101C116.935 88.7622 118.135 89.3259 118.135 89.3259L117.114 93.2388C117.114 93.2388 119.017 98.9927 118.135 100.933C117.253 102.873 114.533 104.161 112.95 105.891C111.367 107.621 109.904 113.489 109.904 113.489H99.4712L98.9988 105.891C98.9988 105.891 96.2164 94.9281 100.937 89.3259C105.658 83.7237 110.714 83.7441 110.714 83.7441Z" fill="url(#paint22_linear)"/>
<mask id="mask3" mask-type="alpha" maskUnits="userSpaceOnUse" x="98" y="83" width="21" height="31">
<path fill-rule="evenodd" clip-rule="evenodd" d="M110.714 83.7441C110.714 83.7441 112.132 86.4579 114.533 87.6101C116.935 88.7622 118.135 89.3259 118.135 89.3259L117.114 93.2388C117.114 93.2388 119.017 98.9927 118.135 100.933C117.253 102.873 114.533 104.161 112.95 105.891C111.367 107.621 109.904 113.489 109.904 113.489H99.4712L98.9988 105.891C98.9988 105.891 96.2164 94.9281 100.937 89.3259C105.658 83.7237 110.714 83.7441 110.714 83.7441Z" fill="white"/>
</mask>
<g mask="url(#mask3)">
<g opacity="0.5">
<path fill-rule="evenodd" clip-rule="evenodd" d="M113.735 104.968C110.919 104.968 106.528 102.644 105.683 101.851C104.838 101.057 112.72 109.645 112.062 111.013C111.543 112.092 109.69 112.422 110.859 112.422C115.074 112.422 116.55 104.968 113.735 104.968Z" fill="#3D82F0" style="mix-blend-mode:multiply"/>
</g>
</g>
<path fill-rule="evenodd" clip-rule="evenodd" d="M98.8168 106.056C89.791 97.532 82.6441 90.2576 88.8078 80.1212C94.9715 69.9848 109.313 66.5773 111.994 78.899C111.994 84.1858 108.13 87.0101 108.13 87.0101C108.13 87.0101 107.408 88.4961 109.313 90.0725C111.219 91.6489 109.313 92.9517 109.313 92.9517C109.313 92.9517 105.55 90.5064 104.568 93.7628C103.585 97.0192 107.212 98.1848 107.212 98.9999C108.462 101.995 105.882 104.735 105.882 104.735C105.882 104.735 104.561 106.056 98.8168 106.056Z" fill="url(#paint23_linear)"/>
<path fill-rule="evenodd" clip-rule="evenodd" d="M88.9227 117.744C88.9227 117.744 79.2473 134.688 78.0799 138.417C76.9125 142.145 88.9227 144.302 88.9227 144.302L93.9345 122.987L88.9227 117.744Z" fill="url(#paint24_linear)"/>
<path fill-rule="evenodd" clip-rule="evenodd" d="M110.748 110.583C110.748 110.583 118.175 112.591 122.551 117.899C126.927 123.207 125.952 139.175 127.192 148.679C128.431 158.183 133.824 165.091 125.494 170.455C117.163 175.818 93.6085 174.6 91.6822 170.455C89.7559 166.309 87.5603 140.831 87.5603 140.831C87.5603 140.831 87.5603 117.899 90.1914 115.966C92.8225 114.033 98.9647 110.297 98.9647 110.297C98.9647 110.297 98.827 110.865 101.79 111.429C104.753 111.992 110.748 110.583 110.748 110.583Z" fill="#D6E3FA"/>
<mask id="mask4" mask-type="alpha" maskUnits="userSpaceOnUse" x="87" y="110" width="44" height="65">
<path fill-rule="evenodd" clip-rule="evenodd" d="M110.748 110.583C110.748 110.583 118.175 112.591 122.551 117.899C126.927 123.207 125.952 139.175 127.192 148.679C128.431 158.183 133.824 165.091 125.494 170.455C117.163 175.818 93.6085 174.6 91.6822 170.455C89.7559 166.309 87.5603 140.831 87.5603 140.831C87.5603 140.831 87.5603 117.899 90.1914 115.966C92.8225 114.033 98.9647 110.297 98.9647 110.297C98.9647 110.297 98.827 110.865 101.79 111.429C104.753 111.992 110.748 110.583 110.748 110.583Z" fill="white"/>
</mask>
<g mask="url(#mask4)">
<path opacity="0.5" fill-rule="evenodd" clip-rule="evenodd" d="M117.305 128.357C117.305 128.357 121.291 147.347 123.69 150.907C126.089 154.466 127.649 165.237 129.568 166.521C131.488 167.805 134.247 153.113 132.868 148.082C131.488 143.052 125.272 130.73 125.272 130.73L117.305 128.357Z" fill="url(#paint25_linear)"/>
<path opacity="0.5" fill-rule="evenodd" clip-rule="evenodd" d="M100.515 112.4C102.34 113.793 107.097 114.547 111.095 114.547C115.093 114.547 116.344 114.596 118.257 113.926C120.17 113.256 119.428 112.4 118.257 112.4C117.086 112.4 113.453 111.418 111.497 111.418C109.542 111.418 98.6891 111.007 100.515 112.4Z" fill="url(#paint26_linear)"/>
</g>
<path fill-rule="evenodd" clip-rule="evenodd" d="M98.4154 111.248C98.4154 111.248 98.1843 109.113 98.1843 108.424C98.1843 107.735 105.922 108.708 111.49 109.094C112.094 110.812 111.987 110.926 111.987 111.248C111.987 111.41 110.596 112.792 103.115 112.344C100.384 112.18 98.4154 111.248 98.4154 111.248Z" fill="#E1ECFF"/>
<path fill-rule="evenodd" clip-rule="evenodd" d="M136.704 133.565C138.36 129.844 139.298 124.098 137.543 123.316C135.788 122.535 133.299 126.499 131.642 130.219C129.986 133.94 131.015 136.35 132.03 137.354C133.17 137.589 135.047 137.286 136.704 133.565Z" fill="#A1B8E3"/>
<path fill-rule="evenodd" clip-rule="evenodd" d="M134.749 122.443L142.516 125.64C142.516 125.64 149.405 107.26 149.823 104.875C150.241 102.489 148.389 99.1228 148.089 97.9226C147.79 96.7224 147.839 93.8981 148.675 92.8646C149.511 91.831 149.732 92.2002 150.356 92.0444C153.877 92.4094 157.54 85.891 158.647 85.1398C159.754 84.3887 160.813 86.9141 161.231 88.5159C161.649 90.1177 161.877 94.0737 161.169 96.4985C160.462 98.9233 157.197 103.319 157.43 104.253C157.663 105.188 154.367 121.03 153.318 127.365C152.269 133.701 150.898 138.144 145.542 137.778C140.187 137.411 129.089 131.456 129.089 131.456C129.089 131.456 129.815 126.831 131.201 125.086C132.588 123.341 134.749 122.443 134.749 122.443Z" fill="url(#paint27_linear)"/>
<mask id="mask5" mask-type="alpha" maskUnits="userSpaceOnUse" x="129" y="85" width="33" height="53">
<path fill-rule="evenodd" clip-rule="evenodd" d="M134.749 122.443L142.516 125.64C142.516 125.64 149.405 107.26 149.823 104.875C150.241 102.489 148.389 99.1228 148.089 97.9226C147.79 96.7224 147.839 93.8981 148.675 92.8646C149.511 91.831 149.732 92.2002 150.356 92.0444C153.877 92.4094 157.54 85.891 158.647 85.1398C159.754 84.3887 160.813 86.9141 161.231 88.5159C161.649 90.1177 161.877 94.0737 161.169 96.4985C160.462 98.9233 157.197 103.319 157.43 104.253C157.663 105.188 154.367 121.03 153.318 127.365C152.269 133.701 150.898 138.144 145.542 137.778C140.187 137.411 129.089 131.456 129.089 131.456C129.089 131.456 129.815 126.831 131.201 125.086C132.588 123.341 134.749 122.443 134.749 122.443Z" fill="white"/>
</mask>
<g mask="url(#mask5)">
<g opacity="0.5">
<path fill-rule="evenodd" clip-rule="evenodd" d="M137.298 123.293C137.298 123.293 135.652 132.923 136.685 135.756C137.718 138.59 132.053 134.591 132.053 134.591C132.053 134.591 132.163 130.465 133.034 128.59C133.904 126.714 137.298 123.293 137.298 123.293Z" fill="#3D82F0" style="mix-blend-mode:multiply"/>
</g>
<path fill-rule="evenodd" clip-rule="evenodd" d="M141.906 125.201C142.019 124.954 142.311 124.846 142.558 124.959C142.591 124.975 142.627 124.991 142.666 125.008C143.134 125.217 143.997 125.603 144.761 126.661C144.919 126.881 144.87 127.188 144.65 127.347C144.43 127.506 144.123 127.456 143.964 127.236C143.357 126.395 142.702 126.101 142.258 125.902C142.219 125.885 142.183 125.868 142.148 125.852C141.901 125.739 141.793 125.448 141.906 125.201Z" fill="#223762"/>
</g>
<path fill-rule="evenodd" clip-rule="evenodd" d="M131.961 137.325C132.835 132.948 134.096 126.924 137.598 123.319C125.1 117.93 121.162 116.019 117.233 114.341C113.304 112.662 109.728 123.718 117.233 129.218C124.737 134.717 129.875 136.404 131.961 137.325Z" fill="url(#paint28_linear)"/>
<path opacity="0.7" fill-rule="evenodd" clip-rule="evenodd" d="M25.5793 235.523C33.9507 235.523 40.7372 238.493 40.7372 242.155C40.7372 245.818 33.9507 248.787 25.5793 248.787C17.2078 248.787 10.4214 245.818 10.4214 242.155C10.4214 238.493 17.2078 235.523 25.5793 235.523Z" fill="url(#paint29_linear)"/>
<path fill-rule="evenodd" clip-rule="evenodd" d="M46.4627 220.718C47.6507 222.761 48.3161 225.051 48.3161 227.469C48.3161 236.102 39.8331 243.1 29.3687 243.1C18.9044 243.1 10.4214 236.102 10.4214 227.469C10.4214 224.91 11.1665 222.495 12.4875 220.363C20.8811 221.668 37.588 221.584 46.4627 220.718Z" fill="url(#paint30_linear)"/>
<mask id="mask6" mask-type="alpha" maskUnits="userSpaceOnUse" x="10" y="220" width="39" height="24">
<path fill-rule="evenodd" clip-rule="evenodd" d="M46.4627 220.718C47.6507 222.761 48.3161 225.051 48.3161 227.469C48.3161 236.102 39.8331 243.1 29.3687 243.1C18.9044 243.1 10.4214 236.102 10.4214 227.469C10.4214 224.91 11.1665 222.495 12.4875 220.363C20.8811 221.668 37.588 221.584 46.4627 220.718Z" fill="white"/>
</mask>
<g mask="url(#mask6)">
</g>
<path fill-rule="evenodd" clip-rule="evenodd" d="M29.3686 218.471C38.7865 218.471 46.4212 220.167 46.4212 222.26C46.4212 224.353 38.7865 226.05 29.3686 226.05C19.9506 226.05 12.3159 224.353 12.3159 222.26C12.3159 220.167 19.9506 218.471 29.3686 218.471Z" fill="url(#paint31_linear)"/>
<mask id="mask7" mask-type="alpha" maskUnits="userSpaceOnUse" x="12" y="218" width="35" height="9">
<path fill-rule="evenodd" clip-rule="evenodd" d="M29.3686 218.471C38.7865 218.471 46.4212 220.167 46.4212 222.26C46.4212 224.353 38.7865 226.05 29.3686 226.05C19.9506 226.05 12.3159 224.353 12.3159 222.26C12.3159 220.167 19.9506 218.471 29.3686 218.471Z" fill="white"/>
</mask>
<g mask="url(#mask7)">
</g>
<g filter="url(#filter6_i)">
<path fill-rule="evenodd" clip-rule="evenodd" d="M27.829 219.421C26.9482 213.142 24.5252 204.074 17.2407 194.308C12.9496 188.555 12.9356 174.545 12.3159 173C15.683 174.193 21.7317 177.268 27.829 185.937C34.2207 195.025 30.1659 213.559 27.829 219.421Z" fill="url(#paint32_linear)"/>
</g>
<mask id="mask8" mask-type="alpha" maskUnits="userSpaceOnUse" x="12" y="173" width="20" height="47">
<path fill-rule="evenodd" clip-rule="evenodd" d="M27.829 219.421C26.9482 213.142 24.5252 204.074 17.2407 194.308C12.9496 188.555 12.9356 174.545 12.3159 173C15.683 174.193 21.7317 177.268 27.829 185.937C34.2207 195.025 30.1659 213.559 27.829 219.421Z" fill="white"/>
</mask>
<g mask="url(#mask8)">
<g style="mix-blend-mode:multiply" opacity="0.5">
<path fill-rule="evenodd" clip-rule="evenodd" d="M27.3514 219.424C27.9789 204.109 26.2568 194.443 20.8425 185.318L27.3514 219.424Z" fill="black" fill-opacity="0.01"/>
</g>
</g>
<g filter="url(#filter7_i)">
<path fill-rule="evenodd" clip-rule="evenodd" d="M28.421 225.105C25.5551 220.589 20.4916 214.469 11.2809 209.507C5.85519 206.584 1.02904 195.829 0 194.858C3.11594 194.6 9.03369 194.854 16.9133 199.387C25.1733 204.139 28.2844 219.788 28.421 225.105Z" fill="url(#paint33_linear)"/>
</g>
<mask id="mask9" mask-type="alpha" maskUnits="userSpaceOnUse" x="0" y="194" width="29" height="32">
<path fill-rule="evenodd" clip-rule="evenodd" d="M28.421 225.105C25.5551 220.589 20.4916 214.469 11.2809 209.507C5.85519 206.584 1.02904 195.829 0 194.858C3.11594 194.6 9.03369 194.854 16.9133 199.387C25.1733 204.139 28.2844 219.788 28.421 225.105Z" fill="white"/>
</mask>
<g mask="url(#mask9)">
<g style="mix-blend-mode:multiply" opacity="0.5">
<path fill-rule="evenodd" clip-rule="evenodd" d="M27.4725 225.104C22.8304 213.621 18.1017 207.133 10.4199 202.367L27.4725 225.104Z" fill="black" fill-opacity="0.01"/>
</g>
</g>
<g filter="url(#filter8_i)">
<path fill-rule="evenodd" clip-rule="evenodd" d="M30.441 226.054C32.6295 221.14 36.7336 214.327 44.9861 208.148C49.8475 204.508 53.131 193.059 53.9999 191.949C50.961 192.09 45.2844 193.105 38.2612 198.682C30.899 204.528 29.8943 220.684 30.441 226.054Z" fill="url(#paint34_linear)"/>
</g>
<mask id="mask10" mask-type="alpha" maskUnits="userSpaceOnUse" x="30" y="191" width="24" height="36">
<path fill-rule="evenodd" clip-rule="evenodd" d="M30.441 226.054C32.6295 221.14 36.7336 214.327 44.9861 208.148C49.8475 204.508 53.131 193.059 53.9999 191.949C50.961 192.09 45.2844 193.105 38.2612 198.682C30.899 204.528 29.8943 220.684 30.441 226.054Z" fill="white"/>
</mask>
<g mask="url(#mask10)">
<g style="mix-blend-mode:multiply" opacity="0.5">
<path fill-rule="evenodd" clip-rule="evenodd" d="M29.3674 226.054C32.5039 213.643 36.4193 206.362 43.5779 200.475L29.3674 226.054Z" fill="black" fill-opacity="0.01"/>
</g>
</g>
<path fill-rule="evenodd" clip-rule="evenodd" d="M324.212 112.113C325.438 112.488 326.124 113.772 325.744 114.981L282.356 252.851C281.976 254.06 280.674 254.736 279.448 254.361C278.222 253.986 277.536 252.702 277.917 251.493L321.304 113.623C321.684 112.414 322.986 111.738 324.212 112.113Z" fill="url(#paint35_linear)"/>
<path fill-rule="evenodd" clip-rule="evenodd" d="M316.83 132.731C317.178 131.497 318.421 130.791 319.606 131.154L344.949 138.918C346.133 139.281 346.811 140.575 346.463 141.809C346.114 143.044 344.872 143.75 343.687 143.387L318.344 135.623C317.159 135.26 316.481 133.965 316.83 132.731Z" fill="url(#paint36_linear)"/>
<path fill-rule="evenodd" clip-rule="evenodd" d="M309.393 151.699C309.781 150.502 311.094 149.838 312.326 150.215L340.777 158.922C342.009 159.299 342.693 160.575 342.305 161.771C341.917 162.968 340.603 163.632 339.372 163.255L310.921 154.548C309.689 154.171 309.005 152.895 309.393 151.699Z" fill="url(#paint37_linear)"/>
<path fill-rule="evenodd" clip-rule="evenodd" d="M305.268 169.865C305.675 168.674 306.956 168.043 308.129 168.457L335.104 177.97C336.277 178.383 336.898 179.684 336.491 180.875C336.083 182.066 334.803 182.697 333.63 182.283L306.654 172.77C305.481 172.357 304.861 171.056 305.268 169.865Z" fill="url(#paint38_linear)"/>
<path fill-rule="evenodd" clip-rule="evenodd" d="M298.646 188.049C299.059 186.883 300.354 186.269 301.536 186.677L331.783 197.112C332.966 197.52 333.589 198.795 333.175 199.961C332.761 201.126 331.467 201.741 330.284 201.333L300.037 190.898C298.855 190.49 298.232 189.214 298.646 188.049Z" fill="url(#paint39_linear)"/>
<path fill-rule="evenodd" clip-rule="evenodd" d="M293.694 206.271C294.139 205.078 295.462 204.472 296.651 204.918L328.497 216.868C329.685 217.314 330.288 218.643 329.844 219.836C329.4 221.03 328.076 221.635 326.888 221.189L295.042 209.239C293.853 208.793 293.25 207.464 293.694 206.271Z" fill="url(#paint40_linear)"/>
<path fill-rule="evenodd" clip-rule="evenodd" d="M287.064 226.911C287.499 225.773 288.809 225.191 289.989 225.611L321.874 236.955C323.054 237.375 323.658 238.637 323.223 239.775C322.787 240.912 321.477 241.494 320.297 241.074L288.412 229.731C287.232 229.311 286.628 228.048 287.064 226.911Z" fill="#223762"/>
<path fill-rule="evenodd" clip-rule="evenodd" d="M350.527 117.862C351.78 118.134 352.573 119.354 352.297 120.588L318.019 274.202C317.743 275.436 316.504 276.217 315.251 275.946C313.998 275.675 313.205 274.454 313.48 273.22L347.759 119.606C348.034 118.372 349.274 117.591 350.527 117.862Z" fill="url(#paint41_linear)"/>
<path fill-rule="evenodd" clip-rule="evenodd" d="M340.668 29.0276C341.851 27.4977 342.301 24.3957 342.301 21.5287C342.301 18.6617 347.391 20.0825 347.391 20.0825C347.391 20.0825 347.762 24.421 348.481 25.7332C349.2 27.0455 352.53 27.4839 352.53 27.4839C352.53 27.4839 346.692 42.3673 344.074 40.1787C341.456 37.9901 339.485 30.5574 340.668 29.0276Z" fill="url(#paint42_linear)"/>
<mask id="mask11" mask-type="alpha" maskUnits="userSpaceOnUse" x="340" y="19" width="13" height="22">
<path fill-rule="evenodd" clip-rule="evenodd" d="M340.668 29.0276C341.851 27.4977 342.301 24.3957 342.301 21.5287C342.301 18.6617 347.391 20.0825 347.391 20.0825C347.391 20.0825 347.762 24.421 348.481 25.7332C349.2 27.0455 352.53 27.4839 352.53 27.4839C352.53 27.4839 346.692 42.3673 344.074 40.1787C341.456 37.9901 339.485 30.5574 340.668 29.0276Z" fill="white"/>
</mask>
<g mask="url(#mask11)">
<g opacity="0.5">
<path fill-rule="evenodd" clip-rule="evenodd" d="M341.257 23.5546C341.257 23.5546 346.093 28.0706 349.249 25.5326C352.404 22.9947 349.249 19.7305 349.249 19.7305L341.257 23.5546Z" fill="#3D82F0" style="mix-blend-mode:multiply"/>
</g>
</g>
<path fill-rule="evenodd" clip-rule="evenodd" d="M337.498 8.97052C337.498 12.1215 338.113 18.5206 338.675 20.3788C339.237 22.237 342.368 25.1511 345.172 24.2548C347.976 23.3585 349.298 19.6207 349.298 18.4452C349.298 17.2698 350.297 12.7652 350.297 12.7652C350.297 12.7652 351.564 6.67949 349.298 6.67949C347.033 6.67949 337.498 5.81951 337.498 8.97052Z" fill="url(#paint43_linear)"/>
<path fill-rule="evenodd" clip-rule="evenodd" d="M349.042 8.86181C345.733 11.1574 335.56 11.4797 336.637 5.52572C337.715 -0.428306 346.036 -1.67081 350.359 2.28619C352.237 4.00539 353.62 8.86182 351.348 14.0674C350.642 15.6856 349.042 16.9102 349.042 16.9102C349.042 16.9102 349.529 11.7031 349.042 8.86181Z" fill="#223762"/>
<path fill-rule="evenodd" clip-rule="evenodd" d="M380.469 90.0784C381.811 89.6095 390.514 87.2117 391.482 86.0872C392.45 84.9627 392.029 83.2889 390.174 83.0092C388.319 82.7295 380.629 81.7324 379.882 81.7324C379.135 81.7324 377.548 84.9205 377.962 87.2046C378.376 89.4887 379.127 90.5474 380.469 90.0784Z" fill="#192A4D"/>
<path fill-rule="evenodd" clip-rule="evenodd" d="M342.376 94.8019C343.449 94.4371 350.412 92.5722 351.186 91.6976C351.961 90.823 351.624 89.5212 350.14 89.3036C348.655 89.0861 342.504 88.3105 341.906 88.3105C341.308 88.3105 340.039 90.7902 340.37 92.5667C340.702 94.3432 341.302 95.1666 342.376 94.8019Z" fill="#192A4D"/>
<path fill-rule="evenodd" clip-rule="evenodd" d="M338.102 59.9467C337.052 61.8282 323.879 82.4311 322.779 87.1788C321.679 91.9265 323.643 95.3918 326.206 95.3918C328.77 95.3918 342.073 95.6777 343.473 94.4498C344.873 93.2219 345.053 85.9527 343.473 85.9527C341.894 85.9527 333.883 85.9527 333.883 85.9527C333.883 85.9527 342.448 74.5084 343.473 74.5084C344.498 74.5084 346.934 98.5297 349.518 99.5051C352.102 100.48 377.833 92.1202 379.245 90.7963C380.656 89.4725 379.255 82.3411 374.858 82.3411C370.462 82.3411 358.924 88.2542 358.924 86.8128C358.924 85.3713 358.491 65.2173 357.634 61.0706C356.776 56.9239 339.151 58.0652 338.102 59.9467Z" fill="url(#paint44_linear)"/>
<path fill-rule="evenodd" clip-rule="evenodd" d="M370.599 41.8403C368.235 40.6018 362.245 35.1236 355.263 28.256C354.151 27.1622 349.866 26.3066 349.866 26.3066C349.866 26.3066 349.024 29.1287 345.027 29.1287C341.03 29.1287 341.151 27.3636 341.151 27.3636C341.151 27.3636 337.653 28.6834 335.211 31.1018C332.77 33.5202 327.157 42.6098 323.944 44.0545C320.731 45.4992 311.193 50.904 311.193 50.904L316.865 52.4413C316.865 52.4413 323.29 50.4861 326.749 49.1933C330.209 47.9005 336.355 42.8621 336.355 42.8621C336.355 42.8621 331.752 62.3896 333.797 65.4729C335.841 68.5562 353.904 68.169 356.136 65.4729C358.369 62.7767 356.136 40.1926 356.136 40.1926L365.563 46.5892L375.936 50.1239L383.531 50.066C383.531 50.066 374.346 43.8037 370.599 41.8403Z" fill="url(#paint45_linear)"/>
<path d="M293.344 52.8895C293.344 50.6594 295.091 48.8516 297.246 48.8516H385.266C387.421 48.8516 389.168 50.6594 389.168 52.8895V74.8762C389.168 77.1062 387.421 78.9141 385.266 78.9141H297.246C295.091 78.9141 293.344 77.1062 293.344 74.8762V52.8895Z" fill="url(#paint46_linear)"/>
<path fill-rule="evenodd" clip-rule="evenodd" d="M307.436 74.2188C313.662 74.2188 318.709 69.5921 318.709 63.8848C318.709 58.1775 313.662 53.5508 307.436 53.5508C301.21 53.5508 296.162 58.1775 296.162 63.8848C296.162 69.5921 301.21 74.2188 307.436 74.2188Z" fill="#FFB417"/>
<path d="M322.467 56.3652C322.467 55.3275 323.433 54.4863 324.626 54.4863H379.493C380.686 54.4863 381.652 55.3275 381.652 56.3652C381.652 57.4029 380.686 58.2441 379.493 58.2441H324.626C323.433 58.2441 322.467 57.4029 322.467 56.3652Z" fill="#FFB417"/>
<path d="M322.467 63.415C322.467 62.1179 323.431 61.0664 324.62 61.0664H365.407C366.596 61.0664 367.561 62.1179 367.561 63.415C367.561 64.7122 366.596 65.7637 365.407 65.7637H324.62C323.431 65.7637 322.467 64.7122 322.467 63.415Z" fill="#FFB417"/>
<path opacity="0.5" d="M322.467 71.8682C322.467 71.0899 323.117 70.459 323.919 70.459H336.986C337.787 70.459 338.438 71.0899 338.438 71.8682C338.438 72.6464 337.787 73.2773 336.986 73.2773H323.919C323.117 73.2773 322.467 72.6464 322.467 71.8682Z" fill="#FFB417"/>
<path fill-rule="evenodd" clip-rule="evenodd" d="M431.978 72.9551C434.334 72.1653 436.865 72.0418 439.288 72.5986L492.262 84.7734C493.381 85.0305 493.468 86.5776 492.384 86.9559L413.497 114.505C410.595 115.519 407.444 115.593 404.496 114.717L356.484 100.446C355.412 100.128 355.386 98.6325 356.446 98.2774L431.978 72.9551Z" fill="url(#paint47_linear)"/>
<mask id="mask12" mask-type="alpha" maskUnits="userSpaceOnUse" x="355" y="72" width="139" height="44">
<path fill-rule="evenodd" clip-rule="evenodd" d="M431.978 72.9551C434.334 72.1653 436.865 72.0418 439.288 72.5986L492.262 84.7734C493.381 85.0305 493.468 86.5776 492.384 86.9559L413.497 114.505C410.595 115.519 407.444 115.593 404.496 114.717L356.484 100.446C355.412 100.128 355.386 98.6325 356.446 98.2774L431.978 72.9551Z" fill="white"/>
</mask>
<g mask="url(#mask12)">
<path fill-rule="evenodd" clip-rule="evenodd" d="M440.643 65.0161C442.37 71.9313 449.032 84.3597 441.854 89.409C434.677 94.4583 378.362 87.8193 373.316 87.8193C368.271 87.8193 438.915 58.101 440.643 65.0161Z" fill="url(#paint48_linear)"/>
<path fill-rule="evenodd" clip-rule="evenodd" d="M415.712 104.559C422.345 104.559 427.721 103.076 427.721 101.246C427.721 99.4168 422.345 97.9336 415.712 97.9336C409.08 97.9336 403.703 99.4168 403.703 101.246C403.703 103.076 409.08 104.559 415.712 104.559Z" fill="url(#paint49_linear)"/>
<path fill-rule="evenodd" clip-rule="evenodd" d="M390.898 76.5783C392.645 83.2839 399.383 95.3357 392.123 100.232C384.864 105.128 327.901 98.6905 322.798 98.6905C317.694 98.6905 389.15 69.8727 390.898 76.5783Z" fill="url(#paint50_linear)"/>
</g>
<path opacity="0.5" fill-rule="evenodd" clip-rule="evenodd" d="M479 243.914L565.947 234L652 238.38L544.935 272" fill="url(#paint51_linear)"/>
<g filter="url(#filter9_d)">
<path fill-rule="evenodd" clip-rule="evenodd" d="M574.808 193.428C573.6 193.428 572.62 194.428 572.62 195.661V207.661C572.62 208.895 573.6 209.895 574.808 209.895H580.567L583.099 212.479C583.954 213.351 585.339 213.351 586.194 212.479L588.726 209.895H594.866C596.075 209.895 597.054 208.895 597.054 207.661V195.661C597.054 194.428 596.075 193.428 594.866 193.428H574.808Z" fill="#F05971"/>
<path fill-rule="evenodd" clip-rule="evenodd" d="M584.048 206.83C574.053 201.205 581.282 194.213 584.048 198.922C586.815 194.213 594.044 201.205 584.048 206.83Z" fill="white"/>
</g>
<path fill-rule="evenodd" clip-rule="evenodd" d="M559.086 180.992C557.904 181.244 557.15 182.405 557.401 183.587L559.845 195.084C560.096 196.265 561.257 197.019 562.439 196.768L568.07 195.571L571.072 197.521C572.085 198.179 573.44 197.891 574.098 196.878L576.048 193.876L582.051 192.6C583.233 192.348 583.987 191.187 583.736 190.005L581.292 178.509C581.041 177.327 579.88 176.573 578.698 176.824L559.086 180.992Z" fill="url(#paint52_linear)"/>
<path fill-rule="evenodd" clip-rule="evenodd" d="M571.642 191.689C560.849 188.395 566.42 180.264 570.044 184.173C571.766 179.128 580.163 184.29 571.642 191.689Z" fill="white"/>
<g filter="url(#filter10_d)">
<path fill-rule="evenodd" clip-rule="evenodd" d="M619.736 198.947C618.527 198.947 617.548 199.907 617.548 201.091V212.611C617.548 213.796 618.527 214.755 619.736 214.755H625.495L628.027 217.236C628.881 218.074 630.267 218.074 631.121 217.236L633.654 214.755H639.794C641.002 214.755 641.982 213.796 641.982 212.611V201.091C641.982 199.907 641.002 198.947 639.794 198.947H619.736Z" fill="url(#paint53_linear)"/>
<path fill-rule="evenodd" clip-rule="evenodd" d="M629.37 212.348C618.606 206.255 626.391 198.681 629.37 203.782C632.35 198.681 640.135 206.255 629.37 212.348Z" fill="white"/>
</g>
<g filter="url(#filter11_d)">
<path fill-rule="evenodd" clip-rule="evenodd" d="M588.996 195.795C587.787 195.795 586.808 196.755 586.808 197.939V209.459C586.808 210.643 587.787 211.603 588.996 211.603H594.755L597.287 214.084C598.141 214.921 599.527 214.921 600.381 214.084L602.914 211.603H609.054C610.262 211.603 611.242 210.643 611.242 209.459V197.939C611.242 196.755 610.262 195.795 609.054 195.795H588.996Z" fill="url(#paint54_linear)"/>
<path fill-rule="evenodd" clip-rule="evenodd" d="M599.025 208.405C589.03 203.249 596.258 196.84 599.025 201.156C601.791 196.84 609.021 203.249 599.025 208.405Z" fill="white"/>
</g>
<path fill-rule="evenodd" clip-rule="evenodd" d="M632.976 183.256C631.799 182.984 630.624 183.718 630.352 184.895L627.708 196.347C627.437 197.524 628.171 198.699 629.348 198.971L634.957 200.266L636.854 203.301C637.494 204.326 638.843 204.637 639.868 203.997L642.904 202.1L648.884 203.481C650.061 203.753 651.236 203.019 651.508 201.842L654.152 190.389C654.423 189.212 653.689 188.038 652.512 187.766L632.976 183.256Z" fill="url(#paint55_linear)"/>
<path fill-rule="evenodd" clip-rule="evenodd" d="M639.834 198.259C631.444 190.712 639.93 185.698 641.563 190.771C645.255 186.927 650.683 195.154 639.834 198.259Z" fill="white"/>
<path fill-rule="evenodd" clip-rule="evenodd" d="M583.086 171.334C581.919 171.021 580.72 171.714 580.407 172.88L577.365 184.233C577.052 185.4 577.745 186.6 578.912 186.912L584.472 188.402L586.262 191.502C586.866 192.549 588.204 192.907 589.25 192.303L592.35 190.513L598.279 192.102C599.446 192.414 600.645 191.722 600.958 190.555L604 179.202C604.313 178.035 603.62 176.836 602.453 176.523L583.086 171.334Z" fill="url(#paint56_linear)"/>
<path fill-rule="evenodd" clip-rule="evenodd" d="M589.416 186.565C581.295 178.731 589.95 174.015 591.405 179.143C595.229 175.43 600.367 183.841 589.416 186.565Z" fill="white"/>
<g filter="url(#filter12_d)">
<path fill-rule="evenodd" clip-rule="evenodd" d="M578.275 191.524C577.086 191.734 576.291 192.869 576.501 194.058L578.542 205.633C578.752 206.823 579.886 207.617 581.076 207.408L586.745 206.408L589.677 208.461C590.667 209.154 592.031 208.914 592.724 207.924L594.777 204.992L600.822 203.926C602.011 203.716 602.806 202.582 602.596 201.392L600.555 189.817C600.345 188.627 599.211 187.833 598.021 188.043L578.275 191.524Z" fill="url(#paint57_linear)"/>
<path fill-rule="evenodd" clip-rule="evenodd" d="M590.449 202.654C579.778 198.986 585.629 191.054 589.115 195.087C591.011 190.105 599.223 195.557 590.449 202.654Z" fill="white"/>
</g>
<path fill-rule="evenodd" clip-rule="evenodd" d="M617.956 192.566C618.946 193.259 620.31 193.018 621.002 192.029L627.744 182.401C628.437 181.411 628.196 180.047 627.207 179.354L622.491 176.052L621.87 172.527C621.66 171.337 620.525 170.543 619.336 170.753L615.81 171.374L610.782 167.854C609.793 167.161 608.429 167.401 607.736 168.391L600.994 178.019C600.302 179.008 600.542 180.372 601.532 181.065L617.956 192.566Z" fill="url(#paint58_linear)"/>
<path fill-rule="evenodd" clip-rule="evenodd" d="M617.217 176.084C622.169 186.223 612.423 187.694 612.81 182.378C607.946 184.56 605.995 174.898 617.217 176.084Z" fill="white"/>
<g filter="url(#filter13_d)">
<path fill-rule="evenodd" clip-rule="evenodd" d="M600.066 181.808C598.858 181.787 597.862 182.749 597.84 183.957L597.635 195.708C597.614 196.916 598.576 197.912 599.784 197.933L605.54 198.034L608.027 200.609C608.866 201.478 610.251 201.502 611.12 200.663L613.695 198.176L619.832 198.283C621.039 198.304 622.036 197.342 622.057 196.135L622.262 184.383C622.283 183.175 621.321 182.179 620.113 182.158L600.066 181.808Z" fill="url(#paint59_linear)"/>
<path fill-rule="evenodd" clip-rule="evenodd" d="M609.893 195.056C600.118 189.419 607.375 182.75 610.027 187.373C612.839 182.845 619.86 189.764 609.893 195.056Z" fill="white"/>
</g>
<g filter="url(#filter14_d)">
<path fill-rule="evenodd" clip-rule="evenodd" d="M600.594 193.334C599.389 193.25 598.344 194.159 598.259 195.364L597.439 207.089C597.355 208.294 598.264 209.339 599.469 209.423L605.212 209.825L607.56 212.526C608.353 213.438 609.734 213.535 610.646 212.742L613.347 210.394L619.47 210.822C620.676 210.906 621.721 209.997 621.805 208.792L622.625 197.067C622.709 195.862 621.801 194.817 620.596 194.733L600.594 193.334Z" fill="url(#paint60_linear)"/>
<path fill-rule="evenodd" clip-rule="evenodd" d="M609.715 207.077C600.248 200.936 607.844 194.656 610.251 199.412C613.296 195.037 619.945 202.314 609.715 207.077Z" fill="white"/>
</g>
<g filter="url(#filter15_d)">
<path fill-rule="evenodd" clip-rule="evenodd" d="M611.693 187.999C610.589 188.49 610.093 189.783 610.584 190.887L615.365 201.624C615.856 202.728 617.149 203.224 618.252 202.733L623.512 200.391L626.853 201.674C627.981 202.107 629.246 201.544 629.679 200.416L630.962 197.074L636.57 194.578C637.673 194.086 638.169 192.793 637.678 191.69L632.897 180.952C632.406 179.849 631.113 179.352 630.01 179.844L611.693 187.999Z" fill="url(#paint61_linear)"/>
<path fill-rule="evenodd" clip-rule="evenodd" d="M626.198 195.853C614.957 194.875 618.715 185.763 623.073 188.833C623.708 183.541 632.995 186.844 626.198 195.853Z" fill="white"/>
</g>
<path fill-rule="evenodd" clip-rule="evenodd" d="M556.856 190.275L600.996 210.007V257.273L558.292 235.208L556.856 190.275Z" fill="url(#paint62_linear)"/>
<path fill-rule="evenodd" clip-rule="evenodd" d="M652.229 199.736L600.996 210.618V257.276L651.266 242.921L652.229 199.736Z" fill="url(#paint63_linear)"/>
<mask id="mask13" mask-type="alpha" maskUnits="userSpaceOnUse" x="600" y="199" width="53" height="59">
<path fill-rule="evenodd" clip-rule="evenodd" d="M652.229 199.736L600.996 210.618V257.276L651.266 242.921L652.229 199.736Z" fill="white"/>
</mask>
<g mask="url(#mask13)">
<g opacity="0.218583">
<path fill-rule="evenodd" clip-rule="evenodd" d="M612.818 200.976L660.111 246.24L652.984 190.277L612.818 200.976Z" fill="url(#paint64_linear)" style="mix-blend-mode:multiply"/>
</g>
</g>
<path fill-rule="evenodd" clip-rule="evenodd" d="M557.72 189.486L540.304 207.87L583.491 229.685L600.996 209.718L557.72 189.486Z" fill="url(#paint65_linear)"/>
<path fill-rule="evenodd" clip-rule="evenodd" d="M651.646 199.732L670.358 218.722L619.798 229.684L600.996 210.242L651.646 199.732Z" fill="url(#paint66_linear)"/>
</g>
<defs>
<filter id="filter0_d" x="262.904" y="166.672" width="263.376" height="89.5096" filterUnits="userSpaceOnUse" color-interpolation-filters="sRGB">
<feFlood flood-opacity="0" result="BackgroundImageFix"/>
<feColorMatrix in="SourceAlpha" type="matrix" values="0 0 0 0 0 0 0 0 0 0 0 0 0 0 0 0 0 0 127 0"/>
<feOffset dy="10"/>
<feColorMatrix type="matrix" values="0 0 0 0 0.113091 0 0 0 0 0.194481 0 0 0 0 0.36352 0 0 0 0.513728 0"/>
<feBlend mode="normal" in2="BackgroundImageFix" result="effect1_dropShadow"/>
<feBlend mode="normal" in="SourceGraphic" in2="effect1_dropShadow" result="shape"/>
</filter>
<filter id="filter1_d" x="262.904" y="147.621" width="263.376" height="88.6814" filterUnits="userSpaceOnUse" color-interpolation-filters="sRGB">
<feFlood flood-opacity="0" result="BackgroundImageFix"/>
<feColorMatrix in="SourceAlpha" type="matrix" values="0 0 0 0 0 0 0 0 0 0 0 0 0 0 0 0 0 0 127 0"/>
<feOffset dy="10"/>
<feColorMatrix type="matrix" values="0 0 0 0 0.113091 0 0 0 0 0.194481 0 0 0 0 0.36352 0 0 0 0.513728 0"/>
<feBlend mode="normal" in2="BackgroundImageFix" result="effect1_dropShadow"/>
<feBlend mode="normal" in="SourceGraphic" in2="effect1_dropShadow" result="shape"/>
</filter>
<filter id="filter2_d" x="262.904" y="126.088" width="263.376" height="89.5096" filterUnits="userSpaceOnUse" color-interpolation-filters="sRGB">
<feFlood flood-opacity="0" result="BackgroundImageFix"/>
<feColorMatrix in="SourceAlpha" type="matrix" values="0 0 0 0 0 0 0 0 0 0 0 0 0 0 0 0 0 0 127 0"/>
<feOffset dy="10"/>
<feColorMatrix type="matrix" values="0 0 0 0 0.113091 0 0 0 0 0.194481 0 0 0 0 0.36352 0 0 0 0.513728 0"/>
<feBlend mode="normal" in2="BackgroundImageFix" result="effect1_dropShadow"/>
<feBlend mode="normal" in="SourceGraphic" in2="effect1_dropShadow" result="shape"/>
</filter>
<filter id="filter3_d" x="262.904" y="106.215" width="263.376" height="90.3378" filterUnits="userSpaceOnUse" color-interpolation-filters="sRGB">
<feFlood flood-opacity="0" result="BackgroundImageFix"/>
<feColorMatrix in="SourceAlpha" type="matrix" values="0 0 0 0 0 0 0 0 0 0 0 0 0 0 0 0 0 0 127 0"/>
<feOffset dy="10"/>
<feColorMatrix type="matrix" values="0 0 0 0 0.113091 0 0 0 0 0.194481 0 0 0 0 0.36352 0 0 0 0.513728 0"/>
<feBlend mode="normal" in2="BackgroundImageFix" result="effect1_dropShadow"/>
<feBlend mode="normal" in="SourceGraphic" in2="effect1_dropShadow" result="shape"/>
</filter>
<filter id="filter4_d" x="262.904" y="87.1641" width="263.376" height="88.6814" filterUnits="userSpaceOnUse" color-interpolation-filters="sRGB">
<feFlood flood-opacity="0" result="BackgroundImageFix"/>
<feColorMatrix in="SourceAlpha" type="matrix" values="0 0 0 0 0 0 0 0 0 0 0 0 0 0 0 0 0 0 127 0"/>
<feOffset dy="10"/>
<feColorMatrix type="matrix" values="0 0 0 0 0.113091 0 0 0 0 0.194481 0 0 0 0 0.36352 0 0 0 0.513728 0"/>
<feBlend mode="normal" in2="BackgroundImageFix" result="effect1_dropShadow"/>
<feBlend mode="normal" in="SourceGraphic" in2="effect1_dropShadow" result="shape"/>
</filter>
<filter id="filter5_d" x="262.904" y="66.457" width="263.376" height="90.3378" filterUnits="userSpaceOnUse" color-interpolation-filters="sRGB">
<feFlood flood-opacity="0" result="BackgroundImageFix"/>
<feColorMatrix in="SourceAlpha" type="matrix" values="0 0 0 0 0 0 0 0 0 0 0 0 0 0 0 0 0 0 127 0"/>
<feOffset dy="10"/>
<feColorMatrix type="matrix" values="0 0 0 0 0.113091 0 0 0 0 0.194481 0 0 0 0 0.36352 0 0 0 0.513728 0"/>
<feBlend mode="normal" in2="BackgroundImageFix" result="effect1_dropShadow"/>
<feBlend mode="normal" in="SourceGraphic" in2="effect1_dropShadow" result="shape"/>
</filter>
<filter id="filter6_i" x="12.3159" y="163" width="18.9474" height="56.421" filterUnits="userSpaceOnUse" color-interpolation-filters="sRGB">
<feFlood flood-opacity="0" result="BackgroundImageFix"/>
<feBlend mode="normal" in="SourceGraphic" in2="BackgroundImageFix" result="shape"/>
<feColorMatrix in="SourceAlpha" type="matrix" values="0 0 0 0 0 0 0 0 0 0 0 0 0 0 0 0 0 0 127 0" result="hardAlpha"/>
<feOffset dy="-10"/>
<feGaussianBlur stdDeviation="11"/>
<feComposite in2="hardAlpha" operator="arithmetic" k2="-1" k3="1"/>
<feColorMatrix type="matrix" values="0 0 0 0 0.221483 0 0 0 0 0.77854 0 0 0 0 0.610041 0 0 0 1 0"/>
<feBlend mode="normal" in2="shape" result="effect1_innerShadow"/>
</filter>
<filter id="filter7_i" x="0" y="184.789" width="28.421" height="40.3158" filterUnits="userSpaceOnUse" color-interpolation-filters="sRGB">
<feFlood flood-opacity="0" result="BackgroundImageFix"/>
<feBlend mode="normal" in="SourceGraphic" in2="BackgroundImageFix" result="shape"/>
<feColorMatrix in="SourceAlpha" type="matrix" values="0 0 0 0 0 0 0 0 0 0 0 0 0 0 0 0 0 0 127 0" result="hardAlpha"/>
<feOffset dy="-10"/>
<feGaussianBlur stdDeviation="11"/>
<feComposite in2="hardAlpha" operator="arithmetic" k2="-1" k3="1"/>
<feColorMatrix type="matrix" values="0 0 0 0 0.221483 0 0 0 0 0.77854 0 0 0 0 0.610041 0 0 0 1 0"/>
<feBlend mode="normal" in2="shape" result="effect1_innerShadow"/>
</filter>
<filter id="filter8_i" x="30.3157" y="181.949" width="23.6842" height="44.1052" filterUnits="userSpaceOnUse" color-interpolation-filters="sRGB">
<feFlood flood-opacity="0" result="BackgroundImageFix"/>
<feBlend mode="normal" in="SourceGraphic" in2="BackgroundImageFix" result="shape"/>
<feColorMatrix in="SourceAlpha" type="matrix" values="0 0 0 0 0 0 0 0 0 0 0 0 0 0 0 0 0 0 127 0" result="hardAlpha"/>
<feOffset dy="-10"/>
<feGaussianBlur stdDeviation="11"/>
<feComposite in2="hardAlpha" operator="arithmetic" k2="-1" k3="1"/>
<feColorMatrix type="matrix" values="0 0 0 0 0.221483 0 0 0 0 0.77854 0 0 0 0 0.610041 0 0 0 1 0"/>
<feBlend mode="normal" in2="shape" result="effect1_innerShadow"/>
</filter>
<filter id="filter9_d" x="552.62" y="176.428" width="62.4345" height="57.7052" filterUnits="userSpaceOnUse" color-interpolation-filters="sRGB">
<feFlood flood-opacity="0" result="BackgroundImageFix"/>
<feColorMatrix in="SourceAlpha" type="matrix" values="0 0 0 0 0 0 0 0 0 0 0 0 0 0 0 0 0 0 127 0"/>
<feOffset dx="-1" dy="2"/>
<feGaussianBlur stdDeviation="9.5"/>
<feColorMatrix type="matrix" values="0 0 0 0 0.563271 0 0 0 0 0.0744316 0 0 0 0 0.0744316 0 0 0 0.5 0"/>
<feBlend mode="normal" in2="BackgroundImageFix" result="effect1_dropShadow"/>
<feBlend mode="normal" in="SourceGraphic" in2="effect1_dropShadow" result="shape"/>
</filter>
<filter id="filter10_d" x="597.548" y="181.947" width="62.4345" height="56.917" filterUnits="userSpaceOnUse" color-interpolation-filters="sRGB">
<feFlood flood-opacity="0" result="BackgroundImageFix"/>
<feColorMatrix in="SourceAlpha" type="matrix" values="0 0 0 0 0 0 0 0 0 0 0 0 0 0 0 0 0 0 127 0"/>
<feOffset dx="-1" dy="2"/>
<feGaussianBlur stdDeviation="9.5"/>
<feColorMatrix type="matrix" values="0 0 0 0 0.563271 0 0 0 0 0.0744316 0 0 0 0 0.0744316 0 0 0 0.5 0"/>
<feBlend mode="normal" in2="BackgroundImageFix" result="effect1_dropShadow"/>
<feBlend mode="normal" in="SourceGraphic" in2="effect1_dropShadow" result="shape"/>
</filter>
<filter id="filter11_d" x="566.808" y="178.795" width="62.4345" height="56.917" filterUnits="userSpaceOnUse" color-interpolation-filters="sRGB">
<feFlood flood-opacity="0" result="BackgroundImageFix"/>
<feColorMatrix in="SourceAlpha" type="matrix" values="0 0 0 0 0 0 0 0 0 0 0 0 0 0 0 0 0 0 127 0"/>
<feOffset dx="-1" dy="2"/>
<feGaussianBlur stdDeviation="9.5"/>
<feColorMatrix type="matrix" values="0 0 0 0 0.563271 0 0 0 0 0.0744316 0 0 0 0 0.0744316 0 0 0 0.5 0"/>
<feBlend mode="normal" in2="BackgroundImageFix" result="effect1_dropShadow"/>
<feBlend mode="normal" in="SourceGraphic" in2="effect1_dropShadow" result="shape"/>
</filter>
<filter id="filter12_d" x="556.467" y="171.01" width="64.1622" height="58.8479" filterUnits="userSpaceOnUse" color-interpolation-filters="sRGB">
<feFlood flood-opacity="0" result="BackgroundImageFix"/>
<feColorMatrix in="SourceAlpha" type="matrix" values="0 0 0 0 0 0 0 0 0 0 0 0 0 0 0 0 0 0 127 0"/>
<feOffset dx="-1" dy="2"/>
<feGaussianBlur stdDeviation="9.5"/>
<feColorMatrix type="matrix" values="0 0 0 0 0.563271 0 0 0 0 0.0744316 0 0 0 0 0.0744316 0 0 0 0.5 0"/>
<feBlend mode="normal" in2="BackgroundImageFix" result="effect1_dropShadow"/>
<feBlend mode="normal" in="SourceGraphic" in2="effect1_dropShadow" result="shape"/>
</filter>
<filter id="filter13_d" x="577.542" y="164.77" width="62.7583" height="57.7234" filterUnits="userSpaceOnUse" color-interpolation-filters="sRGB">
<feFlood flood-opacity="0" result="BackgroundImageFix"/>
<feColorMatrix in="SourceAlpha" type="matrix" values="0 0 0 0 0 0 0 0 0 0 0 0 0 0 0 0 0 0 127 0"/>
<feOffset dx="-1" dy="2"/>
<feGaussianBlur stdDeviation="9.5"/>
<feColorMatrix type="matrix" values="0 0 0 0 0.563271 0 0 0 0 0.0744316 0 0 0 0 0.0744316 0 0 0 0.5 0"/>
<feBlend mode="normal" in2="BackgroundImageFix" result="effect1_dropShadow"/>
<feBlend mode="normal" in="SourceGraphic" in2="effect1_dropShadow" result="shape"/>
</filter>
<filter id="filter14_d" x="577.066" y="176.182" width="63.7119" height="58.9569" filterUnits="userSpaceOnUse" color-interpolation-filters="sRGB">
<feFlood flood-opacity="0" result="BackgroundImageFix"/>
<feColorMatrix in="SourceAlpha" type="matrix" values="0 0 0 0 0 0 0 0 0 0 0 0 0 0 0 0 0 0 127 0"/>
<feOffset dx="-1" dy="2"/>
<feGaussianBlur stdDeviation="9.5"/>
<feColorMatrix type="matrix" values="0 0 0 0 0.563271 0 0 0 0 0.0744316 0 0 0 0 0.0744316 0 0 0 0.5 0"/>
<feBlend mode="normal" in2="BackgroundImageFix" result="effect1_dropShadow"/>
<feBlend mode="normal" in="SourceGraphic" in2="effect1_dropShadow" result="shape"/>
</filter>
<filter id="filter15_d" x="589.694" y="161.953" width="68.1635" height="65.5661" filterUnits="userSpaceOnUse" color-interpolation-filters="sRGB">
<feFlood flood-opacity="0" result="BackgroundImageFix"/>
<feColorMatrix in="SourceAlpha" type="matrix" values="0 0 0 0 0 0 0 0 0 0 0 0 0 0 0 0 0 0 127 0"/>
<feOffset dx="-1" dy="2"/>
<feGaussianBlur stdDeviation="9.5"/>
<feColorMatrix type="matrix" values="0 0 0 0 0.563271 0 0 0 0 0.0744316 0 0 0 0 0.0744316 0 0 0 0.5 0"/>
<feBlend mode="normal" in2="BackgroundImageFix" result="effect1_dropShadow"/>
<feBlend mode="normal" in="SourceGraphic" in2="effect1_dropShadow" result="shape"/>
</filter>
<linearGradient id="paint0_linear" x1="181.992" y1="111.633" x2="260.818" y2="149.684" gradientUnits="userSpaceOnUse">
<stop stop-color="#CFDDF3"/>
<stop offset="1" stop-color="#7FA1E0"/>
</linearGradient>
<linearGradient id="paint1_linear" x1="224.612" y1="146.866" x2="224.612" y2="173.399" gradientUnits="userSpaceOnUse">
<stop stop-color="#CFDDF3"/>
<stop offset="1" stop-color="#A1B8E3"/>
</linearGradient>
<linearGradient id="paint2_linear" x1="215.131" y1="131.771" x2="215.131" y2="147.654" gradientUnits="userSpaceOnUse">
<stop stop-color="#CFDDF3"/>
<stop offset="1" stop-color="#A1B8E3"/>
</linearGradient>
<linearGradient id="paint3_linear" x1="208.16" y1="104.253" x2="208.16" y2="237.875" gradientUnits="userSpaceOnUse">
<stop stop-color="#CFDDF3"/>
<stop offset="1" stop-color="#A1B8E3"/>
</linearGradient>
<linearGradient id="paint4_linear" x1="184.987" y1="196.899" x2="179.231" y2="251.415" gradientUnits="userSpaceOnUse">
<stop stop-color="#D0DCF1"/>
<stop offset="1" stop-color="white"/>
</linearGradient>
<linearGradient id="paint5_linear" x1="331.921" y1="219.983" x2="326.971" y2="237.757" gradientUnits="userSpaceOnUse">
<stop stop-color="#CFDDF3"/>
<stop offset="1" stop-color="#A1B8E3"/>
</linearGradient>
<linearGradient id="paint6_linear" x1="290.194" y1="220.141" x2="280.457" y2="252.198" gradientUnits="userSpaceOnUse">
<stop stop-color="#CFDDF3"/>
<stop offset="1" stop-color="#A1B8E3"/>
</linearGradient>
<linearGradient id="paint7_linear" x1="323.48" y1="219.362" x2="296.716" y2="261.789" gradientUnits="userSpaceOnUse">
<stop stop-color="#CFDDF3"/>
<stop offset="1" stop-color="#A1B8E3"/>
</linearGradient>
<linearGradient id="paint8_linear" x1="449.538" y1="299.805" x2="418.158" y2="277.409" gradientUnits="userSpaceOnUse">
<stop stop-color="#283F6C"/>
<stop offset="0.518928" stop-color="#314A7B"/>
<stop offset="1" stop-color="#223762"/>
</linearGradient>
<linearGradient id="paint9_linear" x1="449.538" y1="279.926" x2="418.158" y2="257.53" gradientUnits="userSpaceOnUse">
<stop stop-color="#283F6C"/>
<stop offset="0.518928" stop-color="#314A7B"/>
<stop offset="1" stop-color="#223762"/>
</linearGradient>
<linearGradient id="paint10_linear" x1="449.538" y1="259.695" x2="418.381" y2="237.224" gradientUnits="userSpaceOnUse">
<stop stop-color="#283F6C"/>
<stop offset="0.518928" stop-color="#314A7B"/>
<stop offset="1" stop-color="#223762"/>
</linearGradient>
<linearGradient id="paint11_linear" x1="449.538" y1="239.342" x2="418.158" y2="216.946" gradientUnits="userSpaceOnUse">
<stop stop-color="#283F6C"/>
<stop offset="0.518928" stop-color="#314A7B"/>
<stop offset="1" stop-color="#223762"/>
</linearGradient>
<linearGradient id="paint12_linear" x1="449.538" y1="220.648" x2="417.94" y2="198.329" gradientUnits="userSpaceOnUse">
<stop stop-color="#283F6C"/>
<stop offset="0.518928" stop-color="#314A7B"/>
<stop offset="1" stop-color="#223762"/>
</linearGradient>
<linearGradient id="paint13_linear" x1="449.538" y1="199.238" x2="418.381" y2="176.767" gradientUnits="userSpaceOnUse">
<stop stop-color="#283F6C"/>
<stop offset="0.518928" stop-color="#314A7B"/>
<stop offset="1" stop-color="#223762"/>
</linearGradient>
<linearGradient id="paint14_linear" x1="449.538" y1="180.891" x2="417.94" y2="158.571" gradientUnits="userSpaceOnUse">
<stop stop-color="#283F6C"/>
<stop offset="0.518928" stop-color="#314A7B"/>
<stop offset="1" stop-color="#223762"/>
</linearGradient>
<linearGradient id="paint15_linear" x1="495.012" y1="137.676" x2="501.286" y2="54.4566" gradientUnits="userSpaceOnUse">
<stop stop-color="#142547"/>
<stop offset="1" stop-color="#223762"/>
</linearGradient>
<linearGradient id="paint16_linear" x1="162.423" y1="73.2941" x2="138.405" y2="91.8759" gradientUnits="userSpaceOnUse">
<stop stop-color="#FF6B67"/>
<stop offset="1" stop-color="#F05971"/>
</linearGradient>
<linearGradient id="paint17_linear" x1="88.1454" y1="163.976" x2="94.8667" y2="153.827" gradientUnits="userSpaceOnUse">
<stop stop-color="#70B8F9"/>
<stop offset="1" stop-color="#3D82F0"/>
</linearGradient>
<linearGradient id="paint18_linear" x1="90.4373" y1="266.561" x2="98.2289" y2="253.984" gradientUnits="userSpaceOnUse">
<stop stop-color="#47689B"/>
<stop offset="1" stop-color="#223762"/>
</linearGradient>
<linearGradient id="paint19_linear" x1="138.526" y1="272.239" x2="146.706" y2="258.127" gradientUnits="userSpaceOnUse">
<stop stop-color="#47689B"/>
<stop offset="1" stop-color="#223762"/>
</linearGradient>
<linearGradient id="paint20_linear" x1="118.679" y1="276.121" x2="156.847" y2="188.172" gradientUnits="userSpaceOnUse">
<stop stop-color="#CFDDF3"/>
<stop offset="1" stop-color="#A1B8E3"/>
</linearGradient>
<linearGradient id="paint21_linear" x1="137.822" y1="174.487" x2="137.401" y2="166.98" gradientUnits="userSpaceOnUse">
<stop stop-color="#CFDDF3" stop-opacity="0.477723"/>
<stop offset="1" stop-color="#A1B8E3"/>
</linearGradient>
<linearGradient id="paint22_linear" x1="117.147" y1="76.2563" x2="103.199" y2="85.7779" gradientUnits="userSpaceOnUse">
<stop stop-color="#70B8F9"/>
<stop offset="1" stop-color="#3D82F0"/>
</linearGradient>
<linearGradient id="paint23_linear" x1="92.0554" y1="76.5108" x2="104.569" y2="92.8388" gradientUnits="userSpaceOnUse">
<stop stop-color="#164898"/>
<stop offset="1" stop-color="#223762"/>
</linearGradient>
<linearGradient id="paint24_linear" x1="79.2956" y1="141.05" x2="91.7087" y2="139.417" gradientUnits="userSpaceOnUse">
<stop stop-color="#EDF3FD"/>
<stop offset="1" stop-color="#D6E3FA"/>
</linearGradient>
<linearGradient id="paint25_linear" x1="127.148" y1="154.793" x2="135.603" y2="149.504" gradientUnits="userSpaceOnUse">
<stop stop-color="#CFDDF3"/>
<stop offset="1" stop-color="#A1B8E3"/>
</linearGradient>
<linearGradient id="paint26_linear" x1="144.402" y1="118.276" x2="144.245" y2="108.982" gradientUnits="userSpaceOnUse">
<stop stop-color="#CFDDF3"/>
<stop offset="1" stop-color="#A1B8E3"/>
</linearGradient>
<linearGradient id="paint27_linear" x1="189.14" y1="160.57" x2="172.021" y2="91.9078" gradientUnits="userSpaceOnUse">
<stop stop-color="#70B8F9"/>
<stop offset="1" stop-color="#3D82F0"/>
</linearGradient>
<linearGradient id="paint28_linear" x1="108.893" y1="121.09" x2="117.236" y2="138.195" gradientUnits="userSpaceOnUse">
<stop stop-color="#D6E3FA"/>
<stop offset="1" stop-color="#E3EDFE"/>
</linearGradient>
<linearGradient id="paint29_linear" x1="39.6828" y1="250.485" x2="41.697" y2="230.448" gradientUnits="userSpaceOnUse">
<stop stop-color="#D9E5F6" stop-opacity="0.01"/>
<stop offset="1" stop-color="#B2C6EA"/>
</linearGradient>
<linearGradient id="paint30_linear" x1="54.773" y1="234.333" x2="31.1842" y2="218.145" gradientUnits="userSpaceOnUse">
<stop stop-color="#ACC5E9"/>
<stop offset="0.627469" stop-color="#D3E3FB"/>
<stop offset="1" stop-color="#EAF2FF"/>
</linearGradient>
<linearGradient id="paint31_linear" x1="13.3589" y1="216.72" x2="12.6251" y2="229.249" gradientUnits="userSpaceOnUse">
<stop stop-color="#86A8D9"/>
<stop offset="1" stop-color="#BCD0F2"/>
</linearGradient>
<linearGradient id="paint32_linear" x1="9.10147" y1="185.592" x2="36.3901" y2="213.329" gradientUnits="userSpaceOnUse">
<stop stop-color="#B1FFBE"/>
<stop offset="0.444207" stop-color="#5CDB8E"/>
<stop offset="1" stop-color="#149654"/>
</linearGradient>
<linearGradient id="paint33_linear" x1="8.26339" y1="193.277" x2="12.1547" y2="223.802" gradientUnits="userSpaceOnUse">
<stop stop-color="#B1FFBE"/>
<stop offset="0.444207" stop-color="#5CDB8E"/>
<stop offset="1" stop-color="#149654"/>
</linearGradient>
<linearGradient id="paint34_linear" x1="26.1307" y1="200.976" x2="44.6276" y2="229.202" gradientUnits="userSpaceOnUse">
<stop stop-color="#B1FFBE"/>
<stop offset="0.444207" stop-color="#5CDB8E"/>
<stop offset="1" stop-color="#149654"/>
</linearGradient>
<linearGradient id="paint35_linear" x1="332.701" y1="30.7853" x2="249.91" y2="52.2904" gradientUnits="userSpaceOnUse">
<stop stop-color="#47689B"/>
<stop offset="1" stop-color="#223762"/>
</linearGradient>
<linearGradient id="paint36_linear" x1="356.281" y1="140.719" x2="351.715" y2="126.647" gradientUnits="userSpaceOnUse">
<stop stop-color="#667FA7"/>
<stop offset="1" stop-color="#3D5586"/>
</linearGradient>
<linearGradient id="paint37_linear" x1="353.505" y1="160.603" x2="348.389" y2="144.818" gradientUnits="userSpaceOnUse">
<stop stop-color="#667FA7"/>
<stop offset="1" stop-color="#3D5586"/>
</linearGradient>
<linearGradient id="paint38_linear" x1="347.102" y1="179.595" x2="340.855" y2="162.872" gradientUnits="userSpaceOnUse">
<stop stop-color="#667FA7"/>
<stop offset="1" stop-color="#3D5586"/>
</linearGradient>
<linearGradient id="paint39_linear" x1="345.313" y1="198.64" x2="338.574" y2="180.198" gradientUnits="userSpaceOnUse">
<stop stop-color="#667FA7"/>
<stop offset="1" stop-color="#3D5586"/>
</linearGradient>
<linearGradient id="paint40_linear" x1="342.726" y1="218.362" x2="334.509" y2="197.687" gradientUnits="userSpaceOnUse">
<stop stop-color="#667FA7"/>
<stop offset="1" stop-color="#3D5586"/>
</linearGradient>
<linearGradient id="paint41_linear" x1="357.778" y1="26.3988" x2="289.182" y2="39.2081" gradientUnits="userSpaceOnUse">
<stop stop-color="#47689B"/>
<stop offset="1" stop-color="#223762"/>
</linearGradient>
<linearGradient id="paint42_linear" x1="349.129" y1="27.4428" x2="340.552" y2="22.9758" gradientUnits="userSpaceOnUse">
<stop stop-color="#004EC0"/>
<stop offset="1" stop-color="#3D82F0"/>
</linearGradient>
<linearGradient id="paint43_linear" x1="325.029" y1="26.8493" x2="345.812" y2="31.1985" gradientUnits="userSpaceOnUse">
<stop stop-color="#70B8F9"/>
<stop offset="1" stop-color="#3D82F0"/>
</linearGradient>
<linearGradient id="paint44_linear" x1="333.905" y1="104.521" x2="366.17" y2="82.0003" gradientUnits="userSpaceOnUse">
<stop stop-color="#CFDDF3"/>
<stop offset="1" stop-color="#A1B8E3"/>
</linearGradient>
<linearGradient id="paint45_linear" x1="370.603" y1="55.2925" x2="369.716" y2="25.4778" gradientUnits="userSpaceOnUse">
<stop stop-color="white"/>
<stop offset="1" stop-color="#D6E3FA"/>
</linearGradient>
<linearGradient id="paint46_linear" x1="463.611" y1="58.8819" x2="442.524" y2="-3.21321" gradientUnits="userSpaceOnUse">
<stop stop-color="#FFE883"/>
<stop offset="1" stop-color="#FECC4C"/>
</linearGradient>
<linearGradient id="paint47_linear" x1="476.47" y1="115.504" x2="476.902" y2="72.3965" gradientUnits="userSpaceOnUse">
<stop stop-color="#EDF3FD"/>
<stop offset="1" stop-color="#D6E3FA"/>
</linearGradient>
<linearGradient id="paint48_linear" x1="437.448" y1="100.405" x2="436.479" y2="76.1444" gradientUnits="userSpaceOnUse">
<stop stop-color="#CFDDF3"/>
<stop offset="1" stop-color="#A1B8E3"/>
</linearGradient>
<linearGradient id="paint49_linear" x1="444.222" y1="107.981" x2="444.729" y2="91.4552" gradientUnits="userSpaceOnUse">
<stop stop-color="#CFDDF3"/>
<stop offset="1" stop-color="#A1B8E3"/>
</linearGradient>
<linearGradient id="paint50_linear" x1="387.667" y1="110.895" x2="386.765" y2="87.3663" gradientUnits="userSpaceOnUse">
<stop stop-color="#CFDDF3"/>
<stop offset="1" stop-color="#A1B8E3"/>
</linearGradient>
<linearGradient id="paint51_linear" x1="503.065" y1="228.863" x2="502.226" y2="264.228" gradientUnits="userSpaceOnUse">
<stop stop-color="#9CB4E0"/>
<stop offset="1" stop-color="white" stop-opacity="0.01"/>
</linearGradient>
<linearGradient id="paint52_linear" x1="583.029" y1="177.608" x2="568.774" y2="194.248" gradientUnits="userSpaceOnUse">
<stop stop-color="#FF6B67"/>
<stop offset="1" stop-color="#F05971"/>
</linearGradient>
<linearGradient id="paint53_linear" x1="643.869" y1="200.581" x2="626.723" y2="213.968" gradientUnits="userSpaceOnUse">
<stop stop-color="#FF6B67"/>
<stop offset="1" stop-color="#F05971"/>
</linearGradient>
<linearGradient id="paint54_linear" x1="613.129" y1="197.429" x2="595.983" y2="210.815" gradientUnits="userSpaceOnUse">
<stop stop-color="#FF6B67"/>
<stop offset="1" stop-color="#F05971"/>
</linearGradient>
<linearGradient id="paint55_linear" x1="656.107" y1="190.307" x2="636.154" y2="199.363" gradientUnits="userSpaceOnUse">
<stop stop-color="#FF6B67"/>
<stop offset="1" stop-color="#F05971"/>
</linearGradient>
<linearGradient id="paint56_linear" x1="605.957" y1="179.188" x2="585.7" y2="187.542" gradientUnits="userSpaceOnUse">
<stop stop-color="#FF6B67"/>
<stop offset="1" stop-color="#F05971"/>
</linearGradient>
<linearGradient id="paint57_linear" x1="602.322" y1="188.977" x2="587.495" y2="205.11" gradientUnits="userSpaceOnUse">
<stop stop-color="#FF6B67"/>
<stop offset="1" stop-color="#F05971"/>
</linearGradient>
<linearGradient id="paint58_linear" x1="599.151" y1="177.363" x2="621.043" y2="176.44" gradientUnits="userSpaceOnUse">
<stop stop-color="#FF6B67"/>
<stop offset="1" stop-color="#F05971"/>
</linearGradient>
<linearGradient id="paint59_linear" x1="624.157" y1="183.896" x2="606.524" y2="196.902" gradientUnits="userSpaceOnUse">
<stop stop-color="#FF6B67"/>
<stop offset="1" stop-color="#F05971"/>
</linearGradient>
<linearGradient id="paint60_linear" x1="624.543" y1="196.68" x2="606.253" y2="208.746" gradientUnits="userSpaceOnUse">
<stop stop-color="#FF6B67"/>
<stop offset="1" stop-color="#F05971"/>
</linearGradient>
<linearGradient id="paint61_linear" x1="634.409" y1="179.71" x2="623.925" y2="198.95" gradientUnits="userSpaceOnUse">
<stop stop-color="#FF6B67"/>
<stop offset="1" stop-color="#F05971"/>
</linearGradient>
<linearGradient id="paint62_linear" x1="538.722" y1="206.342" x2="588.129" y2="250.963" gradientUnits="userSpaceOnUse">
<stop stop-color="#85A6DB"/>
<stop offset="1" stop-color="#C6D4EE"/>
</linearGradient>
<linearGradient id="paint63_linear" x1="663.437" y1="230.21" x2="621.457" y2="273.23" gradientUnits="userSpaceOnUse">
<stop stop-color="#EDF3FD"/>
<stop offset="1" stop-color="#D0DAEA"/>
</linearGradient>
<linearGradient id="paint64_linear" x1="642.003" y1="207.987" x2="620.681" y2="232.528" gradientUnits="userSpaceOnUse">
<stop stop-color="#B4C9E7"/>
<stop offset="1" stop-color="#BECFEC" stop-opacity="0.101789"/>
</linearGradient>
<linearGradient id="paint65_linear" x1="540.304" y1="189.486" x2="540.304" y2="229.685" gradientUnits="userSpaceOnUse">
<stop stop-color="#EDF3FD"/>
<stop offset="1" stop-color="#D6E3FA"/>
</linearGradient>
<linearGradient id="paint66_linear" x1="685.939" y1="199.493" x2="681.517" y2="244.696" gradientUnits="userSpaceOnUse">
<stop stop-color="#E5ECF8"/>
<stop offset="1" stop-color="#C6D4EE"/>
</linearGradient>
</defs>
</svg>
