<svg width="718" height="551" viewBox="0 0 718 551" fill="none" xmlns="http://www.w3.org/2000/svg">
<mask id="mask0" mask-type="alpha" maskUnits="userSpaceOnUse" x="0" y="0" width="718" height="551">
<rect width="718" height="550.111" fill="#C4C4C4"/>
</mask>
<g mask="url(#mask0)">
<path opacity="0.5" fill-rule="evenodd" clip-rule="evenodd" d="M37.6021 364.145L242.967 316.062L502.02 410.009L307.922 490.219" fill="url(#paint0_linear)"/>
<path fill-rule="evenodd" clip-rule="evenodd" d="M330.677 363.274C331.341 361.595 333.227 360.778 334.889 361.45L376.138 378.12C377.799 378.792 378.608 380.697 377.943 382.376C377.278 384.056 375.392 384.872 373.73 384.201L332.482 367.531C330.82 366.859 330.012 364.953 330.677 363.274Z" fill="url(#paint1_linear)"/>
<path fill-rule="evenodd" clip-rule="evenodd" d="M346.915 357.933C347.672 359.548 346.943 361.456 345.287 362.194L275.768 393.174C274.112 393.912 272.157 393.2 271.4 391.586C270.644 389.971 271.373 388.063 273.028 387.325L342.548 356.345C344.203 355.607 346.159 356.318 346.915 357.933Z" fill="url(#paint2_linear)"/>
<path fill-rule="evenodd" clip-rule="evenodd" d="M388.867 368.661C390.131 369.95 390.086 371.995 388.765 373.23L332.175 426.109C330.854 427.343 328.758 427.299 327.493 426.01C326.229 424.721 326.274 422.675 327.595 421.441L384.185 368.561C385.506 367.327 387.602 367.372 388.867 368.661Z" fill="url(#paint3_linear)"/>
<path fill-rule="evenodd" clip-rule="evenodd" d="M656.826 316.723V341.203C656.826 344.472 652.998 350.977 649.934 352.093L521.298 407.938C509.45 412.251 496.544 412.687 484.434 409.183L251.33 323.224C248.523 322.412 246.591 319.837 246.591 316.907L246.591 291.83L386.757 288.293C392.371 287.481 398.071 287.477 403.686 288.28L656.826 316.723Z" fill="url(#paint4_linear)"/>
<g filter="url(#filter0_d)">
<path fill-rule="evenodd" clip-rule="evenodd" d="M656.826 285.763V314.427C656.826 317.696 654.786 320.615 651.722 321.73L521.298 376.978C509.45 381.291 496.544 381.727 484.434 378.223L251.33 294.057C248.523 293.246 246.591 290.67 246.591 287.741L246.591 260.87L386.757 257.333C392.371 256.521 398.071 256.517 403.686 257.32L656.826 285.763Z" fill="url(#paint5_linear)"/>
</g>
<g filter="url(#filter1_d)">
<path fill-rule="evenodd" clip-rule="evenodd" d="M656.826 255.79V284.155C656.826 287.389 654.786 290.278 651.722 291.382L521.298 346.054C509.45 350.322 496.544 350.754 484.434 347.287L251.33 263.998C248.523 263.194 246.591 260.645 246.591 257.747L246.591 231.156L386.757 227.656C392.371 226.852 398.071 226.848 403.686 227.643L656.826 255.79Z" fill="url(#paint6_linear)"/>
</g>
<g filter="url(#filter2_d)">
<path fill-rule="evenodd" clip-rule="evenodd" d="M656.826 222.55V251.214C656.826 254.483 654.786 257.402 651.722 258.517L521.298 313.765C509.45 318.078 496.544 318.514 484.434 315.011L251.33 230.845C248.523 230.033 246.591 227.457 246.591 224.528L246.591 197.657L386.757 194.12C392.371 193.308 398.071 193.304 403.686 194.107L656.826 222.55Z" fill="url(#paint7_linear)"/>
</g>
<g filter="url(#filter3_d)">
<path fill-rule="evenodd" clip-rule="evenodd" d="M656.826 191.892V220.854C656.826 224.157 654.786 227.107 651.722 228.234L521.298 284.056C509.45 288.414 496.544 288.855 484.434 285.315L251.33 200.273C248.523 199.452 246.591 196.85 246.591 193.89L246.591 166.739L386.757 163.165C392.371 162.345 398.071 162.341 403.686 163.152L656.826 191.892Z" fill="url(#paint8_linear)"/>
</g>
<g filter="url(#filter4_d)">
<path fill-rule="evenodd" clip-rule="evenodd" d="M656.826 162.205V192.936C656.826 196.171 654.786 199.06 651.722 200.164L521.298 251.878C509.45 256.146 496.544 256.578 484.434 253.111L251.33 175.145C248.523 174.342 246.591 171.793 246.591 168.894L246.591 136.98L386.757 133.48C392.371 132.676 398.071 132.672 403.686 133.467L656.826 162.205Z" fill="url(#paint9_linear)"/>
</g>
<g filter="url(#filter5_d)">
<path fill-rule="evenodd" clip-rule="evenodd" d="M656.826 137.819V166.177C656.826 169.48 654.786 172.43 651.722 173.557L521.298 222.133C509.45 226.49 496.544 226.931 484.434 223.391L251.33 148.615C248.523 147.795 246.591 145.192 246.591 142.233L246.591 115.686L386.757 101.242C392.371 100.421 398.071 100.417 403.686 101.228L656.826 137.819Z" fill="url(#paint10_linear)"/>
</g>
<path fill-rule="evenodd" clip-rule="evenodd" d="M380.144 75.6522C389.719 73.0398 399.8 72.8385 409.474 75.0666L649.898 130.443C658.624 132.453 659.295 144.523 650.845 147.473L521.193 192.73C509.2 196.916 496.171 197.195 484.007 193.524L251.246 123.284C244.952 121.385 245.072 112.503 251.416 110.773L380.144 75.6522Z" fill="url(#paint11_linear)"/>
<path fill-rule="evenodd" clip-rule="evenodd" d="M425.671 82.5645L625.865 130.242L475.245 184.478L282.712 126.14L425.671 82.5645Z" fill="white"/>
<path fill-rule="evenodd" clip-rule="evenodd" d="M340.946 336.366C341.547 334.63 343.448 333.707 345.194 334.303L382.369 347.007C384.115 347.603 385.043 349.494 384.443 351.229C383.843 352.965 381.941 353.888 380.195 353.291L343.021 340.588C341.275 339.992 340.346 338.101 340.946 336.366Z" fill="#1B2B4F"/>
<path fill-rule="evenodd" clip-rule="evenodd" d="M340.946 307.986C341.547 306.25 343.448 305.327 345.194 305.924L382.369 318.627C384.115 319.223 385.043 321.114 384.443 322.849C383.843 324.585 381.941 325.508 380.195 324.912L343.021 312.208C341.275 311.612 340.346 309.721 340.946 307.986Z" fill="#1B2B4F"/>
<path fill-rule="evenodd" clip-rule="evenodd" d="M340.946 276.874C341.547 275.254 343.448 274.393 345.194 274.95L382.369 286.806C384.115 287.363 385.043 289.127 384.443 290.747C383.843 292.367 381.941 293.228 380.195 292.672L343.021 280.815C341.275 280.259 340.346 278.494 340.946 276.874Z" fill="#1B2B4F"/>
<path fill-rule="evenodd" clip-rule="evenodd" d="M340.946 243.484C341.547 241.748 343.448 240.825 345.194 241.422L382.369 254.125C384.115 254.721 385.043 256.612 384.443 258.347C383.843 260.083 381.941 261.006 380.195 260.41L343.021 247.706C341.275 247.11 340.346 245.219 340.946 243.484Z" fill="#1B2B4F"/>
<path fill-rule="evenodd" clip-rule="evenodd" d="M340.904 208.764C341.423 207.013 343.242 206.022 344.966 206.55L382.306 217.987C384.03 218.515 385.006 220.363 384.486 222.113C383.966 223.864 382.147 224.855 380.424 224.327L343.083 212.89C341.36 212.362 340.384 210.515 340.904 208.764Z" fill="#1B2B4F"/>
<path fill-rule="evenodd" clip-rule="evenodd" d="M383.981 183.187C385.762 183.187 387.206 184.654 387.206 186.465V368.256C387.206 370.066 385.762 371.534 383.981 371.534C382.2 371.534 380.756 370.066 380.756 368.256V186.465C380.756 184.654 382.2 183.187 383.981 183.187Z" fill="#1B2B4F"/>
<path fill-rule="evenodd" clip-rule="evenodd" d="M340.764 171.576C342.901 171.576 344.634 173.042 344.634 174.849V352.78C344.634 354.588 342.901 356.053 340.764 356.053C338.627 356.053 336.894 354.588 336.894 352.78V174.849C336.894 173.042 338.627 171.576 340.764 171.576Z" fill="#1B2B4F"/>
<path fill-rule="evenodd" clip-rule="evenodd" d="M79.7012 189.027C77.1024 189.027 74.9956 191.137 74.9956 193.739V219.055C74.9956 221.657 77.1024 223.766 79.7012 223.766H92.4731L98.012 229.312C99.8497 231.151 102.829 231.151 104.667 229.312L110.206 223.766H123.62C126.219 223.766 128.326 221.657 128.326 219.055V193.739C128.326 191.137 126.219 189.027 123.62 189.027H79.7012Z" fill="url(#paint12_linear)"/>
<path fill-rule="evenodd" clip-rule="evenodd" d="M102.493 217.358C81.3598 206.457 96.644 192.905 102.493 202.032C108.343 192.905 123.628 206.457 102.493 217.358Z" fill="white"/>
<path fill-rule="evenodd" clip-rule="evenodd" d="M2.34301 296.064C2.34301 303.977 -4.05133 319.484 4.28692 323.505C12.6252 327.525 19.9988 306.644 19.9988 306.644C19.9988 306.644 19.3632 291.31 11.8251 291.31C4.28692 291.31 2.34301 288.151 2.34301 296.064Z" fill="url(#paint13_linear)"/>
<mask id="mask1" mask-type="alpha" maskUnits="userSpaceOnUse" x="0" y="290" width="20" height="35">
<path fill-rule="evenodd" clip-rule="evenodd" d="M2.34301 296.064C2.34301 303.977 -4.05133 319.484 4.28692 323.505C12.6252 327.525 19.9988 306.644 19.9988 306.644C19.9988 306.644 19.3632 291.31 11.8251 291.31C4.28692 291.31 2.34301 288.151 2.34301 296.064Z" fill="white"/>
</mask>
<g mask="url(#mask1)">
<g opacity="0.5">
<path fill-rule="evenodd" clip-rule="evenodd" d="M1.6891 300.957C2.38508 302.211 11.8692 308.843 13.4375 310.411C15.0058 311.98 15.3643 316.079 16.2648 315.655C17.1654 315.232 16.2648 303.208 16.2648 303.208C16.2648 303.208 0.993126 299.704 1.6891 300.957Z" fill="#3D82F0" style="mix-blend-mode:multiply"/>
</g>
</g>
<path fill-rule="evenodd" clip-rule="evenodd" d="M17.1228 474.724C17.1228 478.801 16.0945 483.895 17.1228 485.919C18.1511 487.944 23.2478 489.009 24.9292 489.009C26.6107 489.009 27.173 486.104 29.7843 487.598C32.3957 489.093 47.2787 489.009 48.2456 482.946C49.2125 476.883 41.6675 476.883 38.3117 476.883C34.9558 476.883 31.4019 475.209 26.4189 470.863C21.436 466.517 17.1228 470.647 17.1228 474.724Z" fill="url(#paint14_linear)"/>
<path fill-rule="evenodd" clip-rule="evenodd" d="M31.7473 474.359C31.5452 474.664 31.7286 475.027 32.1568 475.171C33.2457 475.536 33.6846 475.863 33.9875 476.288C34.1553 476.523 34.2939 476.808 34.4487 477.189C34.5235 477.373 34.5992 477.573 34.6838 477.796L34.691 477.815C34.778 478.044 34.8734 478.295 34.9827 478.567C35.1126 478.891 35.5871 479.078 36.0424 478.986C36.4978 478.893 36.7616 478.556 36.6317 478.232C36.5261 477.969 36.4336 477.726 36.3466 477.497L36.3375 477.473C36.2544 477.254 36.1753 477.046 36.0963 476.851C35.9336 476.45 35.7595 476.076 35.5168 475.736C34.9986 475.009 34.2249 474.517 32.8886 474.068C32.4604 473.925 31.9494 474.055 31.7473 474.359Z" fill="white"/>
<path fill-rule="evenodd" clip-rule="evenodd" d="M38.7479 476.959C39.2413 477.168 39.6665 477.637 40.0674 478.603C40.1907 478.901 40.6411 479.073 41.0733 478.988C41.5056 478.903 41.756 478.594 41.6326 478.296C41.2179 477.296 40.6567 476.453 39.6012 476.006C38.5172 475.547 37.1654 475.606 35.5696 475.949C35.1405 476.041 34.9011 476.355 35.0349 476.65C35.1688 476.945 35.6251 477.11 36.0542 477.018C37.5237 476.703 38.2831 476.762 38.7479 476.959Z" fill="white"/>
<path fill-rule="evenodd" clip-rule="evenodd" d="M92.1901 481.868C92.1901 486.285 90.9994 491.803 92.1901 493.997C93.3807 496.19 99.2822 497.343 101.229 497.343C103.176 497.343 103.827 494.197 106.851 495.815C109.874 497.434 127.107 497.343 128.227 490.775C129.347 484.207 120.61 484.207 116.725 484.207C112.839 484.207 108.724 482.394 102.954 477.686C97.1843 472.977 92.1901 477.452 92.1901 481.868Z" fill="url(#paint15_linear)"/>
<path fill-rule="evenodd" clip-rule="evenodd" d="M110.059 481.24C109.893 481.725 110.05 482.3 110.409 482.523C111.478 483.19 112.075 483.845 112.497 484.66C112.937 485.509 113.231 486.609 113.589 488.307C113.698 488.821 114.094 489.119 114.473 488.972C114.853 488.826 115.073 488.29 114.965 487.776C114.606 486.076 114.261 484.691 113.668 483.549C113.058 482.372 112.229 481.527 111.008 480.766C110.649 480.542 110.224 480.754 110.059 481.24Z" fill="white"/>
<path fill-rule="evenodd" clip-rule="evenodd" d="M116.139 485.935C116.509 486.248 116.828 486.951 117.128 488.401C117.221 488.847 117.559 489.105 117.883 488.978C118.207 488.851 118.395 488.386 118.302 487.94C117.991 486.44 117.57 485.175 116.779 484.504C115.966 483.816 114.952 483.905 113.755 484.419C113.433 484.557 113.254 485.028 113.354 485.471C113.454 485.914 113.797 486.161 114.119 486.023C115.221 485.55 115.79 485.639 116.139 485.935Z" fill="white"/>
<path fill-rule="evenodd" clip-rule="evenodd" d="M79.4024 337.351C79.4024 337.351 96.0383 397.511 98.2041 411.2C100.37 424.889 105.67 471.16 104.922 478.623C101.302 482.266 94.7798 480.085 93.6438 479.416C92.5077 478.748 85.5084 440.678 79.4024 425.909C73.2964 411.141 59.5556 397.549 50.5014 382.69C50.5014 392.361 43.5099 418.242 43.5099 418.242C43.5099 418.242 33.315 463.947 29.8457 471.345C28.1995 473.97 19.8891 472.045 16.6658 471.345C16.6658 464.413 23.6157 429.392 23.6157 417.234C23.6157 405.076 21.6936 383.042 20.9755 374.01C20.2574 364.977 18.5029 347.453 20.9755 337.351C27.2434 337.351 79.4024 337.351 79.4024 337.351Z" fill="url(#paint16_linear)"/>
<mask id="mask2" mask-type="alpha" maskUnits="userSpaceOnUse" x="16" y="337" width="89" height="144">
<path fill-rule="evenodd" clip-rule="evenodd" d="M79.4024 337.351C79.4024 337.351 96.0383 397.511 98.2041 411.2C100.37 424.889 105.67 471.16 104.922 478.623C101.302 482.266 94.7798 480.085 93.6438 479.416C92.5077 478.748 85.5084 440.678 79.4024 425.909C73.2964 411.141 59.5556 397.549 50.5014 382.69C50.5014 392.361 43.5099 418.242 43.5099 418.242C43.5099 418.242 33.315 463.947 29.8457 471.345C28.1995 473.97 19.8891 472.045 16.6658 471.345C16.6658 464.413 23.6157 429.392 23.6157 417.234C23.6157 405.076 21.6936 383.042 20.9755 374.01C20.2574 364.977 18.5029 347.453 20.9755 337.351C27.2434 337.351 79.4024 337.351 79.4024 337.351Z" fill="white"/>
</mask>
<g mask="url(#mask2)">
<g opacity="0.5">
<path fill-rule="evenodd" clip-rule="evenodd" d="M41.6638 425.159C41.6638 419.378 44.742 372.134 45.4491 374.073C46.1563 376.011 51.6632 386.481 51.6632 386.481C51.6632 386.481 41.6638 430.941 41.6638 425.159Z" fill="#A1B8E3" style="mix-blend-mode:multiply"/>
</g>
<path fill-rule="evenodd" clip-rule="evenodd" d="M45.6838 372.369C46.1639 372.268 46.6459 372.53 46.7604 372.953C47.2242 374.669 48.3689 376.771 49.6613 378.873C50.2168 379.777 50.8097 380.696 51.3738 381.569C52.082 382.667 52.7449 383.694 53.2316 384.533C53.4564 384.92 53.2824 385.395 52.843 385.594C52.4035 385.792 51.8651 385.638 51.6403 385.251C51.1577 384.419 50.5387 383.461 49.8581 382.408C49.2965 381.539 48.6931 380.606 48.09 379.625C46.7956 377.519 45.5454 375.257 45.0216 373.319C44.9072 372.895 45.2036 372.47 45.6838 372.369Z" fill="white"/>
<g opacity="0.5">
<path fill-rule="evenodd" clip-rule="evenodd" d="M25.2765 347.393C29.2046 349.492 44.5874 358.425 64.4087 354.845C74.2022 353.077 80.5021 350.762 83.328 347.393C83.328 345.734 80.9526 338.756 80.2893 336.086C79.6259 333.416 20.466 344.823 25.2765 347.393Z" fill="url(#paint17_linear)" style="mix-blend-mode:multiply"/>
</g>
</g>
<path fill-rule="evenodd" clip-rule="evenodd" d="M51.3217 209.024C51.3217 209.024 53.5459 213.282 57.3133 215.089C61.0808 216.897 62.9635 217.781 62.9635 217.781L61.3619 223.92C61.3619 223.92 64.3471 232.947 62.9635 235.99C61.5799 239.034 57.3133 241.055 54.83 243.769C52.3468 246.483 50.0509 255.688 50.0509 255.688H33.6837L32.9425 243.769C32.9425 243.769 28.5775 226.57 35.9833 217.781C43.3891 208.992 51.3217 209.024 51.3217 209.024Z" fill="url(#paint18_linear)"/>
<mask id="mask3" mask-type="alpha" maskUnits="userSpaceOnUse" x="31" y="209" width="33" height="47">
<path fill-rule="evenodd" clip-rule="evenodd" d="M51.3217 209.024C51.3217 209.024 53.5459 213.282 57.3133 215.089C61.0808 216.897 62.9635 217.781 62.9635 217.781L61.3619 223.92C61.3619 223.92 64.3471 232.947 62.9635 235.99C61.5799 239.034 57.3133 241.055 54.83 243.769C52.3468 246.483 50.0509 255.688 50.0509 255.688H33.6837L32.9425 243.769C32.9425 243.769 28.5775 226.57 35.9833 217.781C43.3891 208.992 51.3217 209.024 51.3217 209.024Z" fill="white"/>
</mask>
<g mask="url(#mask3)">
<g opacity="0.5">
<path fill-rule="evenodd" clip-rule="evenodd" d="M56.0618 242.325C51.6455 242.325 44.7562 238.68 43.4302 237.435C42.1042 236.189 54.4709 249.663 53.4386 251.808C52.6242 253.501 49.7168 254.019 51.5505 254.019C58.1635 254.019 60.4782 242.325 56.0618 242.325Z" fill="#3D82F0" style="mix-blend-mode:multiply"/>
</g>
</g>
<path fill-rule="evenodd" clip-rule="evenodd" d="M32.6576 244.024C18.4978 230.651 7.28555 219.239 16.9553 203.337C26.6251 187.435 49.1245 182.089 53.33 201.419C53.33 209.713 47.269 214.144 47.269 214.144C47.269 214.144 46.1352 216.476 49.1245 218.949C52.1138 221.422 49.1245 223.466 49.1245 223.466C49.1245 223.466 43.2215 219.629 41.6799 224.738C40.1384 229.847 45.8285 231.676 45.8285 232.954C47.7897 237.654 43.7421 241.952 43.7421 241.952C43.7421 241.952 41.6698 244.024 32.6576 244.024Z" fill="url(#paint19_linear)"/>
<path fill-rule="evenodd" clip-rule="evenodd" d="M17.1358 262.356C17.1358 262.356 1.95674 288.939 0.125351 294.788C-1.70604 300.638 17.1358 304.021 17.1358 304.021L24.9985 270.582L17.1358 262.356Z" fill="url(#paint20_linear)"/>
<path fill-rule="evenodd" clip-rule="evenodd" d="M51.3758 251.136C51.3758 251.136 63.0271 254.287 69.8927 262.614C76.7583 270.941 75.2283 295.992 77.1729 310.902C79.1175 325.812 87.5787 336.65 74.5093 345.064C61.4398 353.479 24.487 351.568 21.465 345.064C18.443 338.561 14.9985 298.589 14.9985 298.589C14.9985 298.589 14.9985 262.614 19.1262 259.581C23.254 256.548 32.89 250.688 32.89 250.688C32.89 250.688 32.6739 251.579 37.3222 252.463C41.9705 253.347 51.3758 251.136 51.3758 251.136Z" fill="#D6E3FA"/>
<mask id="mask4" mask-type="alpha" maskUnits="userSpaceOnUse" x="14" y="250" width="68" height="101">
<path fill-rule="evenodd" clip-rule="evenodd" d="M51.3758 251.136C51.3758 251.136 63.0271 254.287 69.8927 262.614C76.7583 270.941 75.2283 295.992 77.1729 310.902C79.1175 325.812 87.5787 336.65 74.5093 345.064C61.4398 353.479 24.487 351.568 21.465 345.064C18.443 338.561 14.9985 298.589 14.9985 298.589C14.9985 298.589 14.9985 262.614 19.1262 259.581C23.254 256.548 32.89 250.688 32.89 250.688C32.89 250.688 32.6739 251.579 37.3222 252.463C41.9705 253.347 51.3758 251.136 51.3758 251.136Z" fill="white"/>
</mask>
<g mask="url(#mask4)">
<path opacity="0.5" fill-rule="evenodd" clip-rule="evenodd" d="M61.6628 279.021C61.6628 279.021 67.9166 308.813 71.6797 314.397C75.4429 319.981 77.8897 336.879 80.9018 338.894C83.9139 340.908 88.2409 317.858 86.0774 309.966C83.9139 302.074 74.1621 282.743 74.1621 282.743L61.6628 279.021Z" fill="url(#paint21_linear)"/>
<path opacity="0.5" fill-rule="evenodd" clip-rule="evenodd" d="M35.3208 253.985C38.1848 256.171 45.6473 257.354 51.9199 257.354C58.1924 257.354 60.1543 257.43 63.1556 256.379C66.1569 255.328 64.9932 253.985 63.1556 253.985C61.318 253.985 55.6184 252.444 52.5507 252.444C49.4829 252.444 32.4568 251.8 35.3208 253.985Z" fill="url(#paint22_linear)"/>
</g>
<path fill-rule="evenodd" clip-rule="evenodd" d="M32.0274 252.165C32.0274 252.165 31.6648 248.814 31.6648 247.733C31.6648 246.653 43.8034 248.179 52.5386 248.784C53.4865 251.48 53.3186 251.659 53.3186 252.165C53.3186 252.418 51.1371 254.586 39.4003 253.883C35.1159 253.626 32.0274 252.165 32.0274 252.165Z" fill="#E1ECFF"/>
<path fill-rule="evenodd" clip-rule="evenodd" d="M92.0956 287.186C94.6945 281.349 96.1648 272.333 93.4114 271.107C90.658 269.881 86.7539 276.1 84.155 281.937C81.5561 287.774 83.1705 291.555 84.7639 293.13C86.551 293.499 89.4967 293.023 92.0956 287.186Z" fill="#A1B8E3"/>
<path fill-rule="evenodd" clip-rule="evenodd" d="M89.0299 269.741L101.215 274.756C101.215 274.756 112.022 245.921 112.677 242.179C113.333 238.436 110.427 233.155 109.958 231.272C109.489 229.389 109.565 224.958 110.877 223.337C112.188 221.715 112.535 222.295 113.515 222.05C119.038 222.623 124.785 212.396 126.521 211.218C128.258 210.04 129.92 214.002 130.575 216.515C131.23 219.027 131.588 225.234 130.478 229.038C129.368 232.842 124.247 239.738 124.612 241.204C124.978 242.671 119.807 267.523 118.161 277.463C116.515 287.402 114.364 294.373 105.962 293.797C97.561 293.222 80.1504 283.88 80.1504 283.88C80.1504 283.88 81.2887 276.624 83.4637 273.886C85.6387 271.148 89.0299 269.741 89.0299 269.741Z" fill="url(#paint23_linear)"/>
<mask id="mask5" mask-type="alpha" maskUnits="userSpaceOnUse" x="80" y="211" width="52" height="83">
<path fill-rule="evenodd" clip-rule="evenodd" d="M89.0299 269.741L101.215 274.756C101.215 274.756 112.022 245.921 112.677 242.179C113.333 238.436 110.427 233.155 109.958 231.272C109.489 229.389 109.565 224.958 110.877 223.337C112.188 221.715 112.535 222.295 113.515 222.05C119.038 222.623 124.785 212.396 126.521 211.218C128.258 210.04 129.92 214.002 130.575 216.515C131.23 219.027 131.588 225.234 130.478 229.038C129.368 232.842 124.247 239.738 124.612 241.204C124.978 242.671 119.807 267.523 118.161 277.463C116.515 287.402 114.364 294.373 105.962 293.797C97.561 293.222 80.1504 283.88 80.1504 283.88C80.1504 283.88 81.2887 276.624 83.4637 273.886C85.6387 271.148 89.0299 269.741 89.0299 269.741Z" fill="white"/>
</mask>
<g mask="url(#mask5)">
<g opacity="0.5">
<path fill-rule="evenodd" clip-rule="evenodd" d="M93.0291 271.073C93.0291 271.073 90.4464 286.181 92.0669 290.626C93.6874 295.071 84.7997 288.798 84.7997 288.798C84.7997 288.798 84.9727 282.324 86.3386 279.382C87.7046 276.44 93.0291 271.073 93.0291 271.073Z" fill="#3D82F0" style="mix-blend-mode:multiply"/>
</g>
<path fill-rule="evenodd" clip-rule="evenodd" d="M100.258 274.074C100.436 273.687 100.894 273.518 101.281 273.695C101.332 273.719 101.389 273.744 101.45 273.772C102.185 274.1 103.538 274.705 104.736 276.365C104.985 276.71 104.908 277.191 104.563 277.441C104.217 277.69 103.736 277.612 103.486 277.267C102.534 275.948 101.507 275.487 100.81 275.174C100.75 275.147 100.692 275.122 100.637 275.096C100.25 274.919 100.081 274.461 100.258 274.074Z" fill="#223762"/>
</g>
<path fill-rule="evenodd" clip-rule="evenodd" d="M84.6551 293.085C86.0272 286.219 88.005 276.769 93.4996 271.113C73.8927 262.659 67.7143 259.661 61.55 257.028C55.3858 254.395 49.7768 271.739 61.55 280.367C73.3233 288.994 81.3832 291.64 84.6551 293.085Z" fill="url(#paint24_linear)"/>
<path opacity="0.7" fill-rule="evenodd" clip-rule="evenodd" d="M189.306 240.634C200.706 240.634 209.947 244.677 209.947 249.664C209.947 254.651 200.706 258.694 189.306 258.694C177.906 258.694 168.665 254.651 168.665 249.664C168.665 244.677 177.906 240.634 189.306 240.634Z" fill="url(#paint25_linear)"/>
<path fill-rule="evenodd" clip-rule="evenodd" d="M217.744 220.475C219.361 223.258 220.267 226.375 220.267 229.668C220.267 241.424 208.716 250.953 194.466 250.953C180.217 250.953 168.665 241.424 168.665 229.668C168.665 226.184 169.68 222.895 171.479 219.992C182.909 221.769 205.659 221.654 217.744 220.475Z" fill="url(#paint26_linear)"/>
<mask id="mask6" mask-type="alpha" maskUnits="userSpaceOnUse" x="168" y="219" width="53" height="32">
<path fill-rule="evenodd" clip-rule="evenodd" d="M217.744 220.475C219.361 223.258 220.267 226.375 220.267 229.668C220.267 241.424 208.716 250.953 194.466 250.953C180.217 250.953 168.665 241.424 168.665 229.668C168.665 226.184 169.68 222.895 171.479 219.992C182.909 221.769 205.659 221.654 217.744 220.475Z" fill="white"/>
</mask>
<g mask="url(#mask6)">
</g>
<path fill-rule="evenodd" clip-rule="evenodd" d="M194.467 217.412C207.291 217.412 217.687 219.722 217.687 222.572C217.687 225.422 207.291 227.733 194.467 227.733C181.642 227.733 171.246 225.422 171.246 222.572C171.246 219.722 181.642 217.412 194.467 217.412Z" fill="url(#paint27_linear)"/>
<mask id="mask7" mask-type="alpha" maskUnits="userSpaceOnUse" x="171" y="217" width="47" height="11">
<path fill-rule="evenodd" clip-rule="evenodd" d="M194.467 217.412C207.291 217.412 217.687 219.722 217.687 222.572C217.687 225.422 207.291 227.733 194.467 227.733C181.642 227.733 171.246 225.422 171.246 222.572C171.246 219.722 181.642 217.412 194.467 217.412Z" fill="white"/>
</mask>
<g mask="url(#mask7)">
</g>
<g filter="url(#filter6_i)">
<path fill-rule="evenodd" clip-rule="evenodd" d="M192.369 218.702C191.17 210.151 187.87 197.804 177.951 184.505C172.108 176.671 172.089 157.593 171.245 155.489C175.83 157.114 184.067 161.3 192.369 173.106C201.073 185.481 195.552 210.719 192.369 218.702Z" fill="url(#paint28_linear)"/>
</g>
<mask id="mask8" mask-type="alpha" maskUnits="userSpaceOnUse" x="171" y="155" width="27" height="64">
<path fill-rule="evenodd" clip-rule="evenodd" d="M192.369 218.702C191.17 210.151 187.87 197.804 177.951 184.505C172.108 176.671 172.089 157.593 171.245 155.489C175.83 157.114 184.067 161.3 192.369 173.106C201.073 185.481 195.552 210.719 192.369 218.702Z" fill="white"/>
</mask>
<g mask="url(#mask8)">
<g style="mix-blend-mode:multiply" opacity="0.5">
<path fill-rule="evenodd" clip-rule="evenodd" d="M191.719 218.701C192.574 197.846 190.228 184.684 182.856 172.259Z" fill="black" fill-opacity="0.01"/>
</g>
</g>
<g filter="url(#filter7_i)">
<path fill-rule="evenodd" clip-rule="evenodd" d="M193.176 226.443C189.273 220.293 182.378 211.96 169.836 205.203C162.447 201.223 155.876 186.577 154.474 185.255C158.717 184.904 166.776 185.249 177.506 191.422C188.753 197.894 192.99 219.203 193.176 226.443Z" fill="url(#paint29_linear)"/>
</g>
<mask id="mask9" mask-type="alpha" maskUnits="userSpaceOnUse" x="154" y="185" width="40" height="42">
<path fill-rule="evenodd" clip-rule="evenodd" d="M193.176 226.443C189.273 220.293 182.378 211.96 169.836 205.203C162.447 201.223 155.876 186.577 154.474 185.255C158.717 184.904 166.776 185.249 177.506 191.422C188.753 197.894 192.99 219.203 193.176 226.443Z" fill="white"/>
</mask>
<g mask="url(#mask9)">
<g style="mix-blend-mode:multiply" opacity="0.5">
<path fill-rule="evenodd" clip-rule="evenodd" d="M191.885 226.443C185.564 210.806 179.125 201.972 168.665 195.481Z" fill="black" fill-opacity="0.01"/>
</g>
</g>
<g filter="url(#filter8_i)">
<path fill-rule="evenodd" clip-rule="evenodd" d="M195.926 227.733C198.907 221.04 204.495 211.764 215.733 203.349C222.353 198.393 226.824 182.802 228.007 181.291C223.869 181.483 216.139 182.865 206.575 190.459C196.55 198.42 195.182 220.419 195.926 227.733Z" fill="url(#paint30_linear)"/>
</g>
<mask id="mask10" mask-type="alpha" maskUnits="userSpaceOnUse" x="195" y="181" width="34" height="47">
<path fill-rule="evenodd" clip-rule="evenodd" d="M195.926 227.733C198.907 221.04 204.495 211.764 215.733 203.349C222.353 198.393 226.824 182.802 228.007 181.291C223.869 181.483 216.139 182.865 206.575 190.459C196.55 198.42 195.182 220.419 195.926 227.733Z" fill="white"/>
</mask>
<g mask="url(#mask10)">
<g style="mix-blend-mode:multiply" opacity="0.5">
<path fill-rule="evenodd" clip-rule="evenodd" d="M194.466 227.734C198.737 210.834 204.068 200.919 213.817 192.902Z" fill="black" fill-opacity="0.01"/>
</g>
</g>
<path fill-rule="evenodd" clip-rule="evenodd" d="M342.085 171.737C343.995 172.322 345.063 174.321 344.47 176.204L276.89 390.952C276.298 392.835 274.269 393.888 272.36 393.304C270.45 392.719 269.382 390.72 269.975 388.837L337.555 174.089C338.147 172.206 340.176 171.153 342.085 171.737Z" fill="url(#paint31_linear)"/>
<path fill-rule="evenodd" clip-rule="evenodd" d="M330.586 203.853C331.129 201.931 333.065 200.831 334.91 201.396L374.384 213.489C376.23 214.055 377.286 216.071 376.743 217.994C376.2 219.916 374.264 221.016 372.419 220.45L332.945 208.357C331.099 207.792 330.043 205.775 330.586 203.853Z" fill="url(#paint32_linear)"/>
<path fill-rule="evenodd" clip-rule="evenodd" d="M319.002 233.395C319.607 231.531 321.652 230.496 323.571 231.083L367.886 244.646C369.805 245.233 370.87 247.22 370.265 249.084C369.661 250.948 367.616 251.982 365.697 251.395L321.382 237.833C319.463 237.245 318.398 235.258 319.002 233.395Z" fill="url(#paint33_linear)"/>
<path fill-rule="evenodd" clip-rule="evenodd" d="M312.577 261.691C313.212 259.836 315.207 258.854 317.034 259.498L359.051 274.315C360.878 274.96 361.844 276.986 361.21 278.841C360.576 280.696 358.581 281.678 356.754 281.034L314.737 266.217C312.91 265.573 311.943 263.547 312.577 261.691Z" fill="url(#paint34_linear)"/>
<path fill-rule="evenodd" clip-rule="evenodd" d="M302.262 290.014C302.906 288.198 304.922 287.242 306.764 287.877L353.877 304.13C355.719 304.766 356.69 306.753 356.045 308.568C355.4 310.384 353.385 311.341 351.543 310.705L304.429 294.452C302.587 293.816 301.617 291.829 302.262 290.014Z" fill="url(#paint35_linear)"/>
<path fill-rule="evenodd" clip-rule="evenodd" d="M294.55 318.398C295.242 316.54 297.303 315.596 299.155 316.291L348.758 334.905C350.609 335.6 351.549 337.669 350.857 339.528C350.165 341.386 348.103 342.33 346.252 341.635L296.649 323.021C294.798 322.326 293.858 320.257 294.55 318.398Z" fill="url(#paint36_linear)"/>
<path fill-rule="evenodd" clip-rule="evenodd" d="M284.222 350.55C284.901 348.778 286.941 347.872 288.779 348.526L338.444 366.195C340.282 366.849 341.222 368.816 340.544 370.588C339.865 372.36 337.826 373.266 335.987 372.612L286.322 354.943C284.484 354.289 283.544 352.322 284.222 350.55Z" fill="#223762"/>
<path fill-rule="evenodd" clip-rule="evenodd" d="M383.073 180.69C385.025 181.113 386.259 183.013 385.83 184.936L332.437 424.207C332.009 426.129 330.078 427.345 328.126 426.922C326.174 426.5 324.939 424.599 325.368 422.677L378.761 183.406C379.19 181.484 381.12 180.268 383.073 180.69Z" fill="url(#paint37_linear)"/>
<path fill-rule="evenodd" clip-rule="evenodd" d="M361.887 39.8575C363.511 37.7568 364.129 33.497 364.129 29.5601C364.129 25.6232 371.119 27.5743 371.119 27.5743C371.119 27.5743 371.629 33.5318 372.616 35.3338C373.604 37.1358 378.176 37.7377 378.176 37.7377C378.176 37.7377 370.16 58.1756 366.564 55.1702C362.969 52.1649 360.264 41.9582 361.887 39.8575Z" fill="url(#paint38_linear)"/>
<mask id="mask11" mask-type="alpha" maskUnits="userSpaceOnUse" x="361" y="27" width="18" height="29">
<path fill-rule="evenodd" clip-rule="evenodd" d="M361.887 39.8575C363.511 37.7568 364.129 33.497 364.129 29.5601C364.129 25.6232 371.119 27.5743 371.119 27.5743C371.119 27.5743 371.629 33.5318 372.616 35.3338C373.604 37.1358 378.176 37.7377 378.176 37.7377C378.176 37.7377 370.16 58.1756 366.564 55.1702C362.969 52.1649 360.264 41.9582 361.887 39.8575Z" fill="white"/>
</mask>
<g mask="url(#mask11)">
<g opacity="0.5">
<path fill-rule="evenodd" clip-rule="evenodd" d="M362.695 32.342C362.695 32.342 369.336 38.5434 373.67 35.0583C378.003 31.5733 373.67 27.0908 373.67 27.0908L362.695 32.342Z" fill="#3D82F0" style="mix-blend-mode:multiply"/>
</g>
</g>
<path fill-rule="evenodd" clip-rule="evenodd" d="M357.535 12.3226C357.535 16.6495 358.379 25.4366 359.151 27.9883C359.923 30.5399 364.222 34.5416 368.073 33.3108C371.923 32.08 373.739 26.9473 373.739 25.3332C373.739 23.719 375.11 17.5334 375.11 17.5334C375.11 17.5334 376.85 9.17654 373.739 9.17654C370.628 9.17654 357.535 7.99562 357.535 12.3226Z" fill="url(#paint39_linear)"/>
<path fill-rule="evenodd" clip-rule="evenodd" d="M373.388 12.169C368.844 15.3213 354.874 15.7639 356.354 7.58787C357.834 -0.588147 369.26 -2.29434 375.196 3.13938C377.775 5.50017 379.674 12.169 376.554 19.3172C375.585 21.5393 373.388 23.2209 373.388 23.2209C373.388 23.2209 374.057 16.0706 373.388 12.169Z" fill="#223762"/>
<path fill-rule="evenodd" clip-rule="evenodd" d="M416.542 123.695C418.385 123.051 430.336 119.758 431.665 118.214C432.995 116.67 432.416 114.372 429.869 113.988C427.321 113.604 416.761 112.234 415.736 112.234C414.71 112.234 412.531 116.612 413.1 119.749C413.668 122.885 414.7 124.339 416.542 123.695Z" fill="#192A4D"/>
<path fill-rule="evenodd" clip-rule="evenodd" d="M364.233 130.178C365.707 129.678 375.268 127.117 376.332 125.916C377.395 124.715 376.933 122.927 374.894 122.628C372.856 122.33 364.409 121.265 363.588 121.265C362.768 121.265 361.025 124.67 361.479 127.109C361.934 129.549 362.759 130.679 364.233 130.178Z" fill="#192A4D"/>
<path fill-rule="evenodd" clip-rule="evenodd" d="M358.364 82.3159C356.923 84.8996 338.834 113.191 337.323 119.711C335.812 126.23 338.509 130.989 342.029 130.989C345.549 130.989 363.818 131.382 365.74 129.695C367.663 128.009 367.909 118.027 365.74 118.027C363.571 118.027 352.57 118.027 352.57 118.027C352.57 118.027 364.333 102.312 365.74 102.312C367.148 102.312 370.493 135.298 374.041 136.637C377.588 137.977 412.923 126.496 414.861 124.678C416.8 122.861 414.875 113.068 408.837 113.068C402.8 113.068 386.957 121.188 386.957 119.208C386.957 117.229 386.363 89.5535 385.185 83.8593C384.007 78.1651 359.805 79.7323 358.364 82.3159Z" fill="url(#paint40_linear)"/>
<path fill-rule="evenodd" clip-rule="evenodd" d="M402.989 57.4518C399.743 55.7511 391.517 48.2285 381.93 38.7979C380.403 37.2959 374.518 36.1211 374.518 36.1211C374.518 36.1211 373.363 39.9963 367.874 39.9963C362.385 39.9963 362.551 37.5725 362.551 37.5725C362.551 37.5725 357.747 39.3849 354.394 42.7058C351.042 46.0268 343.335 58.5085 338.923 60.4923C334.511 62.4762 321.413 69.898 321.413 69.898L329.201 72.009C329.201 72.009 338.024 69.3242 342.775 67.5489C347.526 65.7736 355.965 58.8549 355.965 58.8549C355.965 58.8549 349.644 85.6699 352.452 89.9039C355.259 94.1378 380.063 93.6062 383.129 89.9039C386.195 86.2015 383.129 55.1892 383.129 55.1892L396.073 63.9729L410.318 68.8268L420.747 68.7473C420.747 68.7473 408.134 60.1479 402.989 57.4518Z" fill="url(#paint41_linear)"/>
<path d="M296.903 72.6269C296.903 69.5645 299.302 67.082 302.261 67.082H423.129C426.089 67.082 428.488 69.5645 428.488 72.6269V102.819C428.488 105.881 426.089 108.364 423.129 108.364H302.261C299.302 108.364 296.903 105.881 296.903 102.819V72.6269Z" fill="url(#paint42_linear)"/>
<path fill-rule="evenodd" clip-rule="evenodd" d="M316.253 101.913C324.803 101.913 331.734 95.56 331.734 87.7228C331.734 79.8856 324.803 73.5322 316.253 73.5322C307.704 73.5322 300.773 79.8856 300.773 87.7228C300.773 95.56 307.704 101.913 316.253 101.913Z" fill="#FFB417"/>
<path d="M336.894 77.4024C336.894 75.9774 338.221 74.8223 339.859 74.8223H415.202C416.84 74.8223 418.167 75.9774 418.167 77.4024V77.4024C418.167 78.8273 416.84 79.9825 415.202 79.9825H339.859C338.221 79.9825 336.894 78.8273 336.894 77.4024V77.4024Z" fill="#FFB417"/>
<path d="M336.894 87.0777C336.894 85.2965 338.218 83.8525 339.851 83.8525H395.859C397.492 83.8525 398.816 85.2965 398.816 87.0777V87.0777C398.816 88.8589 397.492 90.3028 395.859 90.3028H339.851C338.218 90.3028 336.894 88.8589 336.894 87.0777V87.0777Z" fill="#FFB417"/>
<path opacity="0.5" d="M336.894 98.689C336.894 97.6203 337.786 96.7539 338.888 96.7539H356.831C357.932 96.7539 358.825 97.6203 358.825 98.689V98.689C358.825 99.7577 357.932 100.624 356.831 100.624H338.888C337.786 100.624 336.894 99.7577 336.894 98.689V98.689Z" fill="#FFB417"/>
<path fill-rule="evenodd" clip-rule="evenodd" d="M509.942 110.744C513.611 109.514 517.553 109.322 521.327 110.189L603.84 129.153C605.583 129.553 605.718 131.963 604.03 132.552L481.155 175.463C476.635 177.042 471.726 177.157 467.135 175.793L392.35 153.565C390.682 153.069 390.641 150.74 392.291 150.187L509.942 110.744Z" fill="url(#paint43_linear)"/>
<mask id="mask12" mask-type="alpha" maskUnits="userSpaceOnUse" x="391" y="109" width="215" height="68">
<path fill-rule="evenodd" clip-rule="evenodd" d="M509.942 110.744C513.611 109.514 517.553 109.322 521.327 110.189L603.84 129.153C605.583 129.553 605.718 131.963 604.03 132.552L481.155 175.463C476.635 177.042 471.726 177.157 467.135 175.793L392.35 153.565C390.682 153.069 390.641 150.74 392.291 150.187L509.942 110.744Z" fill="white"/>
</mask>
<g mask="url(#mask12)">
<path fill-rule="evenodd" clip-rule="evenodd" d="M523.437 98.3792C526.128 109.15 536.503 128.509 525.324 136.374C514.145 144.239 426.428 133.898 418.569 133.898C410.71 133.898 520.746 87.6082 523.437 98.3792Z" fill="url(#paint44_linear)"/>
<path fill-rule="evenodd" clip-rule="evenodd" d="M484.605 159.967C494.936 159.967 503.31 157.657 503.31 154.807C503.31 151.957 494.936 149.646 484.605 149.646C474.274 149.646 465.899 151.957 465.899 154.807C465.899 157.657 474.274 159.967 484.605 159.967Z" fill="url(#paint45_linear)"/>
<path fill-rule="evenodd" clip-rule="evenodd" d="M445.954 116.392C448.675 126.836 459.171 145.608 447.863 153.235C436.555 160.861 347.829 150.834 339.88 150.834C331.931 150.834 443.232 105.947 445.954 116.392Z" fill="url(#paint46_linear)"/>
</g>
<path opacity="0.5" fill-rule="evenodd" clip-rule="evenodd" d="M385.169 470.966L534.939 443.031L683.171 455.372L498.745 550.105" fill="url(#paint47_linear)"/>
<g filter="url(#filter9_d)">
<path fill-rule="evenodd" clip-rule="evenodd" d="M561.617 373.368C559.639 373.368 558.036 375.005 558.036 377.023V396.664C558.036 398.683 559.639 400.319 561.617 400.319H571.043L575.187 404.549C576.586 405.976 578.853 405.976 580.252 404.549L584.396 400.319H594.446C596.424 400.319 598.027 398.683 598.027 396.664V377.023C598.027 375.005 596.424 373.368 594.446 373.368H561.617Z" fill="#F05971"/>
<path fill-rule="evenodd" clip-rule="evenodd" d="M576.741 395.298C560.382 386.093 572.213 374.649 576.741 382.356C581.269 374.649 593.101 386.093 576.741 395.298Z" fill="white"/>
</g>
<path fill-rule="evenodd" clip-rule="evenodd" d="M535.884 353.013C533.95 353.425 532.716 355.326 533.127 357.26L537.127 376.076C537.538 378.01 539.439 379.245 541.373 378.834L550.589 376.875L555.502 380.065C557.161 381.142 559.378 380.671 560.455 379.013L563.645 374.099L573.472 372.011C575.406 371.6 576.64 369.699 576.229 367.765L572.23 348.948C571.819 347.014 569.918 345.78 567.984 346.191L535.884 353.013Z" fill="url(#paint48_linear)"/>
<path fill-rule="evenodd" clip-rule="evenodd" d="M556.434 370.523C538.769 365.132 547.888 351.824 553.819 358.221C556.637 349.965 570.38 358.413 556.434 370.523Z" fill="white"/>
<g filter="url(#filter10_d)">
<path fill-rule="evenodd" clip-rule="evenodd" d="M635.15 382.397C633.172 382.397 631.569 383.968 631.569 385.906V404.761C631.569 406.699 633.172 408.27 635.15 408.27H644.576L648.72 412.331C650.119 413.701 652.386 413.701 653.785 412.331L657.929 408.27H667.979C669.957 408.27 671.56 406.699 671.56 404.761V385.906C671.56 383.968 669.957 382.397 667.979 382.397H635.15Z" fill="url(#paint49_linear)"/>
<path fill-rule="evenodd" clip-rule="evenodd" d="M650.919 404.328C633.302 394.356 646.043 381.959 650.919 390.308C655.796 381.959 668.538 394.356 650.919 404.328Z" fill="white"/>
</g>
<g filter="url(#filter11_d)">
<path fill-rule="evenodd" clip-rule="evenodd" d="M584.838 377.238C582.86 377.238 581.257 378.809 581.257 380.747V399.602C581.257 401.54 582.86 403.111 584.838 403.111H594.264L598.408 407.172C599.807 408.542 602.074 408.542 603.473 407.172L607.617 403.111H617.667C619.645 403.111 621.248 401.54 621.248 399.602V380.747C621.248 378.809 619.645 377.238 617.667 377.238H584.838Z" fill="url(#paint50_linear)"/>
<path fill-rule="evenodd" clip-rule="evenodd" d="M601.252 397.878C584.893 389.44 596.724 378.95 601.252 386.015C605.78 378.95 617.612 389.44 601.252 397.878Z" fill="white"/>
</g>
<path fill-rule="evenodd" clip-rule="evenodd" d="M656.82 356.719C654.894 356.275 652.971 357.476 652.526 359.402L648.199 378.146C647.754 380.073 648.956 381.995 650.882 382.44L660.063 384.559L663.167 389.528C664.215 391.204 666.424 391.714 668.1 390.667L673.069 387.562L682.857 389.822C684.784 390.267 686.706 389.065 687.151 387.139L691.478 368.395C691.923 366.468 690.722 364.546 688.795 364.101L656.82 356.719Z" fill="url(#paint51_linear)"/>
<path fill-rule="evenodd" clip-rule="evenodd" d="M668.044 381.273C654.313 368.922 668.201 360.714 670.874 369.018C676.917 362.726 685.802 376.192 668.044 381.273Z" fill="white"/>
<path fill-rule="evenodd" clip-rule="evenodd" d="M575.165 337.206C573.255 336.694 571.292 337.827 570.78 339.737L565.801 358.319C565.29 360.229 566.423 362.192 568.333 362.703L577.434 365.142L580.363 370.216C581.352 371.928 583.541 372.515 585.254 371.526L590.327 368.597L600.031 371.197C601.941 371.708 603.904 370.575 604.416 368.665L609.394 350.084C609.906 348.174 608.773 346.211 606.863 345.699L575.165 337.206Z" fill="url(#paint52_linear)"/>
<path fill-rule="evenodd" clip-rule="evenodd" d="M585.526 362.136C572.234 349.314 586.4 341.595 588.781 349.988C595.04 343.911 603.45 357.678 585.526 362.136Z" fill="white"/>
<g filter="url(#filter12_d)">
<path fill-rule="evenodd" clip-rule="evenodd" d="M567.291 370.253C565.344 370.597 564.044 372.453 564.387 374.401L567.728 393.345C568.071 395.292 569.928 396.593 571.875 396.249L581.154 394.613L585.953 397.974C587.573 399.108 589.805 398.714 590.939 397.094L594.3 392.295L604.193 390.551C606.14 390.207 607.44 388.351 607.097 386.403L603.756 367.459C603.413 365.512 601.556 364.212 599.609 364.555L567.291 370.253Z" fill="url(#paint53_linear)"/>
<path fill-rule="evenodd" clip-rule="evenodd" d="M587.217 388.471C569.752 382.467 579.329 369.485 585.033 376.085C588.137 367.932 601.578 376.855 587.217 388.471Z" fill="white"/>
</g>
<path fill-rule="evenodd" clip-rule="evenodd" d="M632.236 371.958C633.856 373.092 636.088 372.699 637.222 371.079L648.256 355.321C649.39 353.702 648.996 351.469 647.377 350.335L639.659 344.931L638.641 339.161C638.298 337.214 636.441 335.914 634.494 336.257L628.724 337.275L620.495 331.513C618.876 330.379 616.643 330.772 615.509 332.392L604.476 348.15C603.341 349.769 603.735 352.002 605.355 353.136L632.236 371.958Z" fill="url(#paint54_linear)"/>
<path fill-rule="evenodd" clip-rule="evenodd" d="M631.027 344.987C639.132 361.583 623.18 363.991 623.813 355.29C615.853 358.86 612.659 343.047 631.027 344.987Z" fill="white"/>
<g filter="url(#filter13_d)">
<path fill-rule="evenodd" clip-rule="evenodd" d="M602.955 354.346C600.979 354.311 599.348 355.886 599.313 357.863L598.978 377.097C598.943 379.073 600.518 380.704 602.495 380.739L611.915 380.903L615.985 385.117C617.359 386.54 619.625 386.579 621.047 385.206L625.262 381.136L635.306 381.311C637.283 381.346 638.913 379.771 638.948 377.794L639.284 358.56C639.318 356.583 637.744 354.953 635.767 354.918L602.955 354.346Z" fill="url(#paint55_linear)"/>
<path fill-rule="evenodd" clip-rule="evenodd" d="M619.04 376.031C603.041 366.804 614.919 355.888 619.259 363.455C623.862 356.044 635.353 367.368 619.04 376.031Z" fill="white"/>
</g>
<g filter="url(#filter14_d)">
<path fill-rule="evenodd" clip-rule="evenodd" d="M603.82 373.212C601.847 373.074 600.137 374.561 599.999 376.533L598.657 395.723C598.519 397.696 600.006 399.406 601.978 399.544L611.377 400.201L615.221 404.623C616.518 406.115 618.779 406.273 620.272 404.976L624.693 401.133L634.715 401.833C636.687 401.971 638.398 400.484 638.536 398.512L639.878 379.322C640.016 377.349 638.528 375.639 636.556 375.501L603.82 373.212Z" fill="url(#paint56_linear)"/>
<path fill-rule="evenodd" clip-rule="evenodd" d="M618.747 395.709C603.253 385.658 615.686 375.378 619.624 383.162C624.609 376.002 635.491 387.912 618.747 395.709Z" fill="white"/>
</g>
<g filter="url(#filter15_d)">
<path fill-rule="evenodd" clip-rule="evenodd" d="M621.985 364.483C620.179 365.288 619.367 367.404 620.171 369.21L627.995 386.784C628.799 388.59 630.916 389.402 632.722 388.598L641.329 384.766L646.799 386.865C648.645 387.574 650.715 386.652 651.424 384.806L653.524 379.337L662.701 375.25C664.507 374.446 665.32 372.33 664.515 370.524L656.691 352.95C655.887 351.144 653.771 350.332 651.964 351.136L621.985 364.483Z" fill="url(#paint57_linear)"/>
<path fill-rule="evenodd" clip-rule="evenodd" d="M645.726 377.339C627.327 375.739 633.479 360.826 640.611 365.85C641.65 357.188 656.85 362.594 645.726 377.339Z" fill="white"/>
</g>
<path fill-rule="evenodd" clip-rule="evenodd" d="M532.235 368.208L604.478 400.502V477.862L534.584 441.748L532.235 368.208Z" fill="url(#paint58_linear)"/>
<path fill-rule="evenodd" clip-rule="evenodd" d="M688.331 383.688L604.478 401.498V477.862L686.754 454.368L688.331 383.688Z" fill="url(#paint59_linear)"/>
<mask id="mask13" mask-type="alpha" maskUnits="userSpaceOnUse" x="604" y="383" width="85" height="95">
<path fill-rule="evenodd" clip-rule="evenodd" d="M688.331 383.688L604.478 401.498V477.862L686.754 454.368L688.331 383.688Z" fill="white"/>
</mask>
<g mask="url(#mask13)">
<g opacity="0.218583">
<path fill-rule="evenodd" clip-rule="evenodd" d="M623.828 385.718L701.231 459.802L689.567 368.208L623.828 385.718Z" fill="url(#paint60_linear)" style="mix-blend-mode:multiply"/>
</g>
</g>
<path fill-rule="evenodd" clip-rule="evenodd" d="M533.649 366.918L505.144 397.007L575.827 432.711L604.478 400.031L533.649 366.918Z" fill="url(#paint61_linear)"/>
<path fill-rule="evenodd" clip-rule="evenodd" d="M687.375 383.688L718.002 414.768L635.25 432.71L604.477 400.889L687.375 383.688Z" fill="url(#paint62_linear)"/>
</g>
<defs>
<filter id="filter0_d" x="246.591" y="256.721" width="410.236" height="133.845" filterUnits="userSpaceOnUse" color-interpolation-filters="sRGB">
<feFlood flood-opacity="0" result="BackgroundImageFix"/>
<feColorMatrix in="SourceAlpha" type="matrix" values="0 0 0 0 0 0 0 0 0 0 0 0 0 0 0 0 0 0 127 0"/>
<feOffset dy="10"/>
<feColorMatrix type="matrix" values="0 0 0 0 0.113091 0 0 0 0 0.194481 0 0 0 0 0.36352 0 0 0 0.513728 0"/>
<feBlend mode="normal" in2="BackgroundImageFix" result="effect1_dropShadow"/>
<feBlend mode="normal" in="SourceGraphic" in2="effect1_dropShadow" result="shape"/>
</filter>
<filter id="filter1_d" x="246.591" y="227.05" width="410.236" height="132.555" filterUnits="userSpaceOnUse" color-interpolation-filters="sRGB">
<feFlood flood-opacity="0" result="BackgroundImageFix"/>
<feColorMatrix in="SourceAlpha" type="matrix" values="0 0 0 0 0 0 0 0 0 0 0 0 0 0 0 0 0 0 127 0"/>
<feOffset dy="10"/>
<feColorMatrix type="matrix" values="0 0 0 0 0.113091 0 0 0 0 0.194481 0 0 0 0 0.36352 0 0 0 0.513728 0"/>
<feBlend mode="normal" in2="BackgroundImageFix" result="effect1_dropShadow"/>
<feBlend mode="normal" in="SourceGraphic" in2="effect1_dropShadow" result="shape"/>
</filter>
<filter id="filter2_d" x="246.591" y="193.508" width="410.236" height="133.845" filterUnits="userSpaceOnUse" color-interpolation-filters="sRGB">
<feFlood flood-opacity="0" result="BackgroundImageFix"/>
<feColorMatrix in="SourceAlpha" type="matrix" values="0 0 0 0 0 0 0 0 0 0 0 0 0 0 0 0 0 0 127 0"/>
<feOffset dy="10"/>
<feColorMatrix type="matrix" values="0 0 0 0 0.113091 0 0 0 0 0.194481 0 0 0 0 0.36352 0 0 0 0.513728 0"/>
<feBlend mode="normal" in2="BackgroundImageFix" result="effect1_dropShadow"/>
<feBlend mode="normal" in="SourceGraphic" in2="effect1_dropShadow" result="shape"/>
</filter>
<filter id="filter3_d" x="246.591" y="162.547" width="410.236" height="135.135" filterUnits="userSpaceOnUse" color-interpolation-filters="sRGB">
<feFlood flood-opacity="0" result="BackgroundImageFix"/>
<feColorMatrix in="SourceAlpha" type="matrix" values="0 0 0 0 0 0 0 0 0 0 0 0 0 0 0 0 0 0 127 0"/>
<feOffset dy="10"/>
<feColorMatrix type="matrix" values="0 0 0 0 0.113091 0 0 0 0 0.194481 0 0 0 0 0.36352 0 0 0 0.513728 0"/>
<feBlend mode="normal" in2="BackgroundImageFix" result="effect1_dropShadow"/>
<feBlend mode="normal" in="SourceGraphic" in2="effect1_dropShadow" result="shape"/>
</filter>
<filter id="filter4_d" x="246.591" y="132.874" width="410.236" height="132.555" filterUnits="userSpaceOnUse" color-interpolation-filters="sRGB">
<feFlood flood-opacity="0" result="BackgroundImageFix"/>
<feColorMatrix in="SourceAlpha" type="matrix" values="0 0 0 0 0 0 0 0 0 0 0 0 0 0 0 0 0 0 127 0"/>
<feOffset dy="10"/>
<feColorMatrix type="matrix" values="0 0 0 0 0.113091 0 0 0 0 0.194481 0 0 0 0 0.36352 0 0 0 0.513728 0"/>
<feBlend mode="normal" in2="BackgroundImageFix" result="effect1_dropShadow"/>
<feBlend mode="normal" in="SourceGraphic" in2="effect1_dropShadow" result="shape"/>
</filter>
<filter id="filter5_d" x="246.591" y="100.623" width="410.236" height="135.135" filterUnits="userSpaceOnUse" color-interpolation-filters="sRGB">
<feFlood flood-opacity="0" result="BackgroundImageFix"/>
<feColorMatrix in="SourceAlpha" type="matrix" values="0 0 0 0 0 0 0 0 0 0 0 0 0 0 0 0 0 0 127 0"/>
<feOffset dy="10"/>
<feColorMatrix type="matrix" values="0 0 0 0 0.113091 0 0 0 0 0.194481 0 0 0 0 0.36352 0 0 0 0.513728 0"/>
<feBlend mode="normal" in2="BackgroundImageFix" result="effect1_dropShadow"/>
<feBlend mode="normal" in="SourceGraphic" in2="effect1_dropShadow" result="shape"/>
</filter>
<filter id="filter6_i" x="171.245" y="145.489" width="25.801" height="73.2125" filterUnits="userSpaceOnUse" color-interpolation-filters="sRGB">
<feFlood flood-opacity="0" result="BackgroundImageFix"/>
<feBlend mode="normal" in="SourceGraphic" in2="BackgroundImageFix" result="shape"/>
<feColorMatrix in="SourceAlpha" type="matrix" values="0 0 0 0 0 0 0 0 0 0 0 0 0 0 0 0 0 0 127 0" result="hardAlpha"/>
<feOffset dy="-10"/>
<feGaussianBlur stdDeviation="11"/>
<feComposite in2="hardAlpha" operator="arithmetic" k2="-1" k3="1"/>
<feColorMatrix type="matrix" values="0 0 0 0 0.221483 0 0 0 0 0.77854 0 0 0 0 0.610041 0 0 0 1 0"/>
<feBlend mode="normal" in2="shape" result="effect1_innerShadow"/>
</filter>
<filter id="filter7_i" x="154.474" y="175.161" width="38.7015" height="51.2816" filterUnits="userSpaceOnUse" color-interpolation-filters="sRGB">
<feFlood flood-opacity="0" result="BackgroundImageFix"/>
<feBlend mode="normal" in="SourceGraphic" in2="BackgroundImageFix" result="shape"/>
<feColorMatrix in="SourceAlpha" type="matrix" values="0 0 0 0 0 0 0 0 0 0 0 0 0 0 0 0 0 0 127 0" result="hardAlpha"/>
<feOffset dy="-10"/>
<feGaussianBlur stdDeviation="11"/>
<feComposite in2="hardAlpha" operator="arithmetic" k2="-1" k3="1"/>
<feColorMatrix type="matrix" values="0 0 0 0 0.221483 0 0 0 0 0.77854 0 0 0 0 0.610041 0 0 0 1 0"/>
<feBlend mode="normal" in2="shape" result="effect1_innerShadow"/>
</filter>
<filter id="filter8_i" x="195.756" y="171.291" width="32.2513" height="56.4418" filterUnits="userSpaceOnUse" color-interpolation-filters="sRGB">
<feFlood flood-opacity="0" result="BackgroundImageFix"/>
<feBlend mode="normal" in="SourceGraphic" in2="BackgroundImageFix" result="shape"/>
<feColorMatrix in="SourceAlpha" type="matrix" values="0 0 0 0 0 0 0 0 0 0 0 0 0 0 0 0 0 0 127 0" result="hardAlpha"/>
<feOffset dy="-10"/>
<feGaussianBlur stdDeviation="11"/>
<feComposite in2="hardAlpha" operator="arithmetic" k2="-1" k3="1"/>
<feColorMatrix type="matrix" values="0 0 0 0 0.221483 0 0 0 0 0.77854 0 0 0 0 0.610041 0 0 0 1 0"/>
<feBlend mode="normal" in2="shape" result="effect1_innerShadow"/>
</filter>
<filter id="filter9_d" x="538.036" y="356.368" width="77.9916" height="70.2513" filterUnits="userSpaceOnUse" color-interpolation-filters="sRGB">
<feFlood flood-opacity="0" result="BackgroundImageFix"/>
<feColorMatrix in="SourceAlpha" type="matrix" values="0 0 0 0 0 0 0 0 0 0 0 0 0 0 0 0 0 0 127 0"/>
<feOffset dx="-1" dy="2"/>
<feGaussianBlur stdDeviation="9.5"/>
<feColorMatrix type="matrix" values="0 0 0 0 0.563271 0 0 0 0 0.0744316 0 0 0 0 0.0744316 0 0 0 0.5 0"/>
<feBlend mode="normal" in2="BackgroundImageFix" result="effect1_dropShadow"/>
<feBlend mode="normal" in="SourceGraphic" in2="effect1_dropShadow" result="shape"/>
</filter>
<filter id="filter10_d" x="611.569" y="365.397" width="77.9916" height="68.9612" filterUnits="userSpaceOnUse" color-interpolation-filters="sRGB">
<feFlood flood-opacity="0" result="BackgroundImageFix"/>
<feColorMatrix in="SourceAlpha" type="matrix" values="0 0 0 0 0 0 0 0 0 0 0 0 0 0 0 0 0 0 127 0"/>
<feOffset dx="-1" dy="2"/>
<feGaussianBlur stdDeviation="9.5"/>
<feColorMatrix type="matrix" values="0 0 0 0 0.563271 0 0 0 0 0.0744316 0 0 0 0 0.0744316 0 0 0 0.5 0"/>
<feBlend mode="normal" in2="BackgroundImageFix" result="effect1_dropShadow"/>
<feBlend mode="normal" in="SourceGraphic" in2="effect1_dropShadow" result="shape"/>
</filter>
<filter id="filter11_d" x="561.257" y="360.238" width="77.9916" height="68.9612" filterUnits="userSpaceOnUse" color-interpolation-filters="sRGB">
<feFlood flood-opacity="0" result="BackgroundImageFix"/>
<feColorMatrix in="SourceAlpha" type="matrix" values="0 0 0 0 0 0 0 0 0 0 0 0 0 0 0 0 0 0 127 0"/>
<feOffset dx="-1" dy="2"/>
<feGaussianBlur stdDeviation="9.5"/>
<feColorMatrix type="matrix" values="0 0 0 0 0.563271 0 0 0 0 0.0744316 0 0 0 0 0.0744316 0 0 0 0.5 0"/>
<feBlend mode="normal" in2="BackgroundImageFix" result="effect1_dropShadow"/>
<feBlend mode="normal" in="SourceGraphic" in2="effect1_dropShadow" result="shape"/>
</filter>
<filter id="filter12_d" x="544.332" y="347.5" width="80.8194" height="72.1214" filterUnits="userSpaceOnUse" color-interpolation-filters="sRGB">
<feFlood flood-opacity="0" result="BackgroundImageFix"/>
<feColorMatrix in="SourceAlpha" type="matrix" values="0 0 0 0 0 0 0 0 0 0 0 0 0 0 0 0 0 0 127 0"/>
<feOffset dx="-1" dy="2"/>
<feGaussianBlur stdDeviation="9.5"/>
<feColorMatrix type="matrix" values="0 0 0 0 0.563271 0 0 0 0 0.0744316 0 0 0 0 0.0744316 0 0 0 0.5 0"/>
<feBlend mode="normal" in2="BackgroundImageFix" result="effect1_dropShadow"/>
<feBlend mode="normal" in="SourceGraphic" in2="effect1_dropShadow" result="shape"/>
</filter>
<filter id="filter13_d" x="578.977" y="337.345" width="78.307" height="69.8654" filterUnits="userSpaceOnUse" color-interpolation-filters="sRGB">
<feFlood flood-opacity="0" result="BackgroundImageFix"/>
<feColorMatrix in="SourceAlpha" type="matrix" values="0 0 0 0 0 0 0 0 0 0 0 0 0 0 0 0 0 0 127 0"/>
<feOffset dx="-1" dy="2"/>
<feGaussianBlur stdDeviation="9.5"/>
<feColorMatrix type="matrix" values="0 0 0 0 0.563271 0 0 0 0 0.0744316 0 0 0 0 0.0744316 0 0 0 0.5 0"/>
<feBlend mode="normal" in2="BackgroundImageFix" result="effect1_dropShadow"/>
<feBlend mode="normal" in="SourceGraphic" in2="effect1_dropShadow" result="shape"/>
</filter>
<filter id="filter14_d" x="578.648" y="356.203" width="79.2385" height="70.6517" filterUnits="userSpaceOnUse" color-interpolation-filters="sRGB">
<feFlood flood-opacity="0" result="BackgroundImageFix"/>
<feColorMatrix in="SourceAlpha" type="matrix" values="0 0 0 0 0 0 0 0 0 0 0 0 0 0 0 0 0 0 127 0"/>
<feOffset dx="-1" dy="2"/>
<feGaussianBlur stdDeviation="9.5"/>
<feColorMatrix type="matrix" values="0 0 0 0 0.563271 0 0 0 0 0.0744316 0 0 0 0 0.0744316 0 0 0 0.5 0"/>
<feBlend mode="normal" in2="BackgroundImageFix" result="effect1_dropShadow"/>
<feBlend mode="normal" in="SourceGraphic" in2="effect1_dropShadow" result="shape"/>
</filter>
<filter id="filter15_d" x="599.86" y="333.825" width="82.9653" height="76.0831" filterUnits="userSpaceOnUse" color-interpolation-filters="sRGB">
<feFlood flood-opacity="0" result="BackgroundImageFix"/>
<feColorMatrix in="SourceAlpha" type="matrix" values="0 0 0 0 0 0 0 0 0 0 0 0 0 0 0 0 0 0 127 0"/>
<feOffset dx="-1" dy="2"/>
<feGaussianBlur stdDeviation="9.5"/>
<feColorMatrix type="matrix" values="0 0 0 0 0.563271 0 0 0 0 0.0744316 0 0 0 0 0.0744316 0 0 0 0.5 0"/>
<feBlend mode="normal" in2="BackgroundImageFix" result="effect1_dropShadow"/>
<feBlend mode="normal" in="SourceGraphic" in2="effect1_dropShadow" result="shape"/>
</filter>
<linearGradient id="paint0_linear" x1="132.628" y1="302.836" x2="122.149" y2="411.515" gradientUnits="userSpaceOnUse">
<stop stop-color="#D0DCF1"/>
<stop offset="1" stop-color="white"/>
</linearGradient>
<linearGradient id="paint1_linear" x1="342.408" y1="352.985" x2="334.401" y2="381.739" gradientUnits="userSpaceOnUse">
<stop stop-color="#CFDDF3"/>
<stop offset="1" stop-color="#A1B8E3"/>
</linearGradient>
<linearGradient id="paint2_linear" x1="289.211" y1="338.487" x2="273.458" y2="390.347" gradientUnits="userSpaceOnUse">
<stop stop-color="#CFDDF3"/>
<stop offset="1" stop-color="#A1B8E3"/>
</linearGradient>
<linearGradient id="paint3_linear" x1="341.91" y1="335.895" x2="298.612" y2="404.531" gradientUnits="userSpaceOnUse">
<stop stop-color="#CFDDF3"/>
<stop offset="1" stop-color="#A1B8E3"/>
</linearGradient>
<linearGradient id="paint4_linear" x1="537.293" y1="464.086" x2="488.416" y2="429.202" gradientUnits="userSpaceOnUse">
<stop stop-color="#283F6C"/>
<stop offset="0.518928" stop-color="#314A7B"/>
<stop offset="1" stop-color="#223762"/>
</linearGradient>
<linearGradient id="paint5_linear" x1="537.293" y1="433.126" x2="488.416" y2="398.242" gradientUnits="userSpaceOnUse">
<stop stop-color="#283F6C"/>
<stop offset="0.518928" stop-color="#314A7B"/>
<stop offset="1" stop-color="#223762"/>
</linearGradient>
<linearGradient id="paint6_linear" x1="537.293" y1="401.617" x2="488.762" y2="366.617" gradientUnits="userSpaceOnUse">
<stop stop-color="#283F6C"/>
<stop offset="0.518928" stop-color="#314A7B"/>
<stop offset="1" stop-color="#223762"/>
</linearGradient>
<linearGradient id="paint7_linear" x1="537.293" y1="369.913" x2="488.416" y2="335.029" gradientUnits="userSpaceOnUse">
<stop stop-color="#283F6C"/>
<stop offset="0.518928" stop-color="#314A7B"/>
<stop offset="1" stop-color="#223762"/>
</linearGradient>
<linearGradient id="paint8_linear" x1="537.293" y1="340.789" x2="488.075" y2="306.025" gradientUnits="userSpaceOnUse">
<stop stop-color="#283F6C"/>
<stop offset="0.518928" stop-color="#314A7B"/>
<stop offset="1" stop-color="#223762"/>
</linearGradient>
<linearGradient id="paint9_linear" x1="537.293" y1="307.441" x2="488.762" y2="272.441" gradientUnits="userSpaceOnUse">
<stop stop-color="#283F6C"/>
<stop offset="0.518928" stop-color="#314A7B"/>
<stop offset="1" stop-color="#223762"/>
</linearGradient>
<linearGradient id="paint10_linear" x1="537.293" y1="278.866" x2="488.075" y2="244.101" gradientUnits="userSpaceOnUse">
<stop stop-color="#283F6C"/>
<stop offset="0.518928" stop-color="#314A7B"/>
<stop offset="1" stop-color="#223762"/>
</linearGradient>
<linearGradient id="paint11_linear" x1="608.123" y1="211.551" x2="617.896" y2="81.928" gradientUnits="userSpaceOnUse">
<stop stop-color="#142547"/>
<stop offset="1" stop-color="#223762"/>
</linearGradient>
<linearGradient id="paint12_linear" x1="132.444" y1="192.626" x2="94.7646" y2="221.778" gradientUnits="userSpaceOnUse">
<stop stop-color="#FF6B67"/>
<stop offset="1" stop-color="#F05971"/>
</linearGradient>
<linearGradient id="paint13_linear" x1="15.9163" y1="334.895" x2="26.4609" y2="318.974" gradientUnits="userSpaceOnUse">
<stop stop-color="#70B8F9"/>
<stop offset="1" stop-color="#3D82F0"/>
</linearGradient>
<linearGradient id="paint14_linear" x1="19.5105" y1="495.833" x2="31.7341" y2="476.103" gradientUnits="userSpaceOnUse">
<stop stop-color="#47689B"/>
<stop offset="1" stop-color="#223762"/>
</linearGradient>
<linearGradient id="paint15_linear" x1="94.9547" y1="504.736" x2="107.788" y2="482.597" gradientUnits="userSpaceOnUse">
<stop stop-color="#47689B"/>
<stop offset="1" stop-color="#223762"/>
</linearGradient>
<linearGradient id="paint16_linear" x1="63.8167" y1="510.831" x2="123.696" y2="372.854" gradientUnits="userSpaceOnUse">
<stop stop-color="#CFDDF3"/>
<stop offset="1" stop-color="#A1B8E3"/>
</linearGradient>
<linearGradient id="paint17_linear" x1="93.8476" y1="351.386" x2="93.1872" y2="339.608" gradientUnits="userSpaceOnUse">
<stop stop-color="#CFDDF3" stop-opacity="0.477723"/>
<stop offset="1" stop-color="#A1B8E3"/>
</linearGradient>
<linearGradient id="paint18_linear" x1="61.4134" y1="197.277" x2="39.5323" y2="212.215" gradientUnits="userSpaceOnUse">
<stop stop-color="#70B8F9"/>
<stop offset="1" stop-color="#3D82F0"/>
</linearGradient>
<linearGradient id="paint19_linear" x1="22.0502" y1="197.673" x2="41.6813" y2="223.289" gradientUnits="userSpaceOnUse">
<stop stop-color="#164898"/>
<stop offset="1" stop-color="#223762"/>
</linearGradient>
<linearGradient id="paint20_linear" x1="2.0325" y1="298.919" x2="21.5065" y2="296.358" gradientUnits="userSpaceOnUse">
<stop stop-color="#EDF3FD"/>
<stop offset="1" stop-color="#D6E3FA"/>
</linearGradient>
<linearGradient id="paint21_linear" x1="77.1037" y1="320.494" x2="90.369" y2="312.196" gradientUnits="userSpaceOnUse">
<stop stop-color="#CFDDF3"/>
<stop offset="1" stop-color="#A1B8E3"/>
</linearGradient>
<linearGradient id="paint22_linear" x1="104.172" y1="263.204" x2="103.926" y2="248.623" gradientUnits="userSpaceOnUse">
<stop stop-color="#CFDDF3"/>
<stop offset="1" stop-color="#A1B8E3"/>
</linearGradient>
<linearGradient id="paint23_linear" x1="174.36" y1="329.555" x2="147.502" y2="221.836" gradientUnits="userSpaceOnUse">
<stop stop-color="#70B8F9"/>
<stop offset="1" stop-color="#3D82F0"/>
</linearGradient>
<linearGradient id="paint24_linear" x1="48.4661" y1="267.615" x2="61.5544" y2="294.45" gradientUnits="userSpaceOnUse">
<stop stop-color="#D6E3FA"/>
<stop offset="1" stop-color="#E3EDFE"/>
</linearGradient>
<linearGradient id="paint25_linear" x1="208.511" y1="261.007" x2="211.254" y2="233.723" gradientUnits="userSpaceOnUse">
<stop stop-color="#D9E5F6" stop-opacity="0.01"/>
<stop offset="1" stop-color="#B2C6EA"/>
</linearGradient>
<linearGradient id="paint26_linear" x1="229.06" y1="239.016" x2="196.938" y2="216.971" gradientUnits="userSpaceOnUse">
<stop stop-color="#ACC5E9"/>
<stop offset="0.627469" stop-color="#D3E3FB"/>
<stop offset="1" stop-color="#EAF2FF"/>
</linearGradient>
<linearGradient id="paint27_linear" x1="172.666" y1="215.029" x2="171.667" y2="232.09" gradientUnits="userSpaceOnUse">
<stop stop-color="#86A8D9"/>
<stop offset="1" stop-color="#BCD0F2"/>
</linearGradient>
<linearGradient id="paint28_linear" x1="166.868" y1="172.637" x2="204.027" y2="210.407" gradientUnits="userSpaceOnUse">
<stop stop-color="#B1FFBE"/>
<stop offset="0.444207" stop-color="#5CDB8E"/>
<stop offset="1" stop-color="#149654"/>
</linearGradient>
<linearGradient id="paint29_linear" x1="165.727" y1="183.101" x2="171.026" y2="224.668" gradientUnits="userSpaceOnUse">
<stop stop-color="#B1FFBE"/>
<stop offset="0.444207" stop-color="#5CDB8E"/>
<stop offset="1" stop-color="#149654"/>
</linearGradient>
<linearGradient id="paint30_linear" x1="190.057" y1="193.584" x2="215.245" y2="232.019" gradientUnits="userSpaceOnUse">
<stop stop-color="#B1FFBE"/>
<stop offset="0.444207" stop-color="#5CDB8E"/>
<stop offset="1" stop-color="#149654"/>
</linearGradient>
<linearGradient id="paint31_linear" x1="355.307" y1="45.0603" x2="226.352" y2="78.5567" gradientUnits="userSpaceOnUse">
<stop stop-color="#47689B"/>
<stop offset="1" stop-color="#223762"/>
</linearGradient>
<linearGradient id="paint32_linear" x1="392.036" y1="216.295" x2="384.924" y2="194.376" gradientUnits="userSpaceOnUse">
<stop stop-color="#667FA7"/>
<stop offset="1" stop-color="#3D5586"/>
</linearGradient>
<linearGradient id="paint33_linear" x1="387.712" y1="247.264" x2="379.742" y2="222.677" gradientUnits="userSpaceOnUse">
<stop stop-color="#667FA7"/>
<stop offset="1" stop-color="#3D5586"/>
</linearGradient>
<linearGradient id="paint34_linear" x1="377.738" y1="276.847" x2="368.009" y2="250.799" gradientUnits="userSpaceOnUse">
<stop stop-color="#667FA7"/>
<stop offset="1" stop-color="#3D5586"/>
</linearGradient>
<linearGradient id="paint35_linear" x1="374.951" y1="306.51" x2="364.455" y2="277.785" gradientUnits="userSpaceOnUse">
<stop stop-color="#667FA7"/>
<stop offset="1" stop-color="#3D5586"/>
</linearGradient>
<linearGradient id="paint36_linear" x1="370.922" y1="337.231" x2="358.123" y2="305.028" gradientUnits="userSpaceOnUse">
<stop stop-color="#667FA7"/>
<stop offset="1" stop-color="#3D5586"/>
</linearGradient>
<linearGradient id="paint37_linear" x1="394.367" y1="38.2258" x2="287.521" y2="58.1777" gradientUnits="userSpaceOnUse">
<stop stop-color="#47689B"/>
<stop offset="1" stop-color="#223762"/>
</linearGradient>
<linearGradient id="paint38_linear" x1="373.506" y1="37.6814" x2="361.728" y2="31.5473" gradientUnits="userSpaceOnUse">
<stop stop-color="#004EC0"/>
<stop offset="1" stop-color="#3D82F0"/>
</linearGradient>
<linearGradient id="paint39_linear" x1="340.413" y1="36.8736" x2="368.952" y2="42.8459" gradientUnits="userSpaceOnUse">
<stop stop-color="#70B8F9"/>
<stop offset="1" stop-color="#3D82F0"/>
</linearGradient>
<linearGradient id="paint40_linear" x1="352.601" y1="143.524" x2="396.906" y2="112.6" gradientUnits="userSpaceOnUse">
<stop stop-color="#CFDDF3"/>
<stop offset="1" stop-color="#A1B8E3"/>
</linearGradient>
<linearGradient id="paint41_linear" x1="402.994" y1="75.9242" x2="401.776" y2="34.983" gradientUnits="userSpaceOnUse">
<stop stop-color="white"/>
<stop offset="1" stop-color="#D6E3FA"/>
</linearGradient>
<linearGradient id="paint42_linear" x1="530.713" y1="80.8556" x2="501.756" y2="-4.4129" gradientUnits="userSpaceOnUse">
<stop stop-color="#FFE883"/>
<stop offset="1" stop-color="#FECC4C"/>
</linearGradient>
<linearGradient id="paint43_linear" x1="579.242" y1="177.019" x2="579.915" y2="109.874" gradientUnits="userSpaceOnUse">
<stop stop-color="#EDF3FD"/>
<stop offset="1" stop-color="#D6E3FA"/>
</linearGradient>
<linearGradient id="paint44_linear" x1="518.461" y1="153.501" x2="516.951" y2="115.713" gradientUnits="userSpaceOnUse">
<stop stop-color="#CFDDF3"/>
<stop offset="1" stop-color="#A1B8E3"/>
</linearGradient>
<linearGradient id="paint45_linear" x1="529.011" y1="165.297" x2="529.801" y2="139.556" gradientUnits="userSpaceOnUse">
<stop stop-color="#CFDDF3"/>
<stop offset="1" stop-color="#A1B8E3"/>
</linearGradient>
<linearGradient id="paint46_linear" x1="440.921" y1="169.843" x2="439.517" y2="133.195" gradientUnits="userSpaceOnUse">
<stop stop-color="#CFDDF3"/>
<stop offset="1" stop-color="#A1B8E3"/>
</linearGradient>
<linearGradient id="paint47_linear" x1="426.622" y1="428.557" x2="422.761" y2="528.113" gradientUnits="userSpaceOnUse">
<stop stop-color="#9CB4E0"/>
<stop offset="1" stop-color="white" stop-opacity="0.01"/>
</linearGradient>
<linearGradient id="paint48_linear" x1="575.073" y1="347.473" x2="551.741" y2="374.708" gradientUnits="userSpaceOnUse">
<stop stop-color="#FF6B67"/>
<stop offset="1" stop-color="#F05971"/>
</linearGradient>
<linearGradient id="paint49_linear" x1="674.649" y1="385.072" x2="646.586" y2="406.981" gradientUnits="userSpaceOnUse">
<stop stop-color="#FF6B67"/>
<stop offset="1" stop-color="#F05971"/>
</linearGradient>
<linearGradient id="paint50_linear" x1="624.337" y1="379.913" x2="596.274" y2="401.822" gradientUnits="userSpaceOnUse">
<stop stop-color="#FF6B67"/>
<stop offset="1" stop-color="#F05971"/>
</linearGradient>
<linearGradient id="paint51_linear" x1="694.678" y1="368.26" x2="662.022" y2="383.083" gradientUnits="userSpaceOnUse">
<stop stop-color="#FF6B67"/>
<stop offset="1" stop-color="#F05971"/>
</linearGradient>
<linearGradient id="paint52_linear" x1="612.597" y1="350.061" x2="579.444" y2="363.735" gradientUnits="userSpaceOnUse">
<stop stop-color="#FF6B67"/>
<stop offset="1" stop-color="#F05971"/>
</linearGradient>
<linearGradient id="paint53_linear" x1="606.649" y1="366.084" x2="582.381" y2="392.488" gradientUnits="userSpaceOnUse">
<stop stop-color="#FF6B67"/>
<stop offset="1" stop-color="#F05971"/>
</linearGradient>
<linearGradient id="paint54_linear" x1="601.458" y1="347.076" x2="637.289" y2="345.566" gradientUnits="userSpaceOnUse">
<stop stop-color="#FF6B67"/>
<stop offset="1" stop-color="#F05971"/>
</linearGradient>
<linearGradient id="paint55_linear" x1="642.386" y1="357.763" x2="613.525" y2="379.051" gradientUnits="userSpaceOnUse">
<stop stop-color="#FF6B67"/>
<stop offset="1" stop-color="#F05971"/>
</linearGradient>
<linearGradient id="paint56_linear" x1="643.017" y1="378.688" x2="613.082" y2="398.436" gradientUnits="userSpaceOnUse">
<stop stop-color="#FF6B67"/>
<stop offset="1" stop-color="#F05971"/>
</linearGradient>
<linearGradient id="paint57_linear" x1="659.165" y1="350.917" x2="642.006" y2="382.407" gradientUnits="userSpaceOnUse">
<stop stop-color="#FF6B67"/>
<stop offset="1" stop-color="#F05971"/>
</linearGradient>
<linearGradient id="paint58_linear" x1="502.555" y1="394.504" x2="583.418" y2="467.534" gradientUnits="userSpaceOnUse">
<stop stop-color="#85A6DB"/>
<stop offset="1" stop-color="#C6D4EE"/>
</linearGradient>
<linearGradient id="paint59_linear" x1="706.674" y1="433.565" x2="637.967" y2="503.975" gradientUnits="userSpaceOnUse">
<stop stop-color="#EDF3FD"/>
<stop offset="1" stop-color="#D0DAEA"/>
</linearGradient>
<linearGradient id="paint60_linear" x1="671.594" y1="397.193" x2="636.698" y2="437.358" gradientUnits="userSpaceOnUse">
<stop stop-color="#B4C9E7"/>
<stop offset="1" stop-color="#BECFEC" stop-opacity="0.101789"/>
</linearGradient>
<linearGradient id="paint61_linear" x1="505.144" y1="366.918" x2="505.144" y2="432.711" gradientUnits="userSpaceOnUse">
<stop stop-color="#EDF3FD"/>
<stop offset="1" stop-color="#D6E3FA"/>
</linearGradient>
<linearGradient id="paint62_linear" x1="743.502" y1="383.296" x2="736.265" y2="457.279" gradientUnits="userSpaceOnUse">
<stop stop-color="#E5ECF8"/>
<stop offset="1" stop-color="#C6D4EE"/>
</linearGradient>
</defs>
</svg>
