<svg width="670" height="268" viewBox="0 0 670 268" fill="none" xmlns="http://www.w3.org/2000/svg">
<mask id="mask0" mask-type="alpha" maskUnits="userSpaceOnUse" x="0" y="0" width="670" height="268">
<rect width="670" height="268" fill="#C4C4C4"/>
</mask>
<g mask="url(#mask0)">
<path d="M79.8928 158.996L97.4036 166.306C98.1016 166.597 98.4313 167.399 98.1399 168.097C98.1019 168.188 98.0543 168.275 97.9978 168.355L77.0005 198.336C76.6314 198.863 75.945 199.062 75.3512 198.814L57.8403 191.504C57.1423 191.212 56.8127 190.41 57.1041 189.712C57.142 189.621 57.1897 189.535 57.2462 189.454L78.2434 159.474C78.6126 158.947 79.299 158.748 79.8928 158.996Z" fill="url(#paint0_linear)"/>
<path fill-rule="evenodd" clip-rule="evenodd" d="M89.6161 159.445C88.8185 159.135 87.7912 159.353 87.1178 159.926L86.3785 159.618C85.8359 159.391 85.2093 159.536 84.8215 159.978L83.2449 161.774C83.15 161.882 83.0728 162.005 83.016 162.137C82.7172 162.832 83.0383 163.637 83.7332 163.936L88.3615 165.926C88.8771 166.148 89.4757 166.032 89.872 165.635L91.6415 163.861C91.7672 163.735 91.8672 163.586 91.9358 163.422C92.2272 162.724 91.8976 161.922 91.1996 161.63L90.3972 161.295C90.7503 160.549 90.4445 159.766 89.6161 159.445ZM89.3899 160.95C89.131 161.296 88.6006 161.452 88.2051 161.299C87.8096 161.146 87.6988 160.742 87.9577 160.396C88.2165 160.05 88.747 159.894 89.1425 160.047C89.538 160.2 89.6487 160.605 89.3899 160.95Z" fill="url(#paint1_linear)"/>
<path d="M79.7392 170.655C79.6739 171.187 80.0521 171.671 80.584 171.736L89.4751 172.828L89.7116 170.902L80.8205 169.81C80.2886 169.745 79.8045 170.123 79.7392 170.655Z" fill="url(#paint2_linear)"/>
<path d="M80.0499 172.105C80.0354 172.223 80.1194 172.331 80.2376 172.345L83.202 172.709C83.3202 172.724 83.4278 172.64 83.4423 172.522C83.4568 172.403 83.3728 172.296 83.2546 172.281L80.2902 171.917C80.172 171.903 80.0644 171.987 80.0499 172.105Z" fill="url(#paint3_linear)"/>
<path d="M78.4441 170.496C78.4078 170.791 78.6179 171.06 78.9134 171.097L79.6203 171.184C79.9158 171.22 80.1848 171.01 80.2211 170.714C80.2573 170.419 80.0472 170.15 79.7517 170.113L79.0448 170.027C78.7493 169.99 78.4804 170.2 78.4441 170.496Z" fill="#F2F5FF"/>
<path d="M89.5469 170.882L89.3104 172.808L91.1925 172.17L89.5469 170.882Z" fill="#F2F5FF"/>
<path d="M86.5557 244.037C86.602 243.548 89.4647 240.763 92.5446 244.006C95.6245 247.25 96.4434 248.413 97.8676 249.628C98.817 250.438 99.8131 250.983 100.856 251.263L94.9824 251.634L86.5223 250.661C86.5137 246.571 86.5249 244.363 86.5557 244.037Z" fill="url(#paint4_linear)"/>
<g filter="url(#filter0_i)">
<path d="M55.0798 239.665L48.0527 219.64C65.7207 205.05 78.3826 200.056 86.0385 204.656C97.5223 211.557 95.1591 244.124 95.2805 245.064C95.4018 246.005 88.563 248.597 87.2688 246.002C85.9747 243.407 78.6882 227.765 77.9488 222.033C74.8462 226.144 67.2232 232.021 55.0798 239.665Z" fill="url(#paint5_linear)"/>
</g>
<path d="M36.163 253.714L26.843 251.6L24.3359 252.423L28.1285 247.433L34.761 246.066L36.163 253.714Z" fill="url(#paint6_linear)"/>
<path d="M86.5219 246.977C87.7379 246.372 89.2649 249.669 91.4938 249.669C93.7228 249.669 95.1093 246.675 95.6789 246.977C97.3443 247.86 99.761 248.289 102.421 249.328C108.964 251.882 109.598 252.249 108.646 256.045C108.646 256.889 101.214 257.311 86.3486 257.311C85.7472 255.546 85.423 253.899 85.3762 252.368C85.3059 250.071 85.3059 247.583 86.5219 246.977Z" fill="url(#paint7_linear)"/>
<g filter="url(#filter1_i)">
<path d="M93.226 243.567C87.836 260.147 36.3749 257.02 32.9331 255.394C30.9691 254.466 33.0128 246.473 34.0959 246.083C36.6123 245.177 71.7057 242.059 64.9672 243.567C58.2287 245.076 28.0871 240.867 29.0458 225.254C29.6786 214.948 30.8445 212.173 37.6459 213.849C41.1485 214.713 49.6164 218.435 53.0095 219.403C75.1175 225.712 98.1285 228.487 93.226 243.567Z" fill="url(#paint8_linear)"/>
</g>
<path d="M32.344 246.559C32.0944 247.723 29.3303 246.78 28.0909 248.257C26.8515 249.734 28.1908 252.423 27.6613 252.622C26.1132 253.204 24.4669 254.551 22.256 255.7C16.8169 258.525 16.2061 258.728 14.0599 255.852C13.4652 255.353 17.3007 250.179 25.5663 240.328C27.1441 240.973 28.4856 241.733 29.5908 242.607C31.2487 243.919 32.5935 245.396 32.344 246.559Z" fill="url(#paint9_linear)"/>
<path d="M37.1624 156.119C43.8594 152.229 51.5242 161.806 53.3223 165.691C55.1204 169.577 60.2216 169.62 58.097 187.223C55.9724 204.826 59.6916 206.256 59.6916 206.256C59.6916 206.256 66.3765 205.305 63.1711 214.305C59.9657 223.304 55.7491 223.197 47.682 224.196C39.6149 225.196 33.7522 222.488 30.447 218.611C27.1417 214.733 34.5966 206.899 30.447 199.495C28.8441 196.635 27.6602 179.088 27.6602 173.357C27.6602 167.625 30.4654 160.008 37.1624 156.119Z" fill="url(#paint10_linear)"/>
<mask id="mask1" mask-type="alpha" maskUnits="userSpaceOnUse" x="27" y="155" width="38" height="70">
<path d="M37.1624 156.119C43.8594 152.229 51.5242 161.806 53.3223 165.691C55.1204 169.577 60.2216 169.62 58.097 187.223C55.9724 204.826 59.6916 206.256 59.6916 206.256C59.6916 206.256 66.3765 205.305 63.1711 214.305C59.9657 223.304 55.7491 223.197 47.682 224.196C39.6149 225.196 33.7522 222.488 30.447 218.611C27.1417 214.733 34.5966 206.899 30.447 199.495C28.8441 196.635 27.6602 179.088 27.6602 173.357C27.6602 167.625 30.4654 160.008 37.1624 156.119Z" fill="white"/>
</mask>
<g mask="url(#mask1)">
<path opacity="0.5" d="M39.3897 158.471C42.1497 157.841 51.552 158.341 52.4307 166.806C53.3093 175.271 56.421 183.711 56.421 183.711C56.421 183.711 59.4762 191.282 76.1145 192.82C76.1145 192.82 79.3577 192.626 80.0152 195.923C80.6727 199.22 79.1731 202.239 79.1731 202.239C79.1731 202.239 51.4413 207.76 43.1423 202.239C34.8433 196.718 29.8899 180.474 31.1688 171.116C32.4477 161.758 36.6296 159.101 39.3897 158.471Z" fill="url(#paint11_linear)"/>
</g>
<path d="M55.6311 143.567C55.6311 143.567 62.4224 149.483 61.3402 157.467C60.2581 165.451 49.3757 164.707 49.3757 164.707L35.2266 145.681L55.6311 143.567Z" fill="url(#paint12_radial)"/>
<path d="M68.1069 134.166C68.1069 134.166 67.8864 140.876 66.8148 143.587C66.3306 144.813 67.5607 145.185 66.8148 146.235C66.4794 146.707 64.2871 147.936 63.9327 148.389C60.4881 152.787 56.3448 156.122 55.3769 155.72C54.3095 155.278 50.6712 152.283 50.6712 152.283C50.6712 152.283 47.4279 156.182 47.8379 157.859C48.2479 159.535 43.1531 161.878 41.2288 159.868C39.3044 157.859 38.5078 153.025 38.5078 153.025L39.7357 145.835L43.6241 138.741L49.1728 134.166L65.5688 133.445L68.1069 134.166Z" fill="url(#paint13_linear)"/>
<path d="M67.3831 134.231C67.3831 134.231 65.5582 142.447 66.662 145.558C66.662 145.558 64.8645 147.434 63.6197 148.49C62.425 149.503 79.4279 144.051 79.4279 135.4C79.4279 126.748 75.5488 126.366 73.343 125.671C71.1373 124.977 66.0261 109.727 52.6448 111.086C39.2635 112.444 42.7193 122.741 33.7919 128.373C24.8644 134.005 17.9581 144.18 23.6088 152.54C29.2596 160.899 35.6832 161.842 44.6446 159.382C49.6451 158.009 49.2567 149.265 49.7328 141.202C49.7686 140.595 48.1248 140.753 47.9881 139.187C47.8515 137.621 48.5431 135.877 49.7328 135.4C52.6448 134.231 56.7338 138.827 59.5579 138.257C69.4235 136.262 67.3831 134.231 67.3831 134.231Z" fill="url(#paint14_radial)"/>
<path d="M80.3766 185.016L76.457 182.015L82.0167 177.337L83.0685 172.809L83.7265 172.004C84.6706 172.204 85.3526 172.148 85.7725 171.836C86.4793 171.309 87.4685 169.835 88.2493 170.065C88.3687 170.1 89.3301 170.404 89.4059 170.673C89.5187 171.072 88.7358 171.488 88.9 171.597C90.2491 172.489 91.1924 174.36 90.4288 175.683C89.5439 177.216 87.7819 178.724 85.1427 180.209L80.3766 185.016Z" fill="url(#paint15_linear)"/>
<path d="M41.1035 156.417C43.8636 155.787 51.7066 157.572 52.5852 166.037C53.4639 174.501 53.1907 182.756 56.2509 185.91C59.311 189.065 61.6932 186.333 78.7729 179.698C78.7729 179.698 82.0161 179.504 82.6737 182.801C83.3312 186.099 82.6737 185.91 82.6737 185.91C82.6737 185.91 61.25 206.03 51.8423 202.787C42.4346 199.543 31.6038 178.42 32.8827 169.062C34.1616 159.704 38.3435 157.047 41.1035 156.417Z" fill="url(#paint16_linear)"/>
<path d="M482.079 188.468C487.741 196.966 537.081 198.19 537.081 198.19H552.947L542.857 176.51L513.748 163.165C513.748 163.165 476.418 179.97 482.079 188.468Z" fill="#255FBD"/>
<path d="M501.317 54.1203C501.317 54.1203 499.232 58.0265 499.028 59.5743C498.811 61.225 499.744 62.5606 499.857 63.5613C500.006 64.8754 498.978 64.9561 499.425 66.1679C499.626 66.7128 501.421 68.4717 501.645 69.0025C503.824 74.161 506.953 78.4689 507.991 78.3295C509.136 78.1757 513.424 76.2095 513.424 76.2095C513.424 76.2095 517.965 78.4904 513.411 85.2234C508.856 91.9564 508.246 96.5342 513.994 95.8637C519.743 95.1932 532.337 84.2786 532.337 84.2786C532.337 84.2786 527.78 82.2132 526.226 79.5401C524.671 76.8671 525.65 72.7786 525.65 72.7786L523.743 64.889L519.581 59.0141L503.953 54.0771L501.317 54.1203Z" fill="url(#paint17_linear)"/>
<path d="M524.164 45.6633C524.164 45.6633 530.364 30.5836 540.114 31.9959C549.864 33.4082 551.509 48.2111 555.178 50.5183C558.846 52.8255 572.608 59.0529 577.513 64.5904C582.418 70.1279 578.406 78.3897 585.034 80.5352C591.662 82.6808 611.886 93.1315 592.598 116.248C580.555 130.682 550.422 132.203 550.421 116.248C550.421 98.0029 540.115 106.292 534.646 98.0027C529.177 89.7138 536.037 85.6499 534.646 80.5346C533.255 75.4192 528.61 79.2861 524.164 72.7286C519.402 65.7053 521.631 62.3377 522.898 56.4278C524.164 50.5179 524.164 45.6633 524.164 45.6633Z" fill="url(#paint18_radial)"/>
<path fill-rule="evenodd" clip-rule="evenodd" d="M513.12 76.2091C513.12 76.2091 517.657 78.4847 513.113 85.1883C508.569 91.8918 507.963 96.4514 513.704 95.788C519.445 95.1245 532.016 84.2617 532.016 84.2617C532.016 84.2617 527.463 82.2007 525.908 79.5367C524.354 76.8728 525.328 72.8008 525.328 72.8008L513.126 69.5531C513.126 69.5531 514.026 71.2942 513.723 73.0759C513.388 75.0396 509.36 77.0082 509.062 77.7737C508.929 78.1159 513.12 76.2091 513.12 76.2091Z" fill="url(#paint19_linear)"/>
<path d="M529.012 53.6432C526.417 52.9479 524.932 50.0769 525.694 47.2307C526.457 44.3844 529.179 42.6408 531.774 43.3362C534.369 44.0315 535.854 46.9025 535.092 49.7487C534.329 52.5949 531.607 54.3386 529.012 53.6432Z" fill="url(#paint20_radial)"/>
<path d="M499.666 65.2139C498.896 66.3076 501.502 67.9305 502.08 69.4263C503.012 70.7687 478.589 67.6645 481.931 51.8198C485.273 35.9751 503.152 42.3959 505.466 42.2974C507.78 42.1989 520.083 37.145 525.224 40.1717C530.324 43.1745 533.327 50.0145 532.129 58.8376C530.684 69.481 527.549 75.1951 525.242 75.1939C521.373 75.1919 513.329 69.4315 513.329 69.4315C513.329 69.4315 516.978 68.8486 515.903 64.5948C514.828 60.3411 510.802 61.2617 509.928 64.5214L508.639 61.9305L499.373 60.9585C499.373 60.9585 500.608 63.8772 499.666 65.2139Z" fill="url(#paint21_radial)"/>
<path opacity="0.806165" fill-rule="evenodd" clip-rule="evenodd" d="M623.5 252C633.717 252 642 249.761 642 247C642 244.239 633.717 242 623.5 242C613.283 242 605 244.239 605 247C605 249.761 613.283 252 623.5 252Z" fill="#E2EBFC"/>
<path d="M504.576 235.7L505.575 241.899C505.575 241.899 503.751 244.374 501.07 244.374C498.39 244.374 496.298 243.125 496.298 243.125L495.297 236.351L504.576 235.7Z" fill="url(#paint22_linear)"/>
<path d="M535.574 235.7L536.573 241.899C536.573 241.899 534.749 244.374 532.068 244.374C529.388 244.374 527.296 243.125 527.296 243.125L526.295 236.351L535.574 235.7Z" fill="url(#paint23_linear)"/>
<path d="M536.604 241.048C537.362 241.048 537.362 243.606 537.395 245.553C537.407 246.262 537.279 247.342 537.009 248.792C536.899 249.387 536.413 249.823 535.838 249.843C523.667 250.283 516.333 250.272 516.311 249.808C515.339 246.642 515.868 246.301 521.388 243.818C523.631 242.809 525.69 242.327 527.085 241.498C527.563 241.215 528.563 243.506 531.862 243.506C535.161 243.506 535.845 241.048 536.604 241.048Z" fill="url(#paint24_linear)"/>
<path d="M505.608 241.048C506.366 241.048 506.366 243.606 506.399 245.553C506.411 246.262 506.282 247.342 506.013 248.792C505.903 249.387 505.417 249.823 504.842 249.843C492.671 250.283 485.337 250.272 485.315 249.808C484.343 246.642 484.872 246.301 490.392 243.818C492.635 242.809 494.694 242.327 496.089 241.498C496.567 241.215 497.567 243.506 500.866 243.506C504.165 243.506 504.849 241.048 505.608 241.048Z" fill="url(#paint25_linear)"/>
<path d="M539.707 134.44C539.707 134.44 539.253 144.649 539.707 145.832C540.162 147.015 537.497 161.775 531.713 190.113C532.208 217.763 536.332 232.952 535.837 235.68C535.096 239.772 526.473 239.772 525.427 236.815C524.729 234.843 521.842 218.824 516.766 188.758L515.876 165.176C512.326 171.355 507.362 179.772 500.982 190.427C502.026 219.753 505.983 235.274 504.607 236.992C503.381 238.523 495.298 239.603 494.813 236.992C489.894 216.762 487.435 201.138 487.436 190.118C487.436 179.098 492.502 160.538 502.633 134.44L539.707 134.44Z" fill="#B2C7EE"/>
<path d="M539.707 134.44C539.707 134.44 539.253 144.649 539.707 145.832C540.162 147.015 537.497 161.775 531.713 190.113C532.208 217.763 536.332 232.952 535.837 235.68C535.096 239.772 526.473 239.772 525.427 236.815C524.729 234.843 521.842 218.824 516.766 188.758L515.876 165.176C512.326 171.355 507.362 179.772 500.982 190.427C502.026 219.753 505.983 235.274 504.607 236.992C503.381 238.523 495.298 239.603 494.813 236.992C489.894 216.762 487.435 201.138 487.436 190.118C487.436 179.098 492.502 160.538 502.633 134.44L539.707 134.44Z" fill="url(#paint26_linear)"/>
<path d="M539.707 134.44C539.707 134.44 539.253 144.649 539.707 145.832C540.162 147.015 537.497 161.775 531.713 190.113C532.208 217.763 536.332 232.952 535.837 235.68C535.096 239.772 526.473 239.772 525.427 236.815C524.729 234.843 521.842 218.824 516.766 188.758L515.876 165.176C512.326 171.355 507.362 179.772 500.982 190.427C502.026 219.753 505.983 235.274 504.607 236.992C503.381 238.523 495.298 239.603 494.813 236.992C489.894 216.762 487.435 201.138 487.436 190.118C487.436 179.098 492.502 160.538 502.633 134.44L539.707 134.44Z" fill="url(#paint27_linear)"/>
<path d="M539.707 134.44C539.707 134.44 539.253 144.649 539.707 145.832C540.162 147.015 537.497 161.775 531.713 190.113C532.208 217.763 536.332 232.952 535.837 235.68C535.096 239.772 526.473 239.772 525.427 236.815C524.729 234.843 521.842 218.824 516.766 188.758L515.876 165.176C512.326 171.355 507.362 179.772 500.982 190.427C502.026 219.753 505.983 235.274 504.607 236.992C503.381 238.523 495.298 239.603 494.813 236.992C489.894 216.762 487.435 201.138 487.436 190.118C487.436 179.098 492.502 160.538 502.633 134.44L539.707 134.44Z" fill="url(#paint28_linear)"/>
<path d="M500.987 190.417L500.865 190.382L511.175 161.326C511.175 161.326 512.206 162.193 515.875 165.176C512.327 171.353 507.364 179.767 500.987 190.417Z" fill="url(#paint29_linear)"/>
<path d="M513.796 84.4452L508.56 86.4806L501.528 101.038C504.72 112.692 506.316 120.02 506.316 123.022C506.316 124.443 505.792 128.136 504.745 134.101C504.719 134.25 504.695 134.4 504.675 134.551C503.848 140.718 508.176 146.388 514.343 147.216C523.031 148.382 530.197 146.881 534.939 142.557C538.207 139.577 546.374 94.5443 544.16 92.133C541.945 89.7217 540.835 86.4669 530.024 82.3687C521.079 89.4773 515.341 92.4189 512.809 91.1934C510.278 89.968 511.718 87.749 513.796 84.4452Z" fill="url(#paint30_linear)"/>
<path d="M513.796 84.4452L508.56 86.4806L501.528 101.038C504.72 112.692 506.316 120.02 506.316 123.022C506.316 124.443 505.792 128.136 504.745 134.101C504.719 134.25 504.695 134.4 504.675 134.551C503.848 140.718 508.176 146.388 514.343 147.216C523.031 148.382 530.197 146.881 534.939 142.557C538.207 139.577 546.374 94.5443 544.16 92.133C541.945 89.7217 540.835 86.4669 530.024 82.3687C521.079 89.4773 515.341 92.4189 512.809 91.1934C510.278 89.968 511.718 87.749 513.796 84.4452Z" fill="url(#paint31_linear)"/>
<path d="M513.796 84.4452L508.56 86.4806L501.528 101.038C504.72 112.692 506.316 120.02 506.316 123.022C506.316 124.443 505.792 128.136 504.745 134.101C504.719 134.25 504.695 134.4 504.675 134.551C503.848 140.718 508.176 146.388 514.343 147.216C523.031 148.382 530.197 146.881 534.939 142.557C538.207 139.577 546.374 94.5443 544.16 92.133C541.945 89.7217 540.835 86.4669 530.024 82.3687C521.079 89.4773 515.341 92.4189 512.809 91.1934C510.278 89.968 511.718 87.749 513.796 84.4452Z" fill="url(#paint32_linear)"/>
<path d="M532.967 95.3163C532.967 95.3163 525.575 123.432 530.425 139.853C535.275 156.275 527.368 175.358 529.223 184.421C543.088 185.866 553.436 198.46 553.436 198.46C553.436 198.46 557.81 192.854 557.356 173.84C556.902 154.827 552.35 153.769 551.648 145.114C550.946 136.459 551.648 123.569 551.648 123.569L545.181 91.0877C545.181 91.0877 540.554 87.2671 537.981 85.706C535.407 84.1448 531.333 82.6877 531.333 82.6877L532.967 95.3163Z" fill="url(#paint33_radial)"/>
<mask id="mask2" mask-type="alpha" maskUnits="userSpaceOnUse" x="528" y="82" width="30" height="117">
<path d="M533.076 95.4828C533.076 95.4828 525.684 123.598 530.534 140.02C535.384 156.441 527.477 175.525 529.332 184.588C543.196 186.032 553.544 198.626 553.544 198.626C553.544 198.626 557.919 193.021 557.465 174.007C557.011 154.993 552.459 153.936 551.757 145.281C551.055 136.625 551.757 123.736 551.757 123.736L545.29 91.2542C545.29 91.2542 540.663 87.4336 538.089 85.8725C535.515 84.3113 531.442 82.8542 531.442 82.8542L533.076 95.4828Z" fill="white"/>
</mask>
<g mask="url(#mask2)">
<path d="M538.664 114.495C538.664 114.495 535.06 109.653 538.664 98.5858C539.516 95.9709 543.104 95.2569 548.228 98.5858C554.37 102.576 563.745 119.542 559.366 131.983C552.623 151.145 541.51 156.398 535.369 157.653C534.196 157.892 533.947 157.309 531.495 159.851C527.322 164.177 532.491 149.177 532.491 149.177C532.491 149.177 544.318 132.391 543.33 126.711C542.342 121.031 538.664 114.495 538.664 114.495Z" fill="url(#paint34_linear)"/>
</g>
<path d="M536.855 153.507L532.604 158.027C531.329 160.492 530.003 162.154 528.627 163.014C527.44 163.756 525.696 162.952 524.835 161.744C524.66 161.499 523.501 161.467 523.411 161.197C523.175 160.489 524.295 159.502 524.954 158.872C525.936 157.933 524.714 158.087 525.189 157.074C525.506 156.398 527.067 155.792 529.873 155.255L533.981 150.012L536.855 153.507Z" fill="url(#paint35_linear)"/>
<path d="M538.665 108.218C538.665 108.218 535.061 103.376 538.665 92.3092C539.517 89.6942 543.106 88.9803 548.229 92.3092C554.372 96.2998 561.993 115.384 557.614 127.826C549.583 150.647 542.307 151.121 537.814 153.987C533.32 156.854 532.65 150.231 532.65 150.231C532.65 150.231 545.316 131.816 544.328 126.136C543.34 120.456 538.665 108.218 538.665 108.218Z" fill="url(#paint36_radial)"/>
<path d="M459.486 80.3001L455.118 75.8943C452.698 74.5332 451.083 73.1503 450.272 71.7455C449.572 70.5331 450.437 68.8178 451.674 67.9998C451.925 67.8334 448.744 64.2404 449.017 64.1601C449.732 63.949 453.934 67.5382 454.54 68.2187C455.444 69.2327 455.333 68.0064 456.329 68.5166C456.993 68.8567 457.544 70.4383 457.983 73.2614L463.079 77.5499L459.486 80.3001Z" fill="url(#paint37_linear)"/>
<path d="M511.05 86.3002C511.05 86.3002 507.517 95.6029 506.255 99.5018C504.993 103.403 504.503 106.621 504.786 109.155C505.633 116.754 507.989 119.243 505.948 137.42C505.15 144.527 500.668 154.531 499.803 162.455C498.456 174.8 501.769 179.07 500.939 181.112C499.803 183.906 487.682 181.338 481.616 187.678C479.662 183.906 487.084 170.607 487.084 168.576C487.084 166.544 487.337 151.289 493.57 140.098C499.803 128.907 498.333 107.359 498.333 107.359C498.333 107.359 482.668 104.346 475.418 99.5018C468.167 94.6575 457.014 78.5988 457.014 78.5988C457.014 78.5988 458.678 74.3806 460.83 74.3806C462.983 74.3806 477.567 87.6197 488.843 89.2257C493.57 89.8989 497.366 87.1049 500.939 86.3002C506.624 85.0201 510.763 85.0686 511.452 84.8329C512.575 84.4489 512.564 85.4071 512.564 85.4071L511.05 86.3002Z" fill="url(#paint38_radial)"/>
<mask id="mask3" mask-type="alpha" maskUnits="userSpaceOnUse" x="457" y="74" width="56" height="114">
<path d="M511.05 86.3002C511.05 86.3002 507.517 95.6029 506.256 99.5018C504.993 103.403 504.503 106.621 504.786 109.155C505.633 116.754 507.989 119.243 505.948 137.42C505.15 144.527 500.668 154.531 499.803 162.455C498.456 174.8 501.769 179.07 500.939 181.112C499.803 183.906 487.682 181.338 481.616 187.678C479.662 183.906 487.084 170.607 487.084 168.576C487.084 166.544 487.337 151.289 493.57 140.098C499.803 128.907 498.333 107.359 498.333 107.359C498.333 107.359 482.668 104.346 475.418 99.5018C468.167 94.6575 457.014 78.5988 457.014 78.5988C457.014 78.5988 458.678 74.3806 460.83 74.3806C462.983 74.3806 477.567 87.6197 488.843 89.2257C493.57 89.8989 497.366 87.1049 500.939 86.3002C506.624 85.0201 510.763 85.0686 511.452 84.8329C512.575 84.4489 512.564 85.4071 512.564 85.4071L511.05 86.3002Z" fill="white"/>
</mask>
<g mask="url(#mask3)">
<path d="M497.922 108.838C497.922 108.838 497.991 104.877 499.182 102.403C500.374 99.9296 499.851 99.4878 499.851 99.4878C499.851 99.4878 486.853 105.916 478.089 102.403C469.326 98.8904 482.504 112.041 482.504 112.041L497.922 108.838Z" fill="url(#paint39_radial)"/>
</g>
<path d="M113.145 0H367.855C371.801 0 375 3.20627 375 7.16141V191.568C375 192.359 374.36 193 373.571 193H107.429C106.64 193 106 192.359 106 191.568V7.16141C106 3.20627 109.199 0 113.145 0Z" fill="url(#paint40_linear)"/>
<path fill-rule="evenodd" clip-rule="evenodd" d="M248.786 67.7097C248.194 67.7097 247.714 68.1863 247.714 68.7742V87.2258C247.714 87.8137 248.194 88.2903 248.786 88.2903H260.214C260.806 88.2903 261.286 87.8137 261.286 87.2258V68.7742C261.286 68.1863 260.806 67.7097 260.214 67.7097H248.786ZM247 68.7742C247 67.7943 247.799 67 248.786 67H260.214C261.201 67 262 67.7943 262 68.7742V87.2258C262 88.2057 261.201 89 260.214 89H248.786C247.799 89 247 88.2057 247 87.2258V68.7742Z" fill="#8AAFE1"/>
<path fill-rule="evenodd" clip-rule="evenodd" d="M283.102 60.1343C283.313 60.0477 283.544 60 283.786 60H285.214C285.412 60 285.571 60.1583 285.571 60.3537C285.571 60.549 285.412 60.7073 285.214 60.7073H283.786C283.64 60.7073 283.502 60.736 283.376 60.7877C283.193 60.8625 282.985 60.7769 282.909 60.5965C282.833 60.416 282.92 60.2091 283.102 60.1343ZM287.714 60.3537C287.714 60.1583 287.874 60 288.071 60H290.929C291.126 60 291.286 60.1583 291.286 60.3537C291.286 60.549 291.126 60.7073 290.929 60.7073H288.071C287.874 60.7073 287.714 60.549 287.714 60.3537ZM293.429 60.3537C293.429 60.1583 293.588 60 293.786 60H295.214C295.456 60 295.687 60.0477 295.898 60.1343C296.08 60.2091 296.167 60.416 296.091 60.5965C296.015 60.7769 295.807 60.8625 295.624 60.7877C295.498 60.736 295.36 60.7073 295.214 60.7073H293.786C293.588 60.7073 293.429 60.549 293.429 60.3537ZM296.398 60.9001C296.58 60.8253 296.789 60.9109 296.864 61.0913C296.952 61.3003 297 61.5292 297 61.7683V63.3598C297 63.5551 296.84 63.7134 296.643 63.7134C296.446 63.7134 296.286 63.5551 296.286 63.3598V61.7683C296.286 61.6238 296.257 61.4869 296.205 61.3623C296.129 61.1818 296.215 60.9749 296.398 60.9001ZM282.602 60.9001C282.785 60.9749 282.871 61.1818 282.795 61.3623C282.743 61.4869 282.714 61.6238 282.714 61.7683V63.3598C282.714 63.5551 282.554 63.7134 282.357 63.7134C282.16 63.7134 282 63.5551 282 63.3598V61.7683C282 61.5292 282.048 61.3003 282.136 61.0913C282.211 60.9109 282.42 60.8253 282.602 60.9001ZM282.357 66.189C282.554 66.189 282.714 66.3474 282.714 66.5427V69.7256C282.714 69.9209 282.554 70.0793 282.357 70.0793C282.16 70.0793 282 69.9209 282 69.7256V66.5427C282 66.3474 282.16 66.189 282.357 66.189ZM296.643 66.189C296.84 66.189 297 66.3474 297 66.5427V69.7256C297 69.9209 296.84 70.0793 296.643 70.0793C296.446 70.0793 296.286 69.9209 296.286 69.7256V66.5427C296.286 66.3474 296.446 66.189 296.643 66.189ZM282.357 72.5549C282.554 72.5549 282.714 72.7132 282.714 72.9085V76.0915C282.714 76.2868 282.554 76.4451 282.357 76.4451C282.16 76.4451 282 76.2868 282 76.0915V72.9085C282 72.7132 282.16 72.5549 282.357 72.5549ZM296.643 72.5549C296.84 72.5549 297 72.7132 297 72.9085V76.0915C297 76.2868 296.84 76.4451 296.643 76.4451C296.446 76.4451 296.286 76.2868 296.286 76.0915V72.9085C296.286 72.7132 296.446 72.5549 296.643 72.5549ZM282.357 78.9207C282.554 78.9207 282.714 79.0791 282.714 79.2744V82.4573C282.714 82.6526 282.554 82.811 282.357 82.811C282.16 82.811 282 82.6526 282 82.4573V79.2744C282 79.0791 282.16 78.9207 282.357 78.9207ZM296.643 78.9207C296.84 78.9207 297 79.0791 297 79.2744V82.4573C297 82.6526 296.84 82.811 296.643 82.811C296.446 82.811 296.286 82.6526 296.286 82.4573V79.2744C296.286 79.0791 296.446 78.9207 296.643 78.9207ZM282.357 85.2866C282.554 85.2866 282.714 85.4449 282.714 85.6402V87.2317C282.714 87.3762 282.743 87.5131 282.795 87.6377C282.871 87.8182 282.785 88.0251 282.602 88.0999C282.42 88.1747 282.211 88.0891 282.136 87.9087C282.048 87.6997 282 87.4708 282 87.2317V85.6402C282 85.4449 282.16 85.2866 282.357 85.2866ZM296.643 85.2866C296.84 85.2866 297 85.4449 297 85.6402V87.2317C297 87.4708 296.952 87.6997 296.864 87.9087C296.789 88.0891 296.58 88.1747 296.398 88.0999C296.215 88.0251 296.129 87.8182 296.205 87.6377C296.257 87.5131 296.286 87.3762 296.286 87.2317V85.6402C296.286 85.4449 296.446 85.2866 296.643 85.2866ZM282.909 88.4035C282.985 88.2231 283.193 88.1375 283.376 88.2123C283.502 88.264 283.64 88.2927 283.786 88.2927H285.214C285.412 88.2927 285.571 88.451 285.571 88.6463C285.571 88.8417 285.412 89 285.214 89H283.786C283.544 89 283.313 88.9523 283.102 88.8657C282.92 88.7909 282.833 88.584 282.909 88.4035ZM296.091 88.4035C296.167 88.584 296.08 88.7909 295.898 88.8657C295.687 88.9523 295.456 89 295.214 89H293.786C293.588 89 293.429 88.8417 293.429 88.6463C293.429 88.451 293.588 88.2927 293.786 88.2927H295.214C295.36 88.2927 295.498 88.264 295.624 88.2123C295.807 88.1375 296.015 88.2231 296.091 88.4035ZM287.714 88.6463C287.714 88.451 287.874 88.2927 288.071 88.2927H290.929C291.126 88.2927 291.286 88.451 291.286 88.6463C291.286 88.8417 291.126 89 290.929 89H288.071C287.874 89 287.714 88.8417 287.714 88.6463Z" fill="#8AAFE1"/>
<path d="M302.4 78H313.6C314.373 78 315 78.6566 315 79.4667V87.5333C315 88.3434 314.373 89 313.6 89H302.4C301.627 89 301 88.3434 301 87.5333V79.4667C301 78.6566 301.627 78 302.4 78Z" fill="url(#paint41_linear)"/>
<path d="M320.4 67H331.6C332.373 67 333 67.6566 333 68.4667V87.5333C333 88.3434 332.373 89 331.6 89H320.4C319.627 89 319 88.3434 319 87.5333V68.4667C319 67.6566 319.627 67 320.4 67Z" fill="url(#paint42_linear)"/>
<path d="M338.4 57H349.6C350.373 57 351 57.6368 351 58.4222V87.5778C351 88.3633 350.373 89 349.6 89H338.4C337.627 89 337 88.3633 337 87.5778V58.4222C337 57.6368 337.627 57 338.4 57Z" fill="url(#paint43_linear)"/>
<path fill-rule="evenodd" clip-rule="evenodd" d="M266.102 49.1356C266.313 49.0481 266.544 49 266.786 49H268.214C268.412 49 268.571 49.1599 268.571 49.3571C268.571 49.5544 268.412 49.7143 268.214 49.7143H266.786C266.64 49.7143 266.502 49.7433 266.376 49.7954C266.193 49.871 265.985 49.7845 265.909 49.6023C265.833 49.4201 265.92 49.2112 266.102 49.1356ZM270.714 49.3571C270.714 49.1599 270.874 49 271.071 49H273.929C274.126 49 274.286 49.1599 274.286 49.3571C274.286 49.5544 274.126 49.7143 273.929 49.7143H271.071C270.874 49.7143 270.714 49.5544 270.714 49.3571ZM276.429 49.3571C276.429 49.1599 276.588 49 276.786 49H278.214C278.456 49 278.687 49.0481 278.898 49.1356C279.08 49.2112 279.167 49.4201 279.091 49.6023C279.015 49.7845 278.807 49.871 278.624 49.7954C278.498 49.7433 278.36 49.7143 278.214 49.7143H276.786C276.588 49.7143 276.429 49.5544 276.429 49.3571ZM279.398 49.909C279.58 49.8334 279.789 49.9199 279.864 50.1021C279.952 50.3131 280 50.5442 280 50.7857V52.6071C280 52.8044 279.84 52.9643 279.643 52.9643C279.446 52.9643 279.286 52.8044 279.286 52.6071V50.7857C279.286 50.6398 279.257 50.5015 279.205 50.3757C279.129 50.1935 279.215 49.9845 279.398 49.909ZM265.602 49.909C265.785 49.9845 265.871 50.1935 265.795 50.3757C265.743 50.5015 265.714 50.6398 265.714 50.7857V52.6071C265.714 52.8044 265.554 52.9643 265.357 52.9643C265.16 52.9643 265 52.8044 265 52.6071V50.7857C265 50.5442 265.048 50.3131 265.136 50.1021C265.211 49.9199 265.42 49.8334 265.602 49.909ZM265.357 55.8929C265.554 55.8929 265.714 56.0528 265.714 56.25V59.8929C265.714 60.0901 265.554 60.25 265.357 60.25C265.16 60.25 265 60.0901 265 59.8929V56.25C265 56.0528 265.16 55.8929 265.357 55.8929ZM279.643 55.8929C279.84 55.8929 280 56.0528 280 56.25V59.8929C280 60.0901 279.84 60.25 279.643 60.25C279.446 60.25 279.286 60.0901 279.286 59.8929V56.25C279.286 56.0528 279.446 55.8929 279.643 55.8929ZM279.643 63.1786C279.84 63.1786 280 63.3385 280 63.5357V67.1786C280 67.3758 279.84 67.5357 279.643 67.5357C279.446 67.5357 279.286 67.3758 279.286 67.1786V63.5357C279.286 63.3385 279.446 63.1786 279.643 63.1786ZM265.357 63.1786C265.554 63.1786 265.714 63.3385 265.714 63.5357V67.1786C265.714 67.3758 265.554 67.5357 265.357 67.5357C265.16 67.5357 265 67.3758 265 67.1786V63.5357C265 63.3385 265.16 63.1786 265.357 63.1786ZM279.643 70.4643C279.84 70.4643 280 70.6242 280 70.8214V74.4643C280 74.6615 279.84 74.8214 279.643 74.8214C279.446 74.8214 279.286 74.6615 279.286 74.4643V70.8214C279.286 70.6242 279.446 70.4643 279.643 70.4643ZM265.357 70.4643C265.554 70.4643 265.714 70.6242 265.714 70.8214V74.4643C265.714 74.6615 265.554 74.8214 265.357 74.8214C265.16 74.8214 265 74.6615 265 74.4643V70.8214C265 70.6242 265.16 70.4643 265.357 70.4643ZM265.357 77.75C265.554 77.75 265.714 77.9099 265.714 78.1071V81.75C265.714 81.9472 265.554 82.1071 265.357 82.1071C265.16 82.1071 265 81.9472 265 81.75V78.1071C265 77.9099 265.16 77.75 265.357 77.75ZM279.643 77.75C279.84 77.75 280 77.9099 280 78.1071V81.75C280 81.9472 279.84 82.1071 279.643 82.1071C279.446 82.1071 279.286 81.9472 279.286 81.75V78.1071C279.286 77.9099 279.446 77.75 279.643 77.75ZM265.357 85.0357C265.554 85.0357 265.714 85.1956 265.714 85.3929V87.2143C265.714 87.3602 265.743 87.4985 265.795 87.6243C265.871 87.8065 265.785 88.0155 265.602 88.091C265.42 88.1666 265.211 88.0801 265.136 87.8979C265.048 87.6869 265 87.4558 265 87.2143V85.3929C265 85.1956 265.16 85.0357 265.357 85.0357ZM279.643 85.0357C279.84 85.0357 280 85.1956 280 85.3929V87.2143C280 87.4558 279.952 87.6869 279.864 87.8979C279.789 88.0801 279.58 88.1666 279.398 88.091C279.215 88.0155 279.129 87.8065 279.205 87.6243C279.257 87.4985 279.286 87.3602 279.286 87.2143V85.3929C279.286 85.1956 279.446 85.0357 279.643 85.0357ZM265.909 88.3977C265.985 88.2155 266.193 88.129 266.376 88.2046C266.502 88.2567 266.64 88.2857 266.786 88.2857H268.214C268.412 88.2857 268.571 88.4456 268.571 88.6429C268.571 88.8401 268.412 89 268.214 89H266.786C266.544 89 266.313 88.9519 266.102 88.8644C265.92 88.7888 265.833 88.5799 265.909 88.3977ZM279.091 88.3977C279.167 88.5799 279.08 88.7888 278.898 88.8644C278.687 88.9519 278.456 89 278.214 89H276.786C276.588 89 276.429 88.8401 276.429 88.6429C276.429 88.4456 276.588 88.2857 276.786 88.2857H278.214C278.36 88.2857 278.498 88.2567 278.624 88.2046C278.807 88.129 279.015 88.2155 279.091 88.3977ZM270.714 88.6429C270.714 88.4456 270.874 88.2857 271.071 88.2857H273.929C274.126 88.2857 274.286 88.4456 274.286 88.6429C274.286 88.8401 274.126 89 273.929 89H271.071C270.874 89 270.714 88.8401 270.714 88.6429Z" fill="#8AAFE1"/>
<path d="M200.448 53H218.552C219.352 53 220 53.6484 220 54.4483V72.5517C220 73.3516 219.352 74 218.552 74H200.448C199.648 74 199 73.3516 199 72.5517V54.4483C199 53.6484 199.648 53 200.448 53Z" fill="url(#paint44_linear)"/>
<path fill-rule="evenodd" clip-rule="evenodd" d="M125.09 53.1329C125.299 53.0472 125.528 53 125.767 53H127.533C127.728 53 127.887 53.1567 127.887 53.35C127.887 53.5433 127.728 53.7 127.533 53.7H125.767C125.622 53.7 125.485 53.7284 125.361 53.7795C125.181 53.8536 124.974 53.7689 124.899 53.5903C124.825 53.4117 124.91 53.207 125.09 53.1329ZM130.713 53.35C130.713 53.1567 130.872 53 131.067 53H134.6C134.795 53 134.953 53.1567 134.953 53.35C134.953 53.5433 134.795 53.7 134.6 53.7H131.067C130.872 53.7 130.713 53.5433 130.713 53.35ZM137.78 53.35C137.78 53.1567 137.938 53 138.133 53H141.667C141.862 53 142.02 53.1567 142.02 53.35C142.02 53.5433 141.862 53.7 141.667 53.7H138.133C137.938 53.7 137.78 53.5433 137.78 53.35ZM144.847 53.35C144.847 53.1567 145.005 53 145.2 53H148.733C148.928 53 149.087 53.1567 149.087 53.35C149.087 53.5433 148.928 53.7 148.733 53.7H145.2C145.005 53.7 144.847 53.5433 144.847 53.35ZM151.913 53.35C151.913 53.1567 152.072 53 152.267 53H155.8C155.995 53 156.153 53.1567 156.153 53.35C156.153 53.5433 155.995 53.7 155.8 53.7H152.267C152.072 53.7 151.913 53.5433 151.913 53.35ZM158.98 53.35C158.98 53.1567 159.138 53 159.333 53H162.867C163.062 53 163.22 53.1567 163.22 53.35C163.22 53.5433 163.062 53.7 162.867 53.7H159.333C159.138 53.7 158.98 53.5433 158.98 53.35ZM166.047 53.35C166.047 53.1567 166.205 53 166.4 53H169.933C170.128 53 170.287 53.1567 170.287 53.35C170.287 53.5433 170.128 53.7 169.933 53.7H166.4C166.205 53.7 166.047 53.5433 166.047 53.35ZM173.113 53.35C173.113 53.1567 173.272 53 173.467 53H175.233C175.472 53 175.701 53.0472 175.91 53.1329C176.09 53.207 176.175 53.4117 176.101 53.5903C176.026 53.7689 175.819 53.8536 175.639 53.7795C175.515 53.7284 175.378 53.7 175.233 53.7H173.467C173.272 53.7 173.113 53.5433 173.113 53.35ZM176.404 53.8908C176.584 53.8167 176.791 53.9015 176.866 54.08C176.952 54.2869 177 54.5134 177 54.75V56.2083C177 56.4016 176.842 56.5583 176.647 56.5583C176.452 56.5583 176.293 56.4016 176.293 56.2083V54.75C176.293 54.607 176.265 54.4715 176.213 54.3482C176.138 54.1696 176.224 53.9648 176.404 53.8908ZM124.596 53.8908C124.776 53.9648 124.862 54.1696 124.787 54.3482C124.735 54.4715 124.707 54.607 124.707 54.75V56.2083C124.707 56.4016 124.548 56.5583 124.353 56.5583C124.158 56.5583 124 56.4016 124 56.2083V54.75C124 54.5134 124.048 54.2869 124.134 54.08C124.209 53.9015 124.416 53.8167 124.596 53.8908ZM124.353 58.775C124.548 58.775 124.707 58.9317 124.707 59.125V62.0417C124.707 62.235 124.548 62.3917 124.353 62.3917C124.158 62.3917 124 62.235 124 62.0417V59.125C124 58.9317 124.158 58.775 124.353 58.775ZM176.647 58.775C176.842 58.775 177 58.9317 177 59.125V62.0417C177 62.235 176.842 62.3917 176.647 62.3917C176.452 62.3917 176.293 62.235 176.293 62.0417V59.125C176.293 58.9317 176.452 58.775 176.647 58.775ZM124.353 64.6083C124.548 64.6083 124.707 64.765 124.707 64.9583V67.875C124.707 68.0683 124.548 68.225 124.353 68.225C124.158 68.225 124 68.0683 124 67.875V64.9583C124 64.765 124.158 64.6083 124.353 64.6083ZM176.647 64.6083C176.842 64.6083 177 64.765 177 64.9583V67.875C177 68.0683 176.842 68.225 176.647 68.225C176.452 68.225 176.293 68.0683 176.293 67.875V64.9583C176.293 64.765 176.452 64.6083 176.647 64.6083ZM124.353 70.4417C124.548 70.4417 124.707 70.5984 124.707 70.7917V72.25C124.707 72.393 124.735 72.5285 124.787 72.6518C124.862 72.8304 124.776 73.0352 124.596 73.1092C124.416 73.1833 124.209 73.0985 124.134 72.92C124.048 72.7131 124 72.4866 124 72.25V70.7917C124 70.5984 124.158 70.4417 124.353 70.4417ZM176.647 70.4417C176.842 70.4417 177 70.5984 177 70.7917V72.25C177 72.4866 176.952 72.7131 176.866 72.92C176.791 73.0985 176.584 73.1833 176.404 73.1092C176.224 73.0352 176.138 72.8304 176.213 72.6518C176.265 72.5285 176.293 72.393 176.293 72.25V70.7917C176.293 70.5984 176.452 70.4417 176.647 70.4417ZM124.899 73.4097C124.974 73.2311 125.181 73.1464 125.361 73.2205C125.485 73.2716 125.622 73.3 125.767 73.3H127.533C127.728 73.3 127.887 73.4567 127.887 73.65C127.887 73.8433 127.728 74 127.533 74H125.767C125.528 74 125.299 73.9528 125.09 73.8671C124.91 73.793 124.825 73.5883 124.899 73.4097ZM176.101 73.4097C176.175 73.5883 176.09 73.793 175.91 73.8671C175.701 73.9528 175.472 74 175.233 74H173.467C173.272 74 173.113 73.8433 173.113 73.65C173.113 73.4567 173.272 73.3 173.467 73.3H175.233C175.378 73.3 175.515 73.2716 175.639 73.2205C175.819 73.1464 176.026 73.2311 176.101 73.4097ZM130.713 73.65C130.713 73.4567 130.872 73.3 131.067 73.3H134.6C134.795 73.3 134.953 73.4567 134.953 73.65C134.953 73.8433 134.795 74 134.6 74H131.067C130.872 74 130.713 73.8433 130.713 73.65ZM137.78 73.65C137.78 73.4567 137.938 73.3 138.133 73.3H141.667C141.862 73.3 142.02 73.4567 142.02 73.65C142.02 73.8433 141.862 74 141.667 74H138.133C137.938 74 137.78 73.8433 137.78 73.65ZM144.847 73.65C144.847 73.4567 145.005 73.3 145.2 73.3H148.733C148.928 73.3 149.087 73.4567 149.087 73.65C149.087 73.8433 148.928 74 148.733 74H145.2C145.005 74 144.847 73.8433 144.847 73.65ZM151.913 73.65C151.913 73.4567 152.072 73.3 152.267 73.3H155.8C155.995 73.3 156.153 73.4567 156.153 73.65C156.153 73.8433 155.995 74 155.8 74H152.267C152.072 74 151.913 73.8433 151.913 73.65ZM158.98 73.65C158.98 73.4567 159.138 73.3 159.333 73.3H162.867C163.062 73.3 163.22 73.4567 163.22 73.65C163.22 73.8433 163.062 74 162.867 74H159.333C159.138 74 158.98 73.8433 158.98 73.65ZM166.047 73.65C166.047 73.4567 166.205 73.3 166.4 73.3H169.933C170.128 73.3 170.287 73.4567 170.287 73.65C170.287 73.8433 170.128 74 169.933 74H166.4C166.205 74 166.047 73.8433 166.047 73.65Z" fill="#8AAFE1"/>
<path d="M125.438 82H186.562C187.356 82 188 82.6175 188 83.3793V100.621C188 101.382 187.356 102 186.562 102H125.438C124.644 102 124 101.382 124 100.621V83.3793C124 82.6175 124.644 82 125.438 82Z" fill="url(#paint45_linear)"/>
<path fill-rule="evenodd" clip-rule="evenodd" d="M200.75 84.7C200.17 84.7 199.7 85.1701 199.7 85.75V103.25C199.7 103.83 200.17 104.3 200.75 104.3H218.25C218.83 104.3 219.3 103.83 219.3 103.25V85.75C219.3 85.1701 218.83 84.7 218.25 84.7H200.75ZM199 85.75C199 84.7835 199.784 84 200.75 84H218.25C219.216 84 220 84.7835 220 85.75V103.25C220 104.216 219.216 105 218.25 105H200.75C199.784 105 199 104.216 199 103.25V85.75Z" fill="#8AAFE1"/>
<path d="M200.448 116H218.552C219.352 116 220 116.648 220 117.448V135.552C220 136.352 219.352 137 218.552 137H200.448C199.648 137 199 136.352 199 135.552V117.448C199 116.648 199.648 116 200.448 116Z" fill="url(#paint46_linear)"/>
<path fill-rule="evenodd" clip-rule="evenodd" d="M200.08 147.133C200.287 147.047 200.513 147 200.75 147H202.208C202.402 147 202.558 147.157 202.558 147.35C202.558 147.543 202.402 147.7 202.208 147.7H200.75C200.607 147.7 200.471 147.728 200.348 147.78C200.17 147.854 199.965 147.769 199.891 147.59C199.817 147.412 199.901 147.207 200.08 147.133ZM204.775 147.35C204.775 147.157 204.932 147 205.125 147H208.042C208.235 147 208.392 147.157 208.392 147.35C208.392 147.543 208.235 147.7 208.042 147.7H205.125C204.932 147.7 204.775 147.543 204.775 147.35ZM210.608 147.35C210.608 147.157 210.765 147 210.958 147H213.875C214.068 147 214.225 147.157 214.225 147.35C214.225 147.543 214.068 147.7 213.875 147.7H210.958C210.765 147.7 210.608 147.543 210.608 147.35ZM216.442 147.35C216.442 147.157 216.598 147 216.792 147H218.25C218.487 147 218.713 147.047 218.92 147.133C219.099 147.207 219.183 147.412 219.109 147.59C219.035 147.769 218.83 147.854 218.652 147.78C218.529 147.728 218.393 147.7 218.25 147.7H216.792C216.598 147.7 216.442 147.543 216.442 147.35ZM219.41 147.891C219.588 147.817 219.793 147.901 219.867 148.08C219.953 148.287 220 148.513 220 148.75V150.208C220 150.402 219.843 150.558 219.65 150.558C219.457 150.558 219.3 150.402 219.3 150.208V148.75C219.3 148.607 219.272 148.471 219.22 148.348C219.146 148.17 219.231 147.965 219.41 147.891ZM199.59 147.891C199.769 147.965 199.854 148.17 199.78 148.348C199.728 148.471 199.7 148.607 199.7 148.75V150.208C199.7 150.402 199.543 150.558 199.35 150.558C199.157 150.558 199 150.402 199 150.208V148.75C199 148.513 199.047 148.287 199.133 148.08C199.207 147.901 199.412 147.817 199.59 147.891ZM199.35 152.775C199.543 152.775 199.7 152.932 199.7 153.125V156.042C199.7 156.235 199.543 156.392 199.35 156.392C199.157 156.392 199 156.235 199 156.042V153.125C199 152.932 199.157 152.775 199.35 152.775ZM219.65 152.775C219.843 152.775 220 152.932 220 153.125V156.042C220 156.235 219.843 156.392 219.65 156.392C219.457 156.392 219.3 156.235 219.3 156.042V153.125C219.3 152.932 219.457 152.775 219.65 152.775ZM199.35 158.608C199.543 158.608 199.7 158.765 199.7 158.958V161.875C199.7 162.068 199.543 162.225 199.35 162.225C199.157 162.225 199 162.068 199 161.875V158.958C199 158.765 199.157 158.608 199.35 158.608ZM219.65 158.608C219.843 158.608 220 158.765 220 158.958V161.875C220 162.068 219.843 162.225 219.65 162.225C219.457 162.225 219.3 162.068 219.3 161.875V158.958C219.3 158.765 219.457 158.608 219.65 158.608ZM199.35 164.442C199.543 164.442 199.7 164.598 199.7 164.792V166.25C199.7 166.393 199.728 166.529 199.78 166.652C199.854 166.83 199.769 167.035 199.59 167.109C199.412 167.183 199.207 167.099 199.133 166.92C199.047 166.713 199 166.487 199 166.25V164.792C199 164.598 199.157 164.442 199.35 164.442ZM219.65 164.442C219.843 164.442 220 164.598 220 164.792V166.25C220 166.487 219.953 166.713 219.867 166.92C219.793 167.099 219.588 167.183 219.41 167.109C219.231 167.035 219.146 166.83 219.22 166.652C219.272 166.529 219.3 166.393 219.3 166.25V164.792C219.3 164.598 219.457 164.442 219.65 164.442ZM199.891 167.41C199.965 167.231 200.17 167.146 200.348 167.22C200.471 167.272 200.607 167.3 200.75 167.3H202.208C202.402 167.3 202.558 167.457 202.558 167.65C202.558 167.843 202.402 168 202.208 168H200.75C200.513 168 200.287 167.953 200.08 167.867C199.901 167.793 199.817 167.588 199.891 167.41ZM219.109 167.41C219.183 167.588 219.099 167.793 218.92 167.867C218.713 167.953 218.487 168 218.25 168H216.792C216.598 168 216.442 167.843 216.442 167.65C216.442 167.457 216.598 167.3 216.792 167.3H218.25C218.393 167.3 218.529 167.272 218.652 167.22C218.83 167.146 219.035 167.231 219.109 167.41ZM204.775 167.65C204.775 167.457 204.932 167.3 205.125 167.3H208.042C208.235 167.3 208.392 167.457 208.392 167.65C208.392 167.843 208.235 168 208.042 168H205.125C204.932 168 204.775 167.843 204.775 167.65ZM210.608 167.65C210.608 167.457 210.765 167.3 210.958 167.3H213.875C214.068 167.3 214.225 167.457 214.225 167.65C214.225 167.843 214.068 168 213.875 168H210.958C210.765 168 210.608 167.843 210.608 167.65Z" fill="#8AAFE1"/>
<path d="M125.436 110H187.564C188.357 110 189 110.646 189 111.443V174.557C189 175.354 188.357 176 187.564 176H125.436C124.643 176 124 175.354 124 174.557V111.443C124 110.646 124.643 110 125.436 110Z" fill="url(#paint47_linear)"/>
<path d="M113.145 0L367.855 0C371.801 0 375 3.28702 375 7.34177V27.5316C375 28.3426 374.36 29 373.571 29H107.429C106.64 29 106 28.3426 106 27.5316V7.34177C106 3.28702 109.199 0 113.145 0Z" fill="url(#paint48_linear)"/>
<path d="M119.5 19C121.985 19 124 16.9853 124 14.5C124 12.0147 121.985 10 119.5 10C117.015 10 115 12.0147 115 14.5C115 16.9853 117.015 19 119.5 19Z" fill="white"/>
<path d="M133.5 19C135.985 19 138 16.9853 138 14.5C138 12.0147 135.985 10 133.5 10C131.015 10 129 12.0147 129 14.5C129 16.9853 131.015 19 133.5 19Z" fill="white"/>
<path d="M147.5 19C149.985 19 152 16.9853 152 14.5C152 12.0147 149.985 10 147.5 10C145.015 10 143 12.0147 143 14.5C143 16.9853 145.015 19 147.5 19Z" fill="white"/>
<path fill-rule="evenodd" clip-rule="evenodd" d="M253 109.5C253 109.224 253.321 109 253.716 109H350.284C350.679 109 351 109.224 351 109.5C351 109.776 350.679 110 350.284 110H253.716C253.321 110 253 109.776 253 109.5Z" fill="#8AAFE1"/>
<path fill-rule="evenodd" clip-rule="evenodd" d="M253 120.5C253 120.224 253.321 120 253.716 120H350.284C350.679 120 351 120.224 351 120.5C351 120.776 350.679 121 350.284 121H253.716C253.321 121 253 120.776 253 120.5Z" fill="#8AAFE1"/>
<path fill-rule="evenodd" clip-rule="evenodd" d="M253 132.5C253 132.224 253.321 132 253.716 132H350.284C350.679 132 351 132.224 351 132.5C351 132.776 350.679 133 350.284 133H253.716C253.321 133 253 132.776 253 132.5Z" fill="#8AAFE1"/>
<path fill-rule="evenodd" clip-rule="evenodd" d="M253 143.5C253 143.224 253.321 143 253.716 143H350.284C350.679 143 351 143.224 351 143.5C351 143.776 350.679 144 350.284 144H253.716C253.321 144 253 143.776 253 143.5Z" fill="#8AAFE1"/>
<path fill-rule="evenodd" clip-rule="evenodd" d="M253 154.5C253 154.224 253.321 154 253.716 154H350.284C350.679 154 351 154.224 351 154.5C351 154.776 350.679 155 350.284 155H253.716C253.321 155 253 154.776 253 154.5Z" fill="#8AAFE1"/>
<path fill-rule="evenodd" clip-rule="evenodd" d="M253 166.5C253 166.224 253.321 166 253.716 166H350.284C350.679 166 351 166.224 351 166.5C351 166.776 350.679 167 350.284 167H253.716C253.321 167 253 166.776 253 166.5Z" fill="#8AAFE1"/>
<path opacity="0.5" fill-rule="evenodd" clip-rule="evenodd" d="M331.484 157.549C331.484 157.549 330.593 173.712 334.202 177.949C336.869 180.459 343.898 179.033 346.071 180.459C344.188 179.675 340.757 176.243 338.696 173.398C335.579 168.241 333.36 163.041 333.36 163.041L331.484 157.549Z" fill="url(#paint49_linear)"/>
<path d="M295.693 163.252H458.538V169.886H295.693V163.252Z" fill="url(#paint50_linear)"/>
<path fill-rule="evenodd" clip-rule="evenodd" d="M304.089 249.489L312.607 169.222H301.994V249.483C301.994 250.033 302.44 250.478 302.989 250.478C303.555 250.478 304.029 250.052 304.089 249.489ZM311.134 170.549L303.322 244.158V170.549H311.134Z" fill="url(#paint51_linear)"/>
<path fill-rule="evenodd" clip-rule="evenodd" d="M448.586 169.222H437.973L446.491 249.489C446.55 250.052 447.025 250.478 447.591 250.478C448.14 250.478 448.586 250.033 448.586 249.483V169.222ZM447.263 170.549V244.158L439.451 170.549H447.263Z" fill="url(#paint52_linear)"/>
<path d="M437.975 145.675H438.97V142.027C438.97 140.927 439.861 140.037 440.96 140.037C442.059 140.037 442.95 140.927 442.95 142.027V147.665C442.95 148.764 442.059 149.655 440.96 149.655C440.847 149.655 440.736 149.645 440.628 149.627C440.52 149.645 440.41 149.655 440.297 149.655H437.975V154.961H431.342V140.7C431.342 138.868 432.827 137.383 434.658 137.383C436.49 137.383 437.975 138.868 437.975 140.7V145.675Z" fill="url(#paint53_linear)"/>
<mask id="mask4" mask-type="alpha" maskUnits="userSpaceOnUse" x="431" y="137" width="12" height="18">
<path d="M437.975 145.675H438.97V142.027C438.97 140.927 439.861 140.037 440.96 140.037C442.059 140.037 442.95 140.927 442.95 142.027V147.665C442.95 148.764 442.059 149.655 440.96 149.655C440.847 149.655 440.736 149.645 440.628 149.627C440.52 149.645 440.41 149.655 440.297 149.655H437.975V154.961H431.342V140.7C431.342 138.868 432.827 137.383 434.658 137.383C436.49 137.383 437.975 138.868 437.975 140.7V145.675Z" fill="white"/>
</mask>
<g mask="url(#mask4)">
<path fill-rule="evenodd" clip-rule="evenodd" d="M432.666 136.388H432.335V157.211H432.666V136.388ZM431.673 136.389H431.342V157.212H431.673V136.389ZM433.331 136.388H433.663V157.211H433.331V136.388ZM434.658 136.388H434.326V157.211H434.658V136.388ZM435.321 136.388H435.653V157.211H435.321V136.388ZM436.648 136.388H436.316V157.211H436.648V136.388ZM437.311 136.388H437.643V157.211H437.311V136.388ZM438.637 136.388H438.306V157.211H438.637V136.388ZM439.301 136.388H439.632V157.211H439.301V136.388ZM440.629 136.388H440.297V157.211H440.629V136.388ZM441.29 136.388H441.622V157.211H441.29V136.388ZM442.617 136.388H442.285V157.211H442.617V136.388Z" fill="#42B16D"/>
</g>
<path d="M426.697 152.639H443.28L439.595 163.252H430.382L426.697 152.639Z" fill="url(#paint54_linear)"/>
<rect x="426.367" y="152.308" width="16.9146" height="3.31658" rx="1.65829" fill="url(#paint55_linear)"/>
<path d="M338.807 106.539H418.737C419.469 106.539 420.063 107.133 420.063 107.865V153.303C420.063 154.035 419.469 154.629 418.737 154.629H338.807C338.074 154.629 337.48 154.035 337.48 153.303V107.865C337.48 107.133 338.074 106.539 338.807 106.539Z" fill="url(#paint56_linear)"/>
<path d="M369.984 154.298H388.226V165.242H369.984V154.298Z" fill="#B7C8FF"/>
<path d="M340.801 109.855H416.751V151.313H340.801V109.855Z" fill="url(#paint57_linear)"/>
<path d="M352.93 132.179C352.93 132.179 351.393 137.151 350.456 138.76C349.52 140.369 351.186 144.417 355.265 144.417C359.344 144.417 368.605 140.705 368.605 140.705C368.605 140.705 366.58 138.508 365.703 135.789C364.825 133.069 365.703 129.227 365.703 129.227C365.703 129.227 370.393 118.247 369.413 115.875C368.433 113.502 358.878 107.79 358.878 107.79C358.878 107.79 348.907 111.898 348.907 114.992C348.907 118.086 348.907 120.493 348.907 120.493C348.907 120.493 345.998 119.236 345.998 122.464C345.998 125.692 349.758 126.879 349.758 126.879L352.93 132.179Z" fill="url(#paint58_radial)"/>
<path d="M361.013 98.8638C362.927 99.8731 368.732 101.556 369.757 103.145C371.781 106.281 370.657 109.56 370.657 109.56C370.657 109.56 373.987 114.135 370.657 122.462C367.328 130.789 365.165 131.63 361.013 132.15C356.861 132.67 353.872 128.125 352.474 124.74C351.076 121.356 348.833 119.919 348.833 119.919L348.115 114.142C348.115 114.142 343.852 113.732 343.852 106.46C343.852 99.1885 348.833 92.4405 361.013 98.8638Z" fill="url(#paint59_linear)"/>
<path d="M361.013 98.8638C362.927 99.8731 368.732 101.556 369.757 103.145C371.781 106.281 370.657 109.56 370.657 109.56C370.657 109.56 373.987 114.135 370.657 122.462C367.328 130.789 365.165 131.63 361.013 132.15C356.861 132.67 353.872 128.125 352.474 124.74C351.076 121.356 348.833 119.919 348.833 119.919L348.115 114.142C348.115 114.142 343.852 113.732 343.852 106.46C343.852 99.1885 348.833 92.4405 361.013 98.8638Z" fill="url(#paint60_linear)"/>
<path d="M398.627 232.274C399.032 232.002 404.768 232.3 404.089 235.374C403.41 238.448 403.182 239.662 403.088 240.914C403.025 241.749 402.606 242.407 401.829 242.886L398.057 240.914L397.311 238.04C397.918 234.378 398.357 232.456 398.627 232.274Z" fill="url(#paint61_linear)"/>
<path d="M396.438 236.726C397.555 236.551 397.898 239.593 399.657 240.164C401.415 240.735 403.291 238.684 403.661 239.073C404.745 240.209 406.539 241.173 408.366 242.69C412.861 246.421 413.265 246.878 411.522 249.685C411.302 250.363 405.329 248.797 393.602 244.987C393.589 243.415 393.763 242.007 394.126 240.765C394.671 238.901 395.32 236.9 396.438 236.726Z" fill="url(#paint62_linear)"/>
<path d="M373.667 230.547C373.845 230.82 373.719 232.497 373.289 235.578L371.479 237.932L367.236 238.273C367.824 237.919 368.252 237.346 368.52 236.553C368.923 235.363 369.07 234.637 369.646 231.542C370.222 228.448 373.401 230.138 373.667 230.547Z" fill="url(#paint63_linear)"/>
<path d="M373.029 234.999C374.291 235.114 374.795 235.726 375.316 237.547C375.663 238.761 375.788 240.148 375.689 241.709C370.289 243.165 367.064 243.691 366.015 243.287C361.789 241.661 365.498 236.116 366.126 235.541C366.568 235.136 367.645 234.365 369.675 233.705C371.706 233.045 371.768 234.885 373.029 234.999Z" fill="url(#paint64_linear)"/>
<path d="M391.603 191.461C391.603 191.461 410.757 182.858 419.082 191.461C427.407 200.064 407.965 230.859 406.642 234.749C405.32 238.638 401.642 236.142 400.25 235.77C398.857 235.399 397.724 233.449 397.724 233.449L403.746 208.917L388.608 206.865L384.271 197.399L391.603 191.461Z" fill="url(#paint65_linear)"/>
<path d="M361.751 191.461C361.751 191.461 383.299 181.386 387.175 186.423C391.051 191.461 394.372 208.02 374.975 232.515C374.975 232.515 372.878 234 371.249 233.766C369.621 233.533 368.535 230.796 368.535 230.796L373.894 208.917L358.757 206.865L354.42 197.399L361.751 191.461Z" fill="url(#paint66_linear)"/>
<path d="M350.48 139.684C350.48 139.684 359.699 143.9 361.698 141.792C363.697 139.684 363.46 138.675 363.46 138.675C363.46 138.675 381.272 140.179 385.162 148.356C389.052 156.534 399.336 183.802 403.819 178.346C408.302 172.89 410.072 169.321 410.072 169.321C410.072 169.321 407.124 166.587 407.124 165.992C407.124 165.398 409.088 165.366 410.072 165.679C411.056 165.992 410.872 158.83 411.492 158.359C412.113 157.888 413.067 163.405 413.067 163.405C413.067 163.405 414.481 157.469 414.985 157.708C415.488 157.946 414.985 164.312 414.985 164.312C414.985 164.312 417.479 161.361 417.86 161.819C418.242 162.276 416.385 165.992 416.385 165.992C416.385 165.992 418.679 165.152 418.679 165.679C418.679 166.207 416.385 167.806 416.385 167.806L414.985 170.41C414.985 170.41 409.881 190.234 400.156 191.455C390.431 192.676 392.408 191.455 392.408 191.455C392.408 191.455 394.784 194.717 394.135 196.909C393.485 199.101 389.124 210.032 384.58 211.874C380.035 213.717 358.647 202.523 358.647 202.523L334.552 180.293L332.177 155.926C332.177 155.926 298.421 136.789 295.537 105.731L294.571 102.639C294.571 102.639 291.212 98.9927 291.012 98.4914C290.812 97.9901 293.164 99.1118 293.164 99.1118C293.164 99.1118 291.973 95.7336 292.283 95.3766C292.593 95.0196 294.571 97.4924 294.571 97.4924C294.571 97.4924 294.717 93.1837 295.2 93.0059C295.682 92.8281 296.649 96.7269 296.649 96.7269C296.649 96.7269 297.1 93.2893 297.57 93.6812C298.039 94.073 298.421 99.1118 298.421 99.1118C298.421 99.1118 300.28 97.4924 300.493 98.0698C300.706 98.6472 299.396 102.095 299.396 102.095C299.396 102.095 313.318 125.252 322.864 129.29C332.411 133.328 351.207 137.608 351.207 137.608L350.48 139.684Z" fill="url(#paint67_radial)"/>
<path d="M356.664 144.348C362.379 145.964 367.836 139.134 367.836 139.134C367.836 139.134 381.272 140.179 385.162 148.357C387.442 153.148 391.916 164.494 396.133 171.971C399.112 177.254 385.162 183.838 385.162 183.838C385.162 183.838 389.311 190.118 393.528 191.989C394.482 192.885 394.482 195.739 394.135 196.909C393.485 199.102 389.125 210.032 384.58 211.875C380.036 213.717 358.647 202.523 358.647 202.523L334.552 180.293L331.538 156.193C331.538 156.193 319.997 151.832 319.345 149.172C316.084 135.865 322.993 128.445 328.583 130.81C338.129 134.848 351.434 136.789 351.434 136.789C351.434 136.789 350.949 142.732 356.664 144.348Z" fill="#D6E3FA"/>
<path d="M378.939 217.976H382.919V234.228H378.939V217.976Z" fill="#D2D9FF"/>
<path d="M359.372 258.107C361.02 258.107 362.357 256.77 362.357 255.122C362.357 253.473 361.02 252.137 359.372 252.137C357.723 252.137 356.387 253.473 356.387 255.122C356.387 256.77 357.723 258.107 359.372 258.107Z" fill="url(#paint68_linear)"/>
<path d="M401.161 258.107C402.809 258.107 404.146 256.77 404.146 255.122C404.146 253.473 402.809 252.137 401.161 252.137C399.512 252.137 398.176 253.473 398.176 255.122C398.176 256.77 399.512 258.107 401.161 258.107Z" fill="url(#paint69_linear)"/>
<path d="M380.928 261.423C382.577 261.423 383.913 260.087 383.913 258.439C383.913 256.79 382.577 255.454 380.928 255.454C379.28 255.454 377.943 256.79 377.943 258.439C377.943 260.087 379.28 261.423 380.928 261.423Z" fill="url(#paint70_linear)"/>
<path d="M376.91 237.847L376.68 235.376C376.675 235.326 376.673 235.276 376.674 235.225C376.689 234.493 377.296 233.911 378.028 233.927L383.729 234.044C383.754 234.045 383.779 234.046 383.803 234.048C384.534 234.104 385.081 234.742 385.024 235.473L384.861 237.595L403.012 250.054C403.061 250.088 403.109 250.124 403.155 250.162C404.019 250.875 404.141 252.153 403.429 253.017C402.611 254.008 401.203 254.276 400.078 253.656L384.295 244.953L383.43 256.182C383.334 257.437 382.304 258.416 381.045 258.448C379.799 258.48 378.741 257.541 378.625 256.299L377.541 244.643L361.195 253.656C360.07 254.276 358.662 254.008 357.845 253.017C357.132 252.153 357.254 250.875 358.118 250.162C358.164 250.124 358.212 250.088 358.261 250.054L376.772 237.348L376.91 237.847Z" fill="url(#paint71_linear)"/>
<path d="M334.239 157.544C332.232 156.423 329.163 157.473 328.193 158.88C328.505 160.87 328.703 161.729 328.711 161.775C331.864 178.775 344.081 195.144 353.589 205.388C361.72 214.148 367.373 219.364 367.373 219.364C367.373 219.364 372.86 220.218 377.473 218.193C379.478 217.313 382.622 217.572 382.533 214.815C382.348 209.131 377.299 206.261 375.306 198.029C373.437 190.306 375.54 174.573 369.89 171.335C364.24 168.097 357.164 173.718 346.381 169.035C338.753 165.723 336.247 158.666 334.239 157.544Z" fill="url(#paint72_linear)"/>
<path d="M390.605 204.995C396.015 203.509 403.332 201.873 407.037 204.995C410.743 208.116 409.039 213.133 406.56 215.955C404.081 218.777 384.562 221.379 384.562 221.379L383.406 211.862C383.406 211.862 388.117 209.851 390.605 204.995Z" fill="#334F86"/>
<path d="M328.152 158.694C328.152 158.694 331.835 187.975 334.546 197.226C337.288 206.58 340.781 210.518 344.551 214.269C348.321 218.02 362.421 224.556 373.685 225.134C383.655 225.646 397.578 222.733 402.728 219.529C407.878 216.326 410.542 209.459 404.719 207.752C398.896 206.044 380.126 213.076 378.358 212.308C368.519 208.04 371.519 178.427 366.776 175.287C362.268 172.302 352.654 176.135 341.075 171.025C335.985 168.778 328.152 158.694 328.152 158.694Z" fill="url(#paint73_linear)"/>
<path d="M636.697 133.775C631.212 132.778 629.601 145.33 627.5 147.134C625.404 148.921 621.097 148.411 620.292 153.387C619.488 158.362 623.503 159.339 622.83 163.472C622.158 167.604 613.38 164.522 612.333 171.049C611.287 177.577 617.62 181.463 616.983 185.393C616.345 189.323 612.509 189.837 611.107 198.537C609.704 207.237 616.155 210.952 626.318 214.662C636.481 218.371 643.731 217.379 645.322 208.021C646.914 198.662 635.825 195.765 635.892 190.399C635.954 185.05 643.703 184.351 644.717 178.344C645.731 172.338 635.161 169.596 635.959 164.795C636.757 159.994 645.697 159.813 646.535 154.828C647.374 149.842 645.495 148.526 642.038 145.736C638.571 142.977 642.182 134.773 636.697 133.775Z" fill="url(#paint74_linear)"/>
<path d="M626.59 210.052C626.79 210.182 627.023 210.094 627.111 209.857C627.198 209.619 627.107 209.322 626.907 209.193C622.103 206.112 620.16 202.105 620.989 197.038C621.031 196.783 620.89 196.519 620.675 196.448C620.46 196.378 620.252 196.527 620.21 196.782C619.307 202.304 621.467 206.757 626.59 210.052Z" fill="#98BBE9"/>
<path d="M629.334 189.056C629.557 189.101 629.743 188.923 629.75 188.658C629.757 188.393 629.582 188.142 629.359 188.098C625.748 187.37 623.333 184.435 622.054 179.212C621.99 178.953 621.764 178.775 621.55 178.816C621.335 178.856 621.214 179.099 621.278 179.358C622.652 184.961 625.35 188.245 629.334 189.056Z" fill="#98BBE9"/>
<path d="M629.865 160.143C630.019 160.164 630.148 160.039 630.152 159.863C630.157 159.687 630.035 159.527 629.881 159.506C628.016 159.25 626.771 157.864 626.109 155.284C626.065 155.112 625.909 155.001 625.76 155.036C625.612 155.071 625.527 155.238 625.572 155.409C626.3 158.242 627.741 159.848 629.865 160.143Z" fill="#98BBE9"/>
<path d="M630.977 156.989C630.827 156.938 630.747 156.763 630.799 156.598C630.851 156.434 631.014 156.341 631.164 156.392C632.971 157.006 634.565 156.276 636.004 154.139C636.1 153.996 636.281 153.961 636.407 154.06C636.534 154.159 636.558 154.356 636.462 154.499C634.881 156.847 633.035 157.691 630.977 156.989Z" fill="#98BBE9"/>
<path d="M629.568 182.613C629.353 182.528 629.241 182.262 629.318 182.02C629.396 181.777 629.633 181.649 629.848 181.733C633.039 182.987 635.888 181.751 638.485 177.919C638.627 177.709 638.888 177.664 639.069 177.819C639.25 177.974 639.282 178.27 639.14 178.48C636.334 182.624 633.119 184.016 629.568 182.613Z" fill="#98BBE9"/>
<path d="M629.676 205.679C629.464 205.584 629.354 205.31 629.432 205.067C629.509 204.824 629.744 204.704 629.957 204.798C633.104 206.206 635.923 205.071 638.505 201.291C638.646 201.084 638.905 201.05 639.083 201.215C639.261 201.379 639.291 201.681 639.15 201.888C636.36 205.976 633.178 207.253 629.676 205.679Z" fill="#98BBE9"/>
<path d="M623.39 227.306C623.333 227.649 623.519 228.02 623.804 228.133C624.09 228.247 624.755 228.214 624.812 227.87C624.746 225.614 625.019 222.632 625.63 218.921C626.547 213.356 630.877 205.042 631.351 198.679C631.821 192.33 628.272 179.043 628.382 169.45C628.459 161.685 631.707 155.477 633.176 151.176C634.649 146.862 635.165 141.435 635.067 141.415C634.949 141.392 634.396 146.952 632.876 151.11C631.362 155.254 628.609 160.514 627.833 166.957C626.385 178.972 631.133 191.294 629.826 199.168C628.518 207.043 625.48 211.177 624.001 217.981C623.018 222.511 622.814 225.617 623.39 227.306Z" fill="#8FAFDA"/>
<path d="M597.937 138.861C603.243 137.239 606.647 149.872 609.017 151.535C611.387 153.197 615.659 152.359 617.21 157.43C618.76 162.501 614.811 163.708 616.088 167.883C617.364 172.058 625.923 168.6 627.979 175.324C630.035 182.048 624.015 186.049 625.234 190.039C626.454 194.028 630.547 194.611 633.269 203.514C635.99 212.416 629.631 215.798 619.311 218.953C608.991 222.108 601.224 220.919 598.502 212.017C595.781 203.114 606.966 200.292 606.231 195.061C605.496 189.831 597.42 189.329 595.653 183.551C593.887 177.773 604.325 174.582 602.882 169.861C601.439 165.14 592.372 165.57 590.9 160.755C589.427 155.939 591.141 154.473 594.238 151.392C597.335 148.311 592.632 140.483 597.937 138.861Z" fill="url(#paint75_linear)"/>
<path d="M618.442 214.427C618.247 214.546 617.99 214.452 617.867 214.216C617.745 213.98 617.803 213.692 617.998 213.573C622.679 210.71 624.2 206.793 622.647 201.712C622.569 201.456 622.681 201.195 622.897 201.128C623.114 201.062 623.353 201.216 623.431 201.472C625.127 207.019 623.436 211.373 618.442 214.427Z" fill="#5ACE87"/>
<path d="M612.747 193.819C612.521 193.871 612.31 193.701 612.275 193.439C612.241 193.178 612.396 192.923 612.622 192.871C616.285 192.028 618.47 189.011 619.216 183.703C619.253 183.438 619.466 183.249 619.692 183.281C619.918 183.313 620.07 183.553 620.033 183.818C619.232 189.516 616.791 192.888 612.747 193.819Z" fill="#5ACE87"/>
<path d="M608.388 164.933C608.234 164.967 608.09 164.852 608.066 164.676C608.042 164.499 608.148 164.327 608.302 164.292C610.163 163.871 611.269 162.36 611.645 159.679C611.67 159.5 611.816 159.373 611.97 159.394C612.124 159.416 612.228 159.579 612.203 159.758C611.789 162.702 610.509 164.453 608.388 164.933Z" fill="#5ACE87"/>
<path d="M606.977 161.779C607.124 161.722 607.18 161.546 607.101 161.386C607.022 161.226 606.838 161.143 606.691 161.2C604.912 161.892 603.15 161.257 601.339 159.245C601.218 159.111 601.027 159.087 600.911 159.191C600.795 159.295 600.8 159.488 600.92 159.622C602.91 161.832 604.951 162.567 606.977 161.779Z" fill="#5ACE87"/>
<path d="M611.938 187.345C612.154 187.262 612.233 187.004 612.115 186.769C611.997 186.533 611.727 186.408 611.511 186.49C608.319 187.711 605.131 186.535 601.849 182.891C601.67 182.692 601.389 182.654 601.22 182.805C601.052 182.956 601.061 183.24 601.24 183.439C604.786 187.377 608.384 188.703 611.938 187.345Z" fill="#5ACE87"/>
<path d="M614.792 210.071C615.007 209.988 615.086 209.73 614.968 209.494C614.85 209.258 614.58 209.134 614.365 209.216C611.173 210.437 607.984 209.261 604.702 205.616C604.524 205.418 604.242 205.379 604.074 205.531C603.906 205.682 603.914 205.966 604.093 206.165C607.639 210.103 611.238 211.429 614.792 210.071Z" fill="#5ACE87"/>
<path d="M624.015 231.48C624.118 231.819 623.965 232.166 623.673 232.256C623.381 232.345 622.663 232.264 622.559 231.925C622.559 231.925 622.247 228.639 620.576 223.151C618.904 217.664 613.294 209.393 611.999 203.164C610.705 196.934 612.649 183.745 611.242 174.152C610.096 166.347 605.943 160.293 603.869 156.072C601.794 151.852 600.529 146.433 600.624 146.404C600.738 146.369 602.061 151.921 604.162 155.983C606.262 160.045 609.782 165.175 611.462 171.626C614.589 183.636 611.289 195.914 613.658 203.663C616.027 211.413 619.76 215.575 622.193 222.322C624.625 229.069 624.015 231.48 624.015 231.48Z" fill="#42B16D"/>
<path d="M659.762 157.037C654.863 154.433 649.997 164.516 647.509 165.406C645.02 166.295 641.017 164.599 638.887 168.605C636.757 172.611 640.402 174.55 638.649 177.848C636.895 181.146 629.099 176.221 626.274 181.533C623.45 186.844 628.736 191.657 627.06 194.808C625.384 197.96 621.374 197.528 617.635 204.56C613.896 211.593 619.587 215.951 629.115 221.017C638.644 226.083 646.263 226.833 650.003 219.8C653.742 212.768 643.339 207.79 644.705 203.461C646.071 199.132 653.902 200.542 656.329 195.978C658.756 191.414 649.118 186.29 651.101 182.56C653.084 178.831 661.75 181.268 663.773 177.464C665.796 173.66 664.332 172.009 661.741 168.654C659.15 165.299 664.66 159.642 659.762 157.037Z" fill="url(#paint76_linear)"/>
<path d="M630.519 217.324C630.691 217.471 630.951 217.448 631.098 217.273C631.246 217.099 631.226 216.838 631.053 216.691C626.912 213.162 625.942 209.447 628.076 205.434C628.184 205.231 628.109 204.981 627.909 204.875C627.709 204.769 627.46 204.846 627.352 205.049C625.022 209.43 626.1 213.56 630.519 217.324Z" fill="#D2DEF8"/>
<path d="M638.364 200.601C638.576 200.683 638.815 200.577 638.897 200.363C638.979 200.149 638.873 199.909 638.66 199.827C635.215 198.494 633.622 195.59 633.861 191.011C633.873 190.782 633.699 190.587 633.471 190.576C633.244 190.564 633.049 190.739 633.037 190.968C632.78 195.884 634.561 199.13 638.364 200.601Z" fill="#D2DEF8"/>
<path d="M646.303 176.909C646.448 176.965 646.611 176.893 646.667 176.749C646.723 176.605 646.65 176.443 646.505 176.387C644.754 175.716 643.944 174.259 644.066 171.947C644.074 171.792 643.954 171.66 643.799 171.652C643.644 171.644 643.511 171.763 643.503 171.917C643.37 174.457 644.307 176.145 646.303 176.909Z" fill="#D2DEF8"/>
<path d="M648.378 174.691C648.251 174.601 648.219 174.426 648.308 174.299C648.396 174.172 648.571 174.142 648.698 174.231C650.234 175.308 651.894 175.164 653.744 173.77C653.867 173.677 654.043 173.703 654.137 173.827C654.23 173.951 654.206 174.127 654.083 174.22C652.051 175.751 650.128 175.918 648.378 174.691Z" fill="#D2DEF8"/>
<path d="M640.539 195.546C640.353 195.417 640.309 195.161 640.44 194.974C640.572 194.787 640.829 194.74 641.015 194.869C643.774 196.783 646.782 196.499 650.133 193.974C650.316 193.836 650.574 193.871 650.71 194.052C650.847 194.232 650.809 194.49 650.626 194.628C647.005 197.357 643.611 197.677 640.539 195.546Z" fill="#D2DEF8"/>
<path d="M634.934 214.433C634.748 214.304 634.703 214.048 634.835 213.861C634.966 213.674 635.224 213.627 635.41 213.756C638.169 215.67 641.176 215.386 644.527 212.86C644.71 212.723 644.969 212.757 645.105 212.938C645.241 213.119 645.203 213.377 645.021 213.515C641.4 216.243 638.006 216.564 634.934 214.433Z" fill="#D2DEF8"/>
<path d="M623.014 230.714C622.871 230.981 622.975 231.315 623.245 231.458C623.515 231.602 624.215 231.696 624.358 231.428C624.358 231.428 625.071 228.674 627.37 224.338C629.669 220.002 636.107 214.171 638.137 209.111C640.167 204.051 639.959 192.268 642.521 184.342C644.606 177.893 649.363 173.636 651.89 170.481C654.417 167.326 656.317 162.956 656.229 162.909C656.123 162.853 654.152 167.324 651.619 170.337C649.087 173.35 645.056 176.957 642.627 182.121C638.107 191.732 639.734 203.04 636.479 209.162C633.224 215.284 629.109 218.01 625.92 223.256C622.73 228.501 623.014 230.714 623.014 230.714Z" fill="#D2DEF8"/>
<path d="M606.74 225.36H639.873L632.51 246.134H614.103L606.74 225.36Z" fill="url(#paint77_linear)"/>
<rect x="606.076" y="224.711" width="33.7951" height="6.49199" rx="3.24599" fill="url(#paint78_linear)"/>
</g>
<defs>
<filter id="filter0_i" x="48.0527" y="203.002" width="63.3517" height="48.122" filterUnits="userSpaceOnUse" color-interpolation-filters="sRGB">
<feFlood flood-opacity="0" result="BackgroundImageFix"/>
<feBlend mode="normal" in="SourceGraphic" in2="BackgroundImageFix" result="shape"/>
<feColorMatrix in="SourceAlpha" type="matrix" values="0 0 0 0 0 0 0 0 0 0 0 0 0 0 0 0 0 0 127 0" result="hardAlpha"/>
<feOffset dx="16" dy="4"/>
<feGaussianBlur stdDeviation="14"/>
<feComposite in2="hardAlpha" operator="arithmetic" k2="-1" k3="1"/>
<feColorMatrix type="matrix" values="0 0 0 0 0.103708 0 0 0 0 0.317385 0 0 0 0 0.809604 0 0 0 1 0"/>
<feBlend mode="normal" in2="shape" result="effect1_innerShadow"/>
</filter>
<filter id="filter1_i" x="29.0234" y="213.395" width="80.8693" height="47.3497" filterUnits="userSpaceOnUse" color-interpolation-filters="sRGB">
<feFlood flood-opacity="0" result="BackgroundImageFix"/>
<feBlend mode="normal" in="SourceGraphic" in2="BackgroundImageFix" result="shape"/>
<feColorMatrix in="SourceAlpha" type="matrix" values="0 0 0 0 0 0 0 0 0 0 0 0 0 0 0 0 0 0 127 0" result="hardAlpha"/>
<feOffset dx="16" dy="4"/>
<feGaussianBlur stdDeviation="14"/>
<feComposite in2="hardAlpha" operator="arithmetic" k2="-1" k3="1"/>
<feColorMatrix type="matrix" values="0 0 0 0 0.103708 0 0 0 0 0.317385 0 0 0 0 0.809604 0 0 0 1 0"/>
<feBlend mode="normal" in2="shape" result="effect1_innerShadow"/>
</filter>
<linearGradient id="paint0_linear" x1="103.451" y1="213.162" x2="103.451" y2="163.03" gradientUnits="userSpaceOnUse">
<stop stop-color="#FDE76B"/>
<stop offset="1" stop-color="#FAB539"/>
</linearGradient>
<linearGradient id="paint1_linear" x1="90.1783" y1="155.332" x2="88.2117" y2="166.096" gradientUnits="userSpaceOnUse">
<stop stop-color="#E5EDFF"/>
<stop offset="1" stop-color="#6B9AD9"/>
</linearGradient>
<linearGradient id="paint2_linear" x1="66.0835" y1="165.923" x2="96.8771" y2="169.704" gradientUnits="userSpaceOnUse">
<stop stop-color="#95B7E5"/>
<stop offset="1" stop-color="#476DB1"/>
</linearGradient>
<linearGradient id="paint3_linear" x1="75.3037" y1="170.843" x2="85.9047" y2="172.145" gradientUnits="userSpaceOnUse">
<stop stop-color="#95B7E5"/>
<stop offset="1" stop-color="#476DB1"/>
</linearGradient>
<linearGradient id="paint4_linear" x1="93.5301" y1="244.114" x2="91.3084" y2="250.85" gradientUnits="userSpaceOnUse">
<stop stop-color="#CFDDF3"/>
<stop offset="1" stop-color="#A1B8E3"/>
</linearGradient>
<linearGradient id="paint5_linear" x1="77.9487" y1="235.709" x2="94.8642" y2="222.561" gradientUnits="userSpaceOnUse">
<stop stop-color="#002383"/>
<stop offset="1" stop-color="#316EEA"/>
</linearGradient>
<linearGradient id="paint6_linear" x1="30.1195" y1="247.445" x2="28.2518" y2="253.049" gradientUnits="userSpaceOnUse">
<stop stop-color="#CFDDF3"/>
<stop offset="1" stop-color="#A1B8E3"/>
</linearGradient>
<linearGradient id="paint7_linear" x1="108.999" y1="246.903" x2="85.3516" y2="246.903" gradientUnits="userSpaceOnUse">
<stop stop-color="#2865C6"/>
<stop offset="1" stop-color="#10378A"/>
</linearGradient>
<linearGradient id="paint8_linear" x1="58.1629" y1="238.988" x2="87.788" y2="222.411" gradientUnits="userSpaceOnUse">
<stop stop-color="#002383"/>
<stop offset="1" stop-color="#316EEA"/>
</linearGradient>
<linearGradient id="paint9_linear" x1="32.3739" y1="240.328" x2="14" y2="240.328" gradientUnits="userSpaceOnUse">
<stop stop-color="#2865C6"/>
<stop offset="1" stop-color="#10378A"/>
</linearGradient>
<linearGradient id="paint10_linear" x1="31.5824" y1="151.494" x2="17.9253" y2="218.714" gradientUnits="userSpaceOnUse">
<stop stop-color="white"/>
<stop offset="1" stop-color="#E5EEFF"/>
</linearGradient>
<linearGradient id="paint11_linear" x1="52.6841" y1="189.684" x2="37.1056" y2="196.874" gradientUnits="userSpaceOnUse">
<stop stop-color="#BECFEF"/>
<stop offset="1" stop-color="#ABC0FF" stop-opacity="0"/>
</linearGradient>
<radialGradient id="paint12_radial" cx="0" cy="0" r="1" gradientUnits="userSpaceOnUse" gradientTransform="translate(61.5493 154.158) rotate(-141.397) scale(16.9009 18.1359)">
<stop stop-color="#032258"/>
<stop offset="1" stop-color="#133E94"/>
</radialGradient>
<linearGradient id="paint13_linear" x1="58.7507" y1="141.554" x2="47.9362" y2="143.781" gradientUnits="userSpaceOnUse">
<stop stop-color="#CFDDF3"/>
<stop offset="1" stop-color="#A1B8E3"/>
</linearGradient>
<radialGradient id="paint14_radial" cx="0" cy="0" r="1" gradientUnits="userSpaceOnUse" gradientTransform="translate(79.5609 135.759) rotate(-139.733) scale(38.1402 41.3975)">
<stop stop-color="#032258"/>
<stop offset="1" stop-color="#133E94"/>
</radialGradient>
<linearGradient id="paint15_linear" x1="78.7056" y1="181.296" x2="87.6043" y2="172.067" gradientUnits="userSpaceOnUse">
<stop stop-color="#CFDDF3"/>
<stop offset="1" stop-color="#A1B8E3"/>
</linearGradient>
<linearGradient id="paint16_linear" x1="38.1689" y1="153.784" x2="33.4551" y2="200.786" gradientUnits="userSpaceOnUse">
<stop stop-color="white"/>
<stop offset="1" stop-color="#E5EEFF"/>
</linearGradient>
<linearGradient id="paint17_linear" x1="509.536" y1="67.3909" x2="522.536" y2="73.675" gradientUnits="userSpaceOnUse">
<stop stop-color="#CFDDF3"/>
<stop offset="1" stop-color="#A1B8E3"/>
</linearGradient>
<radialGradient id="paint18_radial" cx="0" cy="0" r="1" gradientUnits="userSpaceOnUse" gradientTransform="translate(524.802 45.0358) rotate(-0.511555) scale(35.1517 30.6299)">
<stop stop-color="#2D6DC0"/>
<stop offset="1" stop-color="#143B8C"/>
</radialGradient>
<linearGradient id="paint19_linear" x1="516.691" y1="78.4299" x2="524.804" y2="82.2039" gradientUnits="userSpaceOnUse">
<stop stop-color="#CFDDF3"/>
<stop offset="1" stop-color="#A1B8E3"/>
</linearGradient>
<radialGradient id="paint20_radial" cx="0" cy="0" r="1" gradientUnits="userSpaceOnUse" gradientTransform="translate(535.093 43.3702) rotate(99.4997) scale(5.3715 9.02159)">
<stop stop-color="#70B8F9"/>
<stop offset="1" stop-color="#3D82F0"/>
</radialGradient>
<radialGradient id="paint21_radial" cx="0" cy="0" r="1" gradientUnits="userSpaceOnUse" gradientTransform="translate(532.178 38.2884) rotate(155.826) scale(30.2727 35.7564)">
<stop stop-color="#2D6DC0"/>
<stop offset="1" stop-color="#143B8C"/>
</radialGradient>
<linearGradient id="paint22_linear" x1="500.323" y1="237.264" x2="497.741" y2="243.202" gradientUnits="userSpaceOnUse">
<stop stop-color="#CFDDF3"/>
<stop offset="1" stop-color="#A1B8E3"/>
</linearGradient>
<linearGradient id="paint23_linear" x1="530.611" y1="238.52" x2="528.85" y2="243.28" gradientUnits="userSpaceOnUse">
<stop stop-color="#CFDDF3"/>
<stop offset="1" stop-color="#A1B8E3"/>
</linearGradient>
<linearGradient id="paint24_linear" x1="537.396" y1="241.048" x2="515.918" y2="241.048" gradientUnits="userSpaceOnUse">
<stop stop-color="#2865C6"/>
<stop offset="1" stop-color="#10378A"/>
</linearGradient>
<linearGradient id="paint25_linear" x1="506.4" y1="241.048" x2="484.922" y2="241.048" gradientUnits="userSpaceOnUse">
<stop stop-color="#2865C6"/>
<stop offset="1" stop-color="#10378A"/>
</linearGradient>
<linearGradient id="paint26_linear" x1="476.286" y1="166.339" x2="514.69" y2="204.759" gradientUnits="userSpaceOnUse">
<stop stop-color="#5973A7"/>
<stop offset="1" stop-color="#B2C7EE" stop-opacity="0.01"/>
</linearGradient>
<linearGradient id="paint27_linear" x1="525.099" y1="140.179" x2="497.275" y2="155.703" gradientUnits="userSpaceOnUse">
<stop stop-color="white" stop-opacity="0.5"/>
<stop offset="1" stop-color="white" stop-opacity="0.01"/>
</linearGradient>
<linearGradient id="paint28_linear" x1="508.895" y1="220.734" x2="508.895" y2="242.527" gradientUnits="userSpaceOnUse">
<stop stop-color="#B0C8F2" stop-opacity="0.01"/>
<stop offset="1" stop-color="#96B0DA"/>
</linearGradient>
<linearGradient id="paint29_linear" x1="502.678" y1="170.166" x2="505.587" y2="191.948" gradientUnits="userSpaceOnUse">
<stop stop-color="#1542AB"/>
<stop offset="1" stop-color="#2B68EE"/>
</linearGradient>
<linearGradient id="paint30_linear" x1="490.368" y1="136.723" x2="508.631" y2="90.6743" gradientUnits="userSpaceOnUse">
<stop stop-color="#F4F8FF"/>
<stop offset="1" stop-color="#C3D8F5"/>
</linearGradient>
<linearGradient id="paint31_linear" x1="524.804" y1="137.776" x2="536.325" y2="137.061" gradientUnits="userSpaceOnUse">
<stop stop-color="white" stop-opacity="0.5"/>
<stop offset="1" stop-color="#AFC3E5"/>
</linearGradient>
<linearGradient id="paint32_linear" x1="533.12" y1="103.253" x2="549.715" y2="95.68" gradientUnits="userSpaceOnUse">
<stop stop-color="white" stop-opacity="0.01"/>
<stop offset="1" stop-color="#A1B8E3"/>
</linearGradient>
<radialGradient id="paint33_radial" cx="0" cy="0" r="1" gradientUnits="userSpaceOnUse" gradientTransform="translate(533.405 73.7251) rotate(91.5099) scale(58.0304 26.9084)">
<stop stop-color="#70B8F9"/>
<stop offset="1" stop-color="#3D82F0"/>
</radialGradient>
<linearGradient id="paint34_linear" x1="522.606" y1="114.552" x2="554.473" y2="161.604" gradientUnits="userSpaceOnUse">
<stop stop-color="#70B8F9"/>
<stop offset="1" stop-color="#3D82F0"/>
</linearGradient>
<linearGradient id="paint35_linear" x1="536.728" y1="155.351" x2="527.304" y2="161.859" gradientUnits="userSpaceOnUse">
<stop stop-color="#CFDDF3"/>
<stop offset="1" stop-color="#A1B8E3"/>
</linearGradient>
<radialGradient id="paint36_radial" cx="0" cy="0" r="1" gradientUnits="userSpaceOnUse" gradientTransform="translate(537.104 85.0572) rotate(92.4514) scale(32.4898 24.4404)">
<stop stop-color="#70B8F9"/>
<stop offset="1" stop-color="#3D82F0"/>
</radialGradient>
<linearGradient id="paint37_linear" x1="444.219" y1="75.2023" x2="453.34" y2="77.7733" gradientUnits="userSpaceOnUse">
<stop stop-color="#CFDDF3"/>
<stop offset="1" stop-color="#A1B8E3"/>
</linearGradient>
<radialGradient id="paint38_radial" cx="0" cy="0" r="1" gradientUnits="userSpaceOnUse" gradientTransform="translate(466.435 65.6096) rotate(92.9643) scale(56.8462 51.6794)">
<stop stop-color="#70B8F9"/>
<stop offset="1" stop-color="#3D82F0"/>
</radialGradient>
<radialGradient id="paint39_radial" cx="0" cy="0" r="1" gradientUnits="userSpaceOnUse" gradientTransform="translate(478.901 98.5159) rotate(102.072) scale(6.43256 23.1579)">
<stop stop-color="#70B8F9"/>
<stop offset="1" stop-color="#3D82F0"/>
</radialGradient>
<linearGradient id="paint40_linear" x1="258.5" y1="-98" x2="-79.8321" y2="522.851" gradientUnits="userSpaceOnUse">
<stop stop-color="#F7FAFF"/>
<stop offset="1" stop-color="#6B9AD9"/>
</linearGradient>
<linearGradient id="paint41_linear" x1="316.767" y1="92.9139" x2="316.767" y2="79.1377" gradientUnits="userSpaceOnUse">
<stop stop-color="#FDE76B"/>
<stop offset="1" stop-color="#FAB539"/>
</linearGradient>
<linearGradient id="paint42_linear" x1="334.767" y1="96.8277" x2="334.767" y2="69.2755" gradientUnits="userSpaceOnUse">
<stop stop-color="#FDE76B"/>
<stop offset="1" stop-color="#FAB539"/>
</linearGradient>
<linearGradient id="paint43_linear" x1="352.767" y1="100.386" x2="352.767" y2="60.3098" gradientUnits="userSpaceOnUse">
<stop stop-color="#FDE76B"/>
<stop offset="1" stop-color="#FAB539"/>
</linearGradient>
<linearGradient id="paint44_linear" x1="215.717" y1="40.6133" x2="207.614" y2="73.2956" gradientUnits="userSpaceOnUse">
<stop stop-color="#E5EDFF"/>
<stop offset="1" stop-color="#6B9AD9"/>
</linearGradient>
<linearGradient id="paint45_linear" x1="174.947" y1="70.2032" x2="172.403" y2="103.045" gradientUnits="userSpaceOnUse">
<stop stop-color="#E5EDFF"/>
<stop offset="1" stop-color="#6B9AD9"/>
</linearGradient>
<linearGradient id="paint46_linear" x1="215.717" y1="103.613" x2="207.614" y2="136.296" gradientUnits="userSpaceOnUse">
<stop stop-color="#E5EDFF"/>
<stop offset="1" stop-color="#6B9AD9"/>
</linearGradient>
<linearGradient id="paint47_linear" x1="175.743" y1="71.0704" x2="149.932" y2="173.602" gradientUnits="userSpaceOnUse">
<stop stop-color="#E5EDFF"/>
<stop offset="1" stop-color="#6B9AD9"/>
</linearGradient>
<linearGradient id="paint48_linear" x1="274.032" y1="-9.32203" x2="266.834" y2="47.352" gradientUnits="userSpaceOnUse">
<stop stop-color="#47689B"/>
<stop offset="1" stop-color="#223762"/>
</linearGradient>
<linearGradient id="paint49_linear" x1="334.299" y1="186.273" x2="343.764" y2="180.238" gradientUnits="userSpaceOnUse">
<stop stop-color="#CFDDF3"/>
<stop offset="1" stop-color="#A1B8E3"/>
</linearGradient>
<linearGradient id="paint50_linear" x1="361.244" y1="163.223" x2="361.176" y2="169.352" gradientUnits="userSpaceOnUse">
<stop stop-color="#476DB1"/>
<stop offset="1" stop-color="#283F6F"/>
</linearGradient>
<linearGradient id="paint51_linear" x1="290.718" y1="53.5724" x2="290.718" y2="307.492" gradientUnits="userSpaceOnUse">
<stop stop-color="#95B7E5"/>
<stop offset="1" stop-color="#476DB1"/>
</linearGradient>
<linearGradient id="paint52_linear" x1="426.697" y1="53.5724" x2="426.697" y2="307.492" gradientUnits="userSpaceOnUse">
<stop stop-color="#95B7E5"/>
<stop offset="1" stop-color="#476DB1"/>
</linearGradient>
<linearGradient id="paint53_linear" x1="432.279" y1="144.548" x2="436.649" y2="158.551" gradientUnits="userSpaceOnUse">
<stop stop-color="#84F0A8"/>
<stop offset="1" stop-color="#48B676"/>
</linearGradient>
<linearGradient id="paint54_linear" x1="439.898" y1="146.379" x2="437.185" y2="163.481" gradientUnits="userSpaceOnUse">
<stop stop-color="#E5EDFF"/>
<stop offset="1" stop-color="#6B9AD9"/>
</linearGradient>
<linearGradient id="paint55_linear" x1="425.736" y1="149.57" x2="425.788" y2="159.733" gradientUnits="userSpaceOnUse">
<stop stop-color="#E5EDFF"/>
<stop offset="1" stop-color="#6B9AD9"/>
</linearGradient>
<linearGradient id="paint56_linear" x1="370.723" y1="106.327" x2="363.86" y2="149.683" gradientUnits="userSpaceOnUse">
<stop stop-color="#476DB1"/>
<stop offset="1" stop-color="#283F6F"/>
</linearGradient>
<linearGradient id="paint57_linear" x1="335.434" y1="131.877" x2="338.08" y2="146.193" gradientUnits="userSpaceOnUse">
<stop stop-color="#EAEFFF"/>
<stop offset="1" stop-color="#F7F9FE"/>
</linearGradient>
<radialGradient id="paint58_radial" cx="0" cy="0" r="1" gradientUnits="userSpaceOnUse" gradientTransform="translate(357.715 126.107) scale(4.31156 3.93399)">
<stop stop-color="#70B8F9"/>
<stop offset="1" stop-color="#3D82F0"/>
</radialGradient>
<linearGradient id="paint59_linear" x1="372.308" y1="124.117" x2="350.711" y2="120.302" gradientUnits="userSpaceOnUse">
<stop stop-color="#2D6DC0"/>
<stop offset="1" stop-color="#143B8C"/>
</linearGradient>
<linearGradient id="paint60_linear" x1="352.988" y1="111.532" x2="362.97" y2="138.97" gradientUnits="userSpaceOnUse">
<stop stop-color="#174293" stop-opacity="0.01"/>
<stop offset="1" stop-color="#051E4B"/>
</linearGradient>
<linearGradient id="paint61_linear" x1="403.316" y1="241.524" x2="401.702" y2="234.974" gradientUnits="userSpaceOnUse">
<stop stop-color="#70B8F9"/>
<stop offset="1" stop-color="#3D82F0"/>
</linearGradient>
<linearGradient id="paint62_linear" x1="412.48" y1="236.718" x2="393.602" y2="236.718" gradientUnits="userSpaceOnUse">
<stop stop-color="#2865C6"/>
<stop offset="1" stop-color="#10378A"/>
</linearGradient>
<linearGradient id="paint63_linear" x1="373.342" y1="227.565" x2="369.198" y2="230.696" gradientUnits="userSpaceOnUse">
<stop stop-color="#70B8F9"/>
<stop offset="1" stop-color="#3D82F0"/>
</linearGradient>
<linearGradient id="paint64_linear" x1="375.722" y1="233.562" x2="364.021" y2="233.562" gradientUnits="userSpaceOnUse">
<stop stop-color="#2865C6"/>
<stop offset="1" stop-color="#10378A"/>
</linearGradient>
<linearGradient id="paint65_linear" x1="400.663" y1="193.765" x2="402.71" y2="236.901" gradientUnits="userSpaceOnUse">
<stop stop-color="#8CA5D5"/>
<stop offset="1" stop-color="#CFDDF3"/>
</linearGradient>
<linearGradient id="paint66_linear" x1="372.281" y1="185.013" x2="372.281" y2="233.791" gradientUnits="userSpaceOnUse">
<stop stop-color="#A1B8E3"/>
<stop offset="1" stop-color="#CFDDF3"/>
</linearGradient>
<radialGradient id="paint67_radial" cx="0" cy="0" r="1" gradientUnits="userSpaceOnUse" gradientTransform="translate(328.526 149.82) rotate(-7.92693) scale(26.4538 26.3769)">
<stop stop-color="#70B8F9"/>
<stop offset="1" stop-color="#3D82F0"/>
</radialGradient>
<linearGradient id="paint68_linear" x1="358.79" y1="252.11" x2="357.393" y2="257.248" gradientUnits="userSpaceOnUse">
<stop stop-color="#476DB1"/>
<stop offset="1" stop-color="#283F6F"/>
</linearGradient>
<linearGradient id="paint69_linear" x1="400.579" y1="252.11" x2="399.182" y2="257.248" gradientUnits="userSpaceOnUse">
<stop stop-color="#476DB1"/>
<stop offset="1" stop-color="#283F6F"/>
</linearGradient>
<linearGradient id="paint70_linear" x1="380.346" y1="255.427" x2="378.95" y2="260.565" gradientUnits="userSpaceOnUse">
<stop stop-color="#476DB1"/>
<stop offset="1" stop-color="#283F6F"/>
</linearGradient>
<linearGradient id="paint71_linear" x1="307.964" y1="199.024" x2="307.964" y2="275.655" gradientUnits="userSpaceOnUse">
<stop stop-color="#95B7E5"/>
<stop offset="1" stop-color="#476DB1"/>
</linearGradient>
<linearGradient id="paint72_linear" x1="350.068" y1="156.797" x2="333.597" y2="209.443" gradientUnits="userSpaceOnUse">
<stop stop-color="#476DB1"/>
<stop offset="1" stop-color="#283F6F"/>
</linearGradient>
<linearGradient id="paint73_linear" x1="243.3" y1="64.0476" x2="243.3" y2="271.852" gradientUnits="userSpaceOnUse">
<stop stop-color="#95B7E5"/>
<stop offset="1" stop-color="#476DB1"/>
</linearGradient>
<linearGradient id="paint74_linear" x1="708.744" y1="66.7974" x2="663.272" y2="225.378" gradientUnits="userSpaceOnUse">
<stop stop-color="white"/>
<stop offset="1" stop-color="#B3CDEF"/>
</linearGradient>
<linearGradient id="paint75_linear" x1="590.876" y1="176.33" x2="634.114" y2="226.615" gradientUnits="userSpaceOnUse">
<stop stop-color="#84F0A8"/>
<stop offset="1" stop-color="#48B676"/>
</linearGradient>
<linearGradient id="paint76_linear" x1="630.376" y1="203.1" x2="621.634" y2="202.072" gradientUnits="userSpaceOnUse">
<stop stop-color="#EAEFFF"/>
<stop offset="1" stop-color="#F7F9FE"/>
</linearGradient>
<linearGradient id="paint77_linear" x1="633.115" y1="213.107" x2="627.906" y2="246.615" gradientUnits="userSpaceOnUse">
<stop stop-color="#E5EDFF"/>
<stop offset="1" stop-color="#6B9AD9"/>
</linearGradient>
<linearGradient id="paint78_linear" x1="604.815" y1="219.352" x2="604.915" y2="239.245" gradientUnits="userSpaceOnUse">
<stop stop-color="#E5EDFF"/>
<stop offset="1" stop-color="#6B9AD9"/>
</linearGradient>
</defs>
</svg>
