<svg width="670" height="268" viewBox="0 0 670 268" fill="none" xmlns="http://www.w3.org/2000/svg">
<mask id="mask0" mask-type="alpha" maskUnits="userSpaceOnUse" x="0" y="0" width="670" height="268">
<rect width="670" height="268" fill="#C4C4C4"/>
</mask>
<g mask="url(#mask0)">
<path opacity="0.118359" fill-rule="evenodd" clip-rule="evenodd" d="M458.947 -29.9144C411.839 -82.1337 313.911 -101.484 213.285 -72.546C88.0412 -36.5281 6.04502 60.6562 30.1421 144.522C50.8343 216.537 143.028 255.315 247.97 242.03C295.234 281.198 376.212 294.382 458.799 270.631C573.191 237.735 647.353 146.439 624.446 66.7172C607.211 6.7324 539.932 -29.6091 458.947 -29.9144Z" fill="url(#paint0_linear)"/>
<path fill-rule="evenodd" clip-rule="evenodd" d="M505.001 6.82741H531.434C533.172 6.82741 534.581 8.23802 534.581 9.97802L525.14 44.6346C525.14 46.3746 523.732 47.7853 521.994 47.7853H495.56C493.822 47.7853 492.413 46.3746 492.413 44.6346L501.854 9.97802C501.854 8.23802 503.263 6.82741 505.001 6.82741Z" fill="url(#paint1_linear)"/>
<path fill-rule="evenodd" clip-rule="evenodd" d="M544.919 21.7205H579.645C581.929 21.7205 583.779 23.5728 583.779 25.8577L571.377 71.3663C571.377 73.6512 569.526 75.5034 567.243 75.5034H532.517C530.234 75.5034 528.383 73.6512 528.383 71.3663L540.785 25.8577C540.785 23.5728 542.636 21.7205 544.919 21.7205Z" fill="url(#paint2_linear)"/>
<path fill-rule="evenodd" clip-rule="evenodd" d="M511.429 57.7156H546.156C548.439 57.7156 550.29 59.5679 550.29 61.8528L537.887 107.361C537.887 109.646 536.037 111.499 533.753 111.499H499.027C496.744 111.499 494.893 109.646 494.893 107.361L507.295 61.8528C507.295 59.5679 509.146 57.7156 511.429 57.7156Z" fill="url(#paint3_linear)"/>
<g opacity="0.2">
<path fill-rule="evenodd" clip-rule="evenodd" d="M610.322 149.696H617.907V248.08H610.322V149.696Z" fill="#8CA4D4"/>
<path fill-rule="evenodd" clip-rule="evenodd" d="M585.036 248.048H643.19V255.639H585.036V248.048Z" fill="#8CA4D4"/>
<path fill-rule="evenodd" clip-rule="evenodd" d="M563.722 142.135H664.86V149.726H563.722V142.135Z" fill="#8CA4D4"/>
<mask id="mask1" mask-type="alpha" maskUnits="userSpaceOnUse" x="563" y="142" width="102" height="8">
<path fill-rule="evenodd" clip-rule="evenodd" d="M563.722 142.135H664.86V149.726H563.722V142.135Z" fill="white"/>
</mask>
<g mask="url(#mask1)">
</g>
</g>
<path fill-rule="evenodd" clip-rule="evenodd" d="M593.703 142.137L604.317 89.723L665.582 90.8074L655.107 142.137H593.703Z" fill="#123584"/>
<path fill-rule="evenodd" clip-rule="evenodd" d="M563.722 139.19H659.072V142.498H566.612L563.722 139.19Z" fill="#123584"/>
<path fill-rule="evenodd" clip-rule="evenodd" d="M597.315 142.498L607.929 89.723L669.195 90.8074L659.081 142.498H597.315Z" fill="url(#paint4_linear)"/>
<mask id="mask2" mask-type="alpha" maskUnits="userSpaceOnUse" x="597" y="89" width="73" height="54">
<path fill-rule="evenodd" clip-rule="evenodd" d="M597.315 142.498L607.929 89.723L669.195 90.8074L659.081 142.498H597.315Z" fill="white"/>
</mask>
<g mask="url(#mask2)">
<path fill-rule="evenodd" clip-rule="evenodd" d="M633.797 111.051C636.789 111.051 639.215 113.074 639.215 115.569C639.215 118.065 636.789 120.088 633.797 120.088C630.805 120.088 628.379 118.065 628.379 115.569C628.379 113.074 630.805 111.051 633.797 111.051Z" fill="#A1B8E3"/>
</g>
<path fill-rule="evenodd" clip-rule="evenodd" d="M433.751 91.391L437.97 77.4222L471.201 84.1523L441.689 68.2035L448.162 55.0165L489.982 89.7991L433.751 91.391Z" fill="url(#paint5_linear)"/>
<path fill-rule="evenodd" clip-rule="evenodd" d="M437.796 77.8142L443.769 74.5907L472.673 84.5773L437.796 77.8142Z" fill="#E1A846"/>
<path fill-rule="evenodd" clip-rule="evenodd" d="M443.48 74.698L441.977 68.0945L471.883 84.2212L443.48 74.698Z" fill="#E6B052"/>
<path fill-rule="evenodd" clip-rule="evenodd" d="M189.73 267.712C231.799 267.712 265.902 260.929 265.902 252.562C265.902 244.195 231.799 237.412 189.73 237.412C147.662 237.412 113.559 244.195 113.559 252.562C113.559 260.929 147.662 267.712 189.73 267.712Z" fill="url(#paint6_radial)"/>
<path fill-rule="evenodd" clip-rule="evenodd" d="M137.014 243.094C183.854 265.523 252.626 262.56 283.475 201.694C303.856 162.53 260.372 115.634 212.608 83.0255C169.739 53.759 131.609 47.1222 109.237 63.5985C106.682 65.48 102.141 65.1102 100.078 67.6702C43.2921 132.37 90.1744 220.665 137.014 243.094Z" fill="url(#paint7_radial)"/>
<path fill-rule="evenodd" clip-rule="evenodd" d="M165.678 187.172C215.788 218.523 267.54 221.949 284.941 194.067C301.086 163.944 261.917 109.464 211.807 78.1131C161.698 46.7624 118.038 41.793 100.637 69.675C83.2361 97.5567 115.569 155.821 165.678 187.172Z" fill="url(#paint8_radial)"/>
<g filter="url(#filter0_f)">
<path fill-rule="evenodd" clip-rule="evenodd" d="M176.934 165.241C199.473 179.284 222.75 180.819 230.577 168.33C237.838 154.837 220.221 130.435 197.683 116.392C175.144 102.35 155.507 100.124 147.68 112.613C139.854 125.101 154.396 151.199 176.934 165.241Z" fill="#94B0D7"/>
</g>
<path fill-rule="evenodd" clip-rule="evenodd" d="M321.809 256.532C321.077 253.143 319.976 250.622 321.077 246.048C322.179 241.474 334.854 238.881 336.453 240.346C338.052 241.811 337.792 242.596 344.127 246.011C350.462 249.426 368.62 253.398 372.507 257.828C376.394 262.258 377.117 265.187 369.039 265.187C365.243 265.187 348.615 265.187 344.053 265.187C339.568 263.537 338.06 262.648 335.546 261.121C335.033 263.035 335.546 264.664 335.546 264.664H324.786C324.786 264.664 322.542 259.92 321.809 256.532Z" fill="url(#paint9_linear)"/>
<mask id="mask3" mask-type="alpha" maskUnits="userSpaceOnUse" x="320" y="239" width="56" height="27">
<path fill-rule="evenodd" clip-rule="evenodd" d="M321.809 256.532C321.077 253.143 319.976 250.622 321.077 246.048C322.179 241.474 334.854 238.881 336.453 240.346C338.052 241.811 337.792 242.596 344.127 246.011C350.462 249.426 368.62 253.398 372.507 257.828C376.394 262.258 377.117 265.187 369.039 265.187C365.243 265.187 348.615 265.187 344.053 265.187C339.568 263.537 338.06 262.648 335.546 261.121C335.033 263.035 335.546 264.664 335.546 264.664H324.786C324.786 264.664 322.542 259.92 321.809 256.532Z" fill="white"/>
</mask>
<g mask="url(#mask3)">
<g opacity="0.2">
<path fill-rule="evenodd" clip-rule="evenodd" d="M321.479 262.493C323.809 256.515 332.892 245.362 335.523 241.733C338.155 238.103 318.086 246.01 318.086 246.01C318.086 246.01 319.149 268.471 321.479 262.493Z" fill="#3D82F0" style="mix-blend-mode:multiply"/>
</g>
</g>
<path fill-rule="evenodd" clip-rule="evenodd" d="M342.91 166.176C340.54 163.927 338.338 162.554 336.788 158.392C335.239 154.231 343.87 145.382 345.906 145.663C347.943 145.945 348.152 146.697 354.957 145.949C361.762 145.201 373.934 136.881 379.344 138.243C384.753 139.606 389.609 139.634 383.235 143.984C380.239 146.029 368.64 158.491 365.039 160.949C360.628 162.077 358.968 162.196 356.176 162.359C356.784 164.127 358.05 165.123 358.05 165.123L349.559 170.918C349.559 170.918 345.279 168.425 342.91 166.176Z" fill="url(#paint10_linear)"/>
<mask id="mask4" mask-type="alpha" maskUnits="userSpaceOnUse" x="336" y="138" width="51" height="33">
<path fill-rule="evenodd" clip-rule="evenodd" d="M342.91 166.176C340.54 163.927 338.338 162.554 336.788 158.392C335.239 154.231 343.87 145.382 345.906 145.663C347.943 145.945 348.152 146.697 354.957 145.949C361.762 145.201 373.934 136.881 379.344 138.243C384.753 139.606 389.609 139.634 383.235 143.984C380.239 146.029 368.64 158.491 365.039 160.949C360.628 162.077 358.968 162.196 356.176 162.359C356.784 164.127 358.05 165.123 358.05 165.123L349.559 170.918C349.559 170.918 345.279 168.425 342.91 166.176Z" fill="white"/>
</mask>
<g mask="url(#mask4)">
<g opacity="0.2">
<path fill-rule="evenodd" clip-rule="evenodd" d="M345.718 169.969C342.333 162.484 345.82 145.597 344.276 144.101C342.732 142.606 335.182 156.186 335.182 156.186C335.182 156.186 331.591 159.988 337.361 165.673C343.131 171.357 349.103 177.454 345.718 169.969Z" fill="#617FC8" style="mix-blend-mode:multiply"/>
</g>
</g>
<g filter="url(#filter1_i)">
<path fill-rule="evenodd" clip-rule="evenodd" d="M187.815 83.4793C204.414 74.6604 213.872 48.9161 220.728 41.6773C227.584 34.4385 230.611 48.288 229.478 52.3653C228.345 56.4427 219.989 83.8478 202.549 105.981C202.549 120.44 185.67 95.0809 187.815 83.4793Z" fill="url(#paint11_linear)"/>
</g>
<path fill-rule="evenodd" clip-rule="evenodd" d="M180.051 54.319C180.051 54.319 219.868 38.6297 225.251 39.6669C230.634 40.7041 214.546 58.9865 211.254 60.4617C207.963 61.937 203.489 65.5361 198.538 65.6643C193.588 65.7925 182.208 68.2346 182.208 68.2346L180.051 54.319Z" fill="url(#paint12_linear)"/>
<g filter="url(#filter2_i)">
<path fill-rule="evenodd" clip-rule="evenodd" d="M189.754 170.847C194.601 164.307 206.469 150.665 232.017 145.695C257.564 140.725 281.028 136.085 324.096 148.897C327.642 190.484 331.683 232.353 335.761 240.833C332.65 244.618 321.414 247.51 314.822 247.51C312.431 238.147 304.937 215.59 301.131 204.433C297.324 193.276 295.974 179.426 296.709 174.543C283.73 178.23 257.144 189.439 247.823 192.759C238.502 196.08 206.521 206.607 195.935 198.132C185.349 189.657 184.906 177.387 189.754 170.847Z" fill="url(#paint13_linear)"/>
</g>
<mask id="mask5" mask-type="alpha" maskUnits="userSpaceOnUse" x="186" y="140" width="150" height="108">
<path fill-rule="evenodd" clip-rule="evenodd" d="M189.754 170.847C194.601 164.307 206.469 150.665 232.017 145.695C257.564 140.725 281.028 136.085 324.096 148.897C327.642 190.484 331.683 232.353 335.761 240.833C332.65 244.618 321.414 247.51 314.822 247.51C312.431 238.147 304.937 215.59 301.131 204.433C297.324 193.276 295.974 179.426 296.709 174.543C283.73 178.23 257.144 189.439 247.823 192.759C238.502 196.08 206.521 206.607 195.935 198.132C185.349 189.657 184.906 177.387 189.754 170.847Z" fill="white"/>
</mask>
<g mask="url(#mask5)">
<g opacity="0.3">
<path fill-rule="evenodd" clip-rule="evenodd" d="M278.189 182.203C278.189 176.413 293.078 145.851 297.065 142.584C301.052 139.317 289.212 139.803 289.212 139.803C289.212 139.803 262.239 167.373 258.697 182.203C255.155 197.033 278.189 187.994 278.189 182.203Z" fill="url(#paint14_linear)" style="mix-blend-mode:multiply"/>
</g>
</g>
<path fill-rule="evenodd" clip-rule="evenodd" d="M158.155 87.1137C156.891 80.6784 154.453 69.3984 153.967 66.9882C153.48 64.578 177.059 72.9033 177.059 72.9033L180.024 88.6821L183.418 115.367C183.418 115.367 159.419 93.549 158.155 87.1137Z" fill="url(#paint15_linear)"/>
<mask id="mask6" mask-type="alpha" maskUnits="userSpaceOnUse" x="153" y="66" width="31" height="50">
<path fill-rule="evenodd" clip-rule="evenodd" d="M158.155 87.1137C156.891 80.6784 154.453 69.3984 153.967 66.9882C153.48 64.578 177.059 72.9033 177.059 72.9033L180.024 88.6821L183.418 115.367C183.418 115.367 159.419 93.549 158.155 87.1137Z" fill="white"/>
</mask>
<g mask="url(#mask6)">
<g opacity="0.2">
<path fill-rule="evenodd" clip-rule="evenodd" d="M154.801 67.3343C154.801 69.8063 163.896 80.3773 168.81 83.2751C173.724 86.173 182.576 85.9045 182.576 85.9045L181.228 71.6694L154.801 64.8691C154.801 64.8691 154.801 64.8623 154.801 67.3343Z" fill="#7890CB" style="mix-blend-mode:multiply"/>
</g>
</g>
<path fill-rule="evenodd" clip-rule="evenodd" d="M178.857 81.7017C178.857 81.7017 187.934 83.1797 188.559 84.316C194.462 88.6056 200.142 101.372 202.567 107.986C204.991 114.6 209.642 121.43 213.833 126.741C218.025 132.052 220.036 133.147 225.528 137.076C231.021 141.006 233.038 144.123 229.93 147.052C226.822 149.982 208.922 148.844 196.181 164.772C185.049 169.338 185.063 171.008 181.756 161.142C178.449 151.277 151.255 126.61 146.844 123.134C142.433 119.657 144.137 116.316 143.025 105.667C141.913 95.0179 133.894 86.3833 140.639 86.3833C145.955 88.363 151.133 84.316 153.47 84.316C161.986 86.4371 163.925 94.8225 167.46 93.064C170.995 91.3056 173.259 91.3056 173.259 91.3056C174.084 92.9798 174.349 95.8475 175.174 97.5217C175.999 99.196 179.45 102.554 180.983 105.667L178.272 96.6084L179.028 91.192L178.857 81.7017Z" fill="white"/>
<path fill-rule="evenodd" clip-rule="evenodd" d="M178.857 81.7017C178.857 81.7017 187.934 83.1797 188.559 84.316C194.462 88.6056 200.142 101.372 202.567 107.986C204.991 114.6 209.642 121.43 213.833 126.741C218.025 132.052 220.036 133.147 225.528 137.076C231.021 141.006 233.038 144.123 229.93 147.052C226.822 149.982 208.922 148.844 196.181 164.772C185.049 169.338 185.063 171.008 181.756 161.142C178.449 151.277 151.255 126.61 146.844 123.134C142.433 119.657 144.137 116.316 143.025 105.667C141.913 95.0179 133.894 86.3833 140.639 86.3833C145.955 88.363 151.133 84.316 153.47 84.316C161.986 86.4371 163.925 94.8225 167.46 93.064C170.995 91.3056 173.259 91.3056 173.259 91.3056C174.084 92.9798 174.349 95.8475 175.174 97.5217C175.999 99.196 179.45 102.554 180.983 105.667L178.272 96.6084L179.028 91.192L178.857 81.7017Z" fill="url(#paint16_linear)"/>
<mask id="mask7" mask-type="alpha" maskUnits="userSpaceOnUse" x="137" y="81" width="95" height="88">
<path fill-rule="evenodd" clip-rule="evenodd" d="M178.857 81.7017C178.857 81.7017 187.934 83.1797 188.559 84.316C194.462 88.6056 200.142 101.372 202.567 107.986C204.991 114.6 209.642 121.43 213.833 126.741C218.025 132.052 220.036 133.147 225.528 137.076C231.021 141.006 233.038 144.123 229.93 147.052C226.822 149.982 208.922 148.844 196.181 164.772C185.049 169.338 185.063 171.008 181.756 161.142C178.449 151.277 151.255 126.61 146.844 123.134C142.433 119.657 144.137 116.316 143.025 105.667C141.913 95.0179 133.894 86.3833 140.639 86.3833C145.955 88.363 151.133 84.316 153.47 84.316C161.986 86.4371 163.925 94.8225 167.46 93.064C170.995 91.3056 173.259 91.3056 173.259 91.3056C174.084 92.9798 174.349 95.8475 175.174 97.5217C175.999 99.196 179.45 102.554 180.983 105.667L178.272 96.6084L179.028 91.192L178.857 81.7017Z" fill="white"/>
<path fill-rule="evenodd" clip-rule="evenodd" d="M178.857 81.7017C178.857 81.7017 187.934 83.1797 188.559 84.316C194.462 88.6056 200.142 101.372 202.567 107.986C204.991 114.6 209.642 121.43 213.833 126.741C218.025 132.052 220.036 133.147 225.528 137.076C231.021 141.006 233.038 144.123 229.93 147.052C226.822 149.982 208.922 148.844 196.181 164.772C185.049 169.338 185.063 171.008 181.756 161.142C178.449 151.277 151.255 126.61 146.844 123.134C142.433 119.657 144.137 116.316 143.025 105.667C141.913 95.0179 133.894 86.3833 140.639 86.3833C145.955 88.363 151.133 84.316 153.47 84.316C161.986 86.4371 163.925 94.8225 167.46 93.064C170.995 91.3056 173.259 91.3056 173.259 91.3056C174.084 92.9798 174.349 95.8475 175.174 97.5217C175.999 99.196 179.45 102.554 180.983 105.667L178.272 96.6084L179.028 91.192L178.857 81.7017Z" stroke="white"/>
</mask>
<g mask="url(#mask7)">
<path opacity="0.6" fill-rule="evenodd" clip-rule="evenodd" d="M179.209 105.267C180.027 106.886 188.985 122.371 190.888 124.598C192.792 126.824 199.031 133.029 201.437 135.378C203.844 137.727 218.593 146.976 218.768 149.876" fill="black" fill-opacity="0.01"/>
<path opacity="0.6" fill-rule="evenodd" clip-rule="evenodd" d="M189.916 125.4L189.916 125.4C189.369 124.741 188.416 123.248 187.346 121.487C186.248 119.68 184.954 117.472 183.697 115.289C181.197 110.948 178.792 106.619 178.368 105.755L179.679 105.091C180.475 106.711 189.185 122.212 191.036 124.441C192.887 126.669 198.954 132.881 201.294 135.232C202.047 135.989 204.044 137.461 206.411 139.207C208.977 141.099 211.979 143.312 214.304 145.284L218.147 149.744L216.684 149.833C216.686 149.861 216.688 149.876 216.686 149.877C216.68 149.878 216.624 149.701 216.316 149.302C215.974 148.857 215.456 148.311 214.779 147.678C213.43 146.418 211.597 144.952 209.655 143.472C208.275 142.421 206.867 141.382 205.56 140.419C205.029 140.027 204.515 139.648 204.026 139.285C202.39 138.071 200.946 136.975 200.264 136.29C197.941 133.957 191.819 127.692 189.916 125.4ZM209.365 139.55C210.045 140.056 210.734 140.573 211.414 141.091C213.371 142.582 215.301 144.122 216.763 145.487C217.491 146.168 218.14 146.839 218.624 147.466C219.054 148.025 219.56 148.801 219.61 149.656L218.147 149.744C218.091 148.789 216.499 147.144 214.304 145.284L209.365 139.55ZM184.372 110.539L179.679 105.091L180.99 104.426C181.267 104.99 182.645 107.49 184.372 110.539Z" fill="#D9E8FF"/>
<path opacity="0.3" fill-rule="evenodd" clip-rule="evenodd" d="M168.397 102.742C168.397 102.742 172.54 95.4879 174.953 95.4879C177.366 95.4879 174.108 88.4336 174.108 88.4336L166.584 93.911L168.397 102.742Z" fill="#CCDFFD"/>
</g>
<path fill-rule="evenodd" clip-rule="evenodd" d="M229.066 143.282C242.528 130.995 281.062 107.215 303.037 103.583C315.626 105.666 348.386 140.97 348.386 140.97C346.909 142.518 343.015 156.241 336.865 160.554C321.377 147.77 305.229 141.801 300.893 135.191C295.485 138.465 281.582 148.025 273.585 162.071C265.588 176.116 260.283 192.117 251.17 192.518C242.057 192.918 229.205 193.953 217.367 186.38C210.491 181.981 190.696 172.176 200.313 165.752C205.824 162.071 223.422 148.433 229.066 143.282Z" fill="url(#paint17_linear)"/>
<path fill-rule="evenodd" clip-rule="evenodd" d="M177.015 40.556C177.933 42.819 182.972 52.7508 183.458 55.2264C183.943 57.7021 188.738 74.2156 185.882 76.7586C183.025 79.3017 174.459 80.5892 172.066 79.7749C169.672 78.9606 164.526 78.4389 162.521 75.0042C160.981 72.3644 156.086 66.2366 154.802 66.5874C154.333 67.5286 152.698 68.5342 151.88 67.8881C148.343 65.0966 145.311 62.0732 146.75 55.2264C148.189 48.3796 153.235 45.0015 158.645 42.7788C164.055 40.556 176.097 38.2931 177.015 40.556Z" fill="url(#paint18_linear)"/>
<path fill-rule="evenodd" clip-rule="evenodd" d="M115.795 78.7531C122.285 81.366 143.301 70.9656 149.97 71.8892C156.101 72.7383 148.322 63.2044 146.02 61.5173C143.718 59.8303 97.6851 60.5949 95.2688 64.1159C92.8527 67.637 110.414 76.5862 115.795 78.7531Z" fill="url(#paint19_linear)"/>
<mask id="mask8" mask-type="alpha" maskUnits="userSpaceOnUse" x="95" y="60" width="58" height="20">
<path fill-rule="evenodd" clip-rule="evenodd" d="M115.795 78.7531C122.285 81.366 143.301 70.9656 149.97 71.8892C156.101 72.7383 148.322 63.2044 146.02 61.5173C143.718 59.8303 97.6851 60.5949 95.2688 64.1159C92.8527 67.637 110.414 76.5862 115.795 78.7531Z" fill="white"/>
</mask>
<g mask="url(#mask8)">
<path opacity="0.5" fill-rule="evenodd" clip-rule="evenodd" d="M102.684 64.0364C104.074 64.5462 132.263 76.9313 139.237 75.2158C146.211 73.5002 121.857 81.7011 121.857 81.7011C121.857 81.7011 101.295 63.5266 102.684 64.0364Z" fill="#6B84C2"/>
</g>
<g filter="url(#filter3_i)">
<path fill-rule="evenodd" clip-rule="evenodd" d="M157.871 55.3809C157.871 55.3809 154.788 50.6033 157.171 45.8648C159.554 41.1264 172.136 47.4465 182.325 35.7637C192.515 24.0809 183.461 8.315 172.986 11.3899C162.51 14.4647 165.079 19.9724 166.978 24.0809C168.877 28.1895 159.107 29.7326 152.119 32.6247C145.132 35.5169 139.429 43.2988 140.661 55.3809C141.892 67.4629 152.881 77.3555 156.379 79.1757C155.362 72.0358 155.317 68.7553 155.317 66.7668C151.305 68.6575 146.632 59.2812 149.352 56.8145C154.55 52.1024 157.171 62.8351 157.171 62.8351C157.171 62.8351 157.871 61.307 159.107 59.8587C158.636 57.2737 157.871 55.3809 157.871 55.3809Z" fill="url(#paint20_linear)"/>
</g>
<path fill-rule="evenodd" clip-rule="evenodd" d="M179.094 90.431C182.215 91.5805 182.813 97.557 183.349 99.2425C183.885 100.928 181.099 86.0319 181.099 86.0319C180.119 87.4332 178.022 77.9203 178.416 79.3155C179.477 83.0669 178.588 87.3163 179.094 90.431Z" fill="#CCDFFD"/>
<path fill-rule="evenodd" clip-rule="evenodd" d="M168.701 106.108C168.701 100.733 170.767 93.6845 173.318 91.1699C169.619 91.406 158.738 84.6817 157.576 80.9334C156.415 77.185 156.199 76.6494 156.199 76.6494C156.199 76.6494 153.959 81.1323 153.959 83.9756C155.544 90.1441 162.615 100.852 168.701 106.108Z" fill="url(#paint21_linear)"/>
<g filter="url(#filter4_i)">
<path fill-rule="evenodd" clip-rule="evenodd" d="M136.29 84.8737C125.359 78.8896 103.522 61.8767 97.7823 63.2653C92.0428 64.6539 93.5323 67.2333 93.5323 73.1499C93.5323 79.0666 123.528 99.0469 128.147 108.934C130.124 113.166 135.189 123.62 144.256 121.916C153.322 120.213 150.572 111.242 148.618 104.005C146.321 95.4995 143.022 88.5587 136.29 84.8737Z" fill="url(#paint22_linear)"/>
</g>
<path fill-rule="evenodd" clip-rule="evenodd" d="M165.743 55.3644C167.762 55.9449 170.286 55.5201 171.635 53.9287L165.743 55.3644Z" fill="black" fill-opacity="0.01"/>
<path fill-rule="evenodd" clip-rule="evenodd" d="M171.453 54.071C171.68 54.2731 171.696 54.6158 171.488 54.8364C170.016 56.3967 167.367 56.7542 165.315 56.2241C165.018 56.1472 164.841 55.8504 164.92 55.5613C164.999 55.2722 165.305 55.1001 165.602 55.1771C167.401 55.6417 169.564 55.2714 170.665 54.1045C170.873 53.8839 171.226 53.8689 171.453 54.071Z" fill="#143B8C"/>
<path fill-rule="evenodd" clip-rule="evenodd" d="M180.893 51.155C182.623 51.7354 184.787 51.3107 185.943 49.7192L180.893 51.155Z" fill="black" fill-opacity="0.01"/>
<path fill-rule="evenodd" clip-rule="evenodd" d="M186.575 49.8361C186.814 50.0218 186.854 50.3625 186.666 50.5972C185.392 52.1808 183.079 52.5535 181.282 52.009C180.991 51.9209 180.828 51.6177 180.917 51.3317C181.007 51.0458 181.315 50.8854 181.606 50.9735C183.091 51.4236 184.882 51.0684 185.802 49.9249C185.991 49.6902 186.337 49.6505 186.575 49.8361Z" fill="#143B8C"/>
<path fill-rule="evenodd" clip-rule="evenodd" d="M161.534 52.11L163.584 61.5016L175.001 58.6584L173.281 48.8765L161.534 52.11Z" fill="black" fill-opacity="0.01"/>
<path fill-rule="evenodd" clip-rule="evenodd" d="M173.861 48.0337L175.843 59.1917L163.058 62.3422L160.693 51.6203L173.861 48.0337ZM162.44 52.706L164.163 60.5177L174.147 58.0574L172.7 49.9114L162.44 52.706Z" fill="#143B8C"/>
<path fill-rule="evenodd" clip-rule="evenodd" d="M178.368 47.9839L180.172 57.2927L188.468 54.8251L186.954 45.5093L178.368 47.9839Z" fill="black" fill-opacity="0.01"/>
<path fill-rule="evenodd" clip-rule="evenodd" d="M187.552 44.6685L189.31 55.3024L179.622 58.1353L177.527 47.5088L187.552 44.6685ZM179.197 48.5546L180.723 56.2909L187.682 54.2561L186.401 46.5134L179.197 48.5546Z" fill="#143B8C"/>
<path fill-rule="evenodd" clip-rule="evenodd" d="M161.546 53.9287L154.801 55.5313L155.929 57.4851L163.218 58.9788L161.546 53.9287Z" fill="#143B8C"/>
<path fill-rule="evenodd" clip-rule="evenodd" d="M173.318 52.1475L178.626 50.5615L179.21 53.2796L173.699 54.7699L173.318 52.1475Z" fill="#143B8C"/>
<path fill-rule="evenodd" clip-rule="evenodd" d="M165.665 187.215C215.765 218.513 267.507 221.934 284.905 194.099C305.798 153.521 234.155 171.078 184.055 139.78C133.955 108.482 135.194 82.357 100.636 69.915C83.2385 97.7502 115.565 155.917 165.665 187.215Z" fill="black" fill-opacity="0.01"/>
<mask id="mask9" mask-type="alpha" maskUnits="userSpaceOnUse" x="95" y="69" width="194" height="144">
<path fill-rule="evenodd" clip-rule="evenodd" d="M165.665 187.215C215.765 218.513 267.507 221.934 284.905 194.099C305.798 153.521 234.155 171.078 184.055 139.78C133.955 108.482 135.194 82.357 100.636 69.915C83.2385 97.7502 115.565 155.917 165.665 187.215Z" fill="white"/>
</mask>
<g mask="url(#mask9)">
<g filter="url(#filter5_i)">
<path fill-rule="evenodd" clip-rule="evenodd" d="M76.2876 147.087C102.488 164.024 132.502 164.306 143.324 147.717C154.147 131.129 141.681 103.951 115.48 87.0147C89.2791 70.0783 59.2656 69.7961 48.4429 86.3847C37.6203 102.973 50.0867 130.151 76.2876 147.087Z" fill="#EEF5FF"/>
</g>
<g filter="url(#filter6_i)">
<path fill-rule="evenodd" clip-rule="evenodd" d="M168.025 215.261C187.411 206.296 193.438 178.422 181.486 153.003C169.534 127.584 144.13 114.246 124.744 123.211C105.358 132.176 99.3309 160.05 111.283 185.469C123.234 210.888 148.639 224.226 168.025 215.261Z" fill="#EEF5FF"/>
</g>
<g filter="url(#filter7_i)">
<path fill-rule="evenodd" clip-rule="evenodd" d="M217.883 258.186C237.071 249.221 243.037 221.347 231.207 195.928C219.377 170.509 194.232 157.171 175.044 166.136C155.855 175.101 149.89 202.975 161.72 228.394C173.55 253.813 198.695 267.151 217.883 258.186Z" fill="#EEF5FF"/>
</g>
<g filter="url(#filter8_i)">
<path fill-rule="evenodd" clip-rule="evenodd" d="M311.309 272.493C330.498 263.528 336.463 235.654 324.633 210.235C312.803 184.816 287.658 171.478 268.47 180.443C249.282 189.408 243.316 217.282 255.146 242.701C266.976 268.12 292.121 281.458 311.309 272.493Z" fill="#EEF5FF"/>
</g>
<g filter="url(#filter9_i)">
<path fill-rule="evenodd" clip-rule="evenodd" d="M245.069 244.604C266.126 247.221 284.797 236.135 286.774 219.845C288.75 203.554 273.283 188.227 252.226 185.61C231.17 182.993 212.498 194.079 210.522 210.369C208.545 226.66 224.013 241.987 245.069 244.604Z" fill="#EEF5FF"/>
</g>
</g>
<path fill-rule="evenodd" clip-rule="evenodd" d="M186.784 107.373C186.784 107.373 195.565 105.694 196.618 104.5C197.671 103.305 203.618 117.103 203.618 117.103L200.73 120.418H193.848L186.784 107.373Z" fill="url(#paint23_linear)"/>
<path opacity="0.2" fill-rule="evenodd" clip-rule="evenodd" d="M55.5162 251.033C72.4395 251.033 86.1585 253.989 86.1585 257.634C86.1585 261.28 72.4395 264.236 55.5162 264.236C38.5929 264.236 24.8738 261.28 24.8738 257.634C24.8738 253.989 38.5929 251.033 55.5162 251.033Z" fill="#BBCFF2"/>
<path fill-rule="evenodd" clip-rule="evenodd" d="M84.012 225.213C85.9333 228.582 87.0093 232.356 87.0093 236.342C87.0093 250.572 73.2904 262.109 56.367 262.109C39.4437 262.109 25.7247 250.572 25.7247 236.342C25.7247 232.124 26.9297 228.143 29.0661 224.629C42.6406 226.779 69.6596 226.641 84.012 225.213Z" fill="url(#paint24_linear)"/>
<mask id="mask10" mask-type="alpha" maskUnits="userSpaceOnUse" x="25" y="224" width="63" height="39">
<path fill-rule="evenodd" clip-rule="evenodd" d="M84.012 225.213C85.9333 228.582 87.0093 232.356 87.0093 236.342C87.0093 250.572 73.2904 262.109 56.367 262.109C39.4437 262.109 25.7247 250.572 25.7247 236.342C25.7247 232.124 26.9297 228.143 29.0661 224.629C42.6406 226.779 69.6596 226.641 84.012 225.213Z" fill="white"/>
</mask>
<g mask="url(#mask10)">
</g>
<path fill-rule="evenodd" clip-rule="evenodd" d="M56.5802 219.516C71.9758 219.516 84.4563 222.472 84.4563 226.118C84.4563 229.764 71.9758 232.719 56.5802 232.719C41.1847 232.719 28.7042 229.764 28.7042 226.118C28.7042 222.472 41.1847 219.516 56.5802 219.516Z" fill="url(#paint25_linear)"/>
<mask id="mask11" mask-type="alpha" maskUnits="userSpaceOnUse" x="28" y="219" width="57" height="14">
<path fill-rule="evenodd" clip-rule="evenodd" d="M56.5802 219.516C71.9758 219.516 84.4563 222.472 84.4563 226.118C84.4563 229.764 71.9758 232.719 56.5802 232.719C41.1847 232.719 28.7042 229.764 28.7042 226.118C28.7042 222.472 41.1847 219.516 56.5802 219.516Z" fill="white"/>
</mask>
<g mask="url(#mask11)">
</g>
<g filter="url(#filter10_i)">
<path fill-rule="evenodd" clip-rule="evenodd" d="M54.2406 220.367C52.7182 209.824 48.5304 194.6 35.9403 178.202C28.5238 168.543 28.4996 145.02 27.4286 142.426C33.2481 144.429 43.7023 149.591 54.2406 164.147C65.2876 179.406 58.2795 210.524 54.2406 220.367Z" fill="url(#paint26_linear)"/>
</g>
<mask id="mask12" mask-type="alpha" maskUnits="userSpaceOnUse" x="27" y="142" width="34" height="79">
<path fill-rule="evenodd" clip-rule="evenodd" d="M54.2406 220.367C52.7182 209.824 48.5304 194.6 35.9403 178.202C28.5238 168.543 28.4996 145.02 27.4286 142.426C33.2481 144.429 43.7023 149.591 54.2406 164.147C65.2876 179.406 58.2795 210.524 54.2406 220.367Z" fill="white"/>
</mask>
<g mask="url(#mask12)">
<g style="mix-blend-mode:multiply" opacity="0.5">
<path d="M52.4911 206.839L45.2266 172.436C49.9041 182.193 52.137 192.94 52.4911 206.839Z" fill="black" fill-opacity="0.01"/>
<path d="M52.4911 206.839L45.2266 172.436C49.9041 182.193 52.137 192.94 52.4911 206.839Z" stroke="#489C71" stroke-width="3"/>
</g>
</g>
<g filter="url(#filter11_i)">
<path fill-rule="evenodd" clip-rule="evenodd" d="M54.2873 231.189C49.5841 223.661 41.2745 213.459 26.1592 205.187C17.2552 200.314 9.33513 182.384 7.6464 180.765C12.7599 180.336 22.4713 180.758 35.4024 188.316C48.9576 196.238 54.0631 222.326 54.2873 231.189Z" fill="url(#paint27_linear)"/>
</g>
<mask id="mask13" mask-type="alpha" maskUnits="userSpaceOnUse" x="7" y="180" width="48" height="52">
<path fill-rule="evenodd" clip-rule="evenodd" d="M54.2873 231.189C49.5841 223.661 41.2745 213.459 26.1592 205.187C17.2552 200.314 9.33513 182.384 7.6464 180.765C12.7599 180.336 22.4713 180.758 35.4024 188.316C48.9576 196.238 54.0631 222.326 54.2873 231.189Z" fill="white"/>
</mask>
<g mask="url(#mask13)">
<g style="mix-blend-mode:multiply" opacity="0.5">
<path d="M46.9046 218.947L32.8344 199.369C38.2849 204.445 42.7551 210.691 46.9046 218.947Z" fill="black" fill-opacity="0.01"/>
<path d="M46.9046 218.947L32.8344 199.369C38.2849 204.445 42.7551 210.691 46.9046 218.947Z" stroke="#489C71" stroke-width="3"/>
</g>
</g>
<g filter="url(#filter12_i)">
<path fill-rule="evenodd" clip-rule="evenodd" d="M57.6621 232.219C61.3704 224.116 68.3243 212.885 82.3075 202.698C90.5446 196.697 96.1082 177.821 97.5804 175.992C92.4314 176.224 82.8129 177.898 70.9128 187.092C58.4382 196.73 56.7358 223.365 57.6621 232.219Z" fill="url(#paint28_linear)"/>
</g>
<mask id="mask14" mask-type="alpha" maskUnits="userSpaceOnUse" x="57" y="175" width="41" height="58">
<path fill-rule="evenodd" clip-rule="evenodd" d="M57.6621 232.219C61.3704 224.116 68.3243 212.885 82.3075 202.698C90.5446 196.697 96.1082 177.821 97.5804 175.992C92.4314 176.224 82.8129 177.898 70.9128 187.092C58.4382 196.73 56.7358 223.365 57.6621 232.219Z" fill="white"/>
</mask>
<g mask="url(#mask14)">
<g style="mix-blend-mode:multiply" opacity="0.5">
<path d="M73.5201 197.591L61.9699 219.039C65.0481 210.216 68.712 203.38 73.5201 197.591Z" fill="black" fill-opacity="0.01"/>
<path d="M73.5201 197.591L61.9699 219.039C65.0481 210.216 68.712 203.38 73.5201 197.591Z" stroke="#489C71" stroke-width="3"/>
</g>
</g>
<g opacity="0.6">
<path fill-rule="evenodd" clip-rule="evenodd" d="M26.6136 -0.925658C41.1865 -0.925658 53.0001 10.8968 53.0001 25.4805C53.0001 40.0642 41.1865 51.8866 26.6136 51.8866C12.0408 51.8866 0.227153 40.0642 0.227153 25.4805C0.227153 10.8968 12.0408 -0.925658 26.6136 -0.925658Z" fill="url(#paint29_linear)"/>
<mask id="mask15" mask-type="alpha" maskUnits="userSpaceOnUse" x="0" y="-1" width="53" height="53">
<path fill-rule="evenodd" clip-rule="evenodd" d="M26.6136 -0.925658C41.1865 -0.925658 53.0001 10.8968 53.0001 25.4805C53.0001 40.0642 41.1865 51.8866 26.6136 51.8866C12.0408 51.8866 0.227153 40.0642 0.227153 25.4805C0.227153 10.8968 12.0408 -0.925658 26.6136 -0.925658Z" fill="white"/>
</mask>
<g mask="url(#mask15)">
</g>
<mask id="path-84-inside-1" fill="white">
<path fill-rule="evenodd" clip-rule="evenodd" d="M26.9323 7.44798V26.4475L35.6205 35.1422"/>
</mask>
<path d="M32.9323 7.44798C32.9323 4.13427 30.246 1.44798 26.9323 1.44798C23.6186 1.44798 20.9323 4.13427 20.9323 7.44798H32.9323ZM26.9323 26.4475H20.9323C20.9323 28.038 21.5638 29.5635 22.688 30.6886L26.9323 26.4475ZM31.3763 39.3832C33.7185 41.7273 37.5175 41.7287 39.8616 39.3864C42.2056 37.0441 42.207 33.2451 39.8647 30.9011L31.3763 39.3832ZM20.9323 7.44798V26.4475H32.9323V7.44798H20.9323ZM22.688 30.6886L31.3763 39.3832L39.8647 30.9011L31.1765 22.2064L22.688 30.6886Z" fill="white" mask="url(#path-84-inside-1)"/>
</g>
</g>
<defs>
<filter id="filter0_f" x="45.5602" y="4.44447" width="286.656" height="272.348" filterUnits="userSpaceOnUse" color-interpolation-filters="sRGB">
<feFlood flood-opacity="0" result="BackgroundImageFix"/>
<feBlend mode="normal" in="SourceGraphic" in2="BackgroundImageFix" result="shape"/>
<feGaussianBlur stdDeviation="49.9909" result="effect1_foregroundBlur"/>
</filter>
<filter id="filter1_i" x="187.626" y="39.6177" width="42.0838" height="71.7007" filterUnits="userSpaceOnUse" color-interpolation-filters="sRGB">
<feFlood flood-opacity="0" result="BackgroundImageFix"/>
<feBlend mode="normal" in="SourceGraphic" in2="BackgroundImageFix" result="shape"/>
<feColorMatrix in="SourceAlpha" type="matrix" values="0 0 0 0 0 0 0 0 0 0 0 0 0 0 0 0 0 0 127 0" result="hardAlpha"/>
<feOffset dy="1"/>
<feGaussianBlur stdDeviation="6"/>
<feComposite in2="hardAlpha" operator="arithmetic" k2="-1" k3="1"/>
<feColorMatrix type="matrix" values="0 0 0 0 0.898039 0 0 0 0 0.941176 0 0 0 0 1 0 0 0 1 0"/>
<feBlend mode="normal" in2="shape" result="effect1_innerShadow"/>
</filter>
<filter id="filter2_i" x="186.784" y="140.617" width="164.976" height="110.893" filterUnits="userSpaceOnUse" color-interpolation-filters="sRGB">
<feFlood flood-opacity="0" result="BackgroundImageFix"/>
<feBlend mode="normal" in="SourceGraphic" in2="BackgroundImageFix" result="shape"/>
<feColorMatrix in="SourceAlpha" type="matrix" values="0 0 0 0 0 0 0 0 0 0 0 0 0 0 0 0 0 0 127 0" result="hardAlpha"/>
<feOffset dx="16" dy="4"/>
<feGaussianBlur stdDeviation="14"/>
<feComposite in2="hardAlpha" operator="arithmetic" k2="-1" k3="1"/>
<feColorMatrix type="matrix" values="0 0 0 0 0.103708 0 0 0 0 0.317385 0 0 0 0 0.809604 0 0 0 1 0"/>
<feBlend mode="normal" in2="shape" result="effect1_innerShadow"/>
</filter>
<filter id="filter3_i" x="140.492" y="11" width="59.2921" height="80.1757" filterUnits="userSpaceOnUse" color-interpolation-filters="sRGB">
<feFlood flood-opacity="0" result="BackgroundImageFix"/>
<feBlend mode="normal" in="SourceGraphic" in2="BackgroundImageFix" result="shape"/>
<feColorMatrix in="SourceAlpha" type="matrix" values="0 0 0 0 0 0 0 0 0 0 0 0 0 0 0 0 0 0 127 0" result="hardAlpha"/>
<feOffset dx="13" dy="12"/>
<feGaussianBlur stdDeviation="9"/>
<feComposite in2="hardAlpha" operator="arithmetic" k2="-1" k3="1"/>
<feColorMatrix type="matrix" values="0 0 0 0 0 0 0 0 0 0 0 0 0 0 0 0 0 0 0.139889 0"/>
<feBlend mode="normal" in2="shape" result="effect1_innerShadow"/>
</filter>
<filter id="filter4_i" x="93.3584" y="55.1851" width="69.2339" height="66.9173" filterUnits="userSpaceOnUse" color-interpolation-filters="sRGB">
<feFlood flood-opacity="0" result="BackgroundImageFix"/>
<feBlend mode="normal" in="SourceGraphic" in2="BackgroundImageFix" result="shape"/>
<feColorMatrix in="SourceAlpha" type="matrix" values="0 0 0 0 0 0 0 0 0 0 0 0 0 0 0 0 0 0 127 0" result="hardAlpha"/>
<feOffset dx="18" dy="-8"/>
<feGaussianBlur stdDeviation="6"/>
<feComposite in2="hardAlpha" operator="arithmetic" k2="-1" k3="1"/>
<feColorMatrix type="matrix" values="0 0 0 0 0.898039 0 0 0 0 0.941176 0 0 0 0 1 0 0 0 1 0"/>
<feBlend mode="normal" in2="shape" result="effect1_innerShadow"/>
</filter>
<filter id="filter5_i" x="23.5415" y="53.1255" width="123.684" height="106.851" filterUnits="userSpaceOnUse" color-interpolation-filters="sRGB">
<feFlood flood-opacity="0" result="BackgroundImageFix"/>
<feBlend mode="normal" in="SourceGraphic" in2="BackgroundImageFix" result="shape"/>
<feColorMatrix in="SourceAlpha" type="matrix" values="0 0 0 0 0 0 0 0 0 0 0 0 0 0 0 0 0 0 127 0" result="hardAlpha"/>
<feOffset dx="-27.5" dy="-39.3"/>
<feGaussianBlur stdDeviation="10.5"/>
<feComposite in2="hardAlpha" operator="arithmetic" k2="-1" k3="1"/>
<feColorMatrix type="matrix" values="0 0 0 0 0.580392 0 0 0 0 0.67451 0 0 0 0 0.854902 0 0 0 0.43 0"/>
<feBlend mode="normal" in2="shape" result="effect1_innerShadow"/>
</filter>
<filter id="filter6_i" x="90.2421" y="99.4189" width="97.3842" height="118.634" filterUnits="userSpaceOnUse" color-interpolation-filters="sRGB">
<feFlood flood-opacity="0" result="BackgroundImageFix"/>
<feBlend mode="normal" in="SourceGraphic" in2="BackgroundImageFix" result="shape"/>
<feColorMatrix in="SourceAlpha" type="matrix" values="0 0 0 0 0 0 0 0 0 0 0 0 0 0 0 0 0 0 127 0" result="hardAlpha"/>
<feOffset dx="-14.9" dy="-24.9"/>
<feGaussianBlur stdDeviation="10.5"/>
<feComposite in2="hardAlpha" operator="arithmetic" k2="-1" k3="1"/>
<feColorMatrix type="matrix" values="0 0 0 0 0.580392 0 0 0 0 0.67451 0 0 0 0 0.854902 0 0 0 0.43 0"/>
<feBlend mode="normal" in2="shape" result="effect1_innerShadow"/>
</filter>
<filter id="filter7_i" x="134.642" y="150.644" width="102.642" height="110.334" filterUnits="userSpaceOnUse" color-interpolation-filters="sRGB">
<feFlood flood-opacity="0" result="BackgroundImageFix"/>
<feBlend mode="normal" in="SourceGraphic" in2="BackgroundImageFix" result="shape"/>
<feColorMatrix in="SourceAlpha" type="matrix" values="0 0 0 0 0 0 0 0 0 0 0 0 0 0 0 0 0 0 127 0" result="hardAlpha"/>
<feOffset dx="-24.9" dy="-12.7"/>
<feGaussianBlur stdDeviation="10.5"/>
<feComposite in2="hardAlpha" operator="arithmetic" k2="-1" k3="1"/>
<feColorMatrix type="matrix" values="0 0 0 0 0.580392 0 0 0 0 0.67451 0 0 0 0 0.854902 0 0 0 0.43 0"/>
<feBlend mode="normal" in2="shape" result="effect1_innerShadow"/>
</filter>
<filter id="filter8_i" x="239.168" y="177.651" width="91.5425" height="110.234" filterUnits="userSpaceOnUse" color-interpolation-filters="sRGB">
<feFlood flood-opacity="0" result="BackgroundImageFix"/>
<feBlend mode="normal" in="SourceGraphic" in2="BackgroundImageFix" result="shape"/>
<feColorMatrix in="SourceAlpha" type="matrix" values="0 0 0 0 0 0 0 0 0 0 0 0 0 0 0 0 0 0 127 0" result="hardAlpha"/>
<feOffset dx="-9.9" dy="12.6"/>
<feGaussianBlur stdDeviation="10.5"/>
<feComposite in2="hardAlpha" operator="arithmetic" k2="-1" k3="1"/>
<feColorMatrix type="matrix" values="0 0 0 0 0.580392 0 0 0 0 0.67451 0 0 0 0 0.854902 0 0 0 0.43 0"/>
<feBlend mode="normal" in2="shape" result="effect1_innerShadow"/>
</filter>
<filter id="filter9_i" x="191.552" y="185.228" width="95.3924" height="62.3589" filterUnits="userSpaceOnUse" color-interpolation-filters="sRGB">
<feFlood flood-opacity="0" result="BackgroundImageFix"/>
<feBlend mode="normal" in="SourceGraphic" in2="BackgroundImageFix" result="shape"/>
<feColorMatrix in="SourceAlpha" type="matrix" values="0 0 0 0 0 0 0 0 0 0 0 0 0 0 0 0 0 0 127 0" result="hardAlpha"/>
<feOffset dx="-18.8" dy="2.6"/>
<feGaussianBlur stdDeviation="10.5"/>
<feComposite in2="hardAlpha" operator="arithmetic" k2="-1" k3="1"/>
<feColorMatrix type="matrix" values="0 0 0 0 0.580392 0 0 0 0 0.67451 0 0 0 0 0.854902 0 0 0 0.43 0"/>
<feBlend mode="normal" in2="shape" result="effect1_innerShadow"/>
</filter>
<filter id="filter10_i" x="27.4285" y="132.426" width="32.7476" height="87.9407" filterUnits="userSpaceOnUse" color-interpolation-filters="sRGB">
<feFlood flood-opacity="0" result="BackgroundImageFix"/>
<feBlend mode="normal" in="SourceGraphic" in2="BackgroundImageFix" result="shape"/>
<feColorMatrix in="SourceAlpha" type="matrix" values="0 0 0 0 0 0 0 0 0 0 0 0 0 0 0 0 0 0 127 0" result="hardAlpha"/>
<feOffset dy="-10"/>
<feGaussianBlur stdDeviation="6.5"/>
<feComposite in2="hardAlpha" operator="arithmetic" k2="-1" k3="1"/>
<feColorMatrix type="matrix" values="0 0 0 0 0.221483 0 0 0 0 0.77854 0 0 0 0 0.47323 0 0 0 1 0"/>
<feBlend mode="normal" in2="shape" result="effect1_innerShadow"/>
</filter>
<filter id="filter11_i" x="7.64648" y="170.65" width="46.6409" height="60.5388" filterUnits="userSpaceOnUse" color-interpolation-filters="sRGB">
<feFlood flood-opacity="0" result="BackgroundImageFix"/>
<feBlend mode="normal" in="SourceGraphic" in2="BackgroundImageFix" result="shape"/>
<feColorMatrix in="SourceAlpha" type="matrix" values="0 0 0 0 0 0 0 0 0 0 0 0 0 0 0 0 0 0 127 0" result="hardAlpha"/>
<feOffset dy="-10"/>
<feGaussianBlur stdDeviation="6.5"/>
<feComposite in2="hardAlpha" operator="arithmetic" k2="-1" k3="1"/>
<feColorMatrix type="matrix" values="0 0 0 0 0.221483 0 0 0 0 0.77854 0 0 0 0 0.47323 0 0 0 1 0"/>
<feBlend mode="normal" in2="shape" result="effect1_innerShadow"/>
</filter>
<filter id="filter12_i" x="57.4497" y="165.992" width="40.1307" height="66.2277" filterUnits="userSpaceOnUse" color-interpolation-filters="sRGB">
<feFlood flood-opacity="0" result="BackgroundImageFix"/>
<feBlend mode="normal" in="SourceGraphic" in2="BackgroundImageFix" result="shape"/>
<feColorMatrix in="SourceAlpha" type="matrix" values="0 0 0 0 0 0 0 0 0 0 0 0 0 0 0 0 0 0 127 0" result="hardAlpha"/>
<feOffset dy="-10"/>
<feGaussianBlur stdDeviation="6.5"/>
<feComposite in2="hardAlpha" operator="arithmetic" k2="-1" k3="1"/>
<feColorMatrix type="matrix" values="0 0 0 0 0.221483 0 0 0 0 0.77854 0 0 0 0 0.47323 0 0 0 1 0"/>
<feBlend mode="normal" in2="shape" result="effect1_innerShadow"/>
</filter>
<linearGradient id="paint0_linear" x1="654.007" y1="329.834" x2="713.911" y2="-83.4822" gradientUnits="userSpaceOnUse">
<stop stop-color="#ECF2FC"/>
<stop offset="1" stop-color="#ACCAFF"/>
</linearGradient>
<linearGradient id="paint1_linear" x1="485.737" y1="17.665" x2="508.971" y2="56.0769" gradientUnits="userSpaceOnUse">
<stop stop-color="#ACD6FF" stop-opacity="0.152485"/>
<stop offset="1" stop-color="#96ACCB" stop-opacity="0.457456"/>
</linearGradient>
<linearGradient id="paint2_linear" x1="519.719" y1="35.9556" x2="549.439" y2="86.0812" gradientUnits="userSpaceOnUse">
<stop stop-color="#ACD6FF" stop-opacity="0.152485"/>
<stop offset="1" stop-color="#96ACCB" stop-opacity="0.457456"/>
</linearGradient>
<linearGradient id="paint3_linear" x1="486.229" y1="72.0639" x2="516.279" y2="122.369" gradientUnits="userSpaceOnUse">
<stop stop-color="#ACD6FF" stop-opacity="0.152485"/>
<stop offset="1" stop-color="#96ACCB" stop-opacity="0.457456"/>
</linearGradient>
<linearGradient id="paint4_linear" x1="690" y1="127.641" x2="662.429" y2="82.5282" gradientUnits="userSpaceOnUse">
<stop stop-color="#367ED7"/>
<stop offset="1" stop-color="#153D8E"/>
</linearGradient>
<linearGradient id="paint5_linear" x1="447.869" y1="118.816" x2="498.174" y2="90.3648" gradientUnits="userSpaceOnUse">
<stop stop-color="#FDAE6B"/>
<stop offset="1" stop-color="#FAE539"/>
</linearGradient>
<radialGradient id="paint6_radial" cx="0" cy="0" r="1" gradientUnits="userSpaceOnUse" gradientTransform="translate(189.546 241.307) rotate(90) scale(26.7708 436.783)">
<stop/>
<stop offset="1" stop-color="#2062E7"/>
</radialGradient>
<radialGradient id="paint7_radial" cx="0" cy="0" r="1" gradientUnits="userSpaceOnUse" gradientTransform="translate(152.836 146.565) rotate(-67.7308) scale(92.7965 162.983)">
<stop stop-color="#62ABFB"/>
<stop offset="1" stop-color="#1440C0"/>
</radialGradient>
<radialGradient id="paint8_radial" cx="0" cy="0" r="1" gradientUnits="userSpaceOnUse" gradientTransform="translate(198.695 92.9559) rotate(108.445) scale(98.2682 450.99)">
<stop stop-color="#F4F8FF"/>
<stop offset="1" stop-color="#89B1E9"/>
</radialGradient>
<linearGradient id="paint9_linear" x1="336.395" y1="241.401" x2="332.51" y2="270.073" gradientUnits="userSpaceOnUse">
<stop stop-color="#9ABFFF"/>
<stop offset="1" stop-color="#5B87D2"/>
</linearGradient>
<linearGradient id="paint10_linear" x1="334.766" y1="133.59" x2="331.016" y2="169.311" gradientUnits="userSpaceOnUse">
<stop stop-color="#91BAFF"/>
<stop offset="1" stop-color="#5B87D2"/>
</linearGradient>
<linearGradient id="paint11_linear" x1="210.865" y1="35.1563" x2="177.436" y2="73.2969" gradientUnits="userSpaceOnUse">
<stop stop-color="#F5F8FF"/>
<stop offset="1" stop-color="white"/>
</linearGradient>
<linearGradient id="paint12_linear" x1="205.287" y1="78.274" x2="219.001" y2="40.8779" gradientUnits="userSpaceOnUse">
<stop stop-color="#6B86C0"/>
<stop offset="1" stop-color="#A1B8E3"/>
</linearGradient>
<linearGradient id="paint13_linear" x1="280.842" y1="219.857" x2="323.128" y2="177.171" gradientUnits="userSpaceOnUse">
<stop stop-color="#002383"/>
<stop offset="1" stop-color="#316EEA"/>
</linearGradient>
<linearGradient id="paint14_linear" x1="290.305" y1="202.912" x2="316.046" y2="178.246" gradientUnits="userSpaceOnUse">
<stop stop-color="#002343"/>
<stop offset="1" stop-color="#1A72FF" stop-opacity="0.436934"/>
</linearGradient>
<linearGradient id="paint15_linear" x1="159.241" y1="72.6061" x2="159.241" y2="103.765" gradientUnits="userSpaceOnUse">
<stop stop-color="#6081C1"/>
<stop offset="1" stop-color="#90AADB"/>
</linearGradient>
<linearGradient id="paint16_linear" x1="221.638" y1="154.843" x2="214.037" y2="133.158" gradientUnits="userSpaceOnUse">
<stop stop-color="#B1C2E4"/>
<stop offset="1" stop-color="white" stop-opacity="0.01"/>
</linearGradient>
<linearGradient id="paint17_linear" x1="228.935" y1="115.699" x2="239.08" y2="155.333" gradientUnits="userSpaceOnUse">
<stop stop-color="#3D9BF8"/>
<stop offset="1" stop-color="#3B80F0"/>
</linearGradient>
<linearGradient id="paint18_linear" x1="190.734" y1="39.2864" x2="159.139" y2="56.3055" gradientUnits="userSpaceOnUse">
<stop stop-color="white"/>
<stop offset="0.701101" stop-color="#B8CBEB"/>
<stop offset="1" stop-color="#A1B8E3"/>
</linearGradient>
<linearGradient id="paint19_linear" x1="162.362" y1="83.2577" x2="163.376" y2="60.4546" gradientUnits="userSpaceOnUse">
<stop stop-color="#7992C7"/>
<stop offset="1" stop-color="#A1B8E3"/>
</linearGradient>
<linearGradient id="paint20_linear" x1="189.998" y1="-12.97" x2="135.917" y2="0.0674497" gradientUnits="userSpaceOnUse">
<stop stop-color="#2669E1"/>
<stop offset="1" stop-color="#143B8C"/>
</linearGradient>
<linearGradient id="paint21_linear" x1="160.678" y1="97.5402" x2="167.826" y2="93.1228" gradientUnits="userSpaceOnUse">
<stop stop-color="#EEF5FF"/>
<stop offset="1" stop-color="#ADC8F2"/>
</linearGradient>
<linearGradient id="paint22_linear" x1="126.386" y1="62.2099" x2="107.628" y2="102.222" gradientUnits="userSpaceOnUse">
<stop stop-color="#F5F8FF"/>
<stop offset="1" stop-color="white"/>
</linearGradient>
<linearGradient id="paint23_linear" x1="190.847" y1="100.317" x2="186.019" y2="118.627" gradientUnits="userSpaceOnUse">
<stop stop-color="#EEF5FF"/>
<stop offset="1" stop-color="#D9E8FF"/>
</linearGradient>
<linearGradient id="paint24_linear" x1="102.969" y1="248.569" x2="73.319" y2="215.589" gradientUnits="userSpaceOnUse">
<stop stop-color="#CEE0FB"/>
<stop offset="1" stop-color="#E4EDFB"/>
</linearGradient>
<linearGradient id="paint25_linear" x1="27.853" y1="219.09" x2="27.853" y2="233.145" gradientUnits="userSpaceOnUse">
<stop stop-color="#99BAE9"/>
<stop offset="1" stop-color="#BCD0F2"/>
</linearGradient>
<linearGradient id="paint26_linear" x1="21.8729" y1="163.568" x2="67.6496" y2="211.465" gradientUnits="userSpaceOnUse">
<stop stop-color="#B1FFBE"/>
<stop offset="0.444207" stop-color="#5CDB8E"/>
<stop offset="1" stop-color="#149654"/>
</linearGradient>
<linearGradient id="paint27_linear" x1="21.2072" y1="178.129" x2="27.7937" y2="228.991" gradientUnits="userSpaceOnUse">
<stop stop-color="#B1FFBE"/>
<stop offset="0.444207" stop-color="#5CDB8E"/>
<stop offset="1" stop-color="#149654"/>
</linearGradient>
<linearGradient id="paint28_linear" x1="50.3587" y1="190.875" x2="80.5128" y2="238.166" gradientUnits="userSpaceOnUse">
<stop stop-color="#B1FFBE"/>
<stop offset="0.444207" stop-color="#5CDB8E"/>
<stop offset="1" stop-color="#149654"/>
</linearGradient>
<linearGradient id="paint29_linear" x1="23.1311" y1="13.6881" x2="7.275" y2="44.8686" gradientUnits="userSpaceOnUse">
<stop stop-color="#CBDAF1"/>
<stop offset="1" stop-color="#9CB3DF"/>
</linearGradient>
</defs>
</svg>
