<svg width="670" height="268" viewBox="0 0 670 268" fill="none" xmlns="http://www.w3.org/2000/svg">
<mask id="mask0" mask-type="alpha" maskUnits="userSpaceOnUse" x="0" y="0" width="670" height="268">
<rect width="670" height="268" fill="#C4C4C4"/>
</mask>
<g mask="url(#mask0)">
<path opacity="0.118359" fill-rule="evenodd" clip-rule="evenodd" d="M458.947 -29.9144C411.839 -82.1337 313.911 -101.484 213.286 -72.546C88.0415 -36.5281 6.04527 60.6562 30.1424 144.522C50.8345 216.537 143.028 255.315 247.971 242.03C295.235 281.198 376.212 294.382 458.799 270.631C573.191 237.735 647.353 146.439 624.447 66.7172C607.211 6.7324 539.932 -29.6091 458.947 -29.9144Z" fill="url(#paint0_linear)"/>
<path fill-rule="evenodd" clip-rule="evenodd" d="M505.001 6.82741H531.434C533.172 6.82741 534.581 8.23802 534.581 9.97802L525.14 44.6346C525.14 46.3746 523.732 47.7853 521.994 47.7853H495.56C493.822 47.7853 492.413 46.3746 492.413 44.6346L501.854 9.97802C501.854 8.23802 503.263 6.82741 505.001 6.82741Z" fill="url(#paint1_linear)"/>
<path fill-rule="evenodd" clip-rule="evenodd" d="M544.919 21.72H579.645C581.928 21.72 583.779 23.5723 583.779 25.8572L571.377 71.3658C571.377 73.6507 569.526 75.5029 567.243 75.5029H532.517C530.234 75.5029 528.383 73.6507 528.383 71.3658L540.785 25.8572C540.785 23.5723 542.636 21.72 544.919 21.72Z" fill="url(#paint2_linear)"/>
<path fill-rule="evenodd" clip-rule="evenodd" d="M511.429 57.7161H546.155C548.439 57.7161 550.29 59.5684 550.29 61.8532L537.887 107.362C537.887 109.647 536.036 111.499 533.753 111.499H499.027C496.744 111.499 494.893 109.647 494.893 107.362L507.295 61.8532C507.295 59.5684 509.146 57.7161 511.429 57.7161Z" fill="url(#paint3_linear)"/>
<g opacity="0.2">
<path fill-rule="evenodd" clip-rule="evenodd" d="M610.322 149.695H617.907V248.079H610.322V149.695Z" fill="#8CA4D4"/>
<path fill-rule="evenodd" clip-rule="evenodd" d="M585.035 248.047H643.189V255.638H585.035V248.047Z" fill="#8CA4D4"/>
<path fill-rule="evenodd" clip-rule="evenodd" d="M563.722 142.135H664.86V149.726H563.722V142.135Z" fill="#8CA4D4"/>
<mask id="mask1" mask-type="alpha" maskUnits="userSpaceOnUse" x="563" y="142" width="102" height="8">
<path fill-rule="evenodd" clip-rule="evenodd" d="M563.722 142.135H664.86V149.726H563.722V142.135Z" fill="white"/>
</mask>
<g mask="url(#mask1)">
</g>
</g>
<path fill-rule="evenodd" clip-rule="evenodd" d="M593.703 142.137L604.318 89.723L665.583 90.8074L655.108 142.137H593.703Z" fill="#123584"/>
<path fill-rule="evenodd" clip-rule="evenodd" d="M563.722 139.19H659.072V142.498H566.612L563.722 139.19Z" fill="#123584"/>
<path fill-rule="evenodd" clip-rule="evenodd" d="M597.315 142.498L607.929 89.723L669.195 90.8074L659.081 142.498H597.315Z" fill="url(#paint4_linear)"/>
<mask id="mask2" mask-type="alpha" maskUnits="userSpaceOnUse" x="597" y="89" width="73" height="54">
<path fill-rule="evenodd" clip-rule="evenodd" d="M597.315 142.498L607.929 89.723L669.195 90.8074L659.081 142.498H597.315Z" fill="white"/>
</mask>
<g mask="url(#mask2)">
<path fill-rule="evenodd" clip-rule="evenodd" d="M633.797 111.051C636.789 111.051 639.215 113.074 639.215 115.569C639.215 118.065 636.789 120.088 633.797 120.088C630.805 120.088 628.379 118.065 628.379 115.569C628.379 113.074 630.805 111.051 633.797 111.051Z" fill="#A1B8E3"/>
</g>
<path fill-rule="evenodd" clip-rule="evenodd" d="M433.751 91.392L437.97 77.4232L471.201 84.1533L441.689 68.2044L448.162 55.0175L489.982 89.8001L433.751 91.392Z" fill="url(#paint5_linear)"/>
<path fill-rule="evenodd" clip-rule="evenodd" d="M437.796 77.8152L443.769 74.5916L472.673 84.5783L437.796 77.8152Z" fill="#E1A846"/>
<path fill-rule="evenodd" clip-rule="evenodd" d="M443.48 74.6995L441.977 68.096L471.883 84.2227L443.48 74.6995Z" fill="#E6B052"/>
<path fill-rule="evenodd" clip-rule="evenodd" d="M189.73 267.712C231.799 267.712 265.902 260.929 265.902 252.562C265.902 244.195 231.799 237.412 189.73 237.412C147.662 237.412 113.559 244.195 113.559 252.562C113.559 260.929 147.662 267.712 189.73 267.712Z" fill="url(#paint6_radial)"/>
<path fill-rule="evenodd" clip-rule="evenodd" d="M137.014 243.094C183.854 265.523 252.626 262.56 283.475 201.694C303.856 162.53 260.372 115.634 212.608 83.0255C169.739 53.759 131.609 47.1222 109.237 63.5985C106.682 65.48 102.141 65.1102 100.078 67.6702C43.2921 132.37 90.1744 220.665 137.014 243.094Z" fill="url(#paint7_radial)"/>
<path fill-rule="evenodd" clip-rule="evenodd" d="M165.678 187.172C215.788 218.523 267.54 221.949 284.941 194.067C301.086 163.944 261.917 109.464 211.807 78.1131C161.698 46.7624 118.038 41.793 100.637 69.675C83.2361 97.5567 115.569 155.821 165.678 187.172Z" fill="url(#paint8_radial)"/>
<g filter="url(#filter0_f)">
<path fill-rule="evenodd" clip-rule="evenodd" d="M176.934 165.241C199.473 179.284 222.75 180.818 230.577 168.329C237.838 154.837 220.221 130.434 197.683 116.392C175.144 102.349 155.507 100.123 147.68 112.612C139.854 125.101 154.396 151.198 176.934 165.241Z" fill="#94B0D7"/>
</g>
<path fill-rule="evenodd" clip-rule="evenodd" d="M321.809 256.531C321.077 253.142 319.975 250.621 321.077 246.047C322.179 241.473 334.853 238.88 336.452 240.345C338.052 241.81 337.791 242.595 344.127 246.01C350.462 249.425 368.62 253.397 372.507 257.827C376.393 262.257 377.117 265.186 369.039 265.186C365.242 265.186 348.615 265.186 344.053 265.186C339.568 263.536 338.06 262.647 335.546 261.12C335.033 263.034 335.546 264.663 335.546 264.663H324.785C324.785 264.663 322.541 259.919 321.809 256.531Z" fill="url(#paint9_linear)"/>
<mask id="mask3" mask-type="alpha" maskUnits="userSpaceOnUse" x="320" y="239" width="56" height="27">
<path fill-rule="evenodd" clip-rule="evenodd" d="M321.809 256.531C321.077 253.142 319.975 250.621 321.077 246.047C322.179 241.473 334.853 238.88 336.452 240.345C338.052 241.81 337.791 242.595 344.127 246.01C350.462 249.425 368.62 253.397 372.507 257.827C376.393 262.257 377.117 265.186 369.039 265.186C365.242 265.186 348.615 265.186 344.053 265.186C339.568 263.536 338.06 262.647 335.546 261.12C335.033 263.034 335.546 264.663 335.546 264.663H324.785C324.785 264.663 322.541 259.919 321.809 256.531Z" fill="white"/>
</mask>
<g mask="url(#mask3)">
<g opacity="0.2">
<path fill-rule="evenodd" clip-rule="evenodd" d="M321.479 262.493C323.809 256.515 332.892 245.362 335.523 241.732C338.155 238.103 318.086 246.01 318.086 246.01C318.086 246.01 319.149 268.471 321.479 262.493Z" fill="#3D82F0" style="mix-blend-mode:multiply"/>
</g>
</g>
<path fill-rule="evenodd" clip-rule="evenodd" d="M342.91 166.175C340.54 163.926 338.338 162.553 336.788 158.391C335.239 154.23 343.87 145.381 345.906 145.662C347.943 145.944 348.152 146.696 354.957 145.948C361.762 145.2 373.934 136.88 379.344 138.242C384.753 139.605 389.609 139.633 383.235 143.983C380.239 146.028 368.64 158.49 365.039 160.948C360.628 162.076 358.968 162.195 356.176 162.358C356.784 164.127 358.05 165.122 358.05 165.122L349.559 170.917C349.559 170.917 345.279 168.424 342.91 166.175Z" fill="url(#paint10_linear)"/>
<mask id="mask4" mask-type="alpha" maskUnits="userSpaceOnUse" x="336" y="138" width="51" height="33">
<path fill-rule="evenodd" clip-rule="evenodd" d="M342.91 166.175C340.54 163.926 338.338 162.553 336.788 158.391C335.239 154.23 343.87 145.381 345.906 145.662C347.943 145.944 348.152 146.696 354.957 145.948C361.762 145.2 373.934 136.88 379.344 138.242C384.753 139.605 389.609 139.633 383.235 143.983C380.239 146.028 368.64 158.49 365.039 160.948C360.628 162.076 358.968 162.195 356.176 162.358C356.784 164.127 358.05 165.122 358.05 165.122L349.559 170.917C349.559 170.917 345.279 168.424 342.91 166.175Z" fill="white"/>
</mask>
<g mask="url(#mask4)">
<g opacity="0.2">
<path fill-rule="evenodd" clip-rule="evenodd" d="M345.718 169.967C342.333 162.482 345.82 145.595 344.276 144.099C342.732 142.604 335.182 156.184 335.182 156.184C335.182 156.184 331.591 159.986 337.361 165.671C343.131 171.355 349.103 177.452 345.718 169.967Z" fill="#617FC8" style="mix-blend-mode:multiply"/>
</g>
</g>
<g filter="url(#filter1_i)">
<path fill-rule="evenodd" clip-rule="evenodd" d="M187.815 83.4788C204.414 74.66 213.872 48.9157 220.728 41.6768C227.584 34.438 230.611 48.2875 229.478 52.3648C228.345 56.4422 219.989 83.8473 202.549 105.98C202.549 120.439 185.67 95.0804 187.815 83.4788Z" fill="url(#paint11_linear)"/>
</g>
<path fill-rule="evenodd" clip-rule="evenodd" d="M180.051 54.3185C180.051 54.3185 219.868 38.6292 225.251 39.6664C230.634 40.7036 214.546 58.986 211.254 60.4612C207.963 61.9365 203.489 65.5356 198.538 65.6638C193.588 65.792 182.208 68.2341 182.208 68.2341L180.051 54.3185Z" fill="url(#paint12_linear)"/>
<g filter="url(#filter2_i)">
<path fill-rule="evenodd" clip-rule="evenodd" d="M189.754 170.847C194.601 164.307 206.469 150.665 232.017 145.695C257.564 140.725 281.028 136.085 324.096 148.897C327.642 190.484 331.683 232.353 335.761 240.833C332.65 244.618 321.414 247.51 314.822 247.51C312.431 238.147 304.937 215.59 301.131 204.433C297.324 193.276 295.974 179.426 296.709 174.543C283.73 178.23 257.144 189.439 247.823 192.759C238.502 196.08 206.521 206.607 195.935 198.132C185.349 189.657 184.906 177.387 189.754 170.847Z" fill="url(#paint13_linear)"/>
</g>
<mask id="mask5" mask-type="alpha" maskUnits="userSpaceOnUse" x="186" y="140" width="150" height="108">
<path fill-rule="evenodd" clip-rule="evenodd" d="M189.754 170.847C194.601 164.307 206.469 150.665 232.017 145.695C257.564 140.725 281.028 136.085 324.096 148.897C327.642 190.484 331.683 232.353 335.761 240.833C332.65 244.618 321.414 247.51 314.822 247.51C312.431 238.147 304.937 215.59 301.131 204.433C297.324 193.276 295.974 179.426 296.709 174.543C283.73 178.23 257.144 189.439 247.823 192.759C238.502 196.08 206.521 206.607 195.935 198.132C185.349 189.657 184.906 177.387 189.754 170.847Z" fill="white"/>
</mask>
<g mask="url(#mask5)">
<g opacity="0.3">
<path fill-rule="evenodd" clip-rule="evenodd" d="M278.189 182.203C278.189 176.413 293.078 145.851 297.065 142.584C301.052 139.317 289.212 139.803 289.212 139.803C289.212 139.803 262.239 167.373 258.697 182.203C255.155 197.033 278.189 187.994 278.189 182.203Z" fill="url(#paint14_linear)" style="mix-blend-mode:multiply"/>
</g>
</g>
<path fill-rule="evenodd" clip-rule="evenodd" d="M158.155 87.1142C156.891 80.6789 154.453 69.3989 153.966 66.9887C153.48 64.5784 177.059 72.9038 177.059 72.9038L180.024 88.6826L183.418 115.368C183.418 115.368 159.419 93.5495 158.155 87.1142Z" fill="url(#paint15_linear)"/>
<mask id="mask6" mask-type="alpha" maskUnits="userSpaceOnUse" x="153" y="66" width="31" height="50">
<path fill-rule="evenodd" clip-rule="evenodd" d="M158.155 87.1142C156.891 80.6789 154.453 69.3989 153.966 66.9887C153.48 64.5784 177.059 72.9038 177.059 72.9038L180.024 88.6826L183.418 115.368C183.418 115.368 159.419 93.5495 158.155 87.1142Z" fill="white"/>
</mask>
<g mask="url(#mask6)">
<g opacity="0.2">
<path fill-rule="evenodd" clip-rule="evenodd" d="M154.801 67.3343C154.801 69.8063 163.896 80.3773 168.81 83.2751C173.723 86.173 182.576 85.9045 182.576 85.9045L181.227 71.6694L154.801 64.8691C154.801 64.8691 154.801 64.8623 154.801 67.3343Z" fill="#7890CB" style="mix-blend-mode:multiply"/>
</g>
</g>
<path fill-rule="evenodd" clip-rule="evenodd" d="M178.857 81.7012C178.857 81.7012 187.934 83.1793 188.559 84.3155C194.462 88.6051 200.142 101.372 202.567 107.986C204.991 114.6 209.642 121.43 213.833 126.74C218.025 132.051 220.036 133.147 225.528 137.076C231.021 141.005 233.038 144.122 229.93 147.052C226.822 149.981 208.922 148.844 196.181 164.772C185.049 169.337 185.063 171.007 181.756 161.142C178.449 151.276 151.255 126.61 146.844 123.133C142.433 119.656 144.137 116.316 143.025 105.666C141.913 95.0174 133.894 86.3828 140.639 86.3828C145.955 88.3625 151.133 84.3155 153.47 84.3155C161.986 86.4366 163.925 94.822 167.46 93.0636C170.995 91.3051 173.259 91.3051 173.259 91.3051C174.084 92.9793 174.349 95.847 175.174 97.5213C175.999 99.1955 179.45 102.554 180.983 105.666L178.272 96.6079L179.028 91.1915L178.857 81.7012Z" fill="white"/>
<path fill-rule="evenodd" clip-rule="evenodd" d="M178.857 81.7012C178.857 81.7012 187.934 83.1793 188.559 84.3155C194.462 88.6051 200.142 101.372 202.567 107.986C204.991 114.6 209.642 121.43 213.833 126.74C218.025 132.051 220.036 133.147 225.528 137.076C231.021 141.005 233.038 144.122 229.93 147.052C226.822 149.981 208.922 148.844 196.181 164.772C185.049 169.337 185.063 171.007 181.756 161.142C178.449 151.276 151.255 126.61 146.844 123.133C142.433 119.656 144.137 116.316 143.025 105.666C141.913 95.0174 133.894 86.3828 140.639 86.3828C145.955 88.3625 151.133 84.3155 153.47 84.3155C161.986 86.4366 163.925 94.822 167.46 93.0636C170.995 91.3051 173.259 91.3051 173.259 91.3051C174.084 92.9793 174.349 95.847 175.174 97.5213C175.999 99.1955 179.45 102.554 180.983 105.666L178.272 96.6079L179.028 91.1915L178.857 81.7012Z" fill="url(#paint16_linear)"/>
<mask id="mask7" mask-type="alpha" maskUnits="userSpaceOnUse" x="137" y="81" width="95" height="88">
<path fill-rule="evenodd" clip-rule="evenodd" d="M178.857 81.7012C178.857 81.7012 187.934 83.1793 188.559 84.3155C194.462 88.6051 200.142 101.372 202.567 107.986C204.991 114.6 209.642 121.43 213.833 126.74C218.025 132.051 220.036 133.147 225.528 137.076C231.021 141.005 233.038 144.122 229.93 147.052C226.822 149.981 208.922 148.844 196.181 164.772C185.049 169.337 185.063 171.007 181.756 161.142C178.449 151.276 151.255 126.61 146.844 123.133C142.433 119.656 144.137 116.316 143.025 105.666C141.913 95.0174 133.894 86.3828 140.639 86.3828C145.955 88.3625 151.133 84.3155 153.47 84.3155C161.986 86.4366 163.925 94.822 167.46 93.0636C170.995 91.3051 173.259 91.3051 173.259 91.3051C174.084 92.9793 174.349 95.847 175.174 97.5213C175.999 99.1955 179.45 102.554 180.983 105.666L178.272 96.6079L179.028 91.1915L178.857 81.7012Z" fill="white"/>
<path fill-rule="evenodd" clip-rule="evenodd" d="M178.857 81.7012C178.857 81.7012 187.934 83.1793 188.559 84.3155C194.462 88.6051 200.142 101.372 202.567 107.986C204.991 114.6 209.642 121.43 213.833 126.74C218.025 132.051 220.036 133.147 225.528 137.076C231.021 141.005 233.038 144.122 229.93 147.052C226.822 149.981 208.922 148.844 196.181 164.772C185.049 169.337 185.063 171.007 181.756 161.142C178.449 151.276 151.255 126.61 146.844 123.133C142.433 119.656 144.137 116.316 143.025 105.666C141.913 95.0174 133.894 86.3828 140.639 86.3828C145.955 88.3625 151.133 84.3155 153.47 84.3155C161.986 86.4366 163.925 94.822 167.46 93.0636C170.995 91.3051 173.259 91.3051 173.259 91.3051C174.084 92.9793 174.349 95.847 175.174 97.5213C175.999 99.1955 179.45 102.554 180.983 105.666L178.272 96.6079L179.028 91.1915L178.857 81.7012Z" stroke="white"/>
</mask>
<g mask="url(#mask7)">
<path opacity="0.6" fill-rule="evenodd" clip-rule="evenodd" d="M179.209 105.266C180.027 106.884 188.985 122.369 190.888 124.596C192.792 126.823 199.031 133.028 201.437 135.377C203.844 137.725 218.593 146.975 218.768 149.874" fill="black" fill-opacity="0.01"/>
<path opacity="0.6" fill-rule="evenodd" clip-rule="evenodd" d="M189.916 125.4L189.916 125.4C189.369 124.74 188.416 123.247 187.346 121.486C186.248 119.68 184.954 117.471 183.697 115.288C181.197 110.947 178.792 106.619 178.368 105.754L179.679 105.09C180.475 106.71 189.185 122.211 191.036 124.44C192.887 126.669 198.954 132.88 201.294 135.231C202.047 135.988 204.044 137.46 206.411 139.206C208.977 141.098 211.979 143.312 214.304 145.283L218.147 149.744L216.684 149.832C216.686 149.861 216.688 149.876 216.686 149.876C216.68 149.878 216.624 149.7 216.316 149.301C215.974 148.857 215.456 148.31 214.779 147.678C213.43 146.418 211.597 144.951 209.655 143.471C208.275 142.42 206.867 141.382 205.56 140.418C205.029 140.026 204.515 139.647 204.026 139.284C202.39 138.07 200.946 136.975 200.264 136.289C197.941 133.956 191.819 127.692 189.916 125.4ZM209.365 139.549C210.045 140.055 210.734 140.572 211.414 141.09C213.371 142.581 215.301 144.121 216.763 145.487C217.491 146.167 218.14 146.838 218.623 147.465C219.054 148.024 219.56 148.801 219.61 149.655L218.147 149.744C218.091 148.788 216.499 147.143 214.304 145.283L209.365 139.549ZM184.372 110.538L179.679 105.09L180.99 104.426C181.267 104.99 182.645 107.489 184.372 110.538Z" fill="#D9E8FF"/>
<path opacity="0.3" fill-rule="evenodd" clip-rule="evenodd" d="M168.397 102.742C168.397 102.742 172.54 95.4879 174.953 95.4879C177.366 95.4879 174.108 88.4336 174.108 88.4336L166.584 93.911L168.397 102.742Z" fill="#CCDFFD"/>
</g>
<path fill-rule="evenodd" clip-rule="evenodd" d="M229.066 143.282C242.528 130.995 281.062 107.215 303.037 103.584C315.626 105.666 348.386 140.971 348.386 140.971C346.909 142.518 343.015 156.241 336.865 160.555C321.377 147.771 305.229 141.802 300.893 135.192C295.485 138.466 281.582 148.026 273.585 162.071C265.588 176.116 260.283 192.118 251.17 192.518C242.057 192.919 229.205 193.954 217.367 186.38C210.491 181.981 190.696 172.177 200.313 165.753C205.824 162.071 223.422 148.433 229.066 143.282Z" fill="url(#paint17_linear)"/>
<path fill-rule="evenodd" clip-rule="evenodd" d="M177.015 40.5555C177.933 42.8185 182.972 52.7503 183.458 55.2259C183.943 57.7016 188.738 74.2152 185.882 76.7581C183.025 79.3012 174.459 80.5888 172.066 79.7744C169.672 78.9601 164.526 78.4384 162.521 75.0037C160.981 72.3639 156.086 66.2361 154.802 66.5869C154.333 67.5281 152.698 68.5337 151.88 67.8876C148.343 65.0961 145.311 62.0727 146.75 55.2259C148.189 48.3791 153.235 45.001 158.645 42.7783C164.055 40.5555 176.097 38.2926 177.015 40.5555Z" fill="url(#paint18_linear)"/>
<path fill-rule="evenodd" clip-rule="evenodd" d="M115.795 78.7527C122.285 81.3655 143.301 70.9651 149.97 71.8887C156.101 72.7378 148.322 63.2039 146.02 61.5169C143.718 59.8298 97.6851 60.5944 95.2688 64.1154C92.8527 67.6365 110.414 76.5857 115.795 78.7527Z" fill="url(#paint19_linear)"/>
<mask id="mask8" mask-type="alpha" maskUnits="userSpaceOnUse" x="95" y="60" width="58" height="20">
<path fill-rule="evenodd" clip-rule="evenodd" d="M115.795 78.7527C122.285 81.3655 143.301 70.9651 149.97 71.8887C156.101 72.7378 148.322 63.2039 146.02 61.5169C143.718 59.8298 97.6851 60.5944 95.2688 64.1154C92.8527 67.6365 110.414 76.5857 115.795 78.7527Z" fill="white"/>
</mask>
<g mask="url(#mask8)">
<path opacity="0.5" fill-rule="evenodd" clip-rule="evenodd" d="M102.684 64.0359C104.074 64.5457 132.262 76.9308 139.236 75.2153C146.211 73.4998 121.857 81.7006 121.857 81.7006C121.857 81.7006 101.294 63.5261 102.684 64.0359Z" fill="#6B84C2"/>
</g>
<g filter="url(#filter3_i)">
<path fill-rule="evenodd" clip-rule="evenodd" d="M157.871 55.3809C157.871 55.3809 154.788 50.6033 157.171 45.8648C159.555 41.1264 172.136 47.4465 182.326 35.7637C192.515 24.0809 183.461 8.315 172.986 11.3899C162.511 14.4647 165.079 19.9724 166.978 24.0809C168.877 28.1895 159.107 29.7326 152.12 32.6247C145.133 35.5169 139.43 43.2988 140.661 55.3809C141.892 67.4629 152.882 77.3555 156.379 79.1757C155.362 72.0358 155.317 68.7553 155.317 66.7668C151.305 68.6575 146.632 59.2812 149.353 56.8145C154.55 52.1024 157.171 62.8351 157.171 62.8351C157.171 62.8351 157.871 61.307 159.107 59.8586C158.636 57.2737 157.871 55.3809 157.871 55.3809Z" fill="url(#paint20_linear)"/>
</g>
<path fill-rule="evenodd" clip-rule="evenodd" d="M179.094 90.4315C182.215 91.581 182.813 97.5575 183.349 99.243C183.885 100.928 181.099 86.0323 181.099 86.0323C180.119 87.4337 178.022 77.9208 178.416 79.316C179.477 83.0673 178.588 87.3168 179.094 90.4315Z" fill="#CCDFFD"/>
<path fill-rule="evenodd" clip-rule="evenodd" d="M168.701 106.107C168.701 100.732 170.767 93.6835 173.318 91.1689C169.619 91.405 158.738 84.6807 157.576 80.9324C156.415 77.1841 156.199 76.6484 156.199 76.6484C156.199 76.6484 153.959 81.1314 153.959 83.9746C155.544 90.1431 162.615 100.851 168.701 106.107Z" fill="url(#paint21_linear)"/>
<g filter="url(#filter4_i)">
<path fill-rule="evenodd" clip-rule="evenodd" d="M136.29 84.8742C125.359 78.8901 103.522 61.8772 97.7823 63.2658C92.0428 64.6543 93.5323 67.2338 93.5323 73.1504C93.5323 79.067 123.528 99.0474 128.147 108.934C130.124 113.166 135.189 123.62 144.256 121.917C153.322 120.213 150.572 111.242 148.618 104.006C146.321 95.4999 143.022 88.5592 136.29 84.8742Z" fill="url(#paint22_linear)"/>
</g>
<path fill-rule="evenodd" clip-rule="evenodd" d="M165.743 55.3634C167.762 55.9439 170.286 55.5192 171.635 53.9277Z" fill="black" fill-opacity="0.01"/>
<path fill-rule="evenodd" clip-rule="evenodd" d="M171.453 54.07C171.68 54.2721 171.696 54.6148 171.488 54.8354C170.016 56.3957 167.367 56.7532 165.315 56.2232C165.018 56.1462 164.841 55.8495 164.92 55.5603C164.999 55.2712 165.305 55.0992 165.602 55.1761C167.401 55.6408 169.564 55.2704 170.665 54.1035C170.873 53.8829 171.226 53.8679 171.453 54.07Z" fill="#143B8C"/>
<path fill-rule="evenodd" clip-rule="evenodd" d="M180.893 51.1545C182.624 51.7349 184.787 51.3102 185.943 49.7188Z" fill="black" fill-opacity="0.01"/>
<path fill-rule="evenodd" clip-rule="evenodd" d="M186.576 49.8357C186.814 50.0213 186.855 50.362 186.666 50.5967C185.392 52.1804 183.079 52.5531 181.282 52.0085C180.991 51.9204 180.828 51.6172 180.918 51.3312C181.007 51.0453 181.315 50.8849 181.606 50.973C183.092 51.4231 184.882 51.0679 185.802 49.9244C185.991 49.6897 186.337 49.65 186.576 49.8357Z" fill="#143B8C"/>
<path fill-rule="evenodd" clip-rule="evenodd" d="M161.534 52.1086L163.584 61.5001L175.001 58.6569L173.281 48.875L161.534 52.1086Z" fill="black" fill-opacity="0.01"/>
<path fill-rule="evenodd" clip-rule="evenodd" d="M173.86 48.0332L175.843 59.1912L163.058 62.3417L160.693 51.6198L173.86 48.0332ZM162.44 52.7055L164.163 60.5172L174.147 58.0569L172.7 49.9109L162.44 52.7055Z" fill="#143B8C"/>
<path fill-rule="evenodd" clip-rule="evenodd" d="M178.368 47.9824L180.172 57.2913L188.468 54.8236L186.954 45.5078L178.368 47.9824Z" fill="black" fill-opacity="0.01"/>
<path fill-rule="evenodd" clip-rule="evenodd" d="M187.552 44.668L189.31 55.3019L179.622 58.1348L177.527 47.5083L187.552 44.668ZM179.197 48.5541L180.723 56.2904L187.682 54.2556L186.401 46.513L179.197 48.5541Z" fill="#143B8C"/>
<path fill-rule="evenodd" clip-rule="evenodd" d="M161.546 53.9277L154.801 55.5303L155.929 57.4841L163.218 58.9778L161.546 53.9277Z" fill="#143B8C"/>
<path fill-rule="evenodd" clip-rule="evenodd" d="M173.318 52.1465L178.626 50.5605L179.21 53.2786L173.699 54.7689L173.318 52.1465Z" fill="#143B8C"/>
<path fill-rule="evenodd" clip-rule="evenodd" d="M165.665 187.216C215.765 218.514 267.507 221.935 284.905 194.1C305.798 153.522 234.155 171.079 184.055 139.781C133.955 108.483 135.194 82.3579 100.636 69.916C83.2385 97.7512 115.565 155.918 165.665 187.216Z" fill="black" fill-opacity="0.01"/>
<mask id="mask9" mask-type="alpha" maskUnits="userSpaceOnUse" x="95" y="69" width="194" height="145">
<path fill-rule="evenodd" clip-rule="evenodd" d="M165.665 187.216C215.765 218.514 267.507 221.935 284.905 194.1C305.798 153.522 234.155 171.079 184.055 139.781C133.955 108.483 135.194 82.3579 100.636 69.916C83.2385 97.7512 115.565 155.918 165.665 187.216Z" fill="white"/>
</mask>
<g mask="url(#mask9)">
<g filter="url(#filter5_i)">
<path fill-rule="evenodd" clip-rule="evenodd" d="M76.2876 147.089C102.488 164.025 132.502 164.307 143.324 147.719C154.147 131.13 141.681 103.953 115.48 87.0162C89.2791 70.0797 59.2656 69.7976 48.4429 86.3862C37.6203 102.975 50.0867 130.152 76.2876 147.089Z" fill="#EEF5FF"/>
</g>
<g filter="url(#filter6_i)">
<path fill-rule="evenodd" clip-rule="evenodd" d="M168.025 215.262C187.411 206.297 193.438 178.423 181.486 153.004C169.534 127.585 144.13 114.247 124.744 123.212C105.358 132.177 99.3309 160.051 111.283 185.47C123.234 210.889 148.639 224.227 168.025 215.262Z" fill="#EEF5FF"/>
</g>
<g filter="url(#filter7_i)">
<path fill-rule="evenodd" clip-rule="evenodd" d="M217.883 258.188C237.071 249.223 243.037 221.349 231.207 195.93C219.377 170.511 194.232 157.173 175.044 166.138C155.855 175.103 149.89 202.977 161.72 228.396C173.55 253.815 198.695 267.153 217.883 258.188Z" fill="#EEF5FF"/>
</g>
<g filter="url(#filter8_i)">
<path fill-rule="evenodd" clip-rule="evenodd" d="M311.309 272.495C330.498 263.529 336.463 235.655 324.633 210.237C312.803 184.818 287.658 171.479 268.47 180.444C249.282 189.41 243.316 217.284 255.146 242.702C266.976 268.121 292.121 281.46 311.309 272.495Z" fill="#EEF5FF"/>
</g>
<g filter="url(#filter9_i)">
<path fill-rule="evenodd" clip-rule="evenodd" d="M245.069 244.605C266.126 247.222 284.797 236.136 286.774 219.846C288.75 203.555 273.283 188.228 252.226 185.611C231.17 182.994 212.498 194.08 210.522 210.37C208.545 226.661 224.013 241.988 245.069 244.605Z" fill="#EEF5FF"/>
</g>
</g>
<path fill-rule="evenodd" clip-rule="evenodd" d="M186.784 107.372C186.784 107.372 195.565 105.693 196.618 104.499C197.671 103.305 203.618 117.103 203.618 117.103L200.73 120.418H193.848L186.784 107.372Z" fill="url(#paint23_linear)"/>
<path opacity="0.2" fill-rule="evenodd" clip-rule="evenodd" d="M55.5162 251.031C72.4395 251.031 86.1585 253.987 86.1585 257.633C86.1585 261.279 72.4395 264.235 55.5162 264.235C38.5929 264.235 24.8738 261.279 24.8738 257.633C24.8738 253.987 38.5929 251.031 55.5162 251.031Z" fill="#BBCFF2"/>
<path fill-rule="evenodd" clip-rule="evenodd" d="M84.0118 225.213C85.933 228.582 87.0091 232.356 87.0091 236.342C87.0091 250.572 73.2901 262.109 56.3668 262.109C39.4434 262.109 25.7245 250.572 25.7245 236.342C25.7245 232.124 26.9295 228.143 29.0659 224.629C42.6403 226.779 69.6593 226.641 84.0118 225.213Z" fill="url(#paint24_linear)"/>
<mask id="mask10" mask-type="alpha" maskUnits="userSpaceOnUse" x="25" y="224" width="63" height="39">
<path fill-rule="evenodd" clip-rule="evenodd" d="M84.0118 225.213C85.933 228.582 87.0091 232.356 87.0091 236.342C87.0091 250.572 73.2901 262.109 56.3668 262.109C39.4434 262.109 25.7245 250.572 25.7245 236.342C25.7245 232.124 26.9295 228.143 29.0659 224.629C42.6403 226.779 69.6593 226.641 84.0118 225.213Z" fill="white"/>
</mask>
<g mask="url(#mask10)">
</g>
<path fill-rule="evenodd" clip-rule="evenodd" d="M56.5802 219.516C71.9758 219.516 84.4563 222.471 84.4563 226.117C84.4563 229.763 71.9758 232.719 56.5802 232.719C41.1847 232.719 28.7042 229.763 28.7042 226.117C28.7042 222.471 41.1847 219.516 56.5802 219.516Z" fill="url(#paint25_linear)"/>
<mask id="mask11" mask-type="alpha" maskUnits="userSpaceOnUse" x="28" y="219" width="57" height="14">
<path fill-rule="evenodd" clip-rule="evenodd" d="M56.5802 219.516C71.9758 219.516 84.4563 222.471 84.4563 226.117C84.4563 229.763 71.9758 232.719 56.5802 232.719C41.1847 232.719 28.7042 229.763 28.7042 226.117C28.7042 222.471 41.1847 219.516 56.5802 219.516Z" fill="white"/>
</mask>
<g mask="url(#mask11)">
</g>
<g filter="url(#filter10_i)">
<path fill-rule="evenodd" clip-rule="evenodd" d="M54.2406 220.367C52.7182 209.824 48.5304 194.6 35.9403 178.202C28.5238 168.543 28.4996 145.02 27.4286 142.426C33.2481 144.429 43.7023 149.591 54.2406 164.147C65.2876 179.406 58.2795 210.524 54.2406 220.367Z" fill="url(#paint26_linear)"/>
</g>
<mask id="mask12" mask-type="alpha" maskUnits="userSpaceOnUse" x="27" y="142" width="34" height="79">
<path fill-rule="evenodd" clip-rule="evenodd" d="M54.2406 220.367C52.7182 209.824 48.5304 194.6 35.9403 178.202C28.5238 168.543 28.4996 145.02 27.4286 142.426C33.2481 144.429 43.7023 149.591 54.2406 164.147C65.2876 179.406 58.2795 210.524 54.2406 220.367Z" fill="white"/>
</mask>
<g mask="url(#mask12)">
<g style="mix-blend-mode:multiply" opacity="0.5">
<path d="M52.4911 206.839L45.2266 172.436C49.9041 182.193 52.137 192.94 52.4911 206.839Z" fill="black" fill-opacity="0.01"/>
<path d="M52.4911 206.839L45.2266 172.436C49.9041 182.193 52.137 192.94 52.4911 206.839Z" stroke="#489C71" stroke-width="3"/>
</g>
</g>
<g filter="url(#filter11_i)">
<path fill-rule="evenodd" clip-rule="evenodd" d="M54.2873 231.189C49.5841 223.661 41.2745 213.458 26.1592 205.186C17.2552 200.314 9.33513 182.383 7.6464 180.765C12.7599 180.336 22.4713 180.758 35.4024 188.315C48.9576 196.238 54.0631 222.325 54.2873 231.189Z" fill="url(#paint27_linear)"/>
</g>
<mask id="mask13" mask-type="alpha" maskUnits="userSpaceOnUse" x="7" y="180" width="48" height="52">
<path fill-rule="evenodd" clip-rule="evenodd" d="M54.2873 231.189C49.5841 223.661 41.2745 213.458 26.1592 205.186C17.2552 200.314 9.33513 182.383 7.6464 180.765C12.7599 180.336 22.4713 180.758 35.4024 188.315C48.9576 196.238 54.0631 222.325 54.2873 231.189Z" fill="white"/>
</mask>
<g mask="url(#mask13)">
<g style="mix-blend-mode:multiply" opacity="0.5">
<path d="M46.9046 218.946L32.8344 199.368C38.2849 204.445 42.7551 210.691 46.9046 218.946Z" fill="black" fill-opacity="0.01"/>
<path d="M46.9046 218.946L32.8344 199.368C38.2849 204.445 42.7551 210.691 46.9046 218.946Z" stroke="#489C71" stroke-width="3"/>
</g>
</g>
<g filter="url(#filter12_i)">
<path fill-rule="evenodd" clip-rule="evenodd" d="M57.6623 232.22C61.3706 224.117 68.3246 212.886 82.3077 202.698C90.5448 196.697 96.1085 177.821 97.5807 175.992C92.4316 176.224 82.8131 177.898 70.913 187.092C58.4384 196.73 56.7361 223.365 57.6623 232.22Z" fill="url(#paint28_linear)"/>
</g>
<mask id="mask14" mask-type="alpha" maskUnits="userSpaceOnUse" x="57" y="175" width="41" height="58">
<path fill-rule="evenodd" clip-rule="evenodd" d="M57.6623 232.22C61.3706 224.117 68.3246 212.886 82.3077 202.698C90.5448 196.697 96.1085 177.821 97.5807 175.992C92.4316 176.224 82.8131 177.898 70.913 187.092C58.4384 196.73 56.7361 223.365 57.6623 232.22Z" fill="white"/>
</mask>
<g mask="url(#mask14)">
<g style="mix-blend-mode:multiply" opacity="0.5">
<path d="M73.5204 197.592L61.9702 219.04C65.0484 210.217 68.7123 203.381 73.5204 197.592Z" fill="black" fill-opacity="0.01"/>
<path d="M73.5204 197.592L61.9702 219.04C65.0484 210.217 68.7123 203.381 73.5204 197.592Z" stroke="#489C71" stroke-width="3"/>
</g>
</g>
<g opacity="0.6">
<path fill-rule="evenodd" clip-rule="evenodd" d="M26.6136 -0.925658C41.1865 -0.925658 53.0001 10.8968 53.0001 25.4805C53.0001 40.0642 41.1865 51.8866 26.6136 51.8866C12.0408 51.8866 0.227153 40.0642 0.227153 25.4805C0.227153 10.8968 12.0408 -0.925658 26.6136 -0.925658Z" fill="url(#paint29_linear)"/>
<mask id="mask15" mask-type="alpha" maskUnits="userSpaceOnUse" x="0" y="-1" width="53" height="53">
<path fill-rule="evenodd" clip-rule="evenodd" d="M26.6136 -0.925658C41.1865 -0.925658 53.0001 10.8968 53.0001 25.4805C53.0001 40.0642 41.1865 51.8866 26.6136 51.8866C12.0408 51.8866 0.227153 40.0642 0.227153 25.4805C0.227153 10.8968 12.0408 -0.925658 26.6136 -0.925658Z" fill="white"/>
</mask>
<g mask="url(#mask15)">
</g>
<mask id="path-84-inside-1" fill="white">
<path fill-rule="evenodd" clip-rule="evenodd" d="M26.9323 7.44896V26.4485L35.6205 35.1432"/>
</mask>
<path d="M32.9323 7.44896C32.9323 4.13525 30.246 1.44896 26.9323 1.44896C23.6186 1.44896 20.9323 4.13525 20.9323 7.44896H32.9323ZM26.9323 26.4485H20.9323C20.9323 28.039 21.5638 29.5644 22.688 30.6895L26.9323 26.4485ZM31.3763 39.3842C33.7185 41.7282 37.5175 41.7297 39.8616 39.3874C42.2056 37.0451 42.207 33.2461 39.8647 30.9021L31.3763 39.3842ZM20.9323 7.44896V26.4485H32.9323V7.44896H20.9323ZM22.688 30.6895L31.3763 39.3842L39.8647 30.9021L31.1765 22.2074L22.688 30.6895Z" fill="white" mask="url(#path-84-inside-1)"/>
</g>
</g>
<defs>
<filter id="filter0_f" x="45.5602" y="4.44398" width="286.656" height="272.348" filterUnits="userSpaceOnUse" color-interpolation-filters="sRGB">
<feFlood flood-opacity="0" result="BackgroundImageFix"/>
<feBlend mode="normal" in="SourceGraphic" in2="BackgroundImageFix" result="shape"/>
<feGaussianBlur stdDeviation="49.9909" result="effect1_foregroundBlur"/>
</filter>
<filter id="filter1_i" x="187.626" y="39.6172" width="42.0838" height="71.7007" filterUnits="userSpaceOnUse" color-interpolation-filters="sRGB">
<feFlood flood-opacity="0" result="BackgroundImageFix"/>
<feBlend mode="normal" in="SourceGraphic" in2="BackgroundImageFix" result="shape"/>
<feColorMatrix in="SourceAlpha" type="matrix" values="0 0 0 0 0 0 0 0 0 0 0 0 0 0 0 0 0 0 127 0" result="hardAlpha"/>
<feOffset dy="1"/>
<feGaussianBlur stdDeviation="6"/>
<feComposite in2="hardAlpha" operator="arithmetic" k2="-1" k3="1"/>
<feColorMatrix type="matrix" values="0 0 0 0 0.898039 0 0 0 0 0.941176 0 0 0 0 1 0 0 0 1 0"/>
<feBlend mode="normal" in2="shape" result="effect1_innerShadow"/>
</filter>
<filter id="filter2_i" x="186.784" y="140.617" width="164.976" height="110.893" filterUnits="userSpaceOnUse" color-interpolation-filters="sRGB">
<feFlood flood-opacity="0" result="BackgroundImageFix"/>
<feBlend mode="normal" in="SourceGraphic" in2="BackgroundImageFix" result="shape"/>
<feColorMatrix in="SourceAlpha" type="matrix" values="0 0 0 0 0 0 0 0 0 0 0 0 0 0 0 0 0 0 127 0" result="hardAlpha"/>
<feOffset dx="16" dy="4"/>
<feGaussianBlur stdDeviation="14"/>
<feComposite in2="hardAlpha" operator="arithmetic" k2="-1" k3="1"/>
<feColorMatrix type="matrix" values="0 0 0 0 0.103708 0 0 0 0 0.317385 0 0 0 0 0.809604 0 0 0 1 0"/>
<feBlend mode="normal" in2="shape" result="effect1_innerShadow"/>
</filter>
<filter id="filter3_i" x="140.493" y="11" width="59.2921" height="80.1757" filterUnits="userSpaceOnUse" color-interpolation-filters="sRGB">
<feFlood flood-opacity="0" result="BackgroundImageFix"/>
<feBlend mode="normal" in="SourceGraphic" in2="BackgroundImageFix" result="shape"/>
<feColorMatrix in="SourceAlpha" type="matrix" values="0 0 0 0 0 0 0 0 0 0 0 0 0 0 0 0 0 0 127 0" result="hardAlpha"/>
<feOffset dx="13" dy="12"/>
<feGaussianBlur stdDeviation="9"/>
<feComposite in2="hardAlpha" operator="arithmetic" k2="-1" k3="1"/>
<feColorMatrix type="matrix" values="0 0 0 0 0 0 0 0 0 0 0 0 0 0 0 0 0 0 0.139889 0"/>
<feBlend mode="normal" in2="shape" result="effect1_innerShadow"/>
</filter>
<filter id="filter4_i" x="93.3584" y="55.1855" width="69.2339" height="66.9173" filterUnits="userSpaceOnUse" color-interpolation-filters="sRGB">
<feFlood flood-opacity="0" result="BackgroundImageFix"/>
<feBlend mode="normal" in="SourceGraphic" in2="BackgroundImageFix" result="shape"/>
<feColorMatrix in="SourceAlpha" type="matrix" values="0 0 0 0 0 0 0 0 0 0 0 0 0 0 0 0 0 0 127 0" result="hardAlpha"/>
<feOffset dx="18" dy="-8"/>
<feGaussianBlur stdDeviation="6"/>
<feComposite in2="hardAlpha" operator="arithmetic" k2="-1" k3="1"/>
<feColorMatrix type="matrix" values="0 0 0 0 0.898039 0 0 0 0 0.941176 0 0 0 0 1 0 0 0 1 0"/>
<feBlend mode="normal" in2="shape" result="effect1_innerShadow"/>
</filter>
<filter id="filter5_i" x="23.5415" y="53.127" width="123.684" height="106.851" filterUnits="userSpaceOnUse" color-interpolation-filters="sRGB">
<feFlood flood-opacity="0" result="BackgroundImageFix"/>
<feBlend mode="normal" in="SourceGraphic" in2="BackgroundImageFix" result="shape"/>
<feColorMatrix in="SourceAlpha" type="matrix" values="0 0 0 0 0 0 0 0 0 0 0 0 0 0 0 0 0 0 127 0" result="hardAlpha"/>
<feOffset dx="-27.5" dy="-39.3"/>
<feGaussianBlur stdDeviation="10.5"/>
<feComposite in2="hardAlpha" operator="arithmetic" k2="-1" k3="1"/>
<feColorMatrix type="matrix" values="0 0 0 0 0.580392 0 0 0 0 0.67451 0 0 0 0 0.854902 0 0 0 0.43 0"/>
<feBlend mode="normal" in2="shape" result="effect1_innerShadow"/>
</filter>
<filter id="filter6_i" x="90.2421" y="99.4199" width="97.3842" height="118.634" filterUnits="userSpaceOnUse" color-interpolation-filters="sRGB">
<feFlood flood-opacity="0" result="BackgroundImageFix"/>
<feBlend mode="normal" in="SourceGraphic" in2="BackgroundImageFix" result="shape"/>
<feColorMatrix in="SourceAlpha" type="matrix" values="0 0 0 0 0 0 0 0 0 0 0 0 0 0 0 0 0 0 127 0" result="hardAlpha"/>
<feOffset dx="-14.9" dy="-24.9"/>
<feGaussianBlur stdDeviation="10.5"/>
<feComposite in2="hardAlpha" operator="arithmetic" k2="-1" k3="1"/>
<feColorMatrix type="matrix" values="0 0 0 0 0.580392 0 0 0 0 0.67451 0 0 0 0 0.854902 0 0 0 0.43 0"/>
<feBlend mode="normal" in2="shape" result="effect1_innerShadow"/>
</filter>
<filter id="filter7_i" x="134.642" y="150.646" width="102.642" height="110.334" filterUnits="userSpaceOnUse" color-interpolation-filters="sRGB">
<feFlood flood-opacity="0" result="BackgroundImageFix"/>
<feBlend mode="normal" in="SourceGraphic" in2="BackgroundImageFix" result="shape"/>
<feColorMatrix in="SourceAlpha" type="matrix" values="0 0 0 0 0 0 0 0 0 0 0 0 0 0 0 0 0 0 127 0" result="hardAlpha"/>
<feOffset dx="-24.9" dy="-12.7"/>
<feGaussianBlur stdDeviation="10.5"/>
<feComposite in2="hardAlpha" operator="arithmetic" k2="-1" k3="1"/>
<feColorMatrix type="matrix" values="0 0 0 0 0.580392 0 0 0 0 0.67451 0 0 0 0 0.854902 0 0 0 0.43 0"/>
<feBlend mode="normal" in2="shape" result="effect1_innerShadow"/>
</filter>
<filter id="filter8_i" x="239.168" y="177.652" width="91.5425" height="110.234" filterUnits="userSpaceOnUse" color-interpolation-filters="sRGB">
<feFlood flood-opacity="0" result="BackgroundImageFix"/>
<feBlend mode="normal" in="SourceGraphic" in2="BackgroundImageFix" result="shape"/>
<feColorMatrix in="SourceAlpha" type="matrix" values="0 0 0 0 0 0 0 0 0 0 0 0 0 0 0 0 0 0 127 0" result="hardAlpha"/>
<feOffset dx="-9.9" dy="12.6"/>
<feGaussianBlur stdDeviation="10.5"/>
<feComposite in2="hardAlpha" operator="arithmetic" k2="-1" k3="1"/>
<feColorMatrix type="matrix" values="0 0 0 0 0.580392 0 0 0 0 0.67451 0 0 0 0 0.854902 0 0 0 0.43 0"/>
<feBlend mode="normal" in2="shape" result="effect1_innerShadow"/>
</filter>
<filter id="filter9_i" x="191.552" y="185.229" width="95.3924" height="62.3589" filterUnits="userSpaceOnUse" color-interpolation-filters="sRGB">
<feFlood flood-opacity="0" result="BackgroundImageFix"/>
<feBlend mode="normal" in="SourceGraphic" in2="BackgroundImageFix" result="shape"/>
<feColorMatrix in="SourceAlpha" type="matrix" values="0 0 0 0 0 0 0 0 0 0 0 0 0 0 0 0 0 0 127 0" result="hardAlpha"/>
<feOffset dx="-18.8" dy="2.6"/>
<feGaussianBlur stdDeviation="10.5"/>
<feComposite in2="hardAlpha" operator="arithmetic" k2="-1" k3="1"/>
<feColorMatrix type="matrix" values="0 0 0 0 0.580392 0 0 0 0 0.67451 0 0 0 0 0.854902 0 0 0 0.43 0"/>
<feBlend mode="normal" in2="shape" result="effect1_innerShadow"/>
</filter>
<filter id="filter10_i" x="27.4287" y="132.426" width="32.7476" height="87.9407" filterUnits="userSpaceOnUse" color-interpolation-filters="sRGB">
<feFlood flood-opacity="0" result="BackgroundImageFix"/>
<feBlend mode="normal" in="SourceGraphic" in2="BackgroundImageFix" result="shape"/>
<feColorMatrix in="SourceAlpha" type="matrix" values="0 0 0 0 0 0 0 0 0 0 0 0 0 0 0 0 0 0 127 0" result="hardAlpha"/>
<feOffset dy="-10"/>
<feGaussianBlur stdDeviation="6.5"/>
<feComposite in2="hardAlpha" operator="arithmetic" k2="-1" k3="1"/>
<feColorMatrix type="matrix" values="0 0 0 0 0.221483 0 0 0 0 0.77854 0 0 0 0 0.47323 0 0 0 1 0"/>
<feBlend mode="normal" in2="shape" result="effect1_innerShadow"/>
</filter>
<filter id="filter11_i" x="7.64648" y="170.65" width="46.6409" height="60.5388" filterUnits="userSpaceOnUse" color-interpolation-filters="sRGB">
<feFlood flood-opacity="0" result="BackgroundImageFix"/>
<feBlend mode="normal" in="SourceGraphic" in2="BackgroundImageFix" result="shape"/>
<feColorMatrix in="SourceAlpha" type="matrix" values="0 0 0 0 0 0 0 0 0 0 0 0 0 0 0 0 0 0 127 0" result="hardAlpha"/>
<feOffset dy="-10"/>
<feGaussianBlur stdDeviation="6.5"/>
<feComposite in2="hardAlpha" operator="arithmetic" k2="-1" k3="1"/>
<feColorMatrix type="matrix" values="0 0 0 0 0.221483 0 0 0 0 0.77854 0 0 0 0 0.47323 0 0 0 1 0"/>
<feBlend mode="normal" in2="shape" result="effect1_innerShadow"/>
</filter>
<filter id="filter12_i" x="57.4502" y="165.992" width="40.1307" height="66.2277" filterUnits="userSpaceOnUse" color-interpolation-filters="sRGB">
<feFlood flood-opacity="0" result="BackgroundImageFix"/>
<feBlend mode="normal" in="SourceGraphic" in2="BackgroundImageFix" result="shape"/>
<feColorMatrix in="SourceAlpha" type="matrix" values="0 0 0 0 0 0 0 0 0 0 0 0 0 0 0 0 0 0 127 0" result="hardAlpha"/>
<feOffset dy="-10"/>
<feGaussianBlur stdDeviation="6.5"/>
<feComposite in2="hardAlpha" operator="arithmetic" k2="-1" k3="1"/>
<feColorMatrix type="matrix" values="0 0 0 0 0.221483 0 0 0 0 0.77854 0 0 0 0 0.47323 0 0 0 1 0"/>
<feBlend mode="normal" in2="shape" result="effect1_innerShadow"/>
</filter>
<linearGradient id="paint0_linear" x1="654.007" y1="329.834" x2="713.911" y2="-83.4822" gradientUnits="userSpaceOnUse">
<stop stop-color="#ECF2FC"/>
<stop offset="1" stop-color="#ACCAFF"/>
</linearGradient>
<linearGradient id="paint1_linear" x1="485.737" y1="17.665" x2="508.971" y2="56.0769" gradientUnits="userSpaceOnUse">
<stop stop-color="#ACD6FF" stop-opacity="0.152485"/>
<stop offset="1" stop-color="#96ACCB" stop-opacity="0.457456"/>
</linearGradient>
<linearGradient id="paint2_linear" x1="519.718" y1="35.9551" x2="549.438" y2="86.0807" gradientUnits="userSpaceOnUse">
<stop stop-color="#ACD6FF" stop-opacity="0.152485"/>
<stop offset="1" stop-color="#96ACCB" stop-opacity="0.457456"/>
</linearGradient>
<linearGradient id="paint3_linear" x1="486.229" y1="72.0644" x2="516.279" y2="122.369" gradientUnits="userSpaceOnUse">
<stop stop-color="#ACD6FF" stop-opacity="0.152485"/>
<stop offset="1" stop-color="#96ACCB" stop-opacity="0.457456"/>
</linearGradient>
<linearGradient id="paint4_linear" x1="690" y1="127.641" x2="662.429" y2="82.5282" gradientUnits="userSpaceOnUse">
<stop stop-color="#367ED7"/>
<stop offset="1" stop-color="#153D8E"/>
</linearGradient>
<linearGradient id="paint5_linear" x1="447.869" y1="118.817" x2="498.174" y2="90.3657" gradientUnits="userSpaceOnUse">
<stop stop-color="#FDAE6B"/>
<stop offset="1" stop-color="#FAE539"/>
</linearGradient>
<radialGradient id="paint6_radial" cx="0" cy="0" r="1" gradientUnits="userSpaceOnUse" gradientTransform="translate(189.546 241.307) rotate(90) scale(26.7708 436.783)">
<stop/>
<stop offset="1" stop-color="#2062E7"/>
</radialGradient>
<radialGradient id="paint7_radial" cx="0" cy="0" r="1" gradientUnits="userSpaceOnUse" gradientTransform="translate(152.836 146.565) rotate(-67.7308) scale(92.7965 162.983)">
<stop stop-color="#62ABFB"/>
<stop offset="1" stop-color="#1440C0"/>
</radialGradient>
<radialGradient id="paint8_radial" cx="0" cy="0" r="1" gradientUnits="userSpaceOnUse" gradientTransform="translate(198.695 92.9559) rotate(108.445) scale(98.2682 450.99)">
<stop stop-color="#F4F8FF"/>
<stop offset="1" stop-color="#89B1E9"/>
</radialGradient>
<linearGradient id="paint9_linear" x1="336.395" y1="241.4" x2="332.51" y2="270.072" gradientUnits="userSpaceOnUse">
<stop stop-color="#9ABFFF"/>
<stop offset="1" stop-color="#5B87D2"/>
</linearGradient>
<linearGradient id="paint10_linear" x1="334.766" y1="133.589" x2="331.016" y2="169.31" gradientUnits="userSpaceOnUse">
<stop stop-color="#91BAFF"/>
<stop offset="1" stop-color="#5B87D2"/>
</linearGradient>
<linearGradient id="paint11_linear" x1="210.865" y1="35.1558" x2="177.436" y2="73.2964" gradientUnits="userSpaceOnUse">
<stop stop-color="#F5F8FF"/>
<stop offset="1" stop-color="white"/>
</linearGradient>
<linearGradient id="paint12_linear" x1="205.287" y1="78.2735" x2="219.001" y2="40.8774" gradientUnits="userSpaceOnUse">
<stop stop-color="#6B86C0"/>
<stop offset="1" stop-color="#A1B8E3"/>
</linearGradient>
<linearGradient id="paint13_linear" x1="280.842" y1="219.857" x2="323.128" y2="177.171" gradientUnits="userSpaceOnUse">
<stop stop-color="#002383"/>
<stop offset="1" stop-color="#316EEA"/>
</linearGradient>
<linearGradient id="paint14_linear" x1="290.305" y1="202.912" x2="316.045" y2="178.246" gradientUnits="userSpaceOnUse">
<stop stop-color="#002343"/>
<stop offset="1" stop-color="#1A72FF" stop-opacity="0.436934"/>
</linearGradient>
<linearGradient id="paint15_linear" x1="159.24" y1="72.6065" x2="159.24" y2="103.765" gradientUnits="userSpaceOnUse">
<stop stop-color="#6081C1"/>
<stop offset="1" stop-color="#90AADB"/>
</linearGradient>
<linearGradient id="paint16_linear" x1="221.638" y1="154.843" x2="214.037" y2="133.157" gradientUnits="userSpaceOnUse">
<stop stop-color="#B1C2E4"/>
<stop offset="1" stop-color="white" stop-opacity="0.01"/>
</linearGradient>
<linearGradient id="paint17_linear" x1="228.935" y1="115.7" x2="239.08" y2="155.334" gradientUnits="userSpaceOnUse">
<stop stop-color="#3D9BF8"/>
<stop offset="1" stop-color="#3B80F0"/>
</linearGradient>
<linearGradient id="paint18_linear" x1="190.734" y1="39.2859" x2="159.139" y2="56.305" gradientUnits="userSpaceOnUse">
<stop stop-color="white"/>
<stop offset="0.701101" stop-color="#B8CBEB"/>
<stop offset="1" stop-color="#A1B8E3"/>
</linearGradient>
<linearGradient id="paint19_linear" x1="162.362" y1="83.2572" x2="163.376" y2="60.4541" gradientUnits="userSpaceOnUse">
<stop stop-color="#7992C7"/>
<stop offset="1" stop-color="#A1B8E3"/>
</linearGradient>
<linearGradient id="paint20_linear" x1="189.998" y1="-12.97" x2="135.917" y2="0.0674497" gradientUnits="userSpaceOnUse">
<stop stop-color="#2669E1"/>
<stop offset="1" stop-color="#143B8C"/>
</linearGradient>
<linearGradient id="paint21_linear" x1="160.678" y1="97.5392" x2="167.826" y2="93.1218" gradientUnits="userSpaceOnUse">
<stop stop-color="#EEF5FF"/>
<stop offset="1" stop-color="#ADC8F2"/>
</linearGradient>
<linearGradient id="paint22_linear" x1="126.386" y1="62.2103" x2="107.628" y2="102.222" gradientUnits="userSpaceOnUse">
<stop stop-color="#F5F8FF"/>
<stop offset="1" stop-color="white"/>
</linearGradient>
<linearGradient id="paint23_linear" x1="190.847" y1="100.317" x2="186.019" y2="118.627" gradientUnits="userSpaceOnUse">
<stop stop-color="#EEF5FF"/>
<stop offset="1" stop-color="#D9E8FF"/>
</linearGradient>
<linearGradient id="paint24_linear" x1="102.969" y1="248.569" x2="73.3188" y2="215.589" gradientUnits="userSpaceOnUse">
<stop stop-color="#CEE0FB"/>
<stop offset="1" stop-color="#E4EDFB"/>
</linearGradient>
<linearGradient id="paint25_linear" x1="27.853" y1="219.09" x2="27.853" y2="233.145" gradientUnits="userSpaceOnUse">
<stop stop-color="#99BAE9"/>
<stop offset="1" stop-color="#BCD0F2"/>
</linearGradient>
<linearGradient id="paint26_linear" x1="21.8729" y1="163.568" x2="67.6496" y2="211.465" gradientUnits="userSpaceOnUse">
<stop stop-color="#B1FFBE"/>
<stop offset="0.444207" stop-color="#5CDB8E"/>
<stop offset="1" stop-color="#149654"/>
</linearGradient>
<linearGradient id="paint27_linear" x1="21.2072" y1="178.128" x2="27.7937" y2="228.99" gradientUnits="userSpaceOnUse">
<stop stop-color="#B1FFBE"/>
<stop offset="0.444207" stop-color="#5CDB8E"/>
<stop offset="1" stop-color="#149654"/>
</linearGradient>
<linearGradient id="paint28_linear" x1="50.359" y1="190.875" x2="80.513" y2="238.166" gradientUnits="userSpaceOnUse">
<stop stop-color="#B1FFBE"/>
<stop offset="0.444207" stop-color="#5CDB8E"/>
<stop offset="1" stop-color="#149654"/>
</linearGradient>
<linearGradient id="paint29_linear" x1="23.1311" y1="13.6881" x2="7.275" y2="44.8686" gradientUnits="userSpaceOnUse">
<stop stop-color="#CBDAF1"/>
<stop offset="1" stop-color="#9CB3DF"/>
</linearGradient>
</defs>
</svg>
