<svg width="799" height="463" viewBox="0 0 799 463" fill="none" xmlns="http://www.w3.org/2000/svg">
<path opacity="0.118359" fill-rule="evenodd" clip-rule="evenodd" d="M549.521 60.2498C498.915 4.1534 393.717 -16.6331 285.62 14.4529C151.077 53.145 62.9929 157.545 88.8791 247.637C111.108 324.999 210.145 366.656 322.878 352.385C373.652 394.461 460.641 408.624 549.36 383.11C672.245 347.771 751.914 249.697 727.306 164.056C708.791 99.618 636.518 60.5784 549.521 60.2498Z" fill="url(#paint0_linear)"/>
<path fill-rule="evenodd" clip-rule="evenodd" d="M625.359 110.704H654.592C656.514 110.704 658.072 112.264 658.072 114.188L647.632 152.515C647.632 154.439 646.074 155.999 644.152 155.999H614.919C612.997 155.999 611.439 154.439 611.439 152.515L621.879 114.188C621.879 112.264 623.437 110.704 625.359 110.704Z" fill="url(#paint1_linear)"/>
<path fill-rule="evenodd" clip-rule="evenodd" d="M669.502 127.175H707.905C710.43 127.175 712.477 129.223 712.477 131.75L698.762 182.078C698.762 184.605 696.715 186.653 694.19 186.653H655.786C653.261 186.653 651.214 184.605 651.214 182.078L664.93 131.75C664.93 129.223 666.977 127.175 669.502 127.175Z" fill="url(#paint2_linear)"/>
<path fill-rule="evenodd" clip-rule="evenodd" d="M632.47 166.979H670.873C673.398 166.979 675.445 169.028 675.445 171.555L661.729 221.883C661.729 224.41 659.683 226.458 657.158 226.458H618.754C616.229 226.458 614.182 224.41 614.182 221.883L627.898 171.555C627.898 169.028 629.945 166.979 632.47 166.979Z" fill="url(#paint3_linear)"/>
<g opacity="0.2">
<path fill-rule="evenodd" clip-rule="evenodd" d="M653.5 274.459H663.101V398.986H653.5V274.459Z" fill="#8CA4D4"/>
<path fill-rule="evenodd" clip-rule="evenodd" d="M621.497 398.945H695.104V408.553H621.497V398.945Z" fill="#8CA4D4"/>
<path fill-rule="evenodd" clip-rule="evenodd" d="M594.523 264.89H722.535V274.498H594.523V264.89Z" fill="#8CA4D4"/>
<mask id="mask0" mask-type="alpha" maskUnits="userSpaceOnUse" x="594" y="264" width="129" height="11">
<path fill-rule="evenodd" clip-rule="evenodd" d="M594.523 264.89H722.535V274.498H594.523V264.89Z" fill="white"/>
</mask>
<g mask="url(#mask0)">
</g>
</g>
<path fill-rule="evenodd" clip-rule="evenodd" d="M632.47 264.89L645.905 198.549L723.45 199.921L710.191 264.89H632.47Z" fill="#123584"/>
<path fill-rule="evenodd" clip-rule="evenodd" d="M594.523 261.161H715.21V265.348H598.18L594.523 261.161Z" fill="#123584"/>
<path fill-rule="evenodd" clip-rule="evenodd" d="M637.041 265.348L650.476 198.549L728.021 199.921L715.22 265.348H637.041Z" fill="url(#paint4_linear)"/>
<mask id="mask1" mask-type="alpha" maskUnits="userSpaceOnUse" x="637" y="198" width="92" height="68">
<path fill-rule="evenodd" clip-rule="evenodd" d="M637.041 265.348L650.476 198.549L728.021 199.921L715.22 265.348H637.041Z" fill="white"/>
</mask>
<g mask="url(#mask1)">
<path fill-rule="evenodd" clip-rule="evenodd" d="M683.217 225.543C687.005 225.543 690.075 228.104 690.075 231.263C690.075 234.421 687.005 236.982 683.217 236.982C679.43 236.982 676.359 234.421 676.359 231.263C676.359 228.104 679.43 225.543 683.217 225.543Z" fill="#A1B8E3"/>
</g>
<g opacity="0.5">
<path fill-rule="evenodd" clip-rule="evenodd" d="M93.9029 83.7101C-17.8996 201.249 146.398 367.505 246.089 242.615C414.027 32.2281 557.033 190.314 557.033 190.314" fill="black" fill-opacity="0.01"/>
<path d="M93.9029 83.7101C-17.8995 201.249 146.398 367.505 246.089 242.615C414.027 32.2281 557.033 190.314 557.033 190.314" stroke="#8CA4D4" stroke-width="5" stroke-linecap="round" stroke-dasharray="5 20"/>
</g>
<path fill-rule="evenodd" clip-rule="evenodd" d="M548.352 210.46L557.876 198.009L588.746 217.341L565.101 190.146L576.595 179.334L605.495 230.119L548.352 210.46Z" fill="url(#paint5_linear)"/>
<path fill-rule="evenodd" clip-rule="evenodd" d="M557.548 198.337L564.773 197.354L590.06 218.324L557.548 198.337Z" fill="#E1A846"/>
<path fill-rule="evenodd" clip-rule="evenodd" d="M564.444 197.354L565.43 190.146L589.403 217.669L564.444 197.354Z" fill="#E6B052"/>
<path fill-rule="evenodd" clip-rule="evenodd" d="M261.919 411.3C314.06 411.3 356.329 402.799 356.329 392.313C356.329 381.826 314.06 373.325 261.919 373.325C209.779 373.325 167.51 381.826 167.51 392.313C167.51 402.799 209.779 411.3 261.919 411.3Z" fill="url(#paint6_radial)"/>
<path fill-rule="evenodd" clip-rule="evenodd" d="M196.578 380.545C254.434 408.32 339.381 404.651 377.486 329.277C402.659 280.779 348.948 222.705 289.951 182.324C236.999 146.082 189.902 137.863 162.268 158.267C159.112 160.597 153.503 160.139 150.955 163.309C80.8138 243.431 138.722 352.77 196.578 380.545Z" fill="url(#paint7_radial)"/>
<path fill-rule="evenodd" clip-rule="evenodd" d="M232.316 311.149C294.188 349.84 358.087 354.068 379.572 319.659C399.507 282.483 351.144 215.249 289.273 176.559C227.401 137.869 173.494 131.736 152.008 166.145C130.523 200.554 170.445 272.459 232.316 311.149Z" fill="url(#paint8_radial)"/>
<g filter="url(#filter0_f)">
<path fill-rule="evenodd" clip-rule="evenodd" d="M246.298 284.006C274.04 301.364 302.691 303.261 312.324 287.824C321.263 271.146 299.578 240.982 271.836 223.624C244.095 206.266 219.924 203.515 210.29 218.952C200.657 234.39 218.557 266.649 246.298 284.006Z" fill="#94B0D7"/>
</g>
<path fill-rule="evenodd" clip-rule="evenodd" d="M424.558 397.188C423.654 393.063 422.293 389.994 423.654 384.426C425.014 378.857 440.664 375.701 442.639 377.484C444.613 379.268 444.292 380.223 452.114 384.38C459.937 388.537 482.358 393.373 487.157 398.766C491.956 404.159 492.85 407.725 482.875 407.725C478.187 407.725 457.657 407.725 452.023 407.725C446.486 405.717 444.624 404.635 441.519 402.776C440.886 405.105 441.519 407.089 441.519 407.089H428.233C428.233 407.089 425.462 401.313 424.558 397.188Z" fill="url(#paint9_linear)"/>
<mask id="mask2" mask-type="alpha" maskUnits="userSpaceOnUse" x="423" y="376" width="68" height="32">
<path fill-rule="evenodd" clip-rule="evenodd" d="M424.558 397.188C423.654 393.063 422.293 389.994 423.654 384.426C425.014 378.857 440.664 375.701 442.639 377.484C444.613 379.268 444.292 380.223 452.114 384.38C459.937 388.537 482.358 393.373 487.157 398.766C491.956 404.159 492.85 407.725 482.875 407.725C478.187 407.725 457.657 407.725 452.023 407.725C446.486 405.717 444.624 404.635 441.519 402.776C440.886 405.105 441.519 407.089 441.519 407.089H428.233C428.233 407.089 425.462 401.313 424.558 397.188Z" fill="white"/>
</mask>
<g mask="url(#mask2)">
<g opacity="0.2">
<path fill-rule="evenodd" clip-rule="evenodd" d="M424.591 403.963C427.454 396.582 438.61 382.812 441.842 378.331C445.075 373.849 420.423 383.612 420.423 383.612C420.423 383.612 421.729 411.344 424.591 403.963Z" fill="#3D82F0" style="mix-blend-mode:multiply"/>
</g>
</g>
<path fill-rule="evenodd" clip-rule="evenodd" d="M450.568 285.112C447.624 282.331 444.888 280.633 442.962 275.486C441.037 270.339 451.76 259.396 454.291 259.744C456.821 260.092 457.081 261.022 465.535 260.097C473.99 259.172 489.112 248.882 495.833 250.567C502.554 252.253 508.587 252.287 500.668 257.667C496.945 260.196 482.534 275.608 478.061 278.647C472.581 280.042 470.518 280.19 467.05 280.391C467.805 282.578 469.378 283.809 469.378 283.809L458.828 290.976C458.828 290.976 453.512 287.894 450.568 285.112Z" fill="url(#paint10_linear)"/>
<mask id="mask3" mask-type="alpha" maskUnits="userSpaceOnUse" x="442" y="250" width="63" height="41">
<path fill-rule="evenodd" clip-rule="evenodd" d="M450.568 285.112C447.624 282.331 444.888 280.633 442.962 275.486C441.037 270.339 451.76 259.396 454.291 259.744C456.821 260.092 457.081 261.022 465.535 260.097C473.99 259.172 489.112 248.882 495.833 250.567C502.554 252.253 508.587 252.287 500.668 257.667C496.945 260.196 482.534 275.608 478.061 278.647C472.581 280.042 470.518 280.19 467.05 280.391C467.805 282.578 469.378 283.809 469.378 283.809L458.828 290.976C458.828 290.976 453.512 287.894 450.568 285.112Z" fill="white"/>
</mask>
<g mask="url(#mask3)">
<g opacity="0.2">
<path fill-rule="evenodd" clip-rule="evenodd" d="M454.924 289.89C450.494 280.707 455.056 259.988 453.036 258.154C451.016 256.319 441.136 272.981 441.136 272.981C441.136 272.981 436.438 277.645 443.988 284.619C451.539 291.593 459.353 299.073 454.924 289.89Z" fill="#617FC8" style="mix-blend-mode:multiply"/>
</g>
</g>
<g filter="url(#filter1_i)">
<path fill-rule="evenodd" clip-rule="evenodd" d="M259.043 183.233C279.59 172.285 291.298 140.322 299.785 131.335C308.271 122.348 312.018 139.542 310.615 144.605C309.213 149.667 298.87 183.691 277.282 211.17C277.282 229.121 256.389 197.637 259.043 183.233Z" fill="url(#paint11_linear)"/>
</g>
<path fill-rule="evenodd" clip-rule="evenodd" d="M250.254 146.967C250.254 146.967 298.956 127.692 305.54 128.967C312.124 130.241 292.446 152.701 288.42 154.514C284.394 156.326 278.922 160.748 272.867 160.905C266.811 161.063 252.893 164.063 252.893 164.063L250.254 146.967Z" fill="url(#paint12_linear)"/>
<g filter="url(#filter2_i)">
<path fill-rule="evenodd" clip-rule="evenodd" d="M262.279 291.431C268.263 283.351 282.914 266.499 314.453 260.359C345.992 254.22 374.958 248.488 428.126 264.316C432.504 315.689 437.492 367.413 442.526 377.888C438.686 382.564 424.815 386.136 416.677 386.136C413.725 374.57 404.474 346.704 399.775 332.922C395.075 319.138 393.409 302.029 394.317 295.997C378.294 300.552 345.473 314.399 333.966 318.5C322.459 322.602 282.978 335.606 269.91 325.137C256.841 314.668 256.295 299.51 262.279 291.431Z" fill="url(#paint13_linear)"/>
</g>
<mask id="mask4" mask-type="alpha" maskUnits="userSpaceOnUse" x="258" y="254" width="185" height="133">
<path fill-rule="evenodd" clip-rule="evenodd" d="M262.279 291.431C268.263 283.351 282.914 266.499 314.453 260.359C345.992 254.22 374.958 248.488 428.126 264.316C432.504 315.689 437.492 367.413 442.526 377.888C438.686 382.564 424.815 386.136 416.677 386.136C413.725 374.57 404.474 346.704 399.775 332.922C395.075 319.138 393.409 302.029 394.317 295.997C378.294 300.552 345.473 314.399 333.966 318.5C322.459 322.602 282.978 335.606 269.91 325.137C256.841 314.668 256.295 299.51 262.279 291.431Z" fill="white"/>
</mask>
<g mask="url(#mask4)">
<g opacity="0.3">
<path fill-rule="evenodd" clip-rule="evenodd" d="M370.989 305.371C370.989 298.212 389.103 260.427 393.954 256.388C398.805 252.348 384.4 252.949 384.4 252.949C384.4 252.949 351.583 287.035 347.273 305.371C342.964 323.707 370.989 312.53 370.989 305.371Z" fill="url(#paint14_linear)" style="mix-blend-mode:multiply"/>
</g>
</g>
<path fill-rule="evenodd" clip-rule="evenodd" d="M222.804 187.641C221.217 179.679 218.157 165.723 217.546 162.741C216.935 159.759 246.531 170.059 246.531 170.059L250.253 189.581L254.513 222.597C254.513 222.597 224.39 195.603 222.804 187.641Z" fill="url(#paint15_linear)"/>
<mask id="mask5" mask-type="alpha" maskUnits="userSpaceOnUse" x="217" y="162" width="38" height="61">
<path fill-rule="evenodd" clip-rule="evenodd" d="M222.804 187.641C221.217 179.679 218.157 165.723 217.546 162.741C216.935 159.759 246.531 170.059 246.531 170.059L250.253 189.581L254.513 222.597C254.513 222.597 224.39 195.603 222.804 187.641Z" fill="white"/>
</mask>
<g mask="url(#mask5)">
<g opacity="0.2">
<path fill-rule="evenodd" clip-rule="evenodd" d="M219.161 163.57C219.161 166.568 230.392 179.385 236.459 182.899C242.526 186.413 253.458 186.087 253.458 186.087L251.792 168.827L219.161 160.581C219.161 160.581 219.161 160.573 219.161 163.57Z" fill="#7890CB" style="mix-blend-mode:multiply"/>
</g>
</g>
<path fill-rule="evenodd" clip-rule="evenodd" d="M248.611 180.841C248.611 180.841 259.849 182.672 260.623 184.079C267.931 189.39 274.962 205.199 277.964 213.389C280.966 221.579 286.723 230.037 291.912 236.613C297.101 243.189 299.591 244.545 306.39 249.411C313.19 254.276 315.687 258.136 311.839 261.764C307.991 265.391 285.832 263.982 270.058 283.706C256.278 289.359 256.295 291.427 252.2 279.211C248.106 266.995 214.44 236.451 208.98 232.146C203.519 227.84 205.628 223.704 204.252 210.517C202.876 197.331 192.947 186.639 201.298 186.639C207.879 189.09 214.29 184.079 217.183 184.079C227.725 186.705 230.126 197.089 234.502 194.911C238.879 192.734 241.681 192.734 241.681 192.734C242.702 194.807 243.031 198.358 244.052 200.431C245.073 202.504 249.345 206.663 251.244 210.517L247.887 199.3L248.824 192.593L248.611 180.841Z" fill="white"/>
<path fill-rule="evenodd" clip-rule="evenodd" d="M248.611 180.841C248.611 180.841 259.849 182.672 260.623 184.079C267.931 189.39 274.962 205.199 277.964 213.389C280.966 221.579 286.723 230.037 291.912 236.613C297.101 243.189 299.591 244.545 306.39 249.411C313.19 254.276 315.687 258.136 311.839 261.764C307.991 265.391 285.832 263.982 270.058 283.706C256.278 289.359 256.295 291.427 252.2 279.211C248.106 266.995 214.44 236.451 208.98 232.146C203.519 227.84 205.628 223.704 204.252 210.517C202.876 197.331 192.947 186.639 201.298 186.639C207.879 189.09 214.29 184.079 217.183 184.079C227.725 186.705 230.126 197.089 234.502 194.911C238.879 192.734 241.681 192.734 241.681 192.734C242.702 194.807 243.031 198.358 244.052 200.431C245.073 202.504 249.345 206.663 251.244 210.517L247.887 199.3L248.824 192.593L248.611 180.841Z" fill="url(#paint16_linear)"/>
<mask id="mask6" mask-type="alpha" maskUnits="userSpaceOnUse" x="197" y="180" width="117" height="109">
<path fill-rule="evenodd" clip-rule="evenodd" d="M248.611 180.841C248.611 180.841 259.849 182.672 260.623 184.079C267.931 189.39 274.962 205.199 277.964 213.389C280.966 221.579 286.723 230.037 291.912 236.613C297.101 243.189 299.591 244.545 306.39 249.411C313.19 254.276 315.687 258.136 311.839 261.764C307.991 265.391 285.832 263.982 270.058 283.706C256.278 289.359 256.295 291.427 252.2 279.211C248.106 266.995 214.44 236.451 208.98 232.146C203.519 227.84 205.628 223.704 204.252 210.517C202.876 197.331 192.947 186.639 201.298 186.639C207.879 189.09 214.29 184.079 217.183 184.079C227.725 186.705 230.126 197.089 234.502 194.911C238.879 192.734 241.681 192.734 241.681 192.734C242.702 194.807 243.031 198.358 244.052 200.431C245.073 202.504 249.345 206.663 251.244 210.517L247.887 199.3L248.824 192.593L248.611 180.841Z" fill="white"/>
<path fill-rule="evenodd" clip-rule="evenodd" d="M248.611 180.841C248.611 180.841 259.849 182.672 260.623 184.079C267.931 189.39 274.962 205.199 277.964 213.389C280.966 221.579 286.723 230.037 291.912 236.613C297.101 243.189 299.591 244.545 306.39 249.411C313.19 254.276 315.687 258.136 311.839 261.764C307.991 265.391 285.832 263.982 270.058 283.706C256.278 289.359 256.295 291.427 252.2 279.211C248.106 266.995 214.44 236.451 208.98 232.146C203.519 227.84 205.628 223.704 204.252 210.517C202.876 197.331 192.947 186.639 201.298 186.639C207.879 189.09 214.29 184.079 217.183 184.079C227.725 186.705 230.126 197.089 234.502 194.911C238.879 192.734 241.681 192.734 241.681 192.734C242.702 194.807 243.031 198.358 244.052 200.431C245.073 202.504 249.345 206.663 251.244 210.517L247.887 199.3L248.824 192.593L248.611 180.841Z" stroke="white"/>
</mask>
<g mask="url(#mask6)">
<g opacity="0.6">
<mask id="path-39-outside-1" maskUnits="userSpaceOnUse" x="244.89" y="208.072" width="57" height="59" fill="black">
<rect fill="white" x="244.89" y="208.072" width="57" height="59"/>
<path fill-rule="evenodd" clip-rule="evenodd" d="M249.347 210.445C250.34 212.437 261.21 231.496 263.52 234.236C265.83 236.977 273.401 244.614 276.321 247.505C279.241 250.396 297.139 261.779 297.352 265.348"/>
</mask>
<path fill-rule="evenodd" clip-rule="evenodd" d="M249.347 210.445C250.34 212.437 261.21 231.496 263.52 234.236C265.83 236.977 273.401 244.614 276.321 247.505C279.241 250.396 297.139 261.779 297.352 265.348" fill="black" fill-opacity="0.01"/>
<path d="M263.52 234.236L260.461 236.814L260.462 236.814L263.52 234.236ZM276.321 247.505L279.136 244.662L279.136 244.662L276.321 247.505ZM245.767 212.229C246.336 213.371 249.38 218.763 252.486 224.078C254.059 226.769 255.684 229.502 257.067 231.743C258.375 233.864 259.653 235.854 260.461 236.814L266.579 231.659C266.233 231.248 265.285 229.829 263.875 227.543C262.539 225.378 260.951 222.707 259.393 220.042C256.239 214.645 253.351 209.511 252.927 208.661L245.767 212.229ZM260.462 236.814C262.914 239.724 270.636 247.504 273.507 250.347L279.136 244.662C276.167 241.723 268.746 234.23 266.579 231.658L260.462 236.814ZM273.507 250.347C274.502 251.332 276.467 252.79 278.449 254.239C280.582 255.799 283.044 257.564 285.45 259.371C287.863 261.182 290.079 262.931 291.678 264.404C292.484 265.146 293.034 265.728 293.357 266.141C293.824 266.737 293.411 266.46 293.359 265.586L301.345 265.11C301.24 263.344 300.221 261.931 299.657 261.21C298.949 260.306 298.043 259.39 297.096 258.518C295.188 256.762 292.707 254.815 290.254 252.973C287.794 251.127 285.221 249.281 283.17 247.781C280.968 246.171 279.601 245.123 279.136 244.662L273.507 250.347Z" fill="#D9E8FF" mask="url(#path-39-outside-1)"/>
</g>
<path opacity="0.3" fill-rule="evenodd" clip-rule="evenodd" d="M235.588 206.868C235.588 206.868 240.577 197.787 243.483 197.787C246.389 197.787 242.466 188.956 242.466 188.956L233.406 195.813L235.588 206.868Z" fill="#CCDFFD"/>
</g>
<path fill-rule="evenodd" clip-rule="evenodd" d="M310.577 256.772C327.139 241.559 374.544 212.114 401.578 207.618C417.065 210.196 457.367 253.911 457.367 253.911C455.55 255.827 450.76 272.818 443.194 278.159C424.14 262.331 404.275 254.94 398.94 246.755C392.287 250.809 375.183 262.646 365.345 280.037C355.508 297.428 348.981 317.241 337.77 317.737C326.559 318.233 310.748 319.514 296.184 310.137C287.726 304.69 263.374 292.55 275.204 284.596C281.984 280.037 303.634 263.15 310.577 256.772Z" fill="url(#paint17_linear)"/>
<path fill-rule="evenodd" clip-rule="evenodd" d="M246.02 129.802C247.141 132.635 253.296 145.069 253.889 148.168C254.482 151.268 260.339 171.941 256.85 175.125C253.361 178.309 242.898 179.921 239.974 178.901C237.05 177.882 230.765 177.229 228.316 172.929C226.434 169.624 220.456 161.952 218.888 162.391C218.315 163.57 216.318 164.829 215.318 164.02C210.998 160.525 207.295 156.74 209.053 148.168C210.811 139.597 216.974 135.368 223.582 132.585C230.19 129.802 244.898 126.969 246.02 129.802Z" fill="url(#paint18_linear)"/>
<path fill-rule="evenodd" clip-rule="evenodd" d="M170.479 177.352C178.484 180.596 204.409 167.685 212.636 168.832C220.198 169.886 210.603 158.051 207.763 155.956C204.923 153.862 148.139 154.811 145.158 159.182C142.178 163.553 163.84 174.662 170.479 177.352Z" fill="url(#paint19_linear)"/>
<mask id="mask7" mask-type="alpha" maskUnits="userSpaceOnUse" x="144" y="154" width="72" height="24">
<path fill-rule="evenodd" clip-rule="evenodd" d="M170.479 177.352C178.484 180.596 204.409 167.685 212.636 168.832C220.198 169.886 210.603 158.051 207.763 155.956C204.923 153.862 148.139 154.811 145.158 159.182C142.178 163.553 163.84 174.662 170.479 177.352Z" fill="white"/>
</mask>
<g mask="url(#mask7)">
<path opacity="0.5" fill-rule="evenodd" clip-rule="evenodd" d="M154.717 159.59C156.4 160.203 190.543 175.092 198.99 173.03C207.437 170.967 177.939 180.826 177.939 180.826C177.939 180.826 153.034 158.977 154.717 159.59Z" fill="#6B84C2"/>
</g>
<g filter="url(#filter3_i)">
<path fill-rule="evenodd" clip-rule="evenodd" d="M222.347 148.215C222.347 148.215 218.483 142.34 221.47 136.513C224.456 130.686 240.225 138.458 252.994 124.092C265.764 109.725 254.418 90.3382 241.289 94.1193C228.161 97.9005 231.38 104.673 233.76 109.725C236.14 114.778 223.895 116.675 215.139 120.232C206.382 123.788 199.235 133.357 200.778 148.215C202.321 163.072 216.094 175.237 220.477 177.475C219.202 168.695 219.146 164.661 219.146 162.216C214.118 164.541 208.261 153.011 211.671 149.978C218.184 144.183 221.47 157.381 221.47 157.381C221.47 157.381 222.347 155.502 223.895 153.721C223.305 150.542 222.347 148.215 222.347 148.215Z" fill="url(#paint20_linear)"/>
</g>
<path fill-rule="evenodd" clip-rule="evenodd" d="M248.884 192.28C252.882 193.701 253.648 201.091 254.334 203.175C255.021 205.259 251.453 186.84 251.453 186.84C250.198 188.573 247.512 176.811 248.017 178.536C249.375 183.174 248.237 188.428 248.884 192.28Z" fill="#CCDFFD"/>
<path fill-rule="evenodd" clip-rule="evenodd" d="M235.84 210.9C235.84 204.353 238.44 195.77 241.651 192.708C236.995 192.995 223.299 184.806 221.837 180.242C220.375 175.677 220.104 175.025 220.104 175.025C220.104 175.025 217.284 180.484 217.284 183.947C219.279 191.459 228.179 204.499 235.84 210.9Z" fill="url(#paint21_linear)"/>
<g filter="url(#filter4_i)">
<path fill-rule="evenodd" clip-rule="evenodd" d="M195.82 184.841C182.298 177.402 155.287 156.254 148.188 157.98C141.089 159.706 142.931 162.913 142.931 170.268C142.931 177.622 180.034 202.459 185.747 214.749C188.192 220.01 194.458 233.005 205.673 230.887C216.888 228.77 213.485 217.618 211.068 208.623C208.227 198.049 204.146 189.422 195.82 184.841Z" fill="url(#paint22_linear)"/>
</g>
<path fill-rule="evenodd" clip-rule="evenodd" d="M232.176 148.481C234.542 149.111 237.5 148.65 239.082 146.922L232.176 148.481Z" fill="black" fill-opacity="0.01"/>
<path d="M232.176 148.481C234.542 149.111 237.5 148.65 239.082 146.922" stroke="#143B8C" stroke-width="3" stroke-linecap="round"/>
<path fill-rule="evenodd" clip-rule="evenodd" d="M251.163 143.448C253.207 144.078 255.762 143.617 257.127 141.889L251.163 143.448Z" fill="black" fill-opacity="0.01"/>
<path d="M251.163 143.448C253.207 144.078 255.762 143.617 257.127 141.889" stroke="#143B8C" stroke-width="3" stroke-linecap="round"/>
<path fill-rule="evenodd" clip-rule="evenodd" d="M226.945 144.77L229.487 156.006L243.65 152.605L241.516 140.901L226.945 144.77Z" fill="black" fill-opacity="0.01" stroke="#143B8C" stroke-width="4"/>
<path fill-rule="evenodd" clip-rule="evenodd" d="M247.641 139.028L249.948 150.509L260.552 147.466L258.617 135.976L247.641 139.028Z" fill="black" fill-opacity="0.01" stroke="#143B8C" stroke-width="4"/>
<path fill-rule="evenodd" clip-rule="evenodd" d="M226.659 146.183L218.309 148.471L219.705 151.26L228.73 153.392L226.659 146.183Z" fill="#143B8C"/>
<path fill-rule="evenodd" clip-rule="evenodd" d="M241.985 144.444L248.357 142.479L249.058 145.846L242.442 147.692L241.985 144.444Z" fill="#143B8C"/>
<path fill-rule="evenodd" clip-rule="evenodd" d="M232.316 311.149C294.188 349.839 358.087 354.067 379.572 319.658C405.375 269.497 316.899 291.201 255.028 252.511C193.156 213.82 194.685 181.525 152.008 166.145C130.523 200.554 170.445 272.458 232.316 311.149Z" fill="black" fill-opacity="0.01"/>
<mask id="mask8" mask-type="alpha" maskUnits="userSpaceOnUse" x="146" y="166" width="239" height="178">
<path fill-rule="evenodd" clip-rule="evenodd" d="M232.316 311.149C294.188 349.839 358.087 354.067 379.572 319.658C405.375 269.497 316.899 291.201 255.028 252.511C193.156 213.82 194.685 181.525 152.008 166.145C130.523 200.554 170.445 272.458 232.316 311.149Z" fill="white"/>
</mask>
<g mask="url(#mask8)">
<g filter="url(#filter5_i)">
<path fill-rule="evenodd" clip-rule="evenodd" d="M121.642 262.306C153.935 283.293 190.928 283.643 204.268 263.087C217.607 242.53 202.241 208.853 169.948 187.865C137.654 166.878 100.661 166.528 87.3216 187.084C73.9823 207.641 89.3477 241.318 121.642 262.306Z" fill="#EEF5FF"/>
</g>
<g filter="url(#filter6_i)">
<path fill-rule="evenodd" clip-rule="evenodd" d="M234.935 345.958C258.734 334.852 266.133 300.322 251.46 268.833C236.788 237.344 205.6 220.82 181.801 231.927C158.001 243.033 150.603 277.563 165.275 309.052C179.948 340.541 211.135 357.064 234.935 345.958Z" fill="#EEF5FF"/>
</g>
<g filter="url(#filter7_i)">
<path fill-rule="evenodd" clip-rule="evenodd" d="M296.655 399.031C320.454 387.925 327.853 353.395 313.181 321.906C298.508 290.417 267.32 273.894 243.521 285C219.721 296.106 212.323 330.636 226.995 362.125C241.668 393.614 272.856 410.138 296.655 399.031Z" fill="#EEF5FF"/>
</g>
<g filter="url(#filter8_i)">
<path fill-rule="evenodd" clip-rule="evenodd" d="M411.866 416.875C435.666 405.769 443.065 371.239 428.392 339.75C413.719 308.261 382.532 291.737 358.732 302.844C334.933 313.95 327.534 348.48 342.207 379.969C356.879 411.458 388.067 427.981 411.866 416.875Z" fill="#EEF5FF"/>
</g>
<g filter="url(#filter9_i)">
<path fill-rule="evenodd" clip-rule="evenodd" d="M330.345 381.979C356.409 385.182 379.521 371.614 381.968 351.675C384.414 331.735 365.268 312.975 339.204 309.773C313.14 306.57 290.028 320.138 287.582 340.077C285.135 360.016 304.281 378.776 330.345 381.979Z" fill="#EEF5FF"/>
</g>
</g>
<path fill-rule="evenodd" clip-rule="evenodd" d="M258.632 212.985C258.632 212.985 269.453 210.937 270.751 209.481C272.048 208.024 279.377 224.851 279.377 224.851L275.818 228.894H267.336L258.632 212.985Z" fill="url(#paint23_linear)"/>
<path opacity="0.2" fill-rule="evenodd" clip-rule="evenodd" d="M134.136 397.573C152.316 397.573 167.053 400.748 167.053 404.665C167.053 408.582 152.316 411.757 134.136 411.757C115.956 411.757 101.218 408.582 101.218 404.665C101.218 400.748 115.956 397.573 134.136 397.573Z" fill="#BBCFF2"/>
<path fill-rule="evenodd" clip-rule="evenodd" d="M164.748 369.834C166.812 373.453 167.968 377.507 167.968 381.789C167.968 397.077 153.23 409.469 135.05 409.469C116.87 409.469 102.133 397.077 102.133 381.789C102.133 377.258 103.427 372.982 105.722 369.207C120.305 371.517 149.33 371.368 164.748 369.834Z" fill="url(#paint24_linear)"/>
<mask id="mask9" mask-type="alpha" maskUnits="userSpaceOnUse" x="102" y="369" width="66" height="41">
<path fill-rule="evenodd" clip-rule="evenodd" d="M164.748 369.834C166.812 373.453 167.968 377.507 167.968 381.789C167.968 397.077 153.23 409.469 135.05 409.469C116.87 409.469 102.133 397.077 102.133 381.789C102.133 377.258 103.427 372.982 105.722 369.207C120.305 371.517 149.33 371.368 164.748 369.834Z" fill="white"/>
</mask>
<g mask="url(#mask9)">
</g>
<path fill-rule="evenodd" clip-rule="evenodd" d="M135.279 363.716C151.817 363.716 165.224 366.891 165.224 370.808C165.224 374.725 151.817 377.9 135.279 377.9C118.74 377.9 105.333 374.725 105.333 370.808C105.333 366.891 118.74 363.716 135.279 363.716Z" fill="url(#paint25_linear)"/>
<mask id="mask10" mask-type="alpha" maskUnits="userSpaceOnUse" x="105" y="363" width="61" height="15">
<path fill-rule="evenodd" clip-rule="evenodd" d="M135.279 363.716C151.817 363.716 165.224 366.891 165.224 370.808C165.224 374.725 151.817 377.9 135.279 377.9C118.74 377.9 105.333 374.725 105.333 370.808C105.333 366.891 118.74 363.716 135.279 363.716Z" fill="white"/>
</mask>
<g mask="url(#mask10)">
</g>
<g filter="url(#filter10_i)">
<path fill-rule="evenodd" clip-rule="evenodd" d="M132.764 364.631C131.129 353.306 126.63 336.951 113.105 319.336C105.138 308.96 105.112 283.69 103.962 280.904C110.213 283.055 121.444 288.601 132.764 304.238C144.632 320.629 137.103 354.058 132.764 364.631Z" fill="url(#paint26_linear)"/>
</g>
<mask id="mask11" mask-type="alpha" maskUnits="userSpaceOnUse" x="103" y="280" width="37" height="85">
<path fill-rule="evenodd" clip-rule="evenodd" d="M132.764 364.631C131.129 353.306 126.63 336.951 113.105 319.336C105.138 308.96 105.112 283.69 103.962 280.904C110.213 283.055 121.444 288.601 132.764 304.238C144.632 320.629 137.103 354.058 132.764 364.631Z" fill="white"/>
</mask>
<g mask="url(#mask11)">
<g style="mix-blend-mode:multiply" opacity="0.5">
<path d="M131.023 351.289L122.786 312.281C128.226 323.273 130.734 335.373 131.023 351.289Z" fill="black" fill-opacity="0.01"/>
<path d="M131.023 351.289L122.786 312.281C128.226 323.273 130.734 335.373 131.023 351.289Z" stroke="#489C71" stroke-width="3"/>
</g>
</g>
<g filter="url(#filter11_i)">
<path fill-rule="evenodd" clip-rule="evenodd" d="M132.815 376.256C127.762 368.169 118.836 357.209 102.598 348.323C93.0332 343.088 84.5251 323.827 82.711 322.088C88.2041 321.627 98.6366 322.081 112.528 330.199C127.089 338.71 132.574 366.734 132.815 376.256Z" fill="url(#paint27_linear)"/>
</g>
<mask id="mask12" mask-type="alpha" maskUnits="userSpaceOnUse" x="82" y="321" width="51" height="56">
<path fill-rule="evenodd" clip-rule="evenodd" d="M132.815 376.256C127.762 368.169 118.836 357.209 102.598 348.323C93.0332 343.088 84.5251 323.827 82.711 322.088C88.2041 321.627 98.6366 322.081 112.528 330.199C127.089 338.71 132.574 366.734 132.815 376.256Z" fill="white"/>
</mask>
<g mask="url(#mask12)">
<g style="mix-blend-mode:multiply" opacity="0.5">
<path d="M125.592 364.274L109.056 341.266C115.555 347.101 120.761 354.382 125.592 364.274Z" fill="black" fill-opacity="0.01"/>
<path d="M125.592 364.274L109.056 341.266C115.555 347.101 120.761 354.382 125.592 364.274Z" stroke="#489C71" stroke-width="3"/>
</g>
</g>
<g filter="url(#filter12_i)">
<path fill-rule="evenodd" clip-rule="evenodd" d="M136.443 377.365C140.427 368.66 147.897 356.595 162.919 345.652C171.767 339.205 177.744 318.927 179.325 316.962C173.794 317.212 163.461 319.01 150.678 328.887C137.277 339.24 135.448 367.853 136.443 377.365Z" fill="url(#paint28_linear)"/>
</g>
<mask id="mask13" mask-type="alpha" maskUnits="userSpaceOnUse" x="136" y="316" width="44" height="62">
<path fill-rule="evenodd" clip-rule="evenodd" d="M136.443 377.365C140.427 368.66 147.897 356.595 162.919 345.652C171.767 339.205 177.744 318.927 179.325 316.962C173.794 317.212 163.461 319.01 150.678 328.887C137.277 339.24 135.448 367.853 136.443 377.365Z" fill="white"/>
</mask>
<g mask="url(#mask13)">
<g style="mix-blend-mode:multiply" opacity="0.5">
<path d="M154.081 339.279L140.525 364.451C144.069 353.913 148.329 345.955 154.081 339.279Z" fill="black" fill-opacity="0.01"/>
<path d="M154.081 339.279L140.525 364.451C144.069 353.913 148.329 345.955 154.081 339.279Z" stroke="#489C71" stroke-width="3"/>
</g>
</g>
<g opacity="0.6">
<path fill-rule="evenodd" clip-rule="evenodd" d="M125.907 33.3823C141.562 33.3823 154.252 46.0826 154.252 61.749C154.252 77.4155 141.562 90.1157 125.907 90.1157C110.252 90.1157 97.5611 77.4155 97.5611 61.749C97.5611 46.0826 110.252 33.3823 125.907 33.3823Z" fill="url(#paint29_linear)"/>
<mask id="mask14" mask-type="alpha" maskUnits="userSpaceOnUse" x="97" y="33" width="58" height="58">
<path fill-rule="evenodd" clip-rule="evenodd" d="M125.907 33.3823C141.562 33.3823 154.252 46.0826 154.252 61.749C154.252 77.4155 141.562 90.1157 125.907 90.1157C110.252 90.1157 97.5611 77.4155 97.5611 61.749C97.5611 46.0826 110.252 33.3823 125.907 33.3823Z" fill="white"/>
</mask>
<g mask="url(#mask14)">
</g>
<mask id="path-83-inside-2" fill="white">
<path fill-rule="evenodd" clip-rule="evenodd" d="M126.252 42.3765V62.7867L135.585 72.127"/>
</mask>
<path d="M132.252 42.3765C132.252 39.0628 129.566 36.3765 126.252 36.3765C122.938 36.3765 120.252 39.0628 120.252 42.3765H132.252ZM126.252 62.7867H120.252C120.252 64.3772 120.884 65.9027 122.008 67.0278L126.252 62.7867ZM131.341 76.368C133.683 78.712 137.482 78.7134 139.826 76.3712C142.17 74.0289 142.172 70.2299 139.83 67.8859L131.341 76.368ZM120.252 42.3765V62.7867H132.252V42.3765H120.252ZM122.008 67.0278L131.341 76.368L139.83 67.8859L130.496 58.5456L122.008 67.0278Z" fill="white" mask="url(#path-83-inside-2)"/>
</g>
<defs>
<filter id="filter0_f" x="107.677" y="108.851" width="306.67" height="289.437" filterUnits="userSpaceOnUse" color-interpolation-filters="sRGB">
<feFlood flood-opacity="0" result="BackgroundImageFix"/>
<feBlend mode="normal" in="SourceGraphic" in2="BackgroundImageFix" result="shape"/>
<feGaussianBlur stdDeviation="49.9909" result="effect1_foregroundBlur"/>
</filter>
<filter id="filter1_i" x="258.81" y="128.778" width="52.0928" height="88.777" filterUnits="userSpaceOnUse" color-interpolation-filters="sRGB">
<feFlood flood-opacity="0" result="BackgroundImageFix"/>
<feBlend mode="normal" in="SourceGraphic" in2="BackgroundImageFix" result="shape"/>
<feColorMatrix in="SourceAlpha" type="matrix" values="0 0 0 0 0 0 0 0 0 0 0 0 0 0 0 0 0 0 127 0" result="hardAlpha"/>
<feOffset dy="1"/>
<feGaussianBlur stdDeviation="6"/>
<feComposite in2="hardAlpha" operator="arithmetic" k2="-1" k3="1"/>
<feColorMatrix type="matrix" values="0 0 0 0 0.898039 0 0 0 0 0.941176 0 0 0 0 1 0 0 0 1 0"/>
<feBlend mode="normal" in2="shape" result="effect1_innerShadow"/>
</filter>
<filter id="filter2_i" x="258.613" y="254.087" width="199.913" height="136.05" filterUnits="userSpaceOnUse" color-interpolation-filters="sRGB">
<feFlood flood-opacity="0" result="BackgroundImageFix"/>
<feBlend mode="normal" in="SourceGraphic" in2="BackgroundImageFix" result="shape"/>
<feColorMatrix in="SourceAlpha" type="matrix" values="0 0 0 0 0 0 0 0 0 0 0 0 0 0 0 0 0 0 127 0" result="hardAlpha"/>
<feOffset dx="16" dy="4"/>
<feGaussianBlur stdDeviation="14"/>
<feComposite in2="hardAlpha" operator="arithmetic" k2="-1" k3="1"/>
<feColorMatrix type="matrix" values="0 0 0 0 0.103708 0 0 0 0 0.317385 0 0 0 0 0.809604 0 0 0 1 0"/>
<feBlend mode="normal" in2="shape" result="effect1_innerShadow"/>
</filter>
<filter id="filter3_i" x="200.567" y="93.6396" width="71.0161" height="95.835" filterUnits="userSpaceOnUse" color-interpolation-filters="sRGB">
<feFlood flood-opacity="0" result="BackgroundImageFix"/>
<feBlend mode="normal" in="SourceGraphic" in2="BackgroundImageFix" result="shape"/>
<feColorMatrix in="SourceAlpha" type="matrix" values="0 0 0 0 0 0 0 0 0 0 0 0 0 0 0 0 0 0 127 0" result="hardAlpha"/>
<feOffset dx="13" dy="12"/>
<feGaussianBlur stdDeviation="9"/>
<feComposite in2="hardAlpha" operator="arithmetic" k2="-1" k3="1"/>
<feColorMatrix type="matrix" values="0 0 0 0 0 0 0 0 0 0 0 0 0 0 0 0 0 0 0.139889 0"/>
<feBlend mode="normal" in2="shape" result="effect1_innerShadow"/>
</filter>
<filter id="filter4_i" x="142.716" y="149.881" width="82.7948" height="81.238" filterUnits="userSpaceOnUse" color-interpolation-filters="sRGB">
<feFlood flood-opacity="0" result="BackgroundImageFix"/>
<feBlend mode="normal" in="SourceGraphic" in2="BackgroundImageFix" result="shape"/>
<feColorMatrix in="SourceAlpha" type="matrix" values="0 0 0 0 0 0 0 0 0 0 0 0 0 0 0 0 0 0 127 0" result="hardAlpha"/>
<feOffset dx="18" dy="-8"/>
<feGaussianBlur stdDeviation="6"/>
<feComposite in2="hardAlpha" operator="arithmetic" k2="-1" k3="1"/>
<feColorMatrix type="matrix" values="0 0 0 0 0.898039 0 0 0 0 0.941176 0 0 0 0 1 0 0 0 1 0"/>
<feBlend mode="normal" in2="shape" result="effect1_innerShadow"/>
</filter>
<filter id="filter5_i" x="61.5129" y="150.893" width="147.563" height="127.385" filterUnits="userSpaceOnUse" color-interpolation-filters="sRGB">
<feFlood flood-opacity="0" result="BackgroundImageFix"/>
<feBlend mode="normal" in="SourceGraphic" in2="BackgroundImageFix" result="shape"/>
<feColorMatrix in="SourceAlpha" type="matrix" values="0 0 0 0 0 0 0 0 0 0 0 0 0 0 0 0 0 0 127 0" result="hardAlpha"/>
<feOffset dx="-27.5" dy="-39.3"/>
<feGaussianBlur stdDeviation="10.5"/>
<feComposite in2="hardAlpha" operator="arithmetic" k2="-1" k3="1"/>
<feColorMatrix type="matrix" values="0 0 0 0 0.580392 0 0 0 0 0.67451 0 0 0 0 0.854902 0 0 0 0.43 0"/>
<feBlend mode="normal" in2="shape" result="effect1_innerShadow"/>
</filter>
<filter id="filter6_i" x="142.837" y="207.468" width="116.162" height="141.949" filterUnits="userSpaceOnUse" color-interpolation-filters="sRGB">
<feFlood flood-opacity="0" result="BackgroundImageFix"/>
<feBlend mode="normal" in="SourceGraphic" in2="BackgroundImageFix" result="shape"/>
<feColorMatrix in="SourceAlpha" type="matrix" values="0 0 0 0 0 0 0 0 0 0 0 0 0 0 0 0 0 0 127 0" result="hardAlpha"/>
<feOffset dx="-14.9" dy="-24.9"/>
<feGaussianBlur stdDeviation="10.5"/>
<feComposite in2="hardAlpha" operator="arithmetic" k2="-1" k3="1"/>
<feColorMatrix type="matrix" values="0 0 0 0 0.580392 0 0 0 0 0.67451 0 0 0 0 0.854902 0 0 0 0.43 0"/>
<feBlend mode="normal" in2="shape" result="effect1_innerShadow"/>
</filter>
<filter id="filter7_i" x="198.457" y="268.841" width="122.262" height="133.649" filterUnits="userSpaceOnUse" color-interpolation-filters="sRGB">
<feFlood flood-opacity="0" result="BackgroundImageFix"/>
<feBlend mode="normal" in="SourceGraphic" in2="BackgroundImageFix" result="shape"/>
<feColorMatrix in="SourceAlpha" type="matrix" values="0 0 0 0 0 0 0 0 0 0 0 0 0 0 0 0 0 0 127 0" result="hardAlpha"/>
<feOffset dx="-24.9" dy="-12.7"/>
<feGaussianBlur stdDeviation="10.5"/>
<feComposite in2="hardAlpha" operator="arithmetic" k2="-1" k3="1"/>
<feColorMatrix type="matrix" values="0 0 0 0 0.580392 0 0 0 0 0.67451 0 0 0 0 0.854902 0 0 0 0.43 0"/>
<feBlend mode="normal" in2="shape" result="effect1_innerShadow"/>
</filter>
<filter id="filter8_i" x="324.768" y="299.385" width="111.162" height="133.549" filterUnits="userSpaceOnUse" color-interpolation-filters="sRGB">
<feFlood flood-opacity="0" result="BackgroundImageFix"/>
<feBlend mode="normal" in="SourceGraphic" in2="BackgroundImageFix" result="shape"/>
<feColorMatrix in="SourceAlpha" type="matrix" values="0 0 0 0 0 0 0 0 0 0 0 0 0 0 0 0 0 0 127 0" result="hardAlpha"/>
<feOffset dx="-9.9" dy="12.6"/>
<feGaussianBlur stdDeviation="10.5"/>
<feComposite in2="hardAlpha" operator="arithmetic" k2="-1" k3="1"/>
<feColorMatrix type="matrix" values="0 0 0 0 0.580392 0 0 0 0 0.67451 0 0 0 0 0.854902 0 0 0 0.43 0"/>
<feBlend mode="normal" in2="shape" result="effect1_innerShadow"/>
</filter>
<filter id="filter9_i" x="268.571" y="309.305" width="113.607" height="75.743" filterUnits="userSpaceOnUse" color-interpolation-filters="sRGB">
<feFlood flood-opacity="0" result="BackgroundImageFix"/>
<feBlend mode="normal" in="SourceGraphic" in2="BackgroundImageFix" result="shape"/>
<feColorMatrix in="SourceAlpha" type="matrix" values="0 0 0 0 0 0 0 0 0 0 0 0 0 0 0 0 0 0 127 0" result="hardAlpha"/>
<feOffset dx="-18.8" dy="2.6"/>
<feGaussianBlur stdDeviation="10.5"/>
<feComposite in2="hardAlpha" operator="arithmetic" k2="-1" k3="1"/>
<feColorMatrix type="matrix" values="0 0 0 0 0.580392 0 0 0 0 0.67451 0 0 0 0 0.854902 0 0 0 0.43 0"/>
<feBlend mode="normal" in2="shape" result="effect1_innerShadow"/>
</filter>
<filter id="filter10_i" x="103.962" y="270.903" width="35.179" height="93.7275" filterUnits="userSpaceOnUse" color-interpolation-filters="sRGB">
<feFlood flood-opacity="0" result="BackgroundImageFix"/>
<feBlend mode="normal" in="SourceGraphic" in2="BackgroundImageFix" result="shape"/>
<feColorMatrix in="SourceAlpha" type="matrix" values="0 0 0 0 0 0 0 0 0 0 0 0 0 0 0 0 0 0 127 0" result="hardAlpha"/>
<feOffset dy="-10"/>
<feGaussianBlur stdDeviation="6.5"/>
<feComposite in2="hardAlpha" operator="arithmetic" k2="-1" k3="1"/>
<feColorMatrix type="matrix" values="0 0 0 0 0.221483 0 0 0 0 0.77854 0 0 0 0 0.47323 0 0 0 1 0"/>
<feBlend mode="normal" in2="shape" result="effect1_innerShadow"/>
</filter>
<filter id="filter11_i" x="82.7109" y="311.965" width="50.1038" height="64.2911" filterUnits="userSpaceOnUse" color-interpolation-filters="sRGB">
<feFlood flood-opacity="0" result="BackgroundImageFix"/>
<feBlend mode="normal" in="SourceGraphic" in2="BackgroundImageFix" result="shape"/>
<feColorMatrix in="SourceAlpha" type="matrix" values="0 0 0 0 0 0 0 0 0 0 0 0 0 0 0 0 0 0 127 0" result="hardAlpha"/>
<feOffset dy="-10"/>
<feGaussianBlur stdDeviation="6.5"/>
<feComposite in2="hardAlpha" operator="arithmetic" k2="-1" k3="1"/>
<feColorMatrix type="matrix" values="0 0 0 0 0.221483 0 0 0 0 0.77854 0 0 0 0 0.47323 0 0 0 1 0"/>
<feBlend mode="normal" in2="shape" result="effect1_innerShadow"/>
</filter>
<filter id="filter12_i" x="136.215" y="306.963" width="43.1102" height="70.4024" filterUnits="userSpaceOnUse" color-interpolation-filters="sRGB">
<feFlood flood-opacity="0" result="BackgroundImageFix"/>
<feBlend mode="normal" in="SourceGraphic" in2="BackgroundImageFix" result="shape"/>
<feColorMatrix in="SourceAlpha" type="matrix" values="0 0 0 0 0 0 0 0 0 0 0 0 0 0 0 0 0 0 127 0" result="hardAlpha"/>
<feOffset dy="-10"/>
<feGaussianBlur stdDeviation="6.5"/>
<feComposite in2="hardAlpha" operator="arithmetic" k2="-1" k3="1"/>
<feColorMatrix type="matrix" values="0 0 0 0 0.221483 0 0 0 0 0.77854 0 0 0 0 0.47323 0 0 0 1 0"/>
<feBlend mode="normal" in2="shape" result="effect1_innerShadow"/>
</filter>
<linearGradient id="paint0_linear" x1="759.061" y1="446.709" x2="823.413" y2="2.70475" gradientUnits="userSpaceOnUse">
<stop stop-color="#ECF2FC"/>
<stop offset="1" stop-color="#B9CFF7"/>
</linearGradient>
<linearGradient id="paint1_linear" x1="604.055" y1="122.689" x2="629.75" y2="165.169" gradientUnits="userSpaceOnUse">
<stop stop-color="#ACD6FF" stop-opacity="0.152485"/>
<stop offset="1" stop-color="#96ACCB" stop-opacity="0.457456"/>
</linearGradient>
<linearGradient id="paint2_linear" x1="641.632" y1="142.917" x2="674.5" y2="198.351" gradientUnits="userSpaceOnUse">
<stop stop-color="#ACD6FF" stop-opacity="0.152485"/>
<stop offset="1" stop-color="#96ACCB" stop-opacity="0.457456"/>
</linearGradient>
<linearGradient id="paint3_linear" x1="604.6" y1="182.847" x2="637.833" y2="238.48" gradientUnits="userSpaceOnUse">
<stop stop-color="#ACD6FF" stop-opacity="0.152485"/>
<stop offset="1" stop-color="#96ACCB" stop-opacity="0.457456"/>
</linearGradient>
<linearGradient id="paint4_linear" x1="754.355" y1="246.543" x2="719.458" y2="189.442" gradientUnits="userSpaceOnUse">
<stop stop-color="#367ED7"/>
<stop offset="1" stop-color="#153D8E"/>
</linearGradient>
<linearGradient id="paint5_linear" x1="552.18" y1="243.374" x2="613.518" y2="233.785" gradientUnits="userSpaceOnUse">
<stop stop-color="#FDAE6B"/>
<stop offset="1" stop-color="#FAE539"/>
</linearGradient>
<radialGradient id="paint6_radial" cx="0" cy="0" r="1" gradientUnits="userSpaceOnUse" gradientTransform="translate(261.691 378.206) rotate(90) scale(33.5513 541.36)">
<stop/>
<stop offset="1" stop-color="#2062E7"/>
</radialGradient>
<radialGradient id="paint7_radial" cx="0" cy="0" r="1" gradientUnits="userSpaceOnUse" gradientTransform="translate(216.122 261.009) rotate(-67.7821) scale(114.873 201.388)">
<stop stop-color="#62ABFB"/>
<stop offset="1" stop-color="#1440C0"/>
</radialGradient>
<radialGradient id="paint8_radial" cx="0" cy="0" r="1" gradientUnits="userSpaceOnUse" gradientTransform="translate(273.083 194.877) rotate(108.453) scale(121.28 556.819)">
<stop stop-color="#F4F8FF"/>
<stop offset="1" stop-color="#89B1E9"/>
</radialGradient>
<linearGradient id="paint9_linear" x1="442.567" y1="378.768" x2="437.902" y2="413.692" gradientUnits="userSpaceOnUse">
<stop stop-color="#9ABFFF"/>
<stop offset="1" stop-color="#5B87D2"/>
</linearGradient>
<linearGradient id="paint10_linear" x1="440.451" y1="244.813" x2="435.834" y2="288.993" gradientUnits="userSpaceOnUse">
<stop stop-color="#91BAFF"/>
<stop offset="1" stop-color="#5B87D2"/>
</linearGradient>
<linearGradient id="paint11_linear" x1="287.576" y1="123.239" x2="246.056" y2="170.469" gradientUnits="userSpaceOnUse">
<stop stop-color="#F5F8FF"/>
<stop offset="1" stop-color="white"/>
</linearGradient>
<linearGradient id="paint12_linear" x1="281.122" y1="176.396" x2="298.025" y2="130.502" gradientUnits="userSpaceOnUse">
<stop stop-color="#6B86C0"/>
<stop offset="1" stop-color="#A1B8E3"/>
</linearGradient>
<linearGradient id="paint13_linear" x1="374.728" y1="351.975" x2="426.966" y2="299.279" gradientUnits="userSpaceOnUse">
<stop stop-color="#002383"/>
<stop offset="1" stop-color="#316EEA"/>
</linearGradient>
<linearGradient id="paint14_linear" x1="385.729" y1="330.975" x2="417.528" y2="300.99" gradientUnits="userSpaceOnUse">
<stop stop-color="#002343"/>
<stop offset="1" stop-color="#1A72FF" stop-opacity="0.436934"/>
</linearGradient>
<linearGradient id="paint15_linear" x1="224.166" y1="169.692" x2="224.166" y2="208.242" gradientUnits="userSpaceOnUse">
<stop stop-color="#6081C1"/>
<stop offset="1" stop-color="#90AADB"/>
</linearGradient>
<linearGradient id="paint16_linear" x1="301.573" y1="271.411" x2="292.16" y2="244.56" gradientUnits="userSpaceOnUse">
<stop stop-color="#B1C2E4"/>
<stop offset="1" stop-color="white" stop-opacity="0.01"/>
</linearGradient>
<linearGradient id="paint17_linear" x1="310.416" y1="222.62" x2="323.049" y2="271.656" gradientUnits="userSpaceOnUse">
<stop stop-color="#3D9BF8"/>
<stop offset="1" stop-color="#3B80F0"/>
</linearGradient>
<linearGradient id="paint18_linear" x1="262.776" y1="128.213" x2="223.762" y2="148.717" gradientUnits="userSpaceOnUse">
<stop stop-color="white"/>
<stop offset="0.701101" stop-color="#B8CBEB"/>
<stop offset="1" stop-color="#A1B8E3"/>
</linearGradient>
<linearGradient id="paint19_linear" x1="227.921" y1="182.944" x2="229.188" y2="154.638" gradientUnits="userSpaceOnUse">
<stop stop-color="#7992C7"/>
<stop offset="1" stop-color="#A1B8E3"/>
</linearGradient>
<linearGradient id="paint20_linear" x1="262.61" y1="64.1645" x2="194.976" y2="80.7816" gradientUnits="userSpaceOnUse">
<stop stop-color="#2669E1"/>
<stop offset="1" stop-color="#143B8C"/>
</linearGradient>
<linearGradient id="paint21_linear" x1="225.742" y1="200.466" x2="234.571" y2="194.825" gradientUnits="userSpaceOnUse">
<stop stop-color="#EEF5FF"/>
<stop offset="1" stop-color="#ADC8F2"/>
</linearGradient>
<linearGradient id="paint22_linear" x1="183.569" y1="156.668" x2="160.178" y2="206.317" gradientUnits="userSpaceOnUse">
<stop stop-color="#F5F8FF"/>
<stop offset="1" stop-color="white"/>
</linearGradient>
<linearGradient id="paint23_linear" x1="263.638" y1="204.38" x2="257.805" y2="226.739" gradientUnits="userSpaceOnUse">
<stop stop-color="#EEF5FF"/>
<stop offset="1" stop-color="#D9E8FF"/>
</linearGradient>
<linearGradient id="paint24_linear" x1="185.112" y1="394.925" x2="153.261" y2="359.496" gradientUnits="userSpaceOnUse">
<stop stop-color="#CEE0FB"/>
<stop offset="1" stop-color="#E4EDFB"/>
</linearGradient>
<linearGradient id="paint25_linear" x1="104.418" y1="363.259" x2="104.418" y2="378.357" gradientUnits="userSpaceOnUse">
<stop stop-color="#99BAE9"/>
<stop offset="1" stop-color="#BCD0F2"/>
</linearGradient>
<linearGradient id="paint26_linear" x1="97.9935" y1="303.616" x2="147.169" y2="355.069" gradientUnits="userSpaceOnUse">
<stop stop-color="#B1FFBE"/>
<stop offset="0.444207" stop-color="#5CDB8E"/>
<stop offset="1" stop-color="#149654"/>
</linearGradient>
<linearGradient id="paint27_linear" x1="97.2787" y1="319.256" x2="104.354" y2="373.894" gradientUnits="userSpaceOnUse">
<stop stop-color="#B1FFBE"/>
<stop offset="0.444207" stop-color="#5CDB8E"/>
<stop offset="1" stop-color="#149654"/>
</linearGradient>
<linearGradient id="paint28_linear" x1="128.598" y1="332.951" x2="160.991" y2="383.753" gradientUnits="userSpaceOnUse">
<stop stop-color="#B1FFBE"/>
<stop offset="0.444207" stop-color="#5CDB8E"/>
<stop offset="1" stop-color="#149654"/>
</linearGradient>
<linearGradient id="paint29_linear" x1="122.166" y1="49.0811" x2="105.132" y2="82.5767" gradientUnits="userSpaceOnUse">
<stop stop-color="#CBDAF1"/>
<stop offset="1" stop-color="#9CB3DF"/>
</linearGradient>
</defs>
</svg>
