<svg width="670" height="268" viewBox="0 0 670 268" fill="none" xmlns="http://www.w3.org/2000/svg">
<mask id="mask0" mask-type="alpha" maskUnits="userSpaceOnUse" x="0" y="0" width="670" height="268">
<rect width="670" height="268" fill="#C4C4C4"/>
</mask>
<g mask="url(#mask0)">
<path fill-rule="evenodd" clip-rule="evenodd" d="M4.35687 120.971C4.35687 120.971 73.195 75.64 184.82 84.4137C296.445 93.1874 289.35 160.696 588.889 133.644V223.12H4L4.35687 120.971Z" fill="url(#paint0_linear)"/>
<path fill-rule="evenodd" clip-rule="evenodd" d="M588.889 129.988C452.202 142.333 379.366 134.987 329.963 122.517C388.822 107.659 414.419 48.9728 475.106 44.2027C517.707 40.8543 555.635 79.9718 588.888 88.4442C588.888 51.8886 588.889 129.988 588.889 129.988Z" fill="url(#paint1_linear)"/>
<path fill-rule="evenodd" clip-rule="evenodd" d="M769.567 120.729C769.567 120.729 686.122 75.3443 550.811 84.1284C415.5 92.9126 424.1 160.502 61 133.417V223H770L769.567 120.729Z" fill="url(#paint2_linear)"/>
<path opacity="0.806165" fill-rule="evenodd" clip-rule="evenodd" d="M490.674 255.868C529.706 255.868 561.348 252.092 561.348 247.434C561.348 242.776 529.706 239 490.674 239C451.642 239 420 242.776 420 247.434C420 252.092 451.642 255.868 490.674 255.868Z" fill="#E2EBFC"/>
<path fill-rule="evenodd" clip-rule="evenodd" d="M377.959 68.6433L312.555 111.117C311.803 111.606 310.797 111.392 310.308 110.639L278.895 62.2677C278.406 61.5152 278.62 60.509 279.373 60.0203L344.777 17.5465C345.529 17.0578 346.535 17.2717 347.024 18.0242L378.437 66.3958C378.926 67.1484 378.712 68.1546 377.959 68.6433Z" fill="url(#paint3_linear)"/>
<path d="M351.515 65.9587L320.857 85.8682C320.481 86.1126 319.977 86.0057 319.733 85.6294L305.53 63.758C305.285 63.3817 305.392 62.8786 305.768 62.6343L336.427 42.7247C336.803 42.4803 337.306 42.5872 337.55 42.9635L351.754 64.8349C351.998 65.2112 351.891 65.7143 351.515 65.9587Z" fill="url(#paint4_linear)"/>
<path d="M352.196 65.5163L320.176 86.3107L327.696 62.9675L352.196 65.5163Z" fill="url(#paint5_linear)"/>
<path fill-rule="evenodd" clip-rule="evenodd" d="M282.138 26.7822L353.381 58.5017C354.2 58.8666 354.569 59.827 354.204 60.6467L330.745 113.337C330.38 114.157 329.42 114.525 328.6 114.16L257.357 82.4409C256.537 82.0759 256.168 81.1155 256.533 80.2958L279.993 27.6056C280.358 26.7859 281.318 26.4173 282.138 26.7822Z" fill="url(#paint6_linear)"/>
<path d="M291.471 49.1295C291.613 48.7076 292.067 48.4778 292.49 48.6139L300.529 51.1974C300.931 51.3264 301.167 51.7407 301.073 52.1516L300.569 54.358C300.486 54.7233 300.663 55.0983 300.998 55.2656L328.271 68.8793C328.276 68.8819 328.281 68.8845 328.286 68.8872C328.683 69.096 328.836 69.5872 328.627 69.9842L316.706 92.6515C316.507 93.0295 316.05 93.189 315.659 93.0165L282.467 78.3602C282.083 78.1908 281.891 77.7571 282.025 77.3593L291.471 49.1295Z" fill="url(#paint7_linear)"/>
<path d="M282.497 77.1481L293.815 57.5113C294.024 57.1477 294.476 57.0036 294.858 57.1788L332.412 74.4261C332.819 74.6134 332.998 75.0957 332.811 75.5034C332.775 75.5815 332.727 75.6534 332.669 75.7164L316.549 93.1156C316.31 93.373 315.933 93.4482 315.614 93.302L282.863 78.2922C282.455 78.1053 282.276 77.6231 282.463 77.2153C282.473 77.1923 282.485 77.1699 282.497 77.1481Z" fill="url(#paint8_linear)"/>
<path opacity="0.806165" fill-rule="evenodd" clip-rule="evenodd" d="M51.8346 246.827C72.921 246.827 90.0148 243.511 90.0148 239.421C90.0148 235.331 72.921 232.016 51.8346 232.016C30.7482 232.016 13.6543 235.331 13.6543 239.421C13.6543 243.511 30.7482 246.827 51.8346 246.827Z" fill="#E2EBFC"/>
<g filter="url(#filter0_i)">
<path d="M572.233 221.896C572.265 222.095 572.129 222.282 571.93 222.314C571.73 222.346 571.542 222.21 571.511 222.011C563.932 174.721 567.272 140.424 581.162 119.717C581.274 119.55 581.502 119.505 581.67 119.617C581.838 119.729 581.883 119.955 581.77 120.123C568.153 140.424 564.681 174.77 572.233 221.896Z" fill="url(#paint9_linear)"/>
<path d="M572.233 221.896C572.265 222.095 572.129 222.282 571.93 222.314C571.73 222.346 571.542 222.21 571.511 222.011C563.932 174.721 567.272 140.424 581.162 119.717C581.274 119.55 581.502 119.505 581.67 119.617C581.838 119.729 581.883 119.955 581.77 120.123C568.153 140.424 564.681 174.77 572.233 221.896Z" stroke="black"/>
</g>
<g filter="url(#filter1_i)">
<path d="M554.303 193.445C548.979 188.134 546.181 182.406 547.727 180.771C549.272 179.137 555.107 182.02 560.431 187.332C565.755 192.643 567.007 200.006 567.007 200.006C567.007 200.006 559.627 198.757 554.303 193.445Z" fill="url(#paint10_linear)"/>
</g>
<g filter="url(#filter2_i)">
<path d="M554.243 175.007C549.013 169.604 546.316 163.827 547.89 162.22C549.463 160.613 555.247 163.598 560.477 169.001C565.708 174.404 566.831 181.788 566.831 181.788C566.831 181.788 559.474 180.41 554.243 175.007Z" fill="url(#paint11_linear)"/>
</g>
<g filter="url(#filter3_i)">
<path d="M555.07 155.418C551.081 149.047 549.647 142.837 551.521 141.591C553.395 140.345 558.43 144.464 562.419 150.835C566.408 157.206 565.968 164.662 565.968 164.662C565.968 164.662 559.06 161.788 555.07 155.418Z" fill="url(#paint12_linear)"/>
</g>
<g filter="url(#filter4_i)">
<path d="M558.937 135.223C556.236 128.22 556.006 121.864 558.075 121.003C560.144 120.143 564.292 125.141 566.993 132.145C569.694 139.148 567.855 146.364 567.855 146.364C567.855 146.364 561.638 142.226 558.937 135.223Z" fill="url(#paint13_linear)"/>
</g>
<g filter="url(#filter5_i)">
<path d="M566.811 115.596C565.384 108.247 566.253 101.963 568.417 101.475C570.582 100.988 573.765 106.617 575.193 113.966C576.62 121.314 573.587 128.087 573.587 128.087C573.587 128.087 568.239 122.945 566.811 115.596Z" fill="url(#paint14_linear)"/>
</g>
<g filter="url(#filter6_i)">
<path d="M590.752 132.211C583.985 135.505 576.617 134.321 576.617 134.321C576.617 134.321 580.219 127.798 586.985 124.505C593.751 121.211 600.2 120.365 601.12 122.395C602.039 124.426 597.518 128.918 590.752 132.211Z" fill="url(#paint15_linear)"/>
</g>
<g filter="url(#filter7_i)">
<path d="M587.66 149.04C580.894 152.333 573.525 151.149 573.525 151.149C573.525 151.149 577.127 144.626 583.893 141.333C590.659 138.04 597.108 137.193 598.028 139.223C598.947 141.254 594.426 145.746 587.66 149.04Z" fill="url(#paint16_linear)"/>
</g>
<g filter="url(#filter8_i)">
<path d="M585.233 165.217C579.062 169.539 571.592 169.517 571.592 169.517C571.592 169.517 574.126 162.487 580.297 158.165C586.468 153.843 592.71 151.996 593.938 153.865C595.167 155.734 591.404 160.895 585.233 165.217Z" fill="url(#paint17_linear)"/>
</g>
<g filter="url(#filter9_i)">
<path d="M584.252 181.852C578.246 186.375 570.793 186.614 570.793 186.614C570.793 186.614 573.077 179.519 579.083 174.996C585.089 170.473 591.252 168.414 592.542 170.234C593.832 172.054 590.258 177.328 584.252 181.852Z" fill="url(#paint18_linear)"/>
</g>
<path d="M585.672 198.861C580.328 204.152 572.952 205.426 572.952 205.426C572.952 205.426 574.24 198.123 579.583 192.832C584.926 187.541 590.767 184.654 592.302 186.266C593.837 187.878 591.015 193.57 585.672 198.861Z" fill="url(#paint19_linear)"/>
<g filter="url(#filter10_i)">
<path d="M594.481 110.386C589.561 116.055 582.339 117.835 582.339 117.835C582.339 117.835 583.093 110.424 588.013 104.755C592.933 99.0858 598.518 95.7937 600.155 97.3059C601.792 98.818 599.401 104.717 594.481 110.386Z" fill="url(#paint20_linear)"/>
</g>
<path d="M574.937 221.94C574.909 222.115 574.746 222.234 574.571 222.206C574.396 222.179 574.277 222.016 574.304 221.841C580.79 180.415 592.88 153.016 609.987 139.27C610.126 139.161 610.327 139.185 610.436 139.324C610.546 139.463 610.522 139.663 610.383 139.773C593.286 153.222 581.4 180.658 574.937 221.94Z" fill="#8FAFDA"/>
<path d="M567.657 193.257C564.668 187.391 563.878 181.868 565.59 180.931C567.302 179.994 571.359 183.982 574.348 189.848C577.337 195.714 576.414 202.174 576.414 202.174C576.414 202.174 570.645 199.123 567.657 193.257Z" fill="url(#paint21_linear)"/>
<path d="M572.591 177.967C569.705 172.05 569.012 166.514 570.74 165.607C572.468 164.7 576.455 168.758 579.341 174.675C582.227 180.592 581.191 187.035 581.191 187.035C581.191 187.035 575.477 183.884 572.591 177.967Z" fill="url(#paint22_linear)"/>
<path d="M578.607 161.817C577.014 155.429 577.487 149.87 579.366 149.343C581.245 148.815 584.301 153.613 585.893 160.001C587.486 166.389 585.134 172.476 585.134 172.476C585.134 172.476 580.199 168.205 578.607 161.817Z" fill="url(#paint23_linear)"/>
<path d="M587.284 146.131C586.937 139.566 588.464 134.206 590.412 134.047C592.359 133.889 594.447 139.174 594.793 145.74C595.139 152.306 591.665 157.824 591.665 157.824C591.665 157.824 587.63 152.697 587.284 146.131Z" fill="url(#paint24_linear)"/>
<path d="M599.186 131.995C599.986 125.469 602.422 120.456 604.367 120.638C606.313 120.819 607.451 126.386 606.65 132.912C605.849 139.437 601.468 144.269 601.468 144.269C601.468 144.269 598.385 138.52 599.186 131.995Z" fill="url(#paint25_linear)"/>
<path d="M614.571 152.255C608.052 153.169 602.243 150.19 602.243 150.19C602.243 150.19 607.004 145.731 613.523 144.818C620.042 143.904 625.635 144.943 625.851 146.883C626.066 148.822 621.09 151.342 614.571 152.255Z" fill="url(#paint26_linear)"/>
<path d="M607.46 165.36C600.941 166.273 595.132 163.295 595.132 163.295C595.132 163.295 599.893 158.836 606.411 157.922C612.93 157.009 618.524 158.048 618.739 159.987C618.955 161.927 613.979 164.447 607.46 165.36Z" fill="url(#paint27_linear)"/>
<path d="M601.113 178.211C594.818 180.132 588.615 178.097 588.615 178.097C588.615 178.097 592.617 172.949 598.913 171.028C605.208 169.108 610.894 169.26 611.411 171.142C611.928 173.024 607.408 176.29 601.113 178.211Z" fill="url(#paint28_linear)"/>
<path d="M595.821 191.768C589.597 193.907 583.327 192.09 583.327 192.09C583.327 192.09 587.147 186.805 593.371 184.666C599.595 182.527 605.283 182.481 605.866 184.344C606.448 186.208 602.045 189.629 595.821 191.768Z" fill="url(#paint29_linear)"/>
<path d="M592.281 206.407C586.416 209.391 579.953 208.463 579.953 208.463C579.953 208.463 583 202.698 588.865 199.715C594.73 196.731 600.356 195.895 601.192 197.659C602.028 199.424 598.146 203.424 592.281 206.407Z" fill="url(#paint30_linear)"/>
<path d="M623.644 134.988C618.002 138.372 611.49 137.897 611.49 137.897C611.49 137.897 614.127 131.934 619.769 128.549C625.411 125.164 630.965 123.938 631.922 125.64C632.879 127.341 629.286 131.603 623.644 134.988Z" fill="url(#paint31_linear)"/>
<path fill-rule="evenodd" clip-rule="evenodd" d="M266.493 72.1115L333.34 31.9462C334.109 31.484 335.107 31.7329 335.569 32.502L365.275 81.9405C365.737 82.7096 365.488 83.7078 364.719 84.1699L297.872 124.335C297.103 124.797 296.105 124.549 295.643 123.779L265.937 74.3409C265.475 73.5718 265.724 72.5737 266.493 72.1115Z" fill="url(#paint32_linear)"/>
<path d="M284.535 74.538L327.01 49.0163C327.395 48.7852 327.894 48.9097 328.125 49.2942L346.952 80.6285C347.183 81.013 347.059 81.5121 346.674 81.7432L304.199 107.265C303.814 107.496 303.315 107.372 303.084 106.987L284.257 75.6527C284.026 75.2682 284.15 74.7691 284.535 74.538Z" fill="url(#paint33_linear)"/>
<path d="M322.299 89.2817C317.877 91.939 312.138 90.508 309.48 86.0855C306.823 81.663 308.254 75.9237 312.676 73.2664C317.099 70.6091 322.838 72.0401 325.496 76.4626C328.153 80.8851 326.722 86.6244 322.299 89.2817Z" fill="url(#paint34_linear)"/>
<path d="M315.211 79.1127L320.116 78.8438C320.564 78.8192 320.947 79.1624 320.971 79.6104C320.98 79.7734 320.94 79.9353 320.855 80.075L318.316 84.2789C318.084 84.6629 317.584 84.7862 317.2 84.5542C317.087 84.4857 316.992 84.3907 316.924 84.2773L314.56 80.3423C314.328 79.9577 314.453 79.4586 314.837 79.2276C314.951 79.1594 315.079 79.12 315.211 79.1127Z" fill="white"/>
<path d="M284.535 74.538L327.01 49.0163C327.395 48.7852 327.894 48.9097 328.125 49.2942L330.426 53.124L286.558 79.4825L284.257 75.6527C284.026 75.2682 284.15 74.7691 284.535 74.538Z" fill="url(#paint35_linear)"/>
<path d="M288.508 76.4165C288.124 76.6476 287.625 76.5231 287.393 76.1386C287.162 75.754 287.287 75.2549 287.671 75.0239C288.056 74.7928 288.555 74.9172 288.786 75.3018C289.017 75.6864 288.893 76.1854 288.508 76.4165Z" fill="#F2F5FF"/>
<path d="M290.946 74.9519C290.561 75.183 290.062 75.0585 289.831 74.674C289.6 74.2894 289.724 73.7903 290.109 73.5593C290.493 73.3282 290.993 73.4526 291.224 73.8372C291.455 74.2218 291.33 74.7208 290.946 74.9519Z" fill="#F2F5FF"/>
<path fill-rule="evenodd" clip-rule="evenodd" d="M139.639 0.293962L203.52 45.0245C204.255 45.5391 204.434 46.5522 203.919 47.2872L170.837 94.5331C170.323 95.2681 169.31 95.4468 168.575 94.9321L104.693 50.2016C103.958 49.6869 103.779 48.6739 104.294 47.9388L137.376 0.692946C137.891 -0.0420729 138.904 -0.220704 139.639 0.293962Z" fill="url(#paint36_linear)"/>
<path d="M148.252 26.353L178.197 47.3205C178.564 47.5778 178.653 48.0843 178.396 48.4518L163.438 69.8142C163.181 70.1817 162.674 70.2711 162.307 70.0137L132.362 49.0463C131.995 48.789 131.905 48.2824 132.163 47.9149L147.121 26.5525C147.378 26.185 147.885 26.0957 148.252 26.353Z" fill="url(#paint37_linear)"/>
<path d="M147.586 25.887L178.861 47.7863L154.401 49.5579L147.586 25.887Z" fill="url(#paint38_linear)"/>
<path fill-rule="evenodd" clip-rule="evenodd" d="M270.327 78.3591L204.923 120.833C204.17 121.322 203.164 121.108 202.675 120.355L171.262 71.9836C170.774 71.231 170.987 70.2248 171.74 69.7361L237.144 27.2623C237.896 26.7736 238.903 26.9875 239.391 27.74L270.804 76.1117C271.293 76.8642 271.079 77.8704 270.327 78.3591Z" fill="url(#paint39_linear)"/>
<path d="M243.882 75.6745L213.224 95.5841C212.848 95.8284 212.345 95.7215 212.1 95.3452L197.897 73.4738C197.652 73.0975 197.759 72.5944 198.136 72.3501L228.794 52.4405C229.17 52.1961 229.673 52.3031 229.917 52.6793L244.121 74.5507C244.365 74.927 244.258 75.4301 243.882 75.6745Z" fill="url(#paint40_linear)"/>
<path d="M244.564 75.2321L212.543 96.0266L220.063 72.6833L244.564 75.2321Z" fill="url(#paint41_linear)"/>
<path fill-rule="evenodd" clip-rule="evenodd" d="M231.138 26.7822L302.381 58.5017C303.2 58.8666 303.569 59.827 303.204 60.6467L279.745 113.337C279.38 114.157 278.42 114.525 277.6 114.16L206.357 82.4409C205.537 82.0759 205.168 81.1155 205.533 80.2958L228.993 27.6056C229.358 26.7859 230.318 26.4173 231.138 26.7822Z" fill="url(#paint42_linear)"/>
<path d="M240.471 49.1295C240.613 48.7076 241.067 48.4778 241.49 48.6139L249.529 51.1974C249.931 51.3264 250.167 51.7407 250.073 52.1516L249.569 54.358C249.486 54.7233 249.663 55.0983 249.998 55.2656L277.271 68.8793C277.276 68.8819 277.281 68.8845 277.286 68.8872C277.683 69.096 277.836 69.5872 277.627 69.9842L265.706 92.6515C265.507 93.0295 265.05 93.189 264.659 93.0165L231.467 78.3602C231.083 78.1908 230.891 77.7571 231.025 77.3593L240.471 49.1295Z" fill="url(#paint43_linear)"/>
<path d="M231.497 77.1481L242.815 57.5113C243.024 57.1477 243.476 57.0036 243.858 57.1788L281.412 74.4261C281.819 74.6134 281.998 75.0957 281.811 75.5034C281.775 75.5815 281.727 75.6534 281.669 75.7164L265.549 93.1156C265.31 93.373 264.933 93.4482 264.614 93.302L231.863 78.2922C231.455 78.1053 231.276 77.6231 231.463 77.2153C231.473 77.1923 231.485 77.1699 231.497 77.1481Z" fill="url(#paint44_linear)"/>
<path d="M57.4062 222.268L56.3874 228.719C56.3874 228.719 58.247 231.295 60.9796 231.295C63.7122 231.295 65.8447 229.996 65.8447 229.996L66.8652 222.945L57.4062 222.268Z" fill="url(#paint45_linear)"/>
<path d="M56.3378 227.954C55.5647 227.954 55.5647 230.616 55.531 232.643C55.5188 233.38 55.6499 234.504 55.9243 236.014C56.0367 236.633 56.532 237.086 57.1188 237.108C69.5261 237.566 77.0023 237.554 77.025 237.071C78.0163 233.776 77.4763 233.421 71.8497 230.837C69.5627 229.786 67.4634 229.285 66.0412 228.422C65.5547 228.127 64.5351 230.512 61.1719 230.512C57.8087 230.512 57.1109 227.954 56.3378 227.954Z" fill="url(#paint46_linear)"/>
<path d="M57.9744 118.56C67.9531 143.004 75.2048 169.89 75.2053 180.211C75.2059 190.532 71.6222 207.256 66.7772 226.203C64.2623 227.636 58.1749 226.454 56.9669 225.02C55.6116 223.412 60.2416 188.122 59.4988 180.896C58.756 173.669 38.3946 140.653 38.3945 139.458C38.3945 138.263 39.1711 132.076 40.7243 120.897L57.9744 118.56Z" fill="url(#paint47_linear)"/>
<path d="M27.8886 226.33L26.8698 232.781C26.8698 232.781 28.7294 235.357 31.462 235.357C34.1946 235.357 36.3271 234.058 36.3271 234.058L37.3477 227.007L27.8886 226.33Z" fill="url(#paint48_linear)"/>
<path d="M26.8202 232.016C26.0471 232.016 26.0471 234.678 26.0135 236.704C26.0012 237.442 26.1323 238.566 26.4067 240.076C26.5192 240.695 27.0144 241.148 27.6012 241.17C40.0085 241.628 47.4847 241.615 47.5074 241.133C48.4987 237.838 47.9587 237.483 42.3321 234.898C40.0451 233.848 37.9458 233.346 36.5236 232.484C36.0371 232.189 35.0175 234.574 31.6543 234.574C28.2911 234.574 27.5933 232.016 26.8202 232.016Z" fill="url(#paint49_linear)"/>
<path d="M58.0134 118.353C58.0134 118.353 57.4376 129.289 50.4116 135.239C46.4271 138.613 51.2135 154.581 46.2139 182.741C41.2144 210.901 38.7506 226.332 37.72 229.101C36.6895 231.871 28.1144 232.11 27.3838 228.277C26.6531 224.445 30.1253 206.959 30.6131 181.062C24.9161 154.52 21.0524 134.331 21.5001 133.223C21.9477 132.115 20.7421 125.45 26.3698 115.667L58.0134 118.353Z" fill="url(#paint50_linear)"/>
<path fill-rule="evenodd" clip-rule="evenodd" d="M23.7424 28.0765C23.7424 28.0765 16.2477 27.4429 15.2074 33.792C14.1671 40.141 19.3751 53.1603 11.3621 58.4384C3.34905 63.7166 0.348607 74.4647 10.2457 80.0966C20.1428 85.7284 33.6606 73.5719 33.6606 73.5719L35.1426 48.6073L31.8115 41.8219L23.7424 28.0765Z" fill="#223762"/>
<path d="M22.2622 31.9306C20.8041 31.9306 19.6221 30.7486 19.6221 29.2905C19.6221 27.8324 20.8041 26.6504 22.2622 26.6504C23.7203 26.6504 24.9023 27.8324 24.9023 29.2905C24.9023 30.7486 23.7203 31.9306 22.2622 31.9306Z" fill="#D6E3FA"/>
<path fill-rule="evenodd" clip-rule="evenodd" d="M50.4923 36.8833C52.8698 33.9315 54.0586 30.6209 54.0586 26.9515C54.0586 21.4475 42.5008 11.3306 29.8464 18.4506C17.192 25.5707 17.7089 37.4503 30.2697 50.1469C38.6436 58.6113 42.1394 54.9241 40.7571 39.0853L50.4923 36.8833Z" fill="url(#paint51_radial)"/>
<path fill-rule="evenodd" clip-rule="evenodd" d="M30.7573 56.1986C39.4876 63.6156 45.5855 67.4694 48.0578 66.1897C50.5319 64.9091 50.5319 61.886 47.0215 58.4043C47.0215 58.4043 44.5735 58.2979 42.9517 56.1986C41.8227 54.7371 42.1191 50.6694 43.8409 43.9955C35.1559 36.5666 31.1281 34.1137 31.7574 36.6367C32.7015 40.4212 31.9462 37.0572 32.135 42.5238C32.2587 46.1043 31.7995 50.5671 30.7573 55.912V56.1986Z" fill="url(#paint52_linear)"/>
<path fill-rule="evenodd" clip-rule="evenodd" d="M50.5766 39.4005L51.2425 33.3693C52.3 30.8781 50.0054 28.2004 48.9761 28.6749C44.926 30.542 39.1827 29.9058 35.7201 26.7664C36.3059 31.0636 36.3059 33.5796 33.2023 34.4979C32.0231 33.28 28.8907 32.6677 28.7277 37.0474C28.6191 39.9673 29.7716 41.248 32.1853 40.8897L32.8081 45.8577C32.8081 45.8577 36.8025 51.0041 41.3139 52.4269C43.7488 53.1947 45.3584 53.2445 46.1428 52.5761C47.5358 51.3891 48.9894 47.918 50.2373 42.9547C51.0301 42.7372 51.7363 42.5199 51.7363 41.5374C51.7363 41.1747 51.0301 40.8897 50.5766 39.4005Z" fill="url(#paint53_linear)"/>
<path d="M101.959 53.9001L98.2402 51.0538L103.514 46.6163C103.945 43.3978 104.473 41.4389 105.097 40.7394C105.724 40.0352 109.231 39.3653 109.972 39.5838C110.053 39.6078 108.209 41.9051 107.934 42.6401C107.867 42.8166 108.137 42.9271 108.252 42.8716C109.323 42.3568 111.39 40.7051 112.078 41.334C112.766 41.963 110.662 43.302 110.388 44.9453C110.157 46.336 108.854 47.8013 106.48 49.3412L101.959 53.9001Z" fill="url(#paint54_linear)"/>
<path d="M47.1953 58.5703C52.4708 59.3333 57.0656 60.1569 60.9798 61.0411C64.6703 61.8748 69.6142 63.6546 74.5137 63.0017C84.0873 61.7258 99.3508 47.1582 101.574 47.1582C102.471 47.1582 103.637 48.3596 105.072 50.7624L105.072 50.7624C105.342 51.2142 105.291 51.7881 104.947 52.1856C94.2993 64.4594 87.3406 71.6922 84.0704 73.884C80.7422 76.1147 70.938 78.7428 54.6576 81.7684C55.5268 78.7407 55.5268 75.8795 54.6576 73.1848C54.0786 71.3895 51.5912 66.518 47.1953 58.5703Z" fill="url(#paint55_radial)"/>
<path d="M46.9219 58.3629L52.0794 60.5041L58.5085 70.546C58.5085 70.546 54.272 95.5531 54.2721 98.6904C54.2723 101.828 58.099 118.464 58.099 118.464C58.099 118.464 55.9187 118.709 51.0966 119.791C41.635 121.914 30.8841 121.268 26.2493 116.749C23.0559 113.635 19.329 109.597 14.9668 99.9216C10.8311 80.101 16.2145 66.864 18.3788 64.3442C20.5431 61.8243 20.5387 60.4898 31.1039 56.207C39.8449 63.6357 45.4525 66.7097 47.9266 65.429C50.4007 64.1484 49.3302 62.4032 46.9219 58.3629Z" fill="url(#paint56_radial)"/>
<path opacity="0.4" d="M26.2499 116.749C25.1843 115.71 24.0593 114.568 22.8711 113.148L24.7711 100.135L27.5173 71.957C29.4095 80.0781 35.3462 81.5788 33.295 86.7355C30.2182 94.4705 43.9973 96.0434 41.5909 103.68C39.1845 111.317 49.3256 111.317 48.4481 118.374C48.3549 119.123 48.1298 119.803 47.7729 120.415C39.2298 121.713 30.3485 120.745 26.2499 116.749Z" fill="url(#paint57_linear)"/>
<path fill-rule="evenodd" clip-rule="evenodd" d="M17.3566 72.7946C17.3566 75.15 19.266 77.0594 21.6214 77.0594C23.9768 77.0594 25.8862 75.15 25.8862 72.7946C25.8862 70.4392 23.9768 68.5298 21.6214 68.5298C19.266 68.5298 17.3566 70.4392 17.3566 72.7946ZM15.9231 90.8173C15.9231 92.2982 15.1683 93.6027 14.0226 94.3673C13.6812 91.7516 13.5053 89.2754 13.459 86.9502C14.9144 87.6291 15.9231 89.1054 15.9231 90.8173ZM19.0776 107.321C21.433 107.321 23.3424 109.231 23.3424 111.586C23.3424 112.192 23.216 112.769 22.9881 113.291C21.6656 111.725 20.2644 109.82 18.7793 107.331C18.8779 107.325 18.9773 107.321 19.0776 107.321Z" fill="url(#paint58_linear)"/>
<path d="M33.4004 124.191L36.3748 120.574L40.6255 126C43.5293 126.555 45.1451 127.182 45.4729 127.882C45.9644 128.93 44.7001 128.771 45.7161 129.742C46.3979 130.394 47.5565 131.416 47.3124 132.149C47.2194 132.428 46.0199 132.461 45.8387 132.715C44.948 133.965 43.1426 134.798 41.9141 134.03C40.4906 133.14 39.1188 131.42 37.7987 128.869L33.4004 124.191Z" fill="url(#paint59_linear)"/>
<path d="M31.5295 77.3159C28.3044 85.7601 26.351 91.9418 25.6695 95.8612C24.9879 99.7806 29.016 108.093 37.7537 120.8C37.2918 125.37 35.5108 126.666 32.4108 124.688C27.7607 121.72 20.2319 121.23 11.9213 97.6101C7.39038 84.7326 15.2767 64.9805 21.6326 60.8502C26.9348 57.4047 30.6483 58.1437 31.5295 60.8502C34.0158 68.4863 34.0158 73.9749 31.5295 77.3159Z" fill="url(#paint60_radial)"/>
<g style="mix-blend-mode:multiply" opacity="0.6">
<path fill-rule="evenodd" clip-rule="evenodd" d="M218.779 231.327L246.805 240.262L390.184 231.733L360.534 223L218.779 231.327Z" fill="#E2EBFC"/>
</g>
<g style="mix-blend-mode:multiply" opacity="0.6">
<path fill-rule="evenodd" clip-rule="evenodd" d="M223.783 230.327L210.575 239.262L143.005 230.733L156.978 222L223.783 230.327Z" fill="#E2EBFC"/>
</g>
<path d="M154.215 90.3488L220.827 78.1636V232.103L154.215 223.574V90.3488Z" fill="url(#paint61_linear)"/>
<g style="mix-blend-mode:multiply" opacity="0.6">
<path fill-rule="evenodd" clip-rule="evenodd" d="M154.215 150.462V90.3491L154.215 90.3488L220.827 78.1636L212.704 150.462H154.215Z" fill="#E2EBFC"/>
</g>
<path d="M154.214 90.3495L220.826 78.1643L204.579 146.401H137.967L154.214 90.3495Z" fill="url(#paint62_linear)"/>
<path d="M220.828 78.1636L362.989 90.3488V223.98L220.828 232.103V78.1636Z" fill="url(#paint63_linear)"/>
<path opacity="0.2" d="M221.018 96.376C221.018 96.376 242.269 112.604 240.287 145.543C238.305 178.482 292.129 146.364 288.318 171.858C284.508 197.352 333.805 183.632 330.159 199.338C326.514 215.045 362.354 203.148 362.354 223.979L220.738 232.097L221.018 96.376Z" fill="url(#paint64_linear)"/>
<path d="M231.389 204.192L244.882 204.379V218.032L231.389 218.803V204.192Z" fill="#79A4DD"/>
<path d="M250.896 204.192L290.805 204.744V208.165L250.896 208.009V204.192Z" fill="#79A4DD"/>
<path d="M250.896 210.856L271.111 210.724V214.146L250.896 214.673V210.856Z" fill="#79A4DD"/>
<g style="mix-blend-mode:multiply" opacity="0.6">
<path fill-rule="evenodd" clip-rule="evenodd" d="M362.989 90.3488L220.828 78.1636L224.89 150.869H362.989V90.3488Z" fill="#E2EBFC"/>
</g>
<path d="M220.828 78.1636L362.989 90.3488L379.236 142.745H237.075L220.828 78.1636Z" fill="url(#paint65_linear)"/>
<path d="M479.962 43.3494C480.954 49.0793 482.21 52.4807 482.942 53.9072C484.04 56.0469 496.129 59.5604 486.308 63.9481C479.761 66.8732 472.357 63.9124 463.328 53.028C465.351 51.1982 466.923 48.9055 467.053 46.4162C467.184 43.9269 466.788 41.768 465.868 39.9397C460.888 29.4402 458.873 23.192 459.821 21.1952C460.77 19.1984 465.478 15.9582 473.944 11.4746C482.326 15.4582 490.522 16.0617 490.383 18.7234L489.659 26.7745C492.348 32.6869 488.441 40.7521 486.95 42.4418C485.46 44.1316 482.21 43.3494 479.962 43.3494Z" fill="url(#paint66_linear)"/>
<path d="M471.02 27.2922L477.108 27.1434L477.172 29.5788L471.083 28.5091L471.02 27.2922Z" fill="url(#paint67_radial)"/>
<path fill-rule="evenodd" clip-rule="evenodd" d="M486.302 29.2052L484.669 29.2908C484.38 30.6531 483.446 31.8517 482.104 32.3722C479.928 33.2164 477.577 31.8695 476.924 29.5297C476.303 27.3055 477.406 25.0119 479.476 24.3817C481.664 23.7154 483.983 25.0436 484.604 27.2396C484.682 27.5131 484.73 27.7899 484.751 28.0662L486.085 27.9963C486.002 26.1384 487.059 24.4242 488.805 23.8928C490.994 23.2265 493.312 24.5547 493.934 26.7507C494.523 28.8335 493.43 31.1088 491.433 31.8833C489.308 32.7075 487.017 31.4431 486.302 29.2052ZM481.325 31.2113C482.735 30.6642 483.571 28.9255 483.133 27.3783C482.727 25.9442 481.402 25.1852 480.124 25.5742C478.728 25.9993 477.901 27.7198 478.368 29.3919C478.802 30.9483 480.094 31.6886 481.325 31.2113ZM492.462 26.8896C492.9 28.4368 492.065 30.1755 490.654 30.7226C489.424 31.2 488.131 30.4596 487.697 28.9032C487.231 27.2311 488.057 25.5107 489.454 25.0856C490.731 24.6965 492.056 25.4556 492.462 26.8896Z" fill="url(#paint68_linear)"/>
<path d="M492.275 13.9006C492.275 24.6701 473.97 23.566 473.97 23.566C473.97 23.566 472.229 30.2993 472.18 30.645C471.949 32.2825 470.382 24.6457 468.081 25.9461C465.78 27.2466 465.574 32.7685 469.287 34.4446C468.436 37.3723 467.642 38.624 466.106 40.5366C462.795 40.0798 459.903 36.0322 457.392 29.0447C454.881 22.0572 455.067 21.013 457.951 17.3226C457.117 14.5767 457.581 11.9352 459.345 9.39799C460.685 7.47053 467.262 3.96315 473.957 5.29412C488.204 8.12658 492.275 3.1311 492.275 13.9006Z" fill="url(#paint69_radial)"/>
<path d="M519.876 216.59L523.595 224.566C523.595 224.566 522.635 228.21 519.426 229.707C516.217 231.203 513.799 230.473 513.799 230.473L509.138 222.565L519.876 216.59Z" fill="url(#paint70_linear)"/>
<path d="M512.439 228.016C513.347 227.593 515.567 230.215 519.517 228.373C523.467 226.531 522.56 223.544 523.292 223.624C524.721 223.78 526.769 224.059 529.438 224.459C537.694 223.246 542.036 224.109 542.463 227.051C542.7 227.63 533.191 232.082 518.369 238.339C517.668 238.635 516.838 238.373 516.367 237.708C515.218 236.085 514.448 234.837 514.059 233.964C512.989 231.566 511.531 228.439 512.439 228.016Z" fill="url(#paint71_linear)"/>
<g filter="url(#filter11_i)">
<path d="M483.117 106.731C489.437 115.961 501.611 135.858 508.54 171.686C515.468 207.514 523.274 217.794 523.301 220.307C523.341 224.077 511.162 229.554 508.54 225.323C506.791 222.502 499.896 211.085 488.633 180.013C469.714 151 460.658 130.202 460.684 128.677C460.71 127.153 461.835 119.279 464.059 105.055C470.443 96.9423 476.796 97.5011 483.117 106.731Z" fill="url(#paint72_linear)"/>
</g>
<path d="M461.53 229.213L460.153 237.904C460.153 237.904 457.319 240.389 453.822 239.835C450.325 239.281 448.729 237.324 448.729 237.324L449.287 228.162L461.53 229.213Z" fill="url(#paint73_linear)"/>
<path d="M448.977 234.527C449.966 234.684 450.341 238.099 454.645 238.781C458.95 239.463 459.868 236.479 460.431 236.955C461.528 237.883 463.071 239.26 465.059 241.084C472.582 244.695 474.858 245.695 474.452 249.148C474.371 249.54 462.775 249.13 462.878 249.148C466.939 249.847 453.822 247.521 448.121 246.401C447.374 246.254 446.832 245.573 446.814 244.759C446.769 242.771 446.829 241.306 446.994 240.364C447.448 237.778 447.987 234.37 448.977 234.527Z" fill="url(#paint74_linear)"/>
<g filter="url(#filter12_i)">
<path d="M488.494 118.94C488.494 118.94 490.124 151.1 477.61 185.379C465.096 219.658 464.55 230.7 463.278 232.868C461.371 236.121 447.176 236.434 447.108 231.457C447.062 228.138 451.57 211.311 455.863 179.967C460.157 148.624 454.26 132.046 455.863 123.968C457.466 115.89 462.977 103.915 472.396 88.0427L488.494 118.94Z" fill="url(#paint75_linear)"/>
</g>
<path d="M481.483 50.6206L489.884 57.2302C498.008 68.1969 494.559 104.223 494 126.023C484.858 135.258 478.424 136.608 458.451 130.074C459.631 123.513 458.985 113.378 456.513 99.6685C452.475 79.1361 448.092 63.912 450.689 60.8858C453.001 58.191 457.295 55.9365 463.22 52.1424C463.706 51.8312 464.27 50.8205 464.914 49.1101C465.924 48.7417 466.465 48.5859 466.539 48.6427C466.717 48.7801 465.811 49.8394 465.92 49.9223C473.028 55.3378 477.851 57.4065 480.798 56.5177C482.664 55.955 483.291 62.9809 484.349 62.4324C485.109 62.0387 484.053 55.7737 484.349 55.2158C484.413 55.0954 483.04 54.5977 482.643 54.0473C482.323 53.6032 481.936 52.4609 481.483 50.6206Z" fill="url(#paint76_linear)"/>
<path d="M481.483 50.6206L489.884 57.2302C498.008 68.1969 494.559 104.223 494 126.023C484.858 135.258 478.424 136.608 458.451 130.074C459.631 123.513 458.985 113.378 456.513 99.6685C452.475 79.1361 448.092 63.912 450.689 60.8858C453.001 58.191 457.295 55.9365 463.22 52.1424C463.706 51.8312 464.27 50.8205 464.914 49.1101C465.924 48.7417 466.465 48.5859 466.539 48.6427C466.717 48.7801 465.811 49.8394 465.92 49.9223C473.028 55.3378 477.851 57.4065 480.798 56.5177C482.664 55.955 483.291 62.9809 484.349 62.4324C485.109 62.0387 484.053 55.7737 484.349 55.2158C484.413 55.0954 483.04 54.5977 482.643 54.0473C482.323 53.6032 481.936 52.4609 481.483 50.6206Z" fill="url(#paint77_linear)"/>
<path d="M481.483 50.6206L489.884 57.2302C498.008 68.1969 494.559 104.223 494 126.023C484.858 135.258 478.424 136.608 458.451 130.074C459.631 123.513 458.985 113.378 456.513 99.6685C452.475 79.1361 448.092 63.912 450.689 60.8858C453.001 58.191 457.295 55.9365 463.22 52.1424C463.706 51.8312 464.27 50.8205 464.914 49.1101C465.924 48.7417 466.465 48.5859 466.539 48.6427C466.717 48.7801 465.811 49.8394 465.92 49.9223C473.028 55.3378 477.851 57.4065 480.798 56.5177C482.664 55.955 483.291 62.9809 484.349 62.4324C485.109 62.0387 484.053 55.7737 484.349 55.2158C484.413 55.0954 483.04 54.5977 482.643 54.0473C482.323 53.6032 481.936 52.4609 481.483 50.6206Z" fill="url(#paint78_linear)"/>
<path d="M466.168 54.4968L468.165 54.8696L467.162 60.2405L463.283 58.5635L462.236 62.9734L458.176 61.4719L457.438 64.7702L455.456 64.3266L456.702 58.7613L460.79 60.2733L461.867 55.7385L465.632 57.3666L466.168 54.4968Z" fill="white"/>
<path d="M488.984 67.2179L490.9 66.5425L492.717 71.6952L488.519 72.1822L489.818 76.5249L485.55 77.2546L486.56 80.4802L484.622 81.0869L482.918 75.6444L487.215 74.9096L485.88 70.4439L489.955 69.9711L488.984 67.2179Z" fill="white"/>
<path d="M470.796 70.8697L469.037 69.8542L471.474 65.6336L475.695 68.0704L474.679 69.8292L472.217 68.4078L470.796 70.8697Z" fill="white"/>
<path d="M428.146 76.3203L506.131 76.3203C507.029 76.3203 507.756 77.0477 507.756 77.945V135.622C507.756 136.519 507.029 137.246 506.131 137.246H428.146C427.249 137.246 426.521 136.519 426.521 135.622V77.945C426.521 77.0477 427.249 76.3203 428.146 76.3203Z" fill="#F2F5FF"/>
<path d="M442.363 87.6934L491.916 87.6934C492.365 87.6934 492.729 88.0571 492.729 88.5057V125.061C492.729 125.51 492.365 125.874 491.916 125.874H442.363C441.914 125.874 441.551 125.51 441.551 125.061V88.5057C441.551 88.0571 441.914 87.6934 442.363 87.6934Z" fill="url(#paint79_linear)"/>
<path d="M448.051 111.251H452.113V118.562H448.051V111.251Z" fill="white"/>
<path d="M453.33 107.189H457.392V118.562H453.33V107.189Z" fill="white"/>
<path d="M465.109 107.189H469.171V118.562H465.109V107.189Z" fill="white"/>
<path d="M459.422 103.128H463.484V118.563H459.422V103.128Z" fill="white"/>
<path d="M481.153 118.562C477.227 118.562 474.045 115.38 474.045 111.454C474.045 107.529 477.227 104.346 481.153 104.346C485.079 104.346 488.261 107.529 488.261 111.454C488.261 115.38 485.079 118.562 481.153 118.562Z" fill="white"/>
<path d="M481.152 111.454C481.152 108.773 481.152 107.529 481.152 104.346C485.078 104.346 488.26 107.529 488.26 111.454C485.078 111.454 485.078 111.454 481.152 111.454Z" fill="url(#paint80_linear)"/>
<path d="M442.363 87.6934L491.916 87.6934C492.365 87.6934 492.729 88.0571 492.729 88.5057V92.9736H441.551V88.5057C441.551 88.0571 441.914 87.6934 442.363 87.6934Z" fill="url(#paint81_linear)"/>
<path d="M444.801 91.3491C444.352 91.3491 443.988 90.9854 443.988 90.5367C443.988 90.0881 444.352 89.7244 444.801 89.7244C445.249 89.7244 445.613 90.0881 445.613 90.5367C445.613 90.9854 445.249 91.3491 444.801 91.3491Z" fill="#F2F5FF"/>
<path d="M447.644 91.3491C447.196 91.3491 446.832 90.9854 446.832 90.5367C446.832 90.0881 447.196 89.7244 447.644 89.7244C448.093 89.7244 448.457 90.0881 448.457 90.5367C448.457 90.9854 448.093 91.3491 447.644 91.3491Z" fill="#F2F5FF"/>
<path opacity="0.5" d="M467.443 111.488C463.015 111.256 449.127 83.3827 449.579 74.7453C450.031 66.108 450.818 61.1653 455.246 61.3977C459.674 61.6301 466.539 65.0297 466.087 73.6671C465.827 78.6294 465.088 88.3166 465.572 97.5296C465.931 104.353 469.327 111.587 467.443 111.488Z" fill="#95AFF5"/>
<path d="M477.559 132.426C474.843 131.831 462.933 123.419 453.719 112.963C451.349 110.273 463.495 102.825 465.508 106.319C468.56 111.615 473.998 118.751 481.822 127.726C482.825 128.064 483.914 128.45 485.088 128.884C488.684 128.581 490.724 128.607 491.21 128.963C491.695 129.318 490.925 130.153 488.9 131.467C493.535 133.184 495.974 134.316 496.215 134.864C496.457 135.412 494.9 135.435 491.546 134.933C494.951 136.894 496.505 138.077 496.207 138.484C495.909 138.891 493.937 138.649 490.289 137.758C492.763 139.891 493.791 141.055 493.371 141.251C492.952 141.447 491.159 140.845 487.992 139.444C488.949 141.594 489.202 142.679 488.751 142.699C488.301 142.719 486.172 140.312 482.365 135.478L478.395 132.865C478.248 132.74 478.103 132.616 477.962 132.495C477.831 132.479 477.697 132.457 477.559 132.426Z" fill="url(#paint82_linear)"/>
<path d="M465.911 75.3782C462.545 88.0553 462.82 91.0778 462.583 98.2382C462.543 99.4472 462.926 100.982 463.732 102.844C463.763 102.915 463.869 102.951 464.049 102.95C464.813 102.947 465.535 103.302 465.998 103.91C466.493 104.559 466.891 105.137 467.192 105.645C470.309 110.9 458.982 119.572 451.759 114.213C451.281 113.858 450.84 112.989 450.437 111.607C450.247 110.952 450.338 110.248 450.691 109.665C450.77 109.533 450.785 109.436 450.736 109.372C449.509 107.8 448.368 106.199 447.347 104.586C438.495 90.5982 445.187 62.0629 452.773 59.2577C459.512 56.7664 469.277 62.7011 465.911 75.3782Z" fill="url(#paint83_linear)"/>
<path d="M465.911 75.3782C462.545 88.0553 462.82 91.0778 462.583 98.2382C462.543 99.4472 462.926 100.982 463.732 102.844C463.763 102.915 463.869 102.951 464.049 102.95C464.813 102.947 465.535 103.302 465.998 103.91C466.493 104.559 466.891 105.137 467.192 105.645C470.309 110.9 458.982 119.572 451.759 114.213C451.281 113.858 450.84 112.989 450.437 111.607C450.247 110.952 450.338 110.248 450.691 109.665C450.77 109.533 450.785 109.436 450.736 109.372C449.509 107.8 448.368 106.199 447.347 104.586C438.495 90.5982 445.187 62.0629 452.773 59.2577C459.512 56.7664 469.277 62.7011 465.911 75.3782Z" fill="url(#paint84_linear)"/>
<path d="M465.911 75.3782C462.545 88.0553 462.82 91.0778 462.583 98.2382C462.543 99.4472 462.926 100.982 463.732 102.844C463.763 102.915 463.869 102.951 464.049 102.95C464.813 102.947 465.535 103.302 465.998 103.91C466.493 104.559 466.891 105.137 467.192 105.645C470.309 110.9 458.982 119.572 451.759 114.213C451.281 113.858 450.84 112.989 450.437 111.607C450.247 110.952 450.338 110.248 450.691 109.665C450.77 109.533 450.785 109.436 450.736 109.372C449.509 107.8 448.368 106.199 447.347 104.586C438.495 90.5982 445.187 62.0629 452.773 59.2577C459.512 56.7664 469.277 62.7011 465.911 75.3782Z" fill="url(#paint85_linear)"/>
<path d="M448.832 72.3768L448.156 70.4616L453.309 68.6445L453.796 72.8418L458.139 71.5438L458.868 75.8109L462.094 74.801L462.701 76.7392L457.258 78.4431L456.523 74.1463L452.058 75.4811L451.585 71.406L448.832 72.3768Z" fill="white"/>
<path d="M458.797 105.134L459.812 103.375L464.033 105.812L461.596 110.033L459.837 109.017L461.259 106.555L458.797 105.134Z" fill="white"/>
<path d="M450.2 98.3809L448.441 97.3655L450.878 93.1448L455.099 95.5816L454.083 97.3404L451.622 95.919L450.2 98.3809Z" fill="white"/>
<path d="M457.206 89.0198L455.447 88.0044L457.884 83.7837L462.105 86.2205L461.089 87.9793L458.627 86.5579L457.206 89.0198Z" fill="white"/>
</g>
<defs>
<filter id="filter0_i" x="559.016" y="109.513" width="35.0579" height="112.878" filterUnits="userSpaceOnUse" color-interpolation-filters="sRGB">
<feFlood flood-opacity="0" result="BackgroundImageFix"/>
<feBlend mode="normal" in="SourceGraphic" in2="BackgroundImageFix" result="shape"/>
<feColorMatrix in="SourceAlpha" type="matrix" values="0 0 0 0 0 0 0 0 0 0 0 0 0 0 0 0 0 0 127 0" result="hardAlpha"/>
<feOffset dy="-10"/>
<feGaussianBlur stdDeviation="11"/>
<feComposite in2="hardAlpha" operator="arithmetic" k2="-1" k3="1"/>
<feColorMatrix type="matrix" values="0 0 0 0 0.221483 0 0 0 0 0.77854 0 0 0 0 0.610041 0 0 0 1 0"/>
<feBlend mode="normal" in2="shape" result="effect1_innerShadow"/>
</filter>
<filter id="filter1_i" x="547.086" y="168.411" width="19.9211" height="33.7151" filterUnits="userSpaceOnUse" color-interpolation-filters="sRGB">
<feFlood flood-opacity="0" result="BackgroundImageFix"/>
<feBlend mode="normal" in="SourceGraphic" in2="BackgroundImageFix" result="shape"/>
<feColorMatrix in="SourceAlpha" type="matrix" values="0 0 0 0 0 0 0 0 0 0 0 0 0 0 0 0 0 0 127 0" result="hardAlpha"/>
<feOffset dy="-10"/>
<feGaussianBlur stdDeviation="11"/>
<feComposite in2="hardAlpha" operator="arithmetic" k2="-1" k3="1"/>
<feColorMatrix type="matrix" values="0 0 0 0 0.221483 0 0 0 0 0.77854 0 0 0 0 0.610041 0 0 0 1 0"/>
<feBlend mode="normal" in2="shape" result="effect1_innerShadow"/>
</filter>
<filter id="filter2_i" x="547.221" y="149.923" width="19.61" height="33.9427" filterUnits="userSpaceOnUse" color-interpolation-filters="sRGB">
<feFlood flood-opacity="0" result="BackgroundImageFix"/>
<feBlend mode="normal" in="SourceGraphic" in2="BackgroundImageFix" result="shape"/>
<feColorMatrix in="SourceAlpha" type="matrix" values="0 0 0 0 0 0 0 0 0 0 0 0 0 0 0 0 0 0 127 0" result="hardAlpha"/>
<feOffset dy="-10"/>
<feGaussianBlur stdDeviation="11"/>
<feComposite in2="hardAlpha" operator="arithmetic" k2="-1" k3="1"/>
<feColorMatrix type="matrix" values="0 0 0 0 0.221483 0 0 0 0 0.77854 0 0 0 0 0.610041 0 0 0 1 0"/>
<feBlend mode="normal" in2="shape" result="effect1_innerShadow"/>
</filter>
<filter id="filter3_i" x="550.371" y="130.017" width="15.8773" height="36.189" filterUnits="userSpaceOnUse" color-interpolation-filters="sRGB">
<feFlood flood-opacity="0" result="BackgroundImageFix"/>
<feBlend mode="normal" in="SourceGraphic" in2="BackgroundImageFix" result="shape"/>
<feColorMatrix in="SourceAlpha" type="matrix" values="0 0 0 0 0 0 0 0 0 0 0 0 0 0 0 0 0 0 127 0" result="hardAlpha"/>
<feOffset dy="-10"/>
<feGaussianBlur stdDeviation="11"/>
<feComposite in2="hardAlpha" operator="arithmetic" k2="-1" k3="1"/>
<feColorMatrix type="matrix" values="0 0 0 0 0.221483 0 0 0 0 0.77854 0 0 0 0 0.610041 0 0 0 1 0"/>
<feBlend mode="normal" in2="shape" result="effect1_innerShadow"/>
</filter>
<filter id="filter4_i" x="556.104" y="109.968" width="13.2514" height="37.4438" filterUnits="userSpaceOnUse" color-interpolation-filters="sRGB">
<feFlood flood-opacity="0" result="BackgroundImageFix"/>
<feBlend mode="normal" in="SourceGraphic" in2="BackgroundImageFix" result="shape"/>
<feColorMatrix in="SourceAlpha" type="matrix" values="0 0 0 0 0 0 0 0 0 0 0 0 0 0 0 0 0 0 127 0" result="hardAlpha"/>
<feOffset dy="-10"/>
<feGaussianBlur stdDeviation="11"/>
<feComposite in2="hardAlpha" operator="arithmetic" k2="-1" k3="1"/>
<feColorMatrix type="matrix" values="0 0 0 0 0.221483 0 0 0 0 0.77854 0 0 0 0 0.610041 0 0 0 1 0"/>
<feBlend mode="normal" in2="shape" result="effect1_innerShadow"/>
</filter>
<filter id="filter5_i" x="565.029" y="90.8293" width="11.8961" height="37.9033" filterUnits="userSpaceOnUse" color-interpolation-filters="sRGB">
<feFlood flood-opacity="0" result="BackgroundImageFix"/>
<feBlend mode="normal" in="SourceGraphic" in2="BackgroundImageFix" result="shape"/>
<feColorMatrix in="SourceAlpha" type="matrix" values="0 0 0 0 0 0 0 0 0 0 0 0 0 0 0 0 0 0 127 0" result="hardAlpha"/>
<feOffset dy="-10"/>
<feGaussianBlur stdDeviation="11"/>
<feComposite in2="hardAlpha" operator="arithmetic" k2="-1" k3="1"/>
<feColorMatrix type="matrix" values="0 0 0 0 0.221483 0 0 0 0 0.77854 0 0 0 0 0.610041 0 0 0 1 0"/>
<feBlend mode="normal" in2="shape" result="effect1_innerShadow"/>
</filter>
<filter id="filter6_i" x="575.352" y="110.867" width="27.0052" height="24.2684" filterUnits="userSpaceOnUse" color-interpolation-filters="sRGB">
<feFlood flood-opacity="0" result="BackgroundImageFix"/>
<feBlend mode="normal" in="SourceGraphic" in2="BackgroundImageFix" result="shape"/>
<feColorMatrix in="SourceAlpha" type="matrix" values="0 0 0 0 0 0 0 0 0 0 0 0 0 0 0 0 0 0 127 0" result="hardAlpha"/>
<feOffset dy="-10"/>
<feGaussianBlur stdDeviation="11"/>
<feComposite in2="hardAlpha" operator="arithmetic" k2="-1" k3="1"/>
<feColorMatrix type="matrix" values="0 0 0 0 0.221483 0 0 0 0 0.77854 0 0 0 0 0.610041 0 0 0 1 0"/>
<feBlend mode="normal" in2="shape" result="effect1_innerShadow"/>
</filter>
<filter id="filter7_i" x="572.26" y="127.695" width="27.0052" height="24.2684" filterUnits="userSpaceOnUse" color-interpolation-filters="sRGB">
<feFlood flood-opacity="0" result="BackgroundImageFix"/>
<feBlend mode="normal" in="SourceGraphic" in2="BackgroundImageFix" result="shape"/>
<feColorMatrix in="SourceAlpha" type="matrix" values="0 0 0 0 0 0 0 0 0 0 0 0 0 0 0 0 0 0 127 0" result="hardAlpha"/>
<feOffset dy="-10"/>
<feGaussianBlur stdDeviation="11"/>
<feComposite in2="hardAlpha" operator="arithmetic" k2="-1" k3="1"/>
<feColorMatrix type="matrix" values="0 0 0 0 0.221483 0 0 0 0 0.77854 0 0 0 0 0.610041 0 0 0 1 0"/>
<feBlend mode="normal" in2="shape" result="effect1_innerShadow"/>
</filter>
<filter id="filter8_i" x="569.908" y="142.854" width="25.7443" height="26.7735" filterUnits="userSpaceOnUse" color-interpolation-filters="sRGB">
<feFlood flood-opacity="0" result="BackgroundImageFix"/>
<feBlend mode="normal" in="SourceGraphic" in2="BackgroundImageFix" result="shape"/>
<feColorMatrix in="SourceAlpha" type="matrix" values="0 0 0 0 0 0 0 0 0 0 0 0 0 0 0 0 0 0 127 0" result="hardAlpha"/>
<feOffset dy="-10"/>
<feGaussianBlur stdDeviation="11"/>
<feComposite in2="hardAlpha" operator="arithmetic" k2="-1" k3="1"/>
<feColorMatrix type="matrix" values="0 0 0 0 0.221483 0 0 0 0 0.77854 0 0 0 0 0.610041 0 0 0 1 0"/>
<feBlend mode="normal" in2="shape" result="effect1_innerShadow"/>
</filter>
<filter id="filter9_i" x="569.023" y="159.31" width="25.3445" height="27.3503" filterUnits="userSpaceOnUse" color-interpolation-filters="sRGB">
<feFlood flood-opacity="0" result="BackgroundImageFix"/>
<feBlend mode="normal" in="SourceGraphic" in2="BackgroundImageFix" result="shape"/>
<feColorMatrix in="SourceAlpha" type="matrix" values="0 0 0 0 0 0 0 0 0 0 0 0 0 0 0 0 0 0 127 0" result="hardAlpha"/>
<feOffset dy="-10"/>
<feGaussianBlur stdDeviation="11"/>
<feComposite in2="hardAlpha" operator="arithmetic" k2="-1" k3="1"/>
<feColorMatrix type="matrix" values="0 0 0 0 0.221483 0 0 0 0 0.77854 0 0 0 0 0.610041 0 0 0 1 0"/>
<feBlend mode="normal" in2="shape" result="effect1_innerShadow"/>
</filter>
<filter id="filter10_i" x="580.057" y="86.7456" width="22.6666" height="31.0896" filterUnits="userSpaceOnUse" color-interpolation-filters="sRGB">
<feFlood flood-opacity="0" result="BackgroundImageFix"/>
<feBlend mode="normal" in="SourceGraphic" in2="BackgroundImageFix" result="shape"/>
<feColorMatrix in="SourceAlpha" type="matrix" values="0 0 0 0 0 0 0 0 0 0 0 0 0 0 0 0 0 0 127 0" result="hardAlpha"/>
<feOffset dy="-10"/>
<feGaussianBlur stdDeviation="11"/>
<feComposite in2="hardAlpha" operator="arithmetic" k2="-1" k3="1"/>
<feColorMatrix type="matrix" values="0 0 0 0 0.221483 0 0 0 0 0.77854 0 0 0 0 0.610041 0 0 0 1 0"/>
<feBlend mode="normal" in2="shape" result="effect1_innerShadow"/>
</filter>
<filter id="filter11_i" x="460.684" y="99.3625" width="78.6176" height="131.493" filterUnits="userSpaceOnUse" color-interpolation-filters="sRGB">
<feFlood flood-opacity="0" result="BackgroundImageFix"/>
<feBlend mode="normal" in="SourceGraphic" in2="BackgroundImageFix" result="shape"/>
<feColorMatrix in="SourceAlpha" type="matrix" values="0 0 0 0 0 0 0 0 0 0 0 0 0 0 0 0 0 0 127 0" result="hardAlpha"/>
<feOffset dx="16" dy="4"/>
<feGaussianBlur stdDeviation="14"/>
<feComposite in2="hardAlpha" operator="arithmetic" k2="-1" k3="1"/>
<feColorMatrix type="matrix" values="0 0 0 0 0.103708 0 0 0 0 0.317385 0 0 0 0 0.809604 0 0 0 1 0"/>
<feBlend mode="normal" in2="shape" result="effect1_innerShadow"/>
</filter>
<filter id="filter12_i" x="447.107" y="88.0427" width="57.4563" height="151.22" filterUnits="userSpaceOnUse" color-interpolation-filters="sRGB">
<feFlood flood-opacity="0" result="BackgroundImageFix"/>
<feBlend mode="normal" in="SourceGraphic" in2="BackgroundImageFix" result="shape"/>
<feColorMatrix in="SourceAlpha" type="matrix" values="0 0 0 0 0 0 0 0 0 0 0 0 0 0 0 0 0 0 127 0" result="hardAlpha"/>
<feOffset dx="16" dy="4"/>
<feGaussianBlur stdDeviation="14"/>
<feComposite in2="hardAlpha" operator="arithmetic" k2="-1" k3="1"/>
<feColorMatrix type="matrix" values="0 0 0 0 0.103708 0 0 0 0 0.317385 0 0 0 0 0.809604 0 0 0 1 0"/>
<feBlend mode="normal" in2="shape" result="effect1_innerShadow"/>
</filter>
<linearGradient id="paint0_linear" x1="104" y1="108.5" x2="-13.5" y2="158" gradientUnits="userSpaceOnUse">
<stop stop-color="#E9F0FB"/>
<stop offset="1" stop-color="#F9FCFF"/>
</linearGradient>
<linearGradient id="paint1_linear" x1="425.607" y1="59.4348" x2="520.855" y2="131.124" gradientUnits="userSpaceOnUse">
<stop stop-color="#E9F0FB"/>
<stop offset="1" stop-color="#D9E5FF"/>
</linearGradient>
<linearGradient id="paint2_linear" x1="578.803" y1="112.787" x2="667.323" y2="134.23" gradientUnits="userSpaceOnUse">
<stop stop-color="#E9F0FB"/>
<stop offset="1" stop-color="#FAFCFF"/>
</linearGradient>
<linearGradient id="paint3_linear" x1="191.179" y1="-3.62403" x2="116.284" y2="257.514" gradientUnits="userSpaceOnUse">
<stop stop-color="#F7FAFF"/>
<stop offset="1" stop-color="#6B9AD9"/>
</linearGradient>
<linearGradient id="paint4_linear" x1="342.404" y1="16.9909" x2="326.649" y2="85.0484" gradientUnits="userSpaceOnUse">
<stop stop-color="#E5EDFF"/>
<stop offset="1" stop-color="#6B9AD9"/>
</linearGradient>
<linearGradient id="paint5_linear" x1="322.76" y1="72.4826" x2="325.759" y2="92.4392" gradientUnits="userSpaceOnUse">
<stop stop-color="#84F0A8"/>
<stop offset="1" stop-color="#48B676"/>
</linearGradient>
<linearGradient id="paint6_linear" x1="170.787" y1="7.16311" x2="103.904" y2="252.196" gradientUnits="userSpaceOnUse">
<stop stop-color="#F7FAFF"/>
<stop offset="1" stop-color="#6B9AD9"/>
</linearGradient>
<linearGradient id="paint7_linear" x1="287.51" y1="44.7676" x2="298.424" y2="80.524" gradientUnits="userSpaceOnUse">
<stop stop-color="#E2A53A"/>
<stop offset="1" stop-color="#FEB755"/>
</linearGradient>
<linearGradient id="paint8_linear" x1="294.168" y1="57.1045" x2="314.883" y2="93.2539" gradientUnits="userSpaceOnUse">
<stop stop-color="#FDE76B"/>
<stop offset="1" stop-color="#FAB539"/>
</linearGradient>
<linearGradient id="paint9_linear" x1="558.482" y1="149.933" x2="612.47" y2="172.337" gradientUnits="userSpaceOnUse">
<stop stop-color="#B1FFBE"/>
<stop offset="0.444207" stop-color="#5CDB8E"/>
<stop offset="1" stop-color="#149654"/>
</linearGradient>
<linearGradient id="paint10_linear" x1="544.875" y1="186.749" x2="557.548" y2="205.778" gradientUnits="userSpaceOnUse">
<stop stop-color="#B1FFBE"/>
<stop offset="0.444207" stop-color="#5CDB8E"/>
<stop offset="1" stop-color="#149654"/>
</linearGradient>
<linearGradient id="paint11_linear" x1="545.078" y1="168.285" x2="558.074" y2="187.253" gradientUnits="userSpaceOnUse">
<stop stop-color="#B1FFBE"/>
<stop offset="0.444207" stop-color="#5CDB8E"/>
<stop offset="1" stop-color="#149654"/>
</linearGradient>
<linearGradient id="paint12_linear" x1="549.01" y1="148.539" x2="565.226" y2="165.011" gradientUnits="userSpaceOnUse">
<stop stop-color="#B1FFBE"/>
<stop offset="0.444207" stop-color="#5CDB8E"/>
<stop offset="1" stop-color="#149654"/>
</linearGradient>
<linearGradient id="paint13_linear" x1="555.274" y1="128.519" x2="572.469" y2="141.301" gradientUnits="userSpaceOnUse">
<stop stop-color="#B1FFBE"/>
<stop offset="0.444207" stop-color="#5CDB8E"/>
<stop offset="1" stop-color="#149654"/>
</linearGradient>
<linearGradient id="paint14_linear" x1="564.465" y1="109.347" x2="581.361" y2="119.733" gradientUnits="userSpaceOnUse">
<stop stop-color="#B1FFBE"/>
<stop offset="0.444207" stop-color="#5CDB8E"/>
<stop offset="1" stop-color="#149654"/>
</linearGradient>
<linearGradient id="paint15_linear" x1="571.372" y1="127.566" x2="575.141" y2="139.985" gradientUnits="userSpaceOnUse">
<stop stop-color="#B1FFBE"/>
<stop offset="0.444207" stop-color="#5CDB8E"/>
<stop offset="1" stop-color="#149654"/>
</linearGradient>
<linearGradient id="paint16_linear" x1="568.28" y1="144.394" x2="572.049" y2="156.813" gradientUnits="userSpaceOnUse">
<stop stop-color="#B1FFBE"/>
<stop offset="0.444207" stop-color="#5CDB8E"/>
<stop offset="1" stop-color="#149654"/>
</linearGradient>
<linearGradient id="paint17_linear" x1="566.289" y1="160.056" x2="571.745" y2="175.049" gradientUnits="userSpaceOnUse">
<stop stop-color="#B1FFBE"/>
<stop offset="0.444207" stop-color="#5CDB8E"/>
<stop offset="1" stop-color="#149654"/>
</linearGradient>
<linearGradient id="paint18_linear" x1="565.506" y1="176.616" x2="571.421" y2="192.158" gradientUnits="userSpaceOnUse">
<stop stop-color="#B1FFBE"/>
<stop offset="0.444207" stop-color="#5CDB8E"/>
<stop offset="1" stop-color="#149654"/>
</linearGradient>
<linearGradient id="paint19_linear" x1="573.057" y1="187.064" x2="573.708" y2="204.473" gradientUnits="userSpaceOnUse">
<stop stop-color="white"/>
<stop offset="1" stop-color="#E5EEFF"/>
</linearGradient>
<linearGradient id="paint20_linear" x1="577.218" y1="104.715" x2="586.64" y2="123.12" gradientUnits="userSpaceOnUse">
<stop stop-color="#B1FFBE"/>
<stop offset="0.444207" stop-color="#5CDB8E"/>
<stop offset="1" stop-color="#149654"/>
</linearGradient>
<linearGradient id="paint21_linear" x1="592.382" y1="207.99" x2="578.712" y2="214.956" gradientUnits="userSpaceOnUse">
<stop stop-color="white"/>
<stop offset="1" stop-color="#B3CDEF"/>
</linearGradient>
<linearGradient id="paint22_linear" x1="597.056" y1="193.13" x2="583.266" y2="199.855" gradientUnits="userSpaceOnUse">
<stop stop-color="white"/>
<stop offset="1" stop-color="#B3CDEF"/>
</linearGradient>
<linearGradient id="paint23_linear" x1="599.384" y1="181.735" x2="584.498" y2="185.447" gradientUnits="userSpaceOnUse">
<stop stop-color="white"/>
<stop offset="1" stop-color="#B3CDEF"/>
</linearGradient>
<linearGradient id="paint24_linear" x1="588.819" y1="109.112" x2="579.799" y2="155.518" gradientUnits="userSpaceOnUse">
<stop stop-color="white"/>
<stop offset="1" stop-color="#B3CDEF"/>
</linearGradient>
<linearGradient id="paint25_linear" x1="602.239" y1="94.9807" x2="592.979" y2="142.619" gradientUnits="userSpaceOnUse">
<stop stop-color="white"/>
<stop offset="1" stop-color="#B3CDEF"/>
</linearGradient>
<linearGradient id="paint26_linear" x1="594.366" y1="128.972" x2="590.541" y2="148.647" gradientUnits="userSpaceOnUse">
<stop stop-color="white"/>
<stop offset="1" stop-color="#B3CDEF"/>
</linearGradient>
<linearGradient id="paint27_linear" x1="587.255" y1="142.077" x2="583.43" y2="161.752" gradientUnits="userSpaceOnUse">
<stop stop-color="white"/>
<stop offset="1" stop-color="#B3CDEF"/>
</linearGradient>
<linearGradient id="paint28_linear" x1="582.494" y1="151.724" x2="577.758" y2="176.086" gradientUnits="userSpaceOnUse">
<stop stop-color="white"/>
<stop offset="1" stop-color="#B3CDEF"/>
</linearGradient>
<linearGradient id="paint29_linear" x1="577.644" y1="164.51" x2="572.677" y2="190.061" gradientUnits="userSpaceOnUse">
<stop stop-color="white"/>
<stop offset="1" stop-color="#B3CDEF"/>
</linearGradient>
<linearGradient id="paint30_linear" x1="576.14" y1="176.07" x2="570.212" y2="206.569" gradientUnits="userSpaceOnUse">
<stop stop-color="white"/>
<stop offset="1" stop-color="#B3CDEF"/>
</linearGradient>
<linearGradient id="paint31_linear" x1="608.651" y1="103.242" x2="602.263" y2="136.103" gradientUnits="userSpaceOnUse">
<stop stop-color="white"/>
<stop offset="1" stop-color="#B3CDEF"/>
</linearGradient>
<linearGradient id="paint32_linear" x1="178.483" y1="11.0815" x2="105.24" y2="269.187" gradientUnits="userSpaceOnUse">
<stop stop-color="#F7FAFF"/>
<stop offset="1" stop-color="#6B9AD9"/>
</linearGradient>
<linearGradient id="paint33_linear" x1="251.327" y1="-12.0893" x2="251.327" y2="107.381" gradientUnits="userSpaceOnUse">
<stop stop-color="white"/>
<stop offset="1" stop-color="#B3CDEF"/>
</linearGradient>
<linearGradient id="paint34_linear" x1="328.275" y1="73.5449" x2="312.816" y2="82.8883" gradientUnits="userSpaceOnUse">
<stop stop-color="#FF6B67"/>
<stop offset="1" stop-color="#F05971"/>
</linearGradient>
<linearGradient id="paint35_linear" x1="320.986" y1="30.8614" x2="312.926" y2="80.0618" gradientUnits="userSpaceOnUse">
<stop stop-color="#E5EDFF"/>
<stop offset="1" stop-color="#6B9AD9"/>
</linearGradient>
<linearGradient id="paint36_linear" x1="16.4183" y1="-21.1595" x2="-60.0528" y2="242.692" gradientUnits="userSpaceOnUse">
<stop stop-color="#F7FAFF"/>
<stop offset="1" stop-color="#6B9AD9"/>
</linearGradient>
<linearGradient id="paint37_linear" x1="114.057" y1="-19.634" x2="114.057" y2="58.2519" gradientUnits="userSpaceOnUse">
<stop stop-color="white"/>
<stop offset="1" stop-color="#B3CDEF"/>
</linearGradient>
<linearGradient id="paint38_linear" x1="109.215" y1="1.20068" x2="109.215" y2="82.9542" gradientUnits="userSpaceOnUse">
<stop stop-color="white"/>
<stop offset="1" stop-color="#B3CDEF"/>
</linearGradient>
<linearGradient id="paint39_linear" x1="83.5465" y1="6.09179" x2="8.65103" y2="267.23" gradientUnits="userSpaceOnUse">
<stop stop-color="#F7FAFF"/>
<stop offset="1" stop-color="#6B9AD9"/>
</linearGradient>
<linearGradient id="paint40_linear" x1="234.771" y1="26.7067" x2="219.016" y2="94.7642" gradientUnits="userSpaceOnUse">
<stop stop-color="#E5EDFF"/>
<stop offset="1" stop-color="#6B9AD9"/>
</linearGradient>
<linearGradient id="paint41_linear" x1="215.127" y1="82.1984" x2="218.126" y2="102.155" gradientUnits="userSpaceOnUse">
<stop stop-color="#84F0A8"/>
<stop offset="1" stop-color="#48B676"/>
</linearGradient>
<linearGradient id="paint42_linear" x1="119.787" y1="7.16311" x2="52.9035" y2="252.196" gradientUnits="userSpaceOnUse">
<stop stop-color="#F7FAFF"/>
<stop offset="1" stop-color="#6B9AD9"/>
</linearGradient>
<linearGradient id="paint43_linear" x1="236.51" y1="44.7676" x2="247.424" y2="80.524" gradientUnits="userSpaceOnUse">
<stop stop-color="#E2A53A"/>
<stop offset="1" stop-color="#FEB755"/>
</linearGradient>
<linearGradient id="paint44_linear" x1="243.168" y1="57.1045" x2="263.883" y2="93.2539" gradientUnits="userSpaceOnUse">
<stop stop-color="#FDE76B"/>
<stop offset="1" stop-color="#FAB539"/>
</linearGradient>
<linearGradient id="paint45_linear" x1="51.1927" y1="231.244" x2="66.4" y2="223.194" gradientUnits="userSpaceOnUse">
<stop stop-color="#7DB8F9"/>
<stop offset="0.8478" stop-color="#3D82F0"/>
</linearGradient>
<linearGradient id="paint46_linear" x1="55.5302" y1="227.954" x2="77.4258" y2="227.954" gradientUnits="userSpaceOnUse">
<stop stop-color="#2865C6"/>
<stop offset="1" stop-color="#10378A"/>
</linearGradient>
<linearGradient id="paint47_linear" x1="42.8393" y1="151.467" x2="58.9125" y2="230.739" gradientUnits="userSpaceOnUse">
<stop stop-color="#6A89BB"/>
<stop offset="1" stop-color="#839ED8"/>
</linearGradient>
<linearGradient id="paint48_linear" x1="21.6751" y1="235.306" x2="36.8824" y2="227.256" gradientUnits="userSpaceOnUse">
<stop stop-color="#7DB8F9"/>
<stop offset="0.8478" stop-color="#3D82F0"/>
</linearGradient>
<linearGradient id="paint49_linear" x1="26.0127" y1="232.016" x2="47.9082" y2="232.016" gradientUnits="userSpaceOnUse">
<stop stop-color="#2865C6"/>
<stop offset="1" stop-color="#10378A"/>
</linearGradient>
<linearGradient id="paint50_linear" x1="21.3728" y1="231.204" x2="84.5927" y2="170.961" gradientUnits="userSpaceOnUse">
<stop stop-color="#CFDDF3"/>
<stop offset="1" stop-color="#A1B8E3"/>
</linearGradient>
<radialGradient id="paint51_radial" cx="0" cy="0" r="1" gradientUnits="userSpaceOnUse" gradientTransform="translate(37.0441 16) rotate(90) scale(15.7809 37.141)">
<stop stop-color="#47689B"/>
<stop offset="1" stop-color="#223762"/>
</radialGradient>
<linearGradient id="paint52_linear" x1="42.2921" y1="64.4695" x2="32.4628" y2="54.5949" gradientUnits="userSpaceOnUse">
<stop stop-color="#599AF5"/>
<stop offset="1" stop-color="#2072DE"/>
</linearGradient>
<linearGradient id="paint53_linear" x1="17.31" y1="52.8936" x2="54.1895" y2="38.1611" gradientUnits="userSpaceOnUse">
<stop stop-color="#7DB8F9"/>
<stop offset="0.8478" stop-color="#3D82F0"/>
</linearGradient>
<linearGradient id="paint54_linear" x1="119.144" y1="53.8187" x2="97.4515" y2="44.1893" gradientUnits="userSpaceOnUse">
<stop stop-color="#7DB8F9"/>
<stop offset="0.8478" stop-color="#3D82F0"/>
</linearGradient>
<radialGradient id="paint55_radial" cx="0" cy="0" r="1" gradientUnits="userSpaceOnUse" gradientTransform="translate(107.939 64.1797) rotate(-177.372) scale(45.4581 25.7702)">
<stop stop-color="#2D6DC0"/>
<stop offset="1" stop-color="#143B8C"/>
</radialGradient>
<radialGradient id="paint56_radial" cx="0" cy="0" r="1" gradientUnits="userSpaceOnUse" gradientTransform="translate(60.6004 88.0509) rotate(-173.687) scale(35.4651 47.9692)">
<stop stop-color="#2D6DC0"/>
<stop offset="1" stop-color="#143B8C"/>
</radialGradient>
<linearGradient id="paint57_linear" x1="20.968" y1="106.915" x2="43.9167" y2="94.7296" gradientUnits="userSpaceOnUse">
<stop stop-color="#223761"/>
<stop offset="1" stop-color="#223761" stop-opacity="0"/>
</linearGradient>
<linearGradient id="paint58_linear" x1="9.12633" y1="54.9977" x2="-0.788858" y2="118.634" gradientUnits="userSpaceOnUse">
<stop stop-color="#FFE579"/>
<stop offset="1" stop-color="#F79B1D"/>
</linearGradient>
<linearGradient id="paint59_linear" x1="54.2594" y1="134.247" x2="32.9143" y2="124.375" gradientUnits="userSpaceOnUse">
<stop stop-color="#7DB8F9"/>
<stop offset="0.8478" stop-color="#3D82F0"/>
</linearGradient>
<radialGradient id="paint60_radial" cx="0" cy="0" r="1" gradientUnits="userSpaceOnUse" gradientTransform="translate(39.0152 91.5099) rotate(-169.244) scale(21.6373 49.0981)">
<stop stop-color="#2D6DC0"/>
<stop offset="1" stop-color="#143B8C"/>
</radialGradient>
<linearGradient id="paint61_linear" x1="207.242" y1="-12.6365" x2="97.5492" y2="178.817" gradientUnits="userSpaceOnUse">
<stop stop-color="#E5EDFF"/>
<stop offset="1" stop-color="#6B9AD9"/>
</linearGradient>
<linearGradient id="paint62_linear" x1="203.927" y1="37.9152" x2="181.833" y2="146.129" gradientUnits="userSpaceOnUse">
<stop stop-color="#E5EDFF"/>
<stop offset="1" stop-color="#6B9AD9"/>
</linearGradient>
<linearGradient id="paint63_linear" x1="162.535" y1="-24.1395" x2="113.679" y2="345.573" gradientUnits="userSpaceOnUse">
<stop stop-color="#F7FAFF"/>
<stop offset="1" stop-color="#6B9AD9"/>
</linearGradient>
<linearGradient id="paint64_linear" x1="333.471" y1="16.322" x2="283.046" y2="228.546" gradientUnits="userSpaceOnUse">
<stop stop-color="#E5EDFF"/>
<stop offset="1" stop-color="#6B9AD9"/>
</linearGradient>
<linearGradient id="paint65_linear" x1="155.873" y1="35.2449" x2="148.041" y2="192.667" gradientUnits="userSpaceOnUse">
<stop stop-color="#F7FAFF"/>
<stop offset="1" stop-color="#6B9AD9"/>
</linearGradient>
<linearGradient id="paint66_linear" x1="480.786" y1="27.4352" x2="469.124" y2="28.7124" gradientUnits="userSpaceOnUse">
<stop stop-color="#CFDDF3"/>
<stop offset="1" stop-color="#A1B8E3"/>
</linearGradient>
<radialGradient id="paint67_radial" cx="0" cy="0" r="1" gradientUnits="userSpaceOnUse" gradientTransform="translate(477.181 28.2724) rotate(-160.063) scale(3.32473 2.62614)">
<stop stop-color="#032258"/>
<stop offset="1" stop-color="#133E94"/>
</radialGradient>
<linearGradient id="paint68_linear" x1="490.089" y1="26.3608" x2="485.997" y2="22.0714" gradientUnits="userSpaceOnUse">
<stop stop-color="#032258"/>
<stop offset="1" stop-color="#133E94"/>
</linearGradient>
<radialGradient id="paint69_radial" cx="0" cy="0" r="1" gradientUnits="userSpaceOnUse" gradientTransform="translate(485.417 28.1889) rotate(-133.052) scale(21.122 23.2223)">
<stop stop-color="#032258"/>
<stop offset="1" stop-color="#133E94"/>
</radialGradient>
<linearGradient id="paint70_linear" x1="519.537" y1="221.934" x2="516.591" y2="230.072" gradientUnits="userSpaceOnUse">
<stop stop-color="#CFDDF3"/>
<stop offset="1" stop-color="#A1B8E3"/>
</linearGradient>
<linearGradient id="paint71_linear" x1="537.583" y1="216.291" x2="511.49" y2="228.458" gradientUnits="userSpaceOnUse">
<stop stop-color="#2865C6"/>
<stop offset="1" stop-color="#10378A"/>
</linearGradient>
<linearGradient id="paint72_linear" x1="488.812" y1="174.634" x2="525.137" y2="167.963" gradientUnits="userSpaceOnUse">
<stop stop-color="#002383"/>
<stop offset="1" stop-color="#316EEA"/>
</linearGradient>
<linearGradient id="paint73_linear" x1="456.376" y1="233.916" x2="451.268" y2="238.553" gradientUnits="userSpaceOnUse">
<stop stop-color="#CFDDF3"/>
<stop offset="1" stop-color="#A1B8E3"/>
</linearGradient>
<linearGradient id="paint74_linear" x1="476.087" y1="238.821" x2="447.943" y2="234.363" gradientUnits="userSpaceOnUse">
<stop stop-color="#2865C6"/>
<stop offset="1" stop-color="#10378A"/>
</linearGradient>
<linearGradient id="paint75_linear" x1="465.783" y1="174.961" x2="490.439" y2="172.357" gradientUnits="userSpaceOnUse">
<stop stop-color="#002383"/>
<stop offset="1" stop-color="#316EEA"/>
</linearGradient>
<linearGradient id="paint76_linear" x1="496.8" y1="128.983" x2="487.799" y2="66.4328" gradientUnits="userSpaceOnUse">
<stop stop-color="#F4F8FF"/>
<stop offset="1" stop-color="#C3D8F5"/>
</linearGradient>
<linearGradient id="paint77_linear" x1="461.249" y1="116.938" x2="488.434" y2="124.169" gradientUnits="userSpaceOnUse">
<stop stop-color="white" stop-opacity="0.5"/>
<stop offset="1" stop-color="#AFC3E5"/>
</linearGradient>
<linearGradient id="paint78_linear" x1="463.035" y1="73.4306" x2="446.098" y2="62.1342" gradientUnits="userSpaceOnUse">
<stop stop-color="white" stop-opacity="0.01"/>
<stop offset="1" stop-color="#A1B8E3"/>
</linearGradient>
<linearGradient id="paint79_linear" x1="414.864" y1="47.8753" x2="414.864" y2="125.874" gradientUnits="userSpaceOnUse">
<stop stop-color="white"/>
<stop offset="1" stop-color="#B3CDEF"/>
</linearGradient>
<linearGradient id="paint80_linear" x1="472.432" y1="96.9333" x2="472.432" y2="121.483" gradientUnits="userSpaceOnUse">
<stop stop-color="white"/>
<stop offset="1" stop-color="#B3CDEF"/>
</linearGradient>
<linearGradient id="paint81_linear" x1="482.291" y1="84.5788" x2="482.068" y2="93.2959" gradientUnits="userSpaceOnUse">
<stop stop-color="#E5EDFF"/>
<stop offset="1" stop-color="#6B9AD9"/>
</linearGradient>
<linearGradient id="paint82_linear" x1="438.854" y1="131.868" x2="465.418" y2="141.386" gradientUnits="userSpaceOnUse">
<stop stop-color="#CFDDF3"/>
<stop offset="1" stop-color="#A1B8E3"/>
</linearGradient>
<linearGradient id="paint83_linear" x1="468.589" y1="112.452" x2="461.247" y2="71.0437" gradientUnits="userSpaceOnUse">
<stop stop-color="#F4F8FF"/>
<stop offset="1" stop-color="#C3D8F5"/>
</linearGradient>
<linearGradient id="paint84_linear" x1="452.721" y1="92.9733" x2="441.224" y2="103.415" gradientUnits="userSpaceOnUse">
<stop stop-color="white" stop-opacity="0.5"/>
<stop offset="1" stop-color="#AFC3E5"/>
</linearGradient>
<linearGradient id="paint85_linear" x1="445.004" y1="78.7573" x2="449.218" y2="59.0057" gradientUnits="userSpaceOnUse">
<stop stop-color="white" stop-opacity="0.01"/>
<stop offset="1" stop-color="#A1B8E3"/>
</linearGradient>
</defs>
</svg>
