<svg width="775" height="337" viewBox="0 0 775 337" fill="none" xmlns="http://www.w3.org/2000/svg">
<path opacity="0.118359" fill-rule="evenodd" clip-rule="evenodd" d="M564.154 51.2943C505.606 3.536 383.899 -14.1609 258.838 12.3046C103.181 45.2456 1.2737 134.128 31.2223 210.829C56.939 276.692 171.518 312.156 301.943 300.007C360.685 335.829 461.325 347.886 563.967 326.165C706.136 296.079 798.308 212.583 769.839 139.671C748.418 84.8109 664.803 51.5741 564.154 51.2943Z" fill="url(#paint0_linear)"/>
<mask id="mask0" mask-type="alpha" maskUnits="userSpaceOnUse" x="26" y="0" width="749" height="317">
<path fill-rule="evenodd" clip-rule="evenodd" d="M564.154 48.2501C505.606 3.32614 383.899 -13.3204 258.838 11.5744C103.181 42.5604 1.2737 126.167 31.2223 198.317C56.939 260.271 171.518 293.631 301.943 282.202C360.685 315.899 461.325 327.24 563.967 306.808C706.136 278.507 798.308 199.966 769.839 131.382C748.418 79.7776 664.803 48.5133 564.154 48.2501Z" fill="white"/>
</mask>
<g mask="url(#mask0)">
<path opacity="0.5" fill-rule="evenodd" clip-rule="evenodd" d="M129.514 -18C41.5254 65.257 170.828 183.021 249.286 94.5577C381.453 -54.4665 494 57.5111 494 57.5111" fill="black" fill-opacity="0.01"/>
<path opacity="0.5" fill-rule="evenodd" clip-rule="evenodd" d="M93.6288 -4.52677C94.1704 -3.88835 94.0312 -3.02651 93.3178 -2.60181C92.8771 -2.33943 92.4398 -2.0759 92.0059 -1.81121C91.2984 -1.37968 90.2795 -1.54368 89.7303 -2.17751C89.181 -2.81134 89.3093 -3.67498 90.0168 -4.10651C90.46 -4.3768 90.9065 -4.64588 91.3564 -4.91374C92.0698 -5.33844 93.0871 -5.16519 93.6288 -4.52677ZM82.2768 2.82625C82.8866 3.41941 82.8489 4.29417 82.1928 4.7801C81.3884 5.37585 80.5985 5.97611 79.823 6.58072C79.1817 7.08072 78.1549 7.01478 77.5296 6.43344C76.9044 5.8521 76.9174 4.9755 77.5587 4.4755C78.3529 3.85635 79.1615 3.24182 79.9848 2.63209C80.641 2.14617 81.6671 2.2331 82.2768 2.82625ZM70.868 12.1986C71.5541 12.7272 71.6436 13.606 71.0678 14.1615C70.3737 14.8312 69.6949 15.5049 69.0312 16.1826C68.4738 16.7518 67.4535 16.7968 66.7525 16.2831C66.0514 15.7694 65.935 14.8914 66.4925 14.3222C67.174 13.6263 67.8708 12.9347 68.5832 12.2474C69.1589 11.6919 70.1819 11.6701 70.868 12.1986ZM61.0928 22.7898C61.8509 23.2379 62.0788 24.1055 61.6017 24.7278C61.0358 25.466 60.4857 26.2078 59.9512 26.9528C59.4958 27.5875 58.5014 27.7533 57.7301 27.323C56.9588 26.8928 56.7027 26.0295 57.1581 25.3948C57.7082 24.628 58.2742 23.8648 58.8564 23.1053C59.3334 22.483 60.3347 22.3418 61.0928 22.7898ZM393.175 94.0219C393.343 93.2791 394.193 92.8314 395.073 93.0218C396.151 93.2553 397.222 93.4978 398.286 93.7488C399.161 93.9556 399.72 94.7218 399.532 95.4602C399.345 96.1985 398.483 96.6295 397.607 96.4227C396.567 96.1771 395.52 95.94 394.464 95.7116C393.585 95.5211 393.008 94.7646 393.175 94.0219ZM383.618 92.322C383.528 93.0786 382.732 93.591 381.841 93.4664C380.805 93.3215 379.762 93.1853 378.713 93.058C377.82 92.9497 377.153 92.2465 377.224 91.4874C377.295 90.7283 378.077 90.2008 378.97 90.3091C380.042 90.4391 381.108 90.5784 382.168 90.7265C383.059 90.8511 383.708 91.5654 383.618 92.322ZM408.853 98.0273C409.116 97.3097 410.023 96.9468 410.879 97.2169C411.912 97.5426 412.937 97.8761 413.953 98.2169C414.803 98.5021 415.265 99.3103 414.985 100.022C414.704 100.734 413.787 101.08 412.936 100.794C411.942 100.461 410.939 100.135 409.928 99.8157C409.072 99.5457 408.59 98.745 408.853 98.0273ZM367.609 90.6772C367.614 91.4428 366.893 92.0287 365.997 91.9859C364.943 91.9355 363.882 91.8943 362.816 91.8625C361.92 91.8358 361.174 91.1929 361.15 90.4266C361.125 89.6603 361.831 89.0607 362.726 89.0874C363.815 89.1199 364.899 89.162 365.976 89.2135C366.872 89.2563 367.603 89.9116 367.609 90.6772ZM424.013 103.417C424.364 102.732 425.316 102.455 426.14 102.799C427.148 103.219 428.146 103.647 429.134 104.08C429.95 104.438 430.314 105.278 429.946 105.956C429.578 106.634 428.618 106.893 427.801 106.535C426.833 106.111 425.856 105.693 424.869 105.281C424.045 104.937 423.662 104.102 424.013 103.417ZM351.544 90.4809C351.642 91.2468 350.999 91.897 350.109 91.9331C349.046 91.9762 347.979 92.0288 346.905 92.0909C346.017 92.1424 345.203 91.5639 345.088 90.7989C344.972 90.0338 345.598 89.3719 346.486 89.3204C347.581 89.257 348.67 89.2034 349.754 89.1594C350.645 89.1233 351.446 89.715 351.544 90.4809ZM53.2506 34.532C54.0702 34.8843 54.442 35.722 54.081 36.4031C53.6449 37.2256 53.2259 38.051 52.8236 38.879C52.4877 39.5705 51.5423 39.8624 50.712 39.5311C49.8817 39.1998 49.4809 38.3706 49.8168 37.6791C50.2314 36.8257 50.6633 35.975 51.1126 35.1274C51.4737 34.4463 52.4309 34.1798 53.2506 34.532ZM438.55 110.09C438.982 109.442 439.968 109.25 440.753 109.661C441.709 110.161 442.653 110.666 443.587 111.175C444.364 111.598 444.631 112.459 444.184 113.099C443.738 113.738 442.746 113.913 441.97 113.49C441.054 112.991 440.127 112.496 439.19 112.006C438.405 111.595 438.119 110.737 438.55 110.09ZM335.602 91.6689C335.785 92.4278 335.222 93.1318 334.345 93.2414C333.304 93.3715 332.258 93.5107 331.207 93.6593C330.334 93.7827 329.465 93.2693 329.266 92.5126C329.067 91.7558 329.613 91.0422 330.486 90.9187C331.556 90.7675 332.622 90.6256 333.683 90.4931C334.559 90.3836 335.419 90.91 335.602 91.6689ZM452.367 117.917C452.87 117.311 453.879 117.201 454.62 117.67C455.513 118.237 456.394 118.805 457.263 119.376C457.995 119.856 458.169 120.73 457.653 121.328C457.136 121.925 456.124 122.02 455.392 121.54C454.539 120.98 453.674 120.421 452.797 119.865C452.056 119.396 451.863 118.524 452.367 117.917ZM319.935 94.1319C320.194 94.8782 319.709 95.6258 318.852 95.8017C317.859 96.0055 316.861 96.2177 315.86 96.4383C315.007 96.6263 314.094 96.176 313.821 95.4327C313.547 94.6893 314.017 93.9343 314.87 93.7463C315.888 93.522 316.902 93.3062 317.913 93.099C318.77 92.9231 319.675 93.3855 319.935 94.1319ZM465.356 126.745C465.923 126.182 466.944 126.149 467.638 126.67C468.479 127.302 469.305 127.933 470.116 128.562C470.8 129.093 470.885 129.971 470.307 130.525C469.729 131.078 468.705 131.097 468.021 130.566C467.224 129.948 466.413 129.328 465.586 128.707C464.892 128.186 464.789 127.307 465.356 126.745ZM47.6041 47.291C48.4693 47.5352 48.9828 48.3224 48.7511 49.0492C48.475 49.9153 48.2157 50.7831 47.973 51.6523C47.768 52.3863 46.895 52.8017 46.0231 52.58C45.1512 52.3583 44.6106 51.5836 44.8155 50.8495C45.0659 49.9531 45.3333 49.0582 45.618 48.165C45.8497 47.4382 46.7389 47.0468 47.6041 47.291ZM304.695 97.7225C305.022 98.4526 304.61 99.2345 303.776 99.4688C302.813 99.7396 301.846 100.018 300.876 100.305C300.046 100.55 299.1 100.159 298.761 99.4325C298.423 98.7059 298.821 97.9183 299.65 97.6734C300.634 97.3826 301.616 97.0998 302.594 96.8249C303.428 96.5906 304.369 96.9924 304.695 97.7225ZM477.479 136.454C478.102 135.938 479.129 135.978 479.772 136.545C480.547 137.227 481.303 137.902 482.038 138.569C482.671 139.144 482.671 140.022 482.038 140.529C481.405 141.036 480.378 140.982 479.745 140.407C479.022 139.751 478.279 139.086 477.517 138.416C476.873 137.849 476.856 136.971 477.479 136.454ZM289.882 102.312C290.267 103.024 289.923 103.832 289.114 104.118C288.18 104.447 287.243 104.784 286.303 105.129C285.499 105.423 284.528 105.088 284.133 104.38C283.738 103.672 284.069 102.86 284.873 102.565C285.825 102.216 286.774 101.875 287.721 101.541C288.53 101.255 289.497 101.601 289.882 102.312ZM44.3765 60.7374C45.267 60.8668 45.9112 61.5845 45.8153 62.3402C45.7003 63.2473 45.602 64.1547 45.5202 65.0623C45.4518 65.8217 44.6724 66.3513 43.7793 66.2452C42.8863 66.1391 42.2177 65.4374 42.2861 64.678C42.3704 63.7423 42.4718 62.8066 42.5904 61.8714C42.6863 61.1156 43.486 60.6079 44.3765 60.7374ZM488.636 146.908C489.311 146.441 490.335 146.555 490.924 147.163C491.679 147.942 492.397 148.696 493.075 149.421C493.652 150.038 493.564 150.907 492.879 151.363C492.193 151.82 491.17 151.69 490.594 151.073C489.927 150.361 489.223 149.621 488.481 148.855C487.892 148.247 487.961 147.375 488.636 146.908ZM275.52 107.774C275.955 108.466 275.672 109.294 274.889 109.624C273.981 110.006 273.071 110.396 272.158 110.792C271.38 111.129 270.39 110.845 269.946 110.157C269.502 109.468 269.773 108.636 270.551 108.299C271.475 107.898 272.396 107.504 273.315 107.117C274.098 106.787 275.085 107.081 275.52 107.774ZM498.811 158.209C499.547 157.811 500.558 158.021 501.069 158.677C501.352 159.04 501.566 159.321 501.711 159.513C501.783 159.61 501.838 159.683 501.875 159.734L501.918 159.792L501.93 159.808L501.933 159.812L501.934 159.814M498.811 158.209C498.076 158.606 497.894 159.46 498.405 160.116ZM498.405 160.116C498.678 160.465 498.881 160.733 499.016 160.912ZM499.016 160.912C499.083 161.001 499.133 161.068 499.165 161.112ZM499.165 161.112L499.201 161.16ZM499.201 161.16L499.209 161.171ZM499.209 161.171L499.21 161.173ZM501.934 159.814C501.935 159.815 501.935 159.815 500.982 160.29L501.935 159.815C502.421 160.484 502.205 161.33 501.453 161.705C500.7 162.08 499.697 161.842 499.21 161.173M261.684 113.957C262.162 114.63 261.935 115.473 261.177 115.841C260.263 116.285 259.347 116.736 258.428 117.194C257.675 117.569 256.671 117.33 256.186 116.662C255.7 115.993 255.916 115.146 256.668 114.772C257.597 114.309 258.523 113.853 259.447 113.405C260.204 113.037 261.206 113.284 261.684 113.957ZM43.6287 74.5968C44.5235 74.6101 45.2816 75.2423 45.322 76.009C45.3702 76.9235 45.4344 77.837 45.5143 78.7491C45.5814 79.5158 44.9118 80.1452 44.0187 80.1549C43.1255 80.1646 42.347 79.5509 42.2798 78.7842C42.1975 77.8446 42.1314 76.9034 42.0818 75.961C42.0413 75.1944 42.7339 74.5836 43.6287 74.5968ZM248.303 120.782C248.818 121.436 248.641 122.29 247.908 122.691C247.023 123.175 246.136 123.666 245.246 124.163C244.518 124.57 243.505 124.373 242.983 123.723C242.461 123.073 242.629 122.216 243.357 121.809C244.254 121.308 245.15 120.812 246.044 120.324C246.777 119.923 247.788 120.128 248.303 120.782ZM45.3329 88.5205C46.2119 88.4203 47.064 88.9553 47.2362 89.7155C47.4423 90.6254 47.6636 91.5325 47.8998 92.4366C48.0976 93.1936 47.5497 93.9064 46.6762 94.0288C45.8026 94.1511 44.9341 93.6366 44.7363 92.8797C44.4931 91.949 44.2653 91.0151 44.0532 90.0784C43.881 89.3182 44.4539 88.6207 45.3329 88.5205ZM235.329 128.18C235.876 128.815 235.744 129.679 235.035 130.108C234.19 130.619 233.344 131.136 232.496 131.659C231.791 132.094 230.772 131.934 230.219 131.302C229.666 130.671 229.789 129.806 230.494 129.372C231.349 128.844 232.203 128.323 233.054 127.807C233.764 127.378 234.782 127.545 235.329 128.18ZM49.3855 102.208C50.2305 101.999 51.1563 102.428 51.4534 103.166C51.8092 104.049 52.1791 104.929 52.563 105.803C52.8841 106.535 52.4666 107.314 51.6305 107.544C50.7944 107.773 49.8562 107.367 49.5351 106.635C49.1401 105.735 48.7595 104.831 48.3934 103.921C48.0964 103.184 48.5406 102.416 49.3855 102.208ZM222.703 136.107C223.277 136.725 223.186 137.594 222.499 138.048C221.696 138.58 220.89 139.117 220.084 139.659C219.401 140.118 218.377 139.992 217.798 139.378C217.218 138.764 217.301 137.894 217.984 137.435C218.797 136.889 219.608 136.347 220.418 135.812C221.105 135.357 222.128 135.49 222.703 136.107ZM210.447 144.479C211.046 145.08 210.992 145.953 210.326 146.429C209.916 146.722 209.506 147.017 209.096 147.313C208.674 147.617 208.252 147.917 207.83 148.214C207.16 148.686 206.135 148.578 205.541 147.974C204.947 147.369 205.009 146.497 205.679 146.025C206.092 145.734 206.505 145.44 206.918 145.143C207.331 144.845 207.744 144.548 208.157 144.253C208.822 143.777 209.848 143.878 210.447 144.479ZM55.6582 115.386C56.4522 115.074 57.4319 115.39 57.8463 116.09C58.3416 116.928 58.85 117.759 59.3712 118.584C59.8081 119.275 59.5285 120.104 58.7466 120.436C57.9647 120.767 56.9767 120.476 56.5398 119.784C56.0035 118.936 55.4804 118.081 54.9707 117.219C54.5563 116.518 54.8641 115.698 55.6582 115.386ZM197.937 152.821C198.466 153.467 198.309 154.325 197.586 154.739C196.675 155.26 195.762 155.766 194.85 156.258C194.113 156.654 193.103 156.444 192.593 155.787C192.083 155.131 192.266 154.278 193.003 153.881C193.892 153.402 194.781 152.909 195.671 152.4C196.393 151.987 197.408 152.175 197.937 152.821ZM64.0074 127.773C64.7336 127.364 65.7473 127.558 66.2716 128.206C66.8998 128.983 67.5399 129.752 68.1917 130.512C68.7371 131.148 68.6033 132.011 67.8929 132.439C67.1824 132.867 66.1643 132.699 65.6189 132.063C64.9476 131.28 64.2885 130.488 63.6418 129.688C63.1175 129.04 63.2812 128.182 64.0074 127.773ZM184.262 159.725C184.688 160.421 184.393 161.246 183.605 161.567C182.63 161.964 181.656 162.344 180.682 162.709C179.881 163.009 178.907 162.68 178.506 161.975C178.104 161.269 178.428 160.454 179.229 160.154C180.174 159.8 181.119 159.431 182.065 159.045C182.854 158.724 183.837 159.028 184.262 159.725ZM74.3043 139.099C74.9441 138.598 75.9709 138.662 76.5977 139.242C77.3472 139.936 78.1075 140.62 78.8781 141.293C79.5244 141.857 79.5456 142.735 78.9254 143.254C78.3052 143.773 77.2786 143.737 76.6323 143.172C75.8374 142.478 75.0533 141.773 74.2805 141.058C73.6537 140.477 73.6644 139.601 74.3043 139.099ZM169.525 164.748C169.818 165.486 169.371 166.252 168.524 166.458C167.473 166.713 166.424 166.951 165.375 167.172C164.519 167.352 163.611 166.893 163.347 166.148C163.083 165.403 163.563 164.653 164.419 164.473C165.431 164.26 166.445 164.03 167.461 163.783C168.307 163.577 169.231 164.009 169.525 164.748ZM86.4068 149.054C86.9392 148.467 87.9547 148.391 88.675 148.884C89.5341 149.473 90.4027 150.049 91.2803 150.612C92.0179 151.086 92.204 151.958 91.6959 152.562C91.1878 153.165 90.178 153.27 89.4403 152.796C88.5328 152.214 87.635 151.618 86.7471 151.01C86.0268 150.517 85.8744 149.641 86.4068 149.054ZM153.795 167.522C153.931 168.286 153.323 168.961 152.438 169.029C151.34 169.114 150.246 169.181 149.154 169.229C148.264 169.268 147.46 168.679 147.359 167.914C147.257 167.148 147.896 166.495 148.786 166.456C149.836 166.409 150.89 166.345 151.947 166.264C152.832 166.195 153.66 166.759 153.795 167.522ZM100.118 157.274C100.519 156.611 101.494 156.386 102.295 156.772C103.249 157.231 104.212 157.676 105.182 158.107C105.997 158.468 106.356 159.309 105.984 159.985C105.612 160.662 104.65 160.917 103.835 160.556C102.829 160.11 101.831 159.648 100.842 159.172C100.041 158.787 99.7172 157.937 100.118 157.274ZM137.603 167.692C137.564 168.455 136.808 169.007 135.913 168.927C134.797 168.826 133.686 168.707 132.58 168.57C131.687 168.459 131.023 167.754 131.097 166.995C131.171 166.237 131.955 165.711 132.848 165.822C133.911 165.954 134.979 166.069 136.052 166.165C136.947 166.246 137.641 166.93 137.603 167.692ZM115.165 163.377C115.411 162.654 116.309 162.276 117.17 162.532C118.192 162.836 119.22 163.124 120.254 163.396C121.124 163.624 121.656 164.402 121.444 165.134C121.231 165.866 120.353 166.275 119.483 166.046C118.408 165.764 117.34 165.465 116.278 165.149C115.417 164.893 114.919 164.099 115.165 163.377Z" fill="#8CA4D4"/>
<path fill-rule="evenodd" clip-rule="evenodd" d="M457 155.935L467.833 141.961L502.948 163.658L476.052 133.135L489.126 121L522 178L457 155.935Z" fill="url(#paint1_linear)"/>
<path fill-rule="evenodd" clip-rule="evenodd" d="M468 142.125L476 141L504 165L468 142.125Z" fill="#E1A846"/>
<path fill-rule="evenodd" clip-rule="evenodd" d="M476 141.381L477.105 133L504 165L476 141.381Z" fill="#E6B052"/>
</g>
<path fill-rule="evenodd" clip-rule="evenodd" d="M0 247.822L72.8553 235C113.069 260.742 132.776 273.696 131.977 273.861C130.84 274.096 50.3918 288.506 44.9575 290C45.4661 288.67 30.4764 274.607 0 247.822Z" fill="url(#paint2_linear)"/>
<path fill-rule="evenodd" clip-rule="evenodd" d="M43 229.109L119.787 224L162 260.474L66.3353 267L43 229.109Z" fill="url(#paint3_linear)"/>
<path fill-rule="evenodd" clip-rule="evenodd" d="M182 42C211.731 50.1058 233.397 51.3123 247 45.6194C232.66 57.7456 221.238 63.1392 212.732 61.8003C199.974 59.7919 186.9 45.6194 182 42Z" fill="#A1B8E3"/>
<path fill-rule="evenodd" clip-rule="evenodd" d="M145 17C167.551 17 172.256 17 197.943 17C197.943 44.8633 212.971 54.9326 229 58.3331C210.272 68.9605 175.169 62.9452 165.228 54.1609C155.288 45.3767 149.372 41.9048 145 17Z" fill="url(#paint4_linear)"/>
<path fill-rule="evenodd" clip-rule="evenodd" d="M547.43 323.559L483.496 295.398C481.855 294.675 481.111 292.76 481.834 291.12C482.234 290.211 483.029 289.536 483.99 289.287L606.39 257.582L672.349 287.612L547.43 323.559Z" fill="url(#paint5_linear)"/>
<path fill-rule="evenodd" clip-rule="evenodd" d="M696.828 191.285L580.912 213.593C577.167 214.313 574.189 217.152 573.289 220.856L548.271 323.862L667.245 294.234C670.126 293.517 672.418 291.338 673.281 288.498L701.292 196.24C701.916 194.182 700.754 192.007 698.696 191.382C698.09 191.199 697.449 191.165 696.828 191.285Z" fill="url(#paint6_linear)"/>
<path fill-rule="evenodd" clip-rule="evenodd" d="M633.17 265.518C627.63 269.165 621.395 269.966 618.141 265.026C614.887 260.087 618.755 253.52 624.295 249.872C629.834 246.225 635.425 245.508 638.679 250.447C641.934 255.386 638.71 261.87 633.17 265.518Z" fill="#D6E3FA"/>
<path opacity="0.7" fill-rule="evenodd" clip-rule="evenodd" d="M411.164 312.179C428.278 312.179 442.152 315.185 442.152 318.892C442.152 322.599 428.278 325.604 411.164 325.604C394.05 325.604 380.176 322.599 380.176 318.892C380.176 315.185 394.05 312.179 411.164 312.179Z" fill="url(#paint7_linear)"/>
<path fill-rule="evenodd" clip-rule="evenodd" d="M452.459 279.844C454.791 283.928 456.096 288.503 456.096 293.335C456.096 310.587 439.448 324.573 418.91 324.573C398.373 324.573 381.725 310.587 381.725 293.335C381.725 288.222 383.187 283.396 385.78 279.136C402.253 281.743 435.042 281.575 452.459 279.844Z" fill="url(#paint8_linear)"/>
<mask id="mask1" mask-type="alpha" maskUnits="userSpaceOnUse" x="381" y="279" width="76" height="46">
<path fill-rule="evenodd" clip-rule="evenodd" d="M452.459 279.844C454.791 283.928 456.096 288.503 456.096 293.335C456.096 310.587 439.448 324.573 418.91 324.573C398.373 324.573 381.725 310.587 381.725 293.335C381.725 288.222 383.187 283.396 385.78 279.136C402.253 281.743 435.042 281.575 452.459 279.844Z" fill="white"/>
</mask>
<g mask="url(#mask1)">
</g>
<path fill-rule="evenodd" clip-rule="evenodd" d="M419.17 272.938C437.853 272.938 452.998 276.521 452.998 280.941C452.998 285.361 437.853 288.944 419.17 288.944C400.486 288.944 385.341 285.361 385.341 280.941C385.341 276.521 400.486 272.938 419.17 272.938Z" fill="url(#paint9_linear)"/>
<mask id="mask2" mask-type="alpha" maskUnits="userSpaceOnUse" x="385" y="272" width="68" height="17">
<path fill-rule="evenodd" clip-rule="evenodd" d="M419.17 272.938C437.853 272.938 452.998 276.521 452.998 280.941C452.998 285.361 437.853 288.944 419.17 288.944C400.486 288.944 385.341 285.361 385.341 280.941C385.341 276.521 400.486 272.938 419.17 272.938Z" fill="white"/>
</mask>
<g mask="url(#mask2)">
</g>
<g filter="url(#filter0_i)">
<path fill-rule="evenodd" clip-rule="evenodd" d="M416.329 275.005C414.481 262.224 409.399 243.767 394.12 223.888C385.12 212.178 385.091 183.661 383.791 180.516C390.853 182.944 403.54 189.203 416.329 206.849C429.735 225.347 421.23 263.073 416.329 275.005Z" fill="url(#paint10_linear)"/>
</g>
<mask id="mask3" mask-type="alpha" maskUnits="userSpaceOnUse" x="383" y="180" width="41" height="96">
<path fill-rule="evenodd" clip-rule="evenodd" d="M416.329 275.005C414.481 262.224 409.399 243.767 394.12 223.888C385.12 212.178 385.091 183.661 383.791 180.516C390.853 182.944 403.54 189.203 416.329 206.849C429.735 225.347 421.23 263.073 416.329 275.005Z" fill="white"/>
</mask>
<g mask="url(#mask3)">
<g style="mix-blend-mode:multiply" opacity="0.5">
<mask id="path-22-inside-1" fill="white">
<path fill-rule="evenodd" clip-rule="evenodd" d="M415.813 275.005C417.222 243.936 413.353 224.328 401.188 205.817Z"/>
</mask>
<path fill-rule="evenodd" clip-rule="evenodd" d="M415.813 275.005C417.222 243.936 413.353 224.328 401.188 205.817Z" fill="black" fill-opacity="0.01"/>
<path d="M418.809 275.141C420.235 243.729 416.338 223.407 403.695 204.169L398.681 207.464C410.368 225.248 414.21 244.143 412.816 274.869L418.809 275.141Z" fill="#489C71" mask="url(#path-22-inside-1)"/>
</g>
</g>
<g filter="url(#filter1_i)">
<path fill-rule="evenodd" clip-rule="evenodd" d="M416.385 288.124C410.678 278.998 400.594 266.63 382.251 256.601C371.445 250.694 361.834 228.957 359.784 226.995C365.99 226.475 377.775 226.986 393.468 236.148C409.918 245.753 416.113 277.379 416.385 288.124Z" fill="url(#paint11_linear)"/>
</g>
<mask id="mask4" mask-type="alpha" maskUnits="userSpaceOnUse" x="359" y="226" width="58" height="63">
<path fill-rule="evenodd" clip-rule="evenodd" d="M416.385 288.124C410.678 278.998 400.594 266.63 382.251 256.601C371.445 250.694 361.834 228.957 359.784 226.995C365.99 226.475 377.775 226.986 393.468 236.148C409.918 245.753 416.113 277.379 416.385 288.124Z" fill="white"/>
</mask>
<g mask="url(#mask4)">
<g style="mix-blend-mode:multiply" opacity="0.5">
<mask id="path-26-inside-2" fill="white">
<path fill-rule="evenodd" clip-rule="evenodd" d="M415.991 288.298C406.62 264.131 397.074 250.477 381.566 240.446Z"/>
</mask>
<path fill-rule="evenodd" clip-rule="evenodd" d="M415.991 288.298C406.62 264.131 397.074 250.477 381.566 240.446Z" fill="black" fill-opacity="0.01"/>
<path d="M418.788 287.213C409.293 262.726 399.433 248.43 383.195 237.927L379.937 242.965C394.714 252.523 403.947 265.535 413.194 289.382L418.788 287.213Z" fill="#489C71" mask="url(#path-26-inside-2)"/>
</g>
</g>
<g filter="url(#filter2_i)">
<path fill-rule="evenodd" clip-rule="evenodd" d="M420.485 289.374C424.985 279.551 433.424 265.935 450.393 253.585C460.389 246.31 467.141 223.426 468.928 221.209C462.679 221.49 451.006 223.519 436.565 234.665C421.427 246.35 419.361 278.639 420.485 289.374Z" fill="url(#paint12_linear)"/>
</g>
<mask id="mask5" mask-type="alpha" maskUnits="userSpaceOnUse" x="420" y="221" width="49" height="69">
<path fill-rule="evenodd" clip-rule="evenodd" d="M420.485 289.374C424.985 279.551 433.424 265.935 450.393 253.585C460.389 246.31 467.141 223.426 468.928 221.209C462.679 221.49 451.006 223.519 436.565 234.665C421.427 246.35 419.361 278.639 420.485 289.374Z" fill="white"/>
</mask>
<g mask="url(#mask5)">
<g style="mix-blend-mode:multiply" opacity="0.5">
<mask id="path-30-inside-3" fill="white">
<path fill-rule="evenodd" clip-rule="evenodd" d="M419.176 289.353C425.373 264.081 433.109 249.254 447.253 237.267Z"/>
</mask>
<path fill-rule="evenodd" clip-rule="evenodd" d="M419.176 289.353C425.373 264.081 433.109 249.254 447.253 237.267Z" fill="black" fill-opacity="0.01"/>
<path d="M422.09 290.067C428.205 265.129 435.713 250.98 449.193 239.556L445.314 234.978C430.505 247.528 422.541 263.032 416.262 288.638L422.09 290.067Z" fill="#489C71" mask="url(#path-30-inside-3)"/>
</g>
</g>
<path fill-rule="evenodd" clip-rule="evenodd" d="M337.549 144.593C339.815 146.822 341.748 148.983 343.345 151.077C346.671 155.435 347.664 161.459 347.433 161.611C346.171 162.441 338.958 157.653 337.549 153.764C336.704 151.433 336.704 148.376 337.549 144.593Z" fill="#A1B8E3"/>
<path fill-rule="evenodd" clip-rule="evenodd" d="M277.1 182.831C293.681 171.514 302.372 157.414 303.177 140.532C307.53 139.882 315.94 140.692 337.041 144.36C339.006 144.702 339.179 147.818 337.562 153.71C344.676 156.318 347.935 158.802 347.341 161.163C342.185 181.63 335.363 190.961 325.069 195.346C313.259 196.845 297.27 192.674 277.1 182.831Z" fill="url(#paint13_linear)"/>
<path fill-rule="evenodd" clip-rule="evenodd" d="M580.899 40.8839H609.158C611.016 40.8839 612.522 42.3908 612.522 44.2496L602.43 81.2727C602.43 83.1315 600.924 84.6384 599.066 84.6384H570.806C568.948 84.6384 567.442 83.1315 567.442 81.2727L577.535 44.2496C577.535 42.3908 579.041 40.8839 580.899 40.8839Z" fill="url(#paint14_linear)"/>
<path fill-rule="evenodd" clip-rule="evenodd" d="M623.572 56.7951H660.697C663.138 56.7951 665.116 58.7738 665.116 61.2147L651.857 109.831C651.857 112.272 649.879 114.25 647.438 114.25H610.313C607.872 114.25 605.893 112.272 605.893 109.831L619.152 61.2147C619.152 58.7738 621.131 56.7951 623.572 56.7951Z" fill="url(#paint15_linear)"/>
<path fill-rule="evenodd" clip-rule="evenodd" d="M587.772 95.2452H624.897C627.338 95.2452 629.317 97.224 629.317 99.6649L616.058 148.281C616.058 150.722 614.079 152.701 611.638 152.701H574.513C572.072 152.701 570.093 150.722 570.093 148.281L583.352 99.6649C583.352 97.224 585.331 95.2452 587.772 95.2452Z" fill="url(#paint16_linear)"/>
<defs>
<filter id="filter0_i" x="383.791" y="170.517" width="39.7409" height="104.488" filterUnits="userSpaceOnUse" color-interpolation-filters="sRGB">
<feFlood flood-opacity="0" result="BackgroundImageFix"/>
<feBlend mode="normal" in="SourceGraphic" in2="BackgroundImageFix" result="shape"/>
<feColorMatrix in="SourceAlpha" type="matrix" values="0 0 0 0 0 0 0 0 0 0 0 0 0 0 0 0 0 0 127 0" result="hardAlpha"/>
<feOffset dy="-10"/>
<feGaussianBlur stdDeviation="11"/>
<feComposite in2="hardAlpha" operator="arithmetic" k2="-1" k3="1"/>
<feColorMatrix type="matrix" values="0 0 0 0 0.221483 0 0 0 0 0.77854 0 0 0 0 0.610041 0 0 0 1 0"/>
<feBlend mode="normal" in2="shape" result="effect1_innerShadow"/>
</filter>
<filter id="filter1_i" x="359.784" y="216.855" width="56.601" height="71.2687" filterUnits="userSpaceOnUse" color-interpolation-filters="sRGB">
<feFlood flood-opacity="0" result="BackgroundImageFix"/>
<feBlend mode="normal" in="SourceGraphic" in2="BackgroundImageFix" result="shape"/>
<feColorMatrix in="SourceAlpha" type="matrix" values="0 0 0 0 0 0 0 0 0 0 0 0 0 0 0 0 0 0 127 0" result="hardAlpha"/>
<feOffset dy="-10"/>
<feGaussianBlur stdDeviation="11"/>
<feComposite in2="hardAlpha" operator="arithmetic" k2="-1" k3="1"/>
<feColorMatrix type="matrix" values="0 0 0 0 0.221483 0 0 0 0 0.77854 0 0 0 0 0.610041 0 0 0 1 0"/>
<feBlend mode="normal" in2="shape" result="effect1_innerShadow"/>
</filter>
<filter id="filter2_i" x="420.228" y="211.209" width="48.7005" height="78.1655" filterUnits="userSpaceOnUse" color-interpolation-filters="sRGB">
<feFlood flood-opacity="0" result="BackgroundImageFix"/>
<feBlend mode="normal" in="SourceGraphic" in2="BackgroundImageFix" result="shape"/>
<feColorMatrix in="SourceAlpha" type="matrix" values="0 0 0 0 0 0 0 0 0 0 0 0 0 0 0 0 0 0 127 0" result="hardAlpha"/>
<feOffset dy="-10"/>
<feGaussianBlur stdDeviation="11"/>
<feComposite in2="hardAlpha" operator="arithmetic" k2="-1" k3="1"/>
<feColorMatrix type="matrix" values="0 0 0 0 0.221483 0 0 0 0 0.77854 0 0 0 0 0.610041 0 0 0 1 0"/>
<feBlend mode="normal" in2="shape" result="effect1_innerShadow"/>
</filter>
<linearGradient id="paint0_linear" x1="806.577" y1="380.31" x2="847.278" y2="-1.29698" gradientUnits="userSpaceOnUse">
<stop stop-color="#ECF2FC"/>
<stop offset="1" stop-color="#B9CFF7"/>
</linearGradient>
<linearGradient id="paint1_linear" x1="461.354" y1="192.877" x2="531.081" y2="181.829" gradientUnits="userSpaceOnUse">
<stop stop-color="#FDAE6B"/>
<stop offset="1" stop-color="#FAE539"/>
</linearGradient>
<linearGradient id="paint2_linear" x1="0" y1="235" x2="0" y2="290" gradientUnits="userSpaceOnUse">
<stop stop-color="#B2C7E8"/>
<stop offset="1" stop-color="#D6E3FA"/>
</linearGradient>
<linearGradient id="paint3_linear" x1="43" y1="224" x2="43" y2="267" gradientUnits="userSpaceOnUse">
<stop stop-color="#C6D6EE"/>
<stop offset="1" stop-color="#E5EFFD"/>
</linearGradient>
<linearGradient id="paint4_linear" x1="185.363" y1="80.4382" x2="203.552" y2="45.108" gradientUnits="userSpaceOnUse">
<stop stop-color="#ACC1E3"/>
<stop offset="1" stop-color="#D6E3FA"/>
</linearGradient>
<linearGradient id="paint5_linear" x1="438.202" y1="302.324" x2="450.687" y2="346.837" gradientUnits="userSpaceOnUse">
<stop stop-color="#47689B"/>
<stop offset="1" stop-color="#223762"/>
</linearGradient>
<linearGradient id="paint6_linear" x1="625.1" y1="129.603" x2="507.272" y2="280.957" gradientUnits="userSpaceOnUse">
<stop stop-color="#3173CB"/>
<stop offset="0.505208" stop-color="#1F50A3"/>
<stop offset="1" stop-color="#1F50A3"/>
</linearGradient>
<linearGradient id="paint7_linear" x1="443.185" y1="311.663" x2="379.659" y2="311.663" gradientUnits="userSpaceOnUse">
<stop stop-color="#D9E5F6" stop-opacity="0.712636"/>
<stop offset="1" stop-color="#B2C6EA"/>
</linearGradient>
<linearGradient id="paint8_linear" x1="468.769" y1="307.054" x2="421.941" y2="275.493" gradientUnits="userSpaceOnUse">
<stop stop-color="#ACC5E9"/>
<stop offset="0.627469" stop-color="#D3E3FB"/>
<stop offset="1" stop-color="#EAF2FF"/>
</linearGradient>
<linearGradient id="paint9_linear" x1="387.41" y1="269.242" x2="385.761" y2="295.69" gradientUnits="userSpaceOnUse">
<stop stop-color="#86A8D9"/>
<stop offset="1" stop-color="#BCD0F2"/>
</linearGradient>
<linearGradient id="paint10_linear" x1="377.049" y1="206.148" x2="432.542" y2="264.269" gradientUnits="userSpaceOnUse">
<stop stop-color="#B1FFBE"/>
<stop offset="0.444207" stop-color="#5CDB8E"/>
<stop offset="1" stop-color="#149654"/>
</linearGradient>
<linearGradient id="paint11_linear" x1="376.241" y1="223.799" x2="384.218" y2="285.461" gradientUnits="userSpaceOnUse">
<stop stop-color="#B1FFBE"/>
<stop offset="0.444207" stop-color="#5CDB8E"/>
<stop offset="1" stop-color="#149654"/>
</linearGradient>
<linearGradient id="paint12_linear" x1="411.622" y1="239.252" x2="448.162" y2="296.617" gradientUnits="userSpaceOnUse">
<stop stop-color="#B1FFBE"/>
<stop offset="0.444207" stop-color="#5CDB8E"/>
<stop offset="1" stop-color="#149654"/>
</linearGradient>
<linearGradient id="paint13_linear" x1="308.037" y1="212.979" x2="338.549" y2="181.84" gradientUnits="userSpaceOnUse">
<stop stop-color="#ACC1E3"/>
<stop offset="1" stop-color="#D6E3FA"/>
</linearGradient>
<linearGradient id="paint14_linear" x1="560.304" y1="52.4615" x2="585.116" y2="93.5126" gradientUnits="userSpaceOnUse">
<stop stop-color="#ACD6FF" stop-opacity="0.152485"/>
<stop offset="1" stop-color="#96ACCB" stop-opacity="0.457456"/>
</linearGradient>
<linearGradient id="paint15_linear" x1="596.63" y1="72.0021" x2="628.368" y2="125.571" gradientUnits="userSpaceOnUse">
<stop stop-color="#ACD6FF" stop-opacity="0.152485"/>
<stop offset="1" stop-color="#96ACCB" stop-opacity="0.457456"/>
</linearGradient>
<linearGradient id="paint16_linear" x1="560.831" y1="110.573" x2="592.922" y2="164.334" gradientUnits="userSpaceOnUse">
<stop stop-color="#ACD6FF" stop-opacity="0.152485"/>
<stop offset="1" stop-color="#96ACCB" stop-opacity="0.457456"/>
</linearGradient>
</defs>
</svg>
