<svg width="765" height="465" viewBox="0 0 765 465" fill="none" xmlns="http://www.w3.org/2000/svg">
<g opacity="0.2" filter="url(#filter0_i)">
<path fill-rule="evenodd" clip-rule="evenodd" d="M697.051 184.878C697.011 169.488 737.187 171.452 752.691 172.356C768.195 173.26 768.808 152.152 755.363 149.521C741.917 146.891 717.807 149.412 705.176 146.992C692.544 144.572 707.805 128.484 690.671 127.256C673.538 126.028 638.32 129.079 627.787 129.094C611.243 129.117 603.511 149.325 632.491 149.143C640.482 149.092 642.746 166.702 615.62 162.858C598.597 160.446 565.42 161.618 558.81 169.654C555.018 174.264 556.839 186.199 563.895 192.564C569.136 197.291 585.253 197.648 591.596 198.548C606.475 200.661 604.09 215.081 599.161 218.217C587.496 225.636 554.273 213.703 554.113 232.883C554.042 241.358 583.874 241.608 596.081 241.047C626.02 239.672 645.797 241.603 646.795 231.335C647.797 221.027 628.06 228.699 628.574 216.053C628.842 209.446 626.937 195.497 639.794 195.751C622.191 195.403 697.104 205.664 697.051 184.878Z" fill="url(#paint0_linear)"/>
</g>
<g opacity="0.5" filter="url(#filter1_i)">
<path fill-rule="evenodd" clip-rule="evenodd" d="M357.776 258.254C357.187 241.405 313.128 245.203 296.132 246.828C279.136 248.454 277.593 225.371 292.257 221.94C306.921 218.509 333.513 220.28 347.291 217.113C361.069 213.946 343.64 196.96 362.413 194.913C381.186 192.866 420.004 194.761 431.577 194.345C449.754 193.692 459.08 215.496 427.234 216.486C418.452 216.759 416.691 236.129 446.334 230.808C464.936 227.469 501.435 227.392 509.027 235.917C513.384 240.809 511.874 253.949 504.385 261.206C498.821 266.596 481.128 267.647 474.197 268.893C457.937 271.817 461.151 287.505 466.696 290.735C479.816 298.379 515.825 283.953 516.791 304.943C517.217 314.218 484.453 315.715 471.019 315.602C438.07 315.324 416.421 318.249 414.902 307.05C413.377 295.807 435.377 303.395 434.292 289.573C433.725 282.351 435.244 267.003 421.13 267.809C440.454 266.706 358.573 281.011 357.776 258.254Z" fill="url(#paint1_linear)"/>
</g>
<g opacity="0.4">
<path fill-rule="evenodd" clip-rule="evenodd" d="M308 15.5811C308 7.25202 314.752 0.5 323.081 0.5H644.811C653.14 0.5 659.892 7.25203 659.892 15.5811V187.195C659.892 193.693 655.73 199.46 649.563 201.508L389.5 199H358.5L312.312 202.477C309.548 199.657 308 195.867 308 191.919V15.5811Z" fill="url(#paint2_linear)"/>
<path fill-rule="evenodd" clip-rule="evenodd" d="M308 15.5811C308 7.25202 314.752 0.5 323.081 0.5H644.811C653.14 0.5 659.892 7.25203 659.892 15.5811V187.195C659.892 193.693 655.73 199.46 649.563 201.508L389.5 199H358.5L312.312 202.477C309.548 199.657 308 195.867 308 191.919V15.5811Z" fill="url(#paint3_linear)"/>
</g>
<path d="M320.16 18.3301C320.16 14.7208 323.086 11.7949 326.695 11.7949H640.735C644.344 11.7949 647.27 14.7208 647.27 18.3301V176.374C647.27 179.983 644.344 182.909 640.735 182.909H326.695C323.086 182.909 320.16 179.983 320.16 176.374V18.3301Z" fill="white"/>
<g opacity="0.205804">
<path fill-rule="evenodd" clip-rule="evenodd" d="M658.212 374.329C655.381 376.923 644.358 372.027 639.885 364.206C635.412 356.386 643.405 353.435 632.246 340.998C621.087 328.56 613.984 323.847 620.259 302.915C626.534 281.984 617.161 270.575 629.184 264.933C641.206 259.291 648.498 277.193 647.385 293.071C646.272 308.949 649.172 312.185 660.995 310.335C672.819 308.486 663.233 331.935 663.321 337.015C663.41 342.096 670.761 351.407 669.394 358.532C668.027 365.658 661.043 371.735 658.212 374.329Z" fill="url(#paint4_linear)"/>
<path fill-rule="evenodd" clip-rule="evenodd" d="M657.54 327.755C658.094 328.142 658.23 328.906 657.843 329.46C655.372 333 653.913 337.718 653.088 342.112C652.266 346.49 652.095 350.423 652.128 352.297C652.14 352.973 651.601 353.531 650.925 353.543C650.249 353.554 649.691 353.016 649.679 352.339C649.644 350.314 649.826 346.214 650.681 341.66C651.533 337.123 653.075 332.012 655.835 328.058C656.222 327.504 656.985 327.368 657.54 327.755Z" fill="url(#paint5_linear)"/>
<path fill-rule="evenodd" clip-rule="evenodd" d="M624.84 314.981C624.299 315.387 624.19 316.155 624.596 316.696C627.51 320.574 631.849 323.149 635.261 325.167L635.33 325.208C637.051 326.226 638.49 327.078 639.519 327.901C640.607 328.772 640.897 329.35 640.903 329.733C640.915 330.409 641.473 330.948 642.149 330.936C642.825 330.924 643.364 330.366 643.352 329.69C643.325 328.123 642.214 326.921 641.05 325.989C639.883 325.055 638.314 324.128 636.686 323.164C636.626 323.129 636.567 323.094 636.508 323.059C633.032 321.003 629.129 318.652 626.554 315.225C626.148 314.684 625.38 314.575 624.84 314.981Z" fill="url(#paint6_linear)"/>
<path fill-rule="evenodd" clip-rule="evenodd" d="M635.276 290.24C635.952 290.229 636.51 290.767 636.522 291.443C636.721 302.822 640.359 316.752 645.125 331.302C647.504 338.562 650.152 345.946 652.774 353.214C652.974 353.766 653.173 354.317 653.371 354.868C655.787 361.559 658.162 368.137 660.251 374.386C661.318 377.576 662.397 380.597 663.34 383.234C663.666 384.148 663.976 385.016 664.263 385.828C664.819 387.4 665.292 388.773 665.63 389.863C665.798 390.408 665.937 390.897 666.036 391.313C666.13 391.708 666.207 392.112 666.213 392.458C666.224 393.135 665.686 393.692 665.01 393.704C664.333 393.716 663.776 393.177 663.764 392.501C663.763 392.432 663.739 392.241 663.653 391.879C663.572 391.538 663.45 391.107 663.29 390.587C662.968 389.548 662.509 388.215 661.954 386.645C661.672 385.845 661.365 384.986 661.04 384.078C660.096 381.436 659.004 378.379 657.929 375.163C655.849 368.943 653.484 362.392 651.065 355.693C650.867 355.145 650.669 354.595 650.471 354.045C647.849 346.78 645.189 339.364 642.798 332.064C638.025 317.494 634.279 303.261 634.073 291.486C634.061 290.81 634.6 290.252 635.276 290.24Z" fill="url(#paint7_linear)"/>
</g>
<path fill-rule="evenodd" clip-rule="evenodd" d="M743 376.761C712.102 365.034 633.394 337.139 564.18 337.139C494.966 337.139 409.166 382.291 353.797 387.415C298.428 392.539 156 396.088 156 396.088V464.907H743C743 464.907 743 421.71 743 376.761Z" fill="url(#paint8_linear)"/>
<path fill-rule="evenodd" clip-rule="evenodd" d="M73 376.694C108.267 364.946 198.104 337 277.105 337C356.106 337 454.037 382.234 517.235 387.367C580.433 392.501 743 396.056 743 396.056V465H73C73 465 73 421.724 73 376.694Z" fill="url(#paint9_linear)"/>
<path fill-rule="evenodd" clip-rule="evenodd" d="M129.867 304.859C130.471 305.162 130.715 305.898 130.411 306.503C121.163 324.909 114.219 350.251 109.899 373.566C105.573 396.911 103.918 418.012 105.138 427.944C105.22 428.615 104.743 429.226 104.071 429.309C103.4 429.391 102.789 428.914 102.707 428.243C101.439 417.916 103.158 396.503 107.49 373.12C111.828 349.707 118.825 324.107 128.223 305.403C128.526 304.799 129.262 304.555 129.867 304.859Z" fill="url(#paint10_linear)"/>
<path fill-rule="evenodd" clip-rule="evenodd" d="M119.904 316.791C119.904 316.791 119.627 306.588 113.453 298.396C107.28 290.203 100.159 285.157 97.5485 287.124C94.9378 289.092 97.8259 297.328 103.999 305.52C110.172 313.712 119.904 316.791 119.904 316.791Z" fill="url(#paint11_linear)"/>
<path fill-rule="evenodd" clip-rule="evenodd" d="M126.186 319.559C126.186 319.559 135.326 324.105 145.457 322.5C155.588 320.895 163.387 316.977 162.876 313.748C162.364 310.52 153.737 309.203 143.605 310.808C133.474 312.413 126.186 319.559 126.186 319.559Z" fill="url(#paint12_linear)"/>
<path fill-rule="evenodd" clip-rule="evenodd" d="M118.403 346.68C118.403 346.68 127.292 351.697 137.494 350.625C147.695 349.552 155.688 346.048 155.347 342.797C155.005 339.546 146.458 337.779 136.256 338.852C126.055 339.924 118.403 346.68 118.403 346.68Z" fill="url(#paint13_linear)"/>
<path fill-rule="evenodd" clip-rule="evenodd" d="M112.673 373.705C112.673 373.705 121.562 378.722 131.763 377.65C141.965 376.578 149.958 373.073 149.616 369.822C149.274 366.571 140.727 364.805 130.526 365.877C120.324 366.949 112.673 373.705 112.673 373.705Z" fill="url(#paint14_linear)"/>
<path fill-rule="evenodd" clip-rule="evenodd" d="M130.779 301.853C130.779 301.853 139.744 296.974 144.241 287.754C148.738 278.535 150.001 269.899 147.063 268.466C144.125 267.033 138.098 273.345 133.601 282.565C129.104 291.784 130.779 301.853 130.779 301.853Z" fill="url(#paint15_linear)"/>
<path fill-rule="evenodd" clip-rule="evenodd" d="M111.427 344.463C111.427 344.463 109.208 334.5 101.585 327.637C93.9618 320.773 86.0089 317.178 83.8215 319.607C81.6342 322.037 86.0406 329.57 93.6637 336.434C101.287 343.298 111.427 344.463 111.427 344.463Z" fill="url(#paint16_linear)"/>
<path fill-rule="evenodd" clip-rule="evenodd" d="M105.193 372.657C105.193 372.657 101.945 362.981 93.6463 356.951C85.3476 350.922 77.0625 348.178 75.1411 350.823C73.2196 353.467 78.3894 360.499 86.6882 366.528C94.9869 372.558 105.193 372.657 105.193 372.657Z" fill="url(#paint17_linear)"/>
<g opacity="0.2">
<path fill-rule="evenodd" clip-rule="evenodd" d="M59.2715 339.214C59.9459 339.163 60.534 339.668 60.585 340.343C61.8381 356.918 67.5694 377.348 74.2811 395.297C81.0033 413.273 88.6331 428.557 93.5905 434.903C94.0069 435.435 93.9124 436.205 93.3795 436.621C92.8465 437.038 92.0769 436.943 91.6605 436.41C86.4584 429.752 78.7229 414.167 71.987 396.154C65.2406 378.114 59.4209 357.435 58.1427 340.527C58.0917 339.853 58.5971 339.265 59.2715 339.214Z" fill="#A1B8E3"/>
<path fill-rule="evenodd" clip-rule="evenodd" d="M57.3537 351.865C57.3537 351.865 52.9127 344.91 45.2231 341.803C37.5334 338.696 30.4971 338.164 29.5071 340.615C28.517 343.065 33.948 347.57 41.6377 350.677C49.3273 353.784 57.3537 351.865 57.3537 351.865Z" fill="#A1B8E3"/>
<path fill-rule="evenodd" clip-rule="evenodd" d="M62.8606 351.168C62.8606 351.168 71.087 350.513 77.4402 345.182C83.7934 339.851 87.5665 333.888 85.8676 331.863C84.1687 329.839 77.6412 332.519 71.288 337.85C64.9348 343.181 62.8606 351.168 62.8606 351.168Z" fill="#A1B8E3"/>
<path fill-rule="evenodd" clip-rule="evenodd" d="M68.7598 373.204C68.7598 373.204 77.0093 372.98 83.6328 367.989C90.2563 362.998 94.3363 357.24 92.7457 355.13C91.1551 353.019 84.4962 355.354 77.8727 360.345C71.2492 365.336 68.7598 373.204 68.7598 373.204Z" fill="#A1B8E3"/>
<path fill-rule="evenodd" clip-rule="evenodd" d="M76.0425 394.32C76.0425 394.32 84.2919 394.096 90.9154 389.105C97.5389 384.114 101.619 378.357 100.028 376.246C98.4377 374.135 91.7789 376.47 85.1554 381.461C78.5319 386.452 76.0425 394.32 76.0425 394.32Z" fill="#A1B8E3"/>
<path fill-rule="evenodd" clip-rule="evenodd" d="M58.6701 336.985C58.6701 336.985 62.8515 329.87 62.1287 321.608C61.4058 313.346 58.6854 306.835 56.0525 307.065C53.4196 307.296 51.8711 314.18 52.594 322.442C53.3168 330.704 58.6701 336.985 58.6701 336.985Z" fill="#A1B8E3"/>
<path fill-rule="evenodd" clip-rule="evenodd" d="M63.0023 374.574C63.0023 374.574 57.3157 368.594 49.1745 367.011C41.0334 365.429 34.0249 366.249 33.5206 368.843C33.0162 371.438 39.2071 374.824 47.3483 376.406C55.4894 377.989 63.0023 374.574 63.0023 374.574Z" fill="#A1B8E3"/>
<path fill-rule="evenodd" clip-rule="evenodd" d="M70.4225 396.709C70.4225 396.709 64.1419 391.355 55.8799 390.632C47.6179 389.91 40.7336 391.458 40.5032 394.091C40.2729 396.724 46.7838 399.444 55.0457 400.167C63.3077 400.89 70.4225 396.709 70.4225 396.709Z" fill="#A1B8E3"/>
</g>
<path opacity="0.2" fill-rule="evenodd" clip-rule="evenodd" d="M705.126 411.082C725.078 411.082 741.252 410.168 741.252 409.041C741.252 407.914 725.078 407 705.126 407C685.174 407 669 407.914 669 409.041C669 410.168 685.174 411.082 705.126 411.082Z" fill="#8699BF"/>
<g opacity="0.821875">
<path fill-rule="evenodd" clip-rule="evenodd" d="M696.743 379.146C691.588 381.387 678.663 369.356 676.199 356.399C673.734 343.442 686.205 343.166 676.687 320.631C667.168 298.096 659.583 288.186 678.245 262.202C696.907 236.219 689.371 215.96 708.702 213.88C728.033 211.8 729.595 240.056 720.486 261.505C711.377 282.953 713.849 288.815 731.097 291.89C748.345 294.965 723.899 322.855 721.6 329.93C719.302 337.005 725.04 353.397 719.751 362.609C714.463 371.821 701.898 376.905 696.743 379.146Z" fill="url(#paint18_linear)"/>
<path fill-rule="evenodd" clip-rule="evenodd" d="M717.552 314.69C717.95 315.236 717.83 316.002 717.283 316.401C712.082 320.191 707.765 326.107 704.512 331.826C701.267 337.53 699.141 342.929 698.282 345.571C698.073 346.215 697.382 346.567 696.739 346.358C696.096 346.149 695.744 345.458 695.953 344.814C696.858 342.027 699.049 336.474 702.383 330.615C705.708 324.77 710.231 318.509 715.841 314.421C716.387 314.023 717.153 314.143 717.552 314.69Z" fill="url(#paint19_linear)"/>
<path fill-rule="evenodd" clip-rule="evenodd" d="M679.01 281.626C678.366 281.834 678.013 282.525 678.221 283.168C680.366 289.801 685.067 295.352 688.838 299.784L688.937 299.901C690.815 302.108 692.423 303.998 693.477 305.663C694.58 307.406 694.838 308.543 694.58 309.338C694.371 309.981 694.723 310.672 695.366 310.881C696.01 311.09 696.7 310.738 696.909 310.095C697.534 308.174 696.702 306.179 695.547 304.353C694.398 302.539 692.693 300.535 690.884 298.41C690.824 298.339 690.764 298.268 690.703 298.197C686.883 293.707 682.523 288.511 680.552 282.415C680.344 281.771 679.653 281.418 679.01 281.626Z" fill="url(#paint20_linear)"/>
<path fill-rule="evenodd" clip-rule="evenodd" d="M704.898 252.356C705.541 252.565 705.893 253.256 705.684 253.899C700.507 269.832 698.905 290.923 698.567 313.34C698.399 324.534 698.546 336.025 698.712 347.334C698.724 348.193 698.737 349.05 698.75 349.906C698.904 360.323 699.056 370.554 698.97 380.193C698.926 385.123 698.98 389.828 699.028 393.928C699.044 395.347 699.06 396.694 699.07 397.953C699.09 400.393 699.091 402.51 699.038 404.167C699.012 404.995 698.972 405.724 698.912 406.329C698.855 406.914 698.772 407.459 698.636 407.879C698.427 408.523 697.736 408.875 697.093 408.666C696.449 408.457 696.097 407.766 696.306 407.123C696.358 406.965 696.421 406.639 696.475 406.089C696.527 405.56 696.565 404.891 696.59 404.089C696.641 402.486 696.641 400.412 696.621 397.973C696.611 396.728 696.595 395.391 696.579 393.977C696.531 389.872 696.477 385.129 696.521 380.171C696.606 370.562 696.455 360.36 696.301 349.937C696.288 349.083 696.275 348.227 696.263 347.37C696.097 336.063 695.949 324.538 696.118 313.303C696.456 290.864 698.055 269.452 703.354 253.142C703.563 252.499 704.254 252.147 704.898 252.356Z" fill="url(#paint21_linear)"/>
</g>
<path opacity="0.5" fill-rule="evenodd" clip-rule="evenodd" d="M332.639 395L493.869 410.889C492.548 414.502 489.047 416.851 485.202 416.705L332.639 410.889" fill="url(#paint22_linear)"/>
<path opacity="0.5" fill-rule="evenodd" clip-rule="evenodd" d="M271.408 415.818L425.523 422.13V430.83L271 434.942" fill="url(#paint23_linear)"/>
<g opacity="0.3" filter="url(#filter2_i)">
<path fill-rule="evenodd" clip-rule="evenodd" d="M365.007 94.321C365.543 78.9403 405.618 82.4073 421.077 83.8911C436.536 85.3749 437.939 64.3046 424.601 61.1726C411.264 58.0406 387.076 59.6569 374.544 56.7658C362.012 53.8748 377.865 38.3696 360.789 36.5007C343.714 34.6319 308.406 36.3622 297.88 35.9825C281.347 35.3862 272.864 55.2902 301.83 56.1934C309.818 56.4424 311.42 74.1248 284.457 69.2677C267.537 66.2196 234.339 66.1492 227.433 73.9312C223.471 78.3961 224.844 90.3917 231.656 97.0156C236.716 101.936 252.809 102.896 259.114 104.033C273.904 106.702 270.98 121.022 265.937 123.971C254.003 130.949 221.25 117.78 220.372 136.94C219.984 145.407 249.785 146.774 262.005 146.67C291.974 146.417 311.665 149.087 313.047 138.864C314.434 128.601 294.424 135.528 295.41 122.911C295.926 116.317 294.544 102.308 307.382 103.043C289.806 102.036 364.282 115.094 365.007 94.321Z" fill="url(#paint24_linear)"/>
</g>
<path d="M320 18.5308C320 14.9239 322.925 12 326.533 12H640.467C644.075 12 647 14.9239 647 18.5308V176.469C647 180.076 644.075 183 640.467 183H326.533C322.925 183 320 180.076 320 176.469V18.5308Z" fill="url(#paint25_radial)"/>
<g filter="url(#filter3_d)">
<path d="M503.049 144.537C503.049 133.293 512.164 124.178 523.408 124.178H659.64C670.885 124.178 680 133.293 680 144.537C680 155.781 670.885 164.897 659.64 164.897H523.408C512.164 164.897 503.049 155.781 503.049 144.537Z" fill="url(#paint26_linear)"/>
</g>
<path opacity="0.8" fill-rule="evenodd" clip-rule="evenodd" d="M525.404 158.632C533.045 158.632 539.239 152.459 539.239 144.845C539.239 137.23 533.045 131.058 525.404 131.058C517.763 131.058 511.569 137.23 511.569 144.845C511.569 152.459 517.763 158.632 525.404 158.632Z" fill="url(#paint27_linear)"/>
<path opacity="0.9" fill-rule="evenodd" clip-rule="evenodd" d="M526.442 138.892C525.379 138.892 524.517 139.753 524.517 140.816V143.957H521.146C520.21 143.957 519.452 144.715 519.452 145.65C519.452 145.778 519.556 145.881 519.683 145.881H524.517V149.253C524.517 150.188 525.276 150.946 526.211 150.946C526.338 150.946 526.442 150.843 526.442 150.715V145.881H531.507C531.507 144.818 530.645 143.957 529.582 143.957H526.442V138.892Z" fill="white"/>
<path opacity="0.9" fill-rule="evenodd" clip-rule="evenodd" d="M525.939 139.486C525.402 139.689 525.02 140.208 525.02 140.816V144.459H521.146C520.582 144.459 520.109 144.851 519.986 145.378H525.02V149.252C525.02 149.817 525.412 150.289 525.939 150.412V145.378H530.913C530.71 144.841 530.191 144.459 529.582 144.459H525.939V139.486ZM524.015 140.816C524.015 139.475 525.101 138.389 526.442 138.389H526.945V143.454H529.582C530.923 143.454 532.01 144.54 532.01 145.881V146.384H526.945V150.715C526.945 151.12 526.616 151.449 526.211 151.449C524.998 151.449 524.015 150.465 524.015 149.252V146.384H519.683C519.278 146.384 518.95 146.055 518.95 145.65C518.95 144.437 519.933 143.454 521.146 143.454H524.015V140.816Z" fill="white"/>
<path opacity="0.6" fill-rule="evenodd" clip-rule="evenodd" d="M556.64 158.632C564.255 158.632 570.429 152.459 570.429 144.845C570.429 137.23 564.255 131.058 556.64 131.058C549.024 131.058 542.851 137.23 542.851 144.845C542.851 152.459 549.024 158.632 556.64 158.632Z" fill="url(#paint28_linear)"/>
<mask id="mask0" mask-type="alpha" maskUnits="userSpaceOnUse" x="542" y="131" width="29" height="28">
<path fill-rule="evenodd" clip-rule="evenodd" d="M556.64 158.632C564.255 158.632 570.429 152.459 570.429 144.845C570.429 137.23 564.255 131.058 556.64 131.058C549.024 131.058 542.851 137.23 542.851 144.845C542.851 152.459 549.024 158.632 556.64 158.632Z" fill="white"/>
</mask>
<g mask="url(#mask0)">
<path opacity="0.7" d="M549.482 154.337C549.482 149.885 553.091 146.275 557.543 146.275H557.857C561.221 146.275 563.949 149.003 563.949 152.367V160.662C563.949 161.621 563.171 162.398 562.213 162.398H557.543C553.091 162.398 549.482 158.789 549.482 154.337Z" fill="white"/>
<path fill-rule="evenodd" clip-rule="evenodd" d="M556.64 148.837C559.678 148.837 562.14 146.374 562.14 143.337C562.14 140.299 559.678 137.837 556.64 137.837C553.602 137.837 551.139 140.299 551.139 143.337C551.139 146.374 553.602 148.837 556.64 148.837Z" fill="white"/>
</g>
<path opacity="0.6" fill-rule="evenodd" clip-rule="evenodd" d="M587.716 158.632C595.331 158.632 601.505 152.459 601.505 144.845C601.505 137.23 595.331 131.058 587.716 131.058C580.101 131.058 573.927 137.23 573.927 144.845C573.927 152.459 580.101 158.632 587.716 158.632Z" fill="url(#paint29_linear)"/>
<mask id="mask1" mask-type="alpha" maskUnits="userSpaceOnUse" x="573" y="131" width="29" height="28">
<path fill-rule="evenodd" clip-rule="evenodd" d="M587.716 158.632C595.331 158.632 601.505 152.459 601.505 144.845C601.505 137.23 595.331 131.058 587.716 131.058C580.101 131.058 573.927 137.23 573.927 144.845C573.927 152.459 580.101 158.632 587.716 158.632Z" fill="white"/>
</mask>
<g mask="url(#mask1)">
<path opacity="0.7" d="M580.558 154.337C580.558 149.885 584.167 146.275 588.619 146.275H588.933C592.298 146.275 595.025 149.003 595.025 152.367V160.662C595.025 161.621 594.247 162.398 593.289 162.398H588.619C584.167 162.398 580.558 158.789 580.558 154.337Z" fill="white"/>
<path fill-rule="evenodd" clip-rule="evenodd" d="M587.716 148.535C590.67 148.535 593.065 146.14 593.065 143.186C593.065 140.232 590.67 137.837 587.716 137.837C584.761 137.837 582.366 140.232 582.366 143.186C582.366 146.14 584.761 148.535 587.716 148.535Z" fill="white"/>
</g>
<g opacity="0.6">
<path opacity="0.6" fill-rule="evenodd" clip-rule="evenodd" d="M649.998 158.632C657.613 158.632 663.786 152.459 663.786 144.845C663.786 137.23 657.613 131.058 649.998 131.058C642.382 131.058 636.209 137.23 636.209 144.845C636.209 152.459 642.382 158.632 649.998 158.632Z" fill="url(#paint30_linear)"/>
<mask id="mask2" mask-type="alpha" maskUnits="userSpaceOnUse" x="636" y="131" width="28" height="28">
<path fill-rule="evenodd" clip-rule="evenodd" d="M649.998 158.632C657.613 158.632 663.786 152.459 663.786 144.845C663.786 137.23 657.613 131.058 649.998 131.058C642.382 131.058 636.209 137.23 636.209 144.845C636.209 152.459 642.382 158.632 649.998 158.632Z" fill="white"/>
</mask>
<g mask="url(#mask2)">
<path opacity="0.7" d="M642.839 154.337C642.839 149.885 646.449 146.275 650.901 146.275H651.215C654.579 146.275 657.306 149.003 657.306 152.367V160.662C657.306 161.621 656.529 162.398 655.57 162.398H650.901C646.449 162.398 642.839 158.789 642.839 154.337Z" fill="white"/>
<path fill-rule="evenodd" clip-rule="evenodd" d="M649.997 148.535C652.952 148.535 655.347 146.14 655.347 143.186C655.347 140.232 652.952 137.837 649.997 137.837C647.043 137.837 644.648 140.232 644.648 143.186C644.648 146.14 647.043 148.535 649.997 148.535Z" fill="white"/>
</g>
</g>
<g opacity="0.2">
<path fill-rule="evenodd" clip-rule="evenodd" d="M618.799 158.632C626.418 158.632 632.595 152.459 632.595 144.845C632.595 137.23 626.418 131.058 618.799 131.058C611.18 131.058 605.003 137.23 605.003 144.845C605.003 152.459 611.18 158.632 618.799 158.632Z" fill="url(#paint31_radial)" fill-opacity="0.84"/>
<path fill-rule="evenodd" clip-rule="evenodd" d="M618.799 158.632C626.418 158.632 632.595 152.459 632.595 144.845C632.595 137.23 626.418 131.058 618.799 131.058C611.18 131.058 605.003 137.23 605.003 144.845C605.003 152.459 611.18 158.632 618.799 158.632Z" style="mix-blend-mode:overlay"/>
</g>
<mask id="mask3" mask-type="alpha" maskUnits="userSpaceOnUse" x="605" y="131" width="28" height="28">
<path fill-rule="evenodd" clip-rule="evenodd" d="M618.799 158.632C626.418 158.632 632.595 152.459 632.595 144.845C632.595 137.23 626.418 131.058 618.799 131.058C611.18 131.058 605.003 137.23 605.003 144.845C605.003 152.459 611.18 158.632 618.799 158.632Z" fill="white"/>
<path fill-rule="evenodd" clip-rule="evenodd" d="M618.799 158.632C626.418 158.632 632.595 152.459 632.595 144.845C632.595 137.23 626.418 131.058 618.799 131.058C611.18 131.058 605.003 137.23 605.003 144.845C605.003 152.459 611.18 158.632 618.799 158.632Z" stroke="white"/>
</mask>
<g mask="url(#mask3)">
</g>
<g filter="url(#filter4_d)">
<path fill-rule="evenodd" clip-rule="evenodd" d="M618.935 100.32H559.475C557.609 100.32 556.097 98.8078 556.097 96.942V41.5366C556.097 39.6708 557.609 38.1582 559.475 38.1582H618.935C620.801 38.1582 622.313 39.6708 622.313 41.5366V96.942C622.313 98.7967 620.818 100.302 618.935 100.32Z" fill="white"/>
<path fill-rule="evenodd" clip-rule="evenodd" d="M618.935 100.32H559.475C557.609 100.32 556.097 98.8078 556.097 96.942V41.5366C556.097 39.6708 557.609 38.1582 559.475 38.1582H618.935C620.801 38.1582 622.313 39.6708 622.313 41.5366V96.942C622.313 98.7967 620.818 100.302 618.935 100.32Z" fill="url(#paint32_linear)"/>
</g>
<g filter="url(#filter5_d)">
<path fill-rule="evenodd" clip-rule="evenodd" d="M576.367 92.2124H568.597C567.851 92.2124 567.246 91.6074 567.246 90.861V59.1043C567.246 58.358 567.851 57.7529 568.597 57.7529H576.367C577.113 57.7529 577.719 58.358 577.719 59.1043V90.861C577.719 91.5969 577.13 92.1953 576.367 92.2124Z" fill="url(#paint33_linear)"/>
<path fill-rule="evenodd" clip-rule="evenodd" d="M593.259 92.2117H585.489C584.743 92.2117 584.137 91.749 584.137 91.1783V66.8938C584.137 66.323 584.743 65.8604 585.489 65.8604H593.259C594.005 65.8604 594.61 66.323 594.61 66.8938V91.1783C594.61 91.741 594.022 92.1987 593.259 92.2117Z" fill="url(#paint34_linear)"/>
<path fill-rule="evenodd" clip-rule="evenodd" d="M609.813 92.2117H602.043C601.297 92.2117 600.692 91.8618 600.692 91.43V73.061C600.692 72.6293 601.297 72.2793 602.043 72.2793H609.813C610.56 72.2793 611.165 72.6293 611.165 73.061V91.43C611.165 91.8557 610.576 92.2019 609.813 92.2117Z" fill="url(#paint35_linear)"/>
</g>
<path opacity="0.6" fill-rule="evenodd" clip-rule="evenodd" d="M341.681 43.8177C341.681 38.265 346.182 33.7637 351.735 33.7637H393.919V100.598H341.681V43.8177Z" fill="url(#paint36_linear)"/>
<mask id="mask4" mask-type="alpha" maskUnits="userSpaceOnUse" x="341" y="33" width="53" height="68">
<path fill-rule="evenodd" clip-rule="evenodd" d="M341.681 43.8177C341.681 38.265 346.182 33.7637 351.735 33.7637H393.919V100.598H341.681V43.8177Z" fill="white"/>
</mask>
<g mask="url(#mask4)">
<path opacity="0.7" d="M350.823 89.2601C350.823 79.5232 358.716 71.6299 368.453 71.6299C378.19 71.6299 386.083 79.5232 386.083 89.2601V110.811H350.823V89.2601Z" fill="white"/>
<path fill-rule="evenodd" clip-rule="evenodd" d="M368.269 77.855C375.673 77.855 381.676 71.8711 381.676 64.4895C381.676 57.108 375.673 51.124 368.269 51.124C360.865 51.124 354.863 57.108 354.863 64.4895C354.863 71.8711 360.865 77.855 368.269 77.855Z" fill="white"/>
</g>
<path opacity="0.6" fill-rule="evenodd" clip-rule="evenodd" d="M341.681 105.1H393.919V171.934H353.746C347.083 171.934 341.681 166.532 341.681 159.869V105.1Z" fill="url(#paint37_linear)"/>
<mask id="mask5" mask-type="alpha" maskUnits="userSpaceOnUse" x="341" y="105" width="53" height="67">
<path fill-rule="evenodd" clip-rule="evenodd" d="M341.681 105.1H393.919V171.934H353.746C347.083 171.934 341.681 166.532 341.681 159.869V105.1Z" fill="white"/>
</mask>
<g mask="url(#mask5)">
<path opacity="0.7" d="M350.823 160.596C350.823 150.859 358.716 142.966 368.453 142.966C378.19 142.966 386.083 150.859 386.083 160.596V182.147H350.823V160.596Z" fill="white"/>
<path fill-rule="evenodd" clip-rule="evenodd" d="M368.269 149.191C375.673 149.191 381.676 143.207 381.676 135.825C381.676 128.444 375.673 122.46 368.269 122.46C360.865 122.46 354.863 128.444 354.863 135.825C354.863 143.207 360.865 149.191 368.269 149.191Z" fill="white"/>
</g>
<path opacity="0.6" fill-rule="evenodd" clip-rule="evenodd" d="M398.07 105.1H450.308V159.869C450.308 166.532 444.906 171.934 438.243 171.934H398.07V105.1Z" fill="url(#paint38_linear)"/>
<mask id="mask6" mask-type="alpha" maskUnits="userSpaceOnUse" x="398" y="105" width="53" height="67">
<path fill-rule="evenodd" clip-rule="evenodd" d="M398.07 105.1H450.308V159.869C450.308 166.532 444.906 171.934 438.243 171.934H398.07V105.1Z" fill="white"/>
</mask>
<g mask="url(#mask6)">
<path opacity="0.7" d="M407.212 160.596C407.212 150.859 415.105 142.966 424.842 142.966C434.579 142.966 442.472 150.859 442.472 160.596V182.147H407.212V160.596Z" fill="white"/>
<path fill-rule="evenodd" clip-rule="evenodd" d="M424.658 149.191C432.062 149.191 438.065 143.207 438.065 135.825C438.065 128.444 432.062 122.46 424.658 122.46C417.254 122.46 411.252 128.444 411.252 135.825C411.252 143.207 417.254 149.191 424.658 149.191Z" fill="white"/>
</g>
<path opacity="0.325279" fill-rule="evenodd" clip-rule="evenodd" d="M409.616 23.8881C408.979 23.8881 408.36 23.9596 407.768 24.0943C406.82 24.3097 405.877 23.7162 405.662 22.7687C405.446 21.8212 406.04 20.8784 406.987 20.663C407.834 20.4704 408.714 20.3691 409.616 20.3691H411.538C412.509 20.3691 413.297 21.1569 413.297 22.1286C413.297 23.1003 412.509 23.8881 411.538 23.8881H409.616ZM419.387 22.1286C419.387 21.1569 420.175 20.3691 421.146 20.3691H424.99C425.962 20.3691 426.749 21.1569 426.749 22.1286C426.749 23.1003 425.962 23.8881 424.99 23.8881H421.146C420.175 23.8881 419.387 23.1003 419.387 22.1286ZM432.839 22.1286C432.839 21.1569 433.627 20.3691 434.599 20.3691H438.442C439.414 20.3691 440.201 21.1569 440.201 22.1286C440.201 23.1003 439.414 23.8881 438.442 23.8881H434.599C433.627 23.8881 432.839 23.1003 432.839 22.1286ZM446.291 22.1286C446.291 21.1569 447.079 20.3691 448.051 20.3691H449.973C450.874 20.3691 451.754 20.4704 452.601 20.663C453.548 20.8784 454.142 21.8212 453.926 22.7687C453.711 23.7162 452.768 24.3097 451.821 24.0943C451.228 23.9596 450.61 23.8881 449.973 23.8881H448.051C447.079 23.8881 446.291 23.1003 446.291 22.1286ZM400.202 28.2287C401.149 28.4441 401.743 29.3869 401.527 30.3344C401.393 30.9271 401.321 31.5455 401.321 32.1826V34.1102C401.321 35.0819 400.533 35.8697 399.562 35.8697C398.59 35.8697 397.802 35.0819 397.802 34.1102V32.1826C397.802 31.2812 397.904 30.4012 398.096 29.5543C398.312 28.6068 399.254 28.0133 400.202 28.2287ZM459.386 28.2287C460.334 28.0133 461.277 28.6068 461.492 29.5543C461.685 30.4012 461.786 31.2812 461.786 32.1827V34.233C461.786 35.2048 460.998 35.9925 460.027 35.9925C459.055 35.9925 458.267 35.2048 458.267 34.233V32.1827C458.267 31.5455 458.196 30.9271 458.061 30.3345C457.845 29.3869 458.439 28.4441 459.386 28.2287ZM399.562 41.9886C400.533 41.9886 401.321 42.7764 401.321 43.7481V47.6032C401.321 48.5749 400.533 49.3627 399.562 49.3627C398.59 49.3627 397.802 48.5749 397.802 47.6032V43.7481C397.802 42.7764 398.59 41.9886 399.562 41.9886ZM460.027 42.7255C460.998 42.7255 461.786 43.5133 461.786 44.485V48.5858C461.786 49.5575 460.998 50.3452 460.027 50.3452C459.055 50.3452 458.267 49.5575 458.267 48.5858V44.485C458.267 43.5133 459.055 42.7255 460.027 42.7255ZM399.562 55.4816C400.533 55.4816 401.321 56.2694 401.321 57.2411V61.0962C401.321 62.0679 400.533 62.8557 399.562 62.8557C398.59 62.8557 397.802 62.0679 397.802 61.0962V57.2411C397.802 56.2694 398.59 55.4816 399.562 55.4816ZM460.027 57.0783C460.998 57.0783 461.786 57.866 461.786 58.8377V62.9385C461.786 63.9102 460.998 64.698 460.027 64.698C459.055 64.698 458.267 63.9102 458.267 62.9385V58.8377C458.267 57.866 459.055 57.0783 460.027 57.0783ZM399.562 68.9746C400.533 68.9746 401.321 69.7623 401.321 70.7341V74.5892C401.321 75.5609 400.533 76.3487 399.562 76.3487C398.59 76.3487 397.802 75.5609 397.802 74.5892V70.7341C397.802 69.7623 398.59 68.9746 399.562 68.9746ZM460.027 71.431C460.998 71.431 461.786 72.2187 461.786 73.1905V77.2912C461.786 78.263 460.998 79.0507 460.027 79.0507C459.055 79.0507 458.267 78.263 458.267 77.2912V73.1905C458.267 72.2187 459.055 71.431 460.027 71.431ZM399.562 82.4676C400.533 82.4676 401.321 83.2553 401.321 84.2271V88.0822C401.321 89.0539 400.533 89.8417 399.562 89.8417C398.59 89.8417 397.802 89.0539 397.802 88.0822V84.2271C397.802 83.2553 398.59 82.4676 399.562 82.4676ZM460.027 85.7837C460.998 85.7837 461.786 86.5715 461.786 87.5432V89.5936C461.786 90.495 461.685 91.375 461.492 92.2219C461.277 93.1694 460.334 93.7629 459.386 93.5475C458.439 93.3321 457.845 92.3893 458.061 91.4418C458.196 90.8491 458.267 90.2308 458.267 89.5936V87.5432C458.267 86.5715 459.055 85.7837 460.027 85.7837ZM399.562 95.9606C400.533 95.9606 401.321 96.7483 401.321 97.7201V97.8882H401.362C402.334 97.8882 403.122 98.6759 403.122 99.6476C403.122 100.619 402.334 101.407 401.362 101.407H399.562C398.59 101.407 397.802 100.619 397.802 99.6476V97.7201C397.802 96.7483 398.59 95.9606 399.562 95.9606ZM453.926 99.0075C454.142 99.9551 453.548 100.898 452.601 101.113C451.754 101.306 450.874 101.407 449.973 101.407H448.172C447.2 101.407 446.413 100.619 446.413 99.6476C446.413 98.6759 447.2 97.8882 448.172 97.8882H449.973C450.61 97.8882 451.228 97.8167 451.821 97.6819C452.768 97.4665 453.711 98.06 453.926 99.0075ZM408.605 99.6476C408.605 98.6759 409.392 97.8882 410.364 97.8882H413.965C414.937 97.8882 415.724 98.6759 415.724 99.6476C415.724 100.619 414.937 101.407 413.965 101.407H410.364C409.392 101.407 408.605 100.619 408.605 99.6476ZM421.207 99.6476C421.207 98.6759 421.995 97.8882 422.967 97.8882H426.568C427.539 97.8882 428.327 98.6759 428.327 99.6476C428.327 100.619 427.539 101.407 426.568 101.407H422.967C421.995 101.407 421.207 100.619 421.207 99.6476ZM433.81 99.6476C433.81 98.6759 434.598 97.8882 435.569 97.8882H439.17C440.142 97.8882 440.93 98.6759 440.93 99.6476C440.93 100.619 440.142 101.407 439.17 101.407H435.569C434.598 101.407 433.81 100.619 433.81 99.6476Z" fill="#7188B0"/>
<g style="mix-blend-mode:multiply" opacity="0.3">
<path fill-rule="evenodd" clip-rule="evenodd" d="M429.7 45.3848C428.456 45.3848 427.448 46.3931 427.448 47.6369V58.2839H416.801C415.557 58.2839 414.549 59.2922 414.549 60.536V60.9327C414.549 62.1765 415.557 63.1848 416.801 63.1848H427.448V73.8321C427.448 75.0759 428.456 76.0842 429.7 76.0842H430.097C431.341 76.0842 432.349 75.0759 432.349 73.8321V63.1848H442.996C444.24 63.1848 445.248 62.1765 445.248 60.9327V60.536C445.248 59.2922 444.24 58.2839 442.996 58.2839H432.349V47.6369C432.349 46.3931 431.341 45.3848 430.097 45.3848H429.7Z" fill="url(#paint39_linear)"/>
</g>
<g style="mix-blend-mode:multiply" opacity="0.3">
<path fill-rule="evenodd" clip-rule="evenodd" d="M429.7 45.8863C428.734 45.8863 427.951 46.6695 427.951 47.6357V58.7854H416.801C415.835 58.7854 415.052 59.5686 415.052 60.5348V60.9315C415.052 61.8976 415.835 62.6809 416.801 62.6809H427.951V73.8309C427.951 74.797 428.734 75.5803 429.7 75.5803H430.097C431.063 75.5803 431.846 74.797 431.846 73.8309V62.6809H442.996C443.962 62.6809 444.746 61.8976 444.746 60.9315V60.5348C444.746 59.5686 443.962 58.7854 442.996 58.7854H431.846V47.6357C431.846 46.6695 431.063 45.8863 430.097 45.8863H429.7ZM426.945 47.6357C426.945 46.1142 428.179 44.8809 429.7 44.8809H430.097C431.618 44.8809 432.852 46.1142 432.852 47.6357V57.78H442.996C444.518 57.78 445.751 59.0134 445.751 60.5348V60.9315C445.751 62.4529 444.518 63.6863 442.996 63.6863H432.852V73.8309C432.852 75.3523 431.618 76.5857 430.097 76.5857H429.7C428.179 76.5857 426.945 75.3523 426.945 73.8309V63.6863H416.801C415.28 63.6863 414.046 62.4529 414.046 60.9315V60.5348C414.046 59.0134 415.28 57.78 416.801 57.78H426.945V47.6357Z" fill="url(#paint40_linear)"/>
</g>
<g filter="url(#filter6_d)">
<path fill-rule="evenodd" clip-rule="evenodd" d="M542.021 100.659H482.562C480.696 100.659 479.183 99.1467 479.183 97.2809V41.8755C479.183 40.0096 480.696 38.4971 482.562 38.4971H542.021C543.887 38.4971 545.4 40.0096 545.4 41.8755V97.2809C545.4 99.1356 543.905 100.641 542.021 100.659Z" fill="white"/>
<path fill-rule="evenodd" clip-rule="evenodd" d="M542.021 100.659H482.562C480.696 100.659 479.183 99.1467 479.183 97.2809V41.8755C479.183 40.0096 480.696 38.4971 482.562 38.4971H542.021C543.887 38.4971 545.4 40.0096 545.4 41.8755V97.2809C545.4 99.1356 543.905 100.641 542.021 100.659Z" fill="url(#paint41_linear)"/>
</g>
<path opacity="0.4" fill-rule="evenodd" clip-rule="evenodd" d="M484.105 85.221C484.105 85.221 486.522 79.8886 491.357 69.2238L503.079 71.5492L512.095 59.2233L527.035 53.2266L540.085 61.9042" fill="black" fill-opacity="0.01"/>
<path opacity="0.4" fill-rule="evenodd" clip-rule="evenodd" d="M527.18 51.8145L540.781 60.8581L539.39 62.9512L526.889 54.6396L512.897 60.2561L503.62 72.9383L492.09 70.6509L485.249 85.7401C485.249 85.7402 485.249 85.7404 484.105 85.2215C482.96 84.7026 482.96 84.7025 482.96 84.7025L490.623 67.7975L502.537 70.161L511.293 58.1915L527.18 51.8145Z" fill="white"/>
<path fill-rule="evenodd" clip-rule="evenodd" d="M502.946 73.711C504.238 73.711 505.285 72.6638 505.285 71.3721C505.285 70.0804 504.238 69.0332 502.946 69.0332C501.655 69.0332 500.607 70.0804 500.607 71.3721C500.607 72.6638 501.655 73.711 502.946 73.711Z" fill="#FACA39"/>
<path fill-rule="evenodd" clip-rule="evenodd" d="M491.46 72.4883C492.751 72.4883 493.799 71.4411 493.799 70.1495C493.799 68.8577 492.751 67.8105 491.46 67.8105C490.168 67.8105 489.121 68.8577 489.121 70.1495C489.121 71.4411 490.168 72.4883 491.46 72.4883Z" fill="#FACA39"/>
<path fill-rule="evenodd" clip-rule="evenodd" d="M512.068 61.5489C513.36 61.5489 514.407 60.5017 514.407 59.2099C514.407 57.9183 513.36 56.8711 512.068 56.8711C510.776 56.8711 509.729 57.9183 509.729 59.2099C509.729 60.5017 510.776 61.5489 512.068 61.5489Z" fill="#FACA39"/>
<path fill-rule="evenodd" clip-rule="evenodd" d="M526.933 56.1426C528.225 56.1426 529.272 55.0954 529.272 53.8037C529.272 52.512 528.225 51.4648 526.933 51.4648C525.641 51.4648 524.594 52.512 524.594 53.8037C524.594 55.0954 525.641 56.1426 526.933 56.1426Z" fill="#FACA39"/>
<path fill-rule="evenodd" clip-rule="evenodd" d="M288.069 419.469V412.315H299.499V421.081L291.838 422.112L288.069 419.469Z" fill="url(#paint42_linear)"/>
<path fill-rule="evenodd" clip-rule="evenodd" d="M349.177 395.579L343.177 390.855L350.709 380.884L356.239 387.51L349.177 395.579Z" fill="url(#paint43_linear)"/>
<path fill-rule="evenodd" clip-rule="evenodd" d="M323.127 307.815C323.127 307.815 325.8 339.844 327.695 344.598C329.59 349.352 352.565 381.032 352.565 381.032C352.565 381.032 351.379 384.78 348.919 387.516C346.605 390.088 344.201 391.573 342.348 392.722C337.846 389.139 308.494 359.075 308.494 359.075C308.494 359.075 306.015 342.632 308.494 333.627C310.974 324.621 323.127 307.815 323.127 307.815Z" fill="url(#paint44_linear)"/>
<path fill-rule="evenodd" clip-rule="evenodd" d="M278.124 279.126C278.124 281.007 280.994 289.164 281.883 299.126C282.508 306.141 281.122 314.051 281.538 321.297C282.543 338.832 287.165 414.311 287.165 414.311C287.165 414.311 290.317 416.613 293.871 417.142C297.425 417.671 303.246 416.145 303.246 416.145C303.246 416.145 309.939 364.543 313.173 351.933C314.73 345.862 313.396 332.621 319.115 322.548C321.745 317.915 323.713 312.066 325.071 307.099C326.923 300.325 326.15 293.191 323.734 286.597L317.768 270.314C317.768 270.314 278.124 275.919 278.124 279.126Z" fill="url(#paint45_linear)"/>
<mask id="mask7" mask-type="alpha" maskUnits="userSpaceOnUse" x="278" y="270" width="49" height="148">
<path fill-rule="evenodd" clip-rule="evenodd" d="M278.124 279.126C278.124 281.007 280.994 289.164 281.883 299.126C282.508 306.141 281.122 314.051 281.538 321.297C282.543 338.832 287.165 414.311 287.165 414.311C287.165 414.311 290.317 416.613 293.871 417.142C297.425 417.671 303.246 416.145 303.246 416.145C303.246 416.145 309.939 364.543 313.173 351.933C314.73 345.862 313.396 332.621 319.115 322.548C321.745 317.915 323.713 312.066 325.071 307.099C326.923 300.325 326.15 293.191 323.734 286.597L317.768 270.314C317.768 270.314 278.124 275.919 278.124 279.126Z" fill="white"/>
</mask>
<g mask="url(#mask7)">
<g opacity="0.5">
<path fill-rule="evenodd" clip-rule="evenodd" d="M280.335 281.095C286.839 283.054 311.139 284.275 321.829 277.485C332.519 270.696 295.404 272.906 295.404 272.906C295.404 272.906 273.83 279.137 280.335 281.095Z" fill="url(#paint46_linear)" style="mix-blend-mode:multiply"/>
</g>
<g opacity="0.5">
<path fill-rule="evenodd" clip-rule="evenodd" d="M304.071 305.754C301.71 305.193 299.538 304.974 297.599 302.957C296.104 301.403 294.635 298.869 294.635 295.544C294.635 287.904 296.979 284.437 296.979 284.437" fill="url(#paint47_linear)" style="mix-blend-mode:multiply"/>
</g>
</g>
<path fill-rule="evenodd" clip-rule="evenodd" d="M365.307 399.939C365.307 399.939 361.518 393.69 359.129 390.843C356.74 387.995 354.837 385.728 354.837 385.728C354.837 385.728 354.016 389.095 351.938 390.916C350.106 392.52 349.508 392.954 345.767 393.338C343.563 397.905 342.021 407.157 337.564 415.637C337.126 417.749 338.314 419.347 339.217 420.219C339.725 420.709 340.5 420.658 341.043 420.208L351.045 411.905L355.514 402.439L359.046 405.192L365.307 399.939Z" fill="url(#paint48_radial)"/>
<path fill-rule="evenodd" clip-rule="evenodd" d="M298.793 435.647C298.793 435.647 299.907 428.424 299.907 424.707C299.907 420.991 299.907 418.03 299.907 418.03C299.907 418.03 297.113 420.082 294.351 420.141C291.917 420.193 291.18 420.141 288.067 418.03C283.443 420.112 272.85 426.606 263.985 430.237C263.985 431.653 264.594 433.701 265.013 434.941C265.233 435.593 265.858 436.009 266.546 435.991L280.176 435.647L289.684 431.267L290.62 435.647H298.793Z" fill="url(#paint49_radial)"/>
<path fill-rule="evenodd" clip-rule="evenodd" d="M252.097 156.56C252.518 157.878 256.273 161.404 257.189 165.355C257.733 167.704 257.323 170.06 257.323 171.874C257.323 176.739 258.932 176.554 262.354 175.817C265.559 177.715 266.116 181.967 269.695 184.179C273.274 186.39 279.457 178.39 281.496 180.669C282.162 181.414 282.545 182.837 283.88 184.179C285.269 185.575 284.512 191.616 284.512 191.616C284.512 191.616 296.636 189.838 298.016 183.362C296.526 180.358 293.075 171.023 293.075 168.476C293.075 165.929 298.776 156.213 283.24 146.786C267.703 137.358 251.425 154.458 252.097 156.56Z" fill="url(#paint50_linear)"/>
<mask id="mask8" mask-type="alpha" maskUnits="userSpaceOnUse" x="252" y="143" width="47" height="49">
<path fill-rule="evenodd" clip-rule="evenodd" d="M252.097 156.56C252.518 157.878 256.273 161.404 257.189 165.355C257.733 167.704 257.323 170.06 257.323 171.874C257.323 176.739 258.932 176.554 262.354 175.817C265.559 177.715 266.116 181.967 269.695 184.179C273.274 186.39 279.457 178.39 281.496 180.669C282.162 181.414 282.545 182.837 283.88 184.179C285.269 185.575 284.512 191.616 284.512 191.616C284.512 191.616 296.636 189.838 298.016 183.362C296.526 180.358 293.075 171.023 293.075 168.476C293.075 165.929 298.776 156.213 283.24 146.786C267.703 137.358 251.425 154.458 252.097 156.56Z" fill="white"/>
</mask>
<g mask="url(#mask8)">
<g opacity="0.5">
<path fill-rule="evenodd" clip-rule="evenodd" d="M277.558 181.585C279.974 179.749 283.206 173.639 283.206 173.168C283.206 172.697 284.904 188.052 284.904 188.052C284.904 188.052 275.142 183.421 277.558 181.585Z" fill="#3D82F0" style="mix-blend-mode:multiply"/>
</g>
<path fill-rule="evenodd" clip-rule="evenodd" d="M266.705 176.722C266.767 176.939 266.642 177.165 266.425 177.227C264.791 177.698 263.837 178.477 263.272 179.778C263.183 179.984 262.942 180.079 262.735 179.99C262.529 179.9 262.434 179.66 262.523 179.453C263.203 177.886 264.379 176.967 266.199 176.443C266.416 176.38 266.642 176.505 266.705 176.722Z" fill="#223762"/>
</g>
<path fill-rule="evenodd" clip-rule="evenodd" d="M228.399 229.357C225.254 226.584 221.361 225.633 218.917 221.845C216.473 218.057 209.375 205.327 211.221 203.682C213.067 202.037 217.688 197.6 219.43 197.6C221.173 197.6 224.377 204.328 225.97 207.39C227.564 210.451 230.247 216.976 230.247 219.669C230.247 222.362 231.544 232.131 228.399 229.357Z" fill="url(#paint51_linear)"/>
<path fill-rule="evenodd" clip-rule="evenodd" d="M207.311 196.806C206.679 195.674 207.039 194.246 208.131 193.548L215.168 189.053C216.548 188.172 218.384 188.628 219.192 190.051L230.549 210.069C231.195 211.209 230.831 212.655 229.721 213.352L222.151 218.106C220.964 218.851 219.394 218.45 218.71 217.225L207.311 196.806Z" fill="#223762"/>
<path fill-rule="evenodd" clip-rule="evenodd" d="M209.21 195.007C208.889 194.43 209.082 193.704 209.647 193.363L217.036 188.899C217.627 188.543 218.395 188.744 218.735 189.344L229.887 209.019C230.217 209.6 230.02 210.337 229.446 210.677L221.866 215.162C221.273 215.513 220.507 215.306 220.172 214.704L209.21 195.007Z" fill="url(#paint52_linear)"/>
<path fill-rule="evenodd" clip-rule="evenodd" d="M268.154 230.573C268.154 230.573 254.112 248.253 253.411 248.253C252.711 248.253 236.585 225.273 236.585 224.224C236.585 223.175 237.735 219.06 234.544 214.671C231.353 210.282 229.404 202.594 227.725 201.225C226.046 199.856 226.034 199.26 225.19 200.001C224.346 200.741 224.4 201.376 225.19 202.992C225.979 204.609 227.725 209.255 227.725 210.451C227.725 211.646 226.918 215.906 227.725 217.528C228.533 219.15 227.761 225.461 228.764 228.677C229.766 231.892 247.945 264.514 253.279 263.813C258.613 263.112 277.455 243.763 277.455 243.763C277.455 243.763 280.374 235.236 275.584 232.046C270.795 228.857 268.154 230.573 268.154 230.573Z" fill="url(#paint53_linear)"/>
<mask id="mask9" mask-type="alpha" maskUnits="userSpaceOnUse" x="224" y="199" width="55" height="65">
<path fill-rule="evenodd" clip-rule="evenodd" d="M268.154 230.573C268.154 230.573 254.112 248.253 253.411 248.253C252.711 248.253 236.585 225.273 236.585 224.224C236.585 223.175 237.735 219.06 234.544 214.671C231.353 210.282 229.404 202.594 227.725 201.225C226.046 199.856 226.034 199.26 225.19 200.001C224.346 200.741 224.4 201.376 225.19 202.992C225.979 204.609 227.725 209.255 227.725 210.451C227.725 211.646 226.918 215.906 227.725 217.528C228.533 219.15 227.761 225.461 228.764 228.677C229.766 231.892 247.945 264.514 253.279 263.813C258.613 263.112 277.455 243.763 277.455 243.763C277.455 243.763 280.374 235.236 275.584 232.046C270.795 228.857 268.154 230.573 268.154 230.573Z" fill="white"/>
</mask>
<g mask="url(#mask9)">
<g opacity="0.5">
<path fill-rule="evenodd" clip-rule="evenodd" d="M264.404 231.693C264.404 231.693 268.703 237.024 272.337 240.723C274.408 246.073 272.825 250.035 274.408 249.482C275.991 248.93 279.025 234.001 277.508 231.693C276.868 230.719 272.239 226.791 268.703 227.429C266.653 227.799 264.404 231.693 264.404 231.693Z" fill="#3D82F0" style="mix-blend-mode:multiply"/>
</g>
<path fill-rule="evenodd" clip-rule="evenodd" d="M253.193 247.505C253.341 247.334 253.598 247.315 253.769 247.462C253.938 247.608 254.101 247.828 254.253 248.063C254.409 248.306 254.57 248.595 254.732 248.905C255.043 249.503 255.365 250.2 255.654 250.824C255.664 250.847 255.675 250.869 255.685 250.892C255.78 251.097 255.691 251.339 255.486 251.434C255.282 251.529 255.039 251.439 254.944 251.235C254.935 251.214 254.926 251.194 254.916 251.174C254.625 250.544 254.31 249.862 254.008 249.282C253.852 248.983 253.703 248.718 253.566 248.505C253.424 248.284 253.312 248.147 253.236 248.081C253.065 247.933 253.046 247.675 253.193 247.505Z" fill="#223762"/>
</g>
<path fill-rule="evenodd" clip-rule="evenodd" d="M274.388 237.604C268.156 233.111 260.931 224.855 264.544 221.202C268.156 217.548 281.803 199.696 284.621 195.96C287.439 192.224 291.084 215.644 287.184 221.202C283.283 226.759 279.706 232.997 274.388 237.604Z" fill="url(#paint54_linear)"/>
<path fill-rule="evenodd" clip-rule="evenodd" d="M276.464 277.563C275.648 271.744 280.627 254.112 276.068 243.632C274.105 239.118 271.125 235.473 270.927 230.425C270.654 223.449 273.837 215.279 275.648 211.81C282.601 198.485 282.44 191.079 284.453 188.97C287.363 188.97 295.175 186.766 298.045 182.496C301.265 184.296 312.42 197.12 315.8 204.26C319.179 211.399 318.102 233.368 318.102 246.523C318.102 259.678 319.909 268.332 319.909 271.744C319.909 275.156 277.652 286.03 276.464 277.563Z" fill="url(#paint55_linear)"/>
<path fill-rule="evenodd" clip-rule="evenodd" d="M297.591 279.254C297.591 279.254 301.223 269.208 301.223 265.221C301.223 261.235 295.775 231.992 297.591 228.729C299.407 225.466 311.23 258.573 311.23 258.573C311.23 258.573 306.2 272.486 304.529 275.719C302.858 278.952 297.591 279.254 297.591 279.254Z" fill="url(#paint56_linear)" style="mix-blend-mode:multiply"/>
<path fill-rule="evenodd" clip-rule="evenodd" d="M267.487 154.009C256.561 148.003 253.099 158.94 251.502 157.55C247.283 152.233 249.511 146.187 251.502 141.136C254.85 132.642 275.328 118.625 291.469 133.602C307.61 148.58 294.299 174.332 294.299 174.332C294.299 174.332 290.235 172.809 289.203 168.641C288.172 164.473 278.617 162.568 278.617 162.568C278.617 162.568 281.295 158.453 278.617 155.956C275.938 153.459 274.776 154.268 273.951 155.101C273.098 155.51 273.002 159.183 273.002 159.183C273.002 159.183 269.598 155.101 267.487 154.009Z" fill="url(#paint57_radial)"/>
<path fill-rule="evenodd" clip-rule="evenodd" d="M297.405 161.756C297.405 163.043 300.268 166.91 305.396 166.91C310.524 166.91 325.871 162.92 330.959 175.392C336.046 187.864 329.023 188.451 337.311 197.459C345.599 206.467 345.915 230.856 325.655 225.024C305.396 219.191 308.589 192.681 308.589 185.608C308.589 178.535 300.975 176.006 294.143 174.412C290.419 166.91 297.405 160.469 297.405 161.756Z" fill="#223762"/>
<mask id="mask10" mask-type="alpha" maskUnits="userSpaceOnUse" x="293" y="161" width="50" height="65">
<path fill-rule="evenodd" clip-rule="evenodd" d="M297.405 161.756C297.405 163.043 300.268 166.91 305.396 166.91C310.524 166.91 325.871 162.92 330.959 175.392C336.046 187.864 329.023 188.451 337.311 197.459C345.599 206.467 345.915 230.856 325.655 225.024C305.396 219.191 308.589 192.681 308.589 185.608C308.589 178.535 300.975 176.006 294.143 174.412C290.419 166.91 297.405 160.469 297.405 161.756Z" fill="white"/>
</mask>
<g mask="url(#mask10)">
<g opacity="0.3">
<path fill-rule="evenodd" clip-rule="evenodd" d="M294.455 173.829C299.913 172.316 311.846 172.384 315.348 179.142C318.85 185.9 324.641 216.412 311.752 217.724C298.863 219.035 288.997 175.341 294.455 173.829Z" fill="#223762" style="mix-blend-mode:multiply"/>
</g>
<path fill-rule="evenodd" clip-rule="evenodd" d="M301.155 163.779C301.47 164.377 301.239 165.118 300.64 165.432C296.595 167.556 296.383 171.896 296.383 174.943C296.383 175.619 295.834 176.168 295.158 176.168C294.482 176.168 293.934 175.619 293.934 174.943C293.934 172.031 294.024 166.14 299.502 163.264C300.1 162.949 300.841 163.18 301.155 163.779Z" fill="#D6E3FA"/>
</g>
<path fill-rule="evenodd" clip-rule="evenodd" d="M304.078 264.598C302.817 259.203 295.518 230.348 297.185 223.111C298.853 215.874 311.686 212.36 313.028 220.919C314.114 227.846 317.326 255.034 318.512 265.155C318.805 267.659 318.387 270.187 317.309 272.465L306.245 295.843L301.554 305.078C301.554 305.078 297.185 304.35 295.15 298.761C294.486 296.939 294.897 294.825 295.846 292.642C299.927 283.255 305.101 268.976 304.078 264.598Z" fill="url(#paint58_linear)"/>
<mask id="mask11" mask-type="alpha" maskUnits="userSpaceOnUse" x="294" y="215" width="25" height="91">
<path fill-rule="evenodd" clip-rule="evenodd" d="M304.078 264.598C302.817 259.203 295.518 230.348 297.185 223.111C298.853 215.874 311.686 212.36 313.028 220.919C314.114 227.846 317.326 255.034 318.512 265.155C318.805 267.659 318.387 270.187 317.309 272.465L306.245 295.843L301.554 305.078C301.554 305.078 297.185 304.35 295.15 298.761C294.486 296.939 294.897 294.825 295.846 292.642C299.927 283.255 305.101 268.976 304.078 264.598Z" fill="white"/>
</mask>
<g mask="url(#mask11)">
<g opacity="0.5">
<path fill-rule="evenodd" clip-rule="evenodd" d="M298.025 232.719C302.991 233.846 311.862 234.413 315.74 232.719C319.618 231.024 314.514 225.777 314.514 225.777C314.514 225.777 293.059 231.592 298.025 232.719Z" fill="#3D82F0" style="mix-blend-mode:multiply"/>
</g>
</g>
<path fill-rule="evenodd" clip-rule="evenodd" d="M294.288 230.019C292.118 223.659 288.078 197.777 299.101 194.932C310.125 192.087 316.643 222.052 316.643 224.874C316.643 227.697 296.458 236.38 294.288 230.019Z" fill="url(#paint59_linear)"/>
<path fill-rule="evenodd" clip-rule="evenodd" d="M280.5 215.343C280.628 214.621 281.356 214.172 282.058 214.382L287.963 216.153C288.559 216.331 288.926 216.927 288.818 217.538L286.397 231.266C286.299 231.823 285.831 232.241 285.266 232.276L281.609 232.5C281.244 232.523 280.888 232.381 280.638 232.113L278.452 229.77C278.19 229.489 278.075 229.101 278.141 228.722L280.5 215.343Z" fill="url(#paint60_linear)"/>
<path fill-rule="evenodd" clip-rule="evenodd" d="M214.093 166.581C214.768 166.531 215.355 167.037 215.405 167.711L216.221 178.733C216.271 179.407 215.765 179.995 215.09 180.045C214.416 180.095 213.829 179.588 213.779 178.914L212.962 167.892C212.912 167.218 213.419 166.631 214.093 166.581Z" fill="url(#paint61_linear)"/>
<path fill-rule="evenodd" clip-rule="evenodd" d="M227.264 166.652C227.898 166.887 228.221 167.591 227.987 168.225L223.905 179.247C223.67 179.881 222.965 180.205 222.331 179.97C221.697 179.735 221.373 179.031 221.608 178.396L225.69 167.375C225.925 166.741 226.629 166.417 227.264 166.652Z" fill="url(#paint62_linear)"/>
<path fill-rule="evenodd" clip-rule="evenodd" d="M236.586 176.845C236.998 177.382 236.897 178.151 236.36 178.562L227.584 185.298C227.047 185.71 226.278 185.608 225.867 185.072C225.455 184.535 225.556 183.767 226.093 183.355L234.869 176.619C235.406 176.208 236.174 176.309 236.586 176.845Z" fill="url(#paint63_linear)"/>
<path opacity="0.460603" fill-rule="evenodd" clip-rule="evenodd" d="M208.877 194.2L266.586 147.391L288.885 188.052L220.926 215.969L208.877 194.2Z" fill="url(#paint64_linear)"/>
<defs>
<filter id="filter0_i" x="554.113" y="112.965" width="210.805" height="128.264" filterUnits="userSpaceOnUse" color-interpolation-filters="sRGB">
<feFlood flood-opacity="0" result="BackgroundImageFix"/>
<feBlend mode="normal" in="SourceGraphic" in2="BackgroundImageFix" result="shape"/>
<feColorMatrix in="SourceAlpha" type="matrix" values="0 0 0 0 0 0 0 0 0 0 0 0 0 0 0 0 0 0 127 0" result="hardAlpha"/>
<feOffset dy="-14"/>
<feGaussianBlur stdDeviation="12.5"/>
<feComposite in2="hardAlpha" operator="arithmetic" k2="-1" k3="1"/>
<feColorMatrix type="matrix" values="0 0 0 0 0.788056 0 0 0 0 0.827193 0 0 0 0 0.89764 0 0 0 0.337126 0"/>
<feBlend mode="normal" in2="shape" result="effect1_innerShadow"/>
</filter>
<filter id="filter1_i" x="282.235" y="179.942" width="234.56" height="135.809" filterUnits="userSpaceOnUse" color-interpolation-filters="sRGB">
<feFlood flood-opacity="0" result="BackgroundImageFix"/>
<feBlend mode="normal" in="SourceGraphic" in2="BackgroundImageFix" result="shape"/>
<feColorMatrix in="SourceAlpha" type="matrix" values="0 0 0 0 0 0 0 0 0 0 0 0 0 0 0 0 0 0 127 0" result="hardAlpha"/>
<feOffset dy="-14"/>
<feGaussianBlur stdDeviation="12.5"/>
<feComposite in2="hardAlpha" operator="arithmetic" k2="-1" k3="1"/>
<feColorMatrix type="matrix" values="0 0 0 0 0.788056 0 0 0 0 0.827193 0 0 0 0 0.89764 0 0 0 0.337126 0"/>
<feBlend mode="normal" in2="shape" result="effect1_innerShadow"/>
</filter>
<filter id="filter2_i" x="220.368" y="21.6152" width="213.349" height="125.192" filterUnits="userSpaceOnUse" color-interpolation-filters="sRGB">
<feFlood flood-opacity="0" result="BackgroundImageFix"/>
<feBlend mode="normal" in="SourceGraphic" in2="BackgroundImageFix" result="shape"/>
<feColorMatrix in="SourceAlpha" type="matrix" values="0 0 0 0 0 0 0 0 0 0 0 0 0 0 0 0 0 0 127 0" result="hardAlpha"/>
<feOffset dy="-14"/>
<feGaussianBlur stdDeviation="12.5"/>
<feComposite in2="hardAlpha" operator="arithmetic" k2="-1" k3="1"/>
<feColorMatrix type="matrix" values="0 0 0 0 0.788056 0 0 0 0 0.827193 0 0 0 0 0.89764 0 0 0 0.337126 0"/>
<feBlend mode="normal" in2="shape" result="effect1_innerShadow"/>
</filter>
<filter id="filter3_d" x="474.049" y="124.178" width="205.951" height="66.7189" filterUnits="userSpaceOnUse" color-interpolation-filters="sRGB">
<feFlood flood-opacity="0" result="BackgroundImageFix"/>
<feColorMatrix in="SourceAlpha" type="matrix" values="0 0 0 0 0 0 0 0 0 0 0 0 0 0 0 0 0 0 127 0"/>
<feOffset dx="-29" dy="26"/>
<feColorMatrix type="matrix" values="0 0 0 0 0.831373 0 0 0 0 0.882353 0 0 0 0 0.972549 0 0 0 0.427253 0"/>
<feBlend mode="normal" in2="BackgroundImageFix" result="effect1_dropShadow"/>
<feBlend mode="normal" in="SourceGraphic" in2="effect1_dropShadow" result="shape"/>
</filter>
<filter id="filter4_d" x="517.097" y="30.1582" width="134.216" height="130.162" filterUnits="userSpaceOnUse" color-interpolation-filters="sRGB">
<feFlood flood-opacity="0" result="BackgroundImageFix"/>
<feColorMatrix in="SourceAlpha" type="matrix" values="0 0 0 0 0 0 0 0 0 0 0 0 0 0 0 0 0 0 127 0"/>
<feOffset dx="-5" dy="26"/>
<feGaussianBlur stdDeviation="17"/>
<feColorMatrix type="matrix" values="0 0 0 0 0.831373 0 0 0 0 0.882353 0 0 0 0 0.972549 0 0 0 0.43 0"/>
<feBlend mode="normal" in2="BackgroundImageFix" result="effect1_dropShadow"/>
<feBlend mode="normal" in="SourceGraphic" in2="effect1_dropShadow" result="shape"/>
</filter>
<filter id="filter5_d" x="528.246" y="49.7529" width="111.919" height="102.459" filterUnits="userSpaceOnUse" color-interpolation-filters="sRGB">
<feFlood flood-opacity="0" result="BackgroundImageFix"/>
<feColorMatrix in="SourceAlpha" type="matrix" values="0 0 0 0 0 0 0 0 0 0 0 0 0 0 0 0 0 0 127 0"/>
<feOffset dx="-5" dy="26"/>
<feGaussianBlur stdDeviation="17"/>
<feColorMatrix type="matrix" values="0 0 0 0 0.831373 0 0 0 0 0.882353 0 0 0 0 0.972549 0 0 0 0.43 0"/>
<feBlend mode="normal" in2="BackgroundImageFix" result="effect1_dropShadow"/>
<feBlend mode="normal" in="SourceGraphic" in2="effect1_dropShadow" result="shape"/>
</filter>
<filter id="filter6_d" x="440.183" y="30.4971" width="134.216" height="130.162" filterUnits="userSpaceOnUse" color-interpolation-filters="sRGB">
<feFlood flood-opacity="0" result="BackgroundImageFix"/>
<feColorMatrix in="SourceAlpha" type="matrix" values="0 0 0 0 0 0 0 0 0 0 0 0 0 0 0 0 0 0 127 0"/>
<feOffset dx="-5" dy="26"/>
<feGaussianBlur stdDeviation="17"/>
<feColorMatrix type="matrix" values="0 0 0 0 0.831373 0 0 0 0 0.882353 0 0 0 0 0.972549 0 0 0 0.43 0"/>
<feBlend mode="normal" in2="BackgroundImageFix" result="effect1_dropShadow"/>
<feBlend mode="normal" in="SourceGraphic" in2="effect1_dropShadow" result="shape"/>
</filter>
<linearGradient id="paint0_linear" x1="624.919" y1="224.286" x2="613.335" y2="148.074" gradientUnits="userSpaceOnUse">
<stop stop-color="#ECF1FF"/>
<stop offset="1" stop-color="white"/>
</linearGradient>
<linearGradient id="paint1_linear" x1="438.156" y1="299.701" x2="450.452" y2="216.702" gradientUnits="userSpaceOnUse">
<stop stop-color="#ECF1FF"/>
<stop offset="1" stop-color="white"/>
</linearGradient>
<linearGradient id="paint2_linear" x1="522.106" y1="246.282" x2="542.107" y2="152.856" gradientUnits="userSpaceOnUse">
<stop stop-color="#E6EFFF"/>
<stop offset="1" stop-color="#D6E3FA"/>
</linearGradient>
<linearGradient id="paint3_linear" x1="436.629" y1="186.644" x2="428.977" y2="283.378" gradientUnits="userSpaceOnUse">
<stop stop-color="white" stop-opacity="0.01"/>
<stop offset="1" stop-color="white" stop-opacity="0.01"/>
</linearGradient>
<linearGradient id="paint4_linear" x1="618.536" y1="291.966" x2="671.587" y2="311.9" gradientUnits="userSpaceOnUse">
<stop stop-color="#CFDDF3"/>
<stop offset="1" stop-color="#A1B8E3"/>
</linearGradient>
<linearGradient id="paint5_linear" x1="650.494" y1="328.87" x2="650.903" y2="352.318" gradientUnits="userSpaceOnUse">
<stop stop-color="#CFDDF3"/>
<stop offset="1" stop-color="#A1B8E3"/>
</linearGradient>
<linearGradient id="paint6_linear" x1="641.883" y1="315.675" x2="642.128" y2="329.711" gradientUnits="userSpaceOnUse">
<stop stop-color="#CFDDF3"/>
<stop offset="1" stop-color="#A1B8E3"/>
</linearGradient>
<linearGradient id="paint7_linear" x1="635.298" y1="291.465" x2="637.069" y2="392.967" gradientUnits="userSpaceOnUse">
<stop stop-color="#CFDDF3"/>
<stop offset="1" stop-color="#A1B8E3"/>
</linearGradient>
<linearGradient id="paint8_linear" x1="1020.2" y1="324.603" x2="1017.93" y2="476.694" gradientUnits="userSpaceOnUse">
<stop stop-color="white"/>
<stop offset="1" stop-color="#D6E3FA"/>
</linearGradient>
<linearGradient id="paint9_linear" x1="1069.71" y1="465" x2="1069.71" y2="212.169" gradientUnits="userSpaceOnUse">
<stop stop-color="white"/>
<stop offset="1" stop-color="#D6E3FA"/>
</linearGradient>
<linearGradient id="paint10_linear" x1="89.5251" y1="310.839" x2="103.922" y2="428.093" gradientUnits="userSpaceOnUse">
<stop stop-color="#CFDDF3"/>
<stop offset="1" stop-color="#A1B8E3"/>
</linearGradient>
<linearGradient id="paint11_linear" x1="81.5638" y1="243.788" x2="61.3904" y2="267.963" gradientUnits="userSpaceOnUse">
<stop stop-color="#CFDDF3"/>
<stop offset="1" stop-color="#A1B8E3"/>
</linearGradient>
<linearGradient id="paint12_linear" x1="208.644" y1="319.98" x2="196.769" y2="290.818" gradientUnits="userSpaceOnUse">
<stop stop-color="#CFDDF3"/>
<stop offset="1" stop-color="#A1B8E3"/>
</linearGradient>
<linearGradient id="paint13_linear" x1="200.726" y1="351.415" x2="190.394" y2="321.672" gradientUnits="userSpaceOnUse">
<stop stop-color="#CFDDF3"/>
<stop offset="1" stop-color="#A1B8E3"/>
</linearGradient>
<linearGradient id="paint14_linear" x1="194.995" y1="378.44" x2="184.663" y2="348.697" gradientUnits="userSpaceOnUse">
<stop stop-color="#CFDDF3"/>
<stop offset="1" stop-color="#A1B8E3"/>
</linearGradient>
<linearGradient id="paint15_linear" x1="178.419" y1="234.549" x2="147.72" y2="227.55" gradientUnits="userSpaceOnUse">
<stop stop-color="#CFDDF3"/>
<stop offset="1" stop-color="#A1B8E3"/>
</linearGradient>
<linearGradient id="paint16_linear" x1="59.8615" y1="280.117" x2="44.6716" y2="307.697" gradientUnits="userSpaceOnUse">
<stop stop-color="#CFDDF3"/>
<stop offset="1" stop-color="#A1B8E3"/>
</linearGradient>
<linearGradient id="paint17_linear" x1="47.1845" y1="314.054" x2="34.9607" y2="343.071" gradientUnits="userSpaceOnUse">
<stop stop-color="#CFDDF3"/>
<stop offset="1" stop-color="#A1B8E3"/>
</linearGradient>
<linearGradient id="paint18_linear" x1="681.079" y1="246.224" x2="745.013" y2="299.103" gradientUnits="userSpaceOnUse">
<stop stop-color="#CFDDF3"/>
<stop offset="1" stop-color="#A1B8E3"/>
</linearGradient>
<linearGradient id="paint19_linear" x1="707.727" y1="312.54" x2="697.117" y2="345.193" gradientUnits="userSpaceOnUse">
<stop stop-color="#CFDDF3"/>
<stop offset="1" stop-color="#A1B8E3"/>
</linearGradient>
<linearGradient id="paint20_linear" x1="702.096" y1="290.17" x2="695.745" y2="309.716" gradientUnits="userSpaceOnUse">
<stop stop-color="#CFDDF3"/>
<stop offset="1" stop-color="#A1B8E3"/>
</linearGradient>
<linearGradient id="paint21_linear" x1="704.519" y1="253.521" x2="658.592" y2="394.869" gradientUnits="userSpaceOnUse">
<stop stop-color="#CFDDF3"/>
<stop offset="1" stop-color="#A1B8E3"/>
</linearGradient>
<linearGradient id="paint22_linear" x1="481.12" y1="383.492" x2="258.426" y2="383.492" gradientUnits="userSpaceOnUse">
<stop stop-color="#D0DCF1"/>
<stop offset="1" stop-color="white" stop-opacity="0.01"/>
</linearGradient>
<linearGradient id="paint23_linear" x1="413.304" y1="405.682" x2="199.874" y2="405.682" gradientUnits="userSpaceOnUse">
<stop stop-color="#D0DCF1"/>
<stop offset="1" stop-color="white" stop-opacity="0.01"/>
</linearGradient>
<linearGradient id="paint24_linear" x1="291.896" y1="132.155" x2="280.632" y2="56.4026" gradientUnits="userSpaceOnUse">
<stop stop-color="#ECF1FF"/>
<stop offset="1" stop-color="white"/>
</linearGradient>
<radialGradient id="paint25_radial" cx="0" cy="0" r="1" gradientUnits="userSpaceOnUse" gradientTransform="translate(602.336 31.3943) rotate(137.865) scale(265.828 305.235)">
<stop stop-color="#EDF3FD"/>
<stop offset="0.40887" stop-color="#DCE8FB"/>
<stop offset="1" stop-color="#AEBDD8"/>
</radialGradient>
<linearGradient id="paint26_linear" x1="928.584" y1="218.904" x2="933.8" y2="100.533" gradientUnits="userSpaceOnUse">
<stop stop-color="white"/>
<stop offset="1" stop-color="#D4E1F8" stop-opacity="0.01"/>
</linearGradient>
<linearGradient id="paint27_linear" x1="524.182" y1="92.3801" x2="484.804" y2="146.208" gradientUnits="userSpaceOnUse">
<stop stop-color="#DDFFB1"/>
<stop offset="0.533766" stop-color="#5CDB8E"/>
<stop offset="1" stop-color="#19AC61"/>
</linearGradient>
<linearGradient id="paint28_linear" x1="556.015" y1="127.339" x2="541.71" y2="151.481" gradientUnits="userSpaceOnUse">
<stop stop-color="#CBDAF1"/>
<stop offset="1" stop-color="#7089B9"/>
</linearGradient>
<linearGradient id="paint29_linear" x1="587.091" y1="127.339" x2="572.786" y2="151.481" gradientUnits="userSpaceOnUse">
<stop stop-color="#CBDAF1"/>
<stop offset="1" stop-color="#7089B9"/>
</linearGradient>
<linearGradient id="paint30_linear" x1="649.373" y1="127.339" x2="635.068" y2="151.481" gradientUnits="userSpaceOnUse">
<stop stop-color="#CBDAF1"/>
<stop offset="1" stop-color="#7089B9"/>
</linearGradient>
<radialGradient id="paint31_radial" cx="0" cy="0" r="1" gradientUnits="userSpaceOnUse" gradientTransform="translate(626.553 137.596) rotate(116.777) scale(23.5631 43.8847)">
<stop stop-color="#CBDAF1"/>
<stop offset="1" stop-color="#7089B9"/>
</radialGradient>
<linearGradient id="paint32_linear" x1="616.673" y1="41.8421" x2="562.129" y2="104.429" gradientUnits="userSpaceOnUse">
<stop stop-color="#CBDAF1"/>
<stop offset="1" stop-color="#7089B9"/>
</linearGradient>
<linearGradient id="paint33_linear" x1="579.04" y1="104.473" x2="579.04" y2="61.3171" gradientUnits="userSpaceOnUse">
<stop stop-color="#FDE76B"/>
<stop offset="1" stop-color="#FAB539"/>
</linearGradient>
<linearGradient id="paint34_linear" x1="595.932" y1="101.588" x2="595.932" y2="68.5859" gradientUnits="userSpaceOnUse">
<stop stop-color="#FDE76B"/>
<stop offset="1" stop-color="#FAB539"/>
</linearGradient>
<linearGradient id="paint35_linear" x1="612.486" y1="99.3038" x2="612.486" y2="74.3409" gradientUnits="userSpaceOnUse">
<stop stop-color="#FDE76B"/>
<stop offset="1" stop-color="#FAB539"/>
</linearGradient>
<linearGradient id="paint36_linear" x1="367.8" y1="13.5889" x2="323.682" y2="70.7055" gradientUnits="userSpaceOnUse">
<stop stop-color="#CBDAF1"/>
<stop offset="1" stop-color="#7089B9"/>
</linearGradient>
<linearGradient id="paint37_linear" x1="367.8" y1="84.9248" x2="323.682" y2="142.041" gradientUnits="userSpaceOnUse">
<stop stop-color="#CBDAF1"/>
<stop offset="1" stop-color="#7089B9"/>
</linearGradient>
<linearGradient id="paint38_linear" x1="424.189" y1="84.9248" x2="380.071" y2="142.041" gradientUnits="userSpaceOnUse">
<stop stop-color="#CBDAF1"/>
<stop offset="1" stop-color="#7089B9"/>
</linearGradient>
<linearGradient id="paint39_linear" x1="429.899" y1="36.1178" x2="411.364" y2="66.8172" gradientUnits="userSpaceOnUse">
<stop stop-color="#CBDAF1"/>
<stop offset="1" stop-color="#7089B9"/>
</linearGradient>
<linearGradient id="paint40_linear" x1="429.899" y1="36.1166" x2="411.365" y2="66.816" gradientUnits="userSpaceOnUse">
<stop stop-color="#CBDAF1"/>
<stop offset="1" stop-color="#7089B9"/>
</linearGradient>
<linearGradient id="paint41_linear" x1="539.759" y1="42.1809" x2="485.216" y2="104.767" gradientUnits="userSpaceOnUse">
<stop stop-color="#CBDAF1"/>
<stop offset="1" stop-color="#7089B9"/>
</linearGradient>
<linearGradient id="paint42_linear" x1="288.069" y1="412.315" x2="288.069" y2="422.112" gradientUnits="userSpaceOnUse">
<stop stop-color="#003F9B"/>
<stop offset="1" stop-color="#3D82F0"/>
</linearGradient>
<linearGradient id="paint43_linear" x1="343.177" y1="380.884" x2="343.177" y2="395.579" gradientUnits="userSpaceOnUse">
<stop stop-color="#003F9B"/>
<stop offset="1" stop-color="#3D82F0"/>
</linearGradient>
<linearGradient id="paint44_linear" x1="305.537" y1="350.68" x2="335.754" y2="366.512" gradientUnits="userSpaceOnUse">
<stop stop-color="#6A89BB"/>
<stop offset="1" stop-color="#839ED6"/>
</linearGradient>
<linearGradient id="paint45_linear" x1="375.501" y1="185.933" x2="291.931" y2="190.955" gradientUnits="userSpaceOnUse">
<stop stop-color="#CFDDF3"/>
<stop offset="1" stop-color="#A1B8E3"/>
</linearGradient>
<linearGradient id="paint46_linear" x1="332.406" y1="280.427" x2="332.182" y2="274.368" gradientUnits="userSpaceOnUse">
<stop stop-color="#CFDDF3" stop-opacity="0.477723"/>
<stop offset="1" stop-color="#A1B8E3"/>
</linearGradient>
<linearGradient id="paint47_linear" x1="303.245" y1="287.339" x2="295.216" y2="289.793" gradientUnits="userSpaceOnUse">
<stop stop-color="#CFDDF3" stop-opacity="0.174423"/>
<stop offset="1" stop-color="#5477B8"/>
</linearGradient>
<radialGradient id="paint48_radial" cx="0" cy="0" r="1" gradientUnits="userSpaceOnUse" gradientTransform="translate(334.241 414.507) rotate(20.6826) scale(13.1513 39.0068)">
<stop stop-color="#47689B"/>
<stop offset="1" stop-color="#223762"/>
</radialGradient>
<radialGradient id="paint49_radial" cx="0" cy="0" r="1" gradientUnits="userSpaceOnUse" gradientTransform="translate(263.985 427.011) rotate(60.0047) scale(13.4994 40.6054)">
<stop stop-color="#47689B"/>
<stop offset="1" stop-color="#223762"/>
</radialGradient>
<linearGradient id="paint50_linear" x1="246.131" y1="188.532" x2="271.295" y2="188.532" gradientUnits="userSpaceOnUse">
<stop stop-color="#70B8F9"/>
<stop offset="1" stop-color="#3D82F0"/>
</linearGradient>
<linearGradient id="paint51_linear" x1="224.875" y1="210.856" x2="219.144" y2="215.315" gradientUnits="userSpaceOnUse">
<stop stop-color="#2F71DA"/>
<stop offset="1" stop-color="#3D82F0"/>
</linearGradient>
<linearGradient id="paint52_linear" x1="230.047" y1="215.333" x2="230.047" y2="188.723" gradientUnits="userSpaceOnUse">
<stop stop-color="#EDF3FD"/>
<stop offset="1" stop-color="white"/>
</linearGradient>
<linearGradient id="paint53_linear" x1="222.83" y1="202.175" x2="222.83" y2="218.078" gradientUnits="userSpaceOnUse">
<stop stop-color="#70B8F9"/>
<stop offset="1" stop-color="#3D82F0"/>
</linearGradient>
<linearGradient id="paint54_linear" x1="269.676" y1="228.113" x2="287.817" y2="223.291" gradientUnits="userSpaceOnUse">
<stop stop-color="#CFDDF3"/>
<stop offset="1" stop-color="#A1B8E3"/>
</linearGradient>
<linearGradient id="paint55_linear" x1="288.818" y1="284.191" x2="332.216" y2="265.719" gradientUnits="userSpaceOnUse">
<stop stop-color="#EDF3FD"/>
<stop offset="1" stop-color="#D6E3FA"/>
</linearGradient>
<linearGradient id="paint56_linear" x1="299.383" y1="314.786" x2="319.425" y2="312.644" gradientUnits="userSpaceOnUse">
<stop stop-color="#D1DEF3" stop-opacity="0.126387"/>
<stop offset="1" stop-color="#A4BAE4"/>
</linearGradient>
<radialGradient id="paint57_radial" cx="0" cy="0" r="1" gradientUnits="userSpaceOnUse" gradientTransform="translate(274.709 127) rotate(90) scale(19.3664 55.8962)">
<stop stop-color="#47689B"/>
<stop offset="1" stop-color="#223762"/>
</radialGradient>
<linearGradient id="paint58_linear" x1="319.246" y1="250.109" x2="301.096" y2="249.765" gradientUnits="userSpaceOnUse">
<stop stop-color="#0060C9"/>
<stop offset="1" stop-color="#3D82F0"/>
</linearGradient>
<linearGradient id="paint59_linear" x1="307.719" y1="250.091" x2="331.938" y2="237.898" gradientUnits="userSpaceOnUse">
<stop stop-color="#E3EDFE"/>
<stop offset="1" stop-color="#B8C8E6"/>
</linearGradient>
<linearGradient id="paint60_linear" x1="292.999" y1="210.957" x2="279.846" y2="212.231" gradientUnits="userSpaceOnUse">
<stop stop-color="#D2DFF5" stop-opacity="0.542714"/>
<stop offset="1" stop-color="#C5D5F5"/>
</linearGradient>
<linearGradient id="paint61_linear" x1="214.184" y1="167.802" x2="214.184" y2="178.823" gradientUnits="userSpaceOnUse">
<stop stop-color="#FFB417"/>
<stop offset="1" stop-color="#FECC4C"/>
</linearGradient>
<linearGradient id="paint62_linear" x1="222.756" y1="167.8" x2="222.756" y2="178.822" gradientUnits="userSpaceOnUse">
<stop stop-color="#FFB417"/>
<stop offset="1" stop-color="#FECC4C"/>
</linearGradient>
<linearGradient id="paint63_linear" x1="226.838" y1="177.189" x2="226.838" y2="184.537" gradientUnits="userSpaceOnUse">
<stop stop-color="#FFB417"/>
<stop offset="1" stop-color="#FECC4C"/>
</linearGradient>
<linearGradient id="paint64_linear" x1="245.648" y1="154.882" x2="200.975" y2="195.992" gradientUnits="userSpaceOnUse">
<stop stop-color="white" stop-opacity="0.01"/>
<stop offset="1" stop-color="#4C9CFE"/>
</linearGradient>
</defs>
</svg>
