<svg width="670" height="268" viewBox="0 0 670 268" fill="none" xmlns="http://www.w3.org/2000/svg">
<mask id="mask0" mask-type="alpha" maskUnits="userSpaceOnUse" x="0" y="0" width="670" height="268">
<rect width="670" height="268" fill="#C4C4C4"/>
</mask>
<g mask="url(#mask0)">
<path d="M631.269 95.985C625.292 94.9201 623.404 109.056 621.092 111.107C618.785 113.14 614.09 112.611 613.16 118.216C612.229 123.822 616.601 124.879 615.824 129.534C615.047 134.19 605.499 130.815 604.288 138.168C603.078 145.521 609.95 149.826 609.213 154.254C608.476 158.681 604.284 159.299 602.662 169.1C601.04 178.901 608.043 183.013 619.096 187.08C630.148 191.146 638.071 189.954 639.906 179.411C641.741 168.867 629.669 165.724 629.798 159.687C629.922 153.669 638.387 152.803 639.556 146.035C640.725 139.268 629.218 136.295 630.139 130.886C631.06 125.476 640.819 125.18 641.786 119.563C642.754 113.947 640.717 112.485 636.972 109.383C633.218 106.316 637.245 97.0499 631.269 95.985Z" fill="url(#paint0_linear)"/>
<path d="M619.439 181.892C619.656 182.035 619.911 181.934 620.009 181.666C620.107 181.398 620.011 181.065 619.794 180.922C614.583 177.507 612.504 173.02 613.462 167.312C613.51 167.024 613.36 166.728 613.125 166.651C612.891 166.574 612.662 166.744 612.614 167.031C611.571 173.252 613.882 178.238 619.439 181.892Z" fill="#98BBE9"/>
<path d="M622.654 158.245C622.896 158.294 623.102 158.091 623.112 157.793C623.122 157.495 622.934 157.215 622.691 157.167C618.757 156.386 616.152 153.11 614.811 147.249C614.744 146.957 614.499 146.76 614.265 146.807C614.03 146.855 613.895 147.13 613.962 147.421C615.403 153.709 618.314 157.375 622.654 158.245Z" fill="#98BBE9"/>
<path d="M623.535 125.716C623.703 125.739 623.845 125.597 623.852 125.399C623.858 125.201 623.727 125.022 623.559 125C621.527 124.731 620.183 123.185 619.487 120.29C619.44 120.097 619.271 119.974 619.108 120.015C618.946 120.055 618.852 120.244 618.899 120.437C619.664 123.615 621.22 125.407 623.535 125.716Z" fill="#98BBE9"/>
<path d="M624.783 122.157C624.62 122.101 624.535 121.905 624.593 121.719C624.652 121.533 624.831 121.428 624.994 121.483C626.96 122.155 628.707 121.317 630.3 118.899C630.407 118.737 630.604 118.695 630.741 118.805C630.878 118.915 630.903 119.136 630.796 119.298C629.046 121.956 627.022 122.925 624.783 122.157Z" fill="#98BBE9"/>
<path d="M622.978 150.995C622.744 150.902 622.624 150.604 622.711 150.33C622.798 150.057 623.058 149.91 623.293 150.003C626.762 151.38 629.884 149.959 632.758 145.622C632.915 145.384 633.201 145.331 633.397 145.503C633.593 145.675 633.625 146.008 633.468 146.246C630.361 150.937 626.839 152.536 622.978 150.995Z" fill="#98BBE9"/>
<path d="M622.854 176.941C622.623 176.836 622.507 176.528 622.594 176.254C622.681 175.98 622.939 175.842 623.169 175.947C626.589 177.497 629.679 176.191 632.536 171.912C632.692 171.678 632.975 171.636 633.167 171.82C633.36 172.003 633.39 172.342 633.233 172.577C630.145 177.205 626.66 178.675 622.854 176.941Z" fill="#98BBE9"/>
<path d="M615.768 201.334C615.702 201.72 615.901 202.135 616.211 202.26C616.521 202.384 617.248 202.34 617.314 201.953C617.266 199.416 617.594 196.059 618.3 191.878C619.359 185.608 624.171 176.211 624.756 169.048C625.335 161.902 621.601 146.993 621.82 136.2C621.986 127.465 625.596 120.449 627.244 115.596C628.897 110.727 629.516 104.617 629.409 104.596C629.281 104.571 628.619 110.83 626.918 115.524C625.221 120.202 622.161 126.147 621.248 133.403C619.541 146.932 624.595 160.743 623.086 169.615C621.576 178.487 618.217 183.169 616.532 190.837C615.411 195.944 615.157 199.44 615.768 201.334Z" fill="#8FAFDA"/>
<g filter="url(#filter0_i)">
<path d="M587.7 101.605C593.474 99.84 597.335 114.096 599.941 115.994C602.547 117.893 607.203 116.997 608.953 122.722C610.703 128.447 606.406 129.761 607.847 134.475C609.288 139.188 618.594 135.393 620.915 142.984C623.235 150.575 616.708 155.01 618.085 159.514C619.462 164.018 623.937 164.72 627.01 174.77C630.083 184.821 623.177 188.555 611.944 191.989C600.712 195.423 592.218 193.996 589.146 183.946C586.073 173.896 598.254 170.847 597.392 164.951C596.53 159.056 587.707 158.399 585.712 151.877C583.718 145.354 595.08 141.881 593.45 136.551C591.821 131.222 581.926 131.603 580.264 126.166C578.602 120.73 580.456 119.099 583.803 115.667C587.15 112.234 581.926 103.371 587.7 101.605Z" fill="url(#paint1_linear)"/>
</g>
<path d="M610.945 186.886C610.733 187.018 610.451 186.908 610.315 186.641C610.178 186.374 610.239 186.051 610.45 185.919C615.529 182.75 617.145 178.358 615.392 172.622C615.303 172.333 615.423 172.041 615.658 171.969C615.894 171.897 616.157 172.072 616.245 172.361C618.16 178.623 616.362 183.505 610.945 186.886Z" fill="#5ACE87"/>
<path d="M604.412 163.699C604.166 163.759 603.937 163.568 603.9 163.273C603.864 162.978 604.035 162.69 604.281 162.63C608.276 161.658 610.672 158.242 611.514 152.251C611.556 151.951 611.79 151.737 612.035 151.771C612.281 151.806 612.446 152.076 612.404 152.376C611.5 158.808 608.821 162.626 604.412 163.699Z" fill="#5ACE87"/>
<path d="M599.364 131.104C599.196 131.144 599.039 131.015 599.014 130.816C598.989 130.616 599.105 130.422 599.274 130.382C601.303 129.896 602.516 128.185 602.941 125.159C602.969 124.957 603.128 124.812 603.296 124.836C603.464 124.859 603.576 125.042 603.548 125.244C603.081 128.568 601.676 130.551 599.364 131.104Z" fill="#5ACE87"/>
<path d="M597.886 127.509C598.048 127.448 598.105 127.253 598.015 127.074C597.924 126.895 597.719 126.799 597.557 126.859C595.603 127.592 593.641 126.851 591.596 124.58C591.46 124.429 591.247 124.398 591.121 124.511C590.995 124.624 591.004 124.839 591.141 124.99C593.387 127.485 595.66 128.343 597.886 127.509Z" fill="#5ACE87"/>
<path d="M603.634 156.344C603.871 156.257 603.953 155.972 603.818 155.708C603.683 155.443 603.381 155.3 603.144 155.387C599.637 156.678 596.085 155.308 592.38 151.193C592.178 150.969 591.866 150.921 591.683 151.086C591.5 151.25 591.515 151.566 591.717 151.79C595.72 156.236 599.729 157.782 603.634 156.344Z" fill="#5ACE87"/>
<path d="M607.007 181.954C607.244 181.867 607.326 181.582 607.191 181.317C607.056 181.053 606.754 180.909 606.517 180.996C603.01 182.287 599.458 180.917 595.753 176.803C595.551 176.578 595.239 176.53 595.056 176.695C594.873 176.86 594.888 177.175 595.09 177.4C599.093 181.845 603.102 183.391 607.007 181.954Z" fill="#5ACE87"/>
<path d="M617.222 206.141C617.339 206.524 617.176 206.913 616.858 207.011C616.54 207.108 615.755 207.009 615.638 206.626C615.638 206.626 615.26 202.923 613.373 196.729C611.486 190.534 605.266 181.161 603.782 174.136C602.298 167.11 604.272 152.287 602.626 141.475C601.287 132.678 596.684 125.817 594.371 121.043C592.058 116.27 590.614 110.157 590.718 110.125C590.842 110.087 592.35 116.35 594.69 120.946C597.029 125.541 600.93 131.355 602.838 138.635C606.388 152.188 602.924 165.969 605.598 174.717C608.273 183.465 612.396 188.192 615.129 195.813C617.861 203.434 617.222 206.141 617.222 206.141Z" fill="#42B16D"/>
<path d="M656.571 121.996C651.24 119.162 645.744 130.512 643 131.545C640.257 132.579 635.892 130.746 633.493 135.258C631.094 139.771 635.062 141.881 633.086 145.596C631.111 149.311 622.638 143.927 619.456 149.911C616.275 155.894 621.997 161.191 620.109 164.741C618.222 168.291 613.83 167.871 609.618 175.793C605.407 183.714 611.58 188.497 621.95 194.011C632.321 199.525 640.666 200.243 644.878 192.321C649.09 184.4 637.759 178.999 639.326 174.137C640.892 169.275 649.459 170.729 652.192 165.588C654.926 160.447 644.436 154.869 646.67 150.668C648.903 146.468 658.37 149.056 660.648 144.771C662.927 140.486 661.347 138.663 658.559 134.953C655.77 131.243 661.902 124.831 656.571 121.996Z" fill="url(#paint2_linear)"/>
<path d="M623.55 189.86C623.736 190.022 624.021 189.992 624.186 189.794C624.351 189.597 624.333 189.305 624.146 189.144C619.659 185.264 618.654 181.126 621.058 176.605C621.179 176.377 621.101 176.098 620.883 175.983C620.666 175.867 620.391 175.958 620.27 176.186C617.646 181.121 618.763 185.721 623.55 189.86Z" fill="#D2DEF8"/>
<path d="M632.464 171.114C632.695 171.206 632.956 171.086 633.045 170.845C633.135 170.604 633.02 170.334 632.789 170.242C629.041 168.748 627.312 165.48 627.583 160.322C627.596 160.064 627.406 159.845 627.159 159.832C626.911 159.819 626.699 160.017 626.686 160.275C626.396 165.813 628.328 169.465 632.464 171.114Z" fill="#D2DEF8"/>
<path d="M641.522 144.464C641.68 144.527 641.857 144.445 641.918 144.283C641.979 144.12 641.901 143.938 641.743 143.876C639.838 143.123 638.96 141.484 639.096 138.879C639.105 138.705 638.975 138.557 638.806 138.548C638.637 138.539 638.493 138.673 638.484 138.847C638.334 141.708 639.351 143.607 641.522 144.464Z" fill="#D2DEF8"/>
<path d="M643.761 141.913C643.621 141.817 643.589 141.624 643.69 141.483C643.79 141.341 643.985 141.304 644.125 141.4C645.814 142.559 647.664 142.371 649.748 140.801C649.887 140.696 650.082 140.72 650.184 140.856C650.286 140.991 650.256 141.186 650.117 141.29C647.828 143.015 645.686 143.233 643.761 141.913Z" fill="#D2DEF8"/>
<path d="M634.801 165.354C634.596 165.215 634.551 164.933 634.701 164.725C634.85 164.516 635.138 164.46 635.343 164.599C638.377 166.658 641.729 166.29 645.504 163.445C645.709 163.29 645.996 163.324 646.145 163.521C646.293 163.717 646.246 164.003 646.04 164.158C641.962 167.231 638.18 167.646 634.801 165.354Z" fill="#D2DEF8"/>
<path d="M628.352 186.558C628.148 186.42 628.103 186.138 628.253 185.929C628.402 185.721 628.69 185.665 628.894 185.804C631.929 187.862 635.28 187.494 639.055 184.65C639.261 184.495 639.548 184.528 639.696 184.725C639.845 184.922 639.798 185.207 639.592 185.362C635.514 188.436 631.731 188.851 628.352 186.558Z" fill="#D2DEF8"/>
<path d="M615.104 204.949C614.943 205.25 615.051 205.621 615.345 205.778C615.639 205.934 616.406 206.028 616.566 205.726C616.566 205.726 617.393 202.636 619.982 197.752C622.572 192.868 629.725 186.247 632.031 180.557C634.337 174.868 634.294 161.698 637.229 152.796C639.618 145.553 644.902 140.718 647.724 137.151C650.545 133.583 652.698 128.667 652.602 128.617C652.487 128.556 650.254 133.586 647.429 136.994C644.605 140.403 640.126 144.5 637.381 150.311C632.272 161.128 633.878 173.745 630.212 180.641C626.546 187.536 621.989 190.649 618.409 196.564C614.828 202.48 615.104 204.949 615.104 204.949Z" fill="#D2DEF8"/>
<path d="M598.309 199.1H634.099L626.145 222.516H606.262L598.309 199.1Z" fill="url(#paint3_linear)"/>
<path d="M597.592 200.307C597.592 199.236 598.46 198.369 599.53 198.369H632.159C633.23 198.369 634.098 199.236 634.098 200.307V203.748C634.098 204.818 633.23 205.686 632.159 205.686H599.53C598.46 205.686 597.592 204.818 597.592 203.748V200.307Z" fill="url(#paint4_linear)"/>
<path d="M173 7.53809H443.294V193.477H173V7.53809Z" fill="url(#paint5_radial)"/>
<path d="M190.949 49.8952C190.949 47.9128 192.556 46.3057 194.539 46.3057H252.331C254.313 46.3057 255.92 47.9128 255.92 49.8952V108.405C255.92 110.388 254.313 111.995 252.331 111.995H194.539C192.556 111.995 190.949 110.388 190.949 108.405V49.8952Z" fill="#7E9ACA" fill-opacity="0.3"/>
<path d="M188.794 47.7412C188.794 45.7587 190.401 44.1516 192.384 44.1516H250.175C252.158 44.1516 253.765 45.7587 253.765 47.7412V106.251C253.765 108.233 252.158 109.841 250.175 109.841H192.384C190.401 109.841 188.794 108.233 188.794 106.251V47.7412Z" fill="white"/>
<path d="M221.281 178.401C238.033 178.401 251.613 164.821 251.613 148.07C251.613 131.318 238.033 117.738 221.281 117.738C204.529 117.738 190.949 131.318 190.949 148.07C190.949 164.821 204.529 178.401 221.281 178.401Z" fill="#A0B3D4"/>
<path d="M220.025 175.889C236.083 175.889 249.1 162.871 249.1 146.813C249.1 130.755 236.083 117.738 220.025 117.738C203.967 117.738 190.949 130.755 190.949 146.813C190.949 162.871 203.967 175.889 220.025 175.889Z" fill="white"/>
<path d="M220.023 117.738C232.905 117.738 243.83 126.115 247.648 137.719L220.023 148.249V117.738H220.023Z" fill="#CFDDF2"/>
<path d="M314.788 68.9193C314.788 67.9281 315.592 67.1245 316.583 67.1245H327.352C328.343 67.1245 329.146 67.9281 329.146 68.9193V86.8671C329.146 87.8583 328.343 88.6619 327.352 88.6619H316.583C315.592 88.6619 314.788 87.8583 314.788 86.8671V68.9193Z" fill="url(#paint6_linear)"/>
<path d="M350.683 61.7401C350.683 60.7489 351.486 59.9453 352.477 59.9453H363.246C364.237 59.9453 365.041 60.7489 365.041 61.7401V86.867C365.041 87.8582 364.237 88.6618 363.246 88.6618H352.477C351.486 88.6618 350.683 87.8582 350.683 86.867V61.7401Z" fill="url(#paint7_linear)"/>
<path d="M368.632 79.6881C368.632 78.6969 369.435 77.8933 370.427 77.8933H381.195C382.187 77.8933 382.99 78.6969 382.99 79.6881V86.8672C382.99 87.8584 382.187 88.662 381.195 88.662H370.427C369.435 88.662 368.632 87.8584 368.632 86.8672V79.6881Z" fill="url(#paint8_linear)"/>
<path d="M386.938 68.9193C386.938 67.9281 387.741 67.1245 388.732 67.1245H399.501C400.492 67.1245 401.296 67.9281 401.296 68.9193V86.8671C401.296 87.8583 400.492 88.6619 399.501 88.6619H388.732C387.741 88.6619 386.938 87.8583 386.938 86.8671V68.9193Z" fill="url(#paint9_linear)"/>
<path d="M404.886 58.1507C404.886 57.1595 405.689 56.356 406.681 56.356H417.449C418.44 56.356 419.244 57.1595 419.244 58.1507V86.8672C419.244 87.8585 418.44 88.662 417.449 88.662H406.681C405.689 88.662 404.886 87.8585 404.886 86.8672V58.1507Z" fill="url(#paint10_linear)"/>
<path d="M332.737 50.9715C332.737 49.9803 333.541 49.1768 334.532 49.1768H345.301C346.292 49.1768 347.096 49.9803 347.096 50.9715V86.8671C347.096 87.8584 346.292 88.6619 345.301 88.6619H334.532C333.541 88.6619 332.737 87.8584 332.737 86.8671V50.9715Z" fill="url(#paint11_linear)"/>
<path d="M312.633 99.7899C312.633 98.7987 313.436 97.9951 314.428 97.9951H427.499C428.49 97.9951 429.294 98.7987 429.294 99.7899V179.478H314.428C313.436 179.478 312.633 178.675 312.633 177.683V99.7899Z" fill="url(#paint12_linear)" fill-opacity="0.5"/>
<path d="M310.48 97.6361C310.48 96.6449 311.284 95.8413 312.275 95.8413H425.346C426.338 95.8413 427.141 96.6449 427.141 97.6361V177.324H312.275C311.284 177.324 310.48 176.521 310.48 175.53V97.6361Z" fill="url(#paint13_linear)"/>
<path d="M268.124 55.9969C268.124 55.0057 268.928 54.2021 269.919 54.2021H287.149C288.14 54.2021 288.943 55.0057 288.943 55.9969V73.2268C288.943 74.2181 288.14 75.0216 287.149 75.0216H269.919C268.928 75.0216 268.124 74.2181 268.124 73.2268V55.9969Z" fill="#A0B3D4"/>
<path d="M268.124 87.5853C268.124 86.5941 268.928 85.7905 269.919 85.7905H287.149C288.14 85.7905 288.943 86.5941 288.943 87.5853V104.815C288.943 105.806 288.14 106.61 287.149 106.61H269.919C268.928 106.61 268.124 105.806 268.124 104.815V87.5853Z" fill="#A0B3D4"/>
<path d="M268.124 119.173C268.124 118.182 268.928 117.379 269.919 117.379H287.149C288.14 117.379 288.943 118.182 288.943 119.173V136.403C288.943 137.395 288.14 138.198 287.149 138.198H269.919C268.928 138.198 268.124 137.395 268.124 136.403V119.173Z" fill="#A0B3D4"/>
<path d="M268.124 150.761C268.124 149.77 268.928 148.967 269.919 148.967H287.149C288.14 148.967 288.943 149.77 288.943 150.761V167.991C288.943 168.982 288.14 169.786 287.149 169.786H269.919C268.928 169.786 268.124 168.982 268.124 167.991V150.761Z" fill="#A0B3D4"/>
<path d="M266.688 54.5616C266.688 53.5704 267.491 52.7668 268.482 52.7668H285.712C286.703 52.7668 287.507 53.5704 287.507 54.5616V71.7915C287.507 72.7827 286.703 73.5863 285.712 73.5863H268.482C267.491 73.5863 266.688 72.7827 266.688 71.7915V54.5616Z" fill="white"/>
<path d="M266.687 86.1498C266.687 85.1585 267.49 84.355 268.481 84.355H285.711C286.702 84.355 287.506 85.1585 287.506 86.1498V103.38C287.506 104.371 286.702 105.174 285.711 105.174H268.481C267.49 105.174 266.687 104.371 266.687 103.38V86.1498Z" fill="white"/>
<path d="M266.687 117.738C266.687 116.746 267.49 115.943 268.481 115.943H285.711C286.702 115.943 287.506 116.746 287.506 117.738V134.968C287.506 135.959 286.702 136.762 285.711 136.762H268.481C267.49 136.762 266.687 135.959 266.687 134.968V117.738Z" fill="white"/>
<path d="M266.687 149.326C266.687 148.335 267.49 147.531 268.481 147.531H285.711C286.702 147.531 287.506 148.335 287.506 149.326V166.556C287.506 167.547 286.702 168.351 285.711 168.351H268.481C267.49 168.351 266.687 167.547 266.687 166.556V149.326Z" fill="white"/>
<path d="M173 5.38434C173 2.41065 175.411 0 178.384 0H437.91C440.883 0 443.294 2.41065 443.294 5.38434V28.3575H173V5.38434Z" fill="url(#paint14_linear)"/>
<path d="M186.461 18.6665C188.939 18.6665 190.948 16.6577 190.948 14.1796C190.948 11.7015 188.939 9.69263 186.461 9.69263C183.983 9.69263 181.974 11.7015 181.974 14.1796C181.974 16.6577 183.983 18.6665 186.461 18.6665Z" fill="white"/>
<path d="M200.46 18.6658C202.938 18.6658 204.947 16.6569 204.947 14.1788C204.947 11.7008 202.938 9.69189 200.46 9.69189C197.982 9.69189 195.973 11.7008 195.973 14.1788C195.973 16.6569 197.982 18.6658 200.46 18.6658Z" fill="white"/>
<path d="M214.46 18.6658C216.938 18.6658 218.947 16.6569 218.947 14.1788C218.947 11.7008 216.938 9.69189 214.46 9.69189C211.982 9.69189 209.973 11.7008 209.973 14.1788C209.973 16.6569 211.982 18.6658 214.46 18.6658Z" fill="white"/>
<path fill-rule="evenodd" clip-rule="evenodd" d="M418.013 109.841H321.248V109.123H418.013V109.841Z" fill="#A0B3D4"/>
<path fill-rule="evenodd" clip-rule="evenodd" d="M418.013 121.327H321.248V120.609H418.013V121.327Z" fill="#A0B3D4"/>
<path fill-rule="evenodd" clip-rule="evenodd" d="M418.013 132.814H321.248V132.096H418.013V132.814Z" fill="#A0B3D4"/>
<path fill-rule="evenodd" clip-rule="evenodd" d="M418.013 144.3H321.248V143.583H418.013V144.3Z" fill="#A0B3D4"/>
<path fill-rule="evenodd" clip-rule="evenodd" d="M418.013 155.787H321.248V155.069H418.013V155.787Z" fill="#A0B3D4"/>
<path fill-rule="evenodd" clip-rule="evenodd" d="M418.013 167.274H321.248V166.556H418.013V167.274Z" fill="#A0B3D4"/>
<path d="M319.033 160.886C318.834 161.229 318.395 161.346 318.052 161.147C317.709 160.948 317.592 160.508 317.791 160.165L332.314 135.14C333.309 133.425 335.505 132.842 337.22 133.837C337.517 134.009 337.787 134.222 338.023 134.471L350.386 147.507C351.204 148.37 352.567 148.406 353.43 147.588C353.51 147.512 353.584 147.431 353.651 147.344L377.309 116.806C378.523 115.239 380.778 114.953 382.345 116.167C382.661 116.412 382.934 116.708 383.153 117.043L394.444 134.35C395.094 135.346 396.428 135.627 397.424 134.977C397.651 134.829 397.848 134.639 398.004 134.419L418.068 106.119C418.297 105.796 418.745 105.72 419.068 105.949C419.392 106.178 419.468 106.626 419.239 106.95L399.176 135.249C398.915 135.617 398.587 135.933 398.209 136.179C396.548 137.263 394.324 136.795 393.241 135.134L381.95 117.828C381.819 117.627 381.655 117.449 381.466 117.302C380.525 116.573 379.173 116.745 378.444 117.686L354.786 148.223C354.674 148.368 354.551 148.504 354.419 148.63C352.98 149.994 350.708 149.934 349.344 148.495L336.981 135.459C336.84 135.31 336.677 135.182 336.499 135.079C335.471 134.481 334.153 134.832 333.556 135.86L319.033 160.886Z" fill="#FFD25F"/>
<path d="M318.862 161.085C318.553 161.334 318.101 161.285 317.853 160.976C317.604 160.667 317.653 160.215 317.962 159.967L348.164 135.673C349.392 134.686 351.12 134.614 352.425 135.497L365.504 144.343C366.368 144.927 367.526 144.809 368.253 144.062L380.802 131.19C382.15 129.807 384.351 129.739 385.783 131.036L400.083 143.996C400.907 144.742 402.162 144.74 402.982 143.991L419.201 129.178C419.494 128.911 419.948 128.931 420.215 129.224C420.483 129.517 420.462 129.971 420.169 130.238L403.951 145.051C402.583 146.3 400.491 146.304 399.119 145.06L384.818 132.1C383.96 131.321 382.639 131.362 381.83 132.192L369.281 145.065C368.069 146.309 366.139 146.506 364.7 145.532L351.621 136.686C350.838 136.157 349.801 136.2 349.064 136.792L318.862 161.085Z" fill="url(#paint15_linear)"/>
<path fill-rule="evenodd" clip-rule="evenodd" d="M445.182 185.621H454.376L446.997 255.08C446.945 255.566 446.534 255.936 446.044 255.936C445.568 255.936 445.182 255.55 445.182 255.075V185.621ZM446.331 186.769V250.466L453.098 186.769H446.331Z" fill="url(#paint16_linear)"/>
<path fill-rule="evenodd" clip-rule="evenodd" d="M572.174 185.621H562.98L570.36 255.08C570.411 255.566 570.822 255.936 571.312 255.936C571.789 255.936 572.174 255.55 572.174 255.075V185.621ZM571.025 186.769V250.466L564.258 186.769H571.025Z" fill="url(#paint17_linear)"/>
<path d="M438 180.196H579.07V185.936H438V180.196Z" fill="url(#paint18_linear)"/>
<g filter="url(#filter1_i)">
<path d="M462.41 160.095H463.486V156.146C463.486 154.957 464.451 153.992 465.64 153.992C466.83 153.992 467.794 154.957 467.794 156.146V162.248C467.794 163.438 466.83 164.402 465.64 164.402C465.518 164.402 465.398 164.392 465.281 164.372C465.165 164.392 465.045 164.402 464.922 164.402H462.41V170.145H455.23V154.71C455.23 152.728 456.838 151.121 458.82 151.121C460.802 151.121 462.41 152.728 462.41 154.71V160.095Z" fill="url(#paint19_linear)"/>
</g>
<mask id="mask1" mask-type="alpha" maskUnits="userSpaceOnUse" x="455" y="151" width="13" height="20">
<path d="M462.41 160.095H463.486V156.146C463.486 154.957 464.451 153.992 465.64 153.992C466.83 153.992 467.794 154.957 467.794 156.146V162.248C467.794 163.438 466.83 164.402 465.64 164.402C465.518 164.402 465.398 164.392 465.281 164.372C465.165 164.392 465.045 164.402 464.922 164.402H462.41V170.145H455.23V154.71C455.23 152.728 456.838 151.121 458.82 151.121C460.802 151.121 462.41 152.728 462.41 154.71V160.095Z" fill="white"/>
</mask>
<g mask="url(#mask1)">
<path fill-rule="evenodd" clip-rule="evenodd" d="M455.589 150.044H455.23V172.581H455.589V150.044ZM456.666 150.044H456.307V172.581H456.666V150.044ZM457.384 150.044H457.743V172.581H457.384V150.044ZM458.82 150.044H458.461V172.581H458.82V150.044ZM459.538 150.044H459.897V172.581H459.538V150.044ZM460.974 150.044H460.615V172.581H460.974V150.044ZM461.692 150.044H462.051V172.581H461.692V150.044ZM463.128 150.044H462.769V172.581H463.128V150.044ZM463.845 150.044H464.204V172.581H463.845V150.044ZM465.281 150.044H464.922V172.581H465.281V150.044ZM465.999 150.044H466.358V172.581H465.999V150.044ZM467.435 150.044H467.076V172.581H467.435V150.044Z" fill="#42B16D"/>
</g>
<path d="M450.203 167.633H468.151L464.163 179.119H454.192L450.203 167.633Z" fill="url(#paint20_linear)"/>
<path d="M449.846 167.992C449.846 167.595 450.167 167.274 450.564 167.274H467.435C467.831 167.274 468.152 167.595 468.152 167.992V170.145C468.152 170.542 467.831 170.863 467.435 170.863H450.564C450.167 170.863 449.846 170.542 449.846 170.145V167.992Z" fill="url(#paint21_linear)"/>
<path d="M502.41 169.068H518.212V180.196H502.41V169.068Z" fill="url(#paint22_linear)"/>
<path d="M474.254 128.937C474.254 128.302 474.768 127.788 475.403 127.788H544.646C545.28 127.788 545.794 128.302 545.794 128.937V168.254C545.794 168.889 545.28 169.403 544.646 169.403H475.403C474.768 169.403 474.254 168.889 474.254 168.254V128.937Z" fill="url(#paint23_linear)"/>
<path d="M477.127 130.658H542.921V166.533H477.127V130.658Z" fill="url(#paint24_linear)"/>
<path d="M123.915 201.422C117.842 210.48 64.9169 211.784 64.9169 211.784H47.8981L58.7211 188.677L89.9456 174.453C89.9456 174.453 129.988 192.365 123.915 201.422Z" fill="#255FBD"/>
<path fill-rule="evenodd" clip-rule="evenodd" d="M91.1023 81.4091C94.0918 82.7749 95.5389 83.3354 95.4438 83.0906C95.1248 82.2694 86.1101 79.2133 85.7506 77.107C85.5332 75.8328 85.5332 74.417 85.7506 72.8594L78.0416 77.7433C78.7384 80.6554 78.5333 83.0634 77.4261 84.9673C76.319 86.8713 74.1426 88.5588 70.8969 90.0298C79.8672 97.8041 86.3995 101.93 90.4938 102.408C96.6352 103.124 95.9831 98.2332 91.1171 91.0396C87.8731 86.2439 87.8682 83.0337 91.1023 81.4091Z" fill="url(#paint25_linear)"/>
<path d="M77.5054 54.961C66.4108 72.0117 64.5107 73.7131 65.6556 79.1564C68.0096 90.3481 100.678 101.897 104.619 92.1825C108.559 82.4683 99.5275 87.511 99.9634 79.1564C100.123 76.0925 103.549 69.4294 110.241 59.1673C93.6277 48.3557 82.7157 46.9536 77.5054 54.961Z" fill="url(#paint26_linear)"/>
<path d="M103.709 57.7278L100.89 57.6791C95.6708 56.5633 90.6137 57.3449 85.7184 60.024C80.823 62.703 78.8271 65.7812 79.7305 69.2587L77.6984 77.7189C78.3983 80.6428 78.1947 83.06 77.0878 84.9704C75.9808 86.8808 73.8031 88.5731 70.5547 90.0474C79.5416 97.8587 86.0849 102.006 90.1844 102.488C96.3337 103.212 95.677 98.3019 90.7997 91.0767C87.5481 86.2599 87.5407 83.0373 90.7774 81.4089C93.8364 82.8173 95.774 83.5767 96.5905 83.6873C97.7008 83.8377 101.044 79.22 103.371 73.6891C103.61 73.12 105.529 71.235 105.743 70.6508C106.219 69.3515 105.121 69.2641 105.279 67.8548C105.399 66.7816 106.396 65.3499 106.162 63.5792C106.016 62.4724 105.198 60.5219 103.709 57.7278Z" fill="url(#paint27_linear)"/>
<path d="M100.314 252.483L99.2452 259.133C99.2452 259.133 101.196 261.788 104.062 261.788C106.929 261.788 109.166 260.449 109.166 260.449L110.236 253.181L100.314 252.483Z" fill="url(#paint28_linear)"/>
<path d="M67.1674 252.483L66.0987 259.133C66.0987 259.133 68.0494 261.788 70.9159 261.788C73.7824 261.788 76.0193 260.449 76.0193 260.449L77.0898 253.181L67.1674 252.483Z" fill="url(#paint29_linear)"/>
<path d="M66.0653 258.22C65.2544 258.22 65.2544 260.965 65.2191 263.053C65.2062 263.813 65.3437 264.972 65.6316 266.528C65.7496 267.166 66.2691 267.633 66.8846 267.655C79.8998 268.127 87.7423 268.115 87.7661 267.617C88.8059 264.222 88.2395 263.855 82.3373 261.192C79.9382 260.109 77.7361 259.592 76.2441 258.703C75.7338 258.399 74.6643 260.857 71.1363 260.857C67.6083 260.857 66.8763 258.22 66.0653 258.22Z" fill="url(#paint30_linear)"/>
<path d="M62.746 143.855C62.746 143.855 63.232 154.807 62.746 156.076C62.26 157.345 65.1097 173.18 71.2952 203.58C70.7656 233.242 66.3552 249.536 66.8841 252.462C67.6774 256.852 76.8983 256.851 78.0173 253.679C78.7632 251.564 81.8503 234.38 87.2785 202.126L88.2311 176.828C92.0268 183.457 97.3359 192.486 104.158 203.916C103.042 235.375 98.81 252.026 100.282 253.869C101.593 255.511 110.236 256.67 110.755 253.869C116.015 232.168 118.645 215.406 118.645 203.584C118.644 191.762 113.227 171.853 102.392 143.855L62.746 143.855Z" fill="#B2C7EE"/>
<path d="M62.746 143.855C62.746 143.855 63.232 154.807 62.746 156.076C62.26 157.345 65.1097 173.18 71.2952 203.58C70.7656 233.242 66.3552 249.536 66.8841 252.462C67.6774 256.852 76.8983 256.851 78.0173 253.679C78.7632 251.564 81.8503 234.38 87.2785 202.126L88.2311 176.828C92.0268 183.457 97.3359 192.486 104.158 203.916C103.042 235.375 98.81 252.026 100.282 253.869C101.593 255.511 110.236 256.67 110.755 253.869C116.015 232.168 118.645 215.406 118.645 203.584C118.644 191.762 113.227 171.853 102.392 143.855L62.746 143.855Z" fill="url(#paint31_linear)"/>
<path d="M62.746 143.855C62.746 143.855 63.232 154.807 62.746 156.076C62.26 157.345 65.1097 173.18 71.2952 203.58C70.7656 233.242 66.3552 249.536 66.8841 252.462C67.6774 256.852 76.8983 256.851 78.0173 253.679C78.7632 251.564 81.8503 234.38 87.2785 202.126L88.2311 176.828C92.0268 183.457 97.3359 192.486 104.158 203.916C103.042 235.375 98.81 252.026 100.282 253.869C101.593 255.511 110.236 256.67 110.755 253.869C116.015 232.168 118.645 215.406 118.645 203.584C118.644 191.762 113.227 171.853 102.392 143.855L62.746 143.855Z" fill="url(#paint32_linear)"/>
<path d="M62.746 143.855C62.746 143.855 63.232 154.807 62.746 156.076C62.26 157.345 65.1097 173.18 71.2952 203.58C70.7656 233.242 66.3552 249.536 66.8841 252.462C67.6774 256.852 76.8983 256.851 78.0173 253.679C78.7632 251.564 81.8503 234.38 87.2785 202.126L88.2311 176.828C92.0268 183.457 97.3359 192.486 104.158 203.916C103.042 235.375 98.81 252.026 100.282 253.869C101.593 255.511 110.236 256.67 110.755 253.869C116.015 232.168 118.645 215.406 118.645 203.584C118.644 191.762 113.227 171.853 102.392 143.855L62.746 143.855Z" fill="url(#paint33_linear)"/>
<path d="M99.2118 258.22C98.4008 258.22 98.4008 260.965 98.3656 263.053C98.3527 263.813 98.4902 264.972 98.7781 266.528C98.896 267.166 99.4156 267.633 100.031 267.655C113.046 268.127 120.889 268.115 120.913 267.617C121.952 264.222 121.386 263.855 115.484 261.192C113.085 260.109 110.883 259.592 109.391 258.703C108.88 258.399 107.811 260.857 104.283 260.857C100.755 260.857 100.023 258.22 99.2118 258.22Z" fill="url(#paint34_linear)"/>
<path d="M104.153 203.905L104.283 203.868L93.2582 172.698C93.2582 172.698 92.1557 173.628 88.2317 176.828C92.0262 183.455 97.3332 192.481 104.153 203.905Z" fill="url(#paint35_linear)"/>
<path d="M90.4551 90.2235C92.6775 93.7676 94.218 96.1481 91.5106 97.4627C88.8032 98.7773 82.6669 95.6217 73.1017 87.9958C61.5402 92.3923 60.3535 95.8838 57.9851 98.4706C55.6167 101.057 64.3505 149.367 67.845 152.563C72.9169 157.202 80.5794 158.813 89.8701 157.562C95.1961 156.845 101.789 152.563 101.789 152.563C101.789 152.563 98.4547 134.828 98.4545 131.607C98.4543 128.386 100.161 120.525 103.575 108.023L96.0551 92.407L90.4551 90.2235Z" fill="url(#paint36_linear)"/>
<path d="M90.4551 90.2235C92.6775 93.7676 94.218 96.1481 91.5106 97.4627C88.8032 98.7773 82.6669 95.6217 73.1017 87.9958C61.5402 92.3923 60.3535 95.8838 57.9851 98.4706C55.6167 101.057 64.3505 149.367 67.845 152.563C72.9169 157.202 80.5794 158.813 89.8701 157.562C95.1961 156.845 101.789 152.563 101.789 152.563C101.789 152.563 98.4547 134.828 98.4545 131.607C98.4543 128.386 100.161 120.525 103.575 108.023L96.0551 92.407L90.4551 90.2235Z" fill="url(#paint37_linear)"/>
<path d="M90.4551 90.2235C92.6775 93.7676 94.218 96.1481 91.5106 97.4627C88.8032 98.7773 82.6669 95.6217 73.1017 87.9958C61.5402 92.3923 60.3535 95.8838 57.9851 98.4706C55.6167 101.057 64.3505 149.367 67.845 152.563C72.9169 157.202 80.5794 158.813 89.8701 157.562C95.1961 156.845 101.789 152.563 101.789 152.563C101.789 152.563 98.4547 134.828 98.4545 131.607C98.4543 128.386 100.161 120.525 103.575 108.023L96.0551 92.407L90.4551 90.2235Z" fill="url(#paint38_linear)"/>
<path d="M72.4984 149.229C67.3093 166.757 75.7695 187.126 73.7845 196.8C58.9502 198.342 47.878 211.784 47.878 211.784C47.878 211.784 43.1977 205.801 43.6834 185.506C44.1691 165.212 49.0396 164.083 49.7909 154.844C50.5421 145.606 49.7909 131.848 49.7909 131.848L54.291 96.835L72.4984 88.2571C72.4984 88.2571 77.6875 131.701 72.4984 149.229Z" fill="url(#paint39_radial)"/>
<path fill-rule="evenodd" clip-rule="evenodd" d="M50.1037 141.733C50.0306 136.243 49.7906 131.847 49.7906 131.847L54.2908 96.8347L56.9006 95.6052C61.3047 103.189 64.4848 113.872 61.437 122.512C58.2764 131.471 54.2185 137.582 50.1037 141.733Z" fill="url(#paint40_radial)"/>
<path d="M17.2919 138.979L13.4445 139C13.4445 139 6.37326 141.392 5.92729 141.073C5.48133 140.755 7.8765 139.206 7.8765 139.206C7.8765 139.206 3.7247 138.537 3.42666 138.061C3.12862 137.585 7.05887 137.055 7.05887 137.055C7.05887 137.055 2.75364 135.55 2.71896 134.941C2.68427 134.332 7.44844 134.59 7.44844 134.59C7.44844 134.59 3.69969 132.885 4.3075 132.489C4.91531 132.093 10.7716 133.41 10.7716 133.41C10.7716 133.41 9.57632 130.74 10.306 130.7C11.0357 130.659 14.4981 133.341 14.4981 133.341C14.4981 133.341 31.4743 137.172 17.2919 138.979Z" fill="url(#paint41_linear)"/>
<path d="M50.8785 102.711C50.8785 102.711 52.1987 88.2798 61.5948 89.4775C66.5287 90.1064 71.2908 87.6502 71.7788 88.4282C72.2202 89.1319 68.5502 92.9325 69.4954 95.8753C71.8812 103.304 65.3216 124.276 53.3237 131.697C31.317 145.308 24.9876 140.835 19.3445 140.214C13.7013 139.592 17.6095 133.635 17.6095 133.635C17.6095 133.635 40.4768 126.79 43.4868 121.404C46.4969 116.018 50.8785 102.711 50.8785 102.711Z" fill="url(#paint42_radial)"/>
<path d="M152.318 81.7085L155.278 79.2297C155.278 79.2297 162.212 76.4672 162.352 75.9357C162.492 75.4042 159.675 75.7769 159.675 75.7769C159.675 75.7769 162.431 72.5746 162.358 72.0189C162.285 71.4632 158.938 73.6072 158.938 73.6072C158.938 73.6072 161.283 69.6697 160.923 69.1831C160.564 68.6965 157.077 71.9822 157.077 71.9822C157.077 71.9822 158.869 68.2523 158.152 68.3446C157.435 68.4368 153.783 73.2378 153.783 73.2378C153.783 73.2378 153.007 70.4286 152.422 70.8707C151.838 71.3129 150.884 75.6011 150.884 75.6011C150.884 75.6011 140.307 89.5274 152.318 81.7085Z" fill="url(#paint43_linear)"/>
<path d="M93.314 92.0953C93.314 92.0953 97.1041 102.057 98.4572 106.233C99.8112 110.411 100.337 113.856 100.034 116.57C99.1252 124.708 96.5972 127.373 98.7872 146.839C99.6435 154.449 104.451 165.162 105.378 173.648C106.824 186.867 103.27 191.44 104.16 193.627C105.378 196.619 118.381 193.869 124.888 200.658C126.983 196.619 119.022 182.377 119.022 180.202C119.022 178.027 118.751 161.69 112.065 149.706C105.378 137.722 106.955 114.647 106.955 114.647C106.955 114.647 123.759 111.42 131.536 106.233C139.313 101.045 151.277 83.848 151.277 83.848C151.277 83.848 149.492 79.3308 147.183 79.3308C144.874 79.3308 129.23 93.5082 117.135 95.228C112.065 95.949 107.993 92.957 104.16 92.0953C98.0624 90.7244 93.6218 90.7764 92.8827 90.5239C91.679 90.1127 91.6907 91.1388 91.6907 91.1388L93.314 92.0953Z" fill="url(#paint44_radial)"/>
<mask id="mask2" mask-type="alpha" maskUnits="userSpaceOnUse" x="91" y="78" width="61" height="123">
<path d="M93.314 91.7349C93.314 91.7349 97.1041 101.697 98.4572 105.872C99.8112 110.05 100.337 113.496 100.034 116.209C99.1252 124.347 96.5972 127.012 98.7872 146.478C99.6435 154.089 104.451 164.802 105.378 173.288C106.824 186.507 103.27 191.08 104.16 193.266C105.378 196.259 118.381 193.509 124.888 200.298C126.983 196.259 119.022 182.017 119.022 179.842C119.022 177.666 118.751 161.33 112.065 149.346C105.378 137.362 106.955 114.286 106.955 114.286C106.955 114.286 123.759 111.06 131.536 105.872C139.313 100.684 151.277 83.4877 151.277 83.4877C151.277 83.4877 149.492 78.9705 147.183 78.9705C144.874 78.9705 129.23 93.1478 117.135 94.8677C112.065 95.5887 107.993 92.5966 104.16 91.7349C98.0624 90.364 93.6218 90.416 92.8827 90.1636C91.679 89.7524 91.6907 90.7785 91.6907 90.7785L93.314 91.7349Z" fill="white"/>
</mask>
<g mask="url(#mask2)">
<path d="M107.398 116.229C107.398 116.229 107.324 111.988 106.046 109.339C104.768 106.689 105.329 106.216 105.329 106.216C105.329 106.216 119.271 113.101 128.672 109.339C138.072 105.577 123.936 119.66 123.936 119.66L107.398 116.229Z" fill="url(#paint45_radial)"/>
</g>
<path d="M105.384 66.7658C104.544 68.2291 120.726 57.0207 117.369 47.6767C114.012 38.3327 106.374 41.2097 104.009 41.2523C101.643 41.295 87.804 30.2661 76.5258 39.0046C70.9197 43.3483 72.268 48.9117 68.6222 57.363C67.1758 60.716 62.6528 60.7246 61.1864 64.2066C59.7201 67.6885 59.8851 72.2746 59.2623 75.0941C58.423 78.8933 50.9511 83.6579 53.7968 89.7445C56.6424 95.8311 64.4196 95.6184 74.8407 93.5691C79.6568 92.622 77.4593 87.3366 79.115 85.0441C81.042 82.376 84.8249 81.707 85.4934 79.699C86.7363 75.9655 85.1229 75.7561 85.4934 73.5563C85.8639 71.3565 87.2774 69.1053 87.2774 69.1053C87.2774 69.1053 83.5114 68.7252 84.2603 64.2066C85.0092 59.6879 89.1867 60.3977 90.3422 63.7536L91.4452 60.9614C91.4452 60.9614 95.478 61.7961 98.8928 60.8171C102.308 59.8381 104.443 58.6345 104.443 58.6345C104.443 58.6345 106.758 64.4641 105.384 66.7658Z" fill="url(#paint46_radial)"/>
</g>
<defs>
<filter id="filter0_i" x="566" y="85.8557" width="67.8493" height="111.82" filterUnits="userSpaceOnUse" color-interpolation-filters="sRGB">
<feFlood flood-opacity="0" result="BackgroundImageFix"/>
<feBlend mode="normal" in="SourceGraphic" in2="BackgroundImageFix" result="shape"/>
<feColorMatrix in="SourceAlpha" type="matrix" values="0 0 0 0 0 0 0 0 0 0 0 0 0 0 0 0 0 0 127 0" result="hardAlpha"/>
<feOffset dy="-10"/>
<feGaussianBlur stdDeviation="11"/>
<feComposite in2="hardAlpha" operator="arithmetic" k2="-1" k3="1"/>
<feColorMatrix type="matrix" values="0 0 0 0 0.221483 0 0 0 0 0.77854 0 0 0 0 0.610041 0 0 0 1 0"/>
<feBlend mode="normal" in2="shape" result="effect1_innerShadow"/>
</filter>
<filter id="filter1_i" x="455.23" y="141.121" width="12.5635" height="29.0247" filterUnits="userSpaceOnUse" color-interpolation-filters="sRGB">
<feFlood flood-opacity="0" result="BackgroundImageFix"/>
<feBlend mode="normal" in="SourceGraphic" in2="BackgroundImageFix" result="shape"/>
<feColorMatrix in="SourceAlpha" type="matrix" values="0 0 0 0 0 0 0 0 0 0 0 0 0 0 0 0 0 0 127 0" result="hardAlpha"/>
<feOffset dy="-10"/>
<feGaussianBlur stdDeviation="11"/>
<feComposite in2="hardAlpha" operator="arithmetic" k2="-1" k3="1"/>
<feColorMatrix type="matrix" values="0 0 0 0 0.221483 0 0 0 0 0.77854 0 0 0 0 0.610041 0 0 0 1 0"/>
<feBlend mode="normal" in2="shape" result="effect1_innerShadow"/>
</filter>
<linearGradient id="paint0_linear" x1="710.601" y1="19.8906" x2="659.315" y2="198.747" gradientUnits="userSpaceOnUse">
<stop stop-color="white"/>
<stop offset="1" stop-color="#B3CDEF"/>
</linearGradient>
<linearGradient id="paint1_linear" x1="568.079" y1="134.23" x2="689.209" y2="182.884" gradientUnits="userSpaceOnUse">
<stop stop-color="#B1FFBE"/>
<stop offset="0.444207" stop-color="#5CDB8E"/>
<stop offset="1" stop-color="#149654"/>
</linearGradient>
<linearGradient id="paint2_linear" x1="623.616" y1="173.96" x2="614.072" y2="172.726" gradientUnits="userSpaceOnUse">
<stop stop-color="#EAEFFF"/>
<stop offset="1" stop-color="#F7F9FE"/>
</linearGradient>
<linearGradient id="paint3_linear" x1="626.799" y1="185.288" x2="620.685" y2="222.979" gradientUnits="userSpaceOnUse">
<stop stop-color="#E5EDFF"/>
<stop offset="1" stop-color="#6B9AD9"/>
</linearGradient>
<linearGradient id="paint4_linear" x1="596.229" y1="192.328" x2="596.347" y2="214.751" gradientUnits="userSpaceOnUse">
<stop stop-color="#E5EDFF"/>
<stop offset="1" stop-color="#6B9AD9"/>
</linearGradient>
<radialGradient id="paint5_radial" cx="0" cy="0" r="1" gradientUnits="userSpaceOnUse" gradientTransform="translate(443.294 29.2549) rotate(147.643) scale(179.748 204.389)">
<stop stop-color="#EDF3FD"/>
<stop offset="0.40887" stop-color="#DCE8FB"/>
<stop offset="1" stop-color="#AEBDD8"/>
</radialGradient>
<linearGradient id="paint6_linear" x1="330.958" y1="96.325" x2="330.958" y2="69.3521" gradientUnits="userSpaceOnUse">
<stop stop-color="#FDE76B"/>
<stop offset="1" stop-color="#FAB539"/>
</linearGradient>
<linearGradient id="paint7_linear" x1="362.112" y1="43.0071" x2="343.232" y2="81.0838" gradientUnits="userSpaceOnUse">
<stop stop-color="#E5EDFF"/>
<stop offset="1" stop-color="#6B9AD9"/>
</linearGradient>
<linearGradient id="paint8_linear" x1="384.802" y1="92.4935" x2="384.802" y2="79.0071" gradientUnits="userSpaceOnUse">
<stop stop-color="#FDE76B"/>
<stop offset="1" stop-color="#FAB539"/>
</linearGradient>
<linearGradient id="paint9_linear" x1="403.108" y1="96.325" x2="403.108" y2="69.3521" gradientUnits="userSpaceOnUse">
<stop stop-color="#FDE76B"/>
<stop offset="1" stop-color="#FAB539"/>
</linearGradient>
<linearGradient id="paint10_linear" x1="416.316" y1="37.3005" x2="393.611" y2="78.0032" gradientUnits="userSpaceOnUse">
<stop stop-color="#E5EDFF"/>
<stop offset="1" stop-color="#6B9AD9"/>
</linearGradient>
<linearGradient id="paint11_linear" x1="348.907" y1="102.711" x2="348.907" y2="53.2607" gradientUnits="userSpaceOnUse">
<stop stop-color="#FDE76B"/>
<stop offset="1" stop-color="#FAB539"/>
</linearGradient>
<linearGradient id="paint12_linear" x1="202.322" y1="43.2726" x2="145.141" y2="310.549" gradientUnits="userSpaceOnUse">
<stop stop-color="#A0B3D4"/>
<stop offset="1" stop-color="#6B9AD9"/>
</linearGradient>
<linearGradient id="paint13_linear" x1="200.17" y1="41.1188" x2="142.988" y2="308.395" gradientUnits="userSpaceOnUse">
<stop stop-color="#F7FAFF"/>
<stop offset="1" stop-color="#6B9AD9"/>
</linearGradient>
<linearGradient id="paint14_linear" x1="341.841" y1="-9.11551" x2="334.985" y2="46.3496" gradientUnits="userSpaceOnUse">
<stop stop-color="#47689B"/>
<stop offset="1" stop-color="#223762"/>
</linearGradient>
<linearGradient id="paint15_linear" x1="399.455" y1="109.966" x2="395.332" y2="162.926" gradientUnits="userSpaceOnUse">
<stop stop-color="#E5EDFF"/>
<stop offset="1" stop-color="#6B9AD9"/>
</linearGradient>
<linearGradient id="paint16_linear" x1="464.144" y1="85.5437" x2="464.144" y2="305.272" gradientUnits="userSpaceOnUse">
<stop stop-color="#95B7E5"/>
<stop offset="1" stop-color="#476DB1"/>
</linearGradient>
<linearGradient id="paint17_linear" x1="553.212" y1="85.5437" x2="553.212" y2="305.272" gradientUnits="userSpaceOnUse">
<stop stop-color="#95B7E5"/>
<stop offset="1" stop-color="#476DB1"/>
</linearGradient>
<linearGradient id="paint18_linear" x1="494.785" y1="180.171" x2="494.727" y2="185.475" gradientUnits="userSpaceOnUse">
<stop stop-color="#476DB1"/>
<stop offset="1" stop-color="#283F6F"/>
</linearGradient>
<linearGradient id="paint19_linear" x1="455.23" y1="151.121" x2="471.511" y2="169.566" gradientUnits="userSpaceOnUse">
<stop stop-color="#B1FFBE"/>
<stop offset="0.444207" stop-color="#5CDB8E"/>
<stop offset="1" stop-color="#149654"/>
</linearGradient>
<linearGradient id="paint20_linear" x1="464.49" y1="160.858" x2="461.554" y2="179.367" gradientUnits="userSpaceOnUse">
<stop stop-color="#E5EDFF"/>
<stop offset="1" stop-color="#6B9AD9"/>
</linearGradient>
<linearGradient id="paint21_linear" x1="449.162" y1="164.311" x2="449.219" y2="175.31" gradientUnits="userSpaceOnUse">
<stop stop-color="#E5EDFF"/>
<stop offset="1" stop-color="#6B9AD9"/>
</linearGradient>
<linearGradient id="paint22_linear" x1="504.444" y1="168.469" x2="501.764" y2="184.568" gradientUnits="userSpaceOnUse">
<stop stop-color="#476DB1"/>
<stop offset="1" stop-color="#283F6F"/>
</linearGradient>
<linearGradient id="paint23_linear" x1="503.051" y1="127.605" x2="497.119" y2="165.124" gradientUnits="userSpaceOnUse">
<stop stop-color="#476DB1"/>
<stop offset="1" stop-color="#283F6F"/>
</linearGradient>
<linearGradient id="paint24_linear" x1="472.478" y1="149.714" x2="474.765" y2="162.103" gradientUnits="userSpaceOnUse">
<stop stop-color="#EAEFFF"/>
<stop offset="1" stop-color="#F7F9FE"/>
</linearGradient>
<linearGradient id="paint25_linear" x1="70.836" y1="95.2511" x2="70.836" y2="77.0171" gradientUnits="userSpaceOnUse">
<stop stop-color="#F4AF92"/>
<stop offset="1" stop-color="#EC906C"/>
</linearGradient>
<linearGradient id="paint26_linear" x1="47.3603" y1="80.5856" x2="89.0382" y2="14.8201" gradientUnits="userSpaceOnUse">
<stop stop-color="#143B8C"/>
<stop offset="1" stop-color="#2266DD"/>
</linearGradient>
<linearGradient id="paint27_linear" x1="81.8212" y1="70.714" x2="95.1026" y2="72.6883" gradientUnits="userSpaceOnUse">
<stop stop-color="#CFDDF3"/>
<stop offset="1" stop-color="#A1B8E3"/>
</linearGradient>
<linearGradient id="paint28_linear" x1="105.51" y1="256.295" x2="107.423" y2="260.616" gradientUnits="userSpaceOnUse">
<stop stop-color="#CFDDF3"/>
<stop offset="1" stop-color="#A1B8E3"/>
</linearGradient>
<linearGradient id="paint29_linear" x1="71.5889" y1="257.013" x2="74.2045" y2="260.551" gradientUnits="userSpaceOnUse">
<stop stop-color="#CFDDF3"/>
<stop offset="1" stop-color="#A1B8E3"/>
</linearGradient>
<linearGradient id="paint30_linear" x1="65.2183" y1="258.22" x2="88.1865" y2="258.22" gradientUnits="userSpaceOnUse">
<stop stop-color="#2865C6"/>
<stop offset="1" stop-color="#10378A"/>
</linearGradient>
<linearGradient id="paint31_linear" x1="130.568" y1="178.075" x2="89.3691" y2="219.161" gradientUnits="userSpaceOnUse">
<stop stop-color="#5973A7"/>
<stop offset="1" stop-color="#B2C7EE" stop-opacity="0.01"/>
</linearGradient>
<linearGradient id="paint32_linear" x1="78.3682" y1="150.012" x2="108.166" y2="166.586" gradientUnits="userSpaceOnUse">
<stop stop-color="white" stop-opacity="0.5"/>
<stop offset="1" stop-color="white" stop-opacity="0.01"/>
</linearGradient>
<linearGradient id="paint33_linear" x1="95.6962" y1="236.428" x2="95.6962" y2="259.807" gradientUnits="userSpaceOnUse">
<stop stop-color="#B0C8F2" stop-opacity="0.01"/>
<stop offset="1" stop-color="#96B0DA"/>
</linearGradient>
<linearGradient id="paint34_linear" x1="98.3647" y1="258.22" x2="121.333" y2="258.22" gradientUnits="userSpaceOnUse">
<stop stop-color="#2865C6"/>
<stop offset="1" stop-color="#10378A"/>
</linearGradient>
<linearGradient id="paint35_linear" x1="102.345" y1="182.181" x2="99.2142" y2="205.545" gradientUnits="userSpaceOnUse">
<stop stop-color="#1542AB"/>
<stop offset="1" stop-color="#2B68EE"/>
</linearGradient>
<linearGradient id="paint36_linear" x1="55.9623" y1="153.754" x2="61.9415" y2="102.198" gradientUnits="userSpaceOnUse">
<stop stop-color="#F4F8FF"/>
<stop offset="1" stop-color="#C3D8F5"/>
</linearGradient>
<linearGradient id="paint37_linear" x1="86.8945" y1="134.763" x2="105.287" y2="139.595" gradientUnits="userSpaceOnUse">
<stop stop-color="white" stop-opacity="0.5"/>
<stop offset="1" stop-color="#AFC3E5"/>
</linearGradient>
<linearGradient id="paint38_linear" x1="89.322" y1="109.072" x2="105.134" y2="96.5379" gradientUnits="userSpaceOnUse">
<stop stop-color="white" stop-opacity="0.01"/>
<stop offset="1" stop-color="#A1B8E3"/>
</linearGradient>
<radialGradient id="paint39_radial" cx="0" cy="0" r="1" gradientUnits="userSpaceOnUse" gradientTransform="translate(69.5203 78.6941) rotate(88.4741) scale(61.9182 29.0142)">
<stop stop-color="#70B8F9"/>
<stop offset="1" stop-color="#3D82F0"/>
</radialGradient>
<radialGradient id="paint40_radial" cx="0" cy="0" r="1" gradientUnits="userSpaceOnUse" gradientTransform="translate(60.4628 92.0342) rotate(88.3145) scale(23.1233 11.9673)">
<stop stop-color="#70B8F9"/>
<stop offset="1" stop-color="#3D82F0"/>
</radialGradient>
<linearGradient id="paint41_linear" x1="13.709" y1="147.451" x2="17.2187" y2="140.549" gradientUnits="userSpaceOnUse">
<stop stop-color="#CFDDF3"/>
<stop offset="1" stop-color="#A1B8E3"/>
</linearGradient>
<radialGradient id="paint42_radial" cx="0" cy="0" r="1" gradientUnits="userSpaceOnUse" gradientTransform="translate(68.4664 78.355) rotate(131.281) scale(37.122 25.9824)">
<stop stop-color="#70B8F9"/>
<stop offset="1" stop-color="#3D82F0"/>
</radialGradient>
<linearGradient id="paint43_linear" x1="160.432" y1="85.841" x2="153.384" y2="82.8209" gradientUnits="userSpaceOnUse">
<stop stop-color="#CFDDF3"/>
<stop offset="1" stop-color="#A1B8E3"/>
</linearGradient>
<radialGradient id="paint44_radial" cx="0" cy="0" r="1" gradientUnits="userSpaceOnUse" gradientTransform="translate(141.171 69.9381) rotate(87.0308) scale(60.8756 55.4345)">
<stop stop-color="#70B8F9"/>
<stop offset="1" stop-color="#3D82F0"/>
</radialGradient>
<radialGradient id="paint45_radial" cx="0" cy="0" r="1" gradientUnits="userSpaceOnUse" gradientTransform="translate(127.37 105.176) rotate(78.1573) scale(6.88266 24.3355)">
<stop stop-color="#70B8F9"/>
<stop offset="1" stop-color="#3D82F0"/>
</radialGradient>
<radialGradient id="paint46_radial" cx="0" cy="0" r="1" gradientUnits="userSpaceOnUse" gradientTransform="translate(118.972 43.0747) rotate(-124.801) scale(30.8185 36.1254)">
<stop stop-color="#2D6DC0"/>
<stop offset="1" stop-color="#143B8C"/>
</radialGradient>
</defs>
</svg>
