<svg width="670" height="268" viewBox="0 0 670 268" fill="none" xmlns="http://www.w3.org/2000/svg">
<mask id="mask0" mask-type="alpha" maskUnits="userSpaceOnUse" x="0" y="0" width="670" height="268">
<rect width="670" height="268" fill="#C4C4C4"/>
</mask>
<g mask="url(#mask0)">
<g opacity="0.5" filter="url(#filter0_i)">
<path fill-rule="evenodd" clip-rule="evenodd" d="M164.323 85.9191C163.712 68.3865 118.03 72.3386 100.409 74.03C82.7868 75.7214 81.1868 51.7031 96.391 48.133C111.595 44.5628 139.166 46.4053 153.451 43.1097C167.737 39.8141 149.666 22.1398 169.131 20.0094C188.595 17.8791 228.843 19.8515 240.841 19.4187C259.688 18.7389 269.357 41.4276 236.339 42.4571C227.234 42.741 225.407 62.8973 256.142 57.3606C275.429 53.8861 313.272 53.8059 321.144 62.6766C325.661 67.7662 324.096 81.44 316.331 88.9907C310.562 94.5998 292.218 95.6934 285.032 96.99C268.172 100.032 271.505 116.356 277.254 119.717C290.857 127.671 328.193 112.66 329.193 134.501C329.636 144.152 295.665 145.71 281.736 145.592C247.574 145.303 225.128 148.347 223.553 136.694C221.971 124.995 244.781 132.891 243.656 118.509C243.069 110.993 244.644 95.0229 230.01 95.8611C250.046 94.7134 165.149 109.599 164.323 85.9191Z" fill="url(#paint0_linear)"/>
</g>
<path fill-rule="evenodd" clip-rule="evenodd" d="M380.276 61.6738C442.634 43.8074 502.91 63.0485 514.908 104.65C526.905 146.251 486.081 194.46 423.724 212.326C361.366 230.193 301.09 210.952 289.092 169.35C277.095 127.749 317.919 79.5405 380.276 61.6738Z" fill="#F6F9FE"/>
<path fill-rule="evenodd" clip-rule="evenodd" d="M453.387 88.8782C510.237 72.5562 565.552 91.3907 576.936 130.946C588.32 170.502 551.463 215.8 494.613 232.122C437.763 248.444 382.448 229.609 371.064 190.054C359.68 150.498 396.537 105.2 453.387 88.8782Z" fill="#F6F9FE"/>
<path d="M228.316 94.4103L250.636 90.4822V125.835H228.316V94.4103Z" fill="url(#paint1_linear)"/>
<path d="M234.269 93.4286L239.849 92.4465V100.696L234.269 100.99V93.4286Z" fill="url(#paint2_linear)"/>
<path d="M279.13 94.4103V125.835H250.638V90.4822L279.13 94.4103Z" fill="url(#paint3_linear)"/>
<path d="M172.302 94.4103L194.622 90.4822V125.835H172.302V94.4103Z" fill="url(#paint4_linear)"/>
<path d="M178.254 93.4286L183.834 92.4465V100.696L178.254 100.99V93.4286Z" fill="url(#paint5_linear)"/>
<path d="M223.114 94.4103V125.835H194.622V90.4822L223.114 94.4103Z" fill="url(#paint6_linear)"/>
<path d="M403.647 86.6494C404.44 86.6494 405.082 87.2921 405.082 88.0849V125.048C405.082 125.84 404.44 126.483 403.647 126.483H375.297C374.504 126.483 373.861 125.84 373.861 125.048V95.1262L382.305 86.6494H403.647Z" fill="url(#paint7_linear)"/>
<path d="M399.837 98.4226C400.134 98.4226 400.375 98.6636 400.375 98.9609C400.375 99.2582 400.134 99.4992 399.837 99.4992H379.74C379.443 99.4992 379.202 99.2582 379.202 98.9609C379.202 98.6636 379.443 98.4226 379.74 98.4226H399.837Z" fill="#ABC6ED"/>
<path d="M399.837 104.474C400.134 104.474 400.375 104.715 400.375 105.013C400.375 105.31 400.134 105.551 399.837 105.551H379.74C379.443 105.551 379.202 105.31 379.202 105.013C379.202 104.715 379.443 104.474 379.74 104.474H399.837Z" fill="#ABC6ED"/>
<path d="M399.837 110.216C400.134 110.216 400.375 110.457 400.375 110.754C400.375 111.052 400.134 111.293 399.837 111.293H379.74C379.443 111.293 379.202 111.052 379.202 110.754C379.202 110.457 379.443 110.216 379.74 110.216H399.837Z" fill="#ABC6ED"/>
<path d="M399.837 115.958C400.134 115.958 400.375 116.199 400.375 116.496C400.375 116.793 400.134 117.034 399.837 117.034H379.74C379.443 117.034 379.202 116.793 379.202 116.496C379.202 116.199 379.443 115.958 379.74 115.958H399.837Z" fill="#ABC6ED"/>
<path d="M382.464 86.5798V93.6879C382.464 94.4807 381.822 95.1233 381.029 95.1233H373.921L382.464 86.5798Z" fill="url(#paint8_linear)"/>
<path fill-rule="evenodd" clip-rule="evenodd" d="M629.127 123.585V94.27H604V123.585H629.127ZM605.396 122.189V95.666H627.731V122.189H605.396Z" fill="url(#paint9_linear)"/>
<path d="M614.005 61H637.736V88.919H614.005V61Z" fill="url(#paint10_linear)"/>
<path d="M634.478 104.274H656.347V127.54H637.702L634.478 124.643V104.274Z" fill="url(#paint11_linear)"/>
<path d="M441.296 86.6494C442.089 86.6494 442.732 87.2921 442.732 88.0849V125.048C442.732 125.84 442.089 126.483 441.296 126.483H412.946C412.153 126.483 411.511 125.84 411.511 125.048V95.1262L419.954 86.6494H441.296Z" fill="url(#paint12_linear)"/>
<path d="M437.486 98.4226C437.783 98.4226 438.024 98.6636 438.024 98.9609C438.024 99.2582 437.783 99.4992 437.486 99.4992H417.39C417.093 99.4992 416.852 99.2582 416.852 98.9609C416.852 98.6636 417.093 98.4226 417.39 98.4226H437.486Z" fill="#ABC6ED"/>
<path d="M437.486 104.474C437.783 104.474 438.024 104.715 438.024 105.013C438.024 105.31 437.783 105.551 437.486 105.551H417.39C417.093 105.551 416.852 105.31 416.852 105.013C416.852 104.715 417.093 104.474 417.39 104.474H437.486Z" fill="#ABC6ED"/>
<path d="M437.486 110.216C437.783 110.216 438.024 110.457 438.024 110.754C438.024 111.052 437.783 111.293 437.486 111.293H417.39C417.093 111.293 416.852 111.052 416.852 110.754C416.852 110.457 417.093 110.216 417.39 110.216H437.486Z" fill="#ABC6ED"/>
<path d="M437.486 115.958C437.783 115.958 438.024 116.199 438.024 116.496C438.024 116.793 437.783 117.034 437.486 117.034H417.39C417.093 117.034 416.852 116.793 416.852 116.496C416.852 116.199 417.093 115.958 417.39 115.958H437.486Z" fill="#ABC6ED"/>
<path d="M420.113 86.5798V93.6879C420.113 94.4807 419.47 95.1233 418.677 95.1233H411.569L420.113 86.5798Z" fill="url(#paint13_linear)"/>
<path d="M159.677 125.836H286.168V161.189H159.677C149.914 161.189 142 153.275 142 143.513C142 133.75 149.914 125.836 159.677 125.836Z" fill="url(#paint14_linear)"/>
<path fill-rule="evenodd" clip-rule="evenodd" d="M281.158 130.846H159.677C152.681 130.846 147.01 136.517 147.01 143.513C147.01 150.508 152.681 156.179 159.677 156.179H281.158V130.846ZM159.677 125.836C149.914 125.836 142 133.75 142 143.513C142 153.275 149.914 161.189 159.677 161.189H286.168V125.836H159.677Z" fill="url(#paint15_linear)"/>
<path d="M479.691 125.836C489.454 125.836 497.368 133.75 497.368 143.513C497.368 153.275 489.454 161.189 479.691 161.189H353.2V125.836H479.691Z" fill="url(#paint16_linear)"/>
<path fill-rule="evenodd" clip-rule="evenodd" d="M492.358 143.513C492.358 136.517 486.687 130.846 479.691 130.846H358.21V156.179H479.691C486.687 156.179 492.358 150.508 492.358 143.513ZM497.368 143.513C497.368 133.75 489.454 125.836 479.691 125.836H353.2V161.189H479.691C489.454 161.189 497.368 153.275 497.368 143.513Z" fill="url(#paint17_linear)"/>
<g opacity="0.4">
<path d="M165.875 152.006C170.946 152.006 175.058 147.895 175.058 142.824C175.058 137.752 170.946 133.641 165.875 133.641C160.804 133.641 156.692 137.752 156.692 142.824C156.692 147.895 160.804 152.006 165.875 152.006Z" fill="url(#paint18_linear)" style="mix-blend-mode:multiply"/>
</g>
<g opacity="0.4">
<path d="M202.605 152.006C207.676 152.006 211.787 147.895 211.787 142.824C211.787 137.752 207.676 133.641 202.605 133.641C197.533 133.641 193.422 137.752 193.422 142.824C193.422 147.895 197.533 152.006 202.605 152.006Z" fill="url(#paint19_linear)" style="mix-blend-mode:multiply"/>
</g>
<g opacity="0.4">
<path d="M239.336 152.006C244.407 152.006 248.519 147.895 248.519 142.824C248.519 137.752 244.407 133.641 239.336 133.641C234.265 133.641 230.153 137.752 230.153 142.824C230.153 147.895 234.265 152.006 239.336 152.006Z" fill="url(#paint20_linear)" style="mix-blend-mode:multiply"/>
</g>
<g opacity="0.4">
<path d="M473.493 152.006C468.422 152.006 464.311 147.895 464.311 142.824C464.311 137.752 468.422 133.641 473.493 133.641C478.565 133.641 482.676 137.752 482.676 142.824C482.676 147.895 478.565 152.006 473.493 152.006Z" fill="url(#paint21_linear)" style="mix-blend-mode:multiply"/>
</g>
<g opacity="0.4">
<path d="M436.762 152.006C431.69 152.006 427.579 147.895 427.579 142.824C427.579 137.752 431.69 133.641 436.762 133.641C441.833 133.641 445.944 137.752 445.944 142.824C445.944 147.895 441.833 152.006 436.762 152.006Z" fill="url(#paint22_linear)" style="mix-blend-mode:multiply"/>
</g>
<g opacity="0.4">
<path d="M400.032 152.006C394.961 152.006 390.85 147.895 390.85 142.824C390.85 137.752 394.961 133.641 400.032 133.641C405.104 133.641 409.215 137.752 409.215 142.824C409.215 147.895 405.104 152.006 400.032 152.006Z" fill="url(#paint23_linear)" style="mix-blend-mode:multiply"/>
</g>
<path d="M271.708 39H366.292C373.863 39 380 45.1372 380 52.7079V161H258V52.7079C258 45.1372 264.137 39 271.708 39Z" fill="url(#paint24_linear)"/>
<path d="M307.287 101.961H366.974V129.968H307.287V101.961Z" fill="url(#paint25_linear)"/>
<path fill-rule="evenodd" clip-rule="evenodd" d="M306.786 101.46H367.475V130.469H306.786V101.46ZM307.788 102.462V129.467H366.473V102.462H307.788Z" fill="url(#paint26_linear)"/>
<path d="M335.754 106.093V110.225C335.754 110.479 335.263 110.684 334.658 110.684H313.146C312.541 110.684 312.05 110.479 312.05 110.225V106.093C312.05 105.839 312.541 105.634 313.146 105.634H334.658C335.263 105.634 335.754 105.839 335.754 106.093Z" fill="#2A73E7"/>
<path d="M338.967 121.704V125.836C338.967 126.089 338.548 126.295 338.03 126.295H312.89C312.373 126.295 311.953 126.089 311.953 125.836V121.704C311.953 121.45 312.373 121.244 312.89 121.244H338.03C338.548 121.244 338.967 121.45 338.967 121.704Z" fill="#2A73E7"/>
<path d="M361.923 121.704V125.836C361.923 126.089 361.852 126.295 361.764 126.295H357.491C357.403 126.295 357.332 126.089 357.332 125.836V121.704C357.332 121.45 357.403 121.244 357.491 121.244H361.764C361.852 121.244 361.923 121.45 361.923 121.704Z" fill="url(#paint27_linear)"/>
<path d="M361.923 106.093V110.225C361.923 110.479 361.852 110.684 361.764 110.684H357.491C357.403 110.684 357.332 110.479 357.332 110.225V106.093C357.332 105.839 357.403 105.634 357.491 105.634H361.764C361.852 105.634 361.923 105.839 361.923 106.093Z" fill="url(#paint28_linear)"/>
<path d="M361.923 113.439V117.571C361.923 117.825 361.852 118.03 361.764 118.03H357.491C357.403 118.03 357.332 117.825 357.332 117.571V113.439C357.332 113.186 357.403 112.98 357.491 112.98H361.764C361.852 112.98 361.923 113.186 361.923 113.439Z" fill="url(#paint29_linear)"/>
<path d="M344.017 113.898V118.031C344.017 118.284 343.656 118.49 343.21 118.49H312.845C312.399 118.49 312.038 118.284 312.038 118.031V113.898C312.038 113.645 312.399 113.439 312.845 113.439H343.21C343.656 113.439 344.017 113.645 344.017 113.898Z" fill="#2A73E7"/>
<path d="M307.287 63.3938H366.974V91.4009H307.287V63.3938Z" fill="url(#paint30_linear)"/>
<path fill-rule="evenodd" clip-rule="evenodd" d="M306.786 62.8931H367.475V91.9021H306.786V62.8931ZM307.788 63.895V90.9001H366.473V63.895H307.788Z" fill="url(#paint31_linear)"/>
<path d="M312.996 85.623C312.89 85.7327 312.716 85.736 312.606 85.6306C312.496 85.5251 312.493 85.3507 312.598 85.2411L318.201 79.4166C320.195 77.3433 323.404 77.0368 325.755 78.6951C327.976 80.2623 330.956 80.2134 333.125 78.5743L340.576 72.9434C342.988 71.1209 346.378 71.3771 348.489 73.5413C350.367 75.4679 353.42 75.6015 355.46 73.8462L363.581 66.8579C363.696 66.7587 363.87 66.7717 363.969 66.8871C364.069 67.0024 364.056 67.1763 363.94 67.2756L355.819 74.2638C353.559 76.2089 350.176 76.0609 348.094 73.9259C346.178 71.9605 343.098 71.7278 340.908 73.3829L333.457 79.0139C331.097 80.7975 327.855 80.8506 325.437 79.1453C323.309 77.6439 320.404 77.9214 318.598 79.7985L312.996 85.623Z" fill="url(#paint32_linear)"/>
<path d="M312.927 85.6744C312.794 85.7469 312.627 85.6974 312.554 85.5637C312.481 85.43 312.531 85.2627 312.665 85.1901L324.475 78.7793C327.104 77.3523 330.238 77.1939 332.997 78.3487C335.589 79.4333 338.54 79.2373 340.965 77.8195L341.689 77.3962C344.423 75.7979 347.815 75.8317 350.516 77.4841C353.051 79.0346 356.228 79.0871 358.813 77.621L364.083 74.6326C364.215 74.5575 364.383 74.604 364.458 74.7363C364.534 74.8687 364.487 75.0368 364.355 75.1118L359.085 78.1003C356.326 79.6651 352.935 79.6091 350.229 77.9541C347.7 76.4076 344.526 76.376 341.967 77.8719L341.243 78.2951C338.668 79.8003 335.536 80.0084 332.785 78.857C330.179 77.7666 327.22 77.9161 324.738 79.2635L312.927 85.6744Z" fill="url(#paint33_linear)"/>
<path d="M282.495 77.1678C286.552 77.1678 289.841 73.8788 289.841 69.8217C289.841 65.7646 286.552 62.4756 282.495 62.4756C278.437 62.4756 275.148 65.7646 275.148 69.8217C275.148 73.8788 278.437 77.1678 282.495 77.1678Z" fill="url(#paint34_linear)"/>
<path d="M282.494 102.879C286.551 102.879 289.84 99.59 289.84 95.5329C289.84 91.4757 286.551 88.1868 282.494 88.1868C278.436 88.1868 275.147 91.4757 275.147 95.5329C275.147 99.59 278.436 102.879 282.494 102.879Z" fill="url(#paint35_linear)"/>
<path d="M282.494 129.968C286.551 129.968 289.84 126.679 289.84 122.622C289.84 118.565 286.551 115.276 282.494 115.276C278.436 115.276 275.147 118.565 275.147 122.622C275.147 126.679 278.436 129.968 282.494 129.968Z" fill="url(#paint36_linear)"/>
<path fill-rule="evenodd" clip-rule="evenodd" d="M263 143H265.231V148H263V143ZM270.253 143H272.484V148H270.253V143ZM279.319 143H277.088V148H279.319V143ZM283.922 143H286.153V148H283.922V143ZM292.988 143H290.756V148H292.988V143ZM297.591 143H299.822V148H297.591V143ZM306.656 143H304.425V148H306.656V143ZM311.26 143H313.491V148H311.26V143ZM320.325 143H318.094V148H320.325V143ZM324.928 143H327.159V148H324.928V143ZM333.994 143H331.763V148H333.994V143ZM338.597 143H340.828V148H338.597V143ZM347.662 143H345.431V148H347.662V143ZM352.266 143H354.497V148H352.266V143ZM361.331 143H359.1V148H361.331V143ZM365.935 143H368.166V148H365.935V143ZM375 143H372.769V148H375V143Z" fill="#233A67"/>
<path d="M438.38 174.674H360.474V250H350.392V174.674H277.068V250H266.986V174.674H189.079V250H178.997V174.674H161.354C158.949 174.674 157 172.733 157 170.337C157 167.942 158.949 166 161.354 166H476.646C479.051 166 481 167.942 481 170.337C481 172.733 479.051 174.674 476.646 174.674H448.463V250H438.38V174.674Z" fill="url(#paint37_linear)"/>
<path d="M581.659 88.5096C573.788 79.9051 578.778 70.9361 584.973 69.9796C591.947 68.9026 608.986 88.6563 608.059 103.625C607.133 118.593 598.881 136.821 596.581 138.905C595.048 140.293 593.299 139.704 591.334 137.137C595.063 119.582 595.869 108.943 593.754 105.22C590.582 99.6349 589.529 97.1141 581.659 88.5096Z" fill="#7C92C8"/>
<path d="M533.307 38.1983C544.12 13.2004 551.135 13.265 556.408 10.3986C561.681 7.53214 561.913 15.0227 561.913 15.0227C561.913 15.0227 545.305 34.2312 545.969 40.6879C546.633 47.1445 527.411 51.827 533.307 38.1983Z" fill="#8097CB"/>
<path d="M553.066 62.3633C553.066 62.3633 560.555 66.0942 555.637 78.2394C554.475 81.1092 550.388 81.6291 544.894 77.4881C538.307 72.5241 526.214 51.8525 532.11 38.2237C532.15 38.3077 532.893 36.9798 532.838 36.0944C532.776 35.0971 531.932 34.4517 532.333 33.0208C533.055 30.4456 535.133 27.9517 535.261 27.9719C537.955 28.3986 541.458 31.117 544.894 32.3036C547.303 33.1357 549.461 33.4775 550.694 34.4604C551.179 34.8469 550.483 38.869 549.194 40.9296C548.596 41.8859 546.745 41.3318 546.902 41.165C544.319 53.1973 553.066 62.3633 553.066 62.3633Z" fill="url(#paint38_linear)"/>
<path d="M559.979 54.7022C559.979 54.7022 558.629 62.4875 557.633 64.4257C556.637 66.3639 545.315 69.3862 554.222 73.3606C563.13 77.335 575.414 62.5463 575.414 62.5463C575.414 62.5463 571.864 60.8624 571.687 57.4801C571.51 54.0979 572.762 51.6137 572.762 51.6137C572.762 51.6137 579.537 37.348 578.246 34.635C576.956 31.9219 565.436 25.83 565.436 25.83C565.436 25.83 551.421 30.7688 551.421 33.4753C551.421 36.1819 552.445 35.9816 552.445 37.8007C552.445 39.6198 551.289 40.621 551.421 41.6449C552.198 47.7052 554.827 51.3692 555.386 52.7526C556.366 55.1783 559.979 54.7022 559.979 54.7022Z" fill="url(#paint39_radial)"/>
<path fill-rule="evenodd" clip-rule="evenodd" d="M577.736 19.6522C576.44 17.8583 570.257 14.1338 567.252 15.1837L567.087 15.2416C561.388 17.2336 557.245 18.6815 550.931 18.6815C549.637 18.6815 549.246 19.8978 548.78 21.3469C548.497 22.2297 548.185 23.1989 547.625 24.032C547.204 24.6583 546.717 25.1144 546.265 25.538C545.025 26.7003 544.046 27.6181 545.393 31.1385C546.676 34.4934 548.925 33.8011 552.722 32.6319C554.361 32.1272 556.288 31.5337 558.552 31.1385C559.228 31.0204 559.64 31.7553 560.228 32.8071C560.607 33.4843 561.06 34.293 561.704 35.0898C562.494 36.0662 565.24 37.5979 565.24 37.5979C565.24 37.5979 565.835 42.3364 564.692 44.4182C563.093 47.3287 559.469 46.3261 556.824 45.5943C555.872 45.331 555.047 45.1027 554.489 45.1044C552.378 45.1108 552.368 46.3114 552.368 46.4732C552.37 48.0602 552.871 53.3213 557.733 54.9495C558.649 55.2563 563.531 54.6462 565.24 51.6944C566.43 49.6385 566.466 48.2817 566.505 46.8389C566.531 45.8424 566.559 44.8048 566.969 43.4676C568.095 39.7934 568.676 38.8063 569.835 39.4342C572.027 40.6215 571.879 45.5291 568.404 47.1695C568.498 47.3672 568.59 47.5625 568.681 47.7549C570.376 51.3313 571.614 53.944 573.587 53.0924C573.775 53.0112 573.962 52.9384 574.149 52.8657C575.759 52.2404 577.335 51.628 579.181 45.7438C579.335 45.2518 579.933 44.6689 580.564 44.0539C581.256 43.3794 581.987 42.6662 582.217 41.9918C582.804 40.2655 582.37 38.7179 581.961 37.2626C581.706 36.3541 581.461 35.4815 581.481 34.6238C581.552 31.5829 579.181 27.0956 579.181 27.0956C579.181 27.0956 580.294 23.1942 577.736 19.6522ZM555.179 47.5575C554.049 47.4579 553.673 48.2005 553.673 48.2005C553.673 48.2005 554.324 51.5263 555.62 51.5263C556.021 51.5263 555.929 51.3004 555.845 51.0924C555.773 50.9149 555.706 50.7504 555.955 50.7504C556.269 50.7504 556.543 51.1077 556.773 51.4075C556.939 51.6244 557.082 51.8112 557.201 51.8112C558.959 51.8112 558.036 48.8391 558.036 48.8391C558.036 48.8391 556.308 47.657 555.179 47.5575Z" fill="url(#paint40_radial)"/>
<path d="M579.889 240.256L579.888 249.793C579.888 249.793 577.434 252.934 573.828 252.934C570.222 252.934 568.305 251.109 568.305 251.109L567.407 241.207L579.889 240.256Z" fill="#7C92C8"/>
<path d="M579.816 249.273C580.644 249.077 580.959 251.835 580.995 254.672C581.008 255.705 580.868 257.317 580.574 259.507C580.454 260.404 579.923 261.167 579.295 261.346C573.219 263.081 564.926 266.661 562.444 266.881C559.963 267.101 554.586 265.56 554.586 265.56V262.227L562.858 255.876C562.858 255.876 566.505 250.845 568.028 249.273C568.549 248.735 569.39 253.428 572.991 252.574C576.593 251.721 578.988 249.469 579.816 249.273Z" fill="url(#paint41_linear)"/>
<path d="M550.67 234.522L550.669 244.059C550.669 244.059 548.215 247.2 544.609 247.2C541.004 247.2 539.087 245.375 539.087 245.375L538.188 235.473L550.67 234.522Z" fill="#7C92C8"/>
<path d="M550.709 242.339C551.729 242.339 551.729 246.078 551.773 248.924C551.79 249.959 551.617 251.538 551.254 253.658C551.106 254.527 550.453 255.164 549.678 255.195C533.307 255.838 522.614 255.82 522.584 255.142C521.276 250.516 533.49 246.631 533.49 246.631C533.49 246.631 536.925 244.208 538.802 242.996C539.444 242.582 539.892 245.932 544.33 245.932C548.768 245.932 549.689 242.339 550.709 242.339Z" fill="url(#paint42_linear)"/>
<path d="M561.049 193.113C564.983 230.88 564.983 243.207 565.822 245.61C567.081 249.215 580.766 249.214 581.659 244.227C582.255 240.902 582.255 222.388 581.661 188.685C584.366 152.868 587.316 147.508 587.147 139.111C586.979 130.713 583.771 117.708 577.523 100.097L561.049 122.93C559.441 119.904 557.467 116.222 555.125 111.885C546.627 106.494 544.23 118.147 541.745 129.246C539.26 140.346 530.638 168.336 532.271 189.926C535.244 229.216 535.82 238.122 536.66 240.525C537.918 244.129 551.604 244.129 552.497 239.141C553.092 235.816 553.091 226.816 552.497 193.113C555.138 180.01 557.835 163.296 560.134 154.956C560.134 154.956 557.781 161.743 561.049 193.113Z" fill="url(#paint43_linear)"/>
<path d="M558.677 61.3778C558.677 61.3778 558.059 63.8783 557.624 64.4818C557.264 64.9803 556.019 65.4311 556.077 65.5402C556.346 66.0455 555.388 71.7204 556.077 72.077C557.037 72.5738 557.605 66.2098 559.297 66.7194C561.971 67.5245 566.346 65.6507 572.793 60.7453C572.891 60.6702 572.069 59.7107 572.231 59.5863C572.331 59.5091 573.705 60.0096 573.705 60.0096C573.705 60.0096 574.581 62.3335 575.242 62.7562C580.616 66.193 584.872 67.6761 586.969 70.1171C590.502 74.2289 585.01 102.126 585.01 102.126C585.01 102.126 587.519 131.575 589.125 140.489C561.95 149.366 538.957 136.518 538.957 136.518C538.957 136.518 542.878 96.3784 543.639 83.7986C544.401 71.2188 551.557 66.7194 551.557 66.7194L558.677 61.3778Z" fill="url(#paint44_linear)"/>
<path d="M556.064 72.8355C556.111 72.5963 555.956 72.3642 555.717 72.317C555.478 72.2698 555.245 72.4254 555.198 72.6645C548.916 104.491 546.823 130.61 548.93 140.496C548.98 140.734 549.215 140.886 549.453 140.835C549.692 140.785 549.844 140.55 549.793 140.312C547.72 130.586 549.806 104.541 556.064 72.8355Z" fill="#5E9FBC"/>
<path d="M562.5 73.6801C566.857 73.173 577.458 69.8439 576.111 63.3016C575.721 63.2221 575.111 62.8632 574.81 62.4262C574.253 61.6196 573.964 60.4616 573.534 60.0669C573.044 59.8178 572.466 59.7187 572.181 59.534C571.944 59.3805 571.962 59.1637 571.925 58.7924C577.063 59.0902 585.149 66.0423 588.05 69.4186C591.583 73.5304 590.765 106.406 590.765 106.406C590.765 106.406 590.765 122.236 592.191 131.191C586.934 132.908 571.85 138.586 568.215 135.581C553.062 123.048 560.946 75.7848 562.5 73.6801Z" fill="url(#paint45_linear)"/>
<path d="M586.341 121.997L575.875 123.58C575.055 123.705 574.247 123.293 573.866 122.556L570.265 115.601L586.341 121.997Z" fill="#6488C4"/>
<path d="M584.771 97.7774C580.754 97.9879 577.166 91.8161 576.756 83.9924C576.346 76.1686 579.27 69.6556 583.286 69.4451C587.303 69.2346 590.891 75.4064 591.301 83.2301C591.711 91.0539 588.787 97.5669 584.771 97.7774Z" fill="url(#paint46_linear)"/>
<path d="M552.628 73.4204C550.236 70.2629 550.86 66.8809 554.964 64.374C555.42 64.0952 558.619 61.4118 558.619 61.4118C558.619 61.4118 559.084 60.4295 559.084 59.5896C556.808 59.8228 550.903 62.2988 547.286 67.2594C544.155 71.5532 540.32 92.284 536.524 109.446C534.856 116.99 529.74 121.665 530.868 122.922C534.561 127.037 537.441 129.033 541.555 129.033C545.669 129.033 544.017 114.268 545.451 99.7371C546.566 88.4286 552.53 75.8465 552.628 73.4204Z" fill="url(#paint47_linear)"/>
<path d="M581.026 88.3713C572.794 79.804 577.933 70.803 584.369 69.8127C591.615 68.6976 609.443 88.3713 608.563 103.353C608.462 105.081 608.259 106.853 607.977 108.638C607.939 108.88 608.828 108.86 608.888 109.101C609.184 110.287 609.72 111.979 609.289 112.926C605.915 120.352 593.127 118.463 593.293 112.926C593.33 111.68 593.763 110.733 593.697 109.725C593.68 109.471 594.83 109.422 594.807 109.183C594.629 107.352 594.259 105.967 593.697 105.026C590.367 99.4551 589.258 96.9385 581.026 88.3713Z" fill="url(#paint48_linear)"/>
<path d="M585.857 29.4786C587.058 30.0645 588.526 29.5679 588.94 28.2969C591.565 20.2368 587.917 11.2693 580.081 7.44731C572.245 3.62532 562.933 6.27184 558.197 13.3027C557.45 14.4114 557.963 15.8736 559.164 16.4596L585.857 29.4786Z" fill="url(#paint49_linear)"/>
<path d="M586.691 22.474C586.774 22.805 587.11 23.006 587.441 22.9229C587.772 22.8398 587.973 22.5041 587.89 22.1731C586.613 17.0861 583.186 12.7875 578.38 10.4432C574.616 8.60759 570.417 8.16639 566.426 9.11137C566.094 9.19 565.889 9.52295 565.967 9.85503C566.046 10.1871 566.379 10.3926 566.711 10.3139C570.427 9.43416 574.333 9.84466 577.838 11.5539C582.313 13.7367 585.502 17.737 586.691 22.474Z" fill="#EE9F3E"/>
<path d="M587.942 30.7293C588.299 29.9975 587.995 29.115 587.263 28.758L550.919 11.0321C550.187 10.6752 549.305 10.9791 548.948 11.7109V11.7109C548.591 12.4426 548.895 13.3252 549.627 13.6821L585.97 31.4081C586.702 31.765 587.585 31.4611 587.942 30.7293V30.7293Z" fill="url(#paint50_linear)"/>
<path d="M597.182 138.227L595.382 142.144C594.773 147.69 594.29 150.563 593.933 150.765C593.577 150.966 593.252 150.01 592.957 147.897C591.193 150.496 590.103 151.821 589.686 151.872C589.27 151.923 589.502 150.534 590.382 147.705C588.004 150.143 586.603 151.278 586.179 151.108C585.756 150.939 586.383 149.282 588.061 146.138C585.722 148.136 584.514 148.866 584.438 148.329C584.361 147.792 585.693 145.75 588.434 142.202C586.247 142.165 585.255 141.893 585.457 141.387C585.66 140.88 587.216 139.879 590.127 138.384C598.08 128.104 600.432 128.052 597.182 138.227Z" fill="#7C92C8"/>
<path d="M162.216 161H475.784C477.008 161 478 161.154 478 161.345V165.655C478 165.846 477.008 166 475.784 166H162.216C160.992 166 160 165.846 160 165.655V161.345C160 161.154 160.992 161 162.216 161Z" fill="url(#paint51_linear)"/>
<path d="M253.92 148H384.08C384.588 148 385 148.401 385 148.897V160.103C385 160.599 384.588 161 384.08 161H253.92C253.412 161 253 160.599 253 160.103V148.897C253 148.401 253.412 148 253.92 148Z" fill="#233A67"/>
<path d="M442.617 32.6311H450.591V68.5112H442.617V32.6311Z" fill="url(#paint52_linear)"/>
<path d="M451.92 22H455.557C457.218 22 458.564 23.3463 458.564 25.0071V30.9529C458.564 32.6137 457.218 33.96 455.557 33.96H451.92V22Z" fill="url(#paint53_linear)"/>
<path d="M428 30.0475C428 29.5865 428.231 29.1561 428.615 28.9009V28.9009C435.387 24.401 443.338 22.0005 451.469 22.0005L453.249 22.0005V33.9605H431.007C429.346 33.9605 428 32.6142 428 30.9534V30.0475Z" fill="url(#paint54_linear)"/>
<path fill-rule="evenodd" clip-rule="evenodd" d="M482.486 23.63C482.486 22.4736 483.737 21.7501 484.739 22.3268L487.045 23.6534C487.512 23.9217 487.799 24.4187 487.799 24.9567V33.1562C487.799 33.6942 487.512 34.1912 487.045 34.4595L483.822 36.3137V51.5402L487.045 53.3944C487.512 53.6627 487.799 54.1597 487.799 54.6977V62.8972C487.799 63.4352 487.512 63.9321 487.045 64.2004L484.739 65.5271C483.737 66.1037 482.486 65.3802 482.486 64.2238V58.7563C482.486 58.2183 482.198 57.7213 481.732 57.453L479.911 56.4053C479.447 56.1383 478.876 56.1383 478.411 56.4053L476.59 57.453C476.124 57.7213 475.837 58.2183 475.837 58.7563V64.2238C475.837 65.3802 474.586 66.1037 473.583 65.5271L471.277 64.2004C470.811 63.9321 470.523 63.4352 470.523 62.8972V54.6977C470.523 54.1597 470.811 53.6627 471.277 53.3944L474.513 51.5328V36.3211L471.277 34.4595C470.811 34.1912 470.523 33.6942 470.523 33.1562V24.9567C470.523 24.4187 470.811 23.9217 471.277 23.6534L473.583 22.3268C474.586 21.7501 475.837 22.4736 475.837 23.63V29.0976C475.837 29.6356 476.124 30.1326 476.59 30.4008L478.411 31.4486C478.876 31.7156 479.447 31.7156 479.911 31.4486L481.732 30.4008C482.198 30.1326 482.486 29.6356 482.486 29.0976V23.63Z" fill="url(#paint55_linear)"/>
<path d="M503.745 25.0073C503.745 23.3466 505.091 22.0002 506.752 22.0002H511.369C513.03 22.0002 514.376 23.3466 514.376 25.0073V48.5781H503.745V25.0073Z" fill="url(#paint56_linear)"/>
<path d="M506.403 47.2493H511.719V67.1826L509.061 71.0941L506.403 67.1826V47.2493Z" fill="url(#paint57_linear)"/>
<path d="M502.417 44.766C502.417 43.9356 503.09 43.2625 503.921 43.2625H514.202C515.033 43.2625 515.706 43.9356 515.706 44.766V47.0745C515.706 47.9049 515.033 48.578 514.202 48.578H503.921C503.09 48.578 502.417 47.9049 502.417 47.0745V44.766Z" fill="url(#paint58_linear)"/>
<path d="M119.687 97.394C111.603 95.9263 109.214 114.48 106.115 117.148C103.023 119.793 96.675 119.044 95.4826 126.399C94.2903 133.754 100.208 135.193 99.2107 141.301C98.214 147.409 85.2803 142.866 83.7292 152.514C82.1781 162.162 91.5089 167.898 90.5643 173.707C89.6197 179.516 83.9651 180.28 81.8866 193.141C79.8082 206.001 89.3131 211.484 104.288 216.954C119.263 222.424 129.95 220.948 132.307 207.115C134.665 193.282 118.324 189.013 118.43 181.082C118.529 173.176 129.951 172.134 131.453 163.255C132.954 154.376 117.379 150.338 118.561 143.241C119.742 136.144 132.92 135.866 134.162 128.496C135.405 121.127 132.637 119.184 127.544 115.065C122.438 110.991 127.771 98.8617 119.687 97.394Z" fill="url(#paint59_linear)"/>
<path d="M104.693 210.142C104.987 210.333 105.331 210.203 105.46 209.852C105.589 209.501 105.456 209.062 105.161 208.871C98.0836 204.324 95.2241 198.405 96.4532 190.915C96.5152 190.537 96.3082 190.147 95.991 190.043C95.6737 189.939 95.3665 190.16 95.3048 190.536C93.9669 198.699 97.1459 205.277 104.693 210.142Z" fill="#98BBE9"/>
<path d="M108.761 179.106C109.09 179.172 109.365 178.909 109.375 178.517C109.386 178.126 109.128 177.756 108.8 177.69C103.477 176.619 99.9209 172.284 98.0429 164.567C97.9487 164.183 97.616 163.921 97.2999 163.981C96.9839 164.041 96.8042 164.4 96.8986 164.783C98.9168 173.062 102.89 177.912 108.761 179.106Z" fill="#98BBE9"/>
<path d="M109.582 136.373C109.81 136.405 110 136.219 110.006 135.959C110.013 135.699 109.834 135.463 109.606 135.432C106.858 135.055 105.025 133.009 104.052 129.197C103.987 128.943 103.757 128.779 103.538 128.83C103.32 128.882 103.195 129.129 103.26 129.383C104.33 133.568 106.452 135.94 109.582 136.373Z" fill="#98BBE9"/>
<path d="M111.226 131.711C111.005 131.635 110.888 131.377 110.964 131.133C111.041 130.89 111.282 130.753 111.502 130.828C114.165 131.733 116.516 130.652 118.64 127.492C118.782 127.281 119.048 127.228 119.234 127.375C119.42 127.521 119.456 127.811 119.314 128.023C116.981 131.496 114.259 132.746 111.226 131.711Z" fill="#98BBE9"/>
<path d="M109.119 169.583C108.801 169.458 108.637 169.066 108.751 168.707C108.865 168.348 109.215 168.158 109.533 168.283C114.235 170.132 118.435 168.302 122.267 162.635C122.476 162.324 122.862 162.258 123.129 162.486C123.395 162.715 123.442 163.152 123.232 163.463C119.091 169.591 114.351 171.653 109.119 169.583Z" fill="#98BBE9"/>
<path d="M109.248 203.675C108.935 203.534 108.774 203.129 108.889 202.77C109.003 202.411 109.35 202.233 109.663 202.373C114.299 204.448 118.457 202.768 122.267 197.179C122.475 196.872 122.856 196.821 123.119 197.064C123.381 197.308 123.425 197.754 123.217 198.06C119.099 204.105 114.408 205.997 109.248 203.675Z" fill="#98BBE9"/>
<path d="M99.9551 235.646C99.8709 236.153 100.144 236.7 100.564 236.868C100.985 237.035 101.966 236.986 102.05 236.477C101.956 233.143 102.361 228.735 103.267 223.251C104.626 215.024 111.018 202.73 111.725 193.326C112.426 183.942 107.211 164.308 107.384 150.13C107.508 138.653 112.304 129.475 114.474 123.117C116.65 116.738 117.417 108.716 117.273 108.687C117.1 108.653 116.277 116.871 114.032 123.019C111.794 129.146 107.73 136.923 106.579 146.447C104.429 164.205 111.413 182.411 109.476 194.051C107.539 205.691 103.055 211.805 100.867 221.863C99.4116 228.559 99.1084 233.15 99.9551 235.646Z" fill="#8FAFDA"/>
<path d="M62.3801 104.834C70.1981 102.444 75.2334 121.119 78.7284 123.58C82.2234 126.04 88.5202 124.806 90.8123 132.304C93.1044 139.801 87.2856 141.58 89.1727 147.752C91.0598 153.924 103.671 148.825 106.71 158.766C109.75 168.706 100.881 174.611 102.685 180.509C104.488 186.407 110.522 187.275 114.545 200.436C118.569 213.596 109.199 218.586 93.9912 223.236C78.7835 227.885 67.3338 226.117 63.3102 212.956C59.2865 199.796 75.7702 195.639 74.6797 187.907C73.5892 180.175 61.684 179.423 59.0725 170.881C56.4611 162.34 71.8435 157.637 69.7097 150.658C67.576 143.679 54.2118 144.302 52.0352 137.182C49.8587 130.063 52.3831 127.899 56.9442 123.35C61.5053 118.8 54.562 107.224 62.3801 104.834Z" fill="url(#paint60_linear)"/>
<path d="M92.7062 216.546C92.4191 216.722 92.0396 216.581 91.8587 216.233C91.6777 215.884 91.7637 215.458 92.0508 215.282C98.9464 211.058 101.184 205.27 98.8872 197.758C98.7715 197.38 98.9364 196.994 99.2555 196.896C99.5746 196.799 99.927 197.027 100.043 197.405C102.55 205.605 100.063 212.039 92.7062 216.546Z" fill="#5ACE87"/>
<path d="M84.275 186.089C83.9418 186.166 83.6305 185.915 83.5797 185.528C83.5289 185.141 83.7579 184.765 84.0911 184.688C89.49 183.439 92.7117 178.977 93.8144 171.13C93.8695 170.739 94.1837 170.459 94.5163 170.506C94.8488 170.552 95.0737 170.908 95.0187 171.3C93.8348 179.724 90.2342 184.71 84.275 186.089Z" fill="#5ACE87"/>
<path d="M77.8156 143.385C77.5882 143.437 77.3755 143.267 77.3404 143.006C77.3053 142.744 77.4612 142.491 77.6886 142.439C80.4315 141.815 82.0617 139.58 82.6187 135.617C82.6558 135.353 82.87 135.164 83.0971 135.196C83.3241 135.228 83.478 135.468 83.4409 135.733C82.8291 140.085 80.9409 142.675 77.8156 143.385Z" fill="#5ACE87"/>
<path d="M75.7444 138.719C75.9618 138.635 76.0431 138.375 75.9261 138.139C75.809 137.902 75.5379 137.779 75.3205 137.863C72.6978 138.88 70.0962 137.939 67.4186 134.965C67.2399 134.766 66.9569 134.73 66.7865 134.883C66.6161 135.037 66.6228 135.322 66.8015 135.52C69.7427 138.787 72.7561 139.878 75.7444 138.719Z" fill="#5ACE87"/>
<path d="M83.0946 176.512C83.4123 176.391 83.5283 176.01 83.3537 175.662C83.1791 175.313 82.78 175.129 82.4623 175.25C77.7545 177.044 73.0464 175.301 68.1947 169.913C67.9301 169.619 67.5148 169.562 67.2669 169.785C67.0191 170.008 67.0326 170.427 67.2971 170.721C72.539 176.543 77.8527 178.509 83.0946 176.512Z" fill="#5ACE87"/>
<path d="M87.33 210.104C87.6477 209.983 87.7637 209.602 87.589 209.253C87.4144 208.905 87.0154 208.721 86.6977 208.842C81.9898 210.635 77.2818 208.893 72.43 203.504C72.1655 203.211 71.7501 203.153 71.5023 203.377C71.2544 203.6 71.2679 204.019 71.5324 204.313C76.7743 210.134 82.088 212.101 87.33 210.104Z" fill="#5ACE87"/>
<path d="M100.943 241.757C101.096 242.258 100.871 242.771 100.44 242.903C100.01 243.035 98.9512 242.914 98.798 242.413C98.798 242.413 98.3343 237.555 95.8632 229.443C93.3921 221.331 85.111 209.099 83.1946 199.89C81.2782 190.682 84.1267 171.19 82.0391 157.011C80.3406 145.474 74.2105 136.52 71.147 130.279C68.0835 124.039 66.2108 116.028 66.3512 115.985C66.5193 115.934 68.4768 124.141 71.5787 130.147C74.6806 136.154 79.8753 143.741 82.3601 153.278C86.9856 171.033 82.1372 189.175 85.6397 200.631C89.1423 212.087 94.6507 218.243 98.2451 228.219C101.839 238.194 100.943 241.757 100.943 241.757Z" fill="#42B16D"/>
<path d="M153.916 131.337C146.697 127.499 139.523 142.365 135.855 143.676C132.188 144.988 126.288 142.489 123.147 148.395C120.007 154.301 125.379 157.158 122.794 162.02C120.209 166.883 108.72 159.625 104.556 167.456C100.392 175.287 108.181 182.379 105.711 187.026C103.24 191.672 97.3305 191.036 91.8179 201.404C86.3052 211.772 94.6911 218.194 108.732 225.66C122.773 233.126 134.003 234.228 139.515 223.86C145.028 213.493 129.699 206.158 131.713 199.776C133.727 193.394 145.268 195.471 148.846 188.742C152.423 182.013 138.221 174.462 141.144 168.964C144.068 163.466 156.839 167.056 159.821 161.448C162.803 155.84 160.646 153.406 156.829 148.461C153.012 143.516 161.134 135.175 153.916 131.337Z" fill="url(#paint61_linear)"/>
<path d="M110.803 220.216C111.057 220.433 111.439 220.399 111.657 220.141C111.875 219.883 111.845 219.499 111.591 219.282C105.489 214.082 104.06 208.606 107.207 202.689C107.365 202.39 107.255 202.022 106.96 201.865C106.666 201.709 106.298 201.823 106.14 202.121C102.705 208.581 104.293 214.668 110.803 220.216Z" fill="#D2DEF8"/>
<path d="M122.366 195.563C122.679 195.685 123.031 195.527 123.152 195.212C123.273 194.897 123.116 194.544 122.803 194.422C117.726 192.458 115.378 188.176 115.732 181.425C115.749 181.088 115.492 180.801 115.156 180.783C114.821 180.765 114.535 181.024 114.517 181.362C114.137 188.61 116.762 193.395 122.366 195.563Z" fill="#D2DEF8"/>
<path d="M134.074 160.635C134.288 160.717 134.529 160.611 134.611 160.398C134.693 160.186 134.587 159.947 134.373 159.865C131.791 158.876 130.599 156.728 130.778 153.319C130.79 153.091 130.614 152.897 130.385 152.885C130.156 152.873 129.96 153.048 129.949 153.275C129.752 157.02 131.133 159.508 134.074 160.635Z" fill="#D2DEF8"/>
<path d="M137.133 157.364C136.945 157.232 136.898 156.974 137.029 156.787C137.159 156.599 137.417 156.554 137.604 156.686C139.868 158.273 142.315 158.06 145.042 156.006C145.224 155.868 145.483 155.906 145.621 156.089C145.759 156.272 145.723 156.532 145.541 156.669C142.546 158.926 139.711 159.172 137.133 157.364Z" fill="#D2DEF8"/>
<path d="M125.575 188.11C125.3 187.92 125.235 187.542 125.429 187.266C125.623 186.991 126.002 186.922 126.277 187.112C130.343 189.932 134.776 189.512 139.717 185.789C139.986 185.586 140.367 185.637 140.568 185.904C140.768 186.17 140.713 186.55 140.443 186.753C135.105 190.776 130.102 191.25 125.575 188.11Z" fill="#D2DEF8"/>
<path d="M117.304 215.953C117.03 215.763 116.964 215.385 117.158 215.109C117.352 214.834 117.732 214.765 118.006 214.955C122.072 217.775 126.505 217.355 131.446 213.632C131.715 213.429 132.096 213.48 132.297 213.747C132.498 214.013 132.442 214.393 132.173 214.596C126.835 218.619 121.832 219.093 117.304 215.953Z" fill="#D2DEF8"/>
<path d="M99.7349 239.956C99.525 240.351 99.6772 240.843 100.075 241.054C100.473 241.266 101.505 241.404 101.715 241.009C101.715 241.009 102.768 236.949 106.157 230.556C109.546 224.164 119.036 215.566 122.029 208.106C125.022 200.646 124.718 183.277 128.496 171.593C131.571 162.086 138.583 155.809 142.308 151.157C146.033 146.505 148.834 140.062 148.705 139.993C148.549 139.911 145.642 146.503 141.91 150.945C138.177 155.387 132.234 160.706 128.654 168.318C121.989 182.488 124.384 199.158 119.586 208.182C114.787 217.207 108.722 221.228 104.02 228.962C99.318 236.695 99.7349 239.956 99.7349 239.956Z" fill="#D2DEF8"/>
<path d="M75.8398 232.191H124.61L113.772 263H86.6777L75.8398 232.191Z" fill="url(#paint62_linear)"/>
<path d="M74.8643 234.042C74.8643 232.489 76.1239 231.229 77.6777 231.229H121.796C123.35 231.229 124.61 232.489 124.61 234.042V238.043C124.61 239.597 123.35 240.857 121.796 240.857H77.6777C76.1239 240.857 74.8643 239.597 74.8643 238.043V234.042Z" fill="url(#paint63_linear)"/>
</g>
<defs>
<filter id="filter0_i" x="86" y="5" width="243.198" height="140.748" filterUnits="userSpaceOnUse" color-interpolation-filters="sRGB">
<feFlood flood-opacity="0" result="BackgroundImageFix"/>
<feBlend mode="normal" in="SourceGraphic" in2="BackgroundImageFix" result="shape"/>
<feColorMatrix in="SourceAlpha" type="matrix" values="0 0 0 0 0 0 0 0 0 0 0 0 0 0 0 0 0 0 127 0" result="hardAlpha"/>
<feOffset dy="-14"/>
<feGaussianBlur stdDeviation="12.5"/>
<feComposite in2="hardAlpha" operator="arithmetic" k2="-1" k3="1"/>
<feColorMatrix type="matrix" values="0 0 0 0 0.788056 0 0 0 0 0.827193 0 0 0 0 0.89764 0 0 0 0.337126 0"/>
<feBlend mode="normal" in2="shape" result="effect1_innerShadow"/>
</filter>
<linearGradient id="paint0_linear" x1="247.663" y1="129.047" x2="260.502" y2="42.6956" gradientUnits="userSpaceOnUse">
<stop stop-color="#ECF1FF"/>
<stop offset="1" stop-color="white"/>
</linearGradient>
<linearGradient id="paint1_linear" x1="246.084" y1="69.6294" x2="226.214" y2="120.228" gradientUnits="userSpaceOnUse">
<stop stop-color="#E5EDFF"/>
<stop offset="1" stop-color="#6B9AD9"/>
</linearGradient>
<linearGradient id="paint2_linear" x1="229.392" y1="90.5481" x2="219.554" y2="111.615" gradientUnits="userSpaceOnUse">
<stop stop-color="#F7FAFF"/>
<stop offset="1" stop-color="#6B9AD9"/>
</linearGradient>
<linearGradient id="paint3_linear" x1="238.955" y1="66.9877" x2="226.167" y2="151.441" gradientUnits="userSpaceOnUse">
<stop stop-color="#F7FAFF"/>
<stop offset="1" stop-color="#6B9AD9"/>
</linearGradient>
<linearGradient id="paint4_linear" x1="190.069" y1="69.6294" x2="170.2" y2="120.228" gradientUnits="userSpaceOnUse">
<stop stop-color="#E5EDFF"/>
<stop offset="1" stop-color="#6B9AD9"/>
</linearGradient>
<linearGradient id="paint5_linear" x1="173.377" y1="90.5481" x2="163.539" y2="111.615" gradientUnits="userSpaceOnUse">
<stop stop-color="#F7FAFF"/>
<stop offset="1" stop-color="#6B9AD9"/>
</linearGradient>
<linearGradient id="paint6_linear" x1="182.939" y1="66.9877" x2="170.151" y2="151.441" gradientUnits="userSpaceOnUse">
<stop stop-color="#F7FAFF"/>
<stop offset="1" stop-color="#6B9AD9"/>
</linearGradient>
<linearGradient id="paint7_linear" x1="346.576" y1="77.7983" x2="306.141" y2="181.705" gradientUnits="userSpaceOnUse">
<stop stop-color="#F7FAFF"/>
<stop offset="1" stop-color="#6B9AD9"/>
</linearGradient>
<linearGradient id="paint8_linear" x1="369.466" y1="77.6699" x2="369.466" y2="95.1233" gradientUnits="userSpaceOnUse">
<stop stop-color="white"/>
<stop offset="1" stop-color="#B3CDEF"/>
</linearGradient>
<linearGradient id="paint9_linear" x1="604" y1="94.27" x2="604" y2="123.585" gradientUnits="userSpaceOnUse">
<stop stop-color="#EBF2FB"/>
<stop offset="1" stop-color="#D2E1F5"/>
</linearGradient>
<linearGradient id="paint10_linear" x1="593.265" y1="54.7963" x2="566.607" y2="129.087" gradientUnits="userSpaceOnUse">
<stop stop-color="#F7FAFF"/>
<stop offset="1" stop-color="#6B9AD9"/>
</linearGradient>
<linearGradient id="paint11_linear" x1="615.364" y1="99.1047" x2="594.85" y2="162.328" gradientUnits="userSpaceOnUse">
<stop stop-color="#F7FAFF"/>
<stop offset="1" stop-color="#6B9AD9"/>
</linearGradient>
<linearGradient id="paint12_linear" x1="384.225" y1="77.7983" x2="343.79" y2="181.705" gradientUnits="userSpaceOnUse">
<stop stop-color="#F7FAFF"/>
<stop offset="1" stop-color="#6B9AD9"/>
</linearGradient>
<linearGradient id="paint13_linear" x1="407.114" y1="77.6699" x2="407.114" y2="95.1233" gradientUnits="userSpaceOnUse">
<stop stop-color="white"/>
<stop offset="1" stop-color="#B3CDEF"/>
</linearGradient>
<linearGradient id="paint14_linear" x1="-11.1722" y1="75.5188" x2="-11.1722" y2="185.995" gradientUnits="userSpaceOnUse">
<stop stop-color="#95B7E5"/>
<stop offset="1" stop-color="#476DB1"/>
</linearGradient>
<linearGradient id="paint15_linear" x1="142" y1="125.836" x2="142" y2="161.189" gradientUnits="userSpaceOnUse">
<stop stop-color="#36558E"/>
<stop offset="1" stop-color="#233A67"/>
</linearGradient>
<linearGradient id="paint16_linear" x1="200.028" y1="75.5188" x2="200.028" y2="185.995" gradientUnits="userSpaceOnUse">
<stop stop-color="#95B7E5"/>
<stop offset="1" stop-color="#476DB1"/>
</linearGradient>
<linearGradient id="paint17_linear" x1="353.2" y1="125.836" x2="353.2" y2="161.189" gradientUnits="userSpaceOnUse">
<stop stop-color="#36558E"/>
<stop offset="1" stop-color="#233A67"/>
</linearGradient>
<linearGradient id="paint18_linear" x1="164.085" y1="133.56" x2="159.789" y2="149.364" gradientUnits="userSpaceOnUse">
<stop stop-color="#476DB1"/>
<stop offset="1" stop-color="#283F6F"/>
</linearGradient>
<linearGradient id="paint19_linear" x1="200.815" y1="133.56" x2="196.519" y2="149.364" gradientUnits="userSpaceOnUse">
<stop stop-color="#476DB1"/>
<stop offset="1" stop-color="#283F6F"/>
</linearGradient>
<linearGradient id="paint20_linear" x1="237.546" y1="133.56" x2="233.25" y2="149.364" gradientUnits="userSpaceOnUse">
<stop stop-color="#476DB1"/>
<stop offset="1" stop-color="#283F6F"/>
</linearGradient>
<linearGradient id="paint21_linear" x1="471.703" y1="133.56" x2="467.407" y2="149.364" gradientUnits="userSpaceOnUse">
<stop stop-color="#476DB1"/>
<stop offset="1" stop-color="#283F6F"/>
</linearGradient>
<linearGradient id="paint22_linear" x1="434.972" y1="133.56" x2="430.676" y2="149.364" gradientUnits="userSpaceOnUse">
<stop stop-color="#476DB1"/>
<stop offset="1" stop-color="#283F6F"/>
</linearGradient>
<linearGradient id="paint23_linear" x1="398.242" y1="133.56" x2="393.946" y2="149.364" gradientUnits="userSpaceOnUse">
<stop stop-color="#476DB1"/>
<stop offset="1" stop-color="#283F6F"/>
</linearGradient>
<linearGradient id="paint24_linear" x1="307.109" y1="38.4633" x2="278.572" y2="143.449" gradientUnits="userSpaceOnUse">
<stop stop-color="#476DB1"/>
<stop offset="1" stop-color="#283F6F"/>
</linearGradient>
<linearGradient id="paint25_linear" x1="255.123" y1="95.7377" x2="243.326" y2="178.17" gradientUnits="userSpaceOnUse">
<stop stop-color="#F7FAFF"/>
<stop offset="1" stop-color="#6B9AD9"/>
</linearGradient>
<linearGradient id="paint26_linear" x1="307.287" y1="101.961" x2="307.287" y2="129.968" gradientUnits="userSpaceOnUse">
<stop stop-color="#36558E"/>
<stop offset="1" stop-color="#233A67"/>
</linearGradient>
<linearGradient id="paint27_linear" x1="358.973" y1="121.026" x2="358.495" y2="123.536" gradientUnits="userSpaceOnUse">
<stop stop-color="#3485F7"/>
<stop offset="1" stop-color="#1A57CF"/>
</linearGradient>
<linearGradient id="paint28_linear" x1="358.973" y1="105.415" x2="358.495" y2="107.925" gradientUnits="userSpaceOnUse">
<stop stop-color="#3485F7"/>
<stop offset="1" stop-color="#1A57CF"/>
</linearGradient>
<linearGradient id="paint29_linear" x1="358.973" y1="112.762" x2="358.495" y2="115.271" gradientUnits="userSpaceOnUse">
<stop stop-color="#3485F7"/>
<stop offset="1" stop-color="#1A57CF"/>
</linearGradient>
<linearGradient id="paint30_linear" x1="255.123" y1="57.1706" x2="243.326" y2="139.602" gradientUnits="userSpaceOnUse">
<stop stop-color="#F7FAFF"/>
<stop offset="1" stop-color="#6B9AD9"/>
</linearGradient>
<linearGradient id="paint31_linear" x1="307.287" y1="63.394" x2="307.287" y2="91.4011" gradientUnits="userSpaceOnUse">
<stop stop-color="#36558E"/>
<stop offset="1" stop-color="#233A67"/>
</linearGradient>
<linearGradient id="paint32_linear" x1="355.665" y1="68.5778" x2="350.229" y2="85.7222" gradientUnits="userSpaceOnUse">
<stop stop-color="#FF6B67"/>
<stop offset="1" stop-color="#F05971"/>
</linearGradient>
<linearGradient id="paint33_linear" x1="356.049" y1="75.6461" x2="354.07" y2="86.3636" gradientUnits="userSpaceOnUse">
<stop stop-color="#FF6B67"/>
<stop offset="1" stop-color="#F05971"/>
</linearGradient>
<linearGradient id="paint34_linear" x1="277.801" y1="66.916" x2="283.775" y2="73.6687" gradientUnits="userSpaceOnUse">
<stop stop-color="white"/>
<stop offset="1" stop-color="#DCE7F8"/>
</linearGradient>
<linearGradient id="paint35_linear" x1="274.348" y1="86.5887" x2="274.348" y2="102.879" gradientUnits="userSpaceOnUse">
<stop stop-color="#FFE579"/>
<stop offset="1" stop-color="#FEB755"/>
</linearGradient>
<linearGradient id="paint36_linear" x1="287.452" y1="116.663" x2="280.203" y2="125.059" gradientUnits="userSpaceOnUse">
<stop stop-color="#FF6B67"/>
<stop offset="1" stop-color="#F05971"/>
</linearGradient>
<linearGradient id="paint37_linear" x1="-114.282" y1="-22.1501" x2="-114.282" y2="219.128" gradientUnits="userSpaceOnUse">
<stop stop-color="#476DB1"/>
<stop offset="1" stop-color="#283F6F"/>
</linearGradient>
<linearGradient id="paint38_linear" x1="486.835" y1="98.176" x2="540.643" y2="106.032" gradientUnits="userSpaceOnUse">
<stop stop-color="white"/>
<stop offset="1" stop-color="#E5EEFF"/>
</linearGradient>
<radialGradient id="paint39_radial" cx="0" cy="0" r="1" gradientUnits="userSpaceOnUse" gradientTransform="translate(564.456 49.7844) rotate(87) scale(23.8702 14.6836)">
<stop stop-color="#E1EDFF"/>
<stop offset="1" stop-color="#AEB8E3"/>
</radialGradient>
<radialGradient id="paint40_radial" cx="0" cy="0" r="1" gradientUnits="userSpaceOnUse" gradientTransform="translate(582.27 34.0029) rotate(-136.558) scale(27.0751 29.7555)">
<stop stop-color="#032258"/>
<stop offset="1" stop-color="#133E94"/>
</radialGradient>
<linearGradient id="paint41_linear" x1="580.996" y1="249.23" x2="554.586" y2="249.23" gradientUnits="userSpaceOnUse">
<stop stop-color="#2865C6"/>
<stop offset="1" stop-color="#10378A"/>
</linearGradient>
<linearGradient id="paint42_linear" x1="551.774" y1="242.339" x2="522.486" y2="242.339" gradientUnits="userSpaceOnUse">
<stop stop-color="#2865C6"/>
<stop offset="1" stop-color="#10378A"/>
</linearGradient>
<linearGradient id="paint43_linear" x1="546.311" y1="144.603" x2="585.888" y2="160.369" gradientUnits="userSpaceOnUse">
<stop stop-color="#2664C7"/>
<stop offset="1" stop-color="#3D82F0"/>
</linearGradient>
<linearGradient id="paint44_linear" x1="603.254" y1="63.1392" x2="593.972" y2="147.473" gradientUnits="userSpaceOnUse">
<stop stop-color="white"/>
<stop offset="1" stop-color="#E5EEFF"/>
</linearGradient>
<linearGradient id="paint45_linear" x1="613.393" y1="61.2404" x2="591.713" y2="142.154" gradientUnits="userSpaceOnUse">
<stop stop-color="#F7FAFF"/>
<stop offset="1" stop-color="#6B9AD9"/>
</linearGradient>
<linearGradient id="paint46_linear" x1="588.918" y1="67.6256" x2="596.097" y2="94.7835" gradientUnits="userSpaceOnUse">
<stop stop-color="white"/>
<stop offset="1" stop-color="#E5EEFF"/>
</linearGradient>
<linearGradient id="paint47_linear" x1="549.591" y1="48.9383" x2="528.929" y2="126.048" gradientUnits="userSpaceOnUse">
<stop stop-color="#F7FAFF"/>
<stop offset="0.932292" stop-color="#6B9AD9"/>
</linearGradient>
<linearGradient id="paint48_linear" x1="564.055" y1="88.4203" x2="597.654" y2="123.27" gradientUnits="userSpaceOnUse">
<stop stop-color="white"/>
<stop offset="1" stop-color="#E5EEFF"/>
</linearGradient>
<linearGradient id="paint49_linear" x1="550.378" y1="19.0107" x2="559.859" y2="-0.428317" gradientUnits="userSpaceOnUse">
<stop stop-color="#FDE76B"/>
<stop offset="1" stop-color="#FAB539"/>
</linearGradient>
<linearGradient id="paint50_linear" x1="542.438" y1="12.4576" x2="544.54" y2="8.26003" gradientUnits="userSpaceOnUse">
<stop stop-color="#FDE76B"/>
<stop offset="1" stop-color="#FAB539"/>
</linearGradient>
<linearGradient id="paint51_linear" x1="-432.333" y1="152.656" x2="-432.333" y2="177.272" gradientUnits="userSpaceOnUse">
<stop stop-color="#476DB1"/>
<stop offset="1" stop-color="#283F6F"/>
</linearGradient>
<linearGradient id="paint52_linear" x1="438.46" y1="-4.78802" x2="438.46" y2="68.5112" gradientUnits="userSpaceOnUse">
<stop stop-color="white"/>
<stop offset="1" stop-color="#B3CDEF"/>
</linearGradient>
<linearGradient id="paint53_linear" x1="448.455" y1="9.52696" x2="448.455" y2="33.96" gradientUnits="userSpaceOnUse">
<stop stop-color="white"/>
<stop offset="1" stop-color="#B3CDEF"/>
</linearGradient>
<linearGradient id="paint54_linear" x1="390.52" y1="67.5364" x2="471.306" y2="67.5364" gradientUnits="userSpaceOnUse">
<stop stop-color="#E5EDFF"/>
<stop offset="1" stop-color="#6B9AD9"/>
</linearGradient>
<linearGradient id="paint55_linear" x1="461.515" y1="-23.3515" x2="461.515" y2="65.7296" gradientUnits="userSpaceOnUse">
<stop stop-color="white"/>
<stop offset="1" stop-color="#B3CDEF"/>
</linearGradient>
<linearGradient id="paint56_linear" x1="498.202" y1="-5.71763" x2="498.202" y2="48.5781" gradientUnits="userSpaceOnUse">
<stop stop-color="white"/>
<stop offset="1" stop-color="#B3CDEF"/>
</linearGradient>
<linearGradient id="paint57_linear" x1="503.632" y1="22.3816" x2="503.632" y2="71.0941" gradientUnits="userSpaceOnUse">
<stop stop-color="white"/>
<stop offset="1" stop-color="#B3CDEF"/>
</linearGradient>
<linearGradient id="paint58_linear" x1="482.691" y1="63.5006" x2="525.209" y2="63.5006" gradientUnits="userSpaceOnUse">
<stop stop-color="#E5EDFF"/>
<stop offset="1" stop-color="#6B9AD9"/>
</linearGradient>
<linearGradient id="paint59_linear" x1="225.965" y1="-1.68685" x2="158.743" y2="232.746" gradientUnits="userSpaceOnUse">
<stop stop-color="white"/>
<stop offset="1" stop-color="#B3CDEF"/>
</linearGradient>
<linearGradient id="paint60_linear" x1="52.0214" y1="160.203" x2="115.999" y2="234.428" gradientUnits="userSpaceOnUse">
<stop stop-color="#84F0A8"/>
<stop offset="1" stop-color="#48B676"/>
</linearGradient>
<linearGradient id="paint61_linear" x1="110.596" y1="199.248" x2="97.7124" y2="197.731" gradientUnits="userSpaceOnUse">
<stop stop-color="#EAEFFF"/>
<stop offset="1" stop-color="#F7F9FE"/>
</linearGradient>
<linearGradient id="paint62_linear" x1="114.663" y1="214.019" x2="106.883" y2="263.695" gradientUnits="userSpaceOnUse">
<stop stop-color="#E5EDFF"/>
<stop offset="1" stop-color="#6B9AD9"/>
</linearGradient>
<linearGradient id="paint63_linear" x1="73.0075" y1="223.282" x2="73.1574" y2="252.784" gradientUnits="userSpaceOnUse">
<stop stop-color="#E5EDFF"/>
<stop offset="1" stop-color="#6B9AD9"/>
</linearGradient>
</defs>
</svg>
