<svg width="30" height="31" viewBox="0 0 30 31" fill="none" xmlns="http://www.w3.org/2000/svg">
<path fill-rule="evenodd" clip-rule="evenodd" d="M5.45455 4.09091C5.45455 1.83156 7.28611 0 9.54545 0H25.9091C28.1684 0 30 1.83156 30 4.09091V20.4545C30 22.7139 28.1684 24.5455 25.9091 24.5455H9.54545C7.28611 24.5455 5.45455 22.7139 5.45455 20.4545V4.09091ZM9.54545 2.72727C8.79234 2.72727 8.18182 3.33779 8.18182 4.09091V20.4545C8.18182 21.2077 8.79234 21.8182 9.54545 21.8182H25.9091C26.6622 21.8182 27.2727 21.2077 27.2727 20.4545V4.09091C27.2727 3.33779 26.6622 2.72727 25.9091 2.72727H9.54545Z" fill="#353B44"/>
<path fill-rule="evenodd" clip-rule="evenodd" d="M1.36364 5.45455C2.11675 5.45455 2.72727 6.06507 2.72727 6.81818V25.9108C2.72727 26.6639 3.33779 27.2744 4.09091 27.2744H23.1818C23.9349 27.2744 24.5455 27.8849 24.5455 28.638C24.5455 29.3911 23.9349 30.0017 23.1818 30.0017H4.09091C1.83156 30.0017 0 28.1701 0 25.9108V6.81818C0 6.06507 0.610521 5.45455 1.36364 5.45455Z" fill="#353B44"/>
<path fill-rule="evenodd" clip-rule="evenodd" d="M17.0455 9.54545C16.6689 9.54545 16.3636 9.85072 16.3636 10.2273C16.3636 10.6038 16.6689 10.9091 17.0455 10.9091H18.4091C20.2919 10.9091 21.8182 12.4354 21.8182 14.3182C21.8182 16.201 20.2919 17.7273 18.4091 17.7273H15C14.2469 17.7273 13.6364 17.1168 13.6364 16.3636C13.6364 15.6105 14.2469 15 15 15H18.4091C18.7857 15 19.0909 14.6947 19.0909 14.3182C19.0909 13.9416 18.7857 13.6364 18.4091 13.6364H17.0455C15.1627 13.6364 13.6364 12.1101 13.6364 10.2273C13.6364 8.34448 15.1627 6.81818 17.0455 6.81818H20.4545C21.2077 6.81818 21.8182 7.4287 21.8182 8.18182C21.8182 8.93493 21.2077 9.54545 20.4545 9.54545H17.0455Z" fill="#353B44"/>
<path fill-rule="evenodd" clip-rule="evenodd" d="M17.7273 15C18.4804 15 19.0909 15.6105 19.0909 16.3636V19.0909C19.0909 19.844 18.4804 20.4545 17.7273 20.4545C16.9742 20.4545 16.3636 19.844 16.3636 19.0909V16.3636C16.3636 15.6105 16.9742 15 17.7273 15Z" fill="#353B44"/>
<path fill-rule="evenodd" clip-rule="evenodd" d="M17.7273 4.09091C18.4804 4.09091 19.0909 4.70143 19.0909 5.45455V8.18182C19.0909 8.93493 18.4804 9.54545 17.7273 9.54545C16.9742 9.54545 16.3636 8.93493 16.3636 8.18182V5.45455C16.3636 4.70143 16.9742 4.09091 17.7273 4.09091Z" fill="#353B44"/>
<path fill-rule="evenodd" clip-rule="evenodd" d="M17.0092 9.55464C16.6326 9.55464 16.3274 9.8599 16.3274 10.2365C16.3274 10.613 16.6326 10.9183 17.0092 10.9183H18.3728C20.2556 10.9183 21.7819 12.4446 21.7819 14.3274C21.7819 16.2102 20.2556 17.7365 18.3728 17.7365H14.9637C14.2106 17.7365 13.6001 17.1259 13.6001 16.3728C13.6001 15.6197 14.2106 15.0092 14.9637 15.0092H18.3728C18.7494 15.0092 19.0546 14.7039 19.0546 14.3274C19.0546 13.9508 18.7494 13.6456 18.3728 13.6456H17.0092C15.1264 13.6456 13.6001 12.1193 13.6001 10.2365C13.6001 8.35367 15.1264 6.82737 17.0092 6.82737H20.4183C21.1714 6.82737 21.7819 7.43789 21.7819 8.19101C21.7819 8.94412 21.1714 9.55464 20.4183 9.55464H17.0092Z" fill="#0A6ED1"/>
<path fill-rule="evenodd" clip-rule="evenodd" d="M17.691 15.0092C18.4441 15.0092 19.0546 15.6197 19.0546 16.3728V19.1001C19.0546 19.8532 18.4441 20.4637 17.691 20.4637C16.9379 20.4637 16.3274 19.8532 16.3274 19.1001V16.3728C16.3274 15.6197 16.9379 15.0092 17.691 15.0092Z" fill="#0A6ED1"/>
<path fill-rule="evenodd" clip-rule="evenodd" d="M17.691 4.1001C18.4441 4.1001 19.0546 4.71062 19.0546 5.46373V8.19101C19.0546 8.94412 18.4441 9.55464 17.691 9.55464C16.9379 9.55464 16.3274 8.94412 16.3274 8.19101V5.46373C16.3274 4.71062 16.9379 4.1001 17.691 4.1001Z" fill="#0A6ED1"/>
</svg>
