<svg width="30" height="30" viewBox="0 0 30 30" fill="none" xmlns="http://www.w3.org/2000/svg">
<path fill-rule="evenodd" clip-rule="evenodd" d="M0 15C0 6.71573 6.71573 0 15 0C23.2843 0 30 6.71573 30 15C30 18.3243 27.3185 21.0054 24 21.0054V18.0054C25.6601 18.0054 27 16.669 27 15C27 8.37258 21.6274 3 15 3C8.37258 3 3 8.37258 3 15C3 21.6274 8.37258 27 15 27C15.5892 27 16.0559 26.8747 16.4081 26.7078C14.7116 26.0646 13.5 24.4245 13.5 22.5029C13.5 20.0234 15.5137 18.0054 18 18.0054H24V21.0054H18C17.1713 21.0054 16.5 21.6796 16.5 22.5029C16.5 23.3231 17.1736 23.9984 18 23.9984C18.4252 23.9984 18.9138 24.0948 19.3488 24.4017C19.804 24.7229 20.0709 25.1845 20.1702 25.6622C20.3502 26.5286 19.9834 27.3354 19.5984 27.8727C18.7605 29.0425 17.1282 30 15 30C6.71573 30 0 23.2843 0 15ZM17.2332 25.9978C17.2332 25.9978 17.2322 26.0037 17.2268 26.0156C17.2299 26.0038 17.2332 25.9978 17.2332 25.9978Z" fill="#000000"/>
<path fill-rule="evenodd" clip-rule="evenodd" d="M22.4269 15.85C23.6823 15.85 24.7 14.8323 24.7 13.5769C24.7 12.3215 23.6823 11.3038 22.4269 11.3038C21.1715 11.3038 20.1538 12.3215 20.1538 13.5769C20.1538 14.8323 21.1715 15.85 22.4269 15.85Z" fill="#0A6ED1"/>
<path fill-rule="evenodd" clip-rule="evenodd" d="M18.6385 10.5462C19.8938 10.5462 20.9115 9.52846 20.9115 8.27308C20.9115 7.01769 19.8938 6 18.6385 6C17.3831 6 16.3654 7.01769 16.3654 8.27308C16.3654 9.52846 17.3831 10.5462 18.6385 10.5462Z" fill="#0A6ED1"/>
<path fill-rule="evenodd" clip-rule="evenodd" d="M11.0615 10.5462C12.3169 10.5462 13.3346 9.52846 13.3346 8.27308C13.3346 7.01769 12.3169 6 11.0615 6C9.80615 6 8.78846 7.01769 8.78846 8.27308C8.78846 9.52846 9.80615 10.5462 11.0615 10.5462Z" fill="#0A6ED1"/>
<path fill-rule="evenodd" clip-rule="evenodd" d="M7.27308 15.85C8.52846 15.85 9.54615 14.8323 9.54615 13.5769C9.54615 12.3215 8.52846 11.3038 7.27308 11.3038C6.01769 11.3038 5 12.3215 5 13.5769C5 14.8323 6.01769 15.85 7.27308 15.85Z" fill="#0A6ED1"/>
</svg>
