<svg width="30" height="30" viewBox="0 0 30 30" fill="none" xmlns="http://www.w3.org/2000/svg">
<path fill-rule="evenodd" clip-rule="evenodd" d="M19.0909 28.3696C19.0902 29.1508 18.4799 29.7837 17.7273 29.7837L12.2727 29.7837C11.5198 29.7837 10.9094 29.1504 10.9091 28.3689L10.9067 22.1178C10.9064 21.3362 11.5167 20.7023 12.2698 20.702C13.0229 20.7017 13.6337 21.3351 13.634 22.1167L13.6358 26.9531L16.3648 26.9531L16.369 22.1147C16.3696 21.333 16.9807 20.6999 17.7338 20.7006C18.4869 20.7013 19.0969 21.3355 19.0962 22.1172L19.0909 28.3696Z" fill="#000000"/>
<path fill-rule="evenodd" clip-rule="evenodd" d="M23.1818 15.6307C23.1818 20.3206 19.5187 24.1225 15 24.1225C10.4813 24.1225 6.81818 20.3206 6.81818 15.6307C6.81818 10.9408 10.4813 7.13885 15 7.13885C19.5187 7.13885 23.1818 10.9408 23.1818 15.6307ZM15 21.2919C18.0125 21.2919 20.4545 18.7573 20.4545 15.6307C20.4545 12.5041 18.0125 9.96945 15 9.96945C11.9875 9.96945 9.54545 12.5041 9.54545 15.6307C9.54545 18.7573 11.9875 21.2919 15 21.2919Z" fill="#000000"/>
<path fill-rule="evenodd" clip-rule="evenodd" d="M4.09091 15.5681C4.09091 16.3497 3.48038 16.9834 2.72727 16.9834H1.36363C0.610519 16.9834 0 16.3497 0 15.5681C0 14.7864 0.610519 14.1528 1.36363 14.1528H2.72727C3.48038 14.1528 4.09091 14.7864 4.09091 15.5681Z" fill="#0A6ED1"/>
<path fill-rule="evenodd" clip-rule="evenodd" d="M30 15.5681C30 16.3497 29.3895 16.9834 28.6364 16.9834H27.2727C26.5196 16.9834 25.9091 16.3497 25.9091 15.5681C25.9091 14.7864 26.5196 14.1528 27.2727 14.1528H28.6364C29.3895 14.1528 30 14.7864 30 15.5681Z" fill="#0A6ED1"/>
<path fill-rule="evenodd" clip-rule="evenodd" d="M15 4.24567C14.2469 4.24567 13.6364 3.61202 13.6364 2.83037L13.6364 1.41507C13.6364 0.633415 14.2469 -0.000236511 15 -0.000236511C15.7531 -0.000236511 16.3636 0.633415 16.3636 1.41507V2.83037C16.3636 3.61202 15.7531 4.24567 15 4.24567Z" fill="#0A6ED1"/>
<path fill-rule="evenodd" clip-rule="evenodd" d="M7.1006 7.3694C6.56807 7.92211 5.70466 7.92211 5.17212 7.3694L3.80849 5.95409C3.27595 5.40138 3.27595 4.50526 3.80849 3.95255C4.34102 3.39984 5.20443 3.39984 5.73696 3.95255L7.1006 5.36786C7.63313 5.92057 7.63313 6.81669 7.1006 7.3694Z" fill="#0A6ED1"/>
<path fill-rule="evenodd" clip-rule="evenodd" d="M22.8994 7.3694C22.3669 6.81669 22.3669 5.92057 22.8994 5.36786L24.263 3.95255C24.7956 3.39984 25.659 3.39984 26.1915 3.95255C26.724 4.50526 26.724 5.40138 26.1915 5.95409L24.8279 7.3694C24.2953 7.92211 23.4319 7.92211 22.8994 7.3694Z" fill="#0A6ED1"/>
</svg>
