<svg width="30" height="30" viewBox="0 0 30 30" fill="none" xmlns="http://www.w3.org/2000/svg">
<path fill-rule="evenodd" clip-rule="evenodd" d="M12.6631 24.1459C13.1838 23.8855 13.758 23.75 14.3402 23.75H15.6598C16.242 23.75 16.8162 23.8855 17.3369 24.1459L19.309 25.132C19.8275 25.3912 20.0998 25.973 19.9666 26.5372C19.8334 27.1014 19.3297 27.5 18.75 27.5H11.25C10.6703 27.5 10.1666 27.1014 10.0334 26.5372C9.90025 25.973 10.1725 25.3912 10.691 25.132L12.6631 24.1459Z" fill="#353B44"/>
<path fill-rule="evenodd" clip-rule="evenodd" d="M15 22.5C16.3807 22.5 17.5 21.3807 17.5 20C17.5 18.6193 16.3807 17.5 15 17.5C13.6193 17.5 12.5 18.6193 12.5 20C12.5 21.3807 13.6193 22.5 15 22.5Z" fill="#353B44"/>
<path fill-rule="evenodd" clip-rule="evenodd" d="M15.3661 2.86612C15.6005 2.6317 15.9185 2.5 16.25 2.5H26.25C26.9404 2.5 27.5 3.05964 27.5 3.75V8.75C27.5 9.44036 26.9404 10 26.25 10C25.5596 10 25 9.44036 25 8.75V5H16.7678L10 11.7678V21.25C10 21.9404 9.44036 22.5 8.75 22.5C8.05964 22.5 7.5 21.9404 7.5 21.25V11.25C7.5 10.9185 7.6317 10.6005 7.86612 10.3661L15.3661 2.86612Z" fill="#353B44"/>
<path fill-rule="evenodd" clip-rule="evenodd" d="M24.375 17.5C24.0298 17.5 23.75 17.7798 23.75 18.125C23.75 18.4702 24.0298 18.75 24.375 18.75H25.625C27.3509 18.75 28.75 20.1491 28.75 21.875C28.75 23.6009 27.3509 25 25.625 25H22.5C21.8096 25 21.25 24.4404 21.25 23.75C21.25 23.0596 21.8096 22.5 22.5 22.5H25.625C25.9702 22.5 26.25 22.2202 26.25 21.875C26.25 21.5298 25.9702 21.25 25.625 21.25H24.375C22.6491 21.25 21.25 19.8509 21.25 18.125C21.25 16.3991 22.6491 15 24.375 15H27.5C28.1904 15 28.75 15.5596 28.75 16.25C28.75 16.9404 28.1904 17.5 27.5 17.5H24.375Z" fill="#353B44"/>
<path fill-rule="evenodd" clip-rule="evenodd" d="M25 12.5C25.6904 12.5 26.25 13.0596 26.25 13.75V15C26.25 15.6904 25.6904 16.25 25 16.25C24.3096 16.25 23.75 15.6904 23.75 15V13.75C23.75 13.0596 24.3096 12.5 25 12.5Z" fill="#353B44"/>
<path fill-rule="evenodd" clip-rule="evenodd" d="M25 23.75C25.6904 23.75 26.25 24.3096 26.25 25V26.25C26.25 26.9404 25.6904 27.5 25 27.5C24.3096 27.5 23.75 26.9404 23.75 26.25V25C23.75 24.3096 24.3096 23.75 25 23.75Z" fill="#353B44"/>
<path fill-rule="evenodd" clip-rule="evenodd" d="M10 11.25H13.75C15.1307 11.25 16.25 10.1307 16.25 8.75V5" fill="#353B44"/>
<path fill-rule="evenodd" clip-rule="evenodd" d="M10.8839 2.86612C11.372 3.35427 11.372 4.14573 10.8839 4.63388L5 10.5178V26.25C5 26.9404 4.44036 27.5 3.75 27.5C3.05964 27.5 2.5 26.9404 2.5 26.25V10C2.5 9.66848 2.6317 9.35054 2.86612 9.11612L9.11612 2.86612C9.60427 2.37796 10.3957 2.37796 10.8839 2.86612Z" fill="#353B44"/>
<path fill-rule="evenodd" clip-rule="evenodd" d="M24.375 17.5C24.0298 17.5 23.75 17.7798 23.75 18.125C23.75 18.4702 24.0298 18.75 24.375 18.75H25.625C27.3509 18.75 28.75 20.1491 28.75 21.875C28.75 23.6009 27.3509 25 25.625 25H22.5C21.8096 25 21.25 24.4404 21.25 23.75C21.25 23.0596 21.8096 22.5 22.5 22.5H25.625C25.9702 22.5 26.25 22.2202 26.25 21.875C26.25 21.5298 25.9702 21.25 25.625 21.25H24.375C22.6491 21.25 21.25 19.8509 21.25 18.125C21.25 16.3991 22.6491 15 24.375 15H27.5C28.1904 15 28.75 15.5596 28.75 16.25C28.75 16.9404 28.1904 17.5 27.5 17.5H24.375Z" fill="#0A6ED1"/>
<path fill-rule="evenodd" clip-rule="evenodd" d="M25 12.5C25.6904 12.5 26.25 13.0596 26.25 13.75V15C26.25 15.6904 25.6904 16.25 25 16.25C24.3096 16.25 23.75 15.6904 23.75 15V13.75C23.75 13.0596 24.3096 12.5 25 12.5Z" fill="#0A6ED1"/>
<path fill-rule="evenodd" clip-rule="evenodd" d="M25 23.75C25.6904 23.75 26.25 24.3096 26.25 25V26.25C26.25 26.9404 25.6904 27.5 25 27.5C24.3096 27.5 23.75 26.9404 23.75 26.25V25C23.75 24.3096 24.3096 23.75 25 23.75Z" fill="#0A6ED1"/>
</svg>
