<svg width="36" height="36" viewBox="0 0 36 36" fill="none" xmlns="http://www.w3.org/2000/svg">
<circle cx="18" cy="18" r="18" fill="#0A6ED1"/>
<path fill-rule="evenodd" clip-rule="evenodd" d="M9.125 17.4583C9.125 12.856 12.856 9.125 17.4583 9.125C22.0607 9.125 25.7917 12.856 25.7917 17.4583C25.7917 22.0607 22.0607 25.7917 17.4583 25.7917C12.856 25.7917 9.125 22.0607 9.125 17.4583ZM17.4583 11.2083C14.0066 11.2083 11.2083 14.0066 11.2083 17.4583C11.2083 20.9101 14.0066 23.7083 17.4583 23.7083C20.9101 23.7083 23.7083 20.9101 23.7083 17.4583C23.7083 14.0066 20.9101 11.2083 17.4583 11.2083Z" fill="white"/>
<path fill-rule="evenodd" clip-rule="evenodd" d="M21.9301 21.9301C22.3369 21.5233 22.9964 21.5233 23.4032 21.9301L27.5699 26.0968C27.9767 26.5036 27.9767 27.1631 27.5699 27.5699C27.1631 27.9767 26.5036 27.9767 26.0968 27.5699L21.9301 23.4032C21.5233 22.9964 21.5233 22.3369 21.9301 21.9301Z" fill="white"/>
</svg>
