<svg width="20" height="21" viewBox="0 0 20 21" fill="none" xmlns="http://www.w3.org/2000/svg">
<path d="M17.5742 5.78125C17.6914 5.94531 17.75 6.08594 17.75 6.20312C17.75 6.34375 17.6914 6.47266 17.5742 6.58984L6.14844 18.0508C6.05469 18.1445 5.96094 18.1914 5.86719 18.1914L2 19L2.77344 15.1328C2.77344 15.0156 2.82031 14.9102 2.91406 14.8164L14.375 3.39062C14.4688 3.29687 14.5977 3.25 14.7617 3.25C14.9258 3.25 15.0547 3.29687 15.1484 3.39062L17.5742 5.78125ZM13.3203 9.26172L11.7031 7.67969L3.82812 15.5195L5.44531 17.1367L13.3203 9.26172ZM16.3789 6.16797L14.7617 4.62109L12.5117 6.87109L14.0938 8.45312L16.3789 6.16797Z" fill="#979797"/>
</svg>
