<svg width="1440" height="764" viewBox="0 0 1440 764" fill="none" xmlns="http://www.w3.org/2000/svg">
<mask id="mask0" mask-type="alpha" maskUnits="userSpaceOnUse" x="-229" y="-479" width="1735" height="1243">
<path fill-rule="evenodd" clip-rule="evenodd" d="M-36.6254 13.7331C-36.6254 13.7331 273.169 -189.849 764.207 -121.989C1255.25 -54.1278 1357.56 -479 1357.56 -479H1506V126.841L1463.11 362.083C1463.11 362.083 1095.29 593.69 825.557 546.605C555.828 499.52 278.629 473.151 -79.9303 722.506C-438.489 971.861 -36.6254 13.7331 -36.6254 13.7331Z" fill="white"/>
</mask>
<g mask="url(#mask0)">
<path fill-rule="evenodd" clip-rule="evenodd" d="M-26.6253 14.7331C-26.6253 14.7331 283.169 -188.849 774.207 -120.989C1265.25 -53.1278 1367.56 -478 1367.56 -478H1516V127.841L1473.11 363.083C1473.11 363.083 1105.29 594.69 835.557 547.605C565.828 500.52 288.629 474.151 -69.9303 723.506C-428.489 972.861 -26.6253 14.7331 -26.6253 14.7331Z" fill="url(#paint0_linear)"/>
<path fill-rule="evenodd" clip-rule="evenodd" d="M1049.63 32.8692C1049.63 32.8692 856.137 94.3519 903.818 217.781C951.499 341.211 693.625 415.368 693.625 415.368C693.625 415.368 275.37 559.597 1026.5 643.373C1777.62 727.149 1181.74 -18.5515 1181.74 -18.5515L1049.63 32.8692Z" fill="url(#paint1_linear)"/>
<path fill-rule="evenodd" clip-rule="evenodd" d="M1386.49 -62.2052C1386.49 -62.2052 1193 -0.722542 1240.68 122.707C1288.36 246.136 1030.49 320.294 1030.49 320.294C1030.49 320.294 612.231 464.523 1363.36 548.299C2114.48 632.075 1518.6 -113.626 1518.6 -113.626L1386.49 -62.2052Z" fill="url(#paint2_linear)"/>
<path fill-rule="evenodd" clip-rule="evenodd" d="M751.227 -41.5306C751.227 -41.5306 837.272 280.206 951.477 188.709C1065.68 97.2115 1226.5 188.709 1226.5 188.709C1226.5 188.709 1484.16 356.66 1182.28 -198.785C880.4 -754.229 751.227 -41.5306 751.227 -41.5306Z" fill="url(#paint3_linear)"/>
<path opacity="0.45" fill-rule="evenodd" clip-rule="evenodd" d="M-76.8229 638.128C-76.8229 638.128 314.573 428.706 655.03 638.128C995.488 847.55 1440.34 335.952 1440.34 335.952C1440.34 335.952 1847.52 -184.665 2191.88 401.906C2536.23 988.476 701.753 1118.91 701.753 1118.91L-151.429 918.666L-76.8229 638.128Z" fill="url(#paint4_linear)"/>
<path opacity="0.2" fill-rule="evenodd" clip-rule="evenodd" d="M-28.097 475.593C-28.097 475.593 368.49 284.685 703.311 509.973C1038.13 735.261 1495.97 244.872 1495.97 244.872C1495.97 244.872 1916.41 -256.3 2245.34 346.09C2574.28 948.48 737.539 992.654 737.539 992.654L-109.931 752.455L-28.097 475.593Z" fill="white"/>
<g opacity="0.4" filter="url(#filter0_i)">
<path fill-rule="evenodd" clip-rule="evenodd" d="M830.288 466.357C863.315 444.779 944.854 438.826 1021.11 470.113C1097.36 501.399 1202.16 510.173 1235.96 495.651C1269.77 481.128 1380.2 489.933 1434.29 527.198C1488.38 564.462 1349.4 724.313 1160.84 675.919C1046.65 646.669 894.709 571.431 830.288 466.357Z" fill="#D6E3FA"/>
</g>
<mask id="mask1" mask-type="alpha" maskUnits="userSpaceOnUse" x="830" y="448" width="617" height="237">
<path fill-rule="evenodd" clip-rule="evenodd" d="M830.288 466.357C863.315 444.779 944.854 438.826 1021.11 470.113C1097.36 501.399 1202.16 510.173 1235.96 495.651C1269.77 481.128 1380.2 489.933 1434.29 527.198C1488.38 564.462 1349.4 724.313 1160.84 675.919C1046.65 646.669 894.709 571.431 830.288 466.357Z" fill="white"/>
</mask>
<g mask="url(#mask1)">
<path fill-rule="evenodd" clip-rule="evenodd" d="M1042.86 503C1040.37 501.46 982.498 461.653 978.432 455.844C974.367 450.036 1026.37 467.93 1026.37 467.93C1026.37 467.93 1045.36 504.539 1042.86 503Z" fill="url(#paint5_linear)" style="mix-blend-mode:multiply"/>
<path fill-rule="evenodd" clip-rule="evenodd" d="M930.931 499.996C928.435 498.456 870.565 458.649 866.5 452.84C862.435 447.031 903.125 448.352 903.125 448.352C903.125 448.352 933.428 501.535 930.931 499.996Z" fill="url(#paint6_linear)" style="mix-blend-mode:multiply"/>
</g>
<path fill-rule="evenodd" clip-rule="evenodd" d="M956.108 446.067C956.108 454.068 956.108 457.561 954.654 462.484C953.2 467.408 988.391 486.774 1028.88 467.988C1028.88 456.646 1030.28 451.8 1031.36 447.634C1032.44 443.469 959.129 440.183 956.108 446.067Z" fill="url(#paint7_linear)"/>
<mask id="mask2" mask-type="alpha" maskUnits="userSpaceOnUse" x="954" y="442" width="78" height="35">
<path fill-rule="evenodd" clip-rule="evenodd" d="M956.108 446.067C956.108 454.068 956.108 457.561 954.654 462.484C953.2 467.408 988.391 486.774 1028.88 467.988C1028.88 456.646 1030.28 451.8 1031.36 447.634C1032.44 443.469 959.129 440.183 956.108 446.067Z" fill="white"/>
</mask>
<g mask="url(#mask2)">
<g opacity="0.5">
<path fill-rule="evenodd" clip-rule="evenodd" d="M960.001 449.404C963.069 452.673 1006.36 469.63 1028.89 462.888C1051.41 456.146 1028.89 449.404 1028.89 449.404C1028.89 449.404 956.932 446.134 960.001 449.404Z" fill="url(#paint8_linear)" style="mix-blend-mode:multiply"/>
</g>
</g>
<path fill-rule="evenodd" clip-rule="evenodd" d="M954.948 461.234C962.456 471.999 1001.36 477.367 1028.09 466.987C1049.1 499.89 1039.16 534.438 1027.63 641.768C1029.2 681.88 1026.06 718.482 1024.5 768.097C1021.82 771.967 1015.2 773.203 1007.72 770.448C1003.59 732.464 996.704 725.035 991.062 646.811C988.138 620.114 985.281 538.356 985.281 538.356C985.281 538.356 964.422 577.376 943.783 633.848C958.084 663.848 949.823 701.975 963.649 751.069C958.366 759.634 952.889 759.72 946.919 757.907C938.461 733.982 921.086 691.368 909.472 639.567C909.472 618.398 912.458 562.541 954.948 461.234Z" fill="url(#paint9_linear)"/>
<path fill-rule="evenodd" clip-rule="evenodd" d="M989.792 227.206C989.792 227.206 1001.48 213.541 1013.72 207.175C1033.56 205.788 1055.85 230.609 1055.22 242.397C1054.59 254.185 1047.39 258.627 1040.22 263.13C1033.05 267.633 989.792 227.206 989.792 227.206Z" fill="url(#paint10_linear)"/>
<path fill-rule="evenodd" clip-rule="evenodd" d="M988.796 286.738C1025.58 303.887 1039.26 311.211 1051.73 297.322C1064.21 283.432 1054.34 249.017 1021.98 226.924C989.621 204.832 959.864 206.807 951.747 224.211C943.63 241.614 952.012 269.588 988.796 286.738Z" fill="url(#paint11_radial)"/>
<path fill-rule="evenodd" clip-rule="evenodd" d="M977.349 347.968C981.777 335.867 992.576 320.835 991.22 309.789C989.864 298.744 1024.16 280.702 1022.95 288.41C1021.73 296.117 1019.46 339.509 1028.75 343.734C1038.04 347.959 972.92 360.07 977.349 347.968Z" fill="url(#paint12_linear)"/>
<path fill-rule="evenodd" clip-rule="evenodd" d="M992.762 235.504C982.253 241.036 969.754 246.085 972.931 272.495C976.109 298.905 975.567 305.654 987.208 315.751C995.045 315.751 1005.31 318.917 1013.04 308.621C1014.31 306.934 1017.41 292.236 1018.93 291.799C1020.83 291.254 1022.75 290.147 1023.96 287.055C1027.25 278.643 1025.61 270.089 1023.96 266.551C1021.26 260.765 1003.27 229.973 992.762 235.504Z" fill="url(#paint13_linear)"/>
<path fill-rule="evenodd" clip-rule="evenodd" d="M991.054 238.382C982.891 241.338 970.143 247.248 973.877 273.422C977.611 299.595 982.666 309.078 991.054 314.371C999.442 319.664 980.472 339.257 979.204 347.474C977.935 355.692 967.467 334.376 967.622 325.539C967.777 316.702 967.693 308.082 967.622 292.041C967.551 276.001 963.373 252.68 977.067 241.112C990.762 229.544 999.218 235.427 991.054 238.382Z" fill="url(#paint14_linear)"/>
<path fill-rule="evenodd" clip-rule="evenodd" d="M983.524 239.551C986.292 241.751 982.907 247.237 988.671 257.032C994.858 267.546 1002.19 273.199 1017.11 270.842C1024.94 269.607 1016.42 295.26 1008.93 306.902C1001.44 318.543 995.706 338.126 1006.68 355.514C1027.88 355.514 1037.82 344.526 1037.82 344.526C1037.82 344.526 1037.82 319.565 1037.82 289.112C1037.82 258.658 1020.33 242.046 1008.93 236.614C997.538 231.182 978.29 235.391 983.524 239.551Z" fill="url(#paint15_radial)"/>
<g filter="url(#filter1_i)">
<path fill-rule="evenodd" clip-rule="evenodd" d="M903.44 310.874C903.44 310.874 936.4 323.645 956.694 329.417C976.988 335.189 971.955 348.542 989.907 349.279C1007.86 350.015 1026.65 351.384 1032.99 335.189C1039.34 318.994 1063.55 339.751 1060.62 353.426C1059.55 358.401 1054.35 380.82 1052.78 394.995C1050.04 419.778 1039.33 440.795 1037.55 449.41C1034.75 462.953 953.449 460.391 955.126 441.753C957.348 417.067 948.807 376.458 947.287 374.667C944.619 371.525 920.913 365.29 903.44 360.766C903.44 341.655 903.44 310.874 903.44 310.874Z" fill="url(#paint16_linear)"/>
</g>
<path fill-rule="evenodd" clip-rule="evenodd" d="M902.656 361.038C907.852 361.038 912.063 355.741 912.063 339.778C912.063 323.814 907.852 310.874 902.656 310.874C897.46 310.874 893.249 323.814 893.249 339.778C893.249 355.741 897.46 361.038 902.656 361.038Z" fill="url(#paint17_linear)"/>
<path fill-rule="evenodd" clip-rule="evenodd" d="M911.957 346.449C901.015 344.08 871.807 332.12 868.975 331.788C866.143 331.456 847.452 322.39 834.486 317.194C821.52 311.997 808.744 297.293 802.093 295.573C795.442 293.853 795.694 278.293 807.779 282.729C819.864 287.163 832.912 290.83 843.555 294.261C854.198 297.692 862.549 303.442 873.225 304.228C883.9 305.014 893.417 308.262 903.995 311.005C911.957 317.194 913.164 337.394 911.957 346.449Z" fill="url(#paint18_linear)"/>
<mask id="mask3" mask-type="alpha" maskUnits="userSpaceOnUse" x="797" y="281" width="116" height="66">
<path fill-rule="evenodd" clip-rule="evenodd" d="M911.957 346.449C901.015 344.08 871.807 332.12 868.975 331.788C866.143 331.456 847.452 322.39 834.486 317.194C821.52 311.997 808.744 297.293 802.093 295.573C795.442 293.853 795.694 278.293 807.779 282.729C819.864 287.163 832.912 290.83 843.555 294.261C854.198 297.692 862.549 303.442 873.225 304.228C883.9 305.014 893.417 308.262 903.995 311.005C911.957 317.194 913.164 337.394 911.957 346.449Z" fill="white"/>
</mask>
<g mask="url(#mask3)">
<path fill-rule="evenodd" clip-rule="evenodd" d="M904.475 311.19C904.475 311.19 899.608 338.258 892.937 343.715C886.267 349.171 925.193 351.929 925.193 351.929L904.475 311.19Z" fill="url(#paint19_linear)"/>
</g>
<path fill-rule="evenodd" clip-rule="evenodd" d="M780.664 272.221C780.664 272.221 771.702 273.39 769.671 274.628C767.64 275.867 762.2 282.255 761.457 283.271C760.713 284.287 755.886 289.582 756.653 290.923C757.42 292.264 760.578 292.317 761.745 289.985C762.911 287.653 763.808 287.682 765.111 285.85C766.928 285.463 771.924 281.768 773.356 281.617C774.788 281.467 786.893 285.96 786.893 285.96C786.893 285.96 793.687 284.012 791.112 278.455C788.537 272.898 780.664 272.221 780.664 272.221Z" fill="#90AADB"/>
<path fill-rule="evenodd" clip-rule="evenodd" d="M781.667 287.269C778.69 287.582 771.177 287.9 769.212 287.429C767.247 286.958 762.806 287.196 763.129 290.264C763.451 293.332 767.649 293.609 769.891 293.893C772.133 294.178 775.621 294.719 778.666 295.904C781.711 297.09 789.943 297.942 793.874 297.11C797.805 296.278 802.709 296.605 804.236 297.103C805.762 297.601 809.695 286.573 807.49 282.616C801.629 281.196 788.509 272.126 786.913 271.943C785.953 271.833 780.147 277.899 783.443 281.726C786.141 284.859 783.44 287.083 781.667 287.269Z" fill="#A1B8E3"/>
<path fill-rule="evenodd" clip-rule="evenodd" d="M758.409 270.54C753.67 269.256 750.386 266.669 751.943 263.789C753.5 260.909 755.497 263.463 757.752 264.282C760.007 265.1 770.006 267.129 772.758 267.41C774.07 267.544 777.228 268.516 780.301 269.672C783.675 270.942 786.32 270.466 786.933 271.316C788.104 272.939 790.031 283.993 784.424 281.559C778.817 279.124 778.199 277.149 774.493 274.656C770.787 272.163 763.15 271.824 758.409 270.54Z" fill="#A1B8E3"/>
<path fill-rule="evenodd" clip-rule="evenodd" d="M1118.46 173.822C1118.46 173.822 1126.94 153.614 1138.18 145.608C1157.61 141.477 1176.38 161.13 1179.66 171.761C1182.94 182.391 1176.2 193.166 1169.73 198.622C1163.26 204.078 1118.46 173.822 1118.46 173.822Z" fill="url(#paint20_linear)"/>
<path fill-rule="evenodd" clip-rule="evenodd" d="M1124.15 227.542C1160.92 244.686 1172.13 243.97 1184.6 230.078C1197.08 216.187 1189.68 189.81 1157.33 167.722C1124.98 145.634 1095.23 147.613 1087.11 165.018C1079 182.423 1087.37 210.397 1124.15 227.542Z" fill="url(#paint21_radial)"/>
<path fill-rule="evenodd" clip-rule="evenodd" d="M1154.65 237.691C1154.65 243.549 1152.12 264.453 1154.65 270.722C1155.51 272.848 1153.85 277.06 1154.65 278.742C1157.61 284.96 1140.61 299.313 1140.61 299.313L1135.42 345.362H1117.46C1117.46 345.362 1121.5 303.395 1119.56 299.313C1117.61 295.232 1117.46 287.832 1117.46 280.873C1117.46 273.913 1117.46 259.828 1121.74 253.515C1126.02 247.202 1154.65 229.663 1154.65 237.691Z" fill="url(#paint22_linear)"/>
<mask id="mask4" mask-type="alpha" maskUnits="userSpaceOnUse" x="1117" y="235" width="38" height="111">
<path fill-rule="evenodd" clip-rule="evenodd" d="M1154.65 237.691C1154.65 243.549 1152.12 264.453 1154.65 270.722C1155.51 272.848 1153.85 277.06 1154.65 278.742C1157.61 284.96 1140.61 299.313 1140.61 299.313L1135.42 345.362H1117.46C1117.46 345.362 1121.5 303.395 1119.56 299.313C1117.61 295.232 1117.46 287.832 1117.46 280.873C1117.46 273.913 1117.46 259.828 1121.74 253.515C1126.02 247.202 1154.65 229.663 1154.65 237.691Z" fill="white"/>
</mask>
<g mask="url(#mask4)">
<g opacity="0.153292">
<path fill-rule="evenodd" clip-rule="evenodd" d="M1125.31 267.919C1126.83 268.525 1128.31 269.09 1129.72 269.616C1156.58 279.577 1164.11 275.354 1164.11 267.919C1164.11 260.091 1154.67 223.338 1154.67 223.338C1154.67 223.338 1094.85 255.824 1125.31 267.919Z" fill="url(#paint23_linear)" style="mix-blend-mode:multiply"/>
</g>
</g>
<path fill-rule="evenodd" clip-rule="evenodd" d="M1110.03 179.472C1106.29 188.982 1102.31 193.793 1104.18 205.742C1106.05 217.691 1104.25 216.688 1103.11 223.17C1101.98 229.653 1100.54 235.002 1103.7 247.445C1106.86 259.888 1108.82 268.587 1119 268.547C1129.18 268.507 1142.3 266.298 1146.62 258.631C1148.36 255.536 1149.07 253.833 1150.3 248.982C1151.16 245.571 1151.83 243.228 1151.83 238.345C1154.04 243.733 1158.68 240.857 1159.03 240.576C1161.76 238.348 1164.22 233.24 1164.45 228.421C1164.93 218.762 1161.74 196.393 1150.69 192.696C1139.63 188.999 1113.76 169.962 1110.03 179.472Z" fill="url(#paint24_linear)"/>
<path fill-rule="evenodd" clip-rule="evenodd" d="M1186.85 475.107C1190.62 486.921 1198.97 516.913 1198.58 539.197C1198.19 561.48 1194.69 701.462 1189.68 815.093C1181.56 819.812 1164.36 819.671 1154.79 814.621C1146.16 725.376 1131.95 549.945 1131.95 549.945C1129.05 579.809 1106.49 799.862 1106.49 808.602C1106.49 817.341 1084 819.38 1076.32 813.388C1073.99 712.952 1064.33 526.523 1064.33 526.523L1073.99 473.137C1073.99 473.137 1183.08 463.293 1186.85 475.107Z" fill="url(#paint25_linear)"/>
<mask id="mask5" mask-type="alpha" maskUnits="userSpaceOnUse" x="1064" y="469" width="135" height="350">
<path fill-rule="evenodd" clip-rule="evenodd" d="M1186.85 475.107C1190.62 486.921 1198.97 516.913 1198.58 539.197C1198.19 561.48 1194.69 701.462 1189.68 815.093C1181.56 819.812 1164.36 819.671 1154.79 814.621C1146.16 725.376 1131.95 549.945 1131.95 549.945C1129.05 579.809 1106.49 799.862 1106.49 808.602C1106.49 817.341 1084 819.38 1076.32 813.388C1073.99 712.952 1064.33 526.523 1064.33 526.523L1073.99 473.137C1073.99 473.137 1183.08 463.293 1186.85 475.107Z" fill="white"/>
</mask>
<g mask="url(#mask5)">
<path fill-rule="evenodd" clip-rule="evenodd" d="M1110.98 765.507C1099.75 717.763 1110.98 571.428 1130.77 552.018C1139.45 562.819 1122.22 813.251 1110.98 765.507Z" fill="url(#paint26_linear)" style="mix-blend-mode:multiply"/>
<path fill-rule="evenodd" clip-rule="evenodd" d="M1090.59 492.553C1092.37 493.155 1099.48 502.259 1101.4 502.888C1124.85 510.558 1153.43 511.101 1184.86 505.239C1218.87 498.896 1192.73 476.643 1192.73 476.643C1192.73 476.643 1067.16 484.613 1090.59 492.553Z" fill="url(#paint27_linear)" style="mix-blend-mode:multiply"/>
</g>
<path fill-rule="evenodd" clip-rule="evenodd" d="M1067.92 525.716C1070.76 517.288 1068.9 505.647 1075.61 504.823C1071.27 494.351 1079.24 458.331 1079.24 458.331C1079.24 458.331 1044.38 443.232 1048.15 454.555C1051.91 465.878 1056.29 505.552 1060.49 513.334C1064.69 521.117 1065.07 534.143 1067.92 525.716Z" fill="url(#paint28_linear)"/>
<mask id="mask6" mask-type="alpha" maskUnits="userSpaceOnUse" x="1047" y="450" width="33" height="79">
<path fill-rule="evenodd" clip-rule="evenodd" d="M1067.92 525.716C1070.76 517.288 1068.9 505.647 1075.61 504.823C1071.27 494.351 1079.24 458.331 1079.24 458.331C1079.24 458.331 1044.38 443.232 1048.15 454.555C1051.91 465.878 1056.29 505.552 1060.49 513.334C1064.69 521.117 1065.07 534.143 1067.92 525.716Z" fill="white"/>
</mask>
<g mask="url(#mask6)">
<g opacity="0.3">
<path fill-rule="evenodd" clip-rule="evenodd" d="M1080.67 513.264C1072.34 502.629 1060.82 495.063 1060.82 479.775C1060.82 464.486 1070.75 456.017 1070.75 456.017C1070.75 456.017 1089.01 523.9 1080.67 513.264Z" fill="url(#paint29_linear)" style="mix-blend-mode:multiply"/>
</g>
</g>
<path fill-rule="evenodd" clip-rule="evenodd" d="M1113.81 283.29C1113.81 283.29 1099.23 294.861 1095.61 295.834C1092 296.806 1068.49 306.559 1067.1 309.549C1065.71 312.538 1058.43 323.833 1058.67 326.883C1058.91 329.933 1068.4 397.109 1067.1 428.816C1065.8 460.523 1067.1 456.212 1067.1 463.689C1067.1 471.167 1061.6 481.397 1064.35 487.024C1067.1 492.65 1071.83 493.974 1079.03 495.581C1086.24 497.189 1091.43 499.068 1101.68 495.581C1111.93 492.095 1117.67 500.032 1134.61 497.807C1151.56 495.581 1166.1 502.602 1178.86 485.559C1183.55 488.577 1185.98 486.585 1193.46 482.384C1200.95 478.182 1200.38 463.222 1198.13 458.032C1195.89 452.843 1185.83 447.396 1189.65 435.844C1193.46 424.291 1198.13 385.763 1198.13 368.374C1198.13 350.985 1208.36 319.623 1211.54 309.549C1202.46 302.723 1163.09 281 1155.59 278.737C1152.66 286.563 1138.4 290.497 1136.06 288.41C1133.71 286.324 1135.1 303.132 1135.1 303.132C1135.1 303.132 1132.28 309.549 1129.64 316.284C1127 323.02 1120.9 333.572 1120.9 340.835C1115.33 335.232 1122.1 319.077 1120.9 312.817C1119.52 305.617 1122.29 298.815 1125.34 289.363C1120.9 288.322 1120.51 290.098 1119.14 288.214C1115.54 283.29 1113.81 283.29 1113.81 283.29Z" fill="url(#paint30_linear)"/>
<path fill-rule="evenodd" clip-rule="evenodd" d="M1113.81 283.29C1113.81 283.29 1099.23 294.861 1095.61 295.834C1092 296.806 1068.49 306.559 1067.1 309.549C1065.71 312.538 1058.43 323.833 1058.67 326.883C1058.91 329.933 1068.4 397.109 1067.1 428.816C1065.8 460.523 1067.1 456.212 1067.1 463.689C1067.1 471.167 1061.6 481.397 1064.35 487.024C1067.1 492.65 1071.83 493.974 1079.03 495.581C1086.24 497.189 1091.43 499.068 1101.68 495.581C1111.93 492.095 1117.67 500.032 1134.61 497.807C1151.56 495.581 1166.1 502.602 1178.86 485.559C1183.55 488.577 1185.98 486.585 1193.46 482.384C1200.95 478.182 1200.38 463.222 1198.13 458.032C1195.89 452.843 1185.83 447.396 1189.65 435.844C1193.46 424.291 1198.13 385.763 1198.13 368.374C1198.13 350.985 1208.36 319.623 1211.54 309.549C1202.46 302.723 1163.09 281 1155.59 278.737C1152.66 286.563 1138.4 290.497 1136.06 288.41C1133.71 286.324 1135.1 303.132 1135.1 303.132C1135.1 303.132 1132.28 309.549 1129.64 316.284C1127 323.02 1120.9 333.572 1120.9 340.835C1115.33 335.232 1122.1 319.077 1120.9 312.817C1119.52 305.617 1122.29 298.815 1125.34 289.363C1120.9 288.322 1120.51 290.098 1119.14 288.214C1115.54 283.29 1113.81 283.29 1113.81 283.29Z" fill="url(#paint31_linear)"/>
<path fill-rule="evenodd" clip-rule="evenodd" d="M1113.81 283.29C1113.81 283.29 1099.23 294.861 1095.61 295.834C1092 296.806 1068.49 306.559 1067.1 309.549C1065.71 312.538 1058.43 323.833 1058.67 326.883C1058.91 329.933 1068.4 397.109 1067.1 428.816C1065.8 460.523 1067.1 456.212 1067.1 463.689C1067.1 471.167 1061.6 481.397 1064.35 487.024C1067.1 492.65 1071.83 493.974 1079.03 495.581C1086.24 497.189 1091.43 499.068 1101.68 495.581C1111.93 492.095 1117.67 500.032 1134.61 497.807C1151.56 495.581 1166.1 502.602 1178.86 485.559C1183.55 488.577 1185.98 486.585 1193.46 482.384C1200.95 478.182 1200.38 463.222 1198.13 458.032C1195.89 452.843 1185.83 447.396 1189.65 435.844C1193.46 424.291 1198.13 385.763 1198.13 368.374C1198.13 350.985 1208.36 319.623 1211.54 309.549C1202.46 302.723 1163.09 281 1155.59 278.737C1152.66 286.563 1138.4 290.497 1136.06 288.41C1133.71 286.324 1135.1 303.132 1135.1 303.132C1135.1 303.132 1132.28 309.549 1129.64 316.284C1127 323.02 1120.9 333.572 1120.9 340.835C1115.33 335.232 1122.1 319.077 1120.9 312.817C1119.52 305.617 1122.29 298.815 1125.34 289.363C1120.9 288.322 1120.51 290.098 1119.14 288.214C1115.54 283.29 1113.81 283.29 1113.81 283.29Z" fill="url(#paint32_linear)"/>
<mask id="mask7" mask-type="alpha" maskUnits="userSpaceOnUse" x="1058" y="278" width="154" height="221">
<path fill-rule="evenodd" clip-rule="evenodd" d="M1113.81 283.29C1113.81 283.29 1099.23 294.861 1095.61 295.834C1092 296.806 1068.49 306.559 1067.1 309.549C1065.71 312.538 1058.43 323.833 1058.67 326.883C1058.91 329.933 1068.4 397.109 1067.1 428.816C1065.8 460.523 1067.1 456.212 1067.1 463.689C1067.1 471.167 1061.6 481.397 1064.35 487.024C1067.1 492.65 1071.83 493.974 1079.03 495.581C1086.24 497.189 1091.43 499.068 1101.68 495.581C1111.93 492.095 1117.67 500.032 1134.61 497.807C1151.56 495.581 1166.1 502.602 1178.86 485.559C1183.55 488.577 1185.98 486.585 1193.46 482.384C1200.95 478.182 1200.38 463.222 1198.13 458.032C1195.89 452.843 1185.83 447.396 1189.65 435.844C1193.46 424.291 1198.13 385.763 1198.13 368.374C1198.13 350.985 1208.36 319.623 1211.54 309.549C1202.46 302.723 1163.09 281 1155.59 278.737C1152.66 286.563 1138.4 290.497 1136.06 288.41C1133.71 286.324 1135.1 303.132 1135.1 303.132C1135.1 303.132 1132.28 309.549 1129.64 316.284C1127 323.02 1120.9 333.572 1120.9 340.835C1115.33 335.232 1122.1 319.077 1120.9 312.817C1119.52 305.617 1122.29 298.815 1125.34 289.363C1120.9 288.322 1120.51 290.098 1119.14 288.214C1115.54 283.29 1113.81 283.29 1113.81 283.29Z" fill="white"/>
<path fill-rule="evenodd" clip-rule="evenodd" d="M1113.81 283.29C1113.81 283.29 1099.23 294.861 1095.61 295.834C1092 296.806 1068.49 306.559 1067.1 309.549C1065.71 312.538 1058.43 323.833 1058.67 326.883C1058.91 329.933 1068.4 397.109 1067.1 428.816C1065.8 460.523 1067.1 456.212 1067.1 463.689C1067.1 471.167 1061.6 481.397 1064.35 487.024C1067.1 492.65 1071.83 493.974 1079.03 495.581C1086.24 497.189 1091.43 499.068 1101.68 495.581C1111.93 492.095 1117.67 500.032 1134.61 497.807C1151.56 495.581 1166.1 502.602 1178.86 485.559C1183.55 488.577 1185.98 486.585 1193.46 482.384C1200.95 478.182 1200.38 463.222 1198.13 458.032C1195.89 452.843 1185.83 447.396 1189.65 435.844C1193.46 424.291 1198.13 385.763 1198.13 368.374C1198.13 350.985 1208.36 319.623 1211.54 309.549C1202.46 302.723 1163.09 281 1155.59 278.737C1152.66 286.563 1138.4 290.497 1136.06 288.41C1133.71 286.324 1135.1 303.132 1135.1 303.132C1135.1 303.132 1132.28 309.549 1129.64 316.284C1127 323.02 1120.9 333.572 1120.9 340.835C1115.33 335.232 1122.1 319.077 1120.9 312.817C1119.52 305.617 1122.29 298.815 1125.34 289.363C1120.9 288.322 1120.51 290.098 1119.14 288.214C1115.54 283.29 1113.81 283.29 1113.81 283.29Z" stroke="white"/>
</mask>
<g mask="url(#mask7)">
<g opacity="0.2">
<mask id="path-45-outside-1" maskUnits="userSpaceOnUse" x="1105.35" y="347.713" width="18" height="148" fill="black">
<rect fill="white" x="1105.35" y="347.713" width="18" height="148"/>
<path fill-rule="evenodd" clip-rule="evenodd" d="M1114.33 494.288C1110.41 482.531 1108.05 420.609 1111.97 400.23C1115.89 379.85 1119.81 353.984 1119.03 348.497"/>
</mask>
<path d="M1111.97 400.23L1115.9 400.985L1115.9 400.985L1111.97 400.23ZM1118.12 493.023C1117.31 490.594 1116.45 484.979 1115.74 477.133C1115.03 469.455 1114.5 460.06 1114.21 450.372C1113.62 430.843 1114.04 410.684 1115.9 400.985L1108.05 399.474C1105.99 410.155 1105.62 431.146 1106.21 450.613C1106.51 460.422 1107.05 469.985 1107.77 477.861C1108.47 485.569 1109.38 492.104 1110.53 495.553L1118.12 493.023ZM1115.9 400.985C1117.87 390.74 1119.84 379.113 1121.23 369.339C1121.92 364.455 1122.47 359.998 1122.79 356.39C1123.1 352.946 1123.26 349.839 1122.99 347.931L1115.07 349.063C1115.19 349.899 1115.15 352.083 1114.82 355.668C1114.51 359.091 1113.99 363.402 1113.3 368.218C1111.94 377.844 1109.99 389.34 1108.05 399.474L1115.9 400.985Z" fill="#6FA7FF" mask="url(#path-45-outside-1)"/>
</g>
<path fill-rule="evenodd" clip-rule="evenodd" d="M1191.46 496.925C1168.7 449.722 1178.85 381.391 1190.27 370.67C1201.7 359.95 1227.14 473.318 1218.81 483.351C1210.48 493.384 1214.22 544.128 1191.46 496.925Z" fill="url(#paint33_linear)" style="mix-blend-mode:multiply"/>
<path fill-rule="evenodd" clip-rule="evenodd" d="M1111.75 308.007C1117 302.925 1125.76 296.366 1125.76 296.366V284.802L1115.43 293.154C1115.43 293.154 1106.5 313.088 1111.75 308.007Z" fill="url(#paint34_linear)" style="mix-blend-mode:multiply"/>
<path fill-rule="evenodd" clip-rule="evenodd" d="M1133.41 303.171C1136.26 304.978 1144.74 305.266 1144.74 305.266C1144.74 305.266 1137.57 282.038 1133.41 283.886C1129.25 285.735 1130.56 301.364 1133.41 303.171Z" fill="url(#paint35_linear)" style="mix-blend-mode:multiply"/>
</g>
<path fill-rule="evenodd" clip-rule="evenodd" d="M1139.32 353.984C1145.44 353.984 1168.08 357.695 1177.04 353.984C1177.04 373.314 1175.19 389.879 1174.24 397.713C1166.97 404.667 1155.64 405.716 1155.64 405.716L1137.73 395.792C1137.73 395.792 1135.83 381.05 1139.32 353.984Z" fill="white"/>
<path fill-rule="evenodd" clip-rule="evenodd" d="M1147.23 314.009C1141.61 311.07 1140.51 292.308 1135.49 289.65C1130.47 286.993 1151.08 283.249 1153.65 264.628C1156.23 264.628 1160.82 276.711 1165.28 283.558C1164.76 294.012 1149.73 301.864 1147.23 314.009Z" fill="white"/>
<path fill-rule="evenodd" clip-rule="evenodd" d="M1117.39 268.547C1117.39 273.281 1114.87 286.551 1124.52 289.55C1120.84 290.148 1117.84 292.278 1116.29 295.505C1114.21 299.817 1111.76 308.475 1108.81 311.657C1108.81 304.284 1107.11 289.715 1108.81 284.13C1110.51 278.545 1116 271.553 1117.39 268.547Z" fill="white"/>
<g filter="url(#filter2_i)">
<path fill-rule="evenodd" clip-rule="evenodd" d="M1200.76 410.491C1189.29 372.15 1184.49 344.804 1184.91 335.33C1185.32 325.857 1196.47 307.428 1209.08 308.573C1221.69 309.718 1224.36 332.948 1226.98 345.426C1229.59 357.903 1248.9 422.011 1249.87 431.039C1250.85 440.067 1242.29 454.511 1231.36 455.762C1220.43 457.012 1212.23 448.832 1200.76 410.491Z" fill="url(#paint36_linear)"/>
<path fill-rule="evenodd" clip-rule="evenodd" d="M1200.76 410.491C1189.29 372.15 1184.49 344.804 1184.91 335.33C1185.32 325.857 1196.47 307.428 1209.08 308.573C1221.69 309.718 1224.36 332.948 1226.98 345.426C1229.59 357.903 1248.9 422.011 1249.87 431.039C1250.85 440.067 1242.29 454.511 1231.36 455.762C1220.43 457.012 1212.23 448.832 1200.76 410.491Z" fill="url(#paint37_linear)"/>
</g>
<path fill-rule="evenodd" clip-rule="evenodd" d="M1175.83 403.365C1175.83 403.365 1198.65 410.222 1203.65 407.936C1208.65 405.65 1233.45 406.7 1238.93 425.334C1244.4 443.969 1239.62 448.002 1233.45 454.45C1227.27 460.898 1181.87 443.973 1172.34 435.147C1179.5 414.215 1175.83 403.365 1175.83 403.365Z" fill="url(#paint38_linear)"/>
<path fill-rule="evenodd" clip-rule="evenodd" d="M1175.83 403.365C1175.83 403.365 1198.65 410.222 1203.65 407.936C1208.65 405.65 1233.45 406.7 1238.93 425.334C1244.4 443.969 1239.62 448.002 1233.45 454.45C1227.27 460.898 1181.87 443.973 1172.34 435.147C1179.5 414.215 1175.83 403.365 1175.83 403.365Z" fill="url(#paint39_linear)"/>
<path fill-rule="evenodd" clip-rule="evenodd" d="M1045.41 452.994C1045.41 435.228 1052.29 358.244 1058.71 326.616C1059.64 322.065 1061.21 321.053 1062.06 318.463C1068.64 343.416 1070.67 452.279 1068.79 458.808C1066.9 465.337 1055.88 458.808 1045.41 452.994Z" fill="url(#paint40_linear)"/>
<path fill-rule="evenodd" clip-rule="evenodd" d="M1109.79 193.726C1106.01 195.036 1103.96 206.55 1104.6 215.247C1102.49 210.334 1100.33 190.387 1107.5 179.642C1114.66 168.898 1113.57 192.416 1109.79 193.726Z" fill="#143B8C"/>
<path fill-rule="evenodd" clip-rule="evenodd" d="M1113.58 174.927C1099.48 184.065 1105.89 196.084 1120.34 198.11C1134.79 200.137 1136.35 200.675 1145.23 198.11C1147.21 204.587 1141.04 210.761 1145.23 215.505C1148.58 219.291 1149.61 220.703 1149.81 224.989C1150.01 229.275 1151.62 230.14 1151.62 230.14C1151.62 230.14 1151.81 218.216 1155.67 217.851C1159.53 217.486 1162.51 219.938 1164.65 224.989C1165.27 226.442 1164.45 223.46 1164.65 220.674C1164.85 217.959 1166.07 215.509 1166.07 211.69C1166.07 204.788 1162.3 196.827 1158.29 192.007C1149.01 180.841 1123.55 172.442 1113.58 174.927Z" fill="url(#paint41_linear)"/>
<path fill-rule="evenodd" clip-rule="evenodd" d="M940.552 311.11C963.568 325.79 986.546 336.378 1017.01 327.92C1047.48 319.462 1058.85 325.145 1077.07 329.782C1095.28 334.418 1109.05 343.3 1164.96 306.025C1163.31 342.527 1157.89 406.516 1163.52 419.909C1149.65 428.705 1128.73 455.571 1108.07 455.331C1087.41 455.091 1076.63 435.806 1043.03 440.468C1009.43 445.13 1010.42 458.394 988.697 453.463C966.974 448.532 940.346 426.476 936.838 423.776C936.417 415.746 941.901 336.864 940.552 311.11Z" fill="url(#paint42_linear)"/>
<mask id="mask8" mask-type="alpha" maskUnits="userSpaceOnUse" x="936" y="306" width="229" height="150">
<path fill-rule="evenodd" clip-rule="evenodd" d="M940.552 311.11C963.568 325.79 986.546 336.378 1017.01 327.92C1047.48 319.462 1058.85 325.145 1077.07 329.782C1095.28 334.418 1109.05 343.3 1164.96 306.025C1163.31 342.527 1157.89 406.516 1163.52 419.909C1149.65 428.705 1128.73 455.571 1108.07 455.331C1087.41 455.091 1076.63 435.806 1043.03 440.468C1009.43 445.13 1010.42 458.394 988.697 453.463C966.974 448.532 940.346 426.476 936.838 423.776C936.417 415.746 941.901 336.864 940.552 311.11Z" fill="white"/>
</mask>
<g mask="url(#mask8)">
<g style="mix-blend-mode:multiply" opacity="0.269085">
<path fill-rule="evenodd" clip-rule="evenodd" d="M1000.65 317.928L1049.26 312.121C1049.26 312.121 1049.26 334.849 1049.26 389.749C1049.26 444.649 1049.26 491.153 1049.26 491.153H994.721C994.721 491.153 993.395 438.099 994.721 399.374C996.047 360.65 1000.65 317.928 1000.65 317.928Z" fill="url(#paint43_linear)"/>
</g>
<g style="mix-blend-mode:multiply" opacity="0.269085">
<path fill-rule="evenodd" clip-rule="evenodd" d="M1049.26 317.928L1096.29 312.121C1096.29 312.121 1096.29 334.849 1096.29 389.749C1096.29 444.649 1096.29 491.153 1096.29 491.153H1050.3C1050.3 491.153 1049.26 449.571 1049.26 409.312C1049.26 369.053 1049.26 317.928 1049.26 317.928Z" fill="url(#paint44_linear)"/>
</g>
</g>
<path fill-rule="evenodd" clip-rule="evenodd" d="M1155.07 396.487C1161.51 395.918 1161.36 390.586 1161.58 392.11C1161.79 393.635 1176.75 403.634 1176.75 403.634C1176.75 403.634 1179.41 430.42 1173.28 434.948C1167.15 439.475 1159.32 429.695 1154.04 430.734C1151.8 431.174 1146.04 431.394 1140.3 430.028C1138.38 429.57 1131.96 427.744 1130.78 426.815C1129.3 425.649 1128.54 424.185 1130.23 422.731C1130.91 422.153 1139.21 424.409 1141.19 424.804C1146.85 425.932 1151.52 424.511 1151.36 424.145C1151.09 423.551 1146.87 424.03 1141.19 422.731C1139.2 422.276 1135.07 421.474 1133.08 420.883C1128.66 419.575 1124.9 417.628 1124.55 417.29C1123.61 416.378 1122.94 414.988 1124.71 413.645C1125.46 413.076 1127.32 413.645 1132.63 414.499C1134.93 414.869 1139.59 416.048 1141.66 416.378C1146.1 417.084 1149.47 415.186 1149.45 414.799C1149.43 414.412 1146.4 415.318 1142.04 414.499C1139.71 414.061 1135.23 413.541 1132.64 413.076C1125.78 411.844 1122.1 409.407 1121.57 409.01C1120.6 408.282 1120.39 405.765 1121.57 405.037C1122.25 404.615 1125.64 405.447 1132.56 406.587C1135.06 406.999 1139.85 407.768 1142.04 407.768C1146.4 407.768 1149.16 406.79 1149.16 406.587C1149.16 406.256 1140.8 405.334 1134.08 403.987C1127.33 402.636 1126.73 401.23 1126.28 400.687C1125.65 399.944 1125.45 397.217 1127.62 397.217C1130.81 397.217 1132.11 397.627 1135.12 398.029C1137.26 398.315 1142.38 398.533 1144.42 398.533C1148.48 398.533 1152.98 396.673 1155.07 396.487Z" fill="url(#paint45_linear)"/>
</g>
<defs>
<filter id="filter0_i" x="814.288" y="442.402" width="631.799" height="242.559" filterUnits="userSpaceOnUse" color-interpolation-filters="sRGB">
<feFlood flood-opacity="0" result="BackgroundImageFix"/>
<feBlend mode="normal" in="SourceGraphic" in2="BackgroundImageFix" result="shape"/>
<feColorMatrix in="SourceAlpha" type="matrix" values="0 0 0 0 0 0 0 0 0 0 0 0 0 0 0 0 0 0 127 0" result="hardAlpha"/>
<feOffset dx="-16" dy="-6"/>
<feGaussianBlur stdDeviation="16"/>
<feComposite in2="hardAlpha" operator="arithmetic" k2="-1" k3="1"/>
<feColorMatrix type="matrix" values="0 0 0 0 0.839216 0 0 0 0 0.890196 0 0 0 0 0.980392 0 0 0 0.330248 0"/>
<feBlend mode="normal" in2="shape" result="effect1_innerShadow"/>
</filter>
<filter id="filter1_i" x="903.44" y="301.874" width="157.422" height="156.08" filterUnits="userSpaceOnUse" color-interpolation-filters="sRGB">
<feFlood flood-opacity="0" result="BackgroundImageFix"/>
<feBlend mode="normal" in="SourceGraphic" in2="BackgroundImageFix" result="shape"/>
<feColorMatrix in="SourceAlpha" type="matrix" values="0 0 0 0 0 0 0 0 0 0 0 0 0 0 0 0 0 0 127 0" result="hardAlpha"/>
<feOffset dy="-9"/>
<feGaussianBlur stdDeviation="5.5"/>
<feComposite in2="hardAlpha" operator="arithmetic" k2="-1" k3="1"/>
<feColorMatrix type="matrix" values="0 0 0 0 0.818241 0 0 0 0 0.879823 0 0 0 0 0.96604 0 0 0 1 0"/>
<feBlend mode="normal" in2="shape" result="effect1_innerShadow"/>
</filter>
<filter id="filter2_i" x="1177.88" y="308.522" width="72.0686" height="150.359" filterUnits="userSpaceOnUse" color-interpolation-filters="sRGB">
<feFlood flood-opacity="0" result="BackgroundImageFix"/>
<feBlend mode="normal" in="SourceGraphic" in2="BackgroundImageFix" result="shape"/>
<feColorMatrix in="SourceAlpha" type="matrix" values="0 0 0 0 0 0 0 0 0 0 0 0 0 0 0 0 0 0 127 0" result="hardAlpha"/>
<feOffset dx="-8" dy="3"/>
<feGaussianBlur stdDeviation="3.5"/>
<feComposite in2="hardAlpha" operator="arithmetic" k2="-1" k3="1"/>
<feColorMatrix type="matrix" values="0 0 0 0 0.631373 0 0 0 0 0.721569 0 0 0 0 0.890196 0 0 0 0.137483 0"/>
<feBlend mode="normal" in2="shape" result="effect1_innerShadow"/>
</filter>
<linearGradient id="paint0_linear" x1="-137" y1="-3.49998" x2="95.5341" y2="864.318" gradientUnits="userSpaceOnUse">
<stop stop-color="#78EAFA"/>
<stop offset="1" stop-color="#0047FF"/>
</linearGradient>
<linearGradient id="paint1_linear" x1="830.047" y1="83.4157" x2="664.277" y2="487.016" gradientUnits="userSpaceOnUse">
<stop stop-color="white"/>
<stop offset="1" stop-color="#8994F3"/>
</linearGradient>
<linearGradient id="paint2_linear" x1="893.313" y1="-49.721" x2="906.832" y2="566.084" gradientUnits="userSpaceOnUse">
<stop stop-color="#8DE7EC"/>
<stop offset="1" stop-color="#8994F3"/>
</linearGradient>
<linearGradient id="paint3_linear" x1="779.324" y1="-136.472" x2="887.058" y2="270.37" gradientUnits="userSpaceOnUse">
<stop stop-color="#F4F9FF"/>
<stop offset="1" stop-color="#8DE7EC"/>
</linearGradient>
<linearGradient id="paint4_linear" x1="1453" y1="298.5" x2="-1.50016" y2="580" gradientUnits="userSpaceOnUse">
<stop stop-color="#5433FF"/>
<stop offset="1" stop-color="#00FFFF"/>
</linearGradient>
<linearGradient id="paint5_linear" x1="976.49" y1="459.915" x2="996.295" y2="515.544" gradientUnits="userSpaceOnUse">
<stop stop-color="#EDF3FD" stop-opacity="0.01"/>
<stop offset="1" stop-color="#D6E3FA"/>
</linearGradient>
<linearGradient id="paint6_linear" x1="864.484" y1="453.973" x2="886.716" y2="512.439" gradientUnits="userSpaceOnUse">
<stop stop-color="#EDF3FD" stop-opacity="0.01"/>
<stop offset="1" stop-color="#D6E3FA"/>
</linearGradient>
<linearGradient id="paint7_linear" x1="974.724" y1="431.769" x2="966.009" y2="483.502" gradientUnits="userSpaceOnUse">
<stop stop-color="#577FBE"/>
<stop offset="1" stop-color="#A1B8E3"/>
</linearGradient>
<linearGradient id="paint8_linear" x1="953.8" y1="436.4" x2="951.871" y2="466.448" gradientUnits="userSpaceOnUse">
<stop stop-color="#577FBE"/>
<stop offset="1" stop-color="#A1B8E3" stop-opacity="0.262228"/>
</linearGradient>
<linearGradient id="paint9_linear" x1="1055.58" y1="437.743" x2="903.182" y2="432.723" gradientUnits="userSpaceOnUse">
<stop stop-color="#0C1F63"/>
<stop offset="0.562912" stop-color="#102F7A"/>
<stop offset="1" stop-color="#3861B6"/>
</linearGradient>
<linearGradient id="paint10_linear" x1="1072.27" y1="231.63" x2="1032.07" y2="200.754" gradientUnits="userSpaceOnUse">
<stop stop-color="#294FA9"/>
<stop offset="1" stop-color="#316EEA"/>
</linearGradient>
<radialGradient id="paint11_radial" cx="0" cy="0" r="1" gradientUnits="userSpaceOnUse" gradientTransform="translate(967.234 203.49) rotate(96.9322) scale(47.3725 99.9135)">
<stop stop-color="#70B8F9"/>
<stop offset="1" stop-color="#3D82F0"/>
</radialGradient>
<linearGradient id="paint12_linear" x1="996.142" y1="314.856" x2="996.142" y2="337.134" gradientUnits="userSpaceOnUse">
<stop stop-color="#6886B3"/>
<stop offset="1" stop-color="#90AADB"/>
</linearGradient>
<linearGradient id="paint13_linear" x1="954.286" y1="290.525" x2="990.038" y2="298.115" gradientUnits="userSpaceOnUse">
<stop stop-color="#CFDDF3"/>
<stop offset="1" stop-color="#A1B8E3"/>
</linearGradient>
<linearGradient id="paint14_linear" x1="996.509" y1="281.243" x2="971.996" y2="280.396" gradientUnits="userSpaceOnUse">
<stop stop-color="#072246"/>
<stop offset="1" stop-color="#143B8C"/>
</linearGradient>
<radialGradient id="paint15_radial" cx="0" cy="0" r="1" gradientUnits="userSpaceOnUse" gradientTransform="translate(977.132 245.123) rotate(-11.9357) scale(31.6507 132.259)">
<stop stop-color="#2D6DC0"/>
<stop offset="1" stop-color="#143B8C"/>
</radialGradient>
<linearGradient id="paint16_linear" x1="905.456" y1="320.351" x2="905.456" y2="372.03" gradientUnits="userSpaceOnUse">
<stop stop-color="#F4F8FF"/>
<stop offset="1" stop-color="#E5EFFD"/>
</linearGradient>
<linearGradient id="paint17_linear" x1="896.972" y1="335.564" x2="896.972" y2="361.822" gradientUnits="userSpaceOnUse">
<stop stop-color="#18407E"/>
<stop offset="1" stop-color="#90AADB"/>
</linearGradient>
<linearGradient id="paint18_linear" x1="875.115" y1="355.553" x2="885.036" y2="307.047" gradientUnits="userSpaceOnUse">
<stop stop-color="#577FBE"/>
<stop offset="1" stop-color="#B1C9F7"/>
</linearGradient>
<linearGradient id="paint19_linear" x1="891.961" y1="311.19" x2="891.961" y2="351.929" gradientUnits="userSpaceOnUse">
<stop stop-color="#A9C4E5"/>
<stop offset="1" stop-color="#7192C7"/>
</linearGradient>
<linearGradient id="paint20_linear" x1="1198.93" y1="167.689" x2="1158.63" y2="137.815" gradientUnits="userSpaceOnUse">
<stop stop-color="#294FA9"/>
<stop offset="1" stop-color="#316EEA"/>
</linearGradient>
<radialGradient id="paint21_radial" cx="0" cy="0" r="1" gradientUnits="userSpaceOnUse" gradientTransform="translate(1101.61 144.703) rotate(97.3227) scale(44.0019 97.9209)">
<stop stop-color="#70B8F9"/>
<stop offset="1" stop-color="#3D82F0"/>
</radialGradient>
<linearGradient id="paint22_linear" x1="1138.94" y1="252.06" x2="1122.73" y2="261.176" gradientUnits="userSpaceOnUse">
<stop stop-color="#6886B3"/>
<stop offset="1" stop-color="#90AADB"/>
</linearGradient>
<linearGradient id="paint23_linear" x1="1115.03" y1="223.338" x2="1115.03" y2="275.474" gradientUnits="userSpaceOnUse">
<stop stop-color="#A9C4E5"/>
<stop offset="1" stop-color="#7192C7"/>
</linearGradient>
<linearGradient id="paint24_linear" x1="1083.52" y1="237.308" x2="1123.46" y2="245.909" gradientUnits="userSpaceOnUse">
<stop stop-color="#CFDDF3"/>
<stop offset="1" stop-color="#A1B8E3"/>
</linearGradient>
<linearGradient id="paint25_linear" x1="1182.16" y1="394.326" x2="1083.34" y2="409.55" gradientUnits="userSpaceOnUse">
<stop stop-color="#2664C7"/>
<stop offset="1" stop-color="#3D82F0"/>
</linearGradient>
<linearGradient id="paint26_linear" x1="1106.52" y1="552.018" x2="1106.52" y2="771.552" gradientUnits="userSpaceOnUse">
<stop stop-color="#75A8D6"/>
<stop offset="1" stop-color="#92A8CA" stop-opacity="0.01"/>
</linearGradient>
<linearGradient id="paint27_linear" x1="1047.57" y1="451.279" x2="1042.17" y2="531.17" gradientUnits="userSpaceOnUse">
<stop stop-color="#75A8D6"/>
<stop offset="1" stop-color="#92A8CA" stop-opacity="0.01"/>
</linearGradient>
<linearGradient id="paint28_linear" x1="1056.59" y1="439.482" x2="1017.21" y2="496.365" gradientUnits="userSpaceOnUse">
<stop stop-color="#577FBE"/>
<stop offset="1" stop-color="#A1B8E3"/>
</linearGradient>
<linearGradient id="paint29_linear" x1="1060.82" y1="456.017" x2="1060.82" y2="514.705" gradientUnits="userSpaceOnUse">
<stop stop-color="#A9C4E5"/>
<stop offset="1" stop-color="#7192C7"/>
</linearGradient>
<linearGradient id="paint30_linear" x1="1217.79" y1="490.045" x2="1199.21" y2="322.967" gradientUnits="userSpaceOnUse">
<stop stop-color="#F4F8FF"/>
<stop offset="1" stop-color="#C3D8F5"/>
</linearGradient>
<linearGradient id="paint31_linear" x1="1113.39" y1="428.566" x2="1051.66" y2="445.474" gradientUnits="userSpaceOnUse">
<stop stop-color="white" stop-opacity="0.5"/>
<stop offset="1" stop-color="#AFC3E5"/>
</linearGradient>
<linearGradient id="paint32_linear" x1="1105.2" y1="345.397" x2="1053.57" y2="302.726" gradientUnits="userSpaceOnUse">
<stop stop-color="white" stop-opacity="0.01"/>
<stop offset="1" stop-color="#A1B8E3"/>
</linearGradient>
<linearGradient id="paint33_linear" x1="1167.22" y1="576.541" x2="1216.15" y2="575.215" gradientUnits="userSpaceOnUse">
<stop stop-color="#EAF0F7" stop-opacity="0.115546"/>
<stop offset="1" stop-color="#D1DDED"/>
</linearGradient>
<linearGradient id="paint34_linear" x1="1105.83" y1="318.919" x2="1124.1" y2="317.796" gradientUnits="userSpaceOnUse">
<stop stop-color="#EAF0F7" stop-opacity="0.115546"/>
<stop offset="1" stop-color="#D1DDED"/>
</linearGradient>
<linearGradient id="paint35_linear" x1="1127.28" y1="314.037" x2="1143.28" y2="313.066" gradientUnits="userSpaceOnUse">
<stop stop-color="#EAF0F7" stop-opacity="0.115546"/>
<stop offset="1" stop-color="#D1DDED"/>
</linearGradient>
<linearGradient id="paint36_linear" x1="1195.55" y1="435.194" x2="1246.36" y2="420.993" gradientUnits="userSpaceOnUse">
<stop stop-color="#E2E9F4"/>
<stop offset="1" stop-color="#E5EFFD"/>
</linearGradient>
<linearGradient id="paint37_linear" x1="1198.77" y1="334.586" x2="1161.56" y2="340.983" gradientUnits="userSpaceOnUse">
<stop stop-color="white" stop-opacity="0.01"/>
<stop offset="1" stop-color="white"/>
</linearGradient>
<linearGradient id="paint38_linear" x1="1219.9" y1="469.242" x2="1231.88" y2="429.028" gradientUnits="userSpaceOnUse">
<stop stop-color="#577FBE"/>
<stop offset="1" stop-color="#A1B8E3"/>
</linearGradient>
<linearGradient id="paint39_linear" x1="1212.6" y1="407.332" x2="1205.74" y2="428.921" gradientUnits="userSpaceOnUse">
<stop stop-color="white" stop-opacity="0.5"/>
<stop offset="1" stop-color="#A1B8E3" stop-opacity="0.01"/>
</linearGradient>
<linearGradient id="paint40_linear" x1="1045.41" y1="318.463" x2="1045.41" y2="461.531" gradientUnits="userSpaceOnUse">
<stop stop-color="#B5CCEF"/>
<stop offset="1" stop-color="#E5EFFD"/>
</linearGradient>
<linearGradient id="paint41_linear" x1="1130.25" y1="214.06" x2="1141.59" y2="192.765" gradientUnits="userSpaceOnUse">
<stop stop-color="#2D6DC0"/>
<stop offset="1" stop-color="#143B8C"/>
</linearGradient>
<linearGradient id="paint42_linear" x1="1183.65" y1="405.41" x2="1153.39" y2="369.766" gradientUnits="userSpaceOnUse">
<stop stop-color="#FF7F31"/>
<stop offset="1" stop-color="#FFD25F"/>
</linearGradient>
<linearGradient id="paint43_linear" x1="1017.63" y1="537.571" x2="1076.79" y2="532.304" gradientUnits="userSpaceOnUse">
<stop stop-color="#FF7F31"/>
<stop offset="1" stop-color="#FFD25F"/>
</linearGradient>
<linearGradient id="paint44_linear" x1="1112.15" y1="407.973" x2="1053.26" y2="387.111" gradientUnits="userSpaceOnUse">
<stop stop-color="#FF7F31"/>
<stop offset="1" stop-color="#FFC83A"/>
</linearGradient>
<linearGradient id="paint45_linear" x1="1179.97" y1="450.237" x2="1179.97" y2="407.928" gradientUnits="userSpaceOnUse">
<stop stop-color="#577FBE"/>
<stop offset="1" stop-color="#A1B8E3"/>
</linearGradient>
</defs>
</svg>
