<svg width="30" height="30" viewBox="0 0 30 30" fill="none" xmlns="http://www.w3.org/2000/svg">
<path fill-rule="evenodd" clip-rule="evenodd" d="M11.25 26.25C11.25 25.5596 11.8096 25 12.5 25H17.5C18.1904 25 18.75 25.5596 18.75 26.25C18.75 26.9404 18.1904 27.5 17.5 27.5H12.5C11.8096 27.5 11.25 26.9404 11.25 26.25Z" fill="#0A6ED1"/>
<path fill-rule="evenodd" clip-rule="evenodd" d="M6.25 11.25C6.25 6.41751 10.1675 2.5 15 2.5C19.8325 2.5 23.75 6.41751 23.75 11.25C23.75 13.6896 22.683 15.211 21.7876 16.4877C21.7412 16.5538 21.6952 16.6194 21.6499 16.6843C20.7534 17.9693 19.9988 19.1443 19.9979 21.2534C19.9976 21.9396 19.4443 22.4972 18.7582 22.5029L11.2619 22.5648C10.9286 22.5676 10.6081 22.4371 10.3714 22.2025C10.1348 21.9679 10.0016 21.6485 10.0015 21.3152C10.0009 19.171 9.24236 17.9785 8.34809 16.6893C8.30028 16.6204 8.25176 16.5508 8.20273 16.4806C7.31068 15.202 6.25 13.6818 6.25 11.25ZM15 5C11.5482 5 8.75 7.79822 8.75 11.25C8.75 12.885 9.40425 13.8271 10.3184 15.1436C10.3462 15.1835 10.3741 15.2238 10.4023 15.2644C11.2333 16.4624 12.1619 17.876 12.4272 20.0551L17.5716 20.0126C17.8367 17.8484 18.7693 16.4439 19.5996 15.2539C19.6243 15.2185 19.6488 15.1833 19.6732 15.1484C20.591 13.8341 21.25 12.8903 21.25 11.25C21.25 7.79822 18.4518 5 15 5Z" fill="#0A6ED1"/>
<path fill-rule="evenodd" clip-rule="evenodd" d="M22.5 2.5C23.1904 2.5 23.75 1.94036 23.75 1.25C23.75 0.559644 23.1904 0 22.5 0C21.8096 0 21.25 0.559644 21.25 1.25C21.25 1.94036 21.8096 2.5 22.5 2.5Z" fill="#0A6ED1"/>
<path fill-rule="evenodd" clip-rule="evenodd" d="M7.5 2.5C8.19036 2.5 8.75 1.94036 8.75 1.25C8.75 0.559644 8.19036 0 7.5 0C6.80964 0 6.25 0.559644 6.25 1.25C6.25 1.94036 6.80964 2.5 7.5 2.5Z" fill="#0A6ED1"/>
<path fill-rule="evenodd" clip-rule="evenodd" d="M27.5 11.25C28.1904 11.25 28.75 10.6904 28.75 10C28.75 9.30964 28.1904 8.75 27.5 8.75C26.8096 8.75 26.25 9.30964 26.25 10C26.25 10.6904 26.8096 11.25 27.5 11.25Z" fill="#0A6ED1"/>
<path fill-rule="evenodd" clip-rule="evenodd" d="M2.5 11.25C3.19036 11.25 3.75 10.6904 3.75 10C3.75 9.30964 3.19036 8.75 2.5 8.75C1.80964 8.75 1.25 9.30964 1.25 10C1.25 10.6904 1.80964 11.25 2.5 11.25Z" fill="#0A6ED1"/>
<path fill-rule="evenodd" clip-rule="evenodd" d="M25 20C25.6904 20 26.25 19.4404 26.25 18.75C26.25 18.0596 25.6904 17.5 25 17.5C24.3096 17.5 23.75 18.0596 23.75 18.75C23.75 19.4404 24.3096 20 25 20Z" fill="#0A6ED1"/>
<path fill-rule="evenodd" clip-rule="evenodd" d="M5 20C5.69036 20 6.25 19.4404 6.25 18.75C6.25 18.0596 5.69036 17.5 5 17.5C4.30964 17.5 3.75 18.0596 3.75 18.75C3.75 19.4404 4.30964 20 5 20Z" fill="#0A6ED1"/>
</svg>
