<svg width="745" height="494" viewBox="0 0 745 494" fill="none" xmlns="http://www.w3.org/2000/svg">
<path opacity="0.2" fill-rule="evenodd" clip-rule="evenodd" d="M506.719 90.0247C458.228 35.6082 356.663 15.3566 252.29 45.3786C122.838 82.6151 38.0873 183.087 62.994 269.79C83.4284 340.925 171.327 380.69 273.725 372.114C322.823 411.428 405.487 424.411 489.774 400.166C608.009 366.157 684.663 271.773 660.987 189.353C644.378 131.537 582.81 94.9663 506.719 90.0247Z" fill="url(#paint0_linear)"/>
<g opacity="0.3">
<path fill-rule="evenodd" clip-rule="evenodd" d="M329.056 386.699C335.969 387.98 348.34 369.665 347.699 353.168C347.058 336.671 331.78 339.849 337.044 309.683C342.307 279.517 348.766 265.293 318.709 238.86C288.652 212.427 292.139 185.596 267.991 188.505C243.843 191.413 249.887 226.316 267.024 249.909C284.16 273.502 282.795 281.348 262.636 289.957C242.477 298.566 280.12 325.695 284.912 333.676C289.704 341.657 287.321 363.266 296.358 373.012C305.396 382.757 322.142 385.418 329.056 386.699Z" fill="url(#paint1_linear)"/>
<path d="M319.055 345.395C315.377 339.269 302.37 321.113 286.975 314.549" stroke="url(#paint2_linear)" stroke-width="6" stroke-linecap="round"/>
<path d="M310.742 301.742C307.064 295.616 321.671 280.98 323.107 264.298" stroke="url(#paint3_linear)" stroke-width="6" stroke-linecap="round"/>
<path d="M336.15 421.49C334.585 418.883 332.017 404.437 328.131 388.247C315.961 337.548 306.085 272.046 284.245 235.672" stroke="url(#paint4_linear)" stroke-width="6" stroke-linecap="round"/>
</g>
<g opacity="0.3">
<path d="M440.034 382.48C439.642 359.985 457.221 290.041 481.923 251.505" stroke="url(#paint5_linear)" stroke-width="6" stroke-linecap="round"/>
<path fill-rule="evenodd" clip-rule="evenodd" d="M470.362 262.302C470.362 262.302 471.233 251.084 465.413 241.392C459.593 231.7 452.373 225.347 449.286 227.203C446.199 229.059 448.415 238.421 454.235 248.113C460.054 257.805 470.362 262.302 470.362 262.302Z" fill="url(#paint6_linear)"/>
<path fill-rule="evenodd" clip-rule="evenodd" d="M476.925 266.062C476.925 266.062 486.414 272.098 497.699 271.506C508.983 270.914 517.979 267.517 517.79 263.919C517.602 260.32 508.301 257.883 497.017 258.475C485.732 259.067 476.925 266.062 476.925 266.062Z" fill="url(#paint7_linear)"/>
<path fill-rule="evenodd" clip-rule="evenodd" d="M465.275 294.896C465.275 294.896 474.436 301.421 485.736 301.42C497.036 301.42 506.196 298.499 506.196 294.896C506.196 291.292 497.036 288.371 485.736 288.372C474.436 288.372 465.275 294.896 465.275 294.896Z" fill="url(#paint8_linear)"/>
<path fill-rule="evenodd" clip-rule="evenodd" d="M455.885 323.864C455.885 323.864 465.046 330.389 476.346 330.389C487.646 330.389 496.806 327.467 496.806 323.864C496.806 320.261 487.646 317.34 476.346 317.34C465.046 317.34 455.885 323.864 455.885 323.864Z" fill="url(#paint9_linear)"/>
<path fill-rule="evenodd" clip-rule="evenodd" d="M483.996 247.18C483.996 247.18 494.38 242.863 500.368 233.274C506.356 223.685 508.735 214.363 505.681 212.454C502.627 210.544 495.297 216.77 489.309 226.359C483.321 235.948 483.996 247.18 483.996 247.18Z" fill="url(#paint10_linear)"/>
<path fill-rule="evenodd" clip-rule="evenodd" d="M457.888 291.663C457.888 291.663 456.604 280.485 449.043 272.082C441.481 263.679 433.182 258.822 430.506 261.233C427.83 263.644 431.79 272.411 439.351 280.814C446.912 289.217 457.888 291.663 457.888 291.663Z" fill="url(#paint11_linear)"/>
<path fill-rule="evenodd" clip-rule="evenodd" d="M447.812 321.853C447.812 321.853 445.368 310.87 436.97 303.304C428.573 295.738 419.812 291.776 417.402 294.454C414.993 297.132 419.847 305.436 428.244 313.002C436.642 320.568 447.812 321.853 447.812 321.853Z" fill="url(#paint12_linear)"/>
</g>
<path opacity="0.472712" d="M264.677 121.049L321.131 77.8218" stroke="url(#paint13_linear)" stroke-width="8" stroke-linecap="round" stroke-linejoin="round"/>
<path opacity="0.472712" d="M265.233 142.755L309.761 108.659" stroke="url(#paint14_linear)" stroke-width="8" stroke-linecap="round" stroke-linejoin="round"/>
<path opacity="0.472712" d="M459.897 170.582L516.351 127.355" stroke="url(#paint15_linear)" stroke-width="8" stroke-linecap="round" stroke-linejoin="round"/>
<path opacity="0.472712" d="M460.453 192.287L504.981 158.192" stroke="url(#paint16_linear)" stroke-width="8" stroke-linecap="round" stroke-linejoin="round"/>
<path fill-rule="evenodd" clip-rule="evenodd" d="M670.302 236.373L545.994 213.158C509.919 266.053 492.848 310.661 494.781 346.982C517.573 356.435 561.452 371.395 626.415 391.86L678.687 251.195C680.828 245.433 677.896 239.025 672.138 236.882C671.541 236.66 670.927 236.49 670.302 236.373Z" fill="url(#paint17_linear)"/>
<path fill-rule="evenodd" clip-rule="evenodd" d="M546.035 243.46C547.169 247.377 546.656 250.203 544.495 251.94C541.254 254.544 537.999 258.975 534.79 259.34C531.581 259.705 528.107 261.465 527.544 265.97C527.273 268.146 516.138 279.395 512.16 294.873C511.152 298.792 512.378 304.822 515.835 312.963L525.035 307.896L538.137 286.659C552.688 281.601 560.892 278.467 562.746 277.259C565.528 275.446 574.54 267.689 572.802 264.78C571.065 261.871 576.718 243.391 580.075 239.799C583.432 236.207 586.182 227.453 586.25 224.221C586.316 220.989 587.48 211.313 579.1 211.622C573.514 211.828 562.492 222.441 546.035 243.46Z" fill="url(#paint18_linear)"/>
<mask id="mask0" mask-type="alpha" maskUnits="userSpaceOnUse" x="511" y="211" width="76" height="102">
<path fill-rule="evenodd" clip-rule="evenodd" d="M546.035 243.46C547.169 247.377 546.656 250.203 544.495 251.94C541.254 254.544 537.999 258.975 534.79 259.34C531.581 259.705 528.107 261.465 527.544 265.97C527.273 268.146 516.138 279.395 512.16 294.873C511.152 298.792 512.378 304.822 515.835 312.963L525.035 307.896L538.137 286.659C552.688 281.601 560.892 278.467 562.746 277.259C565.528 275.446 574.54 267.689 572.802 264.78C571.065 261.871 576.718 243.391 580.075 239.799C583.432 236.207 586.182 227.453 586.25 224.221C586.316 220.989 587.48 211.313 579.1 211.622C573.514 211.828 562.492 222.441 546.035 243.46Z" fill="white"/>
</mask>
<g mask="url(#mask0)">
<path fill-rule="evenodd" clip-rule="evenodd" d="M577.38 260.084C577.38 260.084 561.484 231.856 554.059 224.772C546.635 217.687 589.487 210.546 589.487 210.546L577.38 265.413V260.084Z" fill="url(#paint19_linear)" style="mix-blend-mode:multiply"/>
</g>
<path fill-rule="evenodd" clip-rule="evenodd" d="M537.349 177.062C533.513 179.647 536.785 190.049 532.633 195.987C530.363 199.234 525.588 201.039 523.383 202.331C517.145 205.987 523.555 208.596 524.844 210.772C526.133 212.947 525.106 217.863 524.14 221.737C523.175 225.611 519.75 234.341 523.422 236.291C527.094 238.242 549.638 246.758 556.157 244.157C562.676 241.556 565.007 228.525 566.614 227.677C568.221 226.83 569.349 227.724 570.833 228.095C574.694 229.058 578.18 226.892 580.036 223.811C582.138 220.32 585.127 221.913 583.511 217.143C581.018 209.786 566.571 180.805 560.83 178.722C555.09 176.638 543.282 173.064 537.349 177.062Z" fill="url(#paint20_radial)"/>
<path fill-rule="evenodd" clip-rule="evenodd" d="M556.075 185.024C541.394 181.361 534.567 184.643 529.251 173.225C526.111 166.482 532.225 145.795 542.52 145.327C545.054 156.89 557.293 157.885 564.385 158.845C602.463 164.004 606.448 198.843 595.048 219.364C591.378 225.971 587.983 230.718 584.954 234.277C583.031 236.537 580.517 239.259 579.669 240.551C579.385 240.982 576.929 246.423 576.504 246.317C575.221 245.997 575.736 245.932 576.366 240.3C576.996 234.668 577.347 233.153 578.489 228.57C578.826 227.216 585.212 216.819 580.308 213.054C577.039 210.544 572.622 212.077 567.059 217.653L563.68 216.379C565.913 211.413 567.323 207.746 567.913 205.38C568.798 201.83 570.756 188.687 556.075 185.024Z" fill="url(#paint21_linear)"/>
<path fill-rule="evenodd" clip-rule="evenodd" d="M556.075 185.024C541.394 181.361 534.567 184.643 529.251 173.225C526.111 166.482 532.225 145.795 542.52 145.327C545.054 156.89 557.293 157.885 564.385 158.845C602.463 164.004 606.448 198.843 595.048 219.364C591.378 225.971 587.983 230.718 584.954 234.277C583.031 236.537 580.517 239.259 579.669 240.551C579.385 240.982 576.929 246.423 576.504 246.317C575.221 245.997 575.736 245.932 576.366 240.3C576.996 234.668 577.347 233.153 578.489 228.57C578.826 227.216 585.212 216.819 580.308 213.054C577.039 210.544 572.622 212.077 567.059 217.653L563.68 216.379C565.913 211.413 567.323 207.746 567.913 205.38C568.798 201.83 570.756 188.687 556.075 185.024Z" fill="url(#paint22_linear)"/>
<path fill-rule="evenodd" clip-rule="evenodd" d="M563.685 216.549C562.564 219.048 558.336 224.809 554.52 226.889C550.703 228.97 542.665 229.097 541.016 226.725C539.366 224.353 531.876 213.607 525.125 211.923C524.787 213.283 523.862 215.597 522.351 218.864C527.576 221.037 530.61 223.082 531.455 224.998C532.721 227.871 533.401 225.946 532.137 227.223C530.872 228.5 524.267 227.518 523.765 222.535C521.86 226.503 519.813 237.213 520.535 239.66C521.256 242.108 525.409 243.23 529.508 243.493C533.607 243.756 548.21 245.987 551.93 245.226C555.649 244.465 560.374 244.903 563.486 235.886C566.598 226.869 565.906 221.028 569.967 213.348C574.027 205.668 564.805 214.05 563.685 216.549Z" fill="url(#paint23_linear)"/>
<g filter="url(#filter0_i)">
<path fill-rule="evenodd" clip-rule="evenodd" d="M575.318 253.019C590.746 256.536 601.113 262.396 606.417 270.602C614.373 282.909 618.36 315.603 618.36 326.208C618.36 336.813 619.629 362.827 618.36 369.924C617.092 377.022 611.265 382.294 599.209 382.294C591.171 382.294 545.612 367.334 462.533 337.412C473.459 332.006 479.096 328.271 479.444 326.208C479.965 323.113 505.319 266.681 513.337 260.932C521.356 255.183 538.001 252.463 544.674 252.463C543.698 255.173 541.527 257.36 544.596 260.932C547.664 264.504 553.686 265.128 559.65 262.649C563.626 260.996 568.849 257.786 575.318 253.019Z" fill="#3D82F0"/>
<path fill-rule="evenodd" clip-rule="evenodd" d="M575.318 253.019C590.746 256.536 601.113 262.396 606.417 270.602C614.373 282.909 618.36 315.603 618.36 326.208C618.36 336.813 619.629 362.827 618.36 369.924C617.092 377.022 611.265 382.294 599.209 382.294C591.171 382.294 545.612 367.334 462.533 337.412C473.459 332.006 479.096 328.271 479.444 326.208C479.965 323.113 505.319 266.681 513.337 260.932C521.356 255.183 538.001 252.463 544.674 252.463C543.698 255.173 541.527 257.36 544.596 260.932C547.664 264.504 553.686 265.128 559.65 262.649C563.626 260.996 568.849 257.786 575.318 253.019Z" fill="url(#paint24_linear)"/>
</g>
<mask id="mask1" mask-type="alpha" maskUnits="userSpaceOnUse" x="462" y="252" width="157" height="131">
<path fill-rule="evenodd" clip-rule="evenodd" d="M575.318 253.019C590.746 256.536 601.113 262.396 606.417 270.602C614.373 282.909 618.36 315.603 618.36 326.208C618.36 336.813 619.629 362.827 618.36 369.924C617.092 377.022 611.265 382.294 599.209 382.294C591.171 382.294 545.612 367.334 462.533 337.412C473.459 332.006 479.096 328.271 479.444 326.208C479.965 323.113 505.319 266.681 513.337 260.932C521.356 255.183 538.001 252.463 544.674 252.463C543.698 255.173 541.527 257.36 544.596 260.932C547.664 264.504 553.686 265.128 559.65 262.649C563.626 260.996 568.849 257.786 575.318 253.019Z" fill="white"/>
<path fill-rule="evenodd" clip-rule="evenodd" d="M575.318 253.019C590.746 256.536 601.113 262.396 606.417 270.602C614.373 282.909 618.36 315.603 618.36 326.208C618.36 336.813 619.629 362.827 618.36 369.924C617.092 377.022 611.265 382.294 599.209 382.294C591.171 382.294 545.612 367.334 462.533 337.412C473.459 332.006 479.096 328.271 479.444 326.208C479.965 323.113 505.319 266.681 513.337 260.932C521.356 255.183 538.001 252.463 544.674 252.463C543.698 255.173 541.527 257.36 544.596 260.932C547.664 264.504 553.686 265.128 559.65 262.649C563.626 260.996 568.849 257.786 575.318 253.019Z" stroke="white"/>
</mask>
<g mask="url(#mask1)">
<g opacity="0.585435">
<path fill-rule="evenodd" clip-rule="evenodd" d="M536.547 254.634C523.77 267.722 548.975 274.695 559.267 271.208C569.559 267.722 581.109 254.634 581.109 254.634C581.109 254.634 552.007 232.963 544.277 243.798C536.547 254.634 549.324 241.547 536.547 254.634Z" fill="url(#paint25_linear)" style="mix-blend-mode:multiply"/>
</g>
<g opacity="0.54654">
<path fill-rule="evenodd" clip-rule="evenodd" d="M518.338 373.043C527.436 373.043 586.592 363.241 586.592 355.284C586.592 347.328 582.031 291.272 582.031 291.272" fill="url(#paint26_linear)" style="mix-blend-mode:multiply"/>
</g>
<g opacity="0.54654">
<path fill-rule="evenodd" clip-rule="evenodd" d="M435.464 338.535C439.585 338.535 458.638 362.688 476.044 354.559C497.072 344.738 509.316 308.375 509.316 304.022C509.316 300.692 514.837 288.882 512.735 276.014C511.488 268.386 501.316 251.813 501.316 251.813" fill="url(#paint27_linear)" style="mix-blend-mode:multiply"/>
</g>
</g>
<path fill-rule="evenodd" clip-rule="evenodd" d="M366.226 75.2002C368.465 92.2747 368.894 102.21 367.514 105.007C365.442 109.203 369.454 128.94 382.227 130.084C395.001 131.228 401.697 125.782 402.199 112.466C402.701 99.1493 403.501 94.0154 405.564 88.1228C407.627 82.2302 369.183 57.8168 367.514 62.3302C366.401 65.3391 365.972 69.6292 366.226 75.2002Z" fill="url(#paint28_linear)"/>
<path fill-rule="evenodd" clip-rule="evenodd" d="M418.727 35.9743C418.727 39.7707 419.231 51.6223 418.85 54.6255C418.469 57.6288 418.165 62.1042 418.508 67.886C418.85 73.6678 415.849 87.8881 412.5 93.04C410.5 96.1159 402.573 102.046 394.797 101.213C385.58 100.225 375.501 91.3185 374.423 86.8649C372.435 78.6547 374.082 71.4094 368.354 67.0466C362.627 62.6837 358.453 58.6313 358.968 51.8959C359.483 45.1606 365.365 29.1269 368.354 28.4531C371.344 27.7794 418.727 32.1779 418.727 35.9743Z" fill="url(#paint29_radial)"/>
<path fill-rule="evenodd" clip-rule="evenodd" d="M369.52 31.1267C372.238 35.2306 396.035 55.0142 419.885 42.1701C443.736 29.326 412.009 6.009 397.622 3.34878C383.236 0.688633 370.846 2.16725 362.144 14.2501C353.442 26.333 349.077 47.0415 366.101 75.134C366.85 70.6761 367.225 67.7053 367.225 66.2216C360.451 60.0191 358.757 54.2391 362.144 48.8817C367.225 40.8456 368.906 56.6016 369.52 59.1327C371.543 59.1327 372.816 58.7799 373.339 58.0742C371.945 54.0976 371.437 50.42 371.814 47.0415C372.38 41.9737 374.053 40.8456 369.52 31.1267Z" fill="url(#paint30_linear)"/>
<path fill-rule="evenodd" clip-rule="evenodd" d="M324.114 327.374C324.114 321.182 316.946 280.628 331.719 268.444C346.492 256.26 364.766 274.034 432.066 276.727C433.174 303.964 433.174 323.139 432.066 334.252C430.958 345.365 390.306 361.118 324.114 327.374Z" fill="#3D82F0"/>
<path fill-rule="evenodd" clip-rule="evenodd" d="M312.706 274.855C314.293 281.889 319.544 289.403 321.312 291.025C323.081 292.648 329.516 294.659 330.733 294.269C331.95 293.878 335.152 291.2 335.297 288.066C335.442 284.931 332.37 283.165 332.349 278.534C332.328 273.903 324.63 267.185 324.63 263.088C324.63 258.99 311.119 267.821 312.706 274.855Z" fill="#113275"/>
<path fill-rule="evenodd" clip-rule="evenodd" d="M510.539 265.205C515.313 271.541 518.421 272.65 520.21 274.54C521.999 276.429 526.094 283.1 527.615 281.988C529.135 280.877 530.71 278.686 528.344 274.54C525.978 270.393 522.394 266.019 523.638 263.824C524.882 261.629 530.954 255.142 536.022 253.635C541.09 252.129 542.774 253.102 543.279 252.293C543.784 251.484 537.218 250.309 534.512 250.005C531.807 249.702 527.973 249.353 522.445 250.005C518.759 250.44 516.192 248.907 514.743 245.406C508.758 254.381 507.357 260.98 510.539 265.205Z" fill="#143B8C"/>
<g filter="url(#filter1_i)">
<path fill-rule="evenodd" clip-rule="evenodd" d="M326.921 265.379C323.536 263.471 312.205 268.027 312.205 277.24C306.188 256.746 289.489 229.005 289.489 198.688C297.144 172.258 317.114 130.591 321.574 124.052C324.548 119.692 339.28 113.59 365.77 105.744C371.696 112.225 378.718 115.465 386.837 115.465C399.015 115.465 399.655 107.992 402.908 107.602C406.162 107.211 424.593 115.465 433.684 124.246C442.774 133.026 452.507 167.562 476.42 194.37C500.333 221.178 508.91 239.882 520.774 249.954C516.422 253.855 510.525 256.126 510.525 265.379C506.231 262.229 482.271 245.739 461.963 226.545C441.656 207.351 432.65 191.387 429.585 189.227C426.06 186.742 434.027 263.626 433.684 277.24C433.339 290.855 386.559 291.632 371.93 291.632C357.301 291.632 334.677 286.565 328.87 281.568C327.912 280.745 330.421 172.647 328.87 177.183C324.933 188.69 315.792 194.37 315.792 201.948C315.792 219.56 326.942 266.619 326.921 265.379Z" fill="url(#paint31_linear)"/>
</g>
<mask id="mask2" mask-type="alpha" maskUnits="userSpaceOnUse" x="289" y="105" width="232" height="187">
<path fill-rule="evenodd" clip-rule="evenodd" d="M326.921 265.379C323.536 263.471 312.205 268.027 312.205 277.24C306.188 256.746 289.489 229.005 289.489 198.688C297.144 172.258 317.114 130.591 321.574 124.052C324.548 119.692 339.28 113.59 365.77 105.744C371.696 112.225 378.718 115.465 386.837 115.465C399.015 115.465 399.655 107.992 402.908 107.602C406.162 107.211 424.593 115.465 433.684 124.246C442.774 133.026 452.507 167.562 476.42 194.37C500.333 221.178 508.91 239.882 520.774 249.954C516.422 253.855 510.525 256.126 510.525 265.379C506.231 262.229 482.271 245.739 461.963 226.545C441.656 207.351 432.65 191.387 429.585 189.227C426.06 186.742 434.027 263.626 433.684 277.24C433.339 290.855 386.559 291.632 371.93 291.632C357.301 291.632 334.677 286.565 328.87 281.568C327.912 280.745 330.421 172.647 328.87 177.183C324.933 188.69 315.792 194.37 315.792 201.948C315.792 219.56 326.942 266.619 326.921 265.379Z" fill="white"/>
</mask>
<g mask="url(#mask2)">
<path fill-rule="evenodd" clip-rule="evenodd" d="M323.965 186.653L344.924 158.78C344.924 158.78 352.687 249.168 318.031 280.477C311.925 244.261 315.324 225.332 318.031 209.506C319.809 199.114 323.965 186.653 323.965 186.653Z" fill="url(#paint32_linear)" style="mix-blend-mode:multiply"/>
<g opacity="0.161551">
<path fill-rule="evenodd" clip-rule="evenodd" d="M330.953 286.773C338.776 263.836 373.935 188.291 388.983 177.519C404.03 166.747 405.164 152.844 404.597 134.391C404.03 115.937 368.885 79.1715 350.511 93.0779C332.136 106.984 282.946 132.641 277.567 175.665C272.188 218.688 295.096 284.679 305.445 278.155C315.794 271.632 323.129 309.71 330.953 286.773Z" fill="url(#paint33_linear)" style="mix-blend-mode:multiply"/>
</g>
</g>
<path fill-rule="evenodd" clip-rule="evenodd" d="M368 91.8195C368 96.0135 374.374 107.737 386.681 107.291C398.989 106.845 401.465 106.506 402.864 100.252C402.864 109.517 403.343 112.252 401.073 118.361C398.803 124.471 384.657 127.821 376.722 122.746C368.788 117.671 364.653 114.633 365.813 105.368C366.974 96.103 368 87.6256 368 91.8195Z" fill="url(#paint34_linear)"/>
<path fill-rule="evenodd" clip-rule="evenodd" d="M88.8664 220.41L201.732 193.122C222.606 249.44 232.077 295.759 230.144 332.081C207.351 341.534 173.164 353.79 127.58 368.85L80.9736 234.89C78.9538 229.084 82.0198 222.739 87.8215 220.718C88.1646 220.598 88.5133 220.496 88.8664 220.41Z" fill="url(#paint35_linear)"/>
<path fill-rule="evenodd" clip-rule="evenodd" d="M217.34 200.741C214.924 208.399 222.774 230.022 235.245 240.588C247.716 251.154 207.604 249.357 207.581 237.577C207.557 225.797 219.757 193.083 217.34 200.741Z" fill="#316EEA"/>
<path fill-rule="evenodd" clip-rule="evenodd" d="M222.799 224.738C232.23 228.63 239.029 232.787 243.197 237.207C249.448 243.838 279.848 295.412 283.433 298.465C287.017 301.518 311.686 303.831 315.4 305.05C313.5 307.8 309.805 316.294 311.704 323.765C305.842 326.718 292.964 324.082 266.623 321.128C247.028 304.727 236.853 278.859 232.664 266.509C228.474 254.16 225.186 240.237 222.799 224.738Z" fill="url(#paint36_linear)"/>
<path fill-rule="evenodd" clip-rule="evenodd" d="M235.741 233.583C243.355 246.615 255.1 272.784 258.435 284.081C262.012 296.197 248.108 328.102 248.269 335.599C248.404 341.851 241.975 339.668 184.863 345.419C183.098 334.396 183.098 320.613 184.863 304.071C187.51 279.257 176.722 245.874 179.713 240.268C182.704 234.663 189.981 222.742 193.175 222.742C196.369 222.742 228.126 220.551 235.741 233.583Z" fill="url(#paint37_radial)"/>
<path fill-rule="evenodd" clip-rule="evenodd" d="M0.211426 370.752L337.664 300.26C348.452 298.007 359.652 298.768 370.036 302.461L540.233 362.987C604.891 385.981 597.46 479.718 529.986 492.237C525.947 492.986 521.848 493.363 517.741 493.363H100.211C44.9829 493.363 0.211426 448.592 0.211426 393.363V370.752Z" fill="url(#paint38_linear)"/>
<g style="mix-blend-mode:multiply" opacity="0.196931">
<path fill-rule="evenodd" clip-rule="evenodd" d="M247.493 382.676L383.646 360.655L487.239 406.073L337.266 445.883" fill="url(#paint39_linear)"/>
</g>
<path fill-rule="evenodd" clip-rule="evenodd" d="M214.329 203.913C212.906 210.566 214.134 215.38 214.134 222.952C214.134 233.074 193.48 228.955 192.775 221.283C192.07 213.61 192.903 203.323 189.994 196.353C187.086 189.383 215.752 197.26 214.329 203.913Z" fill="url(#paint40_linear)"/>
<path fill-rule="evenodd" clip-rule="evenodd" d="M214.329 203.913C212.906 210.566 214.134 215.38 214.134 222.952C214.134 233.074 193.48 228.955 192.775 221.283C192.07 213.61 192.903 203.323 189.994 196.353C187.086 189.383 215.752 197.26 214.329 203.913Z" fill="url(#paint41_linear)" fill-opacity="0.67"/>
<mask id="mask3" mask-type="alpha" maskUnits="userSpaceOnUse" x="189" y="193" width="26" height="36">
<path fill-rule="evenodd" clip-rule="evenodd" d="M214.329 203.913C212.906 210.566 214.134 215.38 214.134 222.952C214.134 233.074 193.48 228.955 192.775 221.283C192.07 213.61 192.903 203.323 189.994 196.353C187.086 189.383 215.752 197.26 214.329 203.913Z" fill="white"/>
<path fill-rule="evenodd" clip-rule="evenodd" d="M214.329 203.913C212.906 210.566 214.134 215.38 214.134 222.952C214.134 233.074 193.48 228.955 192.775 221.283C192.07 213.61 192.903 203.323 189.994 196.353C187.086 189.383 215.752 197.26 214.329 203.913Z" stroke="white"/>
</mask>
<g mask="url(#mask3)">
<g opacity="0.717132">
<path fill-rule="evenodd" clip-rule="evenodd" d="M184.76 233.521C184.76 233.521 215.959 207.363 223.159 207.363C230.359 207.363 184.76 198.593 184.76 198.593V233.521Z" fill="url(#paint42_linear)" style="mix-blend-mode:multiply"/>
</g>
</g>
<path fill-rule="evenodd" clip-rule="evenodd" d="M220.671 150.374C222.507 156.175 222.301 162.608 225.863 168.147C229.425 173.687 234.118 178.525 235.365 180.986C236.611 183.448 230.365 185.634 230.365 187.835C230.365 190.036 234.528 205.351 232.3 206.815C231.031 210.235 207.656 214.976 201.753 211.58C196.55 211.58 188.53 207.012 183.609 195.786C178.688 184.561 178.461 157.303 183.609 150.374C188.757 143.445 218.835 144.574 220.671 150.374Z" fill="url(#paint43_linear)"/>
<path fill-rule="evenodd" clip-rule="evenodd" d="M257.143 372.097L264.942 308.791L371.285 306.658L361.987 368.464L257.143 372.097Z" fill="url(#paint44_linear)"/>
<mask id="mask4" mask-type="alpha" maskUnits="userSpaceOnUse" x="257" y="306" width="115" height="67">
<path fill-rule="evenodd" clip-rule="evenodd" d="M257.143 372.097L264.942 308.791L371.285 306.658L361.987 368.464L257.143 372.097Z" fill="white"/>
</mask>
<g mask="url(#mask4)">
<g style="mix-blend-mode:multiply" opacity="0.458036">
<path fill-rule="evenodd" clip-rule="evenodd" d="M367.617 355.039L353.774 304.995H376.075L367.617 355.039Z" fill="url(#paint45_linear)"/>
</g>
<g style="mix-blend-mode:multiply" opacity="0.528404">
<path fill-rule="evenodd" clip-rule="evenodd" d="M268.962 342.894C268.962 346.888 278.571 352.684 289.868 357.757C296.418 360.699 295.516 367.528 298.366 367.528C306.133 367.528 250.983 389.959 250.983 389.959C250.983 389.959 247.993 359.626 250.983 351.71C254.243 343.083 268.962 340.701 268.962 342.894Z" fill="url(#paint46_linear)"/>
</g>
</g>
<path fill-rule="evenodd" clip-rule="evenodd" d="M248.484 346.415C251.713 346.415 255.623 344.706 261.333 343.4C267.044 342.094 270.645 340.019 272.399 341.95C273.084 342.704 271.941 344.54 271.105 345.041C270.27 345.542 269.827 346.279 265.839 347.754C262.138 349.123 259.996 349.764 260.664 351.04C261.333 352.316 267.396 353.426 269.338 353.94C271.816 354.597 275.543 355.878 279.097 356.475C283.07 357.142 287.458 357.216 287.963 357.508C288.918 358.06 290.316 360.137 287.963 360.8C287.407 360.957 283.387 361.037 278.498 360.8C273.277 360.546 268.49 359.545 269.338 360.8C269.539 361.097 274.354 362.08 279.642 362.08C282.776 362.08 289.118 362.47 289.52 362.47C290.97 362.47 291.698 364.455 290.382 365.431C290.075 365.659 283.955 366.352 279.097 366.531C273.506 366.737 268.557 366.23 268.499 366.531C268.456 366.751 274.346 367.492 279.642 367.24C283.928 367.035 286.284 366.7 287.085 367.24C287.886 367.779 287.683 369.221 287.085 369.87C286.836 370.14 282.964 371.372 279.097 371.628C273.668 371.988 267.768 371.359 267.716 371.628C267.578 372.342 277.611 372.794 279.097 372.794C281.214 372.794 280.947 375.533 278.498 376.113C275.426 376.84 269.071 376.782 266.178 376.782C263.285 376.782 258.939 376.113 254.59 374.497C250.241 372.881 244.433 370.717 240.752 369.87C236.774 368.955 239.631 356.369 242.385 349.765C245.14 343.162 245.255 346.415 248.484 346.415Z" fill="url(#paint47_linear)"/>
<path fill-rule="evenodd" clip-rule="evenodd" d="M152.364 273.804C144.138 294.853 150.641 310.83 154.252 329.067C157.863 347.305 159.506 351.251 165.261 354.961C171.017 358.67 185.129 363.837 239.37 370.105C239.37 365.769 239.232 354.999 246.322 345.956C236.298 345.956 200.669 336.122 188.419 333.04C177.413 324.6 188.419 311.068 188.419 285.678C188.419 260.29 160.59 252.754 152.364 273.804Z" fill="url(#paint48_linear)"/>
<path fill-rule="evenodd" clip-rule="evenodd" d="M211.84 172.061L184.076 177.295V179.374L212.829 177.184L211.84 172.061Z" fill="#143B8C"/>
<path fill-rule="evenodd" clip-rule="evenodd" d="M219.232 182.938C216.027 183.275 212.995 179.456 212.465 174.416C211.936 169.375 214.108 165.01 217.314 164.672C220.519 164.335 223.552 168.154 224.081 173.194C224.61 178.235 222.438 182.601 219.232 182.938Z" fill="black" fill-opacity="0.01" stroke="#143B8C" stroke-width="4"/>
<path fill-rule="evenodd" clip-rule="evenodd" d="M234.714 173.958C231.814 174.263 229.07 170.809 228.591 166.248C228.112 161.688 230.078 157.738 232.978 157.432C235.878 157.127 238.622 160.582 239.101 165.143C239.58 169.703 237.614 173.653 234.714 173.958Z" fill="black" fill-opacity="0.01" stroke="#143B8C" stroke-width="4"/>
<path fill-rule="evenodd" clip-rule="evenodd" d="M223.497 171.435C223.497 170.163 227.084 167.67 228.883 168.925L223.497 171.435Z" fill="black" fill-opacity="0.01"/>
<path d="M223.497 171.435C223.497 170.163 227.084 167.67 228.883 168.925" stroke="#143B8C" stroke-width="4"/>
<path fill-rule="evenodd" clip-rule="evenodd" d="M185.537 153.016C193.224 158.963 211.108 160.707 223.282 154.961C235.456 149.215 238.427 125.69 223.282 118.452C217.522 115.699 206.081 117.481 207.668 125.78C194.418 120.653 180.01 125.143 174.297 128.563C165.396 133.891 158.458 139.697 154.81 151.903C151.162 164.108 157.118 176.246 154.186 182.462C151.255 188.678 142.62 194.074 147.237 213.175C151.853 232.276 140.76 229.22 138.259 240.871C135.759 252.522 143.724 258.081 138.259 265.845C132.795 273.608 122.318 306.383 141.94 323.936C161.562 341.489 198.126 354.278 206.435 316.492C214.744 278.705 175.768 270.455 187.206 251.56C198.643 232.664 191.066 215.146 193.461 209.743C196.406 203.096 193.239 192.954 187.645 179.209C182.464 166.478 189.923 163.079 185.537 153.016Z" fill="url(#paint49_linear)"/>
<path fill-rule="evenodd" clip-rule="evenodd" d="M185.537 153.016C193.224 158.963 211.108 160.707 223.282 154.961C235.456 149.215 238.427 125.69 223.282 118.452C217.522 115.699 206.081 117.481 207.668 125.78C194.418 120.653 180.01 125.143 174.297 128.563C165.396 133.891 158.458 139.697 154.81 151.903C151.162 164.108 157.118 176.246 154.186 182.462C151.255 188.678 142.62 194.074 147.237 213.175C151.853 232.276 140.76 229.22 138.259 240.871C135.759 252.522 143.724 258.081 138.259 265.845C132.795 273.608 122.318 306.383 141.94 323.936C161.562 341.489 198.126 354.278 206.435 316.492C214.744 278.705 175.768 270.455 187.206 251.56C198.643 232.664 191.066 215.146 193.461 209.743C196.406 203.096 193.239 192.954 187.645 179.209C182.464 166.478 189.923 163.079 185.537 153.016Z" fill="url(#paint50_linear)"/>
<path fill-rule="evenodd" clip-rule="evenodd" d="M253.797 419.56L327.803 406.837C368.652 432.381 388.67 445.234 387.858 445.398C386.704 445.631 304.985 459.93 299.465 461.412C299.981 460.093 284.755 446.139 253.797 419.56Z" fill="url(#paint51_linear)"/>
<path fill-rule="evenodd" clip-rule="evenodd" d="M297.736 399.8L375.074 394.593L417.591 431.765L321.239 438.416L297.736 399.8Z" fill="url(#paint52_linear)"/>
<g filter="url(#filter2_i)">
<path fill-rule="evenodd" clip-rule="evenodd" d="M487.574 405.363L557.812 377.377C559.238 376.809 559.934 375.19 559.366 373.763C559.071 373.021 558.472 372.442 557.721 372.173L468.286 340.098L380.06 361.917L487.574 405.363Z" fill="url(#paint53_linear)"/>
</g>
<g filter="url(#filter3_i)">
<path fill-rule="evenodd" clip-rule="evenodd" d="M364.423 271.029L463.524 303.119C466.44 304.064 468.604 306.531 469.16 309.547L486.892 405.713L379.504 362.121L360.138 274.931C359.738 273.13 360.872 271.346 362.671 270.946C363.252 270.817 363.857 270.846 364.423 271.029Z" fill="url(#paint54_linear)"/>
<path fill-rule="evenodd" clip-rule="evenodd" d="M364.423 271.029L463.524 303.119C466.44 304.064 468.604 306.531 469.16 309.547L486.892 405.713L379.504 362.121L360.138 274.931C359.738 273.13 360.872 271.346 362.671 270.946C363.252 270.817 363.857 270.846 364.423 271.029Z" fill="url(#paint55_linear)" fill-opacity="0.23"/>
</g>
<path fill-rule="evenodd" clip-rule="evenodd" d="M414.135 341.904C419.243 344.397 424.628 344.392 426.85 339.834C429.072 335.275 425.064 330.116 419.956 327.623C414.849 325.13 410.02 325.135 407.798 329.694C405.576 334.252 409.028 339.411 414.135 341.904Z" fill="#D6E3FA"/>
<path fill-rule="evenodd" clip-rule="evenodd" d="M380.432 62.564C380.414 59.0908 383.213 56.2598 386.687 56.2397L392.054 56.2087C395.613 56.1881 398.492 59.1001 398.431 62.6587V62.6587C398.37 66.1488 395.501 68.9338 392.01 68.8895L386.643 68.8213C383.213 68.7777 380.45 65.9943 380.432 62.564V62.564Z" stroke="#E5EFFD" stroke-width="5"/>
<path fill-rule="evenodd" clip-rule="evenodd" d="M409.874 62.5877C409.835 59.0842 412.666 56.224 416.169 56.2254L419.964 56.2269C423.484 56.2283 426.327 59.0999 426.293 62.6194V62.6194C426.259 66.1434 423.354 68.9616 419.831 68.8888L416.037 68.8105C412.639 68.7403 409.911 65.9856 409.874 62.5877V62.5877Z" stroke="#E5EFFD" stroke-width="5"/>
<path fill-rule="evenodd" clip-rule="evenodd" d="M398.413 61.777H409.537H398.413Z" fill="black" fill-opacity="0.01"/>
<path d="M398.413 61.777H409.537" stroke="#E5EFFD" stroke-width="4"/>
<path fill-rule="evenodd" clip-rule="evenodd" d="M367.712 52.305L381.266 58.8928V65.3435L368.998 56.7784L367.712 52.305Z" fill="#E5EFFD"/>
<path fill-rule="evenodd" clip-rule="evenodd" d="M230.6 191.928C231.146 191.647 230.974 192.892 231.212 193.624C231.45 194.355 231.611 194.47 231.69 194.947C229.424 196.114 225.482 196.344 222.842 194.782C222.313 194.469 221.851 194.212 222.289 193.781C222.728 193.35 223.273 193.62 223.863 193.794C225.918 194.403 229.188 192.656 230.6 191.928Z" fill="#1A418F"/>
<path opacity="0.7" fill-rule="evenodd" clip-rule="evenodd" d="M150.937 442.456C169.367 442.456 184.308 445.695 184.308 449.691C184.308 453.687 169.367 456.926 150.937 456.926C132.506 456.926 117.566 453.687 117.566 449.691C117.566 445.695 132.506 442.456 150.937 442.456Z" fill="url(#paint56_linear)"/>
<path fill-rule="evenodd" clip-rule="evenodd" d="M195.408 407.6C197.919 412.002 199.325 416.934 199.325 422.142C199.325 440.738 181.396 455.813 159.28 455.813C137.163 455.813 119.234 440.738 119.234 422.142C119.234 416.631 120.809 411.429 123.601 406.836C141.341 409.647 176.651 409.466 195.408 407.6Z" fill="url(#paint57_linear)"/>
<mask id="mask5" mask-type="alpha" maskUnits="userSpaceOnUse" x="119" y="406" width="81" height="50">
<path fill-rule="evenodd" clip-rule="evenodd" d="M195.408 407.6C197.919 412.002 199.325 416.934 199.325 422.142C199.325 440.738 181.396 455.813 159.28 455.813C137.163 455.813 119.234 440.738 119.234 422.142C119.234 416.631 120.809 411.429 123.601 406.836C141.341 409.647 176.651 409.466 195.408 407.6Z" fill="white"/>
</mask>
<g mask="url(#mask5)">
</g>
<path fill-rule="evenodd" clip-rule="evenodd" d="M159.558 400.158C179.678 400.158 195.988 404.021 195.988 408.785C195.988 413.549 179.678 417.411 159.558 417.411C139.438 417.411 123.128 413.549 123.128 408.785C123.128 404.021 139.438 400.158 159.558 400.158Z" fill="url(#paint58_linear)"/>
<mask id="mask6" mask-type="alpha" maskUnits="userSpaceOnUse" x="123" y="400" width="73" height="18">
<path fill-rule="evenodd" clip-rule="evenodd" d="M159.558 400.158C179.678 400.158 195.988 404.021 195.988 408.785C195.988 413.549 179.678 417.411 159.558 417.411C139.438 417.411 123.128 413.549 123.128 408.785C123.128 404.021 139.438 400.158 159.558 400.158Z" fill="white"/>
</mask>
<g mask="url(#mask6)">
</g>
<g filter="url(#filter4_i)">
<path fill-rule="evenodd" clip-rule="evenodd" d="M156.499 402.385C154.51 388.608 149.037 368.714 132.583 347.286C122.891 334.664 122.859 303.926 121.46 300.536C129.065 303.153 142.727 309.899 156.499 328.92C170.936 348.859 161.777 389.523 156.499 402.385Z" fill="url(#paint59_linear)"/>
</g>
<mask id="mask7" mask-type="alpha" maskUnits="userSpaceOnUse" x="121" y="300" width="44" height="103">
<path fill-rule="evenodd" clip-rule="evenodd" d="M156.499 402.385C154.51 388.608 149.037 368.714 132.583 347.286C122.891 334.664 122.859 303.926 121.46 300.536C129.065 303.153 142.727 309.899 156.499 328.92C170.936 348.859 161.777 389.523 156.499 402.385Z" fill="white"/>
</mask>
<g mask="url(#mask7)">
<g style="mix-blend-mode:multiply" opacity="0.5">
<path d="M154.74 389.424L143.54 336.39C151.347 351.134 154.68 367.318 154.74 389.424Z" fill="black" fill-opacity="0.01"/>
<path d="M154.74 389.424L143.54 336.39C151.347 351.134 154.68 367.318 154.74 389.424Z" stroke="#489C71" stroke-width="3"/>
</g>
</g>
<g filter="url(#filter5_i)">
<path fill-rule="evenodd" clip-rule="evenodd" d="M156.56 416.525C150.414 406.688 139.555 393.357 119.801 382.547C108.165 376.179 97.8144 352.749 95.6074 350.635C102.29 350.073 114.982 350.625 131.881 360.501C149.595 370.853 156.267 404.943 156.56 416.525Z" fill="url(#paint60_linear)"/>
</g>
<mask id="mask8" mask-type="alpha" maskUnits="userSpaceOnUse" x="95" y="350" width="62" height="67">
<path fill-rule="evenodd" clip-rule="evenodd" d="M156.56 416.525C150.414 406.688 139.555 393.357 119.801 382.547C108.165 376.179 97.8144 352.749 95.6074 350.635C102.29 350.073 114.982 350.625 131.881 360.501C149.595 370.853 156.267 404.943 156.56 416.525Z" fill="white"/>
</mask>
<g mask="url(#mask8)">
<g style="mix-blend-mode:multiply" opacity="0.5">
<path d="M149.606 405.056L125.788 371.919C135.442 379.946 142.775 390.232 149.606 405.056Z" fill="black" fill-opacity="0.01"/>
<path d="M149.606 405.056L125.788 371.919C135.442 379.946 142.775 390.232 149.606 405.056Z" stroke="#489C71" stroke-width="3"/>
</g>
</g>
<g filter="url(#filter6_i)">
<path fill-rule="evenodd" clip-rule="evenodd" d="M160.975 417.874C165.821 407.285 174.909 392.609 193.183 379.297C203.947 371.455 211.218 346.789 213.142 344.399C206.413 344.702 193.843 346.889 178.292 358.904C161.989 371.498 159.764 406.303 160.975 417.874Z" fill="url(#paint61_linear)"/>
</g>
<mask id="mask9" mask-type="alpha" maskUnits="userSpaceOnUse" x="160" y="344" width="54" height="74">
<path fill-rule="evenodd" clip-rule="evenodd" d="M160.975 417.874C165.821 407.285 174.909 392.609 193.183 379.297C203.947 371.455 211.218 346.789 213.142 344.399C206.413 344.702 193.843 346.889 178.292 358.904C161.989 371.498 159.764 406.303 160.975 417.874Z" fill="white"/>
</mask>
<g mask="url(#mask9)">
<g style="mix-blend-mode:multiply" opacity="0.5">
<path d="M184.016 369.288L164.53 405.468C169.422 389.766 175.408 378.548 184.016 369.288Z" fill="black" fill-opacity="0.01"/>
<path d="M184.016 369.288L164.53 405.468C169.422 389.766 175.408 378.548 184.016 369.288Z" stroke="#489C71" stroke-width="3"/>
</g>
</g>
<defs>
<filter id="filter0_i" x="450.533" y="252.463" width="168.391" height="130.831" filterUnits="userSpaceOnUse" color-interpolation-filters="sRGB">
<feFlood flood-opacity="0" result="BackgroundImageFix"/>
<feBlend mode="normal" in="SourceGraphic" in2="BackgroundImageFix" result="shape"/>
<feColorMatrix in="SourceAlpha" type="matrix" values="0 0 0 0 0 0 0 0 0 0 0 0 0 0 0 0 0 0 127 0" result="hardAlpha"/>
<feOffset dx="-12" dy="1"/>
<feGaussianBlur stdDeviation="13.5"/>
<feComposite in2="hardAlpha" operator="arithmetic" k2="-1" k3="1"/>
<feColorMatrix type="matrix" values="0 0 0 0 0.0901961 0 0 0 0 0.254902 0 0 0 0 0.572549 0 0 0 0.204201 0"/>
<feBlend mode="normal" in2="shape" result="effect1_innerShadow"/>
</filter>
<filter id="filter1_i" x="289.489" y="105.744" width="239.285" height="188.887" filterUnits="userSpaceOnUse" color-interpolation-filters="sRGB">
<feFlood flood-opacity="0" result="BackgroundImageFix"/>
<feBlend mode="normal" in="SourceGraphic" in2="BackgroundImageFix" result="shape"/>
<feColorMatrix in="SourceAlpha" type="matrix" values="0 0 0 0 0 0 0 0 0 0 0 0 0 0 0 0 0 0 127 0" result="hardAlpha"/>
<feOffset dx="8" dy="3"/>
<feGaussianBlur stdDeviation="11.5"/>
<feComposite in2="hardAlpha" operator="arithmetic" k2="-1" k3="1"/>
<feColorMatrix type="matrix" values="0 0 0 0 0.729412 0 0 0 0 0.8 0 0 0 0 0.933333 0 0 0 1 0"/>
<feBlend mode="normal" in2="shape" result="effect1_innerShadow"/>
</filter>
<filter id="filter2_i" x="363.06" y="333.097" width="196.504" height="72.2659" filterUnits="userSpaceOnUse" color-interpolation-filters="sRGB">
<feFlood flood-opacity="0" result="BackgroundImageFix"/>
<feBlend mode="normal" in="SourceGraphic" in2="BackgroundImageFix" result="shape"/>
<feColorMatrix in="SourceAlpha" type="matrix" values="0 0 0 0 0 0 0 0 0 0 0 0 0 0 0 0 0 0 127 0" result="hardAlpha"/>
<feOffset dx="-17" dy="-7"/>
<feGaussianBlur stdDeviation="12"/>
<feComposite in2="hardAlpha" operator="arithmetic" k2="-1" k3="1"/>
<feColorMatrix type="matrix" values="0 0 0 0 0.239216 0 0 0 0 0.509804 0 0 0 0 0.941176 0 0 0 0.775419 0"/>
<feBlend mode="normal" in2="shape" result="effect1_innerShadow"/>
</filter>
<filter id="filter3_i" x="354.057" y="270.867" width="132.835" height="136.847" filterUnits="userSpaceOnUse" color-interpolation-filters="sRGB">
<feFlood flood-opacity="0" result="BackgroundImageFix"/>
<feBlend mode="normal" in="SourceGraphic" in2="BackgroundImageFix" result="shape"/>
<feColorMatrix in="SourceAlpha" type="matrix" values="0 0 0 0 0 0 0 0 0 0 0 0 0 0 0 0 0 0 127 0" result="hardAlpha"/>
<feOffset dx="-6" dy="2"/>
<feGaussianBlur stdDeviation="6"/>
<feComposite in2="hardAlpha" operator="arithmetic" k2="-1" k3="1"/>
<feColorMatrix type="matrix" values="0 0 0 0 1 0 0 0 0 1 0 0 0 0 1 0 0 0 0.5 0"/>
<feBlend mode="normal" in2="shape" result="effect1_innerShadow"/>
</filter>
<filter id="filter4_i" x="121.459" y="290.536" width="42.7965" height="111.848" filterUnits="userSpaceOnUse" color-interpolation-filters="sRGB">
<feFlood flood-opacity="0" result="BackgroundImageFix"/>
<feBlend mode="normal" in="SourceGraphic" in2="BackgroundImageFix" result="shape"/>
<feColorMatrix in="SourceAlpha" type="matrix" values="0 0 0 0 0 0 0 0 0 0 0 0 0 0 0 0 0 0 127 0" result="hardAlpha"/>
<feOffset dy="-10"/>
<feGaussianBlur stdDeviation="11"/>
<feComposite in2="hardAlpha" operator="arithmetic" k2="-1" k3="1"/>
<feColorMatrix type="matrix" values="0 0 0 0 0.221483 0 0 0 0 0.77854 0 0 0 0 0.610041 0 0 0 1 0"/>
<feBlend mode="normal" in2="shape" result="effect1_innerShadow"/>
</filter>
<filter id="filter5_i" x="95.6074" y="340.484" width="60.953" height="76.0411" filterUnits="userSpaceOnUse" color-interpolation-filters="sRGB">
<feFlood flood-opacity="0" result="BackgroundImageFix"/>
<feBlend mode="normal" in="SourceGraphic" in2="BackgroundImageFix" result="shape"/>
<feColorMatrix in="SourceAlpha" type="matrix" values="0 0 0 0 0 0 0 0 0 0 0 0 0 0 0 0 0 0 127 0" result="hardAlpha"/>
<feOffset dy="-10"/>
<feGaussianBlur stdDeviation="11"/>
<feComposite in2="hardAlpha" operator="arithmetic" k2="-1" k3="1"/>
<feColorMatrix type="matrix" values="0 0 0 0 0.221483 0 0 0 0 0.77854 0 0 0 0 0.610041 0 0 0 1 0"/>
<feBlend mode="normal" in2="shape" result="effect1_innerShadow"/>
</filter>
<filter id="filter6_i" x="160.697" y="334.399" width="52.445" height="83.4751" filterUnits="userSpaceOnUse" color-interpolation-filters="sRGB">
<feFlood flood-opacity="0" result="BackgroundImageFix"/>
<feBlend mode="normal" in="SourceGraphic" in2="BackgroundImageFix" result="shape"/>
<feColorMatrix in="SourceAlpha" type="matrix" values="0 0 0 0 0 0 0 0 0 0 0 0 0 0 0 0 0 0 127 0" result="hardAlpha"/>
<feOffset dy="-10"/>
<feGaussianBlur stdDeviation="11"/>
<feComposite in2="hardAlpha" operator="arithmetic" k2="-1" k3="1"/>
<feColorMatrix type="matrix" values="0 0 0 0 0.221483 0 0 0 0 0.77854 0 0 0 0 0.610041 0 0 0 1 0"/>
<feBlend mode="normal" in2="shape" result="effect1_innerShadow"/>
</filter>
<linearGradient id="paint0_linear" x1="513.622" y1="221.942" x2="513.622" y2="31.4695" gradientUnits="userSpaceOnUse">
<stop stop-color="#ECF2FC" stop-opacity="0.642323"/>
<stop offset="1" stop-color="#D4E1F8"/>
</linearGradient>
<linearGradient id="paint1_linear" x1="310.76" y1="220.172" x2="247.659" y2="302.64" gradientUnits="userSpaceOnUse">
<stop stop-color="#CFDDF3"/>
<stop offset="1" stop-color="#A1B8E3"/>
</linearGradient>
<linearGradient id="paint2_linear" x1="296.938" y1="308.559" x2="319.078" y2="345.381" gradientUnits="userSpaceOnUse">
<stop stop-color="#CFDDF3"/>
<stop offset="1" stop-color="#A1B8E3"/>
</linearGradient>
<linearGradient id="paint3_linear" x1="297.504" y1="279.693" x2="310.756" y2="301.733" gradientUnits="userSpaceOnUse">
<stop stop-color="#CFDDF3"/>
<stop offset="1" stop-color="#A1B8E3"/>
</linearGradient>
<linearGradient id="paint4_linear" x1="284.245" y1="235.672" x2="380.089" y2="395.07" gradientUnits="userSpaceOnUse">
<stop stop-color="#CFDDF3"/>
<stop offset="1" stop-color="#A1B8E3"/>
</linearGradient>
<linearGradient id="paint5_linear" x1="437.764" y1="252.277" x2="440.04" y2="382.48" gradientUnits="userSpaceOnUse">
<stop stop-color="#CFDDF3"/>
<stop offset="1" stop-color="#A1B8E3"/>
</linearGradient>
<linearGradient id="paint6_linear" x1="436.764" y1="177.852" x2="411.863" y2="202.015" gradientUnits="userSpaceOnUse">
<stop stop-color="#CFDDF3"/>
<stop offset="1" stop-color="#A1B8E3"/>
</linearGradient>
<linearGradient id="paint7_linear" x1="567.214" y1="276.023" x2="557.552" y2="242.689" gradientUnits="userSpaceOnUse">
<stop stop-color="#CFDDF3"/>
<stop offset="1" stop-color="#A1B8E3"/>
</linearGradient>
<linearGradient id="paint8_linear" x1="554.919" y1="309.571" x2="547.015" y2="275.778" gradientUnits="userSpaceOnUse">
<stop stop-color="#CFDDF3"/>
<stop offset="1" stop-color="#A1B8E3"/>
</linearGradient>
<linearGradient id="paint9_linear" x1="545.529" y1="338.54" x2="537.625" y2="304.746" gradientUnits="userSpaceOnUse">
<stop stop-color="#CFDDF3"/>
<stop offset="1" stop-color="#A1B8E3"/>
</linearGradient>
<linearGradient id="paint10_linear" x1="543.939" y1="178.884" x2="511.109" y2="167.687" gradientUnits="userSpaceOnUse">
<stop stop-color="#CFDDF3"/>
<stop offset="1" stop-color="#A1B8E3"/>
</linearGradient>
<linearGradient id="paint11_linear" x1="408.804" y1="215.18" x2="388.969" y2="243.654" gradientUnits="userSpaceOnUse">
<stop stop-color="#CFDDF3"/>
<stop offset="1" stop-color="#A1B8E3"/>
</linearGradient>
<linearGradient id="paint12_linear" x1="391.008" y1="250.923" x2="374.258" y2="281.317" gradientUnits="userSpaceOnUse">
<stop stop-color="#CFDDF3"/>
<stop offset="1" stop-color="#A1B8E3"/>
</linearGradient>
<linearGradient id="paint13_linear" x1="311.934" y1="-7.41592" x2="208.919" y2="124.166" gradientUnits="userSpaceOnUse">
<stop stop-color="#D2E0F9" stop-opacity="0.01"/>
<stop offset="1" stop-color="#B1C6E7" stop-opacity="0.464589"/>
</linearGradient>
<linearGradient id="paint14_linear" x1="302.507" y1="41.4281" x2="221.254" y2="145.213" gradientUnits="userSpaceOnUse">
<stop stop-color="#D2E0F9" stop-opacity="0.01"/>
<stop offset="1" stop-color="#B1C6E7" stop-opacity="0.464589"/>
</linearGradient>
<linearGradient id="paint15_linear" x1="507.155" y1="42.117" x2="404.14" y2="173.699" gradientUnits="userSpaceOnUse">
<stop stop-color="#D2E0F9" stop-opacity="0.01"/>
<stop offset="1" stop-color="#B1C6E7" stop-opacity="0.464589"/>
</linearGradient>
<linearGradient id="paint16_linear" x1="497.727" y1="90.9605" x2="416.474" y2="194.746" gradientUnits="userSpaceOnUse">
<stop stop-color="#D2E0F9" stop-opacity="0.01"/>
<stop offset="1" stop-color="#B1C6E7" stop-opacity="0.464589"/>
</linearGradient>
<linearGradient id="paint17_linear" x1="575.956" y1="321.388" x2="647.041" y2="300.22" gradientUnits="userSpaceOnUse">
<stop stop-color="#7FA0D4"/>
<stop offset="1" stop-color="#D6E3FA"/>
</linearGradient>
<linearGradient id="paint18_linear" x1="560.58" y1="206.849" x2="529.706" y2="231.095" gradientUnits="userSpaceOnUse">
<stop stop-color="#5D6FAA"/>
<stop offset="1" stop-color="#90AADB"/>
</linearGradient>
<linearGradient id="paint19_linear" x1="552.963" y1="210.546" x2="552.963" y2="265.413" gradientUnits="userSpaceOnUse">
<stop stop-color="#CFDDF3"/>
<stop offset="1" stop-color="#A1B8E3" stop-opacity="0.01"/>
</linearGradient>
<radialGradient id="paint20_radial" cx="0" cy="0" r="1" gradientUnits="userSpaceOnUse" gradientTransform="translate(530.527 198.358) rotate(23.4189) scale(28.835 38.765)">
<stop stop-color="#E1EDFF"/>
<stop offset="1" stop-color="#A1B8E3"/>
</radialGradient>
<linearGradient id="paint21_linear" x1="509.382" y1="143.934" x2="523.868" y2="193.903" gradientUnits="userSpaceOnUse">
<stop stop-color="#2D6DC0"/>
<stop offset="1" stop-color="#143B8C"/>
</linearGradient>
<linearGradient id="paint22_linear" x1="551.605" y1="188.206" x2="562.458" y2="239.13" gradientUnits="userSpaceOnUse">
<stop stop-color="#174293" stop-opacity="0.01"/>
<stop offset="1" stop-color="#051E4B"/>
</linearGradient>
<linearGradient id="paint23_linear" x1="494.209" y1="228.085" x2="516.122" y2="264.896" gradientUnits="userSpaceOnUse">
<stop stop-color="#2D6DC0"/>
<stop offset="1" stop-color="#143B8C"/>
</linearGradient>
<linearGradient id="paint24_linear" x1="505.31" y1="324.38" x2="497.217" y2="354.066" gradientUnits="userSpaceOnUse">
<stop stop-color="#2E7DE7" stop-opacity="0.01"/>
<stop offset="1" stop-color="#00357E" stop-opacity="0.5"/>
</linearGradient>
<linearGradient id="paint25_linear" x1="581.109" y1="272.101" x2="581.109" y2="240.187" gradientUnits="userSpaceOnUse">
<stop stop-color="#70B8F9" stop-opacity="0.275872"/>
<stop offset="1" stop-color="#3D82F0"/>
</linearGradient>
<linearGradient id="paint26_linear" x1="546.63" y1="354.027" x2="579.96" y2="371.177" gradientUnits="userSpaceOnUse">
<stop stop-color="#3D82F0" stop-opacity="0.01"/>
<stop offset="1" stop-color="#3D82F0"/>
</linearGradient>
<linearGradient id="paint27_linear" x1="467.692" y1="331.948" x2="507.354" y2="350.153" gradientUnits="userSpaceOnUse">
<stop stop-color="#3D82F0" stop-opacity="0.01"/>
<stop offset="1" stop-color="#3D82F0"/>
</linearGradient>
<linearGradient id="paint28_linear" x1="351.845" y1="97.556" x2="395.475" y2="117.159" gradientUnits="userSpaceOnUse">
<stop stop-color="#00224E"/>
<stop offset="1" stop-color="#113275"/>
</linearGradient>
<radialGradient id="paint29_radial" cx="0" cy="0" r="1" gradientUnits="userSpaceOnUse" gradientTransform="translate(420.13 85.7155) rotate(-74.487) scale(45.7819 37.1507)">
<stop stop-color="#2D6DC0"/>
<stop offset="1" stop-color="#143B8C"/>
</radialGradient>
<linearGradient id="paint30_linear" x1="413.988" y1="-7.21786" x2="378.389" y2="42.7754" gradientUnits="userSpaceOnUse">
<stop stop-color="#CFDDF3"/>
<stop offset="1" stop-color="#A1B8E3"/>
</linearGradient>
<linearGradient id="paint31_linear" x1="477.223" y1="92.3395" x2="379.91" y2="139.351" gradientUnits="userSpaceOnUse">
<stop stop-color="#EDF3FD"/>
<stop offset="1" stop-color="#D6E3FA"/>
</linearGradient>
<linearGradient id="paint32_linear" x1="330.642" y1="350.256" x2="390.608" y2="334.457" gradientUnits="userSpaceOnUse">
<stop stop-color="#EAF0F7" stop-opacity="0.115546"/>
<stop offset="1" stop-color="#D1DDED"/>
</linearGradient>
<linearGradient id="paint33_linear" x1="405.721" y1="86.5249" x2="311.765" y2="99.7944" gradientUnits="userSpaceOnUse">
<stop stop-color="#EAF0F7" stop-opacity="0.115546"/>
<stop offset="1" stop-color="#D1DDED"/>
</linearGradient>
<linearGradient id="paint34_linear" x1="370.445" y1="113.122" x2="380.865" y2="113.122" gradientUnits="userSpaceOnUse">
<stop stop-color="#B1C6E7"/>
<stop offset="1" stop-color="#E5EFFD"/>
</linearGradient>
<linearGradient id="paint35_linear" x1="173.271" y1="249.373" x2="117.235" y2="238.031" gradientUnits="userSpaceOnUse">
<stop stop-color="#7FA0D4"/>
<stop offset="1" stop-color="#D6E3FA"/>
</linearGradient>
<linearGradient id="paint36_linear" x1="283.762" y1="353.826" x2="333.313" y2="325.951" gradientUnits="userSpaceOnUse">
<stop stop-color="#002D65"/>
<stop offset="0.87783" stop-color="#3A74C6"/>
<stop offset="1" stop-color="#3062AA"/>
</linearGradient>
<radialGradient id="paint37_radial" cx="0" cy="0" r="1" gradientUnits="userSpaceOnUse" gradientTransform="translate(262.73 283.005) rotate(-173.246) scale(62.8925 90.9075)">
<stop stop-color="#2D6DC0"/>
<stop offset="1" stop-color="#143B8C"/>
</radialGradient>
<linearGradient id="paint38_linear" x1="65.0119" y1="304.435" x2="63.8349" y2="440.277" gradientUnits="userSpaceOnUse">
<stop stop-color="#EAEFFF"/>
<stop offset="1" stop-color="white"/>
</linearGradient>
<linearGradient id="paint39_linear" x1="295.102" y1="357.762" x2="293.023" y2="409.709" gradientUnits="userSpaceOnUse">
<stop stop-color="#0041B2"/>
<stop offset="1" stop-color="#2D64D7" stop-opacity="0.01"/>
</linearGradient>
<linearGradient id="paint40_linear" x1="185.977" y1="188.67" x2="185.977" y2="233.75" gradientUnits="userSpaceOnUse">
<stop stop-color="#4376C9"/>
<stop offset="1" stop-color="#D6E3FA"/>
</linearGradient>
<linearGradient id="paint41_linear" x1="192.024" y1="230.341" x2="210.931" y2="230.341" gradientUnits="userSpaceOnUse">
<stop stop-color="#133B8B"/>
<stop offset="1" stop-color="#A9BFE7" stop-opacity="0.01"/>
<stop offset="1" stop-color="#A9BFE7" stop-opacity="0.01"/>
</linearGradient>
<linearGradient id="paint42_linear" x1="184.76" y1="198.593" x2="184.76" y2="233.521" gradientUnits="userSpaceOnUse">
<stop stop-color="#699DF3"/>
<stop offset="1" stop-color="#8597B5" stop-opacity="0.01"/>
</linearGradient>
<linearGradient id="paint43_linear" x1="174.799" y1="204.232" x2="215.976" y2="208.897" gradientUnits="userSpaceOnUse">
<stop stop-color="#7798F6"/>
<stop offset="1" stop-color="#E5EFFD"/>
</linearGradient>
<linearGradient id="paint44_linear" x1="291.447" y1="394.591" x2="330.199" y2="331.4" gradientUnits="userSpaceOnUse">
<stop stop-color="#FF7F31"/>
<stop offset="1" stop-color="#FFD25F"/>
</linearGradient>
<linearGradient id="paint45_linear" x1="367.557" y1="300.745" x2="350.139" y2="303.097" gradientUnits="userSpaceOnUse">
<stop stop-color="#FF7F31"/>
<stop offset="1" stop-color="#FFC83A" stop-opacity="0.01"/>
</linearGradient>
<linearGradient id="paint46_linear" x1="282.725" y1="387.563" x2="307.002" y2="370.675" gradientUnits="userSpaceOnUse">
<stop stop-color="#FF7F31"/>
<stop offset="1" stop-color="#FFC83A" stop-opacity="0.01"/>
</linearGradient>
<linearGradient id="paint47_linear" x1="243.16" y1="340.286" x2="234.37" y2="365.787" gradientUnits="userSpaceOnUse">
<stop stop-color="#ECF2FB"/>
<stop offset="1" stop-color="#D5E1F5"/>
</linearGradient>
<linearGradient id="paint48_linear" x1="218.376" y1="309.117" x2="186.702" y2="333.251" gradientUnits="userSpaceOnUse">
<stop stop-color="#3D82F0"/>
<stop offset="1" stop-color="#143B8C"/>
</linearGradient>
<linearGradient id="paint49_linear" x1="262.745" y1="121.167" x2="131.035" y2="123.405" gradientUnits="userSpaceOnUse">
<stop stop-color="#70B8F9"/>
<stop offset="1" stop-color="#0457DC"/>
</linearGradient>
<linearGradient id="paint50_linear" x1="192.167" y1="218.286" x2="126.168" y2="238.065" gradientUnits="userSpaceOnUse">
<stop stop-color="#3D82F0" stop-opacity="0.01"/>
<stop offset="1" stop-color="#0049BD"/>
</linearGradient>
<linearGradient id="paint51_linear" x1="253.797" y1="406.837" x2="253.797" y2="461.412" gradientUnits="userSpaceOnUse">
<stop stop-color="#B2C7E8"/>
<stop offset="1" stop-color="#D6E3FA"/>
</linearGradient>
<linearGradient id="paint52_linear" x1="297.736" y1="394.593" x2="297.736" y2="438.416" gradientUnits="userSpaceOnUse">
<stop stop-color="#C6D6EE"/>
<stop offset="1" stop-color="#E5EFFD"/>
</linearGradient>
<linearGradient id="paint53_linear" x1="451.675" y1="362.428" x2="497.804" y2="362.428" gradientUnits="userSpaceOnUse">
<stop stop-color="#002B64"/>
<stop offset="1" stop-color="#0F3177"/>
</linearGradient>
<linearGradient id="paint54_linear" x1="437.567" y1="261.55" x2="348.659" y2="319.456" gradientUnits="userSpaceOnUse">
<stop stop-color="#DBE9FF"/>
<stop offset="0.440948" stop-color="#A7BDE4"/>
<stop offset="1" stop-color="#5876AF"/>
</linearGradient>
<linearGradient id="paint55_linear" x1="438.575" y1="367.446" x2="432.33" y2="382.106" gradientUnits="userSpaceOnUse">
<stop stop-color="#869FCE" stop-opacity="0.01"/>
<stop offset="1" stop-color="#4975C1"/>
</linearGradient>
<linearGradient id="paint56_linear" x1="185.42" y1="441.9" x2="117.01" y2="441.9" gradientUnits="userSpaceOnUse">
<stop stop-color="#D9E5F6" stop-opacity="0.712636"/>
<stop offset="1" stop-color="#B2C6EA"/>
</linearGradient>
<linearGradient id="paint57_linear" x1="186.791" y1="475.811" x2="198.002" y2="433.008" gradientUnits="userSpaceOnUse">
<stop stop-color="#ACC5E9"/>
<stop offset="0.627469" stop-color="#D3E3FB"/>
<stop offset="1" stop-color="#EAF2FF"/>
</linearGradient>
<linearGradient id="paint58_linear" x1="125.356" y1="396.174" x2="123.577" y2="424.682" gradientUnits="userSpaceOnUse">
<stop stop-color="#86A8D9"/>
<stop offset="1" stop-color="#BCD0F2"/>
</linearGradient>
<linearGradient id="paint59_linear" x1="114.199" y1="328.164" x2="174.017" y2="390.757" gradientUnits="userSpaceOnUse">
<stop stop-color="#B1FFBE"/>
<stop offset="0.444207" stop-color="#5CDB8E"/>
<stop offset="1" stop-color="#149654"/>
</linearGradient>
<linearGradient id="paint60_linear" x1="113.33" y1="347.189" x2="121.936" y2="413.653" gradientUnits="userSpaceOnUse">
<stop stop-color="#B1FFBE"/>
<stop offset="0.444207" stop-color="#5CDB8E"/>
<stop offset="1" stop-color="#149654"/>
</linearGradient>
<linearGradient id="paint61_linear" x1="151.43" y1="363.847" x2="190.833" y2="425.647" gradientUnits="userSpaceOnUse">
<stop stop-color="#B1FFBE"/>
<stop offset="0.444207" stop-color="#5CDB8E"/>
<stop offset="1" stop-color="#149654"/>
</linearGradient>
</defs>
</svg>
