<svg width="36" height="36" viewBox="0 0 36 36" fill="none" xmlns="http://www.w3.org/2000/svg">
<circle cx="18" cy="18" r="18" fill="white"/>
<path fill-rule="evenodd" clip-rule="evenodd" d="M8.125 16.4583C8.125 11.856 11.856 8.125 16.4583 8.125C21.0607 8.125 24.7917 11.856 24.7917 16.4583C24.7917 21.0607 21.0607 24.7917 16.4583 24.7917C11.856 24.7917 8.125 21.0607 8.125 16.4583ZM16.4583 10.2083C13.0066 10.2083 10.2083 13.0066 10.2083 16.4583C10.2083 19.9101 13.0066 22.7083 16.4583 22.7083C19.9101 22.7083 22.7083 19.9101 22.7083 16.4583C22.7083 13.0066 19.9101 10.2083 16.4583 10.2083Z" fill="#0A6ED1"/>
<path fill-rule="evenodd" clip-rule="evenodd" d="M20.9301 20.9301C21.3369 20.5233 21.9964 20.5233 22.4032 20.9301L26.5699 25.0968C26.9767 25.5036 26.9767 26.1631 26.5699 26.5699C26.1631 26.9767 25.5036 26.9767 25.0968 26.5699L20.9301 22.4032C20.5233 21.9964 20.5233 21.3369 20.9301 20.9301Z" fill="#0A6ED1"/>
</svg>
