<svg width="24" height="24" viewBox="0 0 24 24" fill="none" xmlns="http://www.w3.org/2000/svg">
<path d="M12.0014 8.78695C12.9219 8.78695 13.6681 8.04075 13.6681 7.12028C13.6681 6.19981 12.9219 5.45361 12.0014 5.45361C11.0809 5.45361 10.3347 6.19981 10.3347 7.12028C10.3347 8.04075 11.0809 8.78695 12.0014 8.78695Z" fill="#0A6ED1"/>
<path d="M13.3869 11.6867V17.18C13.3869 17.5478 13.2408 17.9005 12.9807 18.1606C12.7207 18.4206 12.368 18.5667 12.0002 18.5667C11.6324 18.5667 11.2797 18.4206 11.0197 18.1606C10.7596 17.9005 10.6135 17.5478 10.6135 17.18V11.6867C10.6135 11.3189 10.7596 10.9662 11.0197 10.7062C11.2797 10.4461 11.6324 10.3 12.0002 10.3C12.368 10.3 12.7207 10.4461 12.9807 10.7062C13.2408 10.9662 13.3869 11.3189 13.3869 11.6867Z" fill="#0A6ED1"/>
<path d="M12 0C5.3728 0 0 5.3728 0 12C0 18.6272 5.3728 24 12 24C18.6272 24 24 18.6272 24 12C24 5.3728 18.6272 0 12 0ZM18.9765 18.9765C18.0632 19.9056 16.9749 20.6445 15.7745 21.1508C14.5741 21.657 13.2854 21.9205 11.9826 21.9261C10.6798 21.9316 9.38882 21.6791 8.18415 21.1831C6.97947 20.6871 5.88494 19.9575 4.96373 19.0363C4.04252 18.1151 3.31287 17.0205 2.81688 15.8159C2.32089 14.6112 2.06839 13.3202 2.07394 12.0174C2.07949 10.7146 2.34299 9.42587 2.84924 8.22546C3.35548 7.02506 4.09444 5.93679 5.02347 5.02347C5.93679 4.09444 7.02506 3.35548 8.22546 2.84924C9.42587 2.34299 10.7146 2.07949 12.0174 2.07394C13.3202 2.06839 14.6112 2.32089 15.8159 2.81688C17.0205 3.31287 18.1151 4.04252 19.0363 4.96373C19.9575 5.88494 20.6871 6.97947 21.1831 8.18415C21.6791 9.38882 21.9316 10.6798 21.9261 11.9826C21.9205 13.2854 21.657 14.5741 21.1508 15.7745C20.6445 16.9749 19.9056 18.0632 18.9765 18.9765Z" fill="#0A6ED1"/>
<path d="M12 0C5.3728 0 0 5.3728 0 12C0 18.6272 5.3728 24 12 24C18.6272 24 24 18.6272 24 12C24 5.3728 18.6272 0 12 0ZM18.9765 18.9765C18.0632 19.9056 16.9749 20.6445 15.7745 21.1508C14.5741 21.657 13.2854 21.9205 11.9826 21.9261C10.6798 21.9316 9.38882 21.6791 8.18415 21.1831C6.97947 20.6871 5.88494 19.9575 4.96373 19.0363C4.04252 18.1151 3.31287 17.0205 2.81688 15.8159C2.32089 14.6112 2.06839 13.3202 2.07394 12.0174C2.07949 10.7146 2.34299 9.42587 2.84924 8.22546C3.35548 7.02506 4.09444 5.93679 5.02347 5.02347C5.93679 4.09444 7.02506 3.35548 8.22546 2.84924C9.42587 2.34299 10.7146 2.07949 12.0174 2.07394C13.3202 2.06839 14.6112 2.32089 15.8159 2.81688C17.0205 3.31287 18.1151 4.04252 19.0363 4.96373C19.9575 5.88494 20.6871 6.97947 21.1831 8.18415C21.6791 9.38882 21.9316 10.6798 21.9261 11.9826C21.9205 13.2854 21.657 14.5741 21.1508 15.7745C20.6445 16.9749 19.9056 18.0632 18.9765 18.9765Z" fill="#0A6ED1"/>
</svg>
