<svg width="16" height="16" viewBox="0 0 16 16" fill="none" xmlns="http://www.w3.org/2000/svg">
<path fill-rule="evenodd" clip-rule="evenodd" d="M6.40071 1.00507C6.53203 0.698664 6.83331 0.5 7.16667 0.5H7.33333C8.622 0.5 9.66667 1.54467 9.66667 2.83333V4.66667H12.6696C14.2294 4.66667 15.4083 6.07928 15.1293 7.61388L14.0687 13.4472C13.8526 14.6359 12.8173 15.5 11.609 15.5H3C1.61929 15.5 0.5 14.3807 0.5 13V8.83333C0.5 7.45262 1.61929 6.33333 3 6.33333H4.11717L6.40071 1.00507ZM7.67567 2.26116L5.43262 7.49493C5.30131 7.80134 5.00002 8 4.66667 8H3C2.53976 8 2.16667 8.3731 2.16667 8.83333V13C2.16667 13.4602 2.53976 13.8333 3 13.8333H11.609C12.0118 13.8333 12.3569 13.5453 12.4289 13.1491L13.4895 7.31574C13.5825 6.8042 13.1896 6.33333 12.6696 6.33333H8.83333C8.3731 6.33333 8 5.96024 8 5.5V2.83333C8 2.59031 7.86996 2.37765 7.67567 2.26116Z" fill="#979797"/>
<path fill-rule="evenodd" clip-rule="evenodd" d="M4.66667 6.33333C5.1269 6.33333 5.5 6.70643 5.5 7.16667V14.6667C5.5 15.1269 5.1269 15.5 4.66667 15.5C4.20643 15.5 3.83333 15.1269 3.83333 14.6667V7.16667C3.83333 6.70643 4.20643 6.33333 4.66667 6.33333Z" fill="#979797"/>
</svg>
