<svg width="16" height="18" viewBox="0 0 16 18" fill="none" xmlns="http://www.w3.org/2000/svg">
<path fill-rule="evenodd" clip-rule="evenodd" d="M7 10C4.23858 10 2 12.2386 2 15V16H14V15C14 12.2386 11.7614 10 9 10H7ZM0 15C0 11.134 3.13401 8 7 8H9C12.866 8 16 11.134 16 15V17C16 17.5523 15.5523 18 15 18H1C0.447715 18 0 17.5523 0 17V15Z" fill="#0A6ED1"/>
<path fill-rule="evenodd" clip-rule="evenodd" d="M3 5C3 2.23858 5.23858 0 8 0C10.7614 0 13 2.23858 13 5C13 7.76142 10.7614 10 8 10C5.23858 10 3 7.76142 3 5ZM8 2C6.34315 2 5 3.34315 5 5C5 6.65685 6.34315 8 8 8C9.65685 8 11 6.65685 11 5C11 3.34315 9.65685 2 8 2Z" fill="#0A6ED1"/>
</svg>
