<svg width="36" height="36" viewBox="0 0 36 36" fill="none" xmlns="http://www.w3.org/2000/svg">
<circle cx="18" cy="18" r="18" fill="white"/>
<path fill-rule="evenodd" clip-rule="evenodd" d="M15 23C15 22.4477 15.4477 22 16 22H20C20.5523 22 21 22.4477 21 23C21 24.6569 19.6569 26 18 26C16.3431 26 15 24.6569 15 23Z" fill="#0A6ED1"/>
<path fill-rule="evenodd" clip-rule="evenodd" d="M13.9672 11.9118C13.2413 13.0534 13 14.5795 13 16V18C13 19.6538 12.4717 21.0291 11.9363 22H24.0638C23.5283 21.0291 23 19.6538 23 18V16C23 14.572 22.7586 13.0464 22.0332 11.9071C21.3553 10.8425 20.1853 10 18 10C15.8162 10 14.6458 10.8448 13.9672 11.9118ZM26.7076 22.2934L26.7081 22.2938L26.7088 22.2946L26.7017 22.2872C26.6929 22.2779 26.6774 22.2614 26.6562 22.2379C26.6137 22.1909 26.5487 22.1163 26.4684 22.0159C26.3074 21.8147 26.0882 21.5137 25.8683 21.1289C25.426 20.3549 25 19.2762 25 18V16C25 14.4147 24.7437 12.4403 23.7202 10.8329C22.6492 9.15089 20.8191 8 18 8C15.1795 8 13.3499 9.1555 12.2796 10.8386C11.2566 12.4472 11 14.4211 11 16V18C11 19.2762 10.574 20.3549 10.1318 21.1289C9.91185 21.5137 9.69268 21.8147 9.53166 22.0159C9.4514 22.1163 9.38632 22.1909 9.34386 22.2379C9.32266 22.2614 9.30717 22.2779 9.29835 22.2872L9.29026 22.2956C9.29024 22.2956 9.29022 22.2956 9.29021 22.2956C9.28978 22.2961 9.28978 22.2961 9.2902 22.2956C9.00639 22.5816 8.92186 23.0102 9.07615 23.3827C9.23093 23.7564 9.59557 24 10 24H26C26.4045 24 26.7691 23.7564 26.9239 23.3827C27.0782 23.0102 26.9937 22.5816 26.7098 22.2956C26.7091 22.2949 26.7084 22.2941 26.7076 22.2934Z" fill="#0A6ED1"/>
</svg>
