<svg width="73" height="36" viewBox="0 0 73 36" fill="none" xmlns="http://www.w3.org/2000/svg">
<path fill-rule="evenodd" clip-rule="evenodd" d="M0 36H36.8954L73 0H0V36Z" fill="url(#paint0_linear)"/>
<path fill-rule="evenodd" clip-rule="evenodd" d="M43.3236 6.77149H36.1351V23.7911L29.8591 6.76138H23.6339L18.2501 21.0118C17.6823 17.4138 13.9614 16.1707 11.0211 15.251C9.12511 14.6244 7.09733 13.7148 7.09733 12.7041C7.09733 11.8754 8.19233 11.1174 10.3519 11.2285C12.1894 11.2849 13.9881 11.7695 15.6039 12.6435L18.1082 8.30771C15.5752 7.09156 12.8081 6.43646 9.99706 6.38744C8.67275 6.31602 7.34756 6.51097 6.1004 6.96067C4.85325 7.41037 3.70962 8.10564 2.73761 9.00507C1.65523 10.1134 1.03864 11.5921 1.014 13.1387C0.941625 14.1238 1.13243 15.1104 1.567 15.9981C2.00156 16.8857 2.66436 17.6428 3.48789 18.192C4.98503 19.1926 6.6356 19.9436 8.37484 20.4155C10.4026 21.032 11.9944 21.5677 11.9741 22.7097C11.9627 23.1282 11.7966 23.5277 11.5078 23.8316C11.1881 24.0997 10.8184 24.302 10.4199 24.4269C10.0214 24.5518 9.60198 24.5968 9.18595 24.5592C7.07382 24.6329 4.99297 24.0347 3.24456 22.8512L1.014 27.2881C3.48645 28.6903 6.28049 29.4319 9.12511 29.4408H9.53067C11.763 29.4887 13.9449 28.7756 15.7154 27.4194L15.979 27.187L15.2084 29.0264H21.7379L22.8329 25.7013C24.0715 26.1132 25.3699 26.3181 26.6755 26.3077C27.9446 26.3147 29.2069 26.1237 30.4168 25.7417L31.4307 29.0264H42.0765V22.1539H44.3983C50.0153 22.1539 53.3307 19.3038 53.3307 14.5233C53.4118 9.2072 50.1876 6.77149 43.3236 6.77149ZM26.7161 21.3453C25.9309 21.3481 25.1515 21.2112 24.4146 20.9411L26.6857 13.7754H26.7364L28.9669 20.9613C28.2446 21.2181 27.483 21.348 26.7161 21.3453ZM43.7393 17.1814H42.1576V11.4509H43.7393C45.8583 11.4509 47.5414 12.1482 47.5414 14.301C47.5414 16.4537 45.8583 17.1814 43.7393 17.1814Z" fill="white"/>
<defs>
<linearGradient id="paint0_linear" x1="36.5" y1="0" x2="36.5" y2="36" gradientUnits="userSpaceOnUse">
<stop stop-color="#00B8F1"/>
<stop offset="0.02" stop-color="#01B6F0"/>
<stop offset="0.31" stop-color="#0D90D9"/>
<stop offset="0.58" stop-color="#1775C8"/>
<stop offset="0.82" stop-color="#1C65BF"/>
<stop offset="1" stop-color="#1E5FBB"/>
</linearGradient>
</defs>
</svg>
