<svg width="20" height="19" viewBox="0 0 20 19" fill="none" xmlns="http://www.w3.org/2000/svg">
<path fill-rule="evenodd" clip-rule="evenodd" d="M0.867188 8.47225C0.867188 3.86988 4.59815 0.138916 9.20052 0.138916C13.8029 0.138916 17.5339 3.86988 17.5339 8.47225C17.5339 13.0746 13.8029 16.8056 9.20052 16.8056C4.59815 16.8056 0.867188 13.0746 0.867188 8.47225ZM9.20052 2.22225C5.74874 2.22225 2.95052 5.02047 2.95052 8.47225C2.95052 11.924 5.74874 14.7222 9.20052 14.7222C12.6523 14.7222 15.4505 11.924 15.4505 8.47225C15.4505 5.02047 12.6523 2.22225 9.20052 2.22225Z" fill="#0A6ED1"/>
<path fill-rule="evenodd" clip-rule="evenodd" d="M13.6723 12.944C14.0791 12.5372 14.7386 12.5372 15.1454 12.944L19.3121 17.1107C19.7189 17.5175 19.7189 18.177 19.3121 18.5838C18.9053 18.9906 18.2457 18.9906 17.8389 18.5838L13.6723 14.4172C13.2655 14.0104 13.2655 13.3508 13.6723 12.944Z" fill="#0A6ED1"/>
</svg>
