<svg width="30" height="30" viewBox="0 0 30 30" fill="none" xmlns="http://www.w3.org/2000/svg">
<path fill-rule="evenodd" clip-rule="evenodd" d="M19.0909 28.3696C19.0902 29.1508 18.4799 29.7837 17.7273 29.7837L12.2727 29.7837C11.5198 29.7837 10.9094 29.1503 10.9091 28.3689L10.9067 22.1178C10.9064 21.3361 11.5167 20.7022 12.2698 20.7019C13.0229 20.7016 13.6337 21.335 13.634 22.1167L13.6358 26.9531L16.3648 26.9531L16.369 22.1146C16.3696 21.333 16.9807 20.6999 17.7338 20.7006C18.4869 20.7013 19.0969 21.3355 19.0962 22.1172L19.0909 28.3696Z" fill="#353B44"/>
<path fill-rule="evenodd" clip-rule="evenodd" d="M23.1818 15.6306C23.1818 20.3205 19.5187 24.1224 15 24.1224C10.4813 24.1224 6.81818 20.3205 6.81818 15.6306C6.81818 10.9407 10.4813 7.13881 15 7.13881C19.5187 7.13881 23.1818 10.9407 23.1818 15.6306ZM15 21.2918C18.0125 21.2918 20.4545 18.7572 20.4545 15.6306C20.4545 12.504 18.0125 9.96942 15 9.96942C11.9875 9.96942 9.54545 12.504 9.54545 15.6306C9.54545 18.7572 11.9875 21.2918 15 21.2918Z" fill="#353B44"/>
<path fill-rule="evenodd" clip-rule="evenodd" d="M4.09091 15.5683C4.09091 16.35 3.48038 16.9836 2.72727 16.9836H1.36363C0.610519 16.9836 0 16.35 0 15.5683C0 14.7867 0.610519 14.153 1.36363 14.153H2.72727C3.48038 14.153 4.09091 14.7867 4.09091 15.5683Z" fill="#0A6ED1"/>
<path fill-rule="evenodd" clip-rule="evenodd" d="M30 15.5683C30 16.35 29.3895 16.9836 28.6364 16.9836H27.2727C26.5196 16.9836 25.9091 16.35 25.9091 15.5683C25.9091 14.7867 26.5196 14.153 27.2727 14.153H28.6364C29.3895 14.153 30 14.7867 30 15.5683Z" fill="#0A6ED1"/>
<path fill-rule="evenodd" clip-rule="evenodd" d="M15 4.24592C14.2469 4.24592 13.6364 3.61226 13.6364 2.83061L13.6364 1.41531C13.6364 0.633659 14.2469 7.62939e-06 15 7.62939e-06C15.7531 7.62939e-06 16.3636 0.633659 16.3636 1.41531V2.83061C16.3636 3.61226 15.7531 4.24592 15 4.24592Z" fill="#0A6ED1"/>
<path fill-rule="evenodd" clip-rule="evenodd" d="M7.1006 7.36964C6.56807 7.92235 5.70466 7.92235 5.17212 7.36964L3.80849 5.95434C3.27595 5.40163 3.27595 4.50551 3.80849 3.9528C4.34102 3.40009 5.20443 3.40009 5.73696 3.9528L7.1006 5.3681C7.63313 5.92081 7.63313 6.81693 7.1006 7.36964Z" fill="#0A6ED1"/>
<path fill-rule="evenodd" clip-rule="evenodd" d="M22.8994 7.36964C22.3669 6.81693 22.3669 5.92081 22.8994 5.3681L24.263 3.9528C24.7956 3.40009 25.659 3.40009 26.1915 3.9528C26.724 4.50551 26.724 5.40163 26.1915 5.95434L24.8279 7.36964C24.2953 7.92235 23.4319 7.92235 22.8994 7.36964Z" fill="#0A6ED1"/>
</svg>
