<svg width="30" height="30" viewBox="0 0 30 30" fill="none" xmlns="http://www.w3.org/2000/svg">
<path fill-rule="evenodd" clip-rule="evenodd" d="M15 3C8.37258 3 3 8.37258 3 15C3 21.6274 8.37258 27 15 27H25.8512L24.2094 24.2627C23.8853 23.7223 23.9335 23.0368 24.3302 22.5471C26.0005 20.485 27 17.8613 27 15C27 8.37258 21.6274 3 15 3ZM0 15C0 6.71573 6.71573 0 15 0C23.2843 0 30 6.71573 30 15C30 18.1915 29.0018 21.1531 27.3014 23.5854L29.7864 27.7285C30.0643 28.1919 30.0715 28.7689 29.8052 29.2391C29.539 29.7094 29.0404 30 28.5 30H15C6.71573 30 0 23.2843 0 15Z" fill="#353B44"/>
<path fill-rule="evenodd" clip-rule="evenodd" d="M8 12.5C8 11.6716 8.67157 11 9.5 11H21.5C22.3284 11 23 11.6716 23 12.5C23 13.3284 22.3284 14 21.5 14H9.5C8.67157 14 8 13.3284 8 12.5Z" fill="#0A6ED1"/>
<path fill-rule="evenodd" clip-rule="evenodd" d="M8 18.5C8 17.6716 8.67157 17 9.5 17H15.5C16.3284 17 17 17.6716 17 18.5C17 19.3284 16.3284 20 15.5 20H9.5C8.67157 20 8 19.3284 8 18.5Z" fill="#0A6ED1"/>
<path fill-rule="evenodd" clip-rule="evenodd" d="M8 12.5C8 11.6716 8.67157 11 9.5 11H21.5C22.3284 11 23 11.6716 23 12.5C23 13.3284 22.3284 14 21.5 14H9.5C8.67157 14 8 13.3284 8 12.5Z" fill="#0A6ED1"/>
<path fill-rule="evenodd" clip-rule="evenodd" d="M8 18.5C8 17.6716 8.67157 17 9.5 17H15.5C16.3284 17 17 17.6716 17 18.5C17 19.3284 16.3284 20 15.5 20H9.5C8.67157 20 8 19.3284 8 18.5Z" fill="#0A6ED1"/>
</svg>
