<svg width="32" height="32" viewBox="0 0 32 32" fill="none" xmlns="http://www.w3.org/2000/svg">
<g clip-path="url(#clip0)">
<path fill-rule="evenodd" clip-rule="evenodd" d="M22.3625 12.7371C22.3685 12.8781 22.3725 13.0191 22.3725 13.1621C22.3725 17.4991 19.0705 22.5011 13.0325 22.5011C11.1785 22.5011 9.45349 21.9581 8.00049 21.0271C8.25749 21.0571 8.51848 21.0721 8.78348 21.0721C10.3215 21.0721 11.7365 20.5481 12.8605 19.6671C11.4235 19.6411 10.2115 18.6921 9.79349 17.3881C9.99449 17.4261 10.1995 17.4461 10.4115 17.4461C10.7105 17.4461 11.0005 17.4061 11.2765 17.3311C9.77449 17.0301 8.64346 15.7031 8.64346 14.1131V14.0711C9.08546 14.3171 9.59249 14.4651 10.1305 14.4821C9.24949 13.8931 8.66946 12.8881 8.66946 11.7501C8.66946 11.1481 8.83147 10.5841 9.11447 10.0991C10.7335 12.0851 13.1525 13.3921 15.8805 13.5291C15.8245 13.2891 15.7955 13.0381 15.7955 12.7811C15.7955 10.9681 17.2655 9.49811 19.0775 9.49811C20.0225 9.49811 20.8755 9.89709 21.4735 10.5351C22.2215 10.3881 22.9245 10.1151 23.5585 9.73911C23.3135 10.5051 22.7925 11.1481 22.1155 11.5551C22.7795 11.4751 23.4115 11.2991 24.0005 11.0381C23.5605 11.6961 23.0035 12.2741 22.3625 12.7371ZM16.0005 9.15527e-05C7.16349 9.15527e-05 0.000488281 7.16309 0.000488281 16.0001C0.000488281 24.8361 7.16349 32.0001 16.0005 32.0001C24.8375 32.0001 32.0005 24.8361 32.0005 16.0001C32.0005 7.16309 24.8375 9.15527e-05 16.0005 9.15527e-05Z" fill="white"/>
</g>
<defs>
<clipPath id="clip0">
<rect width="32" height="32" fill="white"/>
</clipPath>
</defs>
</svg>
