<svg width="32" height="32" viewBox="0 0 32 32" fill="none" xmlns="http://www.w3.org/2000/svg">
<path fill-rule="evenodd" clip-rule="evenodd" d="M24 16.604C24 17.899 23.84 19.194 23.84 19.194C23.84 19.194 23.684 20.296 23.204 20.782C22.596 21.419 21.914 21.422 21.601 21.459C19.362 21.621 16 21.626 16 21.626C16 21.626 11.84 21.588 10.56 21.466C10.204 21.399 9.404 21.419 8.796 20.782C8.316 20.296 8.16 19.194 8.16 19.194C8.16 19.194 8 17.899 8 16.604V15.39C8 14.095 8.16 12.801 8.16 12.801C8.16 12.801 8.316 11.698 8.796 11.212C9.404 10.575 10.086 10.572 10.399 10.535C12.638 10.373 15.997 10.373 15.997 10.373H16.003C16.003 10.373 19.362 10.373 21.601 10.535C21.914 10.572 22.596 10.575 23.204 11.212C23.684 11.698 23.84 12.801 23.84 12.801C23.84 12.801 24 14.095 24 15.39V16.604ZM16 0C7.163 0 0 7.163 0 16C0 24.836 7.163 32 16 32C24.837 32 32 24.836 32 16C32 7.163 24.837 0 16 0Z" fill="white"/>
<path fill-rule="evenodd" clip-rule="evenodd" d="M14.3482 18.075L18.6712 15.835L14.3472 13.579L14.3482 18.075Z" fill="white"/>
</svg>
