<svg width="80" height="80" viewBox="0 0 80 80" fill="none" xmlns="http://www.w3.org/2000/svg">
<circle cx="40" cy="40" r="40" fill="#0A6ED1"/>
<path fill-rule="evenodd" clip-rule="evenodd" d="M24 50C24 48.8954 24.8954 48 26 48H34C35.1046 48 36 48.8954 36 50V58C36 59.1046 35.1046 60 34 60H26C24.8954 60 24 59.1046 24 58V50ZM28 52V56H32V52H28Z" fill="white"/>
<path fill-rule="evenodd" clip-rule="evenodd" d="M37.4142 34.5858C38.1953 35.3668 38.1953 36.6332 37.4142 37.4142L29.4142 45.4142C28.6332 46.1953 27.3668 46.1953 26.5858 45.4142L22.5858 41.4142C21.8047 40.6332 21.8047 39.3668 22.5858 38.5858C23.3668 37.8047 24.6332 37.8047 25.4142 38.5858L28 41.1716L34.5858 34.5858C35.3668 33.8047 36.6332 33.8047 37.4142 34.5858Z" fill="white"/>
<path fill-rule="evenodd" clip-rule="evenodd" d="M37.4142 20.5858C38.1953 21.3668 38.1953 22.6332 37.4142 23.4142L29.4142 31.4142C28.6332 32.1953 27.3668 32.1953 26.5858 31.4142L22.5858 27.4142C21.8047 26.6332 21.8047 25.3668 22.5858 24.5858C23.3668 23.8047 24.6332 23.8047 25.4142 24.5858L28 27.1716L34.5858 20.5858C35.3668 19.8047 36.6332 19.8047 37.4142 20.5858Z" fill="white"/>
<path fill-rule="evenodd" clip-rule="evenodd" d="M42 26C42 24.8954 42.8954 24 44 24H56C57.1046 24 58 24.8954 58 26C58 27.1046 57.1046 28 56 28H44C42.8954 28 42 27.1046 42 26Z" fill="white"/>
<path fill-rule="evenodd" clip-rule="evenodd" d="M42 40C42 38.8954 42.8954 38 44 38H56C57.1046 38 58 38.8954 58 40C58 41.1046 57.1046 42 56 42H44C42.8954 42 42 41.1046 42 40Z" fill="white"/>
<path fill-rule="evenodd" clip-rule="evenodd" d="M42 54C42 52.8954 42.8954 52 44 52H56C57.1046 52 58 52.8954 58 54C58 55.1046 57.1046 56 56 56H44C42.8954 56 42 55.1046 42 54Z" fill="white"/>
</svg>
