<svg width="80" height="80" viewBox="0 0 80 80" fill="none" xmlns="http://www.w3.org/2000/svg">
<circle cx="40" cy="40" r="40" fill="#0A6ED1"/>
<path fill-rule="evenodd" clip-rule="evenodd" d="M22 30.3999C22 27.4176 24.4176 25 27.3999 25H41.7997C44.782 25 47.1997 27.4176 47.1997 30.3999V37.5998H56.1995C57.1936 37.5998 57.9995 38.4057 57.9995 39.3998V42.9998C57.9995 45.9821 55.5819 48.3997 52.5996 48.3997H27.3999C24.4176 48.3997 22 45.9821 22 42.9998V30.3999ZM27.3999 28.6C26.4058 28.6 25.6 29.4058 25.6 30.3999V42.9998C25.6 43.9939 26.4058 44.7997 27.3999 44.7997H52.5996C53.5937 44.7997 54.3996 43.9939 54.3996 42.9998V41.1998H45.3997C44.4056 41.1998 43.5997 40.3939 43.5997 39.3998V30.3999C43.5997 29.4058 42.7938 28.6 41.7997 28.6H27.3999Z" fill="white"/>
<path fill-rule="evenodd" clip-rule="evenodd" d="M25.6 50.1997C25.6 47.2174 28.0176 44.7997 30.9999 44.7997C33.9822 44.7997 36.3998 47.2174 36.3998 50.1997C36.3998 53.182 33.9822 55.5996 30.9999 55.5996C28.0176 55.5996 25.6 53.182 25.6 50.1997ZM30.9999 48.3997C30.0058 48.3997 29.1999 49.2056 29.1999 50.1997C29.1999 51.1938 30.0058 51.9996 30.9999 51.9996C31.994 51.9996 32.7999 51.1938 32.7999 50.1997C32.7999 49.2056 31.994 48.3997 30.9999 48.3997Z" fill="white"/>
<path fill-rule="evenodd" clip-rule="evenodd" d="M43.5997 50.1997C43.5997 47.2174 46.0173 44.7997 48.9996 44.7997C51.9819 44.7997 54.3996 47.2174 54.3996 50.1997C54.3996 53.182 51.9819 55.5996 48.9996 55.5996C46.0173 55.5996 43.5997 53.182 43.5997 50.1997ZM48.9996 48.3997C48.0055 48.3997 47.1997 49.2056 47.1997 50.1997C47.1997 51.1938 48.0055 51.9996 48.9996 51.9996C49.9937 51.9996 50.7996 51.1938 50.7996 50.1997C50.7996 49.2056 49.9937 48.3997 48.9996 48.3997Z" fill="white"/>
<path fill-rule="evenodd" clip-rule="evenodd" d="M43.5997 30.3999C43.5997 29.4058 44.4056 28.6 45.3997 28.6H52.5996C53.3356 28.6 53.9975 29.0481 54.2708 29.7314L57.8708 38.7313C58.24 39.6543 57.791 40.7018 56.868 41.071C55.945 41.4402 54.8975 40.9913 54.5283 40.0683L51.3809 32.1999H45.3997C44.4056 32.1999 43.5997 31.394 43.5997 30.3999Z" fill="white"/>
</svg>
