<svg width="60" height="60" viewBox="0 0 60 60" fill="none" xmlns="http://www.w3.org/2000/svg">
<circle cx="30" cy="30" r="29" stroke="#0A6ED1" stroke-width="2"/>
<path fill-rule="evenodd" clip-rule="evenodd" d="M41.4332 33.5909C41.9335 34.093 41.9335 34.907 41.4332 35.4091L33.7471 43.1234C33.2468 43.6255 32.4357 43.6255 31.9354 43.1234C31.4352 42.6213 31.4352 41.8073 31.9354 41.3051L39.6216 33.5909C40.1218 33.0888 40.9329 33.0888 41.4332 33.5909Z" fill="#0A6ED1"/>
<path fill-rule="evenodd" clip-rule="evenodd" d="M31.9354 33.5909C32.4357 33.0888 33.2468 33.0888 33.7471 33.5909L41.4332 41.3051C41.9335 41.8073 41.9335 42.6213 41.4332 43.1234C40.9329 43.6255 40.1218 43.6255 39.6216 43.1234L31.9354 35.4091C31.4352 34.907 31.4352 34.093 31.9354 33.5909Z" fill="#0A6ED1"/>
<path fill-rule="evenodd" clip-rule="evenodd" d="M27.7172 29.3571C24.1797 29.3571 21.312 32.2353 21.312 35.7857V37.0714H28.9982C29.7057 37.0714 30.2792 37.6471 30.2792 38.3571C30.2792 39.0672 29.7057 39.6429 28.9982 39.6429H20.031C19.3235 39.6429 18.75 39.0672 18.75 38.3571V35.7857C18.75 30.8152 22.7647 26.7857 27.7172 26.7857H30.2792C32.5723 26.7857 34.6671 27.6513 36.252 29.0727C36.7796 29.5458 36.8251 30.3586 36.3537 30.8881C35.8823 31.4176 35.0725 31.4633 34.5449 30.9901C33.4114 29.9736 31.9186 29.3571 30.2792 29.3571H27.7172Z" fill="#0A6ED1"/>
<path fill-rule="evenodd" clip-rule="evenodd" d="M22.5931 22.9286C22.5931 19.3782 25.4607 16.5 28.9982 16.5C32.5356 16.5 35.4033 19.3782 35.4033 22.9286C35.4033 26.479 32.5356 29.3571 28.9982 29.3571C25.4607 29.3571 22.5931 26.479 22.5931 22.9286ZM28.9982 19.0714C26.8757 19.0714 25.1551 20.7983 25.1551 22.9286C25.1551 25.0588 26.8757 26.7857 28.9982 26.7857C31.1206 26.7857 32.8412 25.0588 32.8412 22.9286C32.8412 20.7983 31.1206 19.0714 28.9982 19.0714Z" fill="#0A6ED1"/>
</svg>
