<svg width="80" height="80" viewBox="0 0 80 80" fill="none" xmlns="http://www.w3.org/2000/svg">
<circle cx="40" cy="40" r="40" fill="#0A6ED1"/>
<path fill-rule="evenodd" clip-rule="evenodd" d="M55.2443 44.7878C55.9113 45.4573 55.9113 46.5427 55.2443 47.2122L44.9961 57.4979C44.3291 58.1674 43.2476 58.1674 42.5806 57.4979C41.9135 56.8284 41.9135 55.743 42.5806 55.0735L52.8287 44.7878C53.4958 44.1183 54.5772 44.1183 55.2443 44.7878Z" fill="white"/>
<path fill-rule="evenodd" clip-rule="evenodd" d="M42.5806 44.7878C43.2476 44.1183 44.3291 44.1183 44.9961 44.7878L55.2443 55.0735C55.9113 55.743 55.9113 56.8284 55.2443 57.4979C54.5772 58.1674 53.4958 58.1674 52.8287 57.4979L42.5806 47.2122C41.9135 46.5427 41.9135 45.4573 42.5806 44.7878Z" fill="white"/>
<path fill-rule="evenodd" clip-rule="evenodd" d="M36.9562 39.1429C32.2396 39.1429 28.4161 42.9804 28.4161 47.7143V49.4286H38.6642C39.6076 49.4286 40.3723 50.1961 40.3723 51.1429C40.3723 52.0896 39.6076 52.8571 38.6642 52.8571H26.708C25.7647 52.8571 25 52.0896 25 51.1429V47.7143C25 41.0869 30.353 35.7143 36.9562 35.7143H40.3723C43.4297 35.7143 46.2227 36.8684 48.336 38.7635C49.0394 39.3944 49.1001 40.4781 48.4716 41.1841C47.8431 41.8901 46.7633 41.951 46.0599 41.3202C44.5485 39.9648 42.5581 39.1429 40.3723 39.1429H36.9562Z" fill="white"/>
<path fill-rule="evenodd" clip-rule="evenodd" d="M30.1241 30.5714C30.1241 25.8376 33.9476 22 38.6642 22C43.3808 22 47.2044 25.8376 47.2044 30.5714C47.2044 35.3053 43.3808 39.1429 38.6642 39.1429C33.9476 39.1429 30.1241 35.3053 30.1241 30.5714ZM38.6642 25.4286C35.8343 25.4286 33.5401 27.7311 33.5401 30.5714C33.5401 33.4118 35.8343 35.7143 38.6642 35.7143C41.4942 35.7143 43.7883 33.4118 43.7883 30.5714C43.7883 27.7311 41.4942 25.4286 38.6642 25.4286Z" fill="white"/>
</svg>
