<svg width="80" height="80" viewBox="0 0 80 80" fill="none" xmlns="http://www.w3.org/2000/svg">
<circle cx="40" cy="40" r="40" fill="#0A6ED1"/>
<path fill-rule="evenodd" clip-rule="evenodd" d="M30 49.6C30 46.5072 32.5072 44 35.6 44H40.4C43.4928 44 46 46.5072 46 49.6V50C46 51.1046 45.1046 52 44 52H32C30.8954 52 30 51.1046 30 50V49.6Z" fill="white"/>
<path fill-rule="evenodd" clip-rule="evenodd" d="M38 42C40.2091 42 42 40.2091 42 38C42 35.7909 40.2091 34 38 34C35.7909 34 34 35.7909 34 38C34 40.2091 35.7909 42 38 42Z" fill="white"/>
<path fill-rule="evenodd" clip-rule="evenodd" d="M34.5858 20.5858C34.9609 20.2107 35.4696 20 36 20H42C43.1046 20 44 20.8954 44 22C44 23.1046 43.1046 24 42 24H36.8284L26 34.8284V56H50V50C50 48.8954 50.8954 48 52 48C53.1046 48 54 48.8954 54 50V58C54 59.1046 53.1046 60 52 60H24C22.8954 60 22 59.1046 22 58V34C22 33.4696 22.2107 32.9609 22.5858 32.5858L34.5858 20.5858Z" fill="white"/>
<path fill-rule="evenodd" clip-rule="evenodd" d="M51 28C50.4477 28 50 28.4477 50 29C50 29.5523 50.4477 30 51 30H53C55.7614 30 58 32.2386 58 35C58 37.7614 55.7614 40 53 40H48C46.8954 40 46 39.1046 46 38C46 36.8954 46.8954 36 48 36H53C53.5523 36 54 35.5523 54 35C54 34.4477 53.5523 34 53 34H51C48.2386 34 46 31.7614 46 29C46 26.2386 48.2386 24 51 24H56C57.1046 24 58 24.8954 58 26C58 27.1046 57.1046 28 56 28H51Z" fill="white"/>
<path fill-rule="evenodd" clip-rule="evenodd" d="M52 20C53.1046 20 54 20.8954 54 22V24C54 25.1046 53.1046 26 52 26C50.8954 26 50 25.1046 50 24V22C50 20.8954 50.8954 20 52 20Z" fill="white"/>
<path fill-rule="evenodd" clip-rule="evenodd" d="M52 38C53.1046 38 54 38.8954 54 40V42C54 43.1046 53.1046 44 52 44C50.8954 44 50 43.1046 50 42V40C50 38.8954 50.8954 38 52 38Z" fill="white"/>
<path fill-rule="evenodd" clip-rule="evenodd" d="M26 34H32C34.2091 34 36 32.2091 36 30V24" fill="white"/>
</svg>
