<svg width="112" height="80" viewBox="0 0 112 80" fill="none" xmlns="http://www.w3.org/2000/svg">
<path d="M12.5103 28L25.0206 40.5104L12.5103 53.0208" stroke="#B1B1B1" stroke-width="2"/>
<circle cx="72" cy="40" r="40" fill="#3D82F0"/>
<path fill-rule="evenodd" clip-rule="evenodd" d="M62 49.6C62 46.5072 64.5072 44 67.6 44H72.4C75.4928 44 78 46.5072 78 49.6V50C78 51.1046 77.1046 52 76 52H64C62.8954 52 62 51.1046 62 50V49.6Z" fill="white"/>
<path fill-rule="evenodd" clip-rule="evenodd" d="M70 42C72.2091 42 74 40.2091 74 38C74 35.7909 72.2091 34 70 34C67.7909 34 66 35.7909 66 38C66 40.2091 67.7909 42 70 42Z" fill="white"/>
<path fill-rule="evenodd" clip-rule="evenodd" d="M66.5858 20.5858C66.9609 20.2107 67.4696 20 68 20H74C75.1046 20 76 20.8954 76 22C76 23.1046 75.1046 24 74 24H68.8284L58 34.8284V56H82V50C82 48.8954 82.8954 48 84 48C85.1046 48 86 48.8954 86 50V58C86 59.1046 85.1046 60 84 60H56C54.8954 60 54 59.1046 54 58V34C54 33.4696 54.2107 32.9609 54.5858 32.5858L66.5858 20.5858Z" fill="white"/>
<path fill-rule="evenodd" clip-rule="evenodd" d="M83 28C82.4477 28 82 28.4477 82 29C82 29.5523 82.4477 30 83 30H85C87.7614 30 90 32.2386 90 35C90 37.7614 87.7614 40 85 40H80C78.8954 40 78 39.1046 78 38C78 36.8954 78.8954 36 80 36H85C85.5523 36 86 35.5523 86 35C86 34.4477 85.5523 34 85 34H83C80.2386 34 78 31.7614 78 29C78 26.2386 80.2386 24 83 24H88C89.1046 24 90 24.8954 90 26C90 27.1046 89.1046 28 88 28H83Z" fill="white"/>
<path fill-rule="evenodd" clip-rule="evenodd" d="M84 20C85.1046 20 86 20.8954 86 22V24C86 25.1046 85.1046 26 84 26C82.8954 26 82 25.1046 82 24V22C82 20.8954 82.8954 20 84 20Z" fill="white"/>
<path fill-rule="evenodd" clip-rule="evenodd" d="M84 38C85.1046 38 86 38.8954 86 40V42C86 43.1046 85.1046 44 84 44C82.8954 44 82 43.1046 82 42V40C82 38.8954 82.8954 38 84 38Z" fill="white"/>
<path fill-rule="evenodd" clip-rule="evenodd" d="M58 34H64C66.2091 34 68 32.2091 68 30V24" fill="white"/>
</svg>
