<svg width="80" height="80" viewBox="0 0 80 80" fill="none" xmlns="http://www.w3.org/2000/svg">
<circle cx="40" cy="40" r="40" fill="#0A6ED1"/>
<path fill-rule="evenodd" clip-rule="evenodd" d="M26.5 29.5C25.6716 29.5 25 30.1716 25 31V49C25 49.8284 25.6716 50.5 26.5 50.5H53.5C54.3284 50.5 55 49.8284 55 49V31C55 30.1716 54.3284 29.5 53.5 29.5H26.5ZM22 31C22 28.5147 24.0147 26.5 26.5 26.5H53.5C55.9853 26.5 58 28.5147 58 31V49C58 51.4853 55.9853 53.5 53.5 53.5H26.5C24.0147 53.5 22 51.4853 22 49V31Z" fill="white"/>
<path fill-rule="evenodd" clip-rule="evenodd" d="M48.4739 31.0044C48.8701 30.9615 49.2671 31.078 49.5772 31.3283L51.4418 32.8326C51.7731 33.0998 51.9752 33.4951 51.9979 33.9201C52.0205 34.3451 51.8616 34.7597 51.5607 35.0607L50.0607 36.5607C49.7794 36.842 49.3978 37 49 37H47.9344C47.6517 37.9502 47.5 38.957 47.5 40C47.5 41.0417 47.6514 42.0474 47.9334 42.9965H49C49.3984 42.9965 49.7805 43.1551 50.0619 43.4371L51.5619 44.9406C51.8629 45.2423 52.0214 45.6579 51.9977 46.0835C51.9739 46.5091 51.7703 46.9045 51.4375 47.1709L49.5674 48.6683C48.9208 49.186 47.9771 49.0817 47.4592 48.4353C45.6081 46.1248 44.5 43.1898 44.5 40C44.5 36.8067 45.6106 33.8686 47.4654 31.557C47.7148 31.2461 48.0777 31.0473 48.4739 31.0044Z" fill="white"/>
<path fill-rule="evenodd" clip-rule="evenodd" d="M28 45.88C28 43.461 29.961 41.5 32.38 41.5H38.62C41.039 41.5 43 43.461 43 45.88V46C43 46.8284 42.3284 47.5 41.5 47.5H29.5C28.6716 47.5 28 46.8284 28 46V45.88Z" fill="white"/>
<path fill-rule="evenodd" clip-rule="evenodd" d="M35.5 38.5C37.1569 38.5 38.5 37.1569 38.5 35.5C38.5 33.8431 37.1569 32.5 35.5 32.5C33.8431 32.5 32.5 33.8431 32.5 35.5C32.5 37.1569 33.8431 38.5 35.5 38.5Z" fill="white"/>
</svg>
