<svg width="60" height="60" viewBox="0 0 60 60" fill="none" xmlns="http://www.w3.org/2000/svg">
<circle cx="30" cy="30" r="29" stroke="#0A6ED1" stroke-width="2"/>
<path fill-rule="evenodd" clip-rule="evenodd" d="M35.6403 17.8051C37.3819 16.0641 40.2053 16.0651 41.9457 17.8074L42.1982 18.0603C43.9374 19.8014 43.9366 22.6224 42.1964 24.3626L27.9519 38.6071C27.3716 39.1874 26.4308 39.1874 25.8505 38.6071C25.2702 38.0269 25.2702 37.0861 25.8505 36.5058L40.0951 22.2612C40.6751 21.6812 40.6754 20.7408 40.0957 20.1604L39.8431 19.9076C39.263 19.3268 38.3218 19.3265 37.7413 19.9068L23.4941 34.1496C22.9137 34.7298 21.9729 34.7297 21.3927 34.1493C20.8125 33.569 20.8127 32.6281 21.393 32.048L35.6403 17.8051Z" fill="#0A6ED1"/>
<path fill-rule="evenodd" clip-rule="evenodd" d="M21.3929 17.1893C21.9731 16.609 22.9139 16.609 23.4942 17.1893L26.466 20.161C27.0463 20.7413 27.0463 21.6821 26.466 22.2624C25.8857 22.8427 24.9449 22.8427 24.3646 22.2624L22.4435 20.3413L20.0872 22.6976L22.0083 24.6187C22.5886 25.199 22.5886 26.1398 22.0083 26.7201C21.4281 27.3003 20.4872 27.3003 19.907 26.7201L16.9352 23.7483C16.3549 23.168 16.3549 22.2272 16.9352 21.6469L21.3929 17.1893Z" fill="#0A6ED1"/>
<path fill-rule="evenodd" clip-rule="evenodd" d="M37.7376 33.534C38.3179 32.9537 39.2587 32.9537 39.839 33.534L42.8107 36.5058C43.391 37.0861 43.391 38.0269 42.8107 38.6071L38.3531 43.0648C37.7728 43.6451 36.832 43.6451 36.2517 43.0648L33.2799 40.093C32.6997 39.5128 32.6997 38.5719 33.2799 37.9917C33.8602 37.4114 34.801 37.4114 35.3813 37.9917L37.3024 39.9128L39.6587 37.5565L37.7376 35.6354C37.1573 35.0551 37.1573 34.1143 37.7376 33.534Z" fill="#0A6ED1"/>
<path fill-rule="evenodd" clip-rule="evenodd" d="M22.4435 34.5847C20.8023 34.5847 19.4718 35.9152 19.4718 37.5565V40.5282H22.4435C24.0848 40.5282 25.4153 39.1977 25.4153 37.5565C25.4153 35.9152 24.0848 34.5847 22.4435 34.5847ZM16.5 37.5565C16.5 34.2739 19.161 31.6129 22.4435 31.6129C25.7261 31.6129 28.3871 34.2739 28.3871 37.5565C28.3871 40.839 25.7261 43.5 22.4435 43.5H17.9859C17.1653 43.5 16.5 42.8347 16.5 42.0141V37.5565Z" fill="#0A6ED1"/>
</svg>
