<svg width="80" height="80" viewBox="0 0 80 80" fill="none" xmlns="http://www.w3.org/2000/svg">
<circle cx="40" cy="40" r="40" fill="#0A6ED1"/>
<path fill-rule="evenodd" clip-rule="evenodd" d="M47.5204 23.7402C49.8425 21.4188 53.6071 21.4201 55.9276 23.7432L56.2643 24.0804C58.5832 26.4019 58.5821 30.1633 56.2619 32.4834L37.2692 51.4762C36.4955 52.2499 35.2411 52.2499 34.4674 51.4762C33.6937 50.7025 33.6937 49.4481 34.4674 48.6744L53.4601 29.6816C54.2335 28.9082 54.2339 27.6544 53.4609 26.8806L53.1241 26.5434C52.3507 25.7691 51.0958 25.7686 50.3218 26.5424L31.3254 45.5329C30.5516 46.3064 29.2972 46.3062 28.5236 45.5324C27.75 44.7586 27.7502 43.5042 28.524 42.7306L47.5204 23.7402Z" fill="white"/>
<path fill-rule="evenodd" clip-rule="evenodd" d="M28.5238 22.919C29.2975 22.1453 30.5519 22.1453 31.3256 22.919L35.288 26.8814C36.0617 27.6551 36.0617 28.9095 35.288 29.6832C34.5143 30.4569 33.2599 30.4569 32.4862 29.6832L29.9247 27.1217L26.783 30.2635L29.3444 32.8249C30.1181 33.5986 30.1181 34.853 29.3444 35.6267C28.5707 36.4004 27.3163 36.4004 26.5426 35.6267L22.5803 31.6644C21.8066 30.8907 21.8066 29.6363 22.5803 28.8626L28.5238 22.919Z" fill="white"/>
<path fill-rule="evenodd" clip-rule="evenodd" d="M50.3168 44.712C51.0905 43.9383 52.3449 43.9383 53.1186 44.712L57.081 48.6744C57.8547 49.4481 57.8547 50.7025 57.081 51.4762L51.1374 57.4197C50.3637 58.1934 49.1093 58.1934 48.3356 57.4197L44.3733 53.4574C43.5996 52.6837 43.5996 51.4293 44.3733 50.6556C45.147 49.8819 46.4014 49.8819 47.1751 50.6556L49.7365 53.217L52.8783 50.0753L50.3168 47.5138C49.5431 46.7401 49.5431 45.4857 50.3168 44.712Z" fill="white"/>
<path fill-rule="evenodd" clip-rule="evenodd" d="M29.9247 46.1129C27.7364 46.1129 25.9624 47.8869 25.9624 50.0753V54.0376H29.9247C32.1131 54.0376 33.8871 52.2636 33.8871 50.0753C33.8871 47.8869 32.1131 46.1129 29.9247 46.1129ZM22 50.0753C22 45.6986 25.548 42.1506 29.9247 42.1506C34.3014 42.1506 37.8494 45.6986 37.8494 50.0753C37.8494 54.452 34.3014 58 29.9247 58H23.9812C22.887 58 22 57.113 22 56.0188V50.0753Z" fill="white"/>
</svg>
