<svg width="60" height="60" viewBox="0 0 60 60" fill="none" xmlns="http://www.w3.org/2000/svg">
<circle cx="30" cy="30" r="29" stroke="#0A6ED1" stroke-width="2"/>
<path fill-rule="evenodd" clip-rule="evenodd" d="M19.5 17.7273C19.5 17.0495 20.0189 16.5 20.6591 16.5H25.2909C25.5978 16.5 25.8921 16.6289 26.1094 16.8583L27.6139 18.447L29.1119 16.8598C29.3293 16.6294 29.6243 16.5 29.9318 16.5H34.567C34.8741 16.5 35.1686 16.629 35.386 16.8587L37.3687 18.9545H39.2045C39.8447 18.9545 40.3636 19.504 40.3636 20.1818V42.2727C40.3636 42.9505 39.8447 43.5 39.2045 43.5H34.5682C34.2608 43.5 33.966 43.3707 33.7486 43.1405L32.2502 41.554L30.7528 43.1403C30.5354 43.3706 30.2405 43.5 29.9329 43.5H25.2955C24.988 43.5 24.6932 43.3707 24.4759 43.1405L22.4972 41.0455H20.6591C20.0189 41.0455 19.5 40.496 19.5 39.8182V17.7273ZM21.8182 18.9545V38.5909H22.9773C23.2847 38.5909 23.5795 38.7202 23.7969 38.9504L25.7756 41.0455H29.4527L31.4302 38.9506C31.6476 38.7203 31.9424 38.5909 32.2499 38.5909C32.5573 38.5909 32.8522 38.7202 33.0696 38.9504L35.0483 41.0455H38.0455V21.4091H36.8892C36.5821 21.4091 36.2876 21.2801 36.0703 21.0504L34.0875 18.9545H30.4122L28.4352 21.0493C27.9831 21.5284 27.2498 21.5291 26.7968 21.0508L24.8117 18.9545H21.8182Z" fill="#0A6ED1"/>
<path fill-rule="evenodd" clip-rule="evenodd" d="M24.1364 25.0909C24.1364 24.4131 24.6553 23.8636 25.2955 23.8636H29.9318C30.572 23.8636 31.0909 24.4131 31.0909 25.0909C31.0909 25.7687 30.572 26.3182 29.9318 26.3182H25.2955C24.6553 26.3182 24.1364 25.7687 24.1364 25.0909Z" fill="#0A6ED1"/>
<path fill-rule="evenodd" clip-rule="evenodd" d="M24.1364 30C24.1364 29.3222 24.6553 28.7727 25.2955 28.7727H29.9318C30.572 28.7727 31.0909 29.3222 31.0909 30C31.0909 30.6778 30.572 31.2273 29.9318 31.2273H25.2955C24.6553 31.2273 24.1364 30.6778 24.1364 30Z" fill="#0A6ED1"/>
<path fill-rule="evenodd" clip-rule="evenodd" d="M24.1364 34.9091C24.1364 34.2313 24.6553 33.6818 25.2955 33.6818H29.9318C30.572 33.6818 31.0909 34.2313 31.0909 34.9091C31.0909 35.5869 30.572 36.1364 29.9318 36.1364H25.2955C24.6553 36.1364 24.1364 35.5869 24.1364 34.9091Z" fill="#0A6ED1"/>
<path fill-rule="evenodd" clip-rule="evenodd" d="M34.5682 26.9318C35.5284 26.9318 36.3068 26.1076 36.3068 25.0909C36.3068 24.0742 35.5284 23.25 34.5682 23.25C33.608 23.25 32.8295 24.0742 32.8295 25.0909C32.8295 26.1076 33.608 26.9318 34.5682 26.9318Z" fill="#0A6ED1"/>
<path fill-rule="evenodd" clip-rule="evenodd" d="M34.5682 31.8409C35.5284 31.8409 36.3068 31.0167 36.3068 30C36.3068 28.9833 35.5284 28.1591 34.5682 28.1591C33.608 28.1591 32.8295 28.9833 32.8295 30C32.8295 31.0167 33.608 31.8409 34.5682 31.8409Z" fill="#0A6ED1"/>
<path fill-rule="evenodd" clip-rule="evenodd" d="M34.5682 36.75C35.5284 36.75 36.3068 35.9258 36.3068 34.9091C36.3068 33.8924 35.5284 33.0682 34.5682 33.0682C33.608 33.0682 32.8295 33.8924 32.8295 34.9091C32.8295 35.9258 33.608 36.75 34.5682 36.75Z" fill="#0A6ED1"/>
</svg>
