<svg width="80" height="80" viewBox="0 0 80 80" fill="none" xmlns="http://www.w3.org/2000/svg">
<circle cx="40" cy="40" r="40" fill="#0A6ED1"/>
<path fill-rule="evenodd" clip-rule="evenodd" d="M26 23.6364C26 22.7326 26.6919 22 27.5455 22H33.7212C34.1304 22 34.5229 22.1718 34.8126 22.4777L36.8186 24.5961L38.8159 22.4797C39.1058 22.1726 39.499 22 39.9091 22H46.0894C46.4988 22 46.8915 22.172 47.1813 22.4783L49.825 25.2727H52.2727C53.1263 25.2727 53.8182 26.0054 53.8182 26.9091V56.3636C53.8182 57.2674 53.1263 58 52.2727 58H46.0909C45.681 58 45.2879 57.8276 44.9981 57.5207L43.0003 55.4054L41.0037 57.5204C40.7138 57.8275 40.3206 58 39.9106 58H33.7273C33.3174 58 32.9243 57.8276 32.6345 57.5207L29.9962 54.7273H27.5455C26.6919 54.7273 26 53.9946 26 53.0909V23.6364ZM29.0909 25.2727V51.4545H30.6364C31.0462 51.4545 31.4393 51.6269 31.7292 51.9338L34.3674 54.7273H39.2702L41.9069 51.9341C42.1967 51.6271 42.5899 51.4546 42.9998 51.4545C43.4098 51.4545 43.8029 51.6269 44.0928 51.9338L46.7311 54.7273H50.7273V28.5455H49.1856C48.7762 28.5455 48.3835 28.3734 48.0937 28.0672L45.45 25.2727H40.5496L37.9136 28.0658C37.3107 28.7046 36.333 28.7055 35.7291 28.0677L33.0823 25.2727H29.0909Z" fill="white"/>
<path fill-rule="evenodd" clip-rule="evenodd" d="M32.1818 33.4545C32.1818 32.5508 32.8737 31.8182 33.7273 31.8182H39.9091C40.7626 31.8182 41.4545 32.5508 41.4545 33.4545C41.4545 34.3583 40.7626 35.0909 39.9091 35.0909H33.7273C32.8737 35.0909 32.1818 34.3583 32.1818 33.4545Z" fill="white"/>
<path fill-rule="evenodd" clip-rule="evenodd" d="M32.1818 40C32.1818 39.0963 32.8737 38.3636 33.7273 38.3636H39.9091C40.7626 38.3636 41.4545 39.0963 41.4545 40C41.4545 40.9037 40.7626 41.6364 39.9091 41.6364H33.7273C32.8737 41.6364 32.1818 40.9037 32.1818 40Z" fill="white"/>
<path fill-rule="evenodd" clip-rule="evenodd" d="M32.1818 46.5455C32.1818 45.6417 32.8737 44.9091 33.7273 44.9091H39.9091C40.7626 44.9091 41.4545 45.6417 41.4545 46.5455C41.4545 47.4492 40.7626 48.1818 39.9091 48.1818H33.7273C32.8737 48.1818 32.1818 47.4492 32.1818 46.5455Z" fill="white"/>
<path fill-rule="evenodd" clip-rule="evenodd" d="M46.0909 35.9091C47.3712 35.9091 48.4091 34.8102 48.4091 33.4545C48.4091 32.0989 47.3712 31 46.0909 31C44.8106 31 43.7727 32.0989 43.7727 33.4545C43.7727 34.8102 44.8106 35.9091 46.0909 35.9091Z" fill="white"/>
<path fill-rule="evenodd" clip-rule="evenodd" d="M46.0909 42.4545C47.3712 42.4545 48.4091 41.3556 48.4091 40C48.4091 38.6444 47.3712 37.5455 46.0909 37.5455C44.8106 37.5455 43.7727 38.6444 43.7727 40C43.7727 41.3556 44.8106 42.4545 46.0909 42.4545Z" fill="white"/>
<path fill-rule="evenodd" clip-rule="evenodd" d="M46.0909 49C47.3712 49 48.4091 47.9011 48.4091 46.5455C48.4091 45.1898 47.3712 44.0909 46.0909 44.0909C44.8106 44.0909 43.7727 45.1898 43.7727 46.5455C43.7727 47.9011 44.8106 49 46.0909 49Z" fill="white"/>
</svg>
