<svg width="80" height="80" viewBox="0 0 80 80" fill="none" xmlns="http://www.w3.org/2000/svg">
<circle cx="40" cy="40" r="40" fill="#0A6ED1"/>
<path fill-rule="evenodd" clip-rule="evenodd" d="M39.0757 36.3159C38.5674 36.3159 38.1554 36.7279 38.1554 37.2362C38.1554 37.7445 38.5674 38.1565 39.0757 38.1565H40.9164C43.4578 38.1565 45.518 40.2168 45.518 42.7582C45.518 45.2996 43.4578 47.3598 40.9164 47.3598H36.3147C35.2982 47.3598 34.4741 46.5357 34.4741 45.5192C34.4741 44.5026 35.2982 43.6785 36.3147 43.6785H40.9164C41.4247 43.6785 41.8367 43.2665 41.8367 42.7582C41.8367 42.2499 41.4247 41.8379 40.9164 41.8379H39.0757C36.5343 41.8379 34.4741 39.7776 34.4741 37.2362C34.4741 34.6948 36.5343 32.6346 39.0757 32.6346H43.6774C44.6939 32.6346 45.518 33.4587 45.518 34.4752C45.518 35.4918 44.6939 36.3159 43.6774 36.3159H39.0757Z" fill="white"/>
<path fill-rule="evenodd" clip-rule="evenodd" d="M26.9841 29.58C27.8425 30.1246 28.0968 31.262 27.5522 32.1203C26.668 33.5139 26.0121 35.065 25.636 36.7217C25.411 37.713 24.4249 38.3342 23.4336 38.1092C22.4422 37.8841 21.821 36.898 22.0461 35.9067C22.5172 33.8315 23.3385 31.89 24.4438 30.1481C24.9884 29.2897 26.1257 29.0354 26.9841 29.58Z" fill="white"/>
<path fill-rule="evenodd" clip-rule="evenodd" d="M53.0173 29.58C53.8757 29.0354 55.013 29.2897 55.5576 30.1481C56.6629 31.89 57.4842 33.8315 57.9553 35.9067C58.1804 36.898 57.5592 37.8841 56.5679 38.1092C55.5765 38.3342 54.5904 37.713 54.3654 36.7217C53.9893 35.065 53.3334 33.5139 52.4492 32.1203C51.9046 31.262 52.1589 30.1246 53.0173 29.58Z" fill="white"/>
<path fill-rule="evenodd" clip-rule="evenodd" d="M23.4336 41.8835C24.4249 41.6585 25.411 42.2797 25.636 43.271C26.0121 44.9277 26.668 46.4788 27.5522 47.8724C28.0968 48.7307 27.8425 49.8681 26.9841 50.4127C26.1257 50.9573 24.9884 50.703 24.4438 49.8446C23.3385 48.1027 22.5172 46.1612 22.0461 44.086C21.821 43.0947 22.4422 42.1086 23.4336 41.8835Z" fill="white"/>
<path fill-rule="evenodd" clip-rule="evenodd" d="M56.5679 41.8835C57.5592 42.1086 58.1804 43.0947 57.9553 44.086C57.4842 46.1612 56.6629 48.1027 55.5576 49.8446C55.013 50.703 53.8757 50.9573 53.0173 50.4127C52.1589 49.8681 51.9046 48.7307 52.4492 47.8724C53.3334 46.4788 53.9893 44.9277 54.3654 43.271C54.5904 42.2797 55.5765 41.6585 56.5679 41.8835Z" fill="white"/>
<path fill-rule="evenodd" clip-rule="evenodd" d="M38.1132 23.4341C38.338 24.4255 37.7165 25.4114 36.7251 25.6362C35.0789 26.0093 33.537 26.6586 32.1502 27.5337C31.2905 28.0762 30.1538 27.819 29.6113 26.9593C29.0689 26.0996 29.326 24.9628 30.1857 24.4204C31.9193 23.3265 33.8493 22.5134 35.9112 22.0459C36.9026 21.8212 37.8885 22.4427 38.1132 23.4341Z" fill="white"/>
<path fill-rule="evenodd" clip-rule="evenodd" d="M38.1132 56.5659C38.338 55.5745 37.7165 54.5886 36.7251 54.3638C35.0789 53.9907 33.537 53.3414 32.1502 52.4663C31.2905 51.9238 30.1538 52.181 29.6113 53.0407C29.0689 53.9004 29.326 55.0372 30.1857 55.5796C31.9193 56.6735 33.8493 57.4866 35.9112 57.9541C36.9026 58.1788 37.8885 57.5573 38.1132 56.5659Z" fill="white"/>
<path fill-rule="evenodd" clip-rule="evenodd" d="M41.8822 23.4341C42.107 22.4427 43.0929 21.8212 44.0843 22.0459C46.1462 22.5134 48.0762 23.3265 49.8097 24.4204C50.6694 24.9628 50.9266 26.0996 50.3841 26.9593C49.8417 27.819 48.705 28.0762 47.8452 27.5337C46.4584 26.6586 44.9165 26.0093 43.2704 25.6362C42.279 25.4114 41.6575 24.4255 41.8822 23.4341Z" fill="white"/>
<path fill-rule="evenodd" clip-rule="evenodd" d="M50.3841 53.0407C50.9266 53.9004 50.6694 55.0372 49.8097 55.5796C48.0762 56.6735 46.1462 57.4866 44.0843 57.9541C43.0929 58.1788 42.107 57.5573 41.8822 56.5659C41.6575 55.5745 42.279 54.5886 43.2704 54.3638C44.9165 53.9907 46.4584 53.3414 47.8452 52.4663C48.705 51.9238 49.8417 52.181 50.3841 53.0407Z" fill="white"/>
<path fill-rule="evenodd" clip-rule="evenodd" d="M39.996 28.9533C41.0126 28.9533 41.8367 29.7774 41.8367 30.7939V32.6346C41.8367 33.6512 41.0126 34.4752 39.996 34.4752C38.9795 34.4752 38.1554 33.6512 38.1554 32.6346V30.7939C38.1554 29.7774 38.9795 28.9533 39.996 28.9533Z" fill="white"/>
<path fill-rule="evenodd" clip-rule="evenodd" d="M39.996 45.5192C41.0126 45.5192 41.8367 46.3432 41.8367 47.3598V49.2005C41.8367 50.217 41.0126 51.0411 39.996 51.0411C38.9795 51.0411 38.1554 50.217 38.1554 49.2005V47.3598C38.1554 46.3432 38.9795 45.5192 39.996 45.5192Z" fill="white"/>
</svg>
