<svg width="60" height="60" viewBox="0 0 60 60" fill="none" xmlns="http://www.w3.org/2000/svg">
<circle cx="30" cy="30" r="29" stroke="#0A6ED1" stroke-width="2"/>
<path fill-rule="evenodd" clip-rule="evenodd" d="M36.6 38C31.6294 38 27.6 42.0294 27.6 47V48.8H29.4C30.3941 48.8 31.2 49.6059 31.2 50.6C31.2 51.5941 30.3941 52.4 29.4 52.4H25.8C24.8059 52.4 24 51.5941 24 50.6V47C24 40.0412 29.6412 34.4 36.6 34.4H38.4C39.3941 34.4 40.2 35.2059 40.2 36.2C40.2 37.1941 39.3941 38 38.4 38H36.6Z" fill="white"/>
<path fill-rule="evenodd" clip-rule="evenodd" d="M49.2 38C49.6774 38 50.1352 38.1896 50.4728 38.5272L54.0728 42.1272C54.7757 42.8302 54.7757 43.9698 54.0728 44.6728L41.4728 57.2728C41.1352 57.6104 40.6774 57.8 40.2 57.8H36.6C35.6059 57.8 34.8 56.9941 34.8 56V52.4C34.8 51.9226 34.9896 51.4648 35.3272 51.1272L47.9272 38.5272C48.2648 38.1896 48.7226 38 49.2 38ZM38.4 53.1456V54.2H39.4544L50.2544 43.4L49.2 42.3456L38.4 53.1456Z" fill="white"/>
<path fill-rule="evenodd" clip-rule="evenodd" d="M53.3272 33.1272C54.0301 32.4243 55.1698 32.4243 55.8728 33.1272L59.4728 36.7272C60.1757 37.4302 60.1757 38.5698 59.4728 39.2728L57.6728 41.0728C56.9698 41.7757 55.8301 41.7757 55.1272 41.0728L51.5272 37.4728C50.8243 36.7698 50.8243 35.6302 51.5272 34.9272L53.3272 33.1272Z" fill="white"/>
<path fill-rule="evenodd" clip-rule="evenodd" d="M29.4 29C29.4 24.0294 33.4294 20 38.4 20C43.3706 20 47.4 24.0294 47.4 29C47.4 33.9706 43.3706 38 38.4 38C33.4294 38 29.4 33.9706 29.4 29ZM38.4 23.6C35.4177 23.6 33 26.0177 33 29C33 31.9823 35.4177 34.4 38.4 34.4C41.3823 34.4 43.8 31.9823 43.8 29C43.8 26.0177 41.3823 23.6 38.4 23.6Z" fill="white"/>
</svg>
