<svg width="60" height="60" viewBox="0 0 60 60" fill="none" xmlns="http://www.w3.org/2000/svg">
<circle cx="30" cy="30" r="29" stroke="#0A6ED1" stroke-width="2"/>
<path fill-rule="evenodd" clip-rule="evenodd" d="M41.61 43.7948C42.0545 44.684 41.6941 45.7652 40.805 46.2097L37.205 48.0097C36.3159 48.4543 35.2347 48.0939 34.7901 47.2047C34.3455 46.3156 34.7059 45.2344 35.5951 44.7898L39.195 42.9898C40.0842 42.5453 41.1654 42.9057 41.61 43.7948Z" fill="white"/>
<path fill-rule="evenodd" clip-rule="evenodd" d="M40 39.1998C40.9941 39.1998 41.8 40.0057 41.8 40.9998V43.4873L44.4049 44.7898C45.2941 45.2344 45.6545 46.3156 45.2099 47.2048C44.7653 48.0939 43.6841 48.4543 42.795 48.0097L39.195 46.2097C38.5852 45.9048 38.2 45.2816 38.2 44.5998V40.9998C38.2 40.0057 39.0059 39.1998 40 39.1998Z" fill="white"/>
<path fill-rule="evenodd" clip-rule="evenodd" d="M36.6349 32.57C37.3847 32.1951 38.2115 31.9999 39.0499 31.9999H40.9501C41.7885 31.9999 42.6153 32.1951 43.3651 32.57L46.2049 33.9899C46.9516 34.3633 47.3436 35.201 47.1518 36.0134C46.96 36.8259 46.2347 37.3999 45.3999 37.3999H34.6001C33.7653 37.3999 33.04 36.8259 32.8482 36.0134C32.6564 35.201 33.0484 34.3633 33.7951 33.9899L36.6349 32.57Z" fill="white"/>
<path fill-rule="evenodd" clip-rule="evenodd" d="M40 30.1999C41.9882 30.1999 43.6 28.5882 43.6 26.6C43.6 24.6118 41.9882 23 40 23C38.0118 23 36.4 24.6118 36.4 26.6C36.4 28.5882 38.0118 30.1999 40 30.1999Z" fill="white"/>
<path fill-rule="evenodd" clip-rule="evenodd" d="M47.4348 52.3698C48.1846 51.9949 49.0114 51.7997 49.8497 51.7997H51.75C52.5884 51.7997 53.4152 51.9949 54.165 52.3698L57.0048 53.7897C57.7515 54.1631 58.1435 55.0008 57.9517 55.8132C57.7599 56.6257 57.0346 57.1997 56.1998 57.1997H45.3999C44.5652 57.1997 43.8399 56.6257 43.6481 55.8132C43.4563 55.0008 43.8483 54.1631 44.595 53.7897L47.4348 52.3698Z" fill="white"/>
<path fill-rule="evenodd" clip-rule="evenodd" d="M50.7999 49.9997C52.7881 49.9997 54.3999 48.388 54.3999 46.3998C54.3999 44.4116 52.7881 42.7998 50.7999 42.7998C48.8117 42.7998 47.1999 44.4116 47.1999 46.3998C47.1999 48.388 48.8117 49.9997 50.7999 49.9997Z" fill="white"/>
<path fill-rule="evenodd" clip-rule="evenodd" d="M25.835 52.3698C26.5848 51.9949 27.4116 51.7997 28.25 51.7997H30.1503C30.9886 51.7997 31.8154 51.9949 32.5652 52.3698L35.405 53.7897C36.1517 54.1631 36.5437 55.0008 36.3519 55.8132C36.1601 56.6257 35.4348 57.1997 34.6001 57.1997H23.8002C22.9654 57.1997 22.2401 56.6257 22.0483 55.8132C21.8565 55.0008 22.2485 54.1631 22.9952 53.7897L25.835 52.3698Z" fill="white"/>
<path fill-rule="evenodd" clip-rule="evenodd" d="M29.2001 49.9997C31.1883 49.9997 32.8001 48.388 32.8001 46.3998C32.8001 44.4116 31.1883 42.7998 29.2001 42.7998C27.2119 42.7998 25.6001 44.4116 25.6001 46.3998C25.6001 48.388 27.2119 49.9997 29.2001 49.9997Z" fill="white"/>
</svg>
