<svg width="80" height="80" viewBox="0 0 80 80" fill="none" xmlns="http://www.w3.org/2000/svg">
<circle cx="40" cy="40" r="40" fill="#0A6ED1"/>
<path fill-rule="evenodd" clip-rule="evenodd" d="M22 25.8C22 24.8059 22.8059 24 23.8 24H31C31.9941 24 32.8 24.8059 32.8 25.8V54.6C32.8 55.5941 31.9941 56.4 31 56.4H23.8C22.8059 56.4 22 55.5941 22 54.6V25.8ZM25.6 27.6V52.8H29.2V27.6H25.6Z" fill="white"/>
<path fill-rule="evenodd" clip-rule="evenodd" d="M37.4203 31.3777C38.0439 31.0779 38.7841 31.1622 39.3245 31.5944L45.4 36.4549V33C45.4 32.3081 45.7966 31.6774 46.4203 31.3777C47.0439 31.0779 47.7841 31.1622 48.3244 31.5944L57.3244 38.7944C57.7514 39.136 58 39.6532 58 40.2V54.6C58 55.5941 57.1941 56.4 56.2 56.4H31C30.0059 56.4 29.2 55.5941 29.2 54.6C29.2 53.6059 30.0059 52.8 31 52.8H54.4V41.0651L49 36.7451V40.2C49 40.8919 48.6034 41.5226 47.9797 41.8223C47.3561 42.1221 46.6159 42.0378 46.0755 41.6056L40 36.7451V40.2C40 41.1941 39.1941 42 38.2 42H23.8C22.8059 42 22 41.1941 22 40.2C22 39.2059 22.8059 38.4 23.8 38.4H36.4V33C36.4 32.3081 36.7966 31.6774 37.4203 31.3777Z" fill="white"/>
<path fill-rule="evenodd" clip-rule="evenodd" d="M41.8 50.1C43.2912 50.1 44.5 48.8912 44.5 47.4C44.5 45.9088 43.2912 44.7 41.8 44.7C40.3088 44.7 39.1 45.9088 39.1 47.4C39.1 48.8912 40.3088 50.1 41.8 50.1Z" fill="white"/>
<path fill-rule="evenodd" clip-rule="evenodd" d="M49 50.1C50.4912 50.1 51.7 48.8912 51.7 47.4C51.7 45.9088 50.4912 44.7 49 44.7C47.5088 44.7 46.3 45.9088 46.3 47.4C46.3 48.8912 47.5088 50.1 49 50.1Z" fill="white"/>
<path fill-rule="evenodd" clip-rule="evenodd" d="M22 47.4C22 46.4059 22.8059 45.6 23.8 45.6H34.6C35.5941 45.6 36.4 46.4059 36.4 47.4C36.4 48.3941 35.5941 49.2 34.6 49.2H23.8C22.8059 49.2 22 48.3941 22 47.4Z" fill="white"/>
<path fill-rule="evenodd" clip-rule="evenodd" d="M22 33C22 32.0059 22.8059 31.2 23.8 31.2H31C31.9941 31.2 32.8 32.0059 32.8 33C32.8 33.9941 31.9941 34.8 31 34.8H23.8C22.8059 34.8 22 33.9941 22 33Z" fill="white"/>
</svg>
