<svg width="60" height="60" viewBox="0 0 60 60" fill="none" xmlns="http://www.w3.org/2000/svg">
<circle cx="30" cy="30" r="29" stroke="#0A6ED1" stroke-width="2"/>
<path fill-rule="evenodd" clip-rule="evenodd" d="M57.4142 44.6832C58.1953 45.4671 58.1953 46.7381 57.4142 47.522L45.4142 59.5659C44.6332 60.3498 43.3668 60.3498 42.5858 59.5659C41.8047 58.782 41.8047 57.511 42.5858 56.7271L54.5858 44.6832C55.3668 43.8993 56.6332 43.8993 57.4142 44.6832Z" fill="white"/>
<path fill-rule="evenodd" clip-rule="evenodd" d="M42.5858 44.6832C43.3668 43.8993 44.6332 43.8993 45.4142 44.6832L57.4142 56.7271C58.1953 57.511 58.1953 58.782 57.4142 59.5659C56.6332 60.3498 55.3668 60.3498 54.5858 59.5659L42.5858 47.522C41.8047 46.7381 41.8047 45.4671 42.5858 44.6832Z" fill="white"/>
<path fill-rule="evenodd" clip-rule="evenodd" d="M36 38.0733C30.4772 38.0733 26 42.5668 26 48.1099V50.1172H38C39.1046 50.1172 40 51.0159 40 52.1245C40 53.2332 39.1046 54.1319 38 54.1319H24C22.8954 54.1319 22 53.2332 22 52.1245V48.1099C22 40.3496 28.268 34.0586 36 34.0586H40C43.5801 34.0586 46.8506 35.41 49.3251 37.6291C50.1487 38.3678 50.2198 39.6367 49.4839 40.4634C48.7479 41.2901 47.4836 41.3615 46.6599 40.6228C44.8901 39.0357 42.5595 38.0733 40 38.0733H36Z" fill="white"/>
<path fill-rule="evenodd" clip-rule="evenodd" d="M28 28.0366C28 22.4936 32.4772 18 38 18C43.5228 18 48 22.4936 48 28.0366C48 33.5797 43.5228 38.0733 38 38.0733C32.4772 38.0733 28 33.5797 28 28.0366ZM38 22.0147C34.6863 22.0147 32 24.7108 32 28.0366C32 31.3625 34.6863 34.0586 38 34.0586C41.3137 34.0586 44 31.3625 44 28.0366C44 24.7108 41.3137 22.0147 38 22.0147Z" fill="white"/>
</svg>
