<svg width="60" height="60" viewBox="0 0 60 60" fill="none" xmlns="http://www.w3.org/2000/svg">
<circle cx="30" cy="30" r="29" fill="#0A6ED1" stroke="#0A6ED1" stroke-width="2"/>
<path fill-rule="evenodd" clip-rule="evenodd" d="M20.55 20.7C19.8044 20.7 19.2 21.3044 19.2 22.05V38.2499C19.2 38.9955 19.8044 39.5999 20.55 39.5999H21.9C22.6456 39.5999 23.25 40.2043 23.25 40.9499C23.25 41.6955 22.6456 42.2999 21.9 42.2999H20.55C18.3132 42.2999 16.5 40.4866 16.5 38.2499V22.05C16.5 19.8132 18.3132 18 20.55 18H39.4499C41.6866 18 43.4999 19.8132 43.4999 22.05V26.1C43.4999 26.8455 42.8955 27.45 42.1499 27.45C41.4043 27.45 40.7999 26.8455 40.7999 26.1V22.05C40.7999 21.3044 40.1955 20.7 39.4499 20.7H20.55Z" fill="#FEFFFF"/>
<path fill-rule="evenodd" clip-rule="evenodd" d="M35.436 36.5897C35.5799 35.9804 36.1238 35.5499 36.7499 35.5499H38.8125C39.4412 35.5499 40.0614 35.6963 40.6237 35.9775L42.7536 37.0424C43.3136 37.3224 43.6076 37.9507 43.4638 38.5601C43.3199 39.1694 42.776 39.5999 42.1499 39.5999H39.4499C39.2403 39.5999 39.0336 39.5511 38.8462 39.4574L36.1462 38.1074C35.5862 37.8274 35.2922 37.1991 35.436 36.5897Z" fill="#FEFFFF"/>
<path fill-rule="evenodd" clip-rule="evenodd" d="M38.0999 34.1999C39.5911 34.1999 40.7999 32.9911 40.7999 31.4999C40.7999 30.0088 39.5911 28.7999 38.0999 28.7999C36.6087 28.7999 35.3999 30.0088 35.3999 31.4999C35.3999 32.9911 36.6087 34.1999 38.0999 34.1999Z" fill="#FEFFFF"/>
<path fill-rule="evenodd" clip-rule="evenodd" d="M28.8261 38.6775C29.3885 38.3963 30.0086 38.2499 30.6373 38.2499H32.0625C32.6913 38.2499 33.3114 38.3963 33.8737 38.6775L36.0036 39.7424C36.5636 40.0224 36.8576 40.6507 36.7138 41.2601C36.5699 41.8694 36.026 42.2999 35.3999 42.2999H27.2999C26.6739 42.2999 26.1299 41.8694 25.9861 41.2601C25.8422 40.6507 26.1362 40.0224 26.6962 39.7424L28.8261 38.6775Z" fill="#FEFFFF"/>
<path fill-rule="evenodd" clip-rule="evenodd" d="M31.3499 36.8999C32.8411 36.8999 34.0499 35.6911 34.0499 34.1999C34.0499 32.7088 32.8411 31.4999 31.3499 31.4999C29.8588 31.4999 28.6499 32.7088 28.6499 34.1999C28.6499 35.6911 29.8588 36.8999 31.3499 36.8999Z" fill="#FEFFFF"/>
<path fill-rule="evenodd" clip-rule="evenodd" d="M21.9 24.75C21.9 24.0044 22.5044 23.4 23.25 23.4H32.6999C33.4455 23.4 34.0499 24.0044 34.0499 24.75C34.0499 25.4955 33.4455 26.1 32.6999 26.1H23.25C22.5044 26.1 21.9 25.4955 21.9 24.75Z" fill="#FEFFFF"/>
<path fill-rule="evenodd" clip-rule="evenodd" d="M21.9 28.7999C21.9 28.0544 22.5044 27.45 23.25 27.45H25.95C26.6955 27.45 27.2999 28.0544 27.2999 28.7999C27.2999 29.5455 26.6955 30.1499 25.95 30.1499H23.25C22.5044 30.1499 21.9 29.5455 21.9 28.7999Z" fill="#FEFFFF"/>
</svg>
