<svg width="80" height="80" viewBox="0 0 80 80" fill="none" xmlns="http://www.w3.org/2000/svg">
<circle cx="40" cy="40" r="40" fill="#0A6ED1"/>
<g clip-path="url(#clip0)">
<path fill-rule="evenodd" clip-rule="evenodd" d="M51.0741 25.1142C51.6346 25.3464 52 25.8934 52 26.5V35.5C52 36.3285 51.3285 37 50.5 37C49.6716 37 49 36.3285 49 35.5V30.1214L30.1214 49H38.5C39.3285 49 40 49.6716 40 50.5C40 51.3285 39.3285 52 38.5 52H26.5C25.8934 52 25.3464 51.6346 25.1142 51.0741C24.8821 50.5136 25.0104 49.8684 25.4394 49.4394L49.4394 25.4394C49.8684 25.0104 50.5136 24.8821 51.0741 25.1142Z" fill="white"/>
<path fill-rule="evenodd" clip-rule="evenodd" d="M44.5 49C44.5 45.6863 47.1863 43 50.5 43C53.8138 43 56.5 45.6863 56.5 49C56.5 52.3138 53.8138 55 50.5 55C47.1863 55 44.5 52.3138 44.5 49ZM50.5 46C48.8432 46 47.5 47.3432 47.5 49C47.5 50.6569 48.8432 52 50.5 52C52.1569 52 53.5 50.6569 53.5 49C53.5 47.3432 52.1569 46 50.5 46Z" fill="white"/>
<path fill-rule="evenodd" clip-rule="evenodd" d="M50.5 40C51.3285 40 52 40.6716 52 41.5V44.5C52 45.3285 51.3285 46 50.5 46C49.6716 46 49 45.3285 49 44.5V41.5C49 40.6716 49.6716 40 50.5 40Z" fill="white"/>
<path fill-rule="evenodd" clip-rule="evenodd" d="M43.1579 44.5802C43.5279 43.8389 44.4287 43.538 45.1699 43.9079L46.6726 44.6579C47.4138 45.0279 47.7148 45.9287 47.3448 46.6699C46.9748 47.4112 46.074 47.7121 45.3328 47.3422L43.8302 46.5922C43.0889 46.2222 42.788 45.3214 43.1579 44.5802Z" fill="white"/>
<path fill-rule="evenodd" clip-rule="evenodd" d="M57.8412 44.5783C58.2122 45.319 57.9125 46.2202 57.1718 46.5912L55.6744 47.3412C54.9337 47.7122 54.0325 47.4125 53.6615 46.6718C53.2905 45.9311 53.5902 45.0299 54.3309 44.6589L55.8283 43.9089C56.569 43.5379 57.4702 43.8376 57.8412 44.5783Z" fill="white"/>
<path fill-rule="evenodd" clip-rule="evenodd" d="M53.6615 51.3283C54.0325 50.5876 54.9337 50.2879 55.6744 50.6589L57.1718 51.4089C57.9125 51.7799 58.2122 52.6811 57.8412 53.4218C57.4702 54.1625 56.569 54.4622 55.8283 54.0912L54.3309 53.3412C53.5902 52.9702 53.2905 52.069 53.6615 51.3283Z" fill="white"/>
<path fill-rule="evenodd" clip-rule="evenodd" d="M47.3448 51.3302C47.7148 52.0714 47.4138 52.9722 46.6726 53.3422L45.1699 54.0922C44.4287 54.4621 43.5279 54.1612 43.1579 53.4199C42.788 52.6787 43.0889 51.7779 43.8302 51.4079L45.3328 50.6579C46.074 50.288 46.9748 50.5889 47.3448 51.3302Z" fill="white"/>
<path fill-rule="evenodd" clip-rule="evenodd" d="M50.5 52C51.3285 52 52 52.6716 52 53.5V56.5C52 57.3285 51.3285 58 50.5 58C49.6716 58 49 57.3285 49 56.5V53.5C49 52.6716 49.6716 52 50.5 52Z" fill="white"/>
</g>
<defs>
<clipPath id="clip0">
<rect width="36" height="36" fill="white" transform="translate(22 22)"/>
</clipPath>
</defs>
</svg>
