<svg width="80" height="80" viewBox="0 0 80 80" fill="none" xmlns="http://www.w3.org/2000/svg">
<circle cx="40" cy="40" r="40" fill="#0A6ED1"/>
<path fill-rule="evenodd" clip-rule="evenodd" d="M43.2727 28.909C43.2727 28.0053 44.0053 27.2727 44.909 27.2727H51.4543C52.358 27.2727 53.0906 28.0053 53.0906 28.909V32.1817C53.0906 33.0854 52.358 33.818 51.4543 33.818C50.5506 33.818 49.818 33.0854 49.818 32.1817V30.5453H44.909C44.0053 30.5453 43.2727 29.8127 43.2727 28.909Z" fill="white"/>
<path fill-rule="evenodd" clip-rule="evenodd" d="M26.9094 28.909C26.9094 28.0053 27.642 27.2727 28.5457 27.2727H35.091C35.9947 27.2727 36.7273 28.0053 36.7273 28.909C36.7273 29.8127 35.9947 30.5453 35.091 30.5453H30.182V32.1817C30.182 33.0854 29.4494 33.818 28.5457 33.818C27.642 33.818 26.9094 33.0854 26.9094 32.1817V28.909Z" fill="white"/>
<path fill-rule="evenodd" clip-rule="evenodd" d="M33.4547 25.6363C33.4547 24.7326 34.1873 24 35.091 24H44.909C45.8127 24 46.5453 24.7326 46.5453 25.6363V32.1817C46.5453 33.0854 45.8127 33.818 44.909 33.818H35.091C34.1873 33.818 33.4547 33.0854 33.4547 32.1817V25.6363ZM36.7273 27.2727V30.5453H43.2727V27.2727H36.7273Z" fill="white"/>
<path fill-rule="evenodd" clip-rule="evenodd" d="M39.1818 40.3633C38.73 40.3633 38.3637 40.7296 38.3637 41.1815C38.3637 41.6333 38.73 41.9996 39.1818 41.9996H40.8182C43.0775 41.9996 44.909 43.8312 44.909 46.0905C44.909 48.3498 43.0775 50.1813 40.8182 50.1813H36.7273C35.8236 50.1813 35.091 49.4487 35.091 48.545C35.091 47.6412 35.8236 46.9086 36.7273 46.9086H40.8182C41.27 46.9086 41.6363 46.5423 41.6363 46.0905C41.6363 45.6386 41.27 45.2723 40.8182 45.2723H39.1818C36.9225 45.2723 35.091 43.4408 35.091 41.1815C35.091 38.9222 36.9225 37.0906 39.1818 37.0906H43.2727C44.1764 37.0906 44.909 37.8233 44.909 38.727C44.909 39.6307 44.1764 40.3633 43.2727 40.3633H39.1818Z" fill="white"/>
<path fill-rule="evenodd" clip-rule="evenodd" d="M40 30.5453C40.9037 30.5453 41.6363 31.2779 41.6363 32.1817V38.727C41.6363 39.6307 40.9037 40.3633 40 40.3633C39.0963 40.3633 38.3637 39.6307 38.3637 38.727V32.1817C38.3637 31.2779 39.0963 30.5453 40 30.5453Z" fill="white"/>
<path fill-rule="evenodd" clip-rule="evenodd" d="M52.1861 37.2634C52.9944 37.6676 53.322 38.6505 52.9179 39.4588L51.2816 42.7314C50.8774 43.5397 49.8945 43.8674 49.0862 43.4632C48.2779 43.0591 47.9502 42.0762 48.3544 41.2679L49.9907 37.9952C50.3949 37.1869 51.3778 36.8592 52.1861 37.2634Z" fill="white"/>
<path fill-rule="evenodd" clip-rule="evenodd" d="M57.0951 37.2634C57.9034 37.6676 58.231 38.6505 57.8269 39.4588L56.1906 42.7314C55.7864 43.5397 54.8035 43.8674 53.9952 43.4632C53.1869 43.0591 52.8592 42.0762 53.2634 41.2679L54.8997 37.9952C55.3039 37.1869 56.2868 36.8592 57.0951 37.2634Z" fill="white"/>
<path fill-rule="evenodd" clip-rule="evenodd" d="M22.9049 37.2634C23.7132 36.8592 24.6961 37.1869 25.1003 37.9952L26.7366 41.2679C27.1408 42.0762 26.8131 43.0591 26.0048 43.4632C25.1965 43.8674 24.2136 43.5397 23.8094 42.7314L22.1731 39.4588C21.769 38.6505 22.0966 37.6676 22.9049 37.2634Z" fill="white"/>
<path fill-rule="evenodd" clip-rule="evenodd" d="M28.5457 46.9086C29.4494 46.9086 30.182 47.6412 30.182 48.545V53.454H49.818V48.545C49.818 47.6412 50.5506 46.9086 51.4543 46.9086C52.358 46.9086 53.0906 47.6412 53.0906 48.545V55.0903C53.0906 55.994 52.358 56.7266 51.4543 56.7266H28.5457C27.642 56.7266 26.9094 55.994 26.9094 55.0903V48.545C26.9094 47.6412 27.642 46.9086 28.5457 46.9086Z" fill="white"/>
<path fill-rule="evenodd" clip-rule="evenodd" d="M27.8139 37.2634C28.6222 36.8592 29.6051 37.1869 30.0093 37.9952L31.6456 41.2679C32.0497 42.0762 31.7221 43.0591 30.9138 43.4632C30.1055 43.8674 29.1226 43.5397 28.7184 42.7314L27.0821 39.4588C26.6779 38.6505 27.0056 37.6676 27.8139 37.2634Z" fill="white"/>
<path fill-rule="evenodd" clip-rule="evenodd" d="M40 46.9086C40.9037 46.9086 41.6363 47.6412 41.6363 48.545V55.0903C41.6363 55.994 40.9037 56.7266 40 56.7266C39.0963 56.7266 38.3637 55.994 38.3637 55.0903V48.545C38.3637 47.6412 39.0963 46.9086 40 46.9086Z" fill="white"/>
</svg>
