<svg width="60" height="60" viewBox="0 0 60 60" fill="none" xmlns="http://www.w3.org/2000/svg">
<circle cx="30" cy="30" r="29" stroke="#0A6ED1" stroke-width="2"/>
<path fill-rule="evenodd" clip-rule="evenodd" d="M18.9545 26.6591C20.3102 26.6591 21.4091 25.5602 21.4091 24.2045C21.4091 22.8489 20.3102 21.75 18.9545 21.75C17.5989 21.75 16.5 22.8489 16.5 24.2045C16.5 25.5602 17.5989 26.6591 18.9545 26.6591Z" fill="#0A6ED1"/>
<path fill-rule="evenodd" clip-rule="evenodd" d="M41.0455 26.6591C42.4011 26.6591 43.5 25.5602 43.5 24.2045C43.5 22.8489 42.4011 21.75 41.0455 21.75C39.6898 21.75 38.5909 22.8489 38.5909 24.2045C38.5909 25.5602 39.6898 26.6591 41.0455 26.6591Z" fill="#0A6ED1"/>
<path fill-rule="evenodd" clip-rule="evenodd" d="M18.9545 38.9318C20.3102 38.9318 21.4091 37.8329 21.4091 36.4773C21.4091 35.1217 20.3102 34.0227 18.9545 34.0227C17.5989 34.0227 16.5 35.1217 16.5 36.4773C16.5 37.8329 17.5989 38.9318 18.9545 38.9318Z" fill="#0A6ED1"/>
<path fill-rule="evenodd" clip-rule="evenodd" d="M41.0455 38.9318C42.4011 38.9318 43.5 37.8329 43.5 36.4773C43.5 35.1217 42.4011 34.0227 41.0455 34.0227C39.6898 34.0227 38.5909 35.1217 38.5909 36.4773C38.5909 37.8329 39.6898 38.9318 41.0455 38.9318Z" fill="#0A6ED1"/>
<path fill-rule="evenodd" clip-rule="evenodd" d="M16.5 24.2045C16.5 22.8489 17.5989 21.75 18.9545 21.75H41.0455C42.4011 21.75 43.5 22.8489 43.5 24.2045V36.4773C43.5 37.8329 42.4011 38.9318 41.0455 38.9318H18.9545C17.5989 38.9318 16.5 37.8329 16.5 36.4773V24.2045ZM41.0455 24.2045L18.9545 24.2045V36.4773H41.0455V24.2045Z" fill="#0A6ED1"/>
<path fill-rule="evenodd" clip-rule="evenodd" d="M29.3864 27.8864C29.0475 27.8864 28.7727 28.1611 28.7727 28.5C28.7727 28.8389 29.0475 29.1136 29.3864 29.1136H30.6136C32.3081 29.1136 33.6818 30.4873 33.6818 32.1818C33.6818 33.8763 32.3081 35.25 30.6136 35.25H27.5455C26.8677 35.25 26.3182 34.7005 26.3182 34.0227C26.3182 33.3449 26.8677 32.7955 27.5455 32.7955H30.6136C30.9525 32.7955 31.2273 32.5207 31.2273 32.1818C31.2273 31.8429 30.9525 31.5682 30.6136 31.5682H29.3864C27.6919 31.5682 26.3182 30.1945 26.3182 28.5C26.3182 26.8055 27.6919 25.4318 29.3864 25.4318H32.4545C33.1323 25.4318 33.6818 25.9813 33.6818 26.6591C33.6818 27.3369 33.1323 27.8864 32.4545 27.8864H29.3864Z" fill="#0A6ED1"/>
<path fill-rule="evenodd" clip-rule="evenodd" d="M30 21.75C30.6778 21.75 31.2273 22.2995 31.2273 22.9773V26.6591C31.2273 27.3369 30.6778 27.8864 30 27.8864C29.3222 27.8864 28.7727 27.3369 28.7727 26.6591V22.9773C28.7727 22.2995 29.3222 21.75 30 21.75Z" fill="#0A6ED1"/>
<path fill-rule="evenodd" clip-rule="evenodd" d="M30 32.7955C30.6778 32.7955 31.2273 33.3449 31.2273 34.0227V37.7045C31.2273 38.3823 30.6778 38.9318 30 38.9318C29.3222 38.9318 28.7727 38.3823 28.7727 37.7045V34.0227C28.7727 33.3449 29.3222 32.7955 30 32.7955Z" fill="#0A6ED1"/>
<path fill-rule="evenodd" clip-rule="evenodd" d="M37.3636 31.5682C38.0414 31.5682 38.5909 31.0187 38.5909 30.3409C38.5909 29.6631 38.0414 29.1136 37.3636 29.1136C36.6858 29.1136 36.1364 29.6631 36.1364 30.3409C36.1364 31.0187 36.6858 31.5682 37.3636 31.5682Z" fill="#0A6ED1"/>
<path fill-rule="evenodd" clip-rule="evenodd" d="M22.6364 31.5682C23.3142 31.5682 23.8636 31.0187 23.8636 30.3409C23.8636 29.6631 23.3142 29.1136 22.6364 29.1136C21.9586 29.1136 21.4091 29.6631 21.4091 30.3409C21.4091 31.0187 21.9586 31.5682 22.6364 31.5682Z" fill="#0A6ED1"/>
</svg>
