<svg width="80" height="80" viewBox="0 0 80 80" fill="none" xmlns="http://www.w3.org/2000/svg">
<circle cx="40" cy="40" r="40" fill="#0A6ED1"/>
<path fill-rule="evenodd" clip-rule="evenodd" d="M25.2727 35.5455C27.0802 35.5455 28.5455 34.0802 28.5455 32.2727C28.5455 30.4652 27.0802 29 25.2727 29C23.4652 29 22 30.4652 22 32.2727C22 34.0802 23.4652 35.5455 25.2727 35.5455Z" fill="white"/>
<path fill-rule="evenodd" clip-rule="evenodd" d="M54.7273 35.5455C56.5347 35.5455 58 34.0802 58 32.2727C58 30.4652 56.5347 29 54.7273 29C52.9198 29 51.4545 30.4652 51.4545 32.2727C51.4545 34.0802 52.9198 35.5455 54.7273 35.5455Z" fill="white"/>
<path fill-rule="evenodd" clip-rule="evenodd" d="M25.2727 51.9091C27.0802 51.9091 28.5455 50.4438 28.5455 48.6364C28.5455 46.8289 27.0802 45.3636 25.2727 45.3636C23.4652 45.3636 22 46.8289 22 48.6364C22 50.4438 23.4652 51.9091 25.2727 51.9091Z" fill="white"/>
<path fill-rule="evenodd" clip-rule="evenodd" d="M54.7273 51.9091C56.5347 51.9091 58 50.4438 58 48.6364C58 46.8289 56.5347 45.3636 54.7273 45.3636C52.9198 45.3636 51.4545 46.8289 51.4545 48.6364C51.4545 50.4438 52.9198 51.9091 54.7273 51.9091Z" fill="white"/>
<path fill-rule="evenodd" clip-rule="evenodd" d="M22 32.2727C22 30.4652 23.4652 29 25.2727 29H54.7273C56.5347 29 58 30.4652 58 32.2727V48.6364C58 50.4438 56.5347 51.9091 54.7273 51.9091H25.2727C23.4652 51.9091 22 50.4438 22 48.6364V32.2727ZM54.7273 32.2727L25.2727 32.2727V48.6364H54.7273V32.2727Z" fill="white"/>
<path fill-rule="evenodd" clip-rule="evenodd" d="M39.1818 37.1818C38.7299 37.1818 38.3636 37.5481 38.3636 38C38.3636 38.4519 38.7299 38.8182 39.1818 38.8182H40.8182C43.0775 38.8182 44.9091 40.6497 44.9091 42.9091C44.9091 45.1684 43.0775 47 40.8182 47H36.7273C35.8235 47 35.0909 46.2674 35.0909 45.3636C35.0909 44.4599 35.8235 43.7273 36.7273 43.7273H40.8182C41.2701 43.7273 41.6364 43.361 41.6364 42.9091C41.6364 42.4572 41.2701 42.0909 40.8182 42.0909H39.1818C36.9225 42.0909 35.0909 40.2593 35.0909 38C35.0909 35.7407 36.9225 33.9091 39.1818 33.9091H43.2727C44.1765 33.9091 44.9091 34.6417 44.9091 35.5455C44.9091 36.4492 44.1765 37.1818 43.2727 37.1818H39.1818Z" fill="white"/>
<path fill-rule="evenodd" clip-rule="evenodd" d="M40 29C40.9037 29 41.6364 29.7326 41.6364 30.6364V35.5455C41.6364 36.4492 40.9037 37.1818 40 37.1818C39.0963 37.1818 38.3636 36.4492 38.3636 35.5455V30.6364C38.3636 29.7326 39.0963 29 40 29Z" fill="white"/>
<path fill-rule="evenodd" clip-rule="evenodd" d="M40 43.7273C40.9037 43.7273 41.6364 44.4599 41.6364 45.3636V50.2727C41.6364 51.1765 40.9037 51.9091 40 51.9091C39.0963 51.9091 38.3636 51.1765 38.3636 50.2727V45.3636C38.3636 44.4599 39.0963 43.7273 40 43.7273Z" fill="white"/>
<path fill-rule="evenodd" clip-rule="evenodd" d="M49.8182 42.0909C50.7219 42.0909 51.4545 41.3583 51.4545 40.4545C51.4545 39.5508 50.7219 38.8182 49.8182 38.8182C48.9144 38.8182 48.1818 39.5508 48.1818 40.4545C48.1818 41.3583 48.9144 42.0909 49.8182 42.0909Z" fill="white"/>
<path fill-rule="evenodd" clip-rule="evenodd" d="M30.1818 42.0909C31.0856 42.0909 31.8182 41.3583 31.8182 40.4545C31.8182 39.5508 31.0856 38.8182 30.1818 38.8182C29.2781 38.8182 28.5455 39.5508 28.5455 40.4545C28.5455 41.3583 29.2781 42.0909 30.1818 42.0909Z" fill="white"/>
</svg>
