<svg width="60" height="60" viewBox="0 0 60 60" fill="none" xmlns="http://www.w3.org/2000/svg">
<circle cx="30" cy="30" r="29" fill="#0A6ED1" stroke="#0A6ED1" stroke-width="2"/>
<path fill-rule="evenodd" clip-rule="evenodd" d="M23.4 36.48C23.4 34.3924 25.0924 32.7 27.18 32.7H30.42C32.5076 32.7 34.2 34.3924 34.2 36.48V36.75C34.2 37.4956 33.5956 38.1 32.85 38.1H24.75C24.0044 38.1 23.4 37.4956 23.4 36.75V36.48Z" fill="#FEFFFF"/>
<path fill-rule="evenodd" clip-rule="evenodd" d="M28.8 31.35C30.2912 31.35 31.5 30.1412 31.5 28.65C31.5 27.1588 30.2912 25.95 28.8 25.95C27.3088 25.95 26.1 27.1588 26.1 28.65C26.1 30.1412 27.3088 31.35 28.8 31.35Z" fill="#FEFFFF"/>
<path fill-rule="evenodd" clip-rule="evenodd" d="M26.4954 16.8954C26.7486 16.6422 27.092 16.5 27.45 16.5H31.5C32.2456 16.5 32.85 17.1044 32.85 17.85C32.85 18.5956 32.2456 19.2 31.5 19.2H28.0092L20.7 26.5092V40.8H36.9V36.75C36.9 36.0044 37.5044 35.4 38.25 35.4C38.9956 35.4 39.6 36.0044 39.6 36.75V42.15C39.6 42.8956 38.9956 43.5 38.25 43.5H19.35C18.6044 43.5 18 42.8956 18 42.15V25.95C18 25.592 18.1422 25.2486 18.3954 24.9954L26.4954 16.8954Z" fill="#FEFFFF"/>
<path fill-rule="evenodd" clip-rule="evenodd" d="M37.575 21.9C37.2022 21.9 36.9 22.2022 36.9 22.575C36.9 22.9478 37.2022 23.25 37.575 23.25H38.925C40.789 23.25 42.3 24.761 42.3 26.625C42.3 28.489 40.789 30 38.925 30H35.55C34.8044 30 34.2 29.3956 34.2 28.65C34.2 27.9044 34.8044 27.3 35.55 27.3H38.925C39.2978 27.3 39.6 26.9978 39.6 26.625C39.6 26.2522 39.2978 25.95 38.925 25.95H37.575C35.711 25.95 34.2 24.439 34.2 22.575C34.2 20.711 35.711 19.2 37.575 19.2H40.95C41.6956 19.2 42.3 19.8044 42.3 20.55C42.3 21.2956 41.6956 21.9 40.95 21.9H37.575Z" fill="#FEFFFF"/>
<path fill-rule="evenodd" clip-rule="evenodd" d="M38.25 16.5C38.9956 16.5 39.6 17.1044 39.6 17.85V19.2C39.6 19.9456 38.9956 20.55 38.25 20.55C37.5044 20.55 36.9 19.9456 36.9 19.2V17.85C36.9 17.1044 37.5044 16.5 38.25 16.5Z" fill="#FEFFFF"/>
<path fill-rule="evenodd" clip-rule="evenodd" d="M38.25 28.65C38.9956 28.65 39.6 29.2544 39.6 30V31.35C39.6 32.0956 38.9956 32.7 38.25 32.7C37.5044 32.7 36.9 32.0956 36.9 31.35V30C36.9 29.2544 37.5044 28.65 38.25 28.65Z" fill="#FEFFFF"/>
<path fill-rule="evenodd" clip-rule="evenodd" d="M20.7 25.95H24.75C26.2412 25.95 27.45 24.7412 27.45 23.25V19.2" fill="#FEFFFF"/>
</svg>
