<svg width="80" height="80" viewBox="0 0 80 80" fill="none" xmlns="http://www.w3.org/2000/svg">
<circle cx="40" cy="40" r="40" fill="#0A6ED1"/>
<path fill-rule="evenodd" clip-rule="evenodd" d="M31.2 48.64C31.2 45.8565 33.4565 43.6 36.24 43.6H40.56C43.3435 43.6 45.6 45.8565 45.6 48.64V49C45.6 49.9941 44.7941 50.8 43.8 50.8H33C32.0059 50.8 31.2 49.9941 31.2 49V48.64Z" fill="white"/>
<path fill-rule="evenodd" clip-rule="evenodd" d="M38.4 41.8C40.3882 41.8 42 40.1882 42 38.2C42 36.2118 40.3882 34.6 38.4 34.6C36.4118 34.6 34.8 36.2118 34.8 38.2C34.8 40.1882 36.4118 41.8 38.4 41.8Z" fill="white"/>
<path fill-rule="evenodd" clip-rule="evenodd" d="M35.3272 22.5272C35.6648 22.1896 36.1226 22 36.6 22H42C42.9941 22 43.8 22.8059 43.8 23.8C43.8 24.7941 42.9941 25.6 42 25.6H37.3456L27.6 35.3456V54.4H49.2V49C49.2 48.0059 50.0059 47.2 51 47.2C51.9941 47.2 52.8 48.0059 52.8 49V56.2C52.8 57.1941 51.9941 58 51 58H25.8C24.8059 58 24 57.1941 24 56.2V34.6C24 34.1226 24.1896 33.6648 24.5272 33.3272L35.3272 22.5272Z" fill="white"/>
<path fill-rule="evenodd" clip-rule="evenodd" d="M50.1 29.2C49.6029 29.2 49.2 29.6029 49.2 30.1C49.2 30.5971 49.6029 31 50.1 31H51.9C54.3853 31 56.4 33.0147 56.4 35.5C56.4 37.9853 54.3853 40 51.9 40H47.4C46.4059 40 45.6 39.1941 45.6 38.2C45.6 37.2059 46.4059 36.4 47.4 36.4H51.9C52.3971 36.4 52.8 35.9971 52.8 35.5C52.8 35.0029 52.3971 34.6 51.9 34.6H50.1C47.6147 34.6 45.6 32.5853 45.6 30.1C45.6 27.6147 47.6147 25.6 50.1 25.6H54.6C55.5941 25.6 56.4 26.4059 56.4 27.4C56.4 28.3941 55.5941 29.2 54.6 29.2H50.1Z" fill="white"/>
<path fill-rule="evenodd" clip-rule="evenodd" d="M51 22C51.9941 22 52.8 22.8059 52.8 23.8V25.6C52.8 26.5941 51.9941 27.4 51 27.4C50.0059 27.4 49.2 26.5941 49.2 25.6V23.8C49.2 22.8059 50.0059 22 51 22Z" fill="white"/>
<path fill-rule="evenodd" clip-rule="evenodd" d="M51 38.2C51.9941 38.2 52.8 39.0059 52.8 40V41.8C52.8 42.7941 51.9941 43.6 51 43.6C50.0059 43.6 49.2 42.7941 49.2 41.8V40C49.2 39.0059 50.0059 38.2 51 38.2Z" fill="white"/>
<path fill-rule="evenodd" clip-rule="evenodd" d="M27.6 34.6H33C34.9882 34.6 36.6 32.9882 36.6 31V25.6" fill="white"/>
</svg>
