<svg width="60" height="60" viewBox="0 0 60 60" fill="none" xmlns="http://www.w3.org/2000/svg">
<circle cx="30" cy="30" r="29" stroke="#0A6ED1" stroke-width="2"/>
<path fill-rule="evenodd" clip-rule="evenodd" d="M31.4737 38.9473C28.3344 38.9473 25.7895 41.4923 25.7895 44.6316V46.5263H31.4737C32.5201 46.5263 33.3684 47.3746 33.3684 48.421C33.3684 49.4675 32.5201 50.3158 31.4737 50.3158H23.8947C22.8483 50.3158 22 49.4675 22 48.421V44.6316C22 39.3994 26.2415 35.1579 31.4737 35.1579H39.0527C40.0991 35.1579 40.9474 36.0062 40.9474 37.0526C40.9474 38.099 40.0991 38.9473 39.0527 38.9473H31.4737Z" fill="white"/>
<path fill-rule="evenodd" clip-rule="evenodd" d="M25.7895 31.3684C25.7895 27.1827 29.1827 23.7895 33.3684 23.7895C34.2497 23.7895 35.0997 23.9407 35.8914 24.2201C36.8782 24.5684 37.3958 25.6506 37.0475 26.6374C36.6992 27.6242 35.617 28.1418 34.6302 27.7935C34.238 27.6551 33.8141 27.5789 33.3684 27.5789C31.2756 27.5789 29.579 29.2755 29.579 31.3684C29.579 33.4613 31.2756 35.1579 33.3684 35.1579C34.4149 35.1579 35.2632 36.0062 35.2632 37.0526C35.2632 38.099 34.4149 38.9473 33.3684 38.9473C29.1827 38.9473 25.7895 35.5541 25.7895 31.3684Z" fill="white"/>
<path fill-rule="evenodd" clip-rule="evenodd" d="M42.8421 38.9473C37.61 38.9473 33.3684 43.1889 33.3684 48.421L33.3684 50.3158H40.9474C41.9938 50.3158 42.8421 51.1641 42.8421 52.2105C42.8421 53.2569 41.9938 54.1052 40.9474 54.1052H31.4737C30.4273 54.1052 29.579 53.2569 29.579 52.2105V48.421C29.579 41.096 35.5171 35.1579 42.8421 35.1579C43.8886 35.1579 44.7369 36.0062 44.7369 37.0526C44.7369 38.099 43.8886 38.9473 42.8421 38.9473Z" fill="white"/>
<path fill-rule="evenodd" clip-rule="evenodd" d="M51.3684 44.6316C50.8452 44.6316 50.4211 45.0557 50.4211 45.5789C50.4211 46.1021 50.8452 46.5263 51.3684 46.5263H53.2632C55.8792 46.5263 58 48.647 58 51.2631C58 53.8792 55.8792 56 53.2632 56H48.5263C47.4799 56 46.6316 55.1517 46.6316 54.1052C46.6316 53.0588 47.4799 52.2105 48.5263 52.2105H53.2632C53.7864 52.2105 54.2105 51.7863 54.2105 51.2631C54.2105 50.7399 53.7864 50.3158 53.2632 50.3158H51.3684C48.7523 50.3158 46.6316 48.195 46.6316 45.5789C46.6316 42.9628 48.7523 40.8421 51.3684 40.8421H56.1053C57.1517 40.8421 58 41.6904 58 42.7368C58 43.7833 57.1517 44.6316 56.1053 44.6316H51.3684Z" fill="white"/>
<path fill-rule="evenodd" clip-rule="evenodd" d="M52.3158 37.0526C53.3622 37.0526 54.2105 37.9009 54.2105 38.9473V40.8421C54.2105 41.8885 53.3622 42.7368 52.3158 42.7368C51.2694 42.7368 50.4211 41.8885 50.4211 40.8421V38.9473C50.4211 37.9009 51.2694 37.0526 52.3158 37.0526Z" fill="white"/>
<path fill-rule="evenodd" clip-rule="evenodd" d="M52.3158 54.1052C53.3622 54.1052 54.2105 54.9535 54.2105 56V57.8947C54.2105 58.9411 53.3622 59.7894 52.3158 59.7894C51.2694 59.7894 50.4211 58.9411 50.4211 57.8947V56C50.4211 54.9535 51.2694 54.1052 52.3158 54.1052Z" fill="white"/>
<path fill-rule="evenodd" clip-rule="evenodd" d="M33.3684 29.4737C33.3684 24.2415 37.61 20 42.8421 20C48.0743 20 52.3158 24.2415 52.3158 29.4737C52.3158 34.7058 48.0743 38.9473 42.8421 38.9473C37.61 38.9473 33.3684 34.7058 33.3684 29.4737ZM42.8421 23.7895C39.7028 23.7895 37.1579 26.3344 37.1579 29.4737C37.1579 32.613 39.7028 35.1579 42.8421 35.1579C45.9814 35.1579 48.5263 32.613 48.5263 29.4737C48.5263 26.3344 45.9814 23.7895 42.8421 23.7895Z" fill="white"/>
</svg>
