<svg width="80" height="80" viewBox="0 0 80 80" fill="none" xmlns="http://www.w3.org/2000/svg">
<circle cx="40" cy="40" r="40" fill="#0A6ED1"/>
<path fill-rule="evenodd" clip-rule="evenodd" d="M36 40C30.4772 40 26 44.4772 26 50V52H34C35.1046 52 36 52.8954 36 54C36 55.1046 35.1046 56 34 56H24C22.8954 56 22 55.1046 22 54V50C22 42.268 28.268 36 36 36H38C39.1046 36 40 36.8954 40 38C40 39.1046 39.1046 40 38 40H36Z" fill="white"/>
<path fill-rule="evenodd" clip-rule="evenodd" d="M40 50C40 45.5817 43.5817 42 48 42C52.4183 42 56 45.5817 56 50C56 54.4183 52.4183 58 48 58C43.5817 58 40 54.4183 40 50ZM48 46C45.7909 46 44 47.7909 44 50C44 52.2091 45.7909 54 48 54C50.2091 54 52 52.2091 52 50C52 47.7909 50.2091 46 48 46Z" fill="white"/>
<path fill-rule="evenodd" clip-rule="evenodd" d="M52 50C52 48.8954 52.8954 48 54 48H56C57.1046 48 58 48.8954 58 50C58 51.1046 57.1046 52 56 52H54C52.8954 52 52 51.1046 52 50Z" fill="white"/>
<path fill-rule="evenodd" clip-rule="evenodd" d="M38 50C38 48.8954 38.8954 48 40 48H42C43.1046 48 44 48.8954 44 50C44 51.1046 43.1046 52 42 52H40C38.8954 52 38 51.1046 38 50Z" fill="white"/>
<path fill-rule="evenodd" clip-rule="evenodd" d="M48 54C49.1046 54 50 54.8954 50 56V58C50 59.1046 49.1046 60 48 60C46.8954 60 46 59.1046 46 58V56C46 54.8954 46.8954 54 48 54Z" fill="white"/>
<path fill-rule="evenodd" clip-rule="evenodd" d="M48 40C49.1046 40 50 40.8954 50 42V44C50 45.1046 49.1046 46 48 46C46.8954 46 46 45.1046 46 44V42C46 40.8954 46.8954 40 48 40Z" fill="white"/>
<path fill-rule="evenodd" clip-rule="evenodd" d="M55.4142 42.5858C56.1953 43.3668 56.1953 44.6332 55.4142 45.4142L54.4142 46.4142C53.6332 47.1953 52.3668 47.1953 51.5858 46.4142C50.8047 45.6332 50.8047 44.3668 51.5858 43.5858L52.5858 42.5858C53.3668 41.8047 54.6332 41.8047 55.4142 42.5858Z" fill="white"/>
<path fill-rule="evenodd" clip-rule="evenodd" d="M40.5858 42.5858C41.3668 41.8047 42.6332 41.8047 43.4142 42.5858L44.4142 43.5858C45.1953 44.3668 45.1953 45.6332 44.4142 46.4142C43.6332 47.1953 42.3668 47.1953 41.5858 46.4142L40.5858 45.4142C39.8047 44.6332 39.8047 43.3668 40.5858 42.5858Z" fill="white"/>
<path fill-rule="evenodd" clip-rule="evenodd" d="M51.5858 53.5858C52.3668 52.8047 53.6332 52.8047 54.4142 53.5858L55.4142 54.5858C56.1953 55.3668 56.1953 56.6332 55.4142 57.4142C54.6332 58.1953 53.3668 58.1953 52.5858 57.4142L51.5858 56.4142C50.8047 55.6332 50.8047 54.3668 51.5858 53.5858Z" fill="white"/>
<path fill-rule="evenodd" clip-rule="evenodd" d="M44.4142 53.5858C45.1953 54.3668 45.1953 55.6332 44.4142 56.4142L43.4142 57.4142C42.6332 58.1953 41.3668 58.1953 40.5858 57.4142C39.8047 56.6332 39.8047 55.3668 40.5858 54.5858L41.5858 53.5858C42.3668 52.8047 43.6332 52.8047 44.4142 53.5858Z" fill="white"/>
<path fill-rule="evenodd" clip-rule="evenodd" d="M28 30C28 24.4772 32.4772 20 38 20C43.5228 20 48 24.4772 48 30C48 35.5228 43.5228 40 38 40C32.4772 40 28 35.5228 28 30ZM38 24C34.6863 24 32 26.6863 32 30C32 33.3137 34.6863 36 38 36C41.3137 36 44 33.3137 44 30C44 26.6863 41.3137 24 38 24Z" fill="white"/>
</svg>
