<svg width="60" height="60" viewBox="0 0 60 60" fill="none" xmlns="http://www.w3.org/2000/svg">
<circle cx="30" cy="30" r="29" stroke="#0A6ED1" stroke-width="2"/>
<path fill-rule="evenodd" clip-rule="evenodd" d="M26.3182 18.9545C26.3182 17.5989 27.4171 16.5 28.7727 16.5H41.0455C42.4011 16.5 43.5 17.5989 43.5 18.9545V31.2273C43.5 32.5829 42.4011 33.6818 41.0455 33.6818H28.7727C27.4171 33.6818 26.3182 32.5829 26.3182 31.2273V18.9545ZM41.0455 18.9545L28.7727 18.9545V31.2273H41.0455V18.9545Z" fill="#0A6ED1"/>
<path fill-rule="evenodd" clip-rule="evenodd" d="M26.3182 37.3636C26.3182 36.008 27.4171 34.9091 28.7727 34.9091H32.4545C33.8102 34.9091 34.9091 36.008 34.9091 37.3636V41.0455C34.9091 42.4011 33.8102 43.5 32.4545 43.5H28.7727C27.4171 43.5 26.3182 42.4011 26.3182 41.0455V37.3636ZM32.4545 37.3636H28.7727V41.0455H32.4545V37.3636Z" fill="#0A6ED1"/>
<path fill-rule="evenodd" clip-rule="evenodd" d="M18.9545 37.3636C18.9545 36.008 20.0535 34.9091 21.4091 34.9091H22.6364C23.992 34.9091 25.0909 36.008 25.0909 37.3636V38.5909C25.0909 39.9465 23.992 41.0455 22.6364 41.0455H21.4091C20.0535 41.0455 18.9545 39.9465 18.9545 38.5909V37.3636Z" fill="#0A6ED1"/>
<path fill-rule="evenodd" clip-rule="evenodd" d="M16.5 27.5455C16.5 26.1898 17.5989 25.0909 18.9545 25.0909H22.6364C23.992 25.0909 25.0909 26.1898 25.0909 27.5455V31.2273C25.0909 32.5829 23.992 33.6818 22.6364 33.6818H18.9545C17.5989 33.6818 16.5 32.5829 16.5 31.2273V27.5455ZM22.6364 27.5455H18.9545V31.2273H22.6364V27.5455Z" fill="#0A6ED1"/>
<path fill-rule="evenodd" clip-rule="evenodd" d="M31.2273 22.6364C31.9051 22.6364 32.4545 23.1858 32.4545 23.8636V28.7727C32.4545 29.4505 31.9051 30 31.2273 30C30.5495 30 30 29.4505 30 28.7727V23.8636C30 23.1858 30.5495 22.6364 31.2273 22.6364Z" fill="#0A6ED1"/>
<path fill-rule="evenodd" clip-rule="evenodd" d="M34.9091 20.1818C35.5869 20.1818 36.1364 20.7313 36.1364 21.4091V28.7727C36.1364 29.4505 35.5869 30 34.9091 30C34.2313 30 33.6818 29.4505 33.6818 28.7727V21.4091C33.6818 20.7313 34.2313 20.1818 34.9091 20.1818Z" fill="#0A6ED1"/>
<path fill-rule="evenodd" clip-rule="evenodd" d="M38.5909 25.0909C39.2687 25.0909 39.8182 25.6404 39.8182 26.3182V28.7727C39.8182 29.4505 39.2687 30 38.5909 30C37.9131 30 37.3636 29.4505 37.3636 28.7727V26.3182C37.3636 25.6404 37.9131 25.0909 38.5909 25.0909Z" fill="#0A6ED1"/>
</svg>
