<svg width="80" height="80" viewBox="0 0 80 80" fill="none" xmlns="http://www.w3.org/2000/svg">
<circle cx="40" cy="40" r="40" fill="#0A6ED1"/>
<path fill-rule="evenodd" clip-rule="evenodd" d="M36.6 40C31.6294 40 27.6 44.0294 27.6 49V50.8H34.8C35.7941 50.8 36.6 51.6059 36.6 52.6C36.6 53.5941 35.7941 54.4 34.8 54.4H25.8C24.8059 54.4 24 53.5941 24 52.6V49C24 42.0412 29.6412 36.4 36.6 36.4H38.4C39.3941 36.4 40.2 37.2059 40.2 38.2C40.2 39.1941 39.3941 40 38.4 40H36.6Z" fill="white"/>
<path fill-rule="evenodd" clip-rule="evenodd" d="M40.2 49C40.2 45.0235 43.4236 41.8 47.4 41.8C51.3765 41.8 54.6 45.0235 54.6 49C54.6 52.9764 51.3765 56.2 47.4 56.2C43.4236 56.2 40.2 52.9764 40.2 49ZM47.4 45.4C45.4118 45.4 43.8 47.0118 43.8 49C43.8 50.9882 45.4118 52.6 47.4 52.6C49.3882 52.6 51 50.9882 51 49C51 47.0118 49.3882 45.4 47.4 45.4Z" fill="white"/>
<path fill-rule="evenodd" clip-rule="evenodd" d="M51 49C51 48.0059 51.8059 47.2 52.8 47.2H54.6C55.5941 47.2 56.4 48.0059 56.4 49C56.4 49.9941 55.5941 50.8 54.6 50.8H52.8C51.8059 50.8 51 49.9941 51 49Z" fill="white"/>
<path fill-rule="evenodd" clip-rule="evenodd" d="M38.4 49C38.4 48.0059 39.2059 47.2 40.2 47.2H42C42.9941 47.2 43.8 48.0059 43.8 49C43.8 49.9941 42.9941 50.8 42 50.8H40.2C39.2059 50.8 38.4 49.9941 38.4 49Z" fill="white"/>
<path fill-rule="evenodd" clip-rule="evenodd" d="M47.4 52.6C48.3941 52.6 49.2 53.4059 49.2 54.4V56.2C49.2 57.1941 48.3941 58 47.4 58C46.4059 58 45.6 57.1941 45.6 56.2V54.4C45.6 53.4059 46.4059 52.6 47.4 52.6Z" fill="white"/>
<path fill-rule="evenodd" clip-rule="evenodd" d="M47.4 40C48.3941 40 49.2 40.8059 49.2 41.8V43.6C49.2 44.5941 48.3941 45.4 47.4 45.4C46.4059 45.4 45.6 44.5941 45.6 43.6V41.8C45.6 40.8059 46.4059 40 47.4 40Z" fill="white"/>
<path fill-rule="evenodd" clip-rule="evenodd" d="M54.0728 42.3272C54.7757 43.0302 54.7757 44.1698 54.0728 44.8728L53.1728 45.7728C52.4699 46.4757 51.3302 46.4757 50.6272 45.7728C49.9243 45.0698 49.9243 43.9302 50.6272 43.2272L51.5272 42.3272C52.2302 41.6243 53.3699 41.6243 54.0728 42.3272Z" fill="white"/>
<path fill-rule="evenodd" clip-rule="evenodd" d="M40.7272 42.3272C41.4302 41.6243 42.5698 41.6243 43.2728 42.3272L44.1728 43.2272C44.8757 43.9302 44.8757 45.0698 44.1728 45.7728C43.4698 46.4757 42.3302 46.4757 41.6272 45.7728L40.7272 44.8728C40.0243 44.1698 40.0243 43.0302 40.7272 42.3272Z" fill="white"/>
<path fill-rule="evenodd" clip-rule="evenodd" d="M50.6272 52.2272C51.3302 51.5243 52.4699 51.5243 53.1728 52.2272L54.0728 53.1272C54.7757 53.8301 54.7757 54.9698 54.0728 55.6728C53.3699 56.3757 52.2302 56.3757 51.5272 55.6728L50.6272 54.7728C49.9243 54.0698 49.9243 52.9301 50.6272 52.2272Z" fill="white"/>
<path fill-rule="evenodd" clip-rule="evenodd" d="M44.1728 52.2272C44.8757 52.9301 44.8757 54.0698 44.1728 54.7728L43.2728 55.6728C42.5698 56.3757 41.4302 56.3757 40.7272 55.6728C40.0243 54.9698 40.0243 53.8301 40.7272 53.1272L41.6272 52.2272C42.3302 51.5243 43.4698 51.5243 44.1728 52.2272Z" fill="white"/>
<path fill-rule="evenodd" clip-rule="evenodd" d="M29.4 31C29.4 26.0294 33.4294 22 38.4 22C43.3706 22 47.4 26.0294 47.4 31C47.4 35.9706 43.3706 40 38.4 40C33.4294 40 29.4 35.9706 29.4 31ZM38.4 25.6C35.4177 25.6 33 28.0177 33 31C33 33.9823 35.4177 36.4 38.4 36.4C41.3823 36.4 43.8 33.9823 43.8 31C43.8 28.0177 41.3823 25.6 38.4 25.6Z" fill="white"/>
</svg>
