<svg width="80" height="80" viewBox="0 0 80 80" fill="none" xmlns="http://www.w3.org/2000/svg">
<circle cx="40" cy="40" r="40" fill="#0A6ED1"/>
<path fill-rule="evenodd" clip-rule="evenodd" d="M35.0909 25.2727C35.0909 23.4652 36.5562 22 38.3636 22H54.7273C56.5348 22 58 23.4653 58 25.2727V41.6364C58 43.4438 56.5347 44.9091 54.7273 44.9091H38.3636C36.5562 44.9091 35.0909 43.4438 35.0909 41.6364V25.2727ZM54.7273 25.2727L38.3636 25.2727V41.6364H54.7273V25.2727Z" fill="white"/>
<path fill-rule="evenodd" clip-rule="evenodd" d="M35.0909 49.8182C35.0909 48.0107 36.5562 46.5455 38.3636 46.5455H43.2727C45.0802 46.5455 46.5455 48.0107 46.5455 49.8182V54.7273C46.5455 56.5347 45.0802 58 43.2727 58H38.3636C36.5562 58 35.0909 56.5347 35.0909 54.7273V49.8182ZM43.2727 49.8182H38.3636V54.7273H43.2727V49.8182Z" fill="white"/>
<path fill-rule="evenodd" clip-rule="evenodd" d="M25.2727 49.8182C25.2727 48.0107 26.738 46.5455 28.5455 46.5455H30.1818C31.9893 46.5455 33.4545 48.0107 33.4545 49.8182V51.4545C33.4545 53.262 31.9893 54.7273 30.1818 54.7273H28.5455C26.738 54.7273 25.2727 53.262 25.2727 51.4545V49.8182Z" fill="white"/>
<path fill-rule="evenodd" clip-rule="evenodd" d="M22 36.7273C22 34.9198 23.4653 33.4545 25.2727 33.4545H30.1818C31.9893 33.4545 33.4545 34.9198 33.4545 36.7273V41.6364C33.4545 43.4438 31.9893 44.9091 30.1818 44.9091H25.2727C23.4652 44.9091 22 43.4438 22 41.6364V36.7273ZM30.1818 36.7273H25.2727V41.6364H30.1818V36.7273Z" fill="white"/>
<path fill-rule="evenodd" clip-rule="evenodd" d="M41.6364 30.1818C42.5401 30.1818 43.2727 30.9144 43.2727 31.8182V38.3636C43.2727 39.2674 42.5401 40 41.6364 40C40.7326 40 40 39.2674 40 38.3636V31.8182C40 30.9144 40.7326 30.1818 41.6364 30.1818Z" fill="white"/>
<path fill-rule="evenodd" clip-rule="evenodd" d="M46.5455 26.9091C47.4492 26.9091 48.1818 27.6417 48.1818 28.5455V38.3636C48.1818 39.2674 47.4492 40 46.5455 40C45.6417 40 44.9091 39.2674 44.9091 38.3636V28.5455C44.9091 27.6417 45.6417 26.9091 46.5455 26.9091Z" fill="white"/>
<path fill-rule="evenodd" clip-rule="evenodd" d="M51.4545 33.4545C52.3583 33.4545 53.0909 34.1872 53.0909 35.0909V38.3636C53.0909 39.2674 52.3583 40 51.4545 40C50.5508 40 49.8182 39.2674 49.8182 38.3636V35.0909C49.8182 34.1872 50.5508 33.4545 51.4545 33.4545Z" fill="white"/>
</svg>
