<svg width="80" height="80" viewBox="0 0 80 80" fill="none" xmlns="http://www.w3.org/2000/svg">
<circle cx="40" cy="40" r="40" fill="#0A6ED1"/>
<path fill-rule="evenodd" clip-rule="evenodd" d="M24 31C24 28.0177 26.4177 25.6 29.4 25.6H51C53.9823 25.6 56.4 28.0177 56.4 31V52.6C56.4 55.5823 53.9823 58 51 58H29.4C26.4177 58 24 55.5823 24 52.6V31ZM29.4 29.2C28.4059 29.2 27.6 30.0059 27.6 31V52.6C27.6 53.5941 28.4059 54.4 29.4 54.4H51C51.9941 54.4 52.8 53.5941 52.8 52.6V31C52.8 30.0059 51.9941 29.2 51 29.2H29.4Z" fill="white"/>
<path d="M42 45.4C42 44.4059 42.8059 43.6 43.8 43.6H47.4C48.3941 43.6 49.2 44.4059 49.2 45.4V49C49.2 49.9941 48.3941 50.8 47.4 50.8H43.8C42.8059 50.8 42 49.9941 42 49V45.4Z" fill="white"/>
<path fill-rule="evenodd" clip-rule="evenodd" d="M34.8 22C35.7941 22 36.6 22.8059 36.6 23.8V31C36.6 31.9941 35.7941 32.8 34.8 32.8C33.8059 32.8 33 31.9941 33 31V23.8C33 22.8059 33.8059 22 34.8 22Z" fill="white"/>
<path fill-rule="evenodd" clip-rule="evenodd" d="M24 38.2C24 37.2059 24.8059 36.4 25.8 36.4H54.6C55.5941 36.4 56.4 37.2059 56.4 38.2C56.4 39.1941 55.5941 40 54.6 40H25.8C24.8059 40 24 39.1941 24 38.2Z" fill="white"/>
<path fill-rule="evenodd" clip-rule="evenodd" d="M45.6 22C46.5941 22 47.4 22.8059 47.4 23.8V31C47.4 31.9941 46.5941 32.8 45.6 32.8C44.6059 32.8 43.8 31.9941 43.8 31V23.8C43.8 22.8059 44.6059 22 45.6 22Z" fill="white"/>
</svg>
