<svg width="60" height="60" viewBox="0 0 60 60" fill="none" xmlns="http://www.w3.org/2000/svg">
<circle cx="30" cy="30" r="29" stroke="#0A6ED1" stroke-width="2"/>
<path fill-rule="evenodd" clip-rule="evenodd" d="M18 23.25C18 21.0132 19.8132 19.2 22.05 19.2H38.25C40.4868 19.2 42.3 21.0132 42.3 23.25V39.45C42.3 41.6868 40.4868 43.5 38.25 43.5H22.05C19.8132 43.5 18 41.6868 18 39.45V23.25ZM22.05 21.9C21.3044 21.9 20.7 22.5044 20.7 23.25V39.45C20.7 40.1956 21.3044 40.8 22.05 40.8H38.25C38.9956 40.8 39.6 40.1956 39.6 39.45V23.25C39.6 22.5044 38.9956 21.9 38.25 21.9H22.05Z" fill="#0A6ED1"/>
<path d="M31.5 34.05C31.5 33.3044 32.1044 32.7 32.85 32.7H35.55C36.2956 32.7 36.9 33.3044 36.9 34.05V36.75C36.9 37.4956 36.2956 38.1 35.55 38.1H32.85C32.1044 38.1 31.5 37.4956 31.5 36.75V34.05Z" fill="#0A6ED1"/>
<path fill-rule="evenodd" clip-rule="evenodd" d="M26.1 16.5C26.8456 16.5 27.45 17.1044 27.45 17.85V23.25C27.45 23.9956 26.8456 24.6 26.1 24.6C25.3544 24.6 24.75 23.9956 24.75 23.25V17.85C24.75 17.1044 25.3544 16.5 26.1 16.5Z" fill="#0A6ED1"/>
<path fill-rule="evenodd" clip-rule="evenodd" d="M18 28.65C18 27.9044 18.6044 27.3 19.35 27.3H40.95C41.6956 27.3 42.3 27.9044 42.3 28.65C42.3 29.3956 41.6956 30 40.95 30H19.35C18.6044 30 18 29.3956 18 28.65Z" fill="#0A6ED1"/>
<path fill-rule="evenodd" clip-rule="evenodd" d="M34.2 16.5C34.9456 16.5 35.55 17.1044 35.55 17.85V23.25C35.55 23.9956 34.9456 24.6 34.2 24.6C33.4544 24.6 32.85 23.9956 32.85 23.25V17.85C32.85 17.1044 33.4544 16.5 34.2 16.5Z" fill="#0A6ED1"/>
</svg>
