<svg width="60" height="60" viewBox="0 0 60 60" fill="none" xmlns="http://www.w3.org/2000/svg">
<circle cx="30" cy="30" r="29" fill="#0A6ED1" stroke="#0A6ED1" stroke-width="2"/>
<path fill-rule="evenodd" clip-rule="evenodd" d="M16.5 18.6001C16.5 17.8545 17.1045 17.25 17.8501 17.25H20.5503C21.0618 17.25 21.5293 17.539 21.758 17.9965L26.7852 28.0541H35.9678L40.9772 19.2808C41.3469 18.6332 42.1716 18.408 42.8191 18.7778C43.4666 19.1475 43.6918 19.9721 43.3221 20.6197L37.924 30.0737C37.6837 30.4946 37.2362 30.7543 36.7516 30.7543H25.9507C25.4393 30.7543 24.9718 30.4653 24.7431 30.0079L19.7158 19.9502H17.8501C17.1045 19.9502 16.5 19.3457 16.5 18.6001Z" fill="white"/>
<path fill-rule="evenodd" clip-rule="evenodd" d="M37.7062 17.6454C38.2335 18.1727 38.2335 19.0275 37.7062 19.5548L32.3058 24.9552C31.7786 25.4824 30.9237 25.4824 30.3965 24.9552L27.6963 22.255C27.169 21.7277 27.169 20.8729 27.6963 20.3456C28.2235 19.8184 29.0784 19.8184 29.6056 20.3456L31.3511 22.0912L35.7969 17.6454C36.3241 17.1182 37.179 17.1182 37.7062 17.6454Z" fill="white"/>
<path fill-rule="evenodd" clip-rule="evenodd" d="M26.5545 28.1934C27.2214 28.5268 27.4918 29.3378 27.1583 30.0047L25.435 33.4512H39.4518C40.1974 33.4512 40.8019 34.0557 40.8019 34.8013C40.8019 35.547 40.1974 36.1515 39.4518 36.1515H23.2505C22.7826 36.1515 22.348 35.9092 22.1021 35.5111C21.8561 35.1131 21.8337 34.6161 22.0429 34.1976L24.7432 28.7971C25.0766 28.1302 25.8876 27.8599 26.5545 28.1934Z" fill="white"/>
<path fill-rule="evenodd" clip-rule="evenodd" d="M38.1017 42.902C39.5929 42.902 40.8019 41.693 40.8019 40.2018C40.8019 38.7105 39.5929 37.5016 38.1017 37.5016C36.6104 37.5016 35.4015 38.7105 35.4015 40.2018C35.4015 41.693 36.6104 42.902 38.1017 42.902Z" fill="white"/>
<path fill-rule="evenodd" clip-rule="evenodd" d="M24.6006 42.902C26.0919 42.902 27.3008 41.693 27.3008 40.2018C27.3008 38.7105 26.0919 37.5016 24.6006 37.5016C23.1093 37.5016 21.9004 38.7105 21.9004 40.2018C21.9004 41.693 23.1093 42.902 24.6006 42.902Z" fill="white"/>
</svg>
