<svg width="80" height="80" viewBox="0 0 80 80" fill="none" xmlns="http://www.w3.org/2000/svg">
<circle cx="40" cy="40" r="40" fill="#0A6ED1"/>
<path fill-rule="evenodd" clip-rule="evenodd" d="M22 24.8001C22 23.8059 22.8059 23 23.8001 23H27.4004C28.0823 23 28.7057 23.3853 29.0106 23.9953L35.7137 37.4055H47.957L54.6363 25.7077C55.1293 24.8443 56.2288 24.5441 57.0922 25.037C57.9555 25.53 58.2558 26.6295 57.7628 27.4929L50.5653 40.0982C50.2449 40.6594 49.6483 41.0058 49.0021 41.0058H34.601C33.919 41.0058 33.2957 40.6205 32.9908 40.0105L26.2877 26.6003H23.8001C22.8059 26.6003 22 25.7943 22 24.8001Z" fill="white"/>
<path fill-rule="evenodd" clip-rule="evenodd" d="M50.275 23.5272C50.978 24.2302 50.978 25.37 50.275 26.073L43.0744 33.2736C42.3714 33.9766 41.2316 33.9766 40.5286 33.2736L36.9284 29.6733C36.2254 28.9703 36.2254 27.8305 36.9284 27.1275C37.6314 26.4245 38.7711 26.4245 39.4741 27.1275L41.8015 29.4549L47.7292 23.5272C48.4322 22.8243 49.572 22.8243 50.275 23.5272Z" fill="white"/>
<path fill-rule="evenodd" clip-rule="evenodd" d="M35.406 37.5912C36.2952 38.0358 36.6557 39.1171 36.2111 40.0063L33.9134 44.6017H52.6024C53.5965 44.6017 54.4025 45.4076 54.4025 46.4018C54.4025 47.396 53.5965 48.2019 52.6024 48.2019H31.0007C30.3768 48.2019 29.7974 47.8789 29.4694 47.3482C29.1414 46.8175 29.1116 46.1548 29.3906 45.5968L32.9909 38.3962C33.4355 37.507 34.5168 37.1465 35.406 37.5912Z" fill="white"/>
<path fill-rule="evenodd" clip-rule="evenodd" d="M50.8022 57.2026C52.7906 57.2026 54.4025 55.5907 54.4025 53.6024C54.4025 51.614 52.7906 50.0021 50.8022 50.0021C48.8138 50.0021 47.2019 51.614 47.2019 53.6024C47.2019 55.5907 48.8138 57.2026 50.8022 57.2026Z" fill="white"/>
<path fill-rule="evenodd" clip-rule="evenodd" d="M32.8008 57.2026C34.7892 57.2026 36.4011 55.5907 36.4011 53.6024C36.4011 51.614 34.7892 50.0021 32.8008 50.0021C30.8125 50.0021 29.2006 51.614 29.2006 53.6024C29.2006 55.5907 30.8125 57.2026 32.8008 57.2026Z" fill="white"/>
</svg>
