<svg width="80" height="80" viewBox="0 0 80 80" fill="none" xmlns="http://www.w3.org/2000/svg">
<circle cx="40" cy="40" r="40" fill="#0A6ED1"/>
<path fill-rule="evenodd" clip-rule="evenodd" d="M35.2632 40.0588C30.031 40.0588 25.7895 44.3253 25.7895 49.5882V51.4941H35.2632C36.3096 51.4941 37.1579 52.3474 37.1579 53.4C37.1579 54.4526 36.3096 55.3059 35.2632 55.3059H23.8947C22.8483 55.3059 22 54.4526 22 53.4V49.5882C22 42.2201 27.9381 36.2471 35.2632 36.2471H37.1579C38.2043 36.2471 39.0526 37.1004 39.0526 38.1529C39.0526 39.2055 38.2043 40.0588 37.1579 40.0588H35.2632Z" fill="white"/>
<path fill-rule="evenodd" clip-rule="evenodd" d="M39.0526 47.6824C39.0526 43.472 42.4458 40.0588 46.6316 40.0588C50.8173 40.0588 54.2105 43.472 54.2105 47.6824C54.2105 51.8927 50.8173 55.3059 46.6316 55.3059C42.4458 55.3059 39.0526 51.8927 39.0526 47.6824ZM46.6316 43.8706C44.5387 43.8706 42.8421 45.5772 42.8421 47.6824C42.8421 49.7875 44.5387 51.4941 46.6316 51.4941C48.7244 51.4941 50.4211 49.7875 50.4211 47.6824C50.4211 45.5772 48.7244 43.8706 46.6316 43.8706Z" fill="white"/>
<path fill-rule="evenodd" clip-rule="evenodd" d="M50.976 52.0523C51.716 51.308 52.9156 51.308 53.6556 52.0523L57.445 55.8641C58.185 56.6084 58.185 57.8151 57.445 58.5594C56.7051 59.3037 55.5054 59.3037 54.7655 58.5594L50.976 54.7477C50.2361 54.0034 50.2361 52.7966 50.976 52.0523Z" fill="white"/>
<path fill-rule="evenodd" clip-rule="evenodd" d="M27.6842 30.5294C27.6842 25.2665 31.9257 21 37.1579 21C42.3901 21 46.6316 25.2665 46.6316 30.5294C46.6316 35.7924 42.3901 40.0588 37.1579 40.0588C31.9257 40.0588 27.6842 35.7924 27.6842 30.5294ZM37.1579 24.8118C34.0186 24.8118 31.4737 27.3716 31.4737 30.5294C31.4737 33.6872 34.0186 36.2471 37.1579 36.2471C40.2972 36.2471 42.8421 33.6872 42.8421 30.5294C42.8421 27.3716 40.2972 24.8118 37.1579 24.8118Z" fill="white"/>
</svg>
