<svg width="80" height="80" viewBox="0 0 80 80" fill="none" xmlns="http://www.w3.org/2000/svg">
<circle cx="40" cy="40" r="40" fill="#0A6ED1"/>
<path fill-rule="evenodd" clip-rule="evenodd" d="M44 27.4C44 26.4059 44.8059 25.6 45.8 25.6H49.4C52.3823 25.6 54.8 28.0177 54.8 31V45.4C54.8 46.3941 53.9941 47.2 53 47.2C52.0059 47.2 51.2 46.3941 51.2 45.4V31C51.2 30.0059 50.3941 29.2 49.4 29.2H45.8C44.8059 29.2 44 28.3941 44 27.4Z" fill="white"/>
<path fill-rule="evenodd" clip-rule="evenodd" d="M26 31C26 28.0177 28.4177 25.6 31.4 25.6H35C35.9941 25.6 36.8 26.4059 36.8 27.4C36.8 28.3941 35.9941 29.2 35 29.2H31.4C30.4059 29.2 29.6 30.0059 29.6 31V52.6C29.6 53.5941 30.4059 54.4 31.4 54.4H42.2C43.1941 54.4 44 55.2059 44 56.2C44 57.1941 43.1941 58 42.2 58H31.4C28.4177 58 26 55.5823 26 52.6V31Z" fill="white"/>
<path fill-rule="evenodd" clip-rule="evenodd" d="M33.2 43.6C33.2 39.6235 36.4235 36.4 40.4 36.4C44.3764 36.4 47.6 39.6235 47.6 43.6C47.6 47.5764 44.3764 50.8 40.4 50.8C36.4235 50.8 33.2 47.5764 33.2 43.6ZM40.4 40C38.4118 40 36.8 41.6118 36.8 43.6C36.8 45.5882 38.4118 47.2 40.4 47.2C42.3882 47.2 44 45.5882 44 43.6C44 41.6118 42.3882 40 40.4 40Z" fill="white"/>
<path fill-rule="evenodd" clip-rule="evenodd" d="M44.5272 47.7272C45.2302 47.0243 46.3698 47.0243 47.0728 47.7272L52.4728 53.1272C53.1757 53.8301 53.1757 54.9698 52.4728 55.6728C51.7698 56.3757 50.6302 56.3757 49.9272 55.6728L44.5272 50.2728C43.8243 49.5698 43.8243 48.4302 44.5272 47.7272Z" fill="white"/>
<path fill-rule="evenodd" clip-rule="evenodd" d="M33.2 25.6C33.2 23.6118 34.8118 22 36.8 22H44C45.9882 22 47.6 23.6118 47.6 25.6V29.2C47.6 31.1882 45.9882 32.8 44 32.8H36.8C34.8118 32.8 33.2 31.1882 33.2 29.2V25.6ZM44 25.6H36.8V29.2H44V25.6Z" fill="white"/>
</svg>
