<svg width="80" height="80" viewBox="0 0 80 80" fill="none" xmlns="http://www.w3.org/2000/svg">
<circle cx="40" cy="40" r="40" fill="#0A6ED1"/>
<path fill-rule="evenodd" clip-rule="evenodd" d="M35.5263 40C30.5848 40 26.5789 44.0294 26.5789 49V50.8H35.5263C36.5146 50.8 37.3158 51.6059 37.3158 52.6C37.3158 53.5941 36.5146 54.4 35.5263 54.4H24.7895C23.8012 54.4 23 53.5941 23 52.6V49C23 42.0412 28.6082 36.4 35.5263 36.4H37.3158C38.3041 36.4 39.1053 37.2059 39.1053 38.2C39.1053 39.1941 38.3041 40 37.3158 40H35.5263Z" fill="white"/>
<path fill-rule="evenodd" clip-rule="evenodd" d="M39.1053 47.2C39.1053 43.2235 42.31 40 46.2632 40C50.2164 40 53.4211 43.2235 53.4211 47.2C53.4211 51.1764 50.2164 54.4 46.2632 54.4C42.31 54.4 39.1053 51.1764 39.1053 47.2ZM46.2632 43.6C44.2866 43.6 42.6842 45.2118 42.6842 47.2C42.6842 49.1882 44.2866 50.8 46.2632 50.8C48.2398 50.8 49.8421 49.1882 49.8421 47.2C49.8421 45.2118 48.2398 43.6 46.2632 43.6Z" fill="white"/>
<path fill-rule="evenodd" clip-rule="evenodd" d="M50.3662 51.3272C51.0651 50.6243 52.1981 50.6243 52.8969 51.3272L56.4759 54.9272C57.1747 55.6301 57.1747 56.7698 56.4759 57.4728C55.777 58.1757 54.644 58.1757 53.9452 57.4728L50.3662 53.8728C49.6674 53.1699 49.6674 52.0301 50.3662 51.3272Z" fill="white"/>
<path fill-rule="evenodd" clip-rule="evenodd" d="M28.3684 31C28.3684 26.0294 32.3743 22 37.3158 22C42.2573 22 46.2632 26.0294 46.2632 31C46.2632 35.9706 42.2573 40 37.3158 40C32.3743 40 28.3684 35.9706 28.3684 31ZM37.3158 25.6C34.3509 25.6 31.9474 28.0177 31.9474 31C31.9474 33.9823 34.3509 36.4 37.3158 36.4C40.2807 36.4 42.6842 33.9823 42.6842 31C42.6842 28.0177 40.2807 25.6 37.3158 25.6Z" fill="white"/>
</svg>
