<svg width="60" height="60" viewBox="0 0 60 60" fill="none" xmlns="http://www.w3.org/2000/svg">
<circle cx="30" cy="30" r="29" fill="#0A6ED1" stroke="#0A6ED1" stroke-width="2"/>
<path fill-rule="evenodd" clip-rule="evenodd" d="M26.6447 30C22.9386 30 19.9342 33.0221 19.9342 36.75V38.1H26.6447C27.386 38.1 27.9868 38.7044 27.9868 39.45C27.9868 40.1956 27.386 40.8 26.6447 40.8H18.5921C17.8509 40.8 17.25 40.1956 17.25 39.45V36.75C17.25 31.5309 21.4562 27.3 26.6447 27.3H27.9868C28.7281 27.3 29.3289 27.9044 29.3289 28.65C29.3289 29.3956 28.7281 30 27.9868 30H26.6447Z" fill="#FEFFFF"/>
<path fill-rule="evenodd" clip-rule="evenodd" d="M29.3289 35.4C29.3289 32.4177 31.7325 30 34.6974 30C37.6623 30 40.0658 32.4177 40.0658 35.4C40.0658 38.3823 37.6623 40.8 34.6974 40.8C31.7325 40.8 29.3289 38.3823 29.3289 35.4ZM34.6974 32.7C33.2149 32.7 32.0132 33.9088 32.0132 35.4C32.0132 36.8912 33.2149 38.1 34.6974 38.1C36.1798 38.1 37.3816 36.8912 37.3816 35.4C37.3816 33.9088 36.1798 32.7 34.6974 32.7Z" fill="#FEFFFF"/>
<path fill-rule="evenodd" clip-rule="evenodd" d="M37.7747 38.4954C38.2988 37.9682 39.1486 37.9682 39.6727 38.4954L42.3569 41.1954C42.881 41.7226 42.881 42.5774 42.3569 43.1046C41.8328 43.6318 40.983 43.6318 40.4589 43.1046L37.7747 40.4046C37.2505 39.8774 37.2505 39.0226 37.7747 38.4954Z" fill="#FEFFFF"/>
<path fill-rule="evenodd" clip-rule="evenodd" d="M21.2763 23.25C21.2763 19.5221 24.2807 16.5 27.9868 16.5C31.693 16.5 34.6974 19.5221 34.6974 23.25C34.6974 26.9779 31.693 30 27.9868 30C24.2807 30 21.2763 26.9779 21.2763 23.25ZM27.9868 19.2C25.7632 19.2 23.9605 21.0132 23.9605 23.25C23.9605 25.4868 25.7632 27.3 27.9868 27.3C30.2105 27.3 32.0132 25.4868 32.0132 23.25C32.0132 21.0132 30.2105 19.2 27.9868 19.2Z" fill="#FEFFFF"/>
</svg>
