<svg width="60" height="60" viewBox="0 0 60 60" fill="none" xmlns="http://www.w3.org/2000/svg">
<circle cx="30" cy="30" r="29" stroke="#0A6ED1" stroke-width="2"/>
<path fill-rule="evenodd" clip-rule="evenodd" d="M22.636 28.7721C20.6027 28.7721 18.9544 30.4204 18.9544 32.4537C18.9544 32.4537 18.9544 32.4537 18.9544 32.4537L18.9544 34.9081C18.9545 35.5859 18.405 36.1354 17.7272 36.1354C17.0495 36.1354 16.5 35.5859 16.5 34.9082L16.5 32.4537C16.5 29.0649 19.2472 26.3177 22.636 26.3177H27.5449C28.2227 26.3177 28.7721 26.8671 28.7721 27.5449C28.7721 28.2227 28.2227 28.7721 27.5449 28.7721H22.636Z" fill="#0A6ED1"/>
<path fill-rule="evenodd" clip-rule="evenodd" d="M18.9544 23.8633C18.9544 21.1522 21.1522 18.9544 23.8633 18.9544C24.4341 18.9544 24.9846 19.0523 25.4974 19.2333C26.1365 19.4589 26.4718 20.1599 26.2462 20.799C26.0206 21.4382 25.3196 21.7734 24.6805 21.5478C24.4265 21.4582 24.152 21.4088 23.8633 21.4088C22.5077 21.4088 21.4089 22.5077 21.4089 23.8633C21.4089 25.2188 22.5077 26.3177 23.8633 26.3177C24.5411 26.3177 25.0905 26.8671 25.0905 27.5449C25.0905 28.2227 24.5411 28.7721 23.8633 28.7721C21.1522 28.7721 18.9544 26.5743 18.9544 23.8633Z" fill="#0A6ED1"/>
<path fill-rule="evenodd" clip-rule="evenodd" d="M31.2265 27.5449C31.2265 26.8671 31.776 26.3177 32.4537 26.3177H37.3626C40.7514 26.3177 43.4986 29.0649 43.4986 32.4537V34.9081C43.4986 35.5859 42.9492 36.1354 42.2714 36.1354C41.5937 36.1354 41.0442 35.5859 41.0442 34.9081V32.4537C41.0442 30.4204 39.3959 28.7721 37.3626 28.7721H32.4537C31.776 28.7721 31.2265 28.2227 31.2265 27.5449Z" fill="#0A6ED1"/>
<path fill-rule="evenodd" clip-rule="evenodd" d="M36.1338 21.4088C35.8452 21.4088 35.5707 21.4582 35.3166 21.5478C34.6775 21.7734 33.9765 21.4382 33.7509 20.799C33.5253 20.1599 33.8606 19.4589 34.4997 19.2333C35.0125 19.0523 35.5631 18.9544 36.1338 18.9544C38.8449 18.9544 41.0427 21.1522 41.0427 23.8633C41.0427 26.5743 38.8449 28.7721 36.1338 28.7721C35.4561 28.7721 34.9066 28.2227 34.9066 27.5449C34.9066 26.8671 35.4561 26.3177 36.1338 26.3177C37.4894 26.3177 38.5883 25.2188 38.5883 23.8633C38.5883 22.5077 37.4894 21.4088 36.1338 21.4088Z" fill="#0A6ED1"/>
<path fill-rule="evenodd" clip-rule="evenodd" d="M29.9993 28.7721C25.4177 28.7721 23.8633 30.9811 23.8633 32.4537C23.8633 33.1315 23.3138 33.6809 22.6361 33.6809C21.9583 33.6809 21.4089 33.1315 21.4089 32.4537C21.4089 29.0175 24.7632 26.3177 29.9993 26.3177C35.2354 26.3177 38.5898 29.0175 38.5898 32.4537C38.5898 33.1315 38.0404 33.6809 37.3626 33.6809C36.6848 33.6809 36.1354 33.1315 36.1354 32.4537C36.1354 30.9811 34.5809 28.7721 29.9993 28.7721Z" fill="#0A6ED1"/>
<path fill-rule="evenodd" clip-rule="evenodd" d="M23.8633 22.636C23.8633 19.2472 26.6105 16.5 29.9993 16.5C33.3882 16.5 36.1354 19.2472 36.1354 22.636C36.1354 26.0249 33.3882 28.7721 29.9993 28.7721C26.6105 28.7721 23.8633 26.0249 23.8633 22.636ZM29.9993 18.9544C27.966 18.9544 26.3177 20.6027 26.3177 22.636C26.3177 24.6694 27.966 26.3177 29.9993 26.3177C32.0326 26.3177 33.681 24.6694 33.681 22.636C33.681 20.6027 32.0326 18.9544 29.9993 18.9544Z" fill="#0A6ED1"/>
<path fill-rule="evenodd" clip-rule="evenodd" d="M37.7566 37.5785C38.3128 37.9658 38.4497 38.7307 38.0624 39.2869C36.2909 41.8309 33.3408 43.5 30.0007 43.5C26.6653 43.5 23.7189 41.8356 21.9465 39.2976L23.9588 37.8923C25.2918 39.8011 27.501 41.0456 30.0007 41.0456C32.5039 41.0456 34.7159 39.7976 36.0482 37.8843C36.4355 37.3281 37.2004 37.1912 37.7566 37.5785Z" fill="#0A6ED1"/>
<path fill-rule="evenodd" clip-rule="evenodd" d="M38.5898 41.0442V37.3626H34.9082" fill="#0A6ED1"/>
<path fill-rule="evenodd" clip-rule="evenodd" d="M33.681 37.3626C33.681 36.6848 34.2304 36.1354 34.9082 36.1354H38.5898C39.2676 36.1354 39.817 36.6848 39.817 37.3626V41.0442C39.817 41.722 39.2676 42.2714 38.5898 42.2714C37.912 42.2714 37.3626 41.722 37.3626 41.0442V38.5898H34.9082C34.2304 38.5898 33.681 38.0403 33.681 37.3626Z" fill="#0A6ED1"/>
<path fill-rule="evenodd" clip-rule="evenodd" d="M25.0905 37.3626H21.4089V41.0442" fill="#0A6ED1"/>
<path fill-rule="evenodd" clip-rule="evenodd" d="M20.1817 37.3626C20.1817 36.6848 20.7311 36.1354 21.4089 36.1354H25.0905C25.7683 36.1354 26.3177 36.6848 26.3177 37.3626C26.3177 38.0403 25.7683 38.5898 25.0905 38.5898H22.6361V41.0442C22.6361 41.722 22.0866 42.2714 21.4089 42.2714C20.7311 42.2714 20.1817 41.722 20.1817 41.0442V37.3626Z" fill="#0A6ED1"/>
</svg>
