<svg width="80" height="80" viewBox="0 0 80 80" fill="none" xmlns="http://www.w3.org/2000/svg">
<circle cx="40" cy="40" r="40" fill="#0A6ED1"/>
<path fill-rule="evenodd" clip-rule="evenodd" d="M27 34.5217C27 32.7928 28.4015 31.3913 30.1304 31.3913H48.913C50.6419 31.3913 52.0435 32.7928 52.0435 34.5217V48.3573C52.0435 50.0423 51.1406 51.5982 49.6775 52.4342L40.2983 57.7938C39.8171 58.0687 39.2264 58.0687 38.7452 57.7938L29.366 52.4342C27.9029 51.5982 27 50.0423 27 48.3573V34.5217ZM48.913 34.5217H30.1304V48.3573C30.1304 48.9189 30.4314 49.4376 30.9191 49.7162L39.5217 54.632L48.1244 49.7162C48.6121 49.4376 48.913 48.9189 48.913 48.3573V34.5217Z" fill="white"/>
<path fill-rule="evenodd" clip-rule="evenodd" d="M30.1304 28.2609C30.1304 27.3964 30.8312 26.6957 31.6957 26.6957H47.3478C48.2123 26.6957 48.913 27.3964 48.913 28.2609C48.913 29.1253 48.2123 29.8261 47.3478 29.8261H31.6957C30.8312 29.8261 30.1304 29.1253 30.1304 28.2609Z" fill="white"/>
<path fill-rule="evenodd" clip-rule="evenodd" d="M33.2609 23.5652C33.2609 22.7008 33.9616 22 34.8261 22H44.2174C45.0818 22 45.7826 22.7008 45.7826 23.5652C45.7826 24.4297 45.0818 25.1304 44.2174 25.1304H34.8261C33.9616 25.1304 33.2609 24.4297 33.2609 23.5652Z" fill="white"/>
<path fill-rule="evenodd" clip-rule="evenodd" d="M45.3242 38.1106C45.9354 38.7219 45.9354 39.7129 45.3242 40.3242L39.0633 46.585C38.452 47.1963 37.461 47.1963 36.8497 46.585L33.7193 43.4546C33.1081 42.8433 33.1081 41.8523 33.7193 41.2411C34.3306 40.6298 35.3216 40.6298 35.9329 41.2411L37.9565 43.2647L43.1106 38.1106C43.7219 37.4994 44.7129 37.4994 45.3242 38.1106Z" fill="white"/>
</svg>
