<svg width="80" height="80" viewBox="0 0 80 80" fill="none" xmlns="http://www.w3.org/2000/svg">
<circle cx="40" cy="40" r="40" fill="#0A6ED1"/>
<path fill-rule="evenodd" clip-rule="evenodd" d="M30.1814 38.3628C27.4703 38.3628 25.2726 40.5606 25.2726 43.2716C25.2726 43.2716 25.2726 43.2716 25.2726 43.2716L25.2726 46.5442C25.2726 47.4479 24.54 48.1805 23.6363 48.1805C22.7326 48.1805 22 47.4479 22 46.5442L22 43.2717C22 38.7532 25.6629 35.0902 30.1814 35.0902H36.7265C37.6302 35.0902 38.3628 35.8228 38.3628 36.7265C38.3628 37.6302 37.6302 38.3628 36.7265 38.3628H30.1814Z" fill="white"/>
<path fill-rule="evenodd" clip-rule="evenodd" d="M25.2726 31.8177C25.2726 28.2029 28.2029 25.2726 31.8177 25.2726C32.5787 25.2726 33.3128 25.4031 33.9965 25.6444C34.8487 25.9452 35.2957 26.8799 34.9949 27.732C34.6942 28.5842 33.7595 29.0312 32.9073 28.7304C32.5686 28.6109 32.2026 28.5451 31.8177 28.5451C30.0103 28.5451 28.5452 30.0103 28.5452 31.8177C28.5452 33.6251 30.0103 35.0902 31.8177 35.0902C32.7214 35.0902 33.454 35.8228 33.454 36.7265C33.454 37.6302 32.7214 38.3628 31.8177 38.3628C28.2029 38.3628 25.2726 35.4324 25.2726 31.8177Z" fill="white"/>
<path fill-rule="evenodd" clip-rule="evenodd" d="M41.6354 36.7265C41.6354 35.8228 42.3679 35.0902 43.2716 35.0902H49.8168C54.3353 35.0902 57.9982 38.7532 57.9982 43.2716V46.5442C57.9982 47.4479 57.2656 48.1805 56.3619 48.1805C55.4582 48.1805 54.7256 47.4479 54.7256 46.5442V43.2716C54.7256 40.5606 52.5279 38.3628 49.8168 38.3628H43.2716C42.3679 38.3628 41.6354 37.6302 41.6354 36.7265Z" fill="white"/>
<path fill-rule="evenodd" clip-rule="evenodd" d="M48.1785 28.5451C47.7936 28.5451 47.4275 28.6109 47.0888 28.7304C46.2367 29.0312 45.302 28.5842 45.0012 27.732C44.7005 26.8799 45.1475 25.9452 45.9996 25.6444C46.6833 25.4031 47.4174 25.2726 48.1785 25.2726C51.7932 25.2726 54.7236 28.2029 54.7236 31.8177C54.7236 35.4324 51.7932 38.3628 48.1785 38.3628C47.2748 38.3628 46.5422 37.6302 46.5422 36.7265C46.5422 35.8228 47.2748 35.0902 48.1785 35.0902C49.9858 35.0902 51.451 33.6251 51.451 31.8177C51.451 30.0103 49.9858 28.5451 48.1785 28.5451Z" fill="white"/>
<path fill-rule="evenodd" clip-rule="evenodd" d="M39.9991 38.3628C33.8903 38.3628 31.8177 41.3081 31.8177 43.2716C31.8177 44.1753 31.0851 44.9079 30.1814 44.9079C29.2777 44.9079 28.5452 44.1753 28.5452 43.2716C28.5452 38.6901 33.0176 35.0902 39.9991 35.0902C46.9806 35.0902 51.4531 38.6901 51.4531 43.2716C51.4531 44.1753 50.7205 44.9079 49.8168 44.9079C48.9131 44.9079 48.1805 44.1753 48.1805 43.2716C48.1805 41.3081 46.1079 38.3628 39.9991 38.3628Z" fill="white"/>
<path fill-rule="evenodd" clip-rule="evenodd" d="M31.8177 30.1814C31.8177 25.6629 35.4806 22 39.9991 22C44.5176 22 48.1805 25.6629 48.1805 30.1814C48.1805 34.6999 44.5176 38.3628 39.9991 38.3628C35.4806 38.3628 31.8177 34.6999 31.8177 30.1814ZM39.9991 25.2726C37.288 25.2726 35.0903 27.4703 35.0903 30.1814C35.0903 32.8925 37.288 35.0902 39.9991 35.0902C42.7102 35.0902 44.9079 32.8925 44.9079 30.1814C44.9079 27.4703 42.7102 25.2726 39.9991 25.2726Z" fill="white"/>
<path fill-rule="evenodd" clip-rule="evenodd" d="M50.3421 50.1046C51.0837 50.6211 51.2663 51.6409 50.7499 52.3825C48.3878 55.7746 44.4544 58 40.001 58C35.5538 58 31.6251 55.7808 29.262 52.3968L31.9451 50.5231C33.7223 53.0681 36.668 54.7274 40.001 54.7274C43.3386 54.7274 46.2879 53.0634 48.0643 50.5124C48.5807 49.7708 49.6005 49.5882 50.3421 50.1046Z" fill="white"/>
<path fill-rule="evenodd" clip-rule="evenodd" d="M51.4531 54.7256V49.8168H46.5442" fill="white"/>
<path fill-rule="evenodd" clip-rule="evenodd" d="M44.9079 49.8168C44.9079 48.9131 45.6405 48.1805 46.5442 48.1805H51.4531C52.3568 48.1805 53.0893 48.9131 53.0893 49.8168V54.7256C53.0893 55.6293 52.3568 56.3619 51.4531 56.3619C50.5494 56.3619 49.8168 55.6293 49.8168 54.7256V51.453H46.5442C45.6405 51.453 44.9079 50.7205 44.9079 49.8168Z" fill="white"/>
<path fill-rule="evenodd" clip-rule="evenodd" d="M33.454 49.8168H28.5452V54.7256" fill="white"/>
<path fill-rule="evenodd" clip-rule="evenodd" d="M26.9089 49.8168C26.9089 48.9131 27.6415 48.1805 28.5452 48.1805H33.454C34.3577 48.1805 35.0903 48.9131 35.0903 49.8168C35.0903 50.7205 34.3577 51.453 33.454 51.453H30.1814V54.7256C30.1814 55.6293 29.4488 56.3619 28.5452 56.3619C27.6415 56.3619 26.9089 55.6293 26.9089 54.7256V49.8168Z" fill="white"/>
</svg>
