<svg width="113" height="80" viewBox="0 0 113 80" fill="none" xmlns="http://www.w3.org/2000/svg">
<path d="M12.5103 27L25.0206 39.5104L12.5103 52.0208" stroke="#B1B1B1" stroke-width="2"/>
<circle cx="73" cy="40" r="40" fill="#3D82F0"/>
<path fill-rule="evenodd" clip-rule="evenodd" d="M86.8341 26.1659C86.0507 25.3824 84.7804 25.3824 83.997 26.1659L77.735 32.4278C77.2558 32.907 76.547 33.0743 75.9042 32.86L61.2741 27.9833L60.9358 28.6599L71.9902 34.9767C72.4743 35.2533 72.8018 35.7399 72.8758 36.2926C72.9499 36.8453 72.7619 37.4009 72.3676 37.7952L67.0003 43.1626C66.6647 43.4981 66.2097 43.6866 65.7352 43.6866H59.6844L59.1899 44.6756L64.7462 47.4537C65.0924 47.6268 65.3732 47.9076 65.5463 48.2538L68.3244 53.8101L69.3134 53.3156V47.2648C69.3134 46.7903 69.5019 46.3353 69.8374 45.9997L73.4157 42.4215C74.1144 41.7228 75.2472 41.7228 75.9459 42.4215C76.6446 43.1202 76.6446 44.253 75.9459 44.9517L72.8917 48.0059V54.4214C72.8917 55.099 72.5088 55.7185 71.9027 56.0216L68.3244 57.8107C67.4406 58.2526 66.3659 57.8944 65.924 57.0106L62.6125 50.3875L55.9894 47.076C55.1056 46.6341 54.7474 45.5594 55.1893 44.6756L56.9784 41.0973C57.2815 40.4912 57.901 40.1083 58.5786 40.1083H64.9941L68.1811 36.9213L57.691 30.927C56.8666 30.4559 56.5538 29.4227 56.9784 28.5734L58.7675 24.9952C59.1657 24.1988 60.0889 23.8164 60.9335 24.098L75.9867 29.1157L81.4668 23.6356C83.6476 21.4548 87.1835 21.4548 89.3644 23.6356C91.5452 25.8165 91.5452 29.3524 89.3644 31.5332L88.4698 32.4278C87.7711 33.1265 86.6383 33.1265 85.9396 32.4278C85.2409 31.7291 85.2409 30.5963 85.9396 29.8976L86.8341 29.003C87.6176 28.2196 87.6176 26.9493 86.8341 26.1659Z" fill="white"/>
<path fill-rule="evenodd" clip-rule="evenodd" d="M68.7894 24.5302C69.4881 25.2289 69.4881 26.3617 68.7894 27.0604L67.0003 28.8495C66.3016 29.5482 65.1688 29.5482 64.4701 28.8495C63.7714 28.1508 63.7714 27.018 64.4701 26.3193L66.2592 24.5302C66.9579 23.8315 68.0907 23.8315 68.7894 24.5302Z" fill="white"/>
<path fill-rule="evenodd" clip-rule="evenodd" d="M67.0003 45.9997C67.699 46.6984 67.699 47.8312 67.0003 48.5299L65.2111 50.3191C64.5124 51.0178 63.3796 51.0178 62.6809 50.3191C61.9822 49.6204 61.9822 48.4876 62.6809 47.7889L64.4701 45.9997C65.1688 45.301 66.3016 45.301 67.0003 45.9997Z" fill="white"/>
<path fill-rule="evenodd" clip-rule="evenodd" d="M74.1568 26.3193C74.8555 27.018 74.8555 28.1508 74.1568 28.8495L72.3676 30.6387C71.6689 31.3374 70.5361 31.3374 69.8374 30.6387C69.1387 29.94 69.1387 28.8072 69.8374 28.1085L71.6266 26.3193C72.3253 25.6206 73.4581 25.6206 74.1568 26.3193Z" fill="white"/>
<path fill-rule="evenodd" clip-rule="evenodd" d="M82.7319 41.8975C82.2378 41.8975 81.8373 42.298 81.8373 42.792C81.8373 43.2861 82.2378 43.6866 82.7319 43.6866H84.521C86.9913 43.6866 88.9938 45.6891 88.9938 48.1594C88.9938 50.6297 86.9913 52.6322 84.521 52.6322H80.0482C79.0601 52.6322 78.2591 51.8312 78.2591 50.8431C78.2591 49.855 79.0601 49.054 80.0482 49.054H84.521C85.0151 49.054 85.4156 48.6535 85.4156 48.1594C85.4156 47.6654 85.0151 47.2648 84.521 47.2648H82.7319C80.2616 47.2648 78.2591 45.2623 78.2591 42.792C78.2591 40.3218 80.2616 38.3192 82.7319 38.3192H87.2047C88.1928 38.3192 88.9938 39.1202 88.9938 40.1083C88.9938 41.0964 88.1928 41.8975 87.2047 41.8975H82.7319Z" fill="white"/>
<path fill-rule="evenodd" clip-rule="evenodd" d="M83.6264 34.7409C84.6145 34.7409 85.4156 35.542 85.4156 36.5301V38.3192C85.4156 39.3073 84.6145 40.1083 83.6264 40.1083C82.6383 40.1083 81.8373 39.3073 81.8373 38.3192V36.5301C81.8373 35.542 82.6383 34.7409 83.6264 34.7409Z" fill="white"/>
<path fill-rule="evenodd" clip-rule="evenodd" d="M83.6264 50.8431C84.6145 50.8431 85.4156 51.6441 85.4156 52.6322V54.4214C85.4156 55.4095 84.6145 56.2105 83.6264 56.2105C82.6383 56.2105 81.8373 55.4095 81.8373 54.4214V52.6322C81.8373 51.6441 82.6383 50.8431 83.6264 50.8431Z" fill="white"/>
</svg>
