<svg width="80" height="80" viewBox="0 0 80 80" fill="none" xmlns="http://www.w3.org/2000/svg">
<circle cx="40" cy="40" r="40" fill="#0A6ED1"/>
<path fill-rule="evenodd" clip-rule="evenodd" d="M41.6423 43.8895C42.1102 44.8254 41.7309 45.9636 40.7949 46.4315L37.0054 48.3263C36.0695 48.7943 34.9314 48.4149 34.4634 47.4789C33.9954 46.543 34.3748 45.4049 35.3107 44.9369L39.1002 43.0421C40.0362 42.5742 41.1743 42.9535 41.6423 43.8895Z" fill="white"/>
<path fill-rule="evenodd" clip-rule="evenodd" d="M39.9476 39.0526C40.994 39.0526 41.8423 39.9009 41.8423 40.9474V43.5658L44.5844 44.9369C45.5203 45.4049 45.8997 46.543 45.4317 47.4789C44.9638 48.4149 43.8256 48.7943 42.8897 48.3263L39.1002 46.4315C38.4583 46.1106 38.0528 45.4545 38.0528 44.7368V40.9474C38.0528 39.9009 38.9011 39.0526 39.9476 39.0526Z" fill="white"/>
<path fill-rule="evenodd" clip-rule="evenodd" d="M36.4053 32.0738C37.1946 31.6791 38.0649 31.4737 38.9474 31.4737H40.9477C41.8302 31.4737 42.7005 31.6791 43.4898 32.0738L46.4791 33.5685C47.2651 33.9614 47.6777 34.8433 47.4758 35.6985C47.2739 36.5537 46.5105 37.1579 45.6318 37.1579H34.2633C33.3846 37.1579 32.6212 36.5537 32.4193 35.6985C32.2174 34.8433 32.63 33.9614 33.416 33.5685L36.4053 32.0738Z" fill="white"/>
<path fill-rule="evenodd" clip-rule="evenodd" d="M39.9476 29.5789C42.0404 29.5789 43.737 27.8823 43.737 25.7895C43.737 23.6966 42.0404 22 39.9476 22C37.8547 22 36.1581 23.6966 36.1581 25.7895C36.1581 27.8823 37.8547 29.5789 39.9476 29.5789Z" fill="white"/>
<path fill-rule="evenodd" clip-rule="evenodd" d="M47.7738 52.9159C48.563 52.5212 49.4334 52.3158 50.3158 52.3158H52.3161C53.1986 52.3158 54.0689 52.5212 54.8582 52.9159L57.8475 54.4106C58.6335 54.8035 59.0461 55.6854 58.8442 56.5406C58.6423 57.3958 57.8789 58 57.0002 58H45.6318C44.753 58 43.9896 57.3958 43.7877 56.5406C43.5858 55.6854 43.9984 54.8035 44.7844 54.4106L47.7738 52.9159Z" fill="white"/>
<path fill-rule="evenodd" clip-rule="evenodd" d="M51.316 50.4211C53.4088 50.4211 55.1054 48.7244 55.1054 46.6316C55.1054 44.5387 53.4088 42.8421 51.316 42.8421C49.2231 42.8421 47.5265 44.5387 47.5265 46.6316C47.5265 48.7244 49.2231 50.4211 51.316 50.4211Z" fill="white"/>
<path fill-rule="evenodd" clip-rule="evenodd" d="M25.0369 52.9159C25.8262 52.5212 26.6965 52.3158 27.579 52.3158H29.5793C30.4617 52.3158 31.3321 52.5212 32.1214 52.9159L35.1107 54.4106C35.8967 54.8035 36.3093 55.6854 36.1074 56.5406C35.9055 57.3958 35.1421 58 34.2633 58H22.8949C22.0162 58 21.2528 57.3958 21.0509 56.5406C20.849 55.6854 21.2616 54.8035 22.0476 54.4106L25.0369 52.9159Z" fill="white"/>
<path fill-rule="evenodd" clip-rule="evenodd" d="M28.5791 50.4211C30.672 50.4211 32.3686 48.7244 32.3686 46.6316C32.3686 44.5387 30.672 42.8421 28.5791 42.8421C26.4863 42.8421 24.7897 44.5387 24.7897 46.6316C24.7897 48.7244 26.4863 50.4211 28.5791 50.4211Z" fill="white"/>
</svg>
