<svg width="110" height="80" viewBox="0 0 110 80" fill="none" xmlns="http://www.w3.org/2000/svg">
<path d="M12.5103 27L25.0206 39.5104L12.5103 52.0208" stroke="#B1B1B1" stroke-width="2"/>
<circle cx="70" cy="40" r="40" fill="#3D82F0"/>
<path fill-rule="evenodd" clip-rule="evenodd" d="M57.4 27.6C56.4059 27.6 55.6 28.4059 55.6 29.4V50.9999C55.6 51.994 56.4059 52.7999 57.4 52.7999H59.2C60.1941 52.7999 61 53.6057 61 54.5998C61 55.594 60.1941 56.3998 59.2 56.3998H57.4C54.4177 56.3998 52 53.9822 52 50.9999V29.4C52 26.4177 54.4177 24 57.4 24H82.5999C85.5822 24 87.9998 26.4177 87.9998 29.4V34.7999C87.9998 35.7941 87.1939 36.5999 86.1998 36.5999C85.2057 36.5999 84.3998 35.7941 84.3998 34.7999V29.4C84.3998 28.4059 83.594 27.6 82.5999 27.6H57.4Z" fill="white"/>
<path fill-rule="evenodd" clip-rule="evenodd" d="M77.248 48.7863C77.4398 47.9739 78.1651 47.3999 78.9999 47.3999H81.75C82.5883 47.3999 83.4151 47.5951 84.165 47.97L87.0048 49.3899C87.7515 49.7632 88.1435 50.601 87.9517 51.4134C87.7599 52.2259 87.0346 52.7999 86.1998 52.7999H82.5999C82.3204 52.7999 82.0448 52.7348 81.7949 52.6098L78.1949 50.8098C77.4482 50.4365 77.0562 49.5988 77.248 48.7863Z" fill="white"/>
<path fill-rule="evenodd" clip-rule="evenodd" d="M80.7999 45.5999C82.7881 45.5999 84.3998 43.9881 84.3998 41.9999C84.3998 40.0117 82.7881 38.3999 80.7999 38.3999C78.8116 38.3999 77.1999 40.0117 77.1999 41.9999C77.1999 43.9881 78.8116 45.5999 80.7999 45.5999Z" fill="white"/>
<path fill-rule="evenodd" clip-rule="evenodd" d="M68.4348 51.57C69.1846 51.195 70.0114 50.9999 70.8498 50.9999H72.7501C73.5884 50.9999 74.4152 51.195 75.165 51.57L78.0049 52.9899C78.7515 53.3632 79.1435 54.2009 78.9517 55.0134C78.7599 55.8259 78.0347 56.3998 77.1999 56.3998H66.3999C65.5651 56.3998 64.8399 55.8259 64.6481 55.0134C64.4563 54.2009 64.8483 53.3632 65.595 52.9899L68.4348 51.57Z" fill="white"/>
<path fill-rule="evenodd" clip-rule="evenodd" d="M71.7999 49.1999C73.7881 49.1999 75.3999 47.5881 75.3999 45.5999C75.3999 43.6117 73.7881 41.9999 71.7999 41.9999C69.8117 41.9999 68.1999 43.6117 68.1999 45.5999C68.1999 47.5881 69.8117 49.1999 71.7999 49.1999Z" fill="white"/>
<path fill-rule="evenodd" clip-rule="evenodd" d="M59.2 33C59.2 32.0058 60.0058 31.2 61 31.2H73.5999C74.594 31.2 75.3999 32.0058 75.3999 33C75.3999 33.9941 74.594 34.7999 73.5999 34.7999H61C60.0058 34.7999 59.2 33.9941 59.2 33Z" fill="white"/>
<path fill-rule="evenodd" clip-rule="evenodd" d="M59.2 38.3999C59.2 37.4058 60.0058 36.5999 61 36.5999H64.5999C65.594 36.5999 66.3999 37.4058 66.3999 38.3999C66.3999 39.394 65.594 40.1999 64.5999 40.1999H61C60.0058 40.1999 59.2 39.394 59.2 38.3999Z" fill="white"/>
</svg>
