<svg width="60" height="60" viewBox="0 0 60 60" fill="none" xmlns="http://www.w3.org/2000/svg">
<circle cx="30" cy="30" r="29" fill="#0A6ED1" stroke="#0A6ED1" stroke-width="2"/>
<path fill-rule="evenodd" clip-rule="evenodd" d="M31.2317 32.9171C31.5827 33.6191 31.2981 34.4727 30.5962 34.8237L27.7541 36.2447C27.0521 36.5957 26.1985 36.3112 25.8475 35.6092C25.4965 34.9072 25.7811 34.0536 26.483 33.7027L29.3252 32.2816C30.0271 31.9306 30.8807 32.2151 31.2317 32.9171Z" fill="#FEFFFF"/>
<path fill-rule="evenodd" clip-rule="evenodd" d="M29.9607 29.2895C30.7455 29.2895 31.3817 29.9257 31.3817 30.7105V32.6744L33.4383 33.7027C34.1403 34.0536 34.4248 34.9072 34.0738 35.6092C33.7228 36.3112 32.8692 36.5957 32.1673 36.2447L29.3252 34.8237C28.8437 34.5829 28.5396 34.0909 28.5396 33.5526V30.7105C28.5396 29.9257 29.1758 29.2895 29.9607 29.2895Z" fill="#FEFFFF"/>
<path fill-rule="evenodd" clip-rule="evenodd" d="M27.304 24.0553C27.896 23.7594 28.5487 23.6053 29.2105 23.6053H30.7108C31.3726 23.6053 32.0254 23.7594 32.6173 24.0553L34.8593 25.1763C35.4488 25.4711 35.7583 26.1324 35.6069 26.7739C35.4554 27.4153 34.8829 27.8684 34.2238 27.8684H25.6975C25.0385 27.8684 24.4659 27.4153 24.3145 26.7739C24.163 26.1324 24.4725 25.4711 25.062 25.1763L27.304 24.0553Z" fill="#FEFFFF"/>
<path fill-rule="evenodd" clip-rule="evenodd" d="M29.9607 22.1842C31.5303 22.1842 32.8028 20.9118 32.8028 19.3421C32.8028 17.7725 31.5303 16.5 29.9607 16.5C28.391 16.5 27.1186 17.7725 27.1186 19.3421C27.1186 20.9118 28.391 22.1842 29.9607 22.1842Z" fill="#FEFFFF"/>
<path fill-rule="evenodd" clip-rule="evenodd" d="M35.8303 39.6869C36.4223 39.3909 37.075 39.2368 37.7369 39.2368H39.2371C39.8989 39.2368 40.5517 39.3909 41.1436 39.6869L43.3857 40.8079C43.9751 41.1027 44.2846 41.764 44.1332 42.4054C43.9818 43.0469 43.4092 43.5 42.7501 43.5H34.2238C33.5648 43.5 32.9922 43.0469 32.8408 42.4054C32.6894 41.764 32.9988 41.1027 33.5883 40.8079L35.8303 39.6869Z" fill="#FEFFFF"/>
<path fill-rule="evenodd" clip-rule="evenodd" d="M38.487 37.8158C40.0566 37.8158 41.3291 36.5433 41.3291 34.9737C41.3291 33.404 40.0566 32.1316 38.487 32.1316C36.9173 32.1316 35.6449 33.404 35.6449 34.9737C35.6449 36.5433 36.9173 37.8158 38.487 37.8158Z" fill="#FEFFFF"/>
<path fill-rule="evenodd" clip-rule="evenodd" d="M18.7777 39.6869C19.3696 39.3909 20.0224 39.2368 20.6842 39.2368H22.1845C22.8463 39.2368 23.4991 39.3909 24.091 39.6869L26.333 40.8079C26.9225 41.1027 27.232 41.764 27.0805 42.4054C26.9291 43.0469 26.3566 43.5 25.6975 43.5H17.1712C16.5121 43.5 15.9396 43.0469 15.7882 42.4054C15.6367 41.764 15.9462 41.1027 16.5357 40.8079L18.7777 39.6869Z" fill="#FEFFFF"/>
<path fill-rule="evenodd" clip-rule="evenodd" d="M21.4343 37.8158C23.004 37.8158 24.2765 36.5433 24.2765 34.9737C24.2765 33.404 23.004 32.1316 21.4343 32.1316C19.8647 32.1316 18.5922 33.404 18.5922 34.9737C18.5922 36.5433 19.8647 37.8158 21.4343 37.8158Z" fill="#FEFFFF"/>
</svg>
