<svg width="80" height="80" viewBox="0 0 80 80" fill="none" xmlns="http://www.w3.org/2000/svg">
<circle cx="40" cy="40" r="40" fill="#0A6ED1"/>
<path fill-rule="evenodd" clip-rule="evenodd" d="M27.4 27.6C26.4059 27.6 25.6 28.4059 25.6 29.4V50.9999C25.6 51.994 26.4059 52.7999 27.4 52.7999H29.2C30.1941 52.7999 31 53.6057 31 54.5998C31 55.594 30.1941 56.3998 29.2 56.3998H27.4C24.4177 56.3998 22 53.9822 22 50.9999V29.4C22 26.4177 24.4177 24 27.4 24H52.5999C55.5822 24 57.9998 26.4177 57.9998 29.4V34.7999C57.9998 35.7941 57.1939 36.5999 56.1998 36.5999C55.2057 36.5999 54.3998 35.7941 54.3998 34.7999V29.4C54.3998 28.4059 53.594 27.6 52.5999 27.6H27.4Z" fill="white"/>
<path fill-rule="evenodd" clip-rule="evenodd" d="M47.248 48.7863C47.4398 47.9739 48.1651 47.3999 48.9999 47.3999H51.75C52.5883 47.3999 53.4151 47.5951 54.165 47.97L57.0048 49.3899C57.7515 49.7632 58.1435 50.601 57.9517 51.4134C57.7599 52.2259 57.0346 52.7999 56.1998 52.7999H52.5999C52.3204 52.7999 52.0448 52.7348 51.7949 52.6098L48.1949 50.8098C47.4482 50.4365 47.0562 49.5988 47.248 48.7863Z" fill="white"/>
<path fill-rule="evenodd" clip-rule="evenodd" d="M50.7999 45.5999C52.7881 45.5999 54.3998 43.9881 54.3998 41.9999C54.3998 40.0117 52.7881 38.3999 50.7999 38.3999C48.8116 38.3999 47.1999 40.0117 47.1999 41.9999C47.1999 43.9881 48.8116 45.5999 50.7999 45.5999Z" fill="white"/>
<path fill-rule="evenodd" clip-rule="evenodd" d="M38.4348 51.57C39.1846 51.195 40.0114 50.9999 40.8498 50.9999H42.7501C43.5884 50.9999 44.4152 51.195 45.165 51.57L48.0049 52.9899C48.7515 53.3632 49.1435 54.2009 48.9517 55.0134C48.7599 55.8259 48.0347 56.3998 47.1999 56.3998H36.3999C35.5651 56.3998 34.8399 55.8259 34.6481 55.0134C34.4563 54.2009 34.8483 53.3632 35.595 52.9899L38.4348 51.57Z" fill="white"/>
<path fill-rule="evenodd" clip-rule="evenodd" d="M41.7999 49.1999C43.7881 49.1999 45.3999 47.5881 45.3999 45.5999C45.3999 43.6117 43.7881 41.9999 41.7999 41.9999C39.8117 41.9999 38.1999 43.6117 38.1999 45.5999C38.1999 47.5881 39.8117 49.1999 41.7999 49.1999Z" fill="white"/>
<path fill-rule="evenodd" clip-rule="evenodd" d="M29.2 33C29.2 32.0058 30.0058 31.2 31 31.2H43.5999C44.594 31.2 45.3999 32.0058 45.3999 33C45.3999 33.9941 44.594 34.7999 43.5999 34.7999H31C30.0058 34.7999 29.2 33.9941 29.2 33Z" fill="white"/>
<path fill-rule="evenodd" clip-rule="evenodd" d="M29.2 38.3999C29.2 37.4058 30.0058 36.5999 31 36.5999H34.5999C35.594 36.5999 36.3999 37.4058 36.3999 38.3999C36.3999 39.394 35.594 40.1999 34.5999 40.1999H31C30.0058 40.1999 29.2 39.394 29.2 38.3999Z" fill="white"/>
</svg>
