<svg width="670" height="268" viewBox="0 0 670 268" fill="none" xmlns="http://www.w3.org/2000/svg">
<mask id="mask0" mask-type="alpha" maskUnits="userSpaceOnUse" x="0" y="0" width="670" height="268">
<rect width="670" height="268" fill="#C4C4C4"/>
</mask>
<g mask="url(#mask0)">
<g opacity="0.2" filter="url(#filter0_i)">
<path fill-rule="evenodd" clip-rule="evenodd" d="M552.012 151.342C551.982 139.795 582.127 141.268 593.76 141.947C605.393 142.625 605.853 126.787 595.764 124.813C585.676 122.84 567.586 124.731 558.108 122.915C548.63 121.1 560.081 109.029 547.225 108.107C534.37 107.186 507.945 109.475 500.042 109.486C487.628 109.503 481.827 124.666 503.571 124.529C509.567 124.491 511.266 137.704 490.913 134.82C478.14 133.01 453.247 133.89 448.287 139.919C445.442 143.378 446.808 152.334 452.102 157.109C456.035 160.656 468.128 160.923 472.887 161.599C484.051 163.185 482.261 174.004 478.563 176.357C469.811 181.924 444.883 172.97 444.763 187.361C444.71 193.72 467.093 193.908 476.252 193.487C498.716 192.455 513.555 193.904 514.304 186.2C515.056 178.465 500.247 184.222 500.632 174.734C500.834 169.776 499.404 159.31 509.051 159.501C495.843 159.239 552.052 166.938 552.012 151.342Z" fill="url(#paint0_linear)"/>
</g>
<g opacity="0.5" filter="url(#filter1_i)">
<path fill-rule="evenodd" clip-rule="evenodd" d="M297.447 206.399C297.005 193.757 263.946 196.607 251.194 197.826C238.442 199.046 237.284 181.727 248.287 179.152C259.289 176.578 279.242 177.907 289.58 175.53C299.917 173.154 286.84 160.409 300.926 158.873C315.012 157.337 344.138 158.759 352.821 158.447C366.46 157.957 373.457 174.317 349.563 175.06C342.974 175.264 341.652 189.799 363.894 185.806C377.851 183.301 405.237 183.243 410.934 189.639C414.203 193.31 413.07 203.169 407.45 208.614C403.276 212.659 390.001 213.447 384.8 214.382C372.6 216.576 375.012 228.347 379.172 230.77C389.016 236.506 416.035 225.682 416.759 241.431C417.079 248.39 392.496 249.513 382.415 249.428C357.693 249.22 341.45 251.415 340.31 243.012C339.165 234.576 355.672 240.27 354.858 229.899C354.433 224.479 355.573 212.964 344.983 213.568C359.482 212.741 298.045 223.474 297.447 206.399Z" fill="url(#paint1_linear)"/>
</g>
<g opacity="0.4">
<path fill-rule="evenodd" clip-rule="evenodd" d="M260.099 24.3156C260.099 18.0662 265.165 13 271.415 13H512.815C519.065 13 524.131 18.0662 524.131 24.3156V153.081C524.131 157.956 521.008 162.284 516.381 163.82L321.25 161.939H297.99L263.334 164.547C261.261 162.432 260.099 159.588 260.099 156.626V24.3156Z" fill="url(#paint2_linear)"/>
<path fill-rule="evenodd" clip-rule="evenodd" d="M260.099 24.3156C260.099 18.0662 265.165 13 271.415 13H512.815C519.065 13 524.131 18.0662 524.131 24.3156V153.081C524.131 157.956 521.008 162.284 516.381 163.82L321.25 161.939H297.99L263.334 164.547C261.261 162.432 260.099 159.588 260.099 156.626V24.3156Z" fill="url(#paint3_linear)"/>
</g>
<path d="M269.223 26.378C269.223 23.67 271.418 21.4746 274.126 21.4746H509.757C512.465 21.4746 514.66 23.67 514.66 26.3781V144.962C514.66 147.67 512.465 149.865 509.757 149.865H274.126C271.418 149.865 269.223 147.67 269.223 144.962V26.378Z" fill="white"/>
<g opacity="0.205804">
<path fill-rule="evenodd" clip-rule="evenodd" d="M620.332 230.453C617.888 232.692 608.371 228.465 604.51 221.714C600.648 214.962 607.548 212.415 597.915 201.677C588.281 190.94 582.149 186.87 587.566 168.8C592.983 150.729 584.892 140.88 595.271 136.009C605.65 131.138 611.946 146.593 610.985 160.301C610.024 174.009 612.527 176.803 622.735 175.206C632.942 173.609 624.666 193.853 624.743 198.239C624.819 202.625 631.166 210.663 629.986 216.815C628.805 222.967 622.776 228.214 620.332 230.453Z" fill="url(#paint4_linear)"/>
<path fill-rule="evenodd" clip-rule="evenodd" d="M619.751 190.244C620.23 190.578 620.347 191.237 620.013 191.716C617.88 194.772 616.62 198.845 615.908 202.639C615.198 206.418 615.051 209.814 615.079 211.431C615.089 212.015 614.624 212.497 614.04 212.507C613.457 212.517 612.975 212.052 612.965 211.468C612.934 209.719 613.091 206.18 613.83 202.249C614.565 198.332 615.897 193.919 618.279 190.506C618.613 190.027 619.272 189.91 619.751 190.244Z" fill="url(#paint5_linear)"/>
<path fill-rule="evenodd" clip-rule="evenodd" d="M591.52 179.216C591.054 179.567 590.959 180.23 591.31 180.697C593.825 184.045 597.572 186.268 600.517 188.01L600.577 188.046C602.063 188.925 603.305 189.66 604.194 190.371C605.133 191.122 605.383 191.621 605.389 191.952C605.399 192.536 605.88 193.001 606.464 192.991C607.048 192.98 607.513 192.499 607.503 191.915C607.479 190.562 606.52 189.524 605.515 188.72C604.508 187.914 603.153 187.113 601.747 186.281C601.696 186.251 601.645 186.221 601.594 186.19C598.593 184.415 595.224 182.386 593.001 179.427C592.65 178.96 591.987 178.866 591.52 179.216Z" fill="url(#paint6_linear)"/>
<path fill-rule="evenodd" clip-rule="evenodd" d="M600.531 157.859C601.114 157.848 601.596 158.313 601.606 158.897C601.778 168.72 604.919 180.747 609.034 193.308C611.087 199.576 613.373 205.951 615.637 212.225C615.809 212.701 615.981 213.177 616.153 213.653C618.238 219.43 620.288 225.109 622.092 230.504C623.013 233.258 623.945 235.866 624.758 238.142C625.04 238.931 625.308 239.68 625.556 240.382C626.036 241.738 626.444 242.924 626.735 243.865C626.881 244.336 627.001 244.757 627.086 245.117C627.168 245.458 627.234 245.807 627.239 246.106C627.249 246.689 626.784 247.171 626.2 247.181C625.616 247.191 625.135 246.726 625.125 246.143C625.124 246.083 625.103 245.918 625.029 245.606C624.959 245.311 624.854 244.939 624.715 244.49C624.438 243.593 624.042 242.442 623.562 241.087C623.318 240.396 623.053 239.654 622.773 238.87C621.958 236.59 621.015 233.951 620.087 231.174C618.291 225.804 616.25 220.148 614.162 214.365C613.991 213.892 613.82 213.418 613.648 212.942C611.385 206.67 609.089 200.268 607.024 193.966C602.903 181.387 599.669 169.1 599.492 158.934C599.482 158.35 599.947 157.869 600.531 157.859Z" fill="url(#paint7_linear)"/>
</g>
<path fill-rule="evenodd" clip-rule="evenodd" d="M643.438 239.729C620.254 230.93 561.198 210 509.265 210C457.332 210 392.956 243.879 351.411 247.723C309.866 251.568 203 254.231 203 254.231V305.867H643.438C643.438 305.867 643.438 273.455 643.438 239.729Z" fill="url(#paint8_linear)"/>
<path fill-rule="evenodd" clip-rule="evenodd" d="M64.9996 221.77C95.74 212.959 174.046 192 242.906 192C311.766 192 397.127 225.926 452.213 229.775C507.299 233.625 649 236.292 649 236.292V288H64.9996C64.9996 288 64.9996 255.543 64.9996 221.77Z" fill="url(#paint9_linear)"/>
<path fill-rule="evenodd" clip-rule="evenodd" d="M85.0262 152.124C85.5457 152.385 85.7553 153.017 85.4942 153.537C77.5444 169.359 71.5747 191.144 67.8613 211.186C64.1431 231.254 62.7203 249.393 63.7686 257.931C63.8394 258.508 63.429 259.033 62.852 259.104C62.2749 259.175 61.7497 258.765 61.6788 258.188C60.5889 249.311 62.0668 230.903 65.7911 210.803C69.52 190.676 75.5344 168.67 83.6129 152.592C83.8739 152.072 84.5067 151.863 85.0262 152.124Z" fill="url(#paint10_linear)"/>
<path fill-rule="evenodd" clip-rule="evenodd" d="M76.462 162.382C76.462 162.382 76.2236 153.611 70.9169 146.568C65.6102 139.526 59.4889 135.188 57.2447 136.879C55.0005 138.57 57.4831 145.65 62.7898 152.693C68.0965 159.735 76.462 162.382 76.462 162.382Z" fill="url(#paint11_linear)"/>
<path fill-rule="evenodd" clip-rule="evenodd" d="M81.8626 164.761C81.8626 164.761 89.7189 168.668 98.4282 167.289C107.137 165.909 113.841 162.541 113.402 159.766C112.962 156.99 105.546 155.858 96.8363 157.238C88.1269 158.617 81.8626 164.761 81.8626 164.761Z" fill="url(#paint12_linear)"/>
<path fill-rule="evenodd" clip-rule="evenodd" d="M75.1722 188.074C75.1722 188.074 82.8132 192.387 91.5827 191.465C100.352 190.543 107.223 187.531 106.93 184.736C106.636 181.941 99.2886 180.423 90.519 181.345C81.7495 182.266 75.1722 188.074 75.1722 188.074Z" fill="url(#paint13_linear)"/>
<path fill-rule="evenodd" clip-rule="evenodd" d="M70.2459 211.308C70.2459 211.308 77.8869 215.621 86.6565 214.7C95.426 213.778 102.297 210.765 102.003 207.97C101.71 205.176 94.3623 203.657 85.5927 204.579C76.8232 205.501 70.2459 211.308 70.2459 211.308Z" fill="url(#paint14_linear)"/>
<path fill-rule="evenodd" clip-rule="evenodd" d="M85.8106 149.538C85.8106 149.538 93.5173 145.344 97.3828 137.419C101.248 129.493 102.334 122.07 99.8088 120.838C97.2831 119.606 92.102 125.032 88.2365 132.958C84.371 140.883 85.8106 149.538 85.8106 149.538Z" fill="url(#paint15_linear)"/>
<path fill-rule="evenodd" clip-rule="evenodd" d="M69.175 186.172C69.175 186.172 67.2674 177.607 60.7144 171.707C54.1615 165.807 47.325 162.716 45.4447 164.805C43.5643 166.893 47.3523 173.369 53.9052 179.269C60.4582 185.17 69.175 186.172 69.175 186.172Z" fill="url(#paint16_linear)"/>
<path fill-rule="evenodd" clip-rule="evenodd" d="M63.8166 210.407C63.8166 210.407 61.0242 202.089 53.8904 196.906C46.7566 191.723 39.6345 189.364 37.9828 191.638C36.3311 193.911 40.7752 199.956 47.909 205.139C55.0428 210.322 63.8166 210.407 63.8166 210.407Z" fill="url(#paint17_linear)"/>
<g opacity="0.2">
<path fill-rule="evenodd" clip-rule="evenodd" d="M25.9519 180.635C26.5316 180.592 27.0371 181.026 27.0809 181.606C28.1581 195.854 33.0849 213.417 38.8545 228.846C44.6331 244.298 51.1918 257.437 55.4534 262.892C55.8113 263.35 55.7301 264.012 55.2719 264.37C54.8138 264.728 54.1522 264.646 53.7943 264.188C49.3224 258.464 42.6728 245.067 36.8824 229.583C31.0831 214.075 26.0803 196.299 24.9815 181.765C24.9377 181.185 25.3721 180.679 25.9519 180.635Z" fill="#A1B8E3"/>
<path fill-rule="evenodd" clip-rule="evenodd" d="M24.3033 191.51C24.3033 191.51 20.4857 185.53 13.8755 182.86C7.26532 180.189 1.21674 179.732 0.36564 181.838C-0.485461 183.945 4.18321 187.817 10.7934 190.488C17.4036 193.159 24.3033 191.51 24.3033 191.51Z" fill="#A1B8E3"/>
<path fill-rule="evenodd" clip-rule="evenodd" d="M29.0371 190.911C29.0371 190.911 36.1088 190.347 41.5702 185.764C47.0315 181.182 50.275 176.056 48.8146 174.315C47.3542 172.575 41.743 174.879 36.2816 179.462C30.8202 184.044 29.0371 190.911 29.0371 190.911Z" fill="#A1B8E3"/>
<path fill-rule="evenodd" clip-rule="evenodd" d="M34.1083 209.854C34.1083 209.854 41.1998 209.661 46.8935 205.371C52.5873 201.08 56.0945 196.131 54.7272 194.317C53.3599 192.502 47.6358 194.509 41.942 198.8C36.2483 203.091 34.1083 209.854 34.1083 209.854Z" fill="#A1B8E3"/>
<path fill-rule="evenodd" clip-rule="evenodd" d="M40.3687 228.006C40.3687 228.006 47.4602 227.814 53.1539 223.523C58.8476 219.233 62.3549 214.284 60.9876 212.469C59.6203 210.655 53.8962 212.662 48.2024 216.952C42.5087 221.243 40.3687 228.006 40.3687 228.006Z" fill="#A1B8E3"/>
<path fill-rule="evenodd" clip-rule="evenodd" d="M25.435 178.718C25.435 178.718 29.0294 172.602 28.408 165.5C27.7867 158.398 25.4482 152.801 23.1848 152.999C20.9215 153.197 19.5904 159.115 20.2117 166.217C20.8331 173.319 25.435 178.718 25.435 178.718Z" fill="#A1B8E3"/>
<path fill-rule="evenodd" clip-rule="evenodd" d="M29.159 211.033C29.159 211.033 24.2706 205.892 17.2723 204.531C10.2739 203.171 4.24923 203.876 3.81571 206.106C3.3822 208.337 8.70405 211.247 15.7024 212.608C22.7007 213.968 29.159 211.033 29.159 211.033Z" fill="#A1B8E3"/>
<path fill-rule="evenodd" clip-rule="evenodd" d="M35.5375 230.058C35.5375 230.058 30.1386 225.456 23.0364 224.835C15.9342 224.214 10.0162 225.545 9.81814 227.808C9.62012 230.071 15.2171 232.41 22.3193 233.031C29.4215 233.653 35.5375 230.058 35.5375 230.058Z" fill="#A1B8E3"/>
</g>
<path opacity="0.2" fill-rule="evenodd" clip-rule="evenodd" d="M610.106 270.407C625.076 270.407 637.212 269.721 637.212 268.875C637.212 268.029 625.076 267.344 610.106 267.344C595.136 267.344 583 268.029 583 268.875C583 269.721 595.136 270.407 610.106 270.407Z" fill="#8699BF"/>
<g opacity="0.821875">
<path fill-rule="evenodd" clip-rule="evenodd" d="M633.68 240.617C629.23 242.552 618.071 232.165 615.944 220.979C613.816 209.793 624.582 209.556 616.365 190.101C608.147 170.646 601.599 162.089 617.71 139.657C633.822 117.225 627.316 99.7351 644.005 97.9393C660.693 96.1436 662.042 120.538 654.178 139.055C646.314 157.572 648.448 162.633 663.339 165.287C678.229 167.942 657.124 192.02 655.14 198.128C653.155 204.236 658.109 218.388 653.544 226.341C648.978 234.294 638.13 238.683 633.68 240.617Z" fill="url(#paint18_linear)"/>
<path fill-rule="evenodd" clip-rule="evenodd" d="M651.645 184.967C651.989 185.439 651.885 186.1 651.413 186.444C646.922 189.717 643.196 194.824 640.387 199.761C637.586 204.685 635.75 209.346 635.009 211.628C634.828 212.183 634.232 212.487 633.677 212.307C633.121 212.126 632.817 211.53 632.998 210.975C633.78 208.568 635.671 203.774 638.549 198.716C641.42 193.67 645.325 188.265 650.168 184.735C650.639 184.392 651.301 184.495 651.645 184.967Z" fill="url(#paint19_linear)"/>
<path fill-rule="evenodd" clip-rule="evenodd" d="M618.371 156.426C617.815 156.605 617.51 157.201 617.69 157.757C619.541 163.483 623.599 168.275 626.855 172.102L626.941 172.203C628.562 174.108 629.951 175.74 630.86 177.177C631.813 178.682 632.036 179.664 631.813 180.35C631.632 180.905 631.936 181.501 632.492 181.682C633.047 181.862 633.643 181.558 633.824 181.003C634.362 179.345 633.645 177.623 632.647 176.047C631.656 174.481 630.183 172.75 628.622 170.915C628.57 170.854 628.518 170.793 628.466 170.732C625.168 166.856 621.403 162.37 619.702 157.107C619.522 156.551 618.926 156.246 618.371 156.426Z" fill="url(#paint20_linear)"/>
<path fill-rule="evenodd" clip-rule="evenodd" d="M640.72 131.155C641.275 131.335 641.579 131.932 641.399 132.487C636.929 146.242 635.546 164.451 635.255 183.804C635.11 193.468 635.236 203.388 635.38 213.152C635.39 213.893 635.401 214.633 635.412 215.372C635.546 224.365 635.677 233.198 635.603 241.519C635.565 245.776 635.612 249.837 635.652 253.377C635.667 254.603 635.68 255.765 635.689 256.852C635.706 258.958 635.707 260.786 635.661 262.217C635.639 262.932 635.604 263.561 635.553 264.083C635.503 264.588 635.432 265.059 635.314 265.422C635.134 265.977 634.537 266.281 633.982 266.101C633.427 265.92 633.123 265.324 633.303 264.768C633.347 264.633 633.402 264.351 633.449 263.876C633.493 263.42 633.526 262.842 633.548 262.15C633.592 260.765 633.592 258.975 633.574 256.869C633.566 255.795 633.552 254.64 633.538 253.42C633.497 249.875 633.45 245.781 633.488 241.5C633.562 233.205 633.431 224.397 633.298 215.399C633.287 214.661 633.276 213.923 633.265 213.183C633.122 203.421 632.995 193.471 633.141 183.772C633.432 164.4 634.813 145.914 639.388 131.834C639.568 131.278 640.165 130.974 640.72 131.155Z" fill="url(#paint21_linear)"/>
</g>
<path opacity="0.5" fill-rule="evenodd" clip-rule="evenodd" d="M229.249 256L350.223 267.922C349.231 270.633 346.605 272.396 343.72 272.286L229.249 267.922" fill="url(#paint22_linear)"/>
<g opacity="0.3" filter="url(#filter2_i)">
<path fill-rule="evenodd" clip-rule="evenodd" d="M302.872 84.3958C303.274 72.8553 333.343 75.4567 344.942 76.57C356.541 77.6834 357.595 61.8738 347.587 59.5239C337.579 57.1739 319.431 58.3866 310.028 56.2174C300.625 54.0482 312.519 42.4143 299.707 41.0121C286.895 39.6099 260.403 40.9081 252.505 40.6232C240.1 40.1758 233.735 55.1102 255.469 55.7879C261.462 55.9747 262.664 69.2422 242.434 65.5978C229.738 63.3107 204.829 63.2579 199.647 69.0969C196.674 72.447 197.705 81.4475 202.816 86.4176C206.613 90.1097 218.688 90.8296 223.418 91.683C234.515 93.6854 232.321 104.43 228.538 106.643C219.583 111.878 195.008 101.998 194.349 116.374C194.058 122.727 216.419 123.752 225.587 123.675C248.074 123.484 262.848 125.488 263.885 117.817C264.926 110.116 249.912 115.314 250.652 105.847C251.039 100.9 250.002 90.3882 259.635 90.94C246.447 90.1845 302.328 99.9824 302.872 84.3958Z" fill="url(#paint23_linear)"/>
</g>
<path d="M242 6.45438C242 2.88972 244.907 0 248.493 0H560.507C564.093 0 567 2.88973 567 6.45439V162.546C567 166.11 564.093 169 560.507 169H248.493C244.907 169 242 166.11 242 162.546V6.45438Z" fill="url(#paint24_radial)"/>
<g filter="url(#filter3_d)">
<path d="M410.294 113.743C410.294 101.735 420.029 92 432.038 92H577.529C589.538 92 599.272 101.735 599.272 113.743C599.272 125.752 589.538 135.486 577.529 135.486H432.038C420.029 135.486 410.294 125.752 410.294 113.743Z" fill="url(#paint25_linear)"/>
</g>
<path opacity="0.8" fill-rule="evenodd" clip-rule="evenodd" d="M434.17 128.798C442.33 128.798 448.945 122.206 448.945 114.074C448.945 105.942 442.33 99.3496 434.17 99.3496C426.01 99.3496 419.394 105.942 419.394 114.074C419.394 122.206 426.01 128.798 434.17 128.798Z" fill="url(#paint26_linear)"/>
<path opacity="0.9" fill-rule="evenodd" clip-rule="evenodd" d="M435.278 107.719C434.143 107.719 433.223 108.639 433.223 109.774V113.128H429.622C428.623 113.128 427.813 113.938 427.813 114.937C427.813 115.073 427.924 115.183 428.06 115.183H433.223V118.784C433.223 119.783 434.032 120.593 435.031 120.593C435.167 120.593 435.278 120.482 435.278 120.346V115.183H440.687C440.687 114.048 439.767 113.128 438.632 113.128H435.278V107.719Z" fill="white"/>
<path opacity="0.9" fill-rule="evenodd" clip-rule="evenodd" d="M434.741 108.355C434.167 108.572 433.76 109.126 433.76 109.776V113.667H429.622C429.019 113.667 428.515 114.086 428.383 114.648H433.76V118.786C433.76 119.388 434.179 119.893 434.741 120.024V114.648H440.053C439.836 114.075 439.281 113.667 438.632 113.667H434.741V108.355ZM432.686 109.776C432.686 108.344 433.846 107.184 435.278 107.184H435.815V112.593H438.632C440.063 112.593 441.224 113.753 441.224 115.185V115.722H435.815V120.348C435.815 120.78 435.464 121.131 435.031 121.131C433.736 121.131 432.686 120.081 432.686 118.786V115.722H428.06C427.627 115.722 427.276 115.371 427.276 114.938C427.276 113.643 428.327 112.593 429.622 112.593H432.686V109.776Z" fill="white"/>
<path opacity="0.6" fill-rule="evenodd" clip-rule="evenodd" d="M467.528 128.798C475.661 128.798 482.254 122.206 482.254 114.074C482.254 105.942 475.661 99.3496 467.528 99.3496C459.395 99.3496 452.802 105.942 452.802 114.074C452.802 122.206 459.395 128.798 467.528 128.798Z" fill="url(#paint27_linear)"/>
<mask id="mask1" mask-type="alpha" maskUnits="userSpaceOnUse" x="452" y="99" width="31" height="30">
<path fill-rule="evenodd" clip-rule="evenodd" d="M467.528 128.798C475.661 128.798 482.254 122.206 482.254 114.074C482.254 105.942 475.661 99.3496 467.528 99.3496C459.395 99.3496 452.802 105.942 452.802 114.074C452.802 122.206 459.395 128.798 467.528 128.798Z" fill="white"/>
</mask>
<g mask="url(#mask1)">
<path opacity="0.7" d="M459.884 124.211C459.884 119.456 463.738 115.602 468.493 115.602H468.828C472.421 115.602 475.334 118.514 475.334 122.107V130.966C475.334 131.99 474.504 132.82 473.48 132.82H468.493C463.738 132.82 459.884 128.966 459.884 124.211Z" fill="white"/>
<path fill-rule="evenodd" clip-rule="evenodd" d="M467.528 118.339C470.773 118.339 473.403 115.709 473.403 112.465C473.403 109.222 470.773 106.592 467.528 106.592C464.284 106.592 461.654 109.222 461.654 112.465C461.654 115.709 464.284 118.339 467.528 118.339Z" fill="white"/>
</g>
<path opacity="0.6" fill-rule="evenodd" clip-rule="evenodd" d="M500.716 128.798C508.849 128.798 515.442 122.206 515.442 114.074C515.442 105.942 508.849 99.3496 500.716 99.3496C492.583 99.3496 485.99 105.942 485.99 114.074C485.99 122.206 492.583 128.798 500.716 128.798Z" fill="url(#paint28_linear)"/>
<mask id="mask2" mask-type="alpha" maskUnits="userSpaceOnUse" x="485" y="99" width="31" height="30">
<path fill-rule="evenodd" clip-rule="evenodd" d="M500.716 128.798C508.849 128.798 515.442 122.206 515.442 114.074C515.442 105.942 508.849 99.3496 500.716 99.3496C492.583 99.3496 485.99 105.942 485.99 114.074C485.99 122.206 492.583 128.798 500.716 128.798Z" fill="white"/>
</mask>
<g mask="url(#mask2)">
<path opacity="0.7" d="M493.072 124.211C493.072 119.456 496.926 115.602 501.681 115.602H502.017C505.609 115.602 508.522 118.514 508.522 122.107V130.966C508.522 131.99 507.692 132.82 506.668 132.82H501.681C496.926 132.82 493.072 128.966 493.072 124.211Z" fill="white"/>
<path fill-rule="evenodd" clip-rule="evenodd" d="M500.716 118.017C503.872 118.017 506.43 115.46 506.43 112.305C506.43 109.149 503.872 106.592 500.716 106.592C497.561 106.592 495.003 109.149 495.003 112.305C495.003 115.46 497.561 118.017 500.716 118.017Z" fill="white"/>
</g>
<g opacity="0.6">
<path opacity="0.6" fill-rule="evenodd" clip-rule="evenodd" d="M567.231 128.798C575.364 128.798 581.957 122.206 581.957 114.074C581.957 105.942 575.364 99.3496 567.231 99.3496C559.098 99.3496 552.505 105.942 552.505 114.074C552.505 122.206 559.098 128.798 567.231 128.798Z" fill="url(#paint29_linear)"/>
<mask id="mask3" mask-type="alpha" maskUnits="userSpaceOnUse" x="552" y="99" width="30" height="30">
<path fill-rule="evenodd" clip-rule="evenodd" d="M567.231 128.798C575.364 128.798 581.957 122.206 581.957 114.074C581.957 105.942 575.364 99.3496 567.231 99.3496C559.098 99.3496 552.505 105.942 552.505 114.074C552.505 122.206 559.098 128.798 567.231 128.798Z" fill="white"/>
</mask>
<g mask="url(#mask3)">
<path opacity="0.7" d="M559.587 124.211C559.587 119.456 563.441 115.602 568.196 115.602H568.531C572.124 115.602 575.037 118.514 575.037 122.107V130.966C575.037 131.99 574.207 132.82 573.183 132.82H568.196C563.441 132.82 559.587 128.966 559.587 124.211Z" fill="white"/>
<path fill-rule="evenodd" clip-rule="evenodd" d="M567.231 118.017C570.386 118.017 572.944 115.46 572.944 112.305C572.944 109.149 570.386 106.592 567.231 106.592C564.076 106.592 561.518 109.149 561.518 112.305C561.518 115.46 564.076 118.017 567.231 118.017Z" fill="white"/>
</g>
</g>
<g opacity="0.2">
<path fill-rule="evenodd" clip-rule="evenodd" d="M533.912 128.798C542.049 128.798 548.646 122.206 548.646 114.074C548.646 105.942 542.049 99.3496 533.912 99.3496C525.775 99.3496 519.179 105.942 519.179 114.074C519.179 122.206 525.775 128.798 533.912 128.798Z" fill="url(#paint30_radial)" fill-opacity="0.84"/>
<path fill-rule="evenodd" clip-rule="evenodd" d="M533.912 128.798C542.049 128.798 548.646 122.206 548.646 114.074C548.646 105.942 542.049 99.3496 533.912 99.3496C525.775 99.3496 519.179 105.942 519.179 114.074C519.179 122.206 525.775 128.798 533.912 128.798Z" style="mix-blend-mode:overlay"/>
</g>
<mask id="mask4" mask-type="alpha" maskUnits="userSpaceOnUse" x="519" y="99" width="30" height="30">
<path fill-rule="evenodd" clip-rule="evenodd" d="M533.912 128.798C542.049 128.798 548.646 122.206 548.646 114.074C548.646 105.942 542.049 99.3496 533.912 99.3496C525.775 99.3496 519.179 105.942 519.179 114.074C519.179 122.206 525.775 128.798 533.912 128.798Z" fill="white"/>
<path fill-rule="evenodd" clip-rule="evenodd" d="M533.912 128.798C542.049 128.798 548.646 122.206 548.646 114.074C548.646 105.942 542.049 99.3496 533.912 99.3496C525.775 99.3496 519.179 105.942 519.179 114.074C519.179 122.206 525.775 128.798 533.912 128.798Z" stroke="white"/>
</mask>
<g mask="url(#mask4)">
</g>
<g filter="url(#filter4_d)">
<path fill-rule="evenodd" clip-rule="evenodd" d="M536.613 80.7663H478.488C476.665 80.7663 475.186 79.2877 475.186 77.4637V23.3025C475.186 21.4786 476.665 20 478.488 20H536.613C538.437 20 539.915 21.4786 539.915 23.3025V77.4637C539.915 79.2768 538.454 80.7486 536.613 80.7663Z" fill="white"/>
<path fill-rule="evenodd" clip-rule="evenodd" d="M536.613 80.7663H478.488C476.665 80.7663 475.186 79.2877 475.186 77.4637V23.3025C475.186 21.4786 476.665 20 478.488 20H536.613C538.437 20 539.915 21.4786 539.915 23.3025V77.4637C539.915 79.2768 538.454 80.7486 536.613 80.7663Z" fill="url(#paint31_linear)"/>
</g>
<g filter="url(#filter5_d)">
<path fill-rule="evenodd" clip-rule="evenodd" d="M495.001 72.8419H487.405C486.676 72.8419 486.084 72.2504 486.084 71.5209V40.4773C486.084 39.7477 486.676 39.1562 487.405 39.1562H495.001C495.73 39.1562 496.322 39.7477 496.322 40.4773V71.5209C496.322 72.2402 495.747 72.8252 495.001 72.8419Z" fill="url(#paint32_linear)"/>
<path fill-rule="evenodd" clip-rule="evenodd" d="M511.513 72.8436H503.918C503.188 72.8436 502.597 72.3913 502.597 71.8334V48.0942C502.597 47.5363 503.188 47.084 503.918 47.084H511.513C512.243 47.084 512.835 47.5363 512.835 48.0942V71.8334C512.835 72.3835 512.26 72.8308 511.513 72.8436Z" fill="url(#paint33_linear)"/>
<path fill-rule="evenodd" clip-rule="evenodd" d="M527.696 72.8344H520.1C519.371 72.8344 518.779 72.4923 518.779 72.0703V54.1137C518.779 53.6917 519.371 53.3496 520.1 53.3496H527.696C528.425 53.3496 529.017 53.6917 529.017 54.1137V72.0703C529.017 72.4864 528.442 72.8248 527.696 72.8344Z" fill="url(#paint34_linear)"/>
</g>
<path opacity="0.6" fill-rule="evenodd" clip-rule="evenodd" d="M281 27.7951C281 23.3444 284.608 19.7363 289.058 19.7363H322.871V73.307H281V27.7951Z" fill="url(#paint35_linear)"/>
<mask id="mask5" mask-type="alpha" maskUnits="userSpaceOnUse" x="280" y="19" width="43" height="55">
<path fill-rule="evenodd" clip-rule="evenodd" d="M281 27.7951C281 23.3444 284.608 19.7363 289.058 19.7363H322.871V73.307H281V27.7951Z" fill="white"/>
</mask>
<g mask="url(#mask5)">
<path opacity="0.7" d="M288.327 64.2154C288.327 56.4108 294.654 50.084 302.459 50.084C310.263 50.084 316.59 56.4108 316.59 64.2154V81.4894H288.327V64.2154Z" fill="white"/>
<path fill-rule="evenodd" clip-rule="evenodd" d="M302.311 55.0745C308.246 55.0745 313.057 50.2781 313.057 44.3615C313.057 38.4448 308.246 33.6484 302.311 33.6484C296.377 33.6484 291.566 38.4448 291.566 44.3615C291.566 50.2781 296.377 55.0745 302.311 55.0745Z" fill="white"/>
</g>
<path opacity="0.6" fill-rule="evenodd" clip-rule="evenodd" d="M280 84.9141H321.871V138.485H289.67C284.329 138.485 280 134.155 280 128.814V84.9141Z" fill="url(#paint36_linear)"/>
<mask id="mask6" mask-type="alpha" maskUnits="userSpaceOnUse" x="279" y="84" width="43" height="55">
<path fill-rule="evenodd" clip-rule="evenodd" d="M280 84.9141H321.871V138.485H289.67C284.329 138.485 280 134.155 280 128.814V84.9141Z" fill="white"/>
</mask>
<g mask="url(#mask6)">
<path opacity="0.7" d="M287.327 129.397C287.327 121.592 293.654 115.266 301.459 115.266C309.263 115.266 315.59 121.592 315.59 129.397V146.671H287.327V129.397Z" fill="white"/>
<path fill-rule="evenodd" clip-rule="evenodd" d="M301.312 120.256C307.246 120.256 312.057 115.46 312.057 109.543C312.057 103.626 307.246 98.8301 301.312 98.8301C295.377 98.8301 290.566 103.626 290.566 109.543C290.566 115.46 295.377 120.256 301.312 120.256Z" fill="white"/>
</g>
<path opacity="0.6" fill-rule="evenodd" clip-rule="evenodd" d="M334.198 85.9141H376.069V129.814C376.069 135.155 371.739 139.485 366.398 139.485H334.198V85.9141Z" fill="url(#paint37_linear)"/>
<mask id="mask7" mask-type="alpha" maskUnits="userSpaceOnUse" x="334" y="85" width="43" height="55">
<path fill-rule="evenodd" clip-rule="evenodd" d="M334.198 85.9141H376.069V129.814C376.069 135.155 371.739 139.485 366.398 139.485H334.198V85.9141Z" fill="white"/>
</mask>
<g mask="url(#mask7)">
<path opacity="0.7" d="M341.526 130.397C341.526 122.592 347.852 116.266 355.657 116.266C363.462 116.266 369.789 122.592 369.789 130.397V147.671H341.526V130.397Z" fill="white"/>
<path fill-rule="evenodd" clip-rule="evenodd" d="M355.51 121.256C361.445 121.256 366.256 116.46 366.256 110.543C366.256 104.626 361.445 99.8301 355.51 99.8301C349.575 99.8301 344.764 104.626 344.764 110.543C344.764 116.46 349.575 121.256 355.51 121.256Z" fill="white"/>
</g>
<path opacity="0.325279" fill-rule="evenodd" clip-rule="evenodd" d="M343.453 11.8206C342.942 11.8206 342.446 11.8779 341.971 11.9859C341.212 12.1586 340.456 11.6829 340.283 10.9234C340.111 10.1639 340.586 9.40819 341.346 9.23552C342.025 9.08119 342.73 9 343.453 9H344.993C345.772 9 346.403 9.63141 346.403 10.4103C346.403 11.1892 345.772 11.8206 344.993 11.8206H343.453ZM351.285 10.4103C351.285 9.63141 351.916 9 352.695 9H355.776C356.554 9 357.186 9.63141 357.186 10.4103C357.186 11.1892 356.554 11.8206 355.776 11.8206H352.695C351.916 11.8206 351.285 11.1892 351.285 10.4103ZM362.067 10.4103C362.067 9.63141 362.699 9 363.477 9H366.558C367.337 9 367.968 9.63141 367.968 10.4103C367.968 11.1892 367.337 11.8206 366.558 11.8206H363.477C362.699 11.8206 362.067 11.1892 362.067 10.4103ZM372.85 10.4103C372.85 9.63141 373.481 9 374.26 9H375.8C376.523 9 377.228 9.08119 377.907 9.23552C378.667 9.40819 379.142 10.1639 378.97 10.9234C378.797 11.6829 378.041 12.1586 377.282 11.9859C376.807 11.8779 376.311 11.8206 375.8 11.8206H374.26C373.481 11.8206 372.85 11.1892 372.85 10.4103ZM335.907 15.2998C336.666 15.4725 337.142 16.2281 336.969 16.9876C336.861 17.4627 336.804 17.9583 336.804 18.4691V20.0141C336.804 20.793 336.173 21.4244 335.394 21.4244C334.615 21.4244 333.984 20.793 333.984 20.0141V18.4691C333.984 17.7465 334.065 17.0412 334.219 16.3624C334.392 15.6029 335.147 15.1271 335.907 15.2998ZM383.346 15.2998C384.106 15.1271 384.861 15.6029 385.034 16.3624C385.188 17.0412 385.269 17.7465 385.269 18.4691V20.1125C385.269 20.8914 384.638 21.5228 383.859 21.5228C383.08 21.5228 382.449 20.8914 382.449 20.1125V18.4691C382.449 17.9583 382.391 17.4627 382.283 16.9876C382.111 16.2281 382.587 15.4725 383.346 15.2998ZM335.394 26.329C336.173 26.329 336.804 26.9604 336.804 27.7393V30.8293C336.804 31.6082 336.173 32.2396 335.394 32.2396C334.615 32.2396 333.984 31.6082 333.984 30.8293V27.7393C333.984 26.9604 334.615 26.329 335.394 26.329ZM383.859 26.9197C384.638 26.9197 385.269 27.5511 385.269 28.3299V31.6169C385.269 32.3958 384.638 33.0272 383.859 33.0272C383.08 33.0272 382.449 32.3958 382.449 31.6169V28.3299C382.449 27.5511 383.08 26.9197 383.859 26.9197ZM335.394 37.1442C336.173 37.1442 336.804 37.7756 336.804 38.5545V41.6446C336.804 42.4235 336.173 43.0549 335.394 43.0549C334.615 43.0549 333.984 42.4235 333.984 41.6446V38.5545C333.984 37.7756 334.615 37.1442 335.394 37.1442ZM383.859 38.424C384.638 38.424 385.269 39.0554 385.269 39.8343V43.1213C385.269 43.9002 384.638 44.5316 383.859 44.5316C383.08 44.5316 382.449 43.9002 382.449 43.1213V39.8343C382.449 39.0554 383.08 38.424 383.859 38.424ZM335.394 47.9595C336.173 47.9595 336.804 48.5909 336.804 49.3698V52.4598C336.804 53.2387 336.173 53.8701 335.394 53.8701C334.615 53.8701 333.984 53.2387 333.984 52.4598V49.3698C333.984 48.5909 334.615 47.9595 335.394 47.9595ZM383.859 49.9284C384.638 49.9284 385.269 50.5598 385.269 51.3387V54.6256C385.269 55.4045 384.638 56.0359 383.859 56.0359C383.08 56.0359 382.449 55.4045 382.449 54.6256V51.3387C382.449 50.5598 383.08 49.9284 383.859 49.9284ZM335.394 58.7747C336.173 58.7747 336.804 59.4061 336.804 60.185V63.2751C336.804 64.054 336.173 64.6854 335.394 64.6854C334.615 64.6854 333.984 64.054 333.984 63.2751V60.185C333.984 59.4061 334.615 58.7747 335.394 58.7747ZM383.859 61.4328C384.638 61.4328 385.269 62.0642 385.269 62.843V64.4865C385.269 65.2091 385.188 65.9144 385.034 66.5932C384.861 67.3527 384.106 67.8284 383.346 67.6558C382.587 67.4831 382.111 66.7274 382.283 65.9679C382.391 65.4929 382.449 64.9973 382.449 64.4865V62.843C382.449 62.0642 383.08 61.4328 383.859 61.4328ZM335.394 69.59C336.173 69.59 336.804 70.2214 336.804 71.0003V71.135H336.837C337.616 71.135 338.247 71.7664 338.247 72.5453C338.247 73.3242 337.616 73.9556 336.837 73.9556H335.394C334.615 73.9556 333.984 73.3242 333.984 72.5453V71.0003C333.984 70.2214 334.615 69.59 335.394 69.59ZM378.97 72.0322C379.142 72.7917 378.667 73.5474 377.907 73.7201C377.228 73.8744 376.523 73.9556 375.8 73.9556H374.357C373.578 73.9556 372.947 73.3242 372.947 72.5453C372.947 71.7664 373.578 71.135 374.357 71.135H375.8C376.311 71.135 376.807 71.0777 377.282 70.9697C378.041 70.797 378.797 71.2727 378.97 72.0322ZM342.642 72.5453C342.642 71.7664 343.273 71.135 344.052 71.135H346.939C347.717 71.135 348.349 71.7664 348.349 72.5453C348.349 73.3242 347.717 73.9556 346.939 73.9556H344.052C343.273 73.9556 342.642 73.3242 342.642 72.5453ZM352.744 72.5453C352.744 71.7664 353.375 71.135 354.154 71.135H357.04C357.819 71.135 358.45 71.7664 358.45 72.5453C358.45 73.3242 357.819 73.9556 357.04 73.9556H354.154C353.375 73.9556 352.744 73.3242 352.744 72.5453ZM362.845 72.5453C362.845 71.7664 363.477 71.135 364.256 71.135H367.142C367.921 71.135 368.552 71.7664 368.552 72.5453C368.552 73.3242 367.921 73.9556 367.142 73.9556H364.256C363.477 73.9556 362.845 73.3242 362.845 72.5453Z" fill="#7188B0"/>
<g style="mix-blend-mode:multiply" opacity="0.3">
<path fill-rule="evenodd" clip-rule="evenodd" d="M360.551 29.0527C359.554 29.0527 358.746 29.8609 358.746 30.8579V39.392H350.212C349.215 39.392 348.407 40.2002 348.407 41.1972V41.5151C348.407 42.5121 349.215 43.3203 350.212 43.3203H358.746V51.8545C358.746 52.8515 359.554 53.6597 360.551 53.6597H360.869C361.866 53.6597 362.674 52.8515 362.674 51.8545V43.3203H371.208C372.205 43.3203 373.014 42.5121 373.014 41.5151V41.1971C373.014 40.2002 372.205 39.392 371.208 39.392H362.674V30.8579C362.674 29.8609 361.866 29.0527 360.869 29.0527H360.551Z" fill="url(#paint38_linear)"/>
</g>
<g style="mix-blend-mode:multiply" opacity="0.3">
<path fill-rule="evenodd" clip-rule="evenodd" d="M360.547 29.8059C359.773 29.8059 359.145 30.4337 359.145 31.2081V40.1451H350.208C349.433 40.1451 348.806 40.7729 348.806 41.5474V41.8653C348.806 42.6397 349.433 43.2675 350.208 43.2675H359.145V52.2047C359.145 52.9792 359.773 53.607 360.547 53.607H360.865C361.639 53.607 362.267 52.9792 362.267 52.2047V43.2675H371.204C371.979 43.2675 372.607 42.6397 372.607 41.8653V41.5474C372.607 40.7729 371.979 40.1451 371.204 40.1451H362.267V31.2081C362.267 30.4337 361.639 29.8059 360.865 29.8059H360.547ZM358.339 31.2081C358.339 29.9886 359.328 29 360.547 29H360.865C362.085 29 363.073 29.9886 363.073 31.2081V39.3392H371.204C372.424 39.3392 373.412 40.3279 373.412 41.5474V41.8653C373.412 43.0848 372.424 44.0734 371.204 44.0734H363.073V52.2047C363.073 53.4242 362.085 54.4128 360.865 54.4128H360.547C359.328 54.4128 358.339 53.4242 358.339 52.2047V44.0734H350.208C348.988 44.0734 348 43.0848 348 41.8653V41.5474C348 40.3279 348.988 39.3392 350.208 39.3392H358.339V31.2081Z" fill="url(#paint39_linear)"/>
</g>
<g filter="url(#filter6_d)">
<path fill-rule="evenodd" clip-rule="evenodd" d="M461.426 81.0963H403.302C401.478 81.0963 400 79.6177 400 77.7938V23.6326C400 21.8087 401.478 20.3301 403.302 20.3301H461.426C463.25 20.3301 464.729 21.8087 464.729 23.6326V77.7938C464.729 79.6069 463.268 81.0787 461.426 81.0963Z" fill="white"/>
<path fill-rule="evenodd" clip-rule="evenodd" d="M461.426 81.0963H403.302C401.478 81.0963 400 79.6177 400 77.7938V23.6326C400 21.8087 401.478 20.3301 403.302 20.3301H461.426C463.25 20.3301 464.729 21.8087 464.729 23.6326V77.7938C464.729 79.6069 463.268 81.0787 461.426 81.0963Z" fill="url(#paint40_linear)"/>
</g>
<path opacity="0.4" fill-rule="evenodd" clip-rule="evenodd" d="M404.81 66.0084C404.81 66.0084 407.173 60.7957 411.899 50.3704L423.358 52.6436L432.172 40.5945L446.776 34.7324L459.534 43.2152" fill="black" fill-opacity="0.01"/>
<path opacity="0.4" fill-rule="evenodd" clip-rule="evenodd" d="M446.918 33.3496L460.214 42.1902L458.854 44.2363L446.634 36.1113L432.956 41.6017L423.887 53.9991L412.616 51.7631L405.929 66.5134C405.929 66.5135 405.929 66.5137 404.81 66.0064C403.691 65.4992 403.691 65.4991 403.691 65.4991L411.183 48.9738L422.829 51.2842L431.388 39.5834L446.918 33.3496Z" fill="white"/>
<path fill-rule="evenodd" clip-rule="evenodd" d="M423.229 54.7563C424.491 54.7563 425.515 53.7327 425.515 52.4699C425.515 51.2072 424.491 50.1836 423.229 50.1836C421.966 50.1836 420.942 51.2072 420.942 52.4699C420.942 53.7327 421.966 54.7563 423.229 54.7563Z" fill="#FACA39"/>
<path fill-rule="evenodd" clip-rule="evenodd" d="M412 53.561C413.263 53.561 414.287 52.5374 414.287 51.2747C414.287 50.012 413.263 48.9883 412 48.9883C410.738 48.9883 409.714 50.012 409.714 51.2747C409.714 52.5374 410.738 53.561 412 53.561Z" fill="#FACA39"/>
<path fill-rule="evenodd" clip-rule="evenodd" d="M432.146 42.8676C433.408 42.8676 434.432 41.844 434.432 40.5813C434.432 39.3186 433.408 38.2949 432.146 38.2949C430.883 38.2949 429.859 39.3186 429.859 40.5813C429.859 41.844 430.883 42.8676 432.146 42.8676Z" fill="#FACA39"/>
<path fill-rule="evenodd" clip-rule="evenodd" d="M446.677 37.5825C447.939 37.5825 448.963 36.5588 448.963 35.2961C448.963 34.0334 447.939 33.0098 446.677 33.0098C445.414 33.0098 444.39 34.0334 444.39 35.2961C444.39 36.5588 445.414 37.5825 446.677 37.5825Z" fill="#FACA39"/>
<path fill-rule="evenodd" clip-rule="evenodd" d="M186.828 255.445V250.078H195.404V256.655L189.656 257.429L186.828 255.445Z" fill="url(#paint41_linear)"/>
<path fill-rule="evenodd" clip-rule="evenodd" d="M232.679 237.522L228.176 233.978L233.828 226.496L237.977 231.468L232.679 237.522Z" fill="url(#paint42_linear)"/>
<path fill-rule="evenodd" clip-rule="evenodd" d="M213.132 171.668C213.132 171.668 215.138 195.7 216.56 199.267C217.982 202.834 235.221 226.604 235.221 226.604C235.221 226.604 234.331 229.416 232.485 231.469C230.749 233.399 228.944 234.513 227.554 235.375C224.177 232.687 202.153 210.129 202.153 210.129C202.153 210.129 200.293 197.791 202.153 191.035C204.014 184.278 213.132 171.668 213.132 171.668Z" fill="url(#paint43_linear)"/>
<path fill-rule="evenodd" clip-rule="evenodd" d="M179.365 150.144C179.365 151.556 181.519 157.676 182.186 165.151C182.655 170.415 181.615 176.35 181.927 181.786C182.681 194.943 186.15 251.577 186.15 251.577C186.15 251.577 188.515 253.304 191.181 253.701C193.848 254.098 198.215 252.953 198.215 252.953C198.215 252.953 203.237 214.235 205.664 204.773C206.832 200.218 205.831 190.283 210.122 182.725C212.096 179.249 213.572 174.86 214.591 171.133C215.981 166.051 215.401 160.698 213.588 155.75L209.111 143.533C209.111 143.533 179.365 147.738 179.365 150.144Z" fill="url(#paint44_linear)"/>
<mask id="mask8" mask-type="alpha" maskUnits="userSpaceOnUse" x="179" y="143" width="37" height="111">
<path fill-rule="evenodd" clip-rule="evenodd" d="M179.365 150.144C179.365 151.556 181.519 157.676 182.186 165.151C182.655 170.415 181.615 176.35 181.927 181.786C182.681 194.943 186.15 251.577 186.15 251.577C186.15 251.577 188.515 253.304 191.181 253.701C193.848 254.098 198.215 252.953 198.215 252.953C198.215 252.953 203.237 214.235 205.664 204.773C206.832 200.218 205.831 190.283 210.122 182.725C212.096 179.249 213.572 174.86 214.591 171.133C215.981 166.051 215.401 160.698 213.588 155.75L209.111 143.533C209.111 143.533 179.365 147.738 179.365 150.144Z" fill="white"/>
</mask>
<g mask="url(#mask8)">
<g opacity="0.5">
<path fill-rule="evenodd" clip-rule="evenodd" d="M181.025 151.621C185.905 153.091 204.138 154.007 212.159 148.912C220.18 143.818 192.332 145.477 192.332 145.477C192.332 145.477 176.144 150.151 181.025 151.621Z" fill="url(#paint45_linear)" style="mix-blend-mode:multiply"/>
</g>
<g opacity="0.5">
<path fill-rule="evenodd" clip-rule="evenodd" d="M198.834 170.123C197.063 169.703 195.433 169.539 193.978 168.025C192.856 166.859 191.754 164.958 191.754 162.463C191.754 156.731 193.513 154.129 193.513 154.129" fill="url(#paint46_linear)" style="mix-blend-mode:multiply"/>
</g>
</g>
<path fill-rule="evenodd" clip-rule="evenodd" d="M244.781 240.792C244.781 240.792 241.938 236.103 240.145 233.967C238.353 231.83 236.925 230.129 236.925 230.129C236.925 230.129 236.309 232.656 234.75 234.022C233.376 235.226 232.927 235.551 230.12 235.839C228.466 239.266 227.309 246.208 223.965 252.571C223.637 254.155 224.527 255.354 225.205 256.008C225.586 256.376 226.168 256.338 226.575 256L234.08 249.771L237.433 242.668L240.083 244.733L244.781 240.792Z" fill="url(#paint47_radial)"/>
<path fill-rule="evenodd" clip-rule="evenodd" d="M194.874 267.585C194.874 267.585 195.71 262.166 195.71 259.377C195.71 256.588 195.71 254.367 195.71 254.367C195.71 254.367 193.614 255.907 191.541 255.951C189.715 255.99 189.162 255.951 186.826 254.367C183.357 255.929 175.409 260.801 168.757 263.526C168.757 264.588 169.214 266.125 169.529 267.056C169.694 267.545 170.163 267.857 170.678 267.844L180.905 267.585L188.039 264.299L188.742 267.585H194.874Z" fill="url(#paint48_radial)"/>
<path fill-rule="evenodd" clip-rule="evenodd" d="M159.837 58.1801C160.153 59.1691 162.971 61.8148 163.657 64.7791C164.066 66.5421 163.758 68.3094 163.758 69.6707C163.758 73.3211 164.966 73.182 167.534 72.6296C169.938 74.0535 170.356 77.2437 173.041 78.9032C175.727 80.5626 180.366 74.5598 181.896 76.2702C182.396 76.8288 182.683 77.8968 183.684 78.9032C184.727 79.9511 184.159 84.4836 184.159 84.4836C184.159 84.4836 193.256 83.1498 194.291 78.2906C193.173 76.0364 190.584 69.0322 190.584 67.1211C190.584 65.2101 194.862 57.9201 183.204 50.8465C171.547 43.7729 159.333 56.603 159.837 58.1801Z" fill="url(#paint49_linear)"/>
<mask id="mask9" mask-type="alpha" maskUnits="userSpaceOnUse" x="159" y="48" width="36" height="37">
<path fill-rule="evenodd" clip-rule="evenodd" d="M159.837 58.1801C160.153 59.1691 162.971 61.8148 163.657 64.7791C164.066 66.5421 163.758 68.3094 163.758 69.6707C163.758 73.3211 164.966 73.182 167.534 72.6296C169.938 74.0535 170.356 77.2437 173.041 78.9032C175.727 80.5626 180.366 74.5598 181.896 76.2702C182.396 76.8288 182.683 77.8968 183.684 78.9032C184.727 79.9511 184.159 84.4836 184.159 84.4836C184.159 84.4836 193.256 83.1498 194.291 78.2906C193.173 76.0364 190.584 69.0322 190.584 67.1211C190.584 65.2101 194.862 57.9201 183.204 50.8465C171.547 43.7729 159.333 56.603 159.837 58.1801Z" fill="white"/>
</mask>
<g mask="url(#mask9)">
<g opacity="0.5">
<path fill-rule="evenodd" clip-rule="evenodd" d="M178.941 76.9565C180.754 75.5788 183.178 70.9944 183.178 70.6408C183.178 70.2872 184.453 81.8086 184.453 81.8086C184.453 81.8086 177.128 78.3342 178.941 76.9565Z" fill="#3D82F0" style="mix-blend-mode:multiply"/>
</g>
<path fill-rule="evenodd" clip-rule="evenodd" d="M170.797 73.3075C170.844 73.4701 170.75 73.6398 170.588 73.6866C169.362 74.0398 168.645 74.6242 168.222 75.6001C168.155 75.7553 167.974 75.8266 167.819 75.7592C167.664 75.6919 167.593 75.5116 167.66 75.3564C168.17 74.1808 169.053 73.4913 170.418 73.098C170.581 73.0512 170.751 73.145 170.797 73.3075Z" fill="#223762"/>
</g>
<path fill-rule="evenodd" clip-rule="evenodd" d="M142.056 112.801C139.696 110.72 136.775 110.007 134.942 107.165C133.108 104.323 127.782 94.7707 129.167 93.5363C130.552 92.3018 134.019 88.9727 135.327 88.9727C136.634 88.9727 139.039 94.0213 140.234 96.3183C141.429 98.6152 143.443 103.511 143.443 105.532C143.443 107.552 144.416 114.882 142.056 112.801Z" fill="url(#paint50_linear)"/>
<path fill-rule="evenodd" clip-rule="evenodd" d="M126.233 88.3773C125.759 87.528 126.029 86.4564 126.849 85.9328L132.129 82.5602C133.164 81.899 134.542 82.2408 135.148 83.309L143.669 98.3289C144.154 99.1839 143.881 100.269 143.048 100.792L137.368 104.359C136.477 104.918 135.299 104.617 134.786 103.698L126.233 88.3773Z" fill="#223762"/>
<path fill-rule="evenodd" clip-rule="evenodd" d="M127.658 87.0255C127.418 86.5931 127.563 86.0479 127.986 85.7921L133.531 82.4431C133.974 82.1755 134.55 82.3263 134.805 82.7765L143.173 97.5395C143.42 97.9752 143.272 98.5284 142.841 98.7834L137.154 102.149C136.709 102.412 136.135 102.256 135.883 101.805L127.658 87.0255Z" fill="url(#paint51_linear)"/>
<path fill-rule="evenodd" clip-rule="evenodd" d="M171.885 113.713C171.885 113.713 161.349 126.979 160.823 126.979C160.298 126.979 148.198 109.737 148.198 108.949C148.198 108.162 149.061 105.075 146.667 101.781C144.272 98.4882 142.81 92.7199 141.55 91.6929C140.291 90.6659 140.281 90.2182 139.648 90.774C139.015 91.3299 139.056 91.8059 139.648 93.0188C140.24 94.2317 141.55 97.7177 141.55 98.6148C141.55 99.512 140.945 102.708 141.55 103.925C142.156 105.142 141.577 109.878 142.33 112.29C143.082 114.703 156.722 139.179 160.724 138.654C164.726 138.128 178.864 123.61 178.864 123.61C178.864 123.61 181.054 117.211 177.46 114.818C173.867 112.425 171.885 113.713 171.885 113.713Z" fill="url(#paint52_linear)"/>
<mask id="mask10" mask-type="alpha" maskUnits="userSpaceOnUse" x="139" y="90" width="41" height="49">
<path fill-rule="evenodd" clip-rule="evenodd" d="M171.885 113.713C171.885 113.713 161.349 126.979 160.823 126.979C160.298 126.979 148.198 109.737 148.198 108.949C148.198 108.162 149.061 105.075 146.667 101.781C144.272 98.4882 142.81 92.7199 141.55 91.6929C140.291 90.6659 140.281 90.2182 139.648 90.774C139.015 91.3299 139.056 91.8059 139.648 93.0188C140.24 94.2317 141.55 97.7177 141.55 98.6148C141.55 99.512 140.945 102.708 141.55 103.925C142.156 105.142 141.577 109.878 142.33 112.29C143.082 114.703 156.722 139.179 160.724 138.654C164.726 138.128 178.864 123.61 178.864 123.61C178.864 123.61 181.054 117.211 177.46 114.818C173.867 112.425 171.885 113.713 171.885 113.713Z" fill="white"/>
</mask>
<g mask="url(#mask10)">
<g opacity="0.5">
<path fill-rule="evenodd" clip-rule="evenodd" d="M169.071 114.552C169.071 114.552 172.297 118.553 175.023 121.328C176.578 125.342 175.39 128.314 176.578 127.9C177.765 127.485 180.042 116.284 178.904 114.552C178.423 113.821 174.95 110.874 172.297 111.353C170.758 111.631 169.071 114.552 169.071 114.552Z" fill="#3D82F0" style="mix-blend-mode:multiply"/>
</g>
<path fill-rule="evenodd" clip-rule="evenodd" d="M160.66 126.417C160.77 126.289 160.964 126.274 161.092 126.385C161.219 126.494 161.341 126.659 161.455 126.836C161.572 127.018 161.693 127.235 161.814 127.467C162.048 127.916 162.289 128.439 162.506 128.907C162.514 128.924 162.522 128.941 162.53 128.958C162.601 129.112 162.534 129.294 162.38 129.365C162.227 129.436 162.045 129.369 161.974 129.215C161.967 129.2 161.96 129.185 161.952 129.169C161.734 128.697 161.498 128.185 161.271 127.75C161.154 127.526 161.042 127.327 160.939 127.167C160.833 127.001 160.749 126.898 160.692 126.849C160.564 126.738 160.549 126.545 160.66 126.417Z" fill="#223762"/>
</g>
<path fill-rule="evenodd" clip-rule="evenodd" d="M176.563 118.989C171.887 115.617 166.466 109.423 169.176 106.682C171.887 103.941 182.127 90.5457 184.241 87.7427C186.355 84.9396 189.09 102.512 186.164 106.682C183.237 110.851 180.553 115.532 176.563 118.989Z" fill="url(#paint53_linear)"/>
<path fill-rule="evenodd" clip-rule="evenodd" d="M178.12 148.97C177.508 144.603 181.244 131.373 177.823 123.51C176.35 120.123 174.114 117.388 173.966 113.601C173.761 108.366 176.149 102.237 177.508 99.6337C182.725 89.6355 182.604 84.0787 184.115 82.496C186.298 82.496 192.16 80.8423 194.313 77.6387C196.729 78.9893 205.099 88.6116 207.635 93.9683C210.17 99.325 209.362 115.809 209.362 125.679C209.362 135.55 210.718 142.043 210.718 144.603C210.718 147.164 179.012 155.322 178.12 148.97Z" fill="url(#paint54_linear)"/>
<path fill-rule="evenodd" clip-rule="evenodd" d="M193.972 150.238C193.972 150.238 196.697 142.7 196.697 139.709C196.697 136.718 192.61 114.776 193.972 112.328C195.335 109.88 204.206 134.721 204.206 134.721C204.206 134.721 200.432 145.16 199.178 147.585C197.924 150.011 193.972 150.238 193.972 150.238Z" fill="url(#paint55_linear)" style="mix-blend-mode:multiply"/>
<path fill-rule="evenodd" clip-rule="evenodd" d="M171.385 56.2658C163.187 51.7586 160.589 59.9656 159.39 58.9227C156.225 54.9327 157.897 50.3965 159.39 46.6067C161.903 40.2331 177.268 29.7161 189.379 40.9539C201.49 52.1916 191.502 71.514 191.502 71.514C191.502 71.514 188.453 70.3715 187.679 67.2441C186.905 64.1168 179.735 62.6871 179.735 62.6871C179.735 62.6871 181.745 59.5997 179.735 57.726C177.726 55.8524 176.854 56.4599 176.235 57.0849C175.595 57.3914 175.522 60.1478 175.522 60.1478C175.522 60.1478 172.969 57.0849 171.385 56.2658Z" fill="url(#paint56_radial)"/>
<path fill-rule="evenodd" clip-rule="evenodd" d="M193.833 62.0787C193.833 63.0444 195.981 65.9461 199.829 65.9461C203.676 65.9461 215.192 62.9525 219.009 72.3104C222.826 81.6682 217.557 82.1085 223.775 88.8677C229.993 95.6268 230.231 113.926 215.03 109.55C199.829 105.174 202.224 85.2827 202.224 79.9755C202.224 74.6684 196.511 72.7715 191.385 71.5747C188.591 65.9461 193.833 61.1131 193.833 62.0787Z" fill="#223762"/>
<mask id="mask11" mask-type="alpha" maskUnits="userSpaceOnUse" x="190" y="61" width="38" height="50">
<path fill-rule="evenodd" clip-rule="evenodd" d="M193.833 62.0787C193.833 63.0444 195.981 65.9461 199.829 65.9461C203.676 65.9461 215.192 62.9525 219.009 72.3104C222.826 81.6682 217.557 82.1085 223.775 88.8677C229.993 95.6268 230.231 113.926 215.03 109.55C199.829 105.174 202.224 85.2827 202.224 79.9755C202.224 74.6684 196.511 72.7715 191.385 71.5747C188.591 65.9461 193.833 61.1131 193.833 62.0787Z" fill="white"/>
</mask>
<g mask="url(#mask11)">
<g opacity="0.3">
<path fill-rule="evenodd" clip-rule="evenodd" d="M191.619 71.1368C195.714 70.0017 204.668 70.053 207.296 75.1238C209.923 80.1946 214.269 103.088 204.598 104.072C194.927 105.056 187.524 72.2719 191.619 71.1368Z" fill="#223762" style="mix-blend-mode:multiply"/>
</g>
<path fill-rule="evenodd" clip-rule="evenodd" d="M196.647 63.5954C196.882 64.0447 196.71 64.6002 196.26 64.8361C193.225 66.43 193.066 69.6859 193.066 71.9722C193.066 72.4797 192.654 72.8911 192.147 72.8911C191.639 72.8911 191.228 72.4797 191.228 71.9722C191.228 69.7875 191.296 65.3673 195.406 63.209C195.855 62.9731 196.411 63.1461 196.647 63.5954Z" fill="#D6E3FA"/>
</g>
<path fill-rule="evenodd" clip-rule="evenodd" d="M198.84 139.243C197.893 135.195 192.417 113.545 193.668 108.115C194.919 102.685 204.548 100.048 205.555 106.47C206.37 111.667 208.78 132.067 209.67 139.661C209.89 141.539 209.576 143.436 208.767 145.145L200.466 162.687L196.946 169.616C196.946 169.616 193.668 169.069 192.14 164.876C191.642 163.509 191.951 161.923 192.663 160.285C195.725 153.242 199.607 142.528 198.84 139.243Z" fill="url(#paint57_linear)"/>
<mask id="mask12" mask-type="alpha" maskUnits="userSpaceOnUse" x="191" y="102" width="19" height="68">
<path fill-rule="evenodd" clip-rule="evenodd" d="M198.84 139.243C197.893 135.195 192.417 113.545 193.668 108.115C194.919 102.685 204.548 100.048 205.555 106.47C206.37 111.667 208.78 132.067 209.67 139.661C209.89 141.539 209.576 143.436 208.767 145.145L200.466 162.687L196.946 169.616C196.946 169.616 193.668 169.069 192.14 164.876C191.642 163.509 191.951 161.923 192.663 160.285C195.725 153.242 199.607 142.528 198.84 139.243Z" fill="white"/>
</mask>
<g mask="url(#mask12)">
<g opacity="0.5">
<path fill-rule="evenodd" clip-rule="evenodd" d="M194.298 115.323C198.024 116.169 204.68 116.595 207.59 115.323C210.499 114.052 206.67 110.115 206.67 110.115C206.67 110.115 190.572 114.478 194.298 115.323Z" fill="#3D82F0" style="mix-blend-mode:multiply"/>
</g>
</g>
<path fill-rule="evenodd" clip-rule="evenodd" d="M191.494 113.297C189.866 108.525 186.834 89.1056 195.106 86.9709C203.377 84.8361 208.268 107.319 208.268 109.437C208.268 111.554 193.122 118.07 191.494 113.297Z" fill="url(#paint58_linear)"/>
<path fill-rule="evenodd" clip-rule="evenodd" d="M181.149 102.286C181.244 101.744 181.791 101.407 182.318 101.565L186.749 102.893C187.195 103.027 187.471 103.474 187.39 103.933L185.573 114.233C185.5 114.652 185.149 114.965 184.725 114.991L181.98 115.159C181.707 115.176 181.439 115.07 181.252 114.869L179.612 113.111C179.415 112.9 179.329 112.609 179.379 112.324L181.149 102.286Z" fill="url(#paint59_linear)"/>
<path fill-rule="evenodd" clip-rule="evenodd" d="M131.322 65.6998C131.828 65.6623 132.269 66.0422 132.306 66.5483L132.919 74.818C132.956 75.3241 132.577 75.7647 132.071 75.8022C131.564 75.8397 131.124 75.4598 131.086 74.9537L130.474 66.684C130.436 66.178 130.816 65.7373 131.322 65.6998Z" fill="url(#paint60_linear)"/>
<path fill-rule="evenodd" clip-rule="evenodd" d="M141.204 65.7528C141.68 65.929 141.923 66.4577 141.747 66.9335L138.684 75.2032C138.508 75.6791 137.979 75.922 137.503 75.7458C137.027 75.5695 136.784 75.0409 136.961 74.565L140.023 66.2953C140.2 65.8194 140.728 65.5765 141.204 65.7528Z" fill="url(#paint61_linear)"/>
<path fill-rule="evenodd" clip-rule="evenodd" d="M148.199 73.4025C148.508 73.805 148.432 74.3818 148.03 74.6908L141.445 79.7445C141.042 80.0535 140.465 79.9776 140.156 79.575C139.847 79.1724 139.923 78.5956 140.326 78.2866L146.911 73.2329C147.313 72.924 147.89 72.9999 148.199 73.4025Z" fill="url(#paint62_linear)"/>
<path opacity="0.460603" fill-rule="evenodd" clip-rule="evenodd" d="M127.408 86.4231L170.709 51.3008L187.44 81.8097L136.449 102.757L127.408 86.4231Z" fill="url(#paint63_linear)"/>
</g>
<defs>
<filter id="filter0_i" x="444.763" y="93.8887" width="158.171" height="99.7342" filterUnits="userSpaceOnUse" color-interpolation-filters="sRGB">
<feFlood flood-opacity="0" result="BackgroundImageFix"/>
<feBlend mode="normal" in="SourceGraphic" in2="BackgroundImageFix" result="shape"/>
<feColorMatrix in="SourceAlpha" type="matrix" values="0 0 0 0 0 0 0 0 0 0 0 0 0 0 0 0 0 0 127 0" result="hardAlpha"/>
<feOffset dy="-14"/>
<feGaussianBlur stdDeviation="12.5"/>
<feComposite in2="hardAlpha" operator="arithmetic" k2="-1" k3="1"/>
<feColorMatrix type="matrix" values="0 0 0 0 0.788056 0 0 0 0 0.827193 0 0 0 0 0.89764 0 0 0 0.337126 0"/>
<feBlend mode="normal" in2="shape" result="effect1_innerShadow"/>
</filter>
<filter id="filter1_i" x="240.767" y="144.145" width="175.995" height="105.396" filterUnits="userSpaceOnUse" color-interpolation-filters="sRGB">
<feFlood flood-opacity="0" result="BackgroundImageFix"/>
<feBlend mode="normal" in="SourceGraphic" in2="BackgroundImageFix" result="shape"/>
<feColorMatrix in="SourceAlpha" type="matrix" values="0 0 0 0 0 0 0 0 0 0 0 0 0 0 0 0 0 0 127 0" result="hardAlpha"/>
<feOffset dy="-14"/>
<feGaussianBlur stdDeviation="12.5"/>
<feComposite in2="hardAlpha" operator="arithmetic" k2="-1" k3="1"/>
<feColorMatrix type="matrix" values="0 0 0 0 0.788056 0 0 0 0 0.827193 0 0 0 0 0.89764 0 0 0 0.337126 0"/>
<feBlend mode="normal" in2="shape" result="effect1_innerShadow"/>
</filter>
<filter id="filter2_i" x="194.346" y="26.3477" width="160.08" height="97.4293" filterUnits="userSpaceOnUse" color-interpolation-filters="sRGB">
<feFlood flood-opacity="0" result="BackgroundImageFix"/>
<feBlend mode="normal" in="SourceGraphic" in2="BackgroundImageFix" result="shape"/>
<feColorMatrix in="SourceAlpha" type="matrix" values="0 0 0 0 0 0 0 0 0 0 0 0 0 0 0 0 0 0 127 0" result="hardAlpha"/>
<feOffset dy="-14"/>
<feGaussianBlur stdDeviation="12.5"/>
<feComposite in2="hardAlpha" operator="arithmetic" k2="-1" k3="1"/>
<feColorMatrix type="matrix" values="0 0 0 0 0.788056 0 0 0 0 0.827193 0 0 0 0 0.89764 0 0 0 0.337126 0"/>
<feBlend mode="normal" in2="shape" result="effect1_innerShadow"/>
</filter>
<filter id="filter3_d" x="381.294" y="92" width="217.978" height="69.4864" filterUnits="userSpaceOnUse" color-interpolation-filters="sRGB">
<feFlood flood-opacity="0" result="BackgroundImageFix"/>
<feColorMatrix in="SourceAlpha" type="matrix" values="0 0 0 0 0 0 0 0 0 0 0 0 0 0 0 0 0 0 127 0"/>
<feOffset dx="-29" dy="26"/>
<feColorMatrix type="matrix" values="0 0 0 0 0.831373 0 0 0 0 0.882353 0 0 0 0 0.972549 0 0 0 0.427253 0"/>
<feBlend mode="normal" in2="BackgroundImageFix" result="effect1_dropShadow"/>
<feBlend mode="normal" in="SourceGraphic" in2="effect1_dropShadow" result="shape"/>
</filter>
<filter id="filter4_d" x="436.186" y="12" width="132.729" height="128.766" filterUnits="userSpaceOnUse" color-interpolation-filters="sRGB">
<feFlood flood-opacity="0" result="BackgroundImageFix"/>
<feColorMatrix in="SourceAlpha" type="matrix" values="0 0 0 0 0 0 0 0 0 0 0 0 0 0 0 0 0 0 127 0"/>
<feOffset dx="-5" dy="26"/>
<feGaussianBlur stdDeviation="17"/>
<feColorMatrix type="matrix" values="0 0 0 0 0.831373 0 0 0 0 0.882353 0 0 0 0 0.972549 0 0 0 0.43 0"/>
<feBlend mode="normal" in2="BackgroundImageFix" result="effect1_dropShadow"/>
<feBlend mode="normal" in="SourceGraphic" in2="effect1_dropShadow" result="shape"/>
</filter>
<filter id="filter5_d" x="447.084" y="31.1562" width="110.933" height="101.687" filterUnits="userSpaceOnUse" color-interpolation-filters="sRGB">
<feFlood flood-opacity="0" result="BackgroundImageFix"/>
<feColorMatrix in="SourceAlpha" type="matrix" values="0 0 0 0 0 0 0 0 0 0 0 0 0 0 0 0 0 0 127 0"/>
<feOffset dx="-5" dy="26"/>
<feGaussianBlur stdDeviation="17"/>
<feColorMatrix type="matrix" values="0 0 0 0 0.831373 0 0 0 0 0.882353 0 0 0 0 0.972549 0 0 0 0.43 0"/>
<feBlend mode="normal" in2="BackgroundImageFix" result="effect1_dropShadow"/>
<feBlend mode="normal" in="SourceGraphic" in2="effect1_dropShadow" result="shape"/>
</filter>
<filter id="filter6_d" x="361" y="12.3301" width="132.729" height="128.766" filterUnits="userSpaceOnUse" color-interpolation-filters="sRGB">
<feFlood flood-opacity="0" result="BackgroundImageFix"/>
<feColorMatrix in="SourceAlpha" type="matrix" values="0 0 0 0 0 0 0 0 0 0 0 0 0 0 0 0 0 0 127 0"/>
<feOffset dx="-5" dy="26"/>
<feGaussianBlur stdDeviation="17"/>
<feColorMatrix type="matrix" values="0 0 0 0 0.831373 0 0 0 0 0.882353 0 0 0 0 0.972549 0 0 0 0.43 0"/>
<feBlend mode="normal" in2="BackgroundImageFix" result="effect1_dropShadow"/>
<feBlend mode="normal" in="SourceGraphic" in2="effect1_dropShadow" result="shape"/>
</filter>
<linearGradient id="paint0_linear" x1="497.89" y1="180.911" x2="489.198" y2="123.728" gradientUnits="userSpaceOnUse">
<stop stop-color="#ECF1FF"/>
<stop offset="1" stop-color="white"/>
</linearGradient>
<linearGradient id="paint1_linear" x1="357.758" y1="237.498" x2="366.984" y2="175.222" gradientUnits="userSpaceOnUse">
<stop stop-color="#ECF1FF"/>
<stop offset="1" stop-color="white"/>
</linearGradient>
<linearGradient id="paint2_linear" x1="420.747" y1="197.415" x2="435.755" y2="127.316" gradientUnits="userSpaceOnUse">
<stop stop-color="#E6EFFF"/>
<stop offset="1" stop-color="#D6E3FA"/>
</linearGradient>
<linearGradient id="paint3_linear" x1="356.612" y1="152.668" x2="350.871" y2="225.249" gradientUnits="userSpaceOnUse">
<stop stop-color="white" stop-opacity="0.01"/>
<stop offset="1" stop-color="white" stop-opacity="0.01"/>
</linearGradient>
<linearGradient id="paint4_linear" x1="586.079" y1="159.347" x2="631.878" y2="176.556" gradientUnits="userSpaceOnUse">
<stop stop-color="#CFDDF3"/>
<stop offset="1" stop-color="#A1B8E3"/>
</linearGradient>
<linearGradient id="paint5_linear" x1="613.669" y1="191.207" x2="614.022" y2="211.45" gradientUnits="userSpaceOnUse">
<stop stop-color="#CFDDF3"/>
<stop offset="1" stop-color="#A1B8E3"/>
</linearGradient>
<linearGradient id="paint6_linear" x1="606.234" y1="179.816" x2="606.446" y2="191.933" gradientUnits="userSpaceOnUse">
<stop stop-color="#CFDDF3"/>
<stop offset="1" stop-color="#A1B8E3"/>
</linearGradient>
<linearGradient id="paint7_linear" x1="600.549" y1="158.916" x2="602.079" y2="246.545" gradientUnits="userSpaceOnUse">
<stop stop-color="#CFDDF3"/>
<stop offset="1" stop-color="#A1B8E3"/>
</linearGradient>
<linearGradient id="paint8_linear" x1="851.428" y1="200.594" x2="849.726" y2="314.711" gradientUnits="userSpaceOnUse">
<stop stop-color="white"/>
<stop offset="1" stop-color="#D6E3FA"/>
</linearGradient>
<linearGradient id="paint9_linear" x1="933.769" y1="288" x2="933.769" y2="98.377" gradientUnits="userSpaceOnUse">
<stop stop-color="white"/>
<stop offset="1" stop-color="#D6E3FA"/>
</linearGradient>
<linearGradient id="paint10_linear" x1="50.3476" y1="157.264" x2="62.7237" y2="258.059" gradientUnits="userSpaceOnUse">
<stop stop-color="#CFDDF3"/>
<stop offset="1" stop-color="#A1B8E3"/>
</linearGradient>
<linearGradient id="paint11_linear" x1="43.5038" y1="99.6264" x2="26.1622" y2="120.408" gradientUnits="userSpaceOnUse">
<stop stop-color="#CFDDF3"/>
<stop offset="1" stop-color="#A1B8E3"/>
</linearGradient>
<linearGradient id="paint12_linear" x1="152.745" y1="165.122" x2="142.537" y2="140.054" gradientUnits="userSpaceOnUse">
<stop stop-color="#CFDDF3"/>
<stop offset="1" stop-color="#A1B8E3"/>
</linearGradient>
<linearGradient id="paint13_linear" x1="145.939" y1="192.144" x2="137.057" y2="166.576" gradientUnits="userSpaceOnUse">
<stop stop-color="#CFDDF3"/>
<stop offset="1" stop-color="#A1B8E3"/>
</linearGradient>
<linearGradient id="paint14_linear" x1="141.012" y1="215.379" x2="132.131" y2="189.811" gradientUnits="userSpaceOnUse">
<stop stop-color="#CFDDF3"/>
<stop offset="1" stop-color="#A1B8E3"/>
</linearGradient>
<linearGradient id="paint15_linear" x1="126.763" y1="91.6822" x2="100.374" y2="85.6654" gradientUnits="userSpaceOnUse">
<stop stop-color="#CFDDF3"/>
<stop offset="1" stop-color="#A1B8E3"/>
</linearGradient>
<linearGradient id="paint16_linear" x1="24.848" y1="130.858" x2="11.7903" y2="154.567" gradientUnits="userSpaceOnUse">
<stop stop-color="#CFDDF3"/>
<stop offset="1" stop-color="#A1B8E3"/>
</linearGradient>
<linearGradient id="paint17_linear" x1="13.9506" y1="160.03" x2="3.44268" y2="184.974" gradientUnits="userSpaceOnUse">
<stop stop-color="#CFDDF3"/>
<stop offset="1" stop-color="#A1B8E3"/>
</linearGradient>
<linearGradient id="paint18_linear" x1="620.157" y1="125.863" x2="675.352" y2="171.515" gradientUnits="userSpaceOnUse">
<stop stop-color="#CFDDF3"/>
<stop offset="1" stop-color="#A1B8E3"/>
</linearGradient>
<linearGradient id="paint19_linear" x1="643.163" y1="183.112" x2="634.003" y2="211.301" gradientUnits="userSpaceOnUse">
<stop stop-color="#CFDDF3"/>
<stop offset="1" stop-color="#A1B8E3"/>
</linearGradient>
<linearGradient id="paint20_linear" x1="638.301" y1="163.802" x2="632.818" y2="180.677" gradientUnits="userSpaceOnUse">
<stop stop-color="#CFDDF3"/>
<stop offset="1" stop-color="#A1B8E3"/>
</linearGradient>
<linearGradient id="paint21_linear" x1="640.393" y1="132.16" x2="600.744" y2="254.189" gradientUnits="userSpaceOnUse">
<stop stop-color="#CFDDF3"/>
<stop offset="1" stop-color="#A1B8E3"/>
</linearGradient>
<linearGradient id="paint22_linear" x1="340.657" y1="247.365" x2="173.565" y2="247.365" gradientUnits="userSpaceOnUse">
<stop stop-color="#D0DCF1"/>
<stop offset="1" stop-color="white" stop-opacity="0.01"/>
</linearGradient>
<linearGradient id="paint23_linear" x1="248.015" y1="112.784" x2="239.564" y2="55.9448" gradientUnits="userSpaceOnUse">
<stop stop-color="#ECF1FF"/>
<stop offset="1" stop-color="white"/>
</linearGradient>
<radialGradient id="paint24_radial" cx="0" cy="0" r="1" gradientUnits="userSpaceOnUse" gradientTransform="translate(522.609 19.1675) rotate(138.026) scale(263.536 302.428)">
<stop stop-color="#EDF3FD"/>
<stop offset="0.40887" stop-color="#DCE8FB"/>
<stop offset="1" stop-color="#AEBDD8"/>
</radialGradient>
<linearGradient id="paint25_linear" x1="864.751" y1="193.164" x2="870.322" y2="66.7481" gradientUnits="userSpaceOnUse">
<stop stop-color="white"/>
<stop offset="1" stop-color="#D4E1F8" stop-opacity="0.01"/>
</linearGradient>
<linearGradient id="paint26_linear" x1="432.864" y1="58.0434" x2="390.811" y2="115.529" gradientUnits="userSpaceOnUse">
<stop stop-color="#DDFFB1"/>
<stop offset="0.533766" stop-color="#5CDB8E"/>
<stop offset="1" stop-color="#19AC61"/>
</linearGradient>
<linearGradient id="paint27_linear" x1="466.861" y1="95.3783" x2="451.584" y2="121.161" gradientUnits="userSpaceOnUse">
<stop stop-color="#CBDAF1"/>
<stop offset="1" stop-color="#7089B9"/>
</linearGradient>
<linearGradient id="paint28_linear" x1="500.049" y1="95.3783" x2="484.772" y2="121.161" gradientUnits="userSpaceOnUse">
<stop stop-color="#CBDAF1"/>
<stop offset="1" stop-color="#7089B9"/>
</linearGradient>
<linearGradient id="paint29_linear" x1="566.564" y1="95.3783" x2="551.287" y2="121.161" gradientUnits="userSpaceOnUse">
<stop stop-color="#CBDAF1"/>
<stop offset="1" stop-color="#7089B9"/>
</linearGradient>
<radialGradient id="paint30_radial" cx="0" cy="0" r="1" gradientUnits="userSpaceOnUse" gradientTransform="translate(542.193 106.332) rotate(116.777) scale(25.1645 46.8673)">
<stop stop-color="#CBDAF1"/>
<stop offset="1" stop-color="#7089B9"/>
</radialGradient>
<linearGradient id="paint31_linear" x1="534.401" y1="23.6011" x2="481.083" y2="84.7822" gradientUnits="userSpaceOnUse">
<stop stop-color="#CBDAF1"/>
<stop offset="1" stop-color="#7089B9"/>
</linearGradient>
<linearGradient id="paint32_linear" x1="497.614" y1="84.8274" x2="497.614" y2="42.6404" gradientUnits="userSpaceOnUse">
<stop stop-color="#FDE76B"/>
<stop offset="1" stop-color="#FAB539"/>
</linearGradient>
<linearGradient id="paint33_linear" x1="514.126" y1="82.009" x2="514.126" y2="49.7483" gradientUnits="userSpaceOnUse">
<stop stop-color="#FDE76B"/>
<stop offset="1" stop-color="#FAB539"/>
</linearGradient>
<linearGradient id="paint34_linear" x1="530.309" y1="79.7672" x2="530.309" y2="55.3649" gradientUnits="userSpaceOnUse">
<stop stop-color="#FDE76B"/>
<stop offset="1" stop-color="#FAB539"/>
</linearGradient>
<linearGradient id="paint35_linear" x1="301.935" y1="3.56535" x2="266.573" y2="49.3469" gradientUnits="userSpaceOnUse">
<stop stop-color="#CBDAF1"/>
<stop offset="1" stop-color="#7089B9"/>
</linearGradient>
<linearGradient id="paint36_linear" x1="300.935" y1="68.7431" x2="265.573" y2="114.525" gradientUnits="userSpaceOnUse">
<stop stop-color="#CBDAF1"/>
<stop offset="1" stop-color="#7089B9"/>
</linearGradient>
<linearGradient id="paint37_linear" x1="355.133" y1="69.7431" x2="319.771" y2="115.525" gradientUnits="userSpaceOnUse">
<stop stop-color="#CBDAF1"/>
<stop offset="1" stop-color="#7089B9"/>
</linearGradient>
<linearGradient id="paint38_linear" x1="360.71" y1="21.6248" x2="345.854" y2="46.2318" gradientUnits="userSpaceOnUse">
<stop stop-color="#CBDAF1"/>
<stop offset="1" stop-color="#7089B9"/>
</linearGradient>
<linearGradient id="paint39_linear" x1="360.706" y1="21.975" x2="345.85" y2="46.582" gradientUnits="userSpaceOnUse">
<stop stop-color="#CBDAF1"/>
<stop offset="1" stop-color="#7089B9"/>
</linearGradient>
<linearGradient id="paint40_linear" x1="459.215" y1="23.9312" x2="405.897" y2="85.1122" gradientUnits="userSpaceOnUse">
<stop stop-color="#CBDAF1"/>
<stop offset="1" stop-color="#7089B9"/>
</linearGradient>
<linearGradient id="paint41_linear" x1="186.828" y1="250.078" x2="186.828" y2="257.429" gradientUnits="userSpaceOnUse">
<stop stop-color="#003F9B"/>
<stop offset="1" stop-color="#3D82F0"/>
</linearGradient>
<linearGradient id="paint42_linear" x1="228.176" y1="226.496" x2="228.176" y2="237.522" gradientUnits="userSpaceOnUse">
<stop stop-color="#003F9B"/>
<stop offset="1" stop-color="#3D82F0"/>
</linearGradient>
<linearGradient id="paint43_linear" x1="199.934" y1="203.83" x2="222.606" y2="215.709" gradientUnits="userSpaceOnUse">
<stop stop-color="#6A89BB"/>
<stop offset="1" stop-color="#839ED6"/>
</linearGradient>
<linearGradient id="paint44_linear" x1="252.429" y1="80.2203" x2="189.725" y2="83.9881" gradientUnits="userSpaceOnUse">
<stop stop-color="#CFDDF3"/>
<stop offset="1" stop-color="#A1B8E3"/>
</linearGradient>
<linearGradient id="paint45_linear" x1="220.095" y1="151.12" x2="219.927" y2="146.573" gradientUnits="userSpaceOnUse">
<stop stop-color="#CFDDF3" stop-opacity="0.477723"/>
<stop offset="1" stop-color="#A1B8E3"/>
</linearGradient>
<linearGradient id="paint46_linear" x1="198.215" y1="156.307" x2="192.191" y2="158.148" gradientUnits="userSpaceOnUse">
<stop stop-color="#CFDDF3" stop-opacity="0.174423"/>
<stop offset="1" stop-color="#5477B8"/>
</linearGradient>
<radialGradient id="paint47_radial" cx="0" cy="0" r="1" gradientUnits="userSpaceOnUse" gradientTransform="translate(221.472 251.723) rotate(20.6826) scale(9.86771 29.2676)">
<stop stop-color="#47689B"/>
<stop offset="1" stop-color="#223762"/>
</radialGradient>
<radialGradient id="paint48_radial" cx="0" cy="0" r="1" gradientUnits="userSpaceOnUse" gradientTransform="translate(168.757 261.105) rotate(60.0047) scale(10.1288 30.467)">
<stop stop-color="#47689B"/>
<stop offset="1" stop-color="#223762"/>
</radialGradient>
<linearGradient id="paint49_linear" x1="155.361" y1="82.1695" x2="174.242" y2="82.1695" gradientUnits="userSpaceOnUse">
<stop stop-color="#70B8F9"/>
<stop offset="1" stop-color="#3D82F0"/>
</linearGradient>
<linearGradient id="paint50_linear" x1="139.412" y1="98.919" x2="135.112" y2="102.265" gradientUnits="userSpaceOnUse">
<stop stop-color="#2F71DA"/>
<stop offset="1" stop-color="#3D82F0"/>
</linearGradient>
<linearGradient id="paint51_linear" x1="143.293" y1="102.277" x2="143.293" y2="82.3105" gradientUnits="userSpaceOnUse">
<stop stop-color="#EDF3FD"/>
<stop offset="1" stop-color="white"/>
</linearGradient>
<linearGradient id="paint52_linear" x1="137.877" y1="92.4056" x2="137.877" y2="104.338" gradientUnits="userSpaceOnUse">
<stop stop-color="#70B8F9"/>
<stop offset="1" stop-color="#3D82F0"/>
</linearGradient>
<linearGradient id="paint53_linear" x1="173.027" y1="111.868" x2="186.639" y2="108.25" gradientUnits="userSpaceOnUse">
<stop stop-color="#CFDDF3"/>
<stop offset="1" stop-color="#A1B8E3"/>
</linearGradient>
<linearGradient id="paint54_linear" x1="187.39" y1="153.943" x2="219.952" y2="140.082" gradientUnits="userSpaceOnUse">
<stop stop-color="#EDF3FD"/>
<stop offset="1" stop-color="#D6E3FA"/>
</linearGradient>
<linearGradient id="paint55_linear" x1="195.317" y1="176.899" x2="210.355" y2="175.291" gradientUnits="userSpaceOnUse">
<stop stop-color="#D1DEF3" stop-opacity="0.126387"/>
<stop offset="1" stop-color="#A4BAE4"/>
</linearGradient>
<radialGradient id="paint56_radial" cx="0" cy="0" r="1" gradientUnits="userSpaceOnUse" gradientTransform="translate(176.803 36) rotate(90) scale(14.531 41.9401)">
<stop stop-color="#47689B"/>
<stop offset="1" stop-color="#223762"/>
</radialGradient>
<linearGradient id="paint57_linear" x1="210.22" y1="128.372" x2="196.602" y2="128.113" gradientUnits="userSpaceOnUse">
<stop stop-color="#0060C9"/>
<stop offset="1" stop-color="#3D82F0"/>
</linearGradient>
<linearGradient id="paint58_linear" x1="201.572" y1="128.357" x2="219.744" y2="119.209" gradientUnits="userSpaceOnUse">
<stop stop-color="#E3EDFE"/>
<stop offset="1" stop-color="#B8C8E6"/>
</linearGradient>
<linearGradient id="paint59_linear" x1="190.527" y1="98.9952" x2="180.658" y2="99.9509" gradientUnits="userSpaceOnUse">
<stop stop-color="#D2DFF5" stop-opacity="0.542714"/>
<stop offset="1" stop-color="#C5D5F5"/>
</linearGradient>
<linearGradient id="paint60_linear" x1="131.39" y1="66.6161" x2="131.39" y2="74.8858" gradientUnits="userSpaceOnUse">
<stop stop-color="#FFB417"/>
<stop offset="1" stop-color="#FECC4C"/>
</linearGradient>
<linearGradient id="paint61_linear" x1="137.822" y1="66.6145" x2="137.822" y2="74.8842" gradientUnits="userSpaceOnUse">
<stop stop-color="#FFB417"/>
<stop offset="1" stop-color="#FECC4C"/>
</linearGradient>
<linearGradient id="paint62_linear" x1="140.885" y1="73.6603" x2="140.885" y2="79.1735" gradientUnits="userSpaceOnUse">
<stop stop-color="#FFB417"/>
<stop offset="1" stop-color="#FECC4C"/>
</linearGradient>
<linearGradient id="paint63_linear" x1="154.998" y1="56.9215" x2="121.48" y2="87.7677" gradientUnits="userSpaceOnUse">
<stop stop-color="white" stop-opacity="0.01"/>
<stop offset="1" stop-color="#4C9CFE"/>
</linearGradient>
</defs>
</svg>
