<svg width="670" height="268" viewBox="0 0 670 268" fill="none" xmlns="http://www.w3.org/2000/svg">
<mask id="mask0" mask-type="alpha" maskUnits="userSpaceOnUse" x="0" y="0" width="670" height="268">
<rect width="670" height="268" fill="#C4C4C4"/>
</mask>
<g mask="url(#mask0)">
<path opacity="0.2" fill-rule="evenodd" clip-rule="evenodd" d="M427.402 37.0443C395.109 2.61833 327.469 -10.1936 257.959 8.79945C171.747 32.3566 115.305 95.9191 131.892 150.771C145.501 195.773 204.039 220.93 272.234 215.505C304.932 240.376 359.985 248.589 416.118 233.251C494.859 211.736 545.909 152.025 530.141 99.8833C519.08 63.3063 478.077 40.1705 427.402 37.0443Z" fill="#D4E1F8"/>
<mask id="mask1" mask-type="alpha" maskUnits="userSpaceOnUse" x="129" y="0" width="404" height="241">
<path fill-rule="evenodd" clip-rule="evenodd" d="M427.402 37.0443C395.109 2.61833 327.469 -10.1936 257.959 8.79945C171.747 32.3566 115.305 95.9191 131.892 150.771C145.501 195.773 204.039 220.93 272.234 215.505C304.932 240.376 359.985 248.589 416.118 233.251C494.859 211.736 545.909 152.025 530.141 99.8833C519.08 63.3063 478.077 40.1705 427.402 37.0443Z" fill="white"/>
</mask>
<g mask="url(#mask1)">
<path fill-rule="evenodd" clip-rule="evenodd" d="M372.039 59.3309C371.573 45.8326 336.752 48.8753 323.32 50.1775C309.888 51.4797 308.668 32.9881 320.257 30.2395C331.847 27.4908 352.863 28.9093 363.752 26.3721C374.641 23.8348 360.867 10.2274 375.704 8.58718C390.541 6.9471 421.22 8.4656 430.366 8.13239C444.732 7.60903 452.102 25.077 426.934 25.8697C419.993 26.0882 418.601 41.6065 442.029 37.3438C456.731 34.6688 485.576 34.607 491.577 41.4366C495.02 45.355 493.827 55.8825 487.908 61.6957C483.511 66.0141 469.528 66.8561 464.05 67.8543C451.199 70.1964 453.739 82.7643 458.121 85.3521C468.491 91.4756 496.95 79.9188 497.713 96.7339C498.05 104.164 472.155 105.364 461.538 105.273C435.497 105.051 418.388 107.394 417.187 98.422C415.982 89.415 433.369 95.4944 432.512 84.4215C432.064 78.6352 433.264 66.3399 422.109 66.9853C437.382 66.1016 372.669 77.5617 372.039 59.3309Z" fill="url(#paint0_linear)"/>
<g opacity="0.3">
<path fill-rule="evenodd" clip-rule="evenodd" d="M246.424 157.074C246.194 157.62 246.445 158.252 246.986 158.484C251.693 160.511 256.1 164.362 259.651 168.258C263.193 172.144 265.81 175.992 266.949 177.907C267.252 178.415 267.906 178.58 268.409 178.274C268.913 177.969 269.076 177.308 268.774 176.799C267.567 174.771 264.864 170.804 261.217 166.802C257.58 162.813 252.931 158.707 247.821 156.507C247.28 156.274 246.655 156.528 246.424 157.074Z" fill="url(#paint1_linear)"/>
<path fill-rule="evenodd" clip-rule="evenodd" d="M270.535 124.08C271.12 124.131 271.554 124.651 271.504 125.243C271.026 130.858 268.359 136.084 266.225 140.245L266.171 140.35C265.106 142.427 264.197 144.197 263.679 145.689C263.136 147.254 263.152 148.159 263.474 148.7C263.776 149.208 263.613 149.869 263.11 150.174C262.606 150.48 261.952 150.315 261.649 149.807C260.798 148.375 261.099 146.624 261.671 144.978C262.24 143.34 263.208 141.452 264.231 139.459C264.266 139.391 264.301 139.324 264.335 139.256C266.5 135.036 268.947 130.182 269.384 125.059C269.434 124.467 269.949 124.029 270.535 124.08Z" fill="url(#paint2_linear)"/>
</g>
<g opacity="0.3">
<path fill-rule="evenodd" clip-rule="evenodd" d="M459.908 155.419C460.402 155.739 460.546 156.404 460.229 156.903C452.431 169.183 445.725 186.529 440.997 202.654C436.261 218.804 433.564 233.546 433.686 240.612C433.696 241.205 433.228 241.695 432.64 241.705C432.053 241.715 431.568 241.243 431.558 240.649C431.43 233.235 434.211 218.226 438.956 202.043C443.709 185.836 450.483 168.268 458.438 155.743C458.755 155.243 459.413 155.098 459.908 155.419Z" fill="url(#paint3_linear)"/>
<path fill-rule="evenodd" clip-rule="evenodd" d="M451.961 163.273C451.961 163.273 452.516 156.053 448.805 149.814C445.093 143.575 440.489 139.486 438.52 140.68C436.552 141.875 437.965 147.901 441.676 154.14C445.388 160.379 451.961 163.273 451.961 163.273Z" fill="url(#paint4_linear)"/>
<path fill-rule="evenodd" clip-rule="evenodd" d="M456.147 165.693C456.147 165.693 462.199 169.578 469.395 169.198C476.592 168.817 482.328 166.63 482.208 164.314C482.088 161.997 476.156 160.428 468.96 160.809C461.764 161.19 456.147 165.693 456.147 165.693Z" fill="url(#paint5_linear)"/>
<path fill-rule="evenodd" clip-rule="evenodd" d="M448.718 184.254C448.718 184.254 454.56 188.454 461.766 188.454C468.973 188.454 474.814 186.573 474.814 184.254C474.814 181.934 468.973 180.054 461.766 180.054C454.56 180.054 448.718 184.254 448.718 184.254Z" fill="url(#paint6_linear)"/>
<path fill-rule="evenodd" clip-rule="evenodd" d="M442.73 202.9C442.73 202.9 448.572 207.1 455.778 207.1C462.984 207.1 468.826 205.22 468.826 202.9C468.826 200.581 462.984 198.7 455.778 198.7C448.572 198.7 442.73 202.9 442.73 202.9Z" fill="url(#paint7_linear)"/>
<path fill-rule="evenodd" clip-rule="evenodd" d="M460.654 153.537C460.654 153.537 467.277 150.759 471.096 144.587C474.916 138.414 476.433 132.415 474.486 131.186C472.538 129.957 467.863 133.964 464.043 140.136C460.224 146.308 460.654 153.537 460.654 153.537Z" fill="url(#paint8_linear)"/>
<path fill-rule="evenodd" clip-rule="evenodd" d="M444.007 182.172C444.007 182.172 443.188 174.977 438.366 169.568C433.544 164.159 428.252 161.033 426.545 162.585C424.839 164.137 427.364 169.78 432.186 175.189C437.008 180.598 444.007 182.172 444.007 182.172Z" fill="url(#paint9_linear)"/>
<path fill-rule="evenodd" clip-rule="evenodd" d="M437.581 201.606C437.581 201.606 436.022 194.537 430.667 189.666C425.311 184.796 419.724 182.245 418.188 183.969C416.651 185.693 419.747 191.038 425.102 195.908C430.457 200.779 437.581 201.606 437.581 201.606Z" fill="url(#paint10_linear)"/>
</g>
<path opacity="0.472712" fill-rule="evenodd" clip-rule="evenodd" d="M302.234 36.1306C302.71 36.7591 302.592 37.6585 301.969 38.1394L265.968 65.9647C265.345 66.4457 264.455 66.3261 263.979 65.6975C263.502 65.069 263.621 64.1696 264.243 63.6887L300.245 35.8634C300.867 35.3824 301.758 35.5021 302.234 36.1306Z" fill="url(#paint11_linear)"/>
<path opacity="0.472712" fill-rule="evenodd" clip-rule="evenodd" d="M294.983 55.9804C295.459 56.6089 295.341 57.5083 294.718 57.9893L266.322 79.9365C265.7 80.4174 264.809 80.2978 264.333 79.6693C263.857 79.0408 263.975 78.1414 264.598 77.6604L292.994 55.7132C293.616 55.2323 294.507 55.3519 294.983 55.9804Z" fill="url(#paint12_linear)"/>
<path opacity="0.472712" fill-rule="evenodd" clip-rule="evenodd" d="M455.106 93.4502C455.582 94.0787 455.464 94.9781 454.841 95.459L418.84 123.284C418.217 123.765 417.327 123.646 416.851 123.017C416.375 122.389 416.493 121.489 417.115 121.008L453.117 93.183C453.739 92.702 454.63 92.8217 455.106 93.4502Z" fill="url(#paint13_linear)"/>
<path opacity="0.472712" fill-rule="evenodd" clip-rule="evenodd" d="M447.854 113.3C448.33 113.929 448.212 114.828 447.589 115.309L419.193 137.256C418.571 137.737 417.68 137.617 417.204 136.989C416.728 136.36 416.846 135.461 417.469 134.98L445.865 113.033C446.487 112.552 447.378 112.672 447.854 113.3Z" fill="url(#paint14_linear)"/>
</g>
<path opacity="0.34" fill-rule="evenodd" clip-rule="evenodd" d="M302.015 268C358.921 268 405.053 265.754 405.053 262.984C405.053 260.214 358.921 257.969 302.015 257.969C245.109 257.969 198.978 260.214 198.978 262.984C198.978 265.754 245.109 268 302.015 268Z" fill="#E2EBFC"/>
<path d="M112.215 74.2001L143.881 42.2172C144.167 41.9276 144.632 41.9276 144.919 42.2172L168.279 65.8112C168.565 66.1007 168.565 66.5702 168.279 66.8598L136.613 98.8427C136.326 99.1323 135.862 99.1323 135.575 98.8427L112.215 75.2488C111.928 74.9592 111.928 74.4897 112.215 74.2001Z" fill="url(#paint15_linear)"/>
<path d="M148.551 78.919C145.254 82.249 139.908 82.249 136.611 78.919C133.314 75.5889 133.314 70.1899 136.611 66.8598C139.908 63.5298 145.254 63.5298 148.551 66.8598C151.848 70.1899 151.848 75.5889 148.551 78.919Z" fill="url(#paint16_linear)"/>
<path d="M140.114 71.4783L144.356 70.1571C144.744 70.0365 145.154 70.2559 145.274 70.6472C145.317 70.7896 145.317 70.9419 145.274 71.0842L143.966 75.3684C143.846 75.7597 143.435 75.9791 143.048 75.8584C142.934 75.8228 142.83 75.7596 142.745 75.6742L139.812 72.7112C139.525 72.4216 139.525 71.9522 139.812 71.6626C139.896 71.5772 140 71.5139 140.114 71.4783Z" fill="white"/>
<path d="M112.215 74.2001L143.881 42.2172C144.167 41.9276 144.632 41.9276 144.919 42.2172L147.774 45.1009L115.07 78.1325L112.215 75.2488C111.928 74.9592 111.928 74.4897 112.215 74.2001Z" fill="url(#paint17_linear)"/>
<path d="M116.107 74.9864C115.82 75.2759 115.355 75.2759 115.069 74.9864C114.782 74.6969 114.782 74.2276 115.069 73.9381C115.355 73.6486 115.82 73.6486 116.107 73.9381C116.393 74.2276 116.393 74.6969 116.107 74.9864Z" fill="white"/>
<path d="M117.925 73.1512C117.638 73.4407 117.174 73.4407 116.887 73.1512C116.6 72.8617 116.6 72.3924 116.887 72.1029C117.174 71.8134 117.638 71.8134 117.925 72.1029C118.212 72.3924 118.212 72.8617 117.925 73.1512Z" fill="white"/>
<path d="M165.243 205.568C165.243 205.568 170.24 201.287 173.906 198.597C177.572 195.907 182.331 195.648 184.71 196.301C187.391 198.323 194.4 203.831 197.29 206.672C195.586 207.006 194.072 207.006 191.812 207.6C183.688 209.736 180.819 216.935 179.734 217.39C177.71 218.238 178.567 217.848 177.345 218.01C176.123 218.172 165.243 205.568 165.243 205.568Z" fill="url(#paint18_linear)"/>
<path d="M165.719 202.881C165.719 202.881 161.117 207.805 163.887 209.748C165.873 211.142 172.007 215.267 174.833 217.02C177.573 218.719 179.89 217.137 179.89 217.137C179.89 217.137 176.868 218.41 175.987 216.06C175.107 213.709 178.413 211.281 178.413 211.281L165.719 202.881Z" fill="url(#paint19_linear)"/>
<path d="M393.092 218.951C394.053 218.099 394.042 216.595 393.07 215.756C390.945 213.92 387.426 210.932 385.089 209.218C381.547 206.618 376.948 206.368 374.65 206.999C372.059 208.953 365.286 214.275 362.494 217.02C364.141 217.343 365.603 217.343 367.787 217.917C375.637 219.981 378.409 226.937 379.458 227.377C381.413 228.197 380.586 227.82 381.767 227.976C382.66 228.095 389.709 221.952 393.092 218.951Z" fill="url(#paint20_linear)"/>
<path d="M549.627 177.52L518.977 155.981C518.977 155.981 506.783 183.368 482.943 194.927L509.17 219.866C509.17 219.866 539.949 208.336 549.627 177.52Z" fill="url(#paint21_linear)"/>
<g opacity="0.517119">
<path d="M497.847 193.173L495.457 194.798L514.951 211.066L517.869 209.491L497.847 193.173Z" fill="#C5D7F3" style="mix-blend-mode:multiply"/>
</g>
<g opacity="0.517119">
<path d="M518.246 166.753L541.245 181.444L539.685 183.95L516.791 169.295L518.246 166.753Z" fill="#C5D7F3" style="mix-blend-mode:multiply"/>
</g>
<g opacity="0.517119">
<path d="M514.794 172.773L537.792 187.464L536.233 189.97L513.339 175.315L514.794 172.773Z" fill="#C5D7F3" style="mix-blend-mode:multiply"/>
</g>
<g opacity="0.517119">
<path d="M522.401 186.872L533.96 194.082L532.4 196.587L520.946 189.414L522.401 186.872Z" fill="#C5D7F3" style="mix-blend-mode:multiply"/>
</g>
<g opacity="0.517119">
<path d="M511.586 177.791L519.056 183.493C518.859 183.975 518.603 184.523 518.288 185.137C516.845 187.945 514.809 190.395 512.325 192.311C511.314 193.092 510.463 193.772 509.774 194.352L502.089 188.251C502.463 188.026 502.879 187.768 503.336 187.479C506.538 185.454 509.149 182.597 510.9 179.203C511.163 178.693 511.391 178.223 511.586 177.791Z" fill="#C5D7F3" style="mix-blend-mode:multiply"/>
</g>
<g opacity="0.517119">
<path d="M518.123 192.071L528.475 200.41C527.283 202.216 525.951 203.743 524.479 204.989C523.007 206.236 521.456 207.151 519.826 207.735L509.325 199.557C511.538 198.229 513.285 197.015 514.566 195.914C515.847 194.813 517.032 193.532 518.123 192.071Z" fill="#C5D7F3" style="mix-blend-mode:multiply"/>
</g>
<path d="M243.014 204.622C243.014 204.622 243.014 194.427 246.45 187.994C246.45 187.994 259.348 205.364 273.736 203.719C274.031 212.39 267.361 240.205 297.869 245.232C288.921 245.232 281.826 241.73 281.826 241.73C281.826 241.73 259.174 232.021 251.461 224.068C243.748 216.115 243.014 204.622 243.014 204.622Z" fill="url(#paint22_linear)"/>
<path d="M242.882 203.734C242.882 203.734 245.033 226.496 267.446 216.447C267.446 216.447 275.193 241.366 299.924 245.154C299.924 245.154 274.334 244.731 259.285 233.804C244.236 222.876 242.882 203.734 242.882 203.734Z" fill="#A1B8E3"/>
<path d="M531.319 89.97C530.69 84.7007 528.311 79.9757 524.786 76.4059C523.55 74.9312 521.885 73.6392 519.757 72.5501C517.954 71.5282 516.002 70.745 513.94 70.2429C514.011 67.8735 515.63 56.4931 517.309 45.0371C548.069 49.4236 541.972 78.6549 539.664 83.1181C538.629 85.1196 535.848 87.4036 531.319 89.97V89.97Z" fill="url(#paint23_linear)"/>
<path fill-rule="evenodd" clip-rule="evenodd" d="M517.279 44.9946C531.498 46.9259 542.305 56.5533 542.305 68.1391C542.305 72.8662 540.506 77.2673 537.41 80.9527C538.943 78.1407 539.791 75.049 539.791 71.8037C539.791 60.7522 529.958 51.4828 516.711 48.975L517.279 44.9946Z" fill="url(#paint24_linear)"/>
<path d="M519.863 48.6176C520.37 48.6176 520.781 48.2028 520.781 47.691C520.781 47.1793 520.37 46.7644 519.863 46.7644C519.356 46.7644 518.945 47.1793 518.945 47.691C518.945 48.2028 519.356 48.6176 519.863 48.6176Z" fill="url(#paint25_linear)"/>
<path d="M523.02 49.5239C523.527 49.5239 523.938 49.109 523.938 48.5973C523.938 48.0855 523.527 47.6707 523.02 47.6707C522.513 47.6707 522.103 48.0855 522.103 48.5973C522.103 49.109 522.513 49.5239 523.02 49.5239Z" fill="url(#paint26_linear)"/>
<path d="M517.403 91.2667C528.928 89.6628 538.191 82.9997 541.237 74.3455C541.466 74.0763 541.589 73.93 541.595 73.9347C541.595 98.9625 533.531 113.207 517.403 116.668V91.2667H517.403Z" fill="#A1B8E3"/>
<path d="M213.346 12.8248L238.45 33.3567C238.922 33.7432 238.995 34.4436 238.612 34.921L224.243 52.8438C223.86 53.3212 223.167 53.3948 222.694 53.0083L197.591 32.4764C197.118 32.0898 197.045 31.3895 197.428 30.9121L211.798 12.9892C212.18 12.5118 212.874 12.4382 213.346 12.8248Z" fill="url(#paint27_linear)"/>
<path d="M197.8 32.4046C197.72 32.3392 197.671 32.2428 197.665 32.139C197.652 31.9347 197.806 31.7589 198.009 31.7464L219.213 30.4408C219.779 30.406 220.278 30.811 220.367 31.3766L223.731 52.7819C223.747 52.8857 223.719 52.9916 223.654 53.0733C223.526 53.2324 223.295 53.257 223.138 53.1281L197.8 32.4046Z" fill="url(#paint28_linear)"/>
<path d="M213.189 12.6957L238.613 33.4897C238.77 33.6185 238.794 33.852 238.667 34.0111C238.605 34.088 238.516 34.1368 238.418 34.1467L216.335 36.387C215.736 36.4478 215.199 36.0112 215.131 35.4069L212.593 13.026C212.57 12.8225 212.715 12.6387 212.916 12.6154C213.014 12.6041 213.112 12.633 213.189 12.6957Z" fill="url(#paint29_linear)"/>
<path d="M390.231 41.9013C390.23 41.9005 390.229 41.8997 390.228 41.8989C389.912 41.6422 389.862 41.1755 390.116 40.8564L394.892 34.8609C395.13 34.5611 395.556 34.4956 395.873 34.7099L397.571 35.8608C397.852 36.0513 398.226 36.0229 398.476 35.7919L418.794 17.0051C418.798 17.0016 418.802 16.9981 418.806 16.9946C419.11 16.7246 419.574 16.7552 419.842 17.0631L435.101 34.6316C435.357 34.9265 435.342 35.3717 435.066 35.6476L412.079 58.6294C411.815 58.8937 411.396 58.9165 411.105 58.6826L390.231 41.9013Z" fill="#A1B8E3"/>
<path d="M410.999 58.634L398.097 42.5665C397.858 42.269 397.882 41.8367 398.154 41.569L424.867 15.2094C425.157 14.9232 425.622 14.9287 425.906 15.2216C425.96 15.2777 426.005 15.3422 426.039 15.4126L435.498 34.8404C435.638 35.1279 435.579 35.4736 435.353 35.6976L412.082 58.6969C411.792 58.9834 411.328 58.9783 411.044 58.6856C411.028 58.6691 411.013 58.6519 410.999 58.634Z" fill="url(#paint30_linear)"/>
<path d="M411.554 56.1985L410.842 55.433L417.745 48.7854L418.305 49.6698L411.554 56.1985Z" fill="#A1B8E3"/>
<path d="M293.371 116.185L303.97 110.464L305.496 110.464C305.869 110.464 306.188 110.733 306.255 111.104L311.743 141.48C311.819 141.904 311.541 142.31 311.122 142.387C311.086 142.394 311.05 142.398 311.014 142.399L298.305 142.91C297.92 142.925 297.583 142.652 297.515 142.27L292.975 117.012C292.915 116.679 293.075 116.345 293.371 116.185Z" fill="url(#paint31_linear)"/>
<path d="M291.867 116.199L303.815 110.54C304.202 110.357 304.661 110.525 304.842 110.915C304.871 110.977 304.892 111.043 304.904 111.111L310.214 141.531C310.288 141.955 310.008 142.359 309.588 142.434C309.567 142.438 309.547 142.44 309.526 142.442L296.801 143.649C296.4 143.687 296.038 143.408 295.968 143.008L291.435 117.041C291.374 116.694 291.551 116.349 291.867 116.199Z" fill="url(#paint32_linear)"/>
<path d="M293.057 118.918L303.721 114.04C303.915 113.951 304.144 114.038 304.232 114.235C304.245 114.264 304.255 114.296 304.26 114.328L308.627 139.34C308.664 139.552 308.524 139.755 308.314 139.792C308.304 139.794 308.294 139.795 308.284 139.796L296.965 140.918C296.764 140.938 296.582 140.799 296.547 140.598L292.836 119.341C292.805 119.166 292.896 118.992 293.057 118.918Z" fill="url(#paint33_linear)"/>
<path d="M291.163 149.92L285.645 149.193C287.935 145.246 289.405 141.666 290.056 138.451C290.752 136.551 289.916 136.119 290.587 133.357C290.962 131.813 291.721 129.821 293.582 129.349C293.81 131.026 294.03 131.994 294.26 133.357C294.491 134.72 295.096 131.596 296.614 131.994C298.132 132.393 295.142 135.367 295.142 136.63C295.142 138.645 294.698 139.984 293.81 140.646L291.163 149.92Z" fill="url(#paint34_linear)"/>
<g filter="url(#filter0_i)">
<path d="M283.8 149.42C283.8 149.42 288.656 142.924 288.656 142.1C288.656 141.276 293.985 141.331 293.985 143.156C293.985 144.98 291.95 152.403 290.978 153.031C290.006 153.658 283.183 153.638 283.183 153.638L283.8 149.42Z" fill="url(#paint35_linear)"/>
</g>
<g filter="url(#filter1_i)">
<path d="M288.541 151.84C288.541 151.84 312.272 151.822 318.2 142.37C324.128 132.918 321.743 128.297 326.226 126.701C330.71 125.104 336.961 131.749 338.858 135.015C340.754 138.281 347.886 173.4 347.886 173.4L293.053 166.317L288.541 151.84Z" fill="url(#paint36_linear)"/>
</g>
<path d="M323.335 137.649L324.036 140.289C324.202 140.914 323.834 141.556 323.216 141.724C322.597 141.891 321.961 141.52 321.795 140.896L321.095 138.255C321.095 138.255 320.658 138.327 320.437 138.433C320.143 138.576 322.26 133.435 322.26 133.595C322.26 134.282 322.735 135.386 322.735 135.386L325.349 134.679C325.968 134.511 326.604 134.882 326.769 135.507C326.935 136.132 326.568 136.774 325.949 136.942L323.335 137.649Z" fill="white"/>
<path d="M286.344 154.067C286.344 154.067 314.89 152.333 322.741 144.215C326.249 140.588 328.071 139.234 328.088 135.251C328.106 131.268 323.396 130.098 326.249 127.821C330.589 124.356 343.246 137.191 344.472 139.303C346.368 142.569 347.886 185.097 347.886 185.097L293.054 178.015L286.344 154.067Z" fill="url(#paint37_linear)" style="mix-blend-mode:multiply"/>
<path fill-rule="evenodd" clip-rule="evenodd" d="M272.273 150.092C272.273 150.092 268.33 148.187 265.757 143.338C265.757 143.338 254.672 136.52 253.986 146.565C255.299 151.649 267.225 162.21 267.225 162.21L268.077 162.747L276.903 154.422L272.273 150.092Z" fill="url(#paint38_linear)"/>
<path fill-rule="evenodd" clip-rule="evenodd" d="M262.157 128.415C261.535 125.692 260.33 123.766 258.543 122.639C257.889 124.556 256.494 126.095 254.356 127.255C252.219 128.416 249.004 129.165 244.713 129.504C246.819 132.984 246.865 136.049 244.849 138.7C243.142 138.398 240.183 139.788 242.681 143.546C244.345 146.051 246.068 146.421 247.849 144.657L256.105 150.674C264.6 152.003 268.811 150.359 269.481 147.555C269.92 145.718 269.164 142.348 267.214 137.444C268.382 136.102 268.879 134.337 266.533 134.088C266.081 134.04 265.64 133.95 265.215 133.83L262.157 128.415Z" fill="url(#paint39_linear)"/>
<path fill-rule="evenodd" clip-rule="evenodd" d="M258.426 127.459C261.515 134.283 265.375 133.893 265.375 133.893C265.375 133.893 265.377 133.887 265.381 133.875C265.325 133.86 265.27 133.845 265.216 133.83L262.157 128.415C261.535 125.692 260.331 123.766 258.544 122.639C258.267 123.45 257.858 124.193 257.315 124.869C257.619 125.626 257.985 126.485 258.426 127.459Z" fill="url(#paint40_linear)"/>
<path fill-rule="evenodd" clip-rule="evenodd" d="M230.823 145.98C219.242 146.955 218.084 138.377 222.716 122C227.349 105.624 232.174 92.9512 214.995 84.178C197.816 75.4048 175.232 92.5613 191.639 113.422C208.046 134.283 202.449 147.735 219.242 151.829C236.035 155.923 240.089 146.955 240.089 146.955C240.089 146.955 234.447 149.613 230.823 145.98Z" fill="#223762"/>
<path fill-rule="evenodd" clip-rule="evenodd" d="M230.246 145.006C230.246 145.006 228.702 148.125 231.404 150.465C234.106 152.804 237.581 150.659 237.581 150.659L230.246 145.006Z" fill="#D6E3FA"/>
<path fill-rule="evenodd" clip-rule="evenodd" d="M258.619 122.78C257.975 127.329 254.758 130.319 248.968 131.748C249.611 135.388 249.161 137.857 247.616 139.157L248.775 142.276C246.973 140.457 245.622 139.547 244.721 139.547C243.37 139.547 241.053 141.301 242.984 143.836C244.271 145.526 245.879 145.786 247.809 144.616C251.026 145.266 254.951 147.54 259.584 151.439V154.364C257.075 155.534 225.032 155.585 227.156 134.868C227.469 131.813 227.961 129.033 228.633 126.528L228.633 126.528C231.654 115.27 243.138 108.617 254.284 111.668C255.596 112.027 256.87 112.514 258.088 113.123C262.534 115.345 264.977 119.898 262.093 128.434L261.572 126.856C261.032 125.219 260 123.795 258.619 122.78V122.78Z" fill="url(#paint41_radial)"/>
<path fill-rule="evenodd" clip-rule="evenodd" d="M194.148 97.0453C191.446 87.6872 203.414 82.0334 203.414 82.0334V81.9099C189.803 83.0855 178.82 97.1231 191.639 113.422C198.547 122.205 201.554 129.675 203.974 135.686C207.302 143.952 209.519 149.459 219.242 151.829C221.874 152.471 224.194 152.792 226.234 152.877C219.259 149.387 213.451 140.159 213.451 132.723C213.451 127.033 211.325 125.541 209.364 124.165C207.361 122.759 205.529 121.473 206.309 115.957C207.175 109.831 204.093 107.572 200.742 105.117C198.12 103.195 195.335 101.153 194.148 97.0453Z" fill="#223762"/>
<path d="M267.814 152.83C267.814 152.83 271.747 152.218 271.747 151.093C271.747 149.969 271.274 149.543 271.274 149.543C271.274 149.543 284.805 148.918 287.58 149.332C290.356 149.747 293.418 155.478 293.734 155.478C294.051 155.478 301.553 161.835 304.574 161.835C307.596 161.835 315.392 165.218 315.392 165.218L307.621 172.592L275.63 168.319L267.814 152.83Z" fill="url(#paint42_linear)"/>
<path d="M388.544 119.556C388.074 119.235 386.171 115.464 389.784 114.85C393.398 114.236 394.246 114.078 395.638 113.629C396.567 113.33 397.243 112.838 397.666 112.155L397.183 117.135L394.407 119.215C390.812 119.656 388.858 119.77 388.544 119.556Z" fill="url(#paint43_linear)"/>
<path d="M393.193 119.655C393.19 118.575 395.869 118.426 396.597 116.776C397.324 115.126 395.796 113.209 396.181 112.877C397.309 111.907 398.381 110.246 399.936 108.586C403.761 104.502 404.21 104.142 406.411 105.976C406.969 106.227 404.823 111.854 399.973 122.857C398.609 122.778 397.414 122.528 396.385 122.107C394.843 121.476 393.197 120.735 393.193 119.655Z" fill="url(#paint44_radial)"/>
<path d="M393.193 119.655C393.19 118.575 395.869 118.426 396.597 116.776C397.324 115.126 395.796 113.209 396.181 112.877C397.309 111.907 398.381 110.246 399.936 108.586C403.761 104.502 404.21 104.142 406.411 105.976C406.969 106.227 404.823 111.854 399.973 122.857C398.609 122.778 397.414 122.528 396.385 122.107C394.843 121.476 393.197 120.735 393.193 119.655Z" fill="url(#paint45_linear)"/>
<path d="M343.797 119.002C349.368 116.174 388.668 111.378 391.239 112.809C393.538 114.09 391.271 122.324 391.271 122.324C391.271 122.324 361.62 131.611 360.684 130.864C359.749 130.117 345.769 171.906 341.218 179.09C336.668 186.274 331.01 196.945 321.495 183.373C315.152 174.325 315.902 168.265 323.746 165.192C333.399 136.283 340.083 120.886 343.797 119.002Z" fill="#A1B8E3"/>
<path d="M343.797 119.002C349.368 116.174 388.668 111.378 391.239 112.809C393.538 114.09 391.271 122.324 391.271 122.324C391.271 122.324 361.62 131.611 360.684 130.864C359.749 130.117 345.769 171.906 341.218 179.09C336.668 186.274 331.01 196.945 321.495 183.373C315.152 174.325 315.902 168.265 323.746 165.192C333.399 136.283 340.083 120.886 343.797 119.002Z" fill="url(#paint46_linear)"/>
<path d="M343.797 119.002C349.368 116.174 388.668 111.378 391.239 112.809C393.538 114.09 391.271 122.324 391.271 122.324C391.271 122.324 361.62 131.611 360.684 130.864C359.749 130.117 345.769 171.906 341.218 179.09C336.668 186.274 331.01 196.945 321.495 183.373C315.152 174.325 315.902 168.265 323.746 165.192C333.399 136.283 340.083 120.886 343.797 119.002Z" fill="url(#paint47_linear)"/>
<path d="M399.073 96.0804C398.536 95.8931 395.731 92.748 399.065 91.2106C402.398 89.6732 403.176 89.2991 404.406 88.5011C405.226 87.9692 405.753 87.3178 405.987 86.5471L406.797 91.4836L404.648 94.2181C401.289 95.5845 399.431 96.2053 399.073 96.0804Z" fill="url(#paint48_linear)"/>
<path d="M352.743 112.224C358.344 105.765 397.297 88.6363 400.18 89.1955C402.759 89.6956 401.929 98.4251 401.929 98.4251C401.929 98.4251 388.937 103.65 367.865 119.815C366.2 141.002 364.658 154.346 363.238 159.848C361.108 168.1 353.424 190.535 340.223 180.597C331.422 173.971 329.748 164.651 335.199 152.635C343.162 130 349.01 116.529 352.743 112.224Z" fill="#A1B8E3"/>
<path d="M352.743 112.224C358.344 105.765 397.297 88.6363 400.18 89.1955C402.759 89.6956 401.929 98.4251 401.929 98.4251C401.929 98.4251 388.937 103.65 367.865 119.815C366.2 141.002 364.658 154.346 363.238 159.848C361.108 168.1 353.424 190.535 340.223 180.597C331.422 173.971 329.748 164.651 335.199 152.635C343.162 130 349.01 116.529 352.743 112.224Z" fill="url(#paint49_linear)"/>
<path d="M352.743 112.224C358.344 105.765 397.297 88.6363 400.18 89.1955C402.759 89.6956 401.929 98.4251 401.929 98.4251C401.929 98.4251 388.937 103.65 367.865 119.815C366.2 141.002 364.658 154.346 363.238 159.848C361.108 168.1 353.424 190.535 340.223 180.597C331.422 173.971 329.748 164.651 335.199 152.635C343.162 130 349.01 116.529 352.743 112.224Z" fill="url(#paint50_linear)"/>
<path d="M352.743 112.224C358.344 105.765 397.297 88.6363 400.18 89.1955C402.759 89.6956 401.929 98.4251 401.929 98.4251C401.929 98.4251 388.937 103.65 367.865 119.815C366.2 141.002 364.658 154.346 363.238 159.848C361.108 168.1 353.424 190.535 340.223 180.597C331.422 173.971 329.748 164.651 335.199 152.635C343.162 130 349.01 116.529 352.743 112.224Z" fill="url(#paint51_linear)"/>
<path d="M352.743 112.224C358.344 105.765 397.297 88.6363 400.18 89.1955C402.759 89.6956 401.929 98.4251 401.929 98.4251C401.929 98.4251 388.937 103.65 367.865 119.815C366.2 141.002 364.658 154.346 363.238 159.848C361.108 168.1 353.424 190.535 340.223 180.597C331.422 173.971 329.748 164.651 335.199 152.635C343.162 130 349.01 116.529 352.743 112.224Z" fill="url(#paint52_linear)"/>
<path d="M403.588 94.9607C403.308 93.9183 405.858 93.0736 406.137 91.2897C406.417 89.5059 404.45 88.0537 404.737 87.6324C405.577 86.4007 406.188 84.5157 407.264 82.5059C409.912 77.5613 410.254 77.0961 412.85 78.2923C413.453 78.3888 412.822 84.3853 410.957 96.2817C409.62 96.5612 408.4 96.6321 407.299 96.4944C405.648 96.2878 403.868 96.0031 403.588 94.9607Z" fill="url(#paint53_radial)"/>
<path d="M403.588 94.9607C403.308 93.9183 405.858 93.0736 406.137 91.2897C406.417 89.5059 404.45 88.0537 404.737 87.6324C405.577 86.4007 406.188 84.5157 407.264 82.5059C409.912 77.5613 410.254 77.0961 412.85 78.2923C413.453 78.3888 412.822 84.3853 410.957 96.2817C409.62 96.5612 408.4 96.6321 407.299 96.4944C405.648 96.2878 403.868 96.0031 403.588 94.9607Z" fill="url(#paint54_linear)"/>
<g filter="url(#filter2_i)">
<path d="M260.946 154.001C264.037 150.496 266.276 148.744 267.663 148.744C269.743 148.744 269.743 151.268 271.292 151.981C275.896 154.099 304.703 172.656 322.941 156.905C341.18 141.154 341.11 124.048 344.646 124.048C348.182 124.048 360.853 141.911 364.589 153.194C366.861 160.053 368.238 167.358 368.721 175.11C368.81 176.539 368.246 177.93 367.191 178.886C348.586 195.744 329.124 203.037 308.805 200.764C277.426 197.255 256.97 174.179 254.675 164.957C253.144 158.81 255.235 155.158 260.946 154.001Z" fill="url(#paint55_linear)"/>
</g>
<path fill-rule="evenodd" clip-rule="evenodd" d="M349.803 147.307L347.376 144.855L349.803 142.404C350.377 141.824 350.377 140.883 349.803 140.303C349.228 139.723 348.297 139.723 347.723 140.303L345.296 142.754L342.869 140.303C342.295 139.723 341.363 139.723 340.789 140.303C340.214 140.883 340.214 141.824 340.789 142.404L343.216 144.855L340.789 147.307C340.214 147.887 340.214 148.827 340.789 149.408C341.363 149.988 342.295 149.988 342.869 149.408L345.296 146.956L347.723 149.408C348.297 149.988 349.228 149.988 349.803 149.408C350.377 148.827 350.377 147.887 349.803 147.307ZM313.753 171.007L316.18 173.459C316.754 174.039 316.754 174.979 316.18 175.56C315.605 176.14 314.674 176.14 314.1 175.56L311.673 173.108L309.246 175.56C308.671 176.14 307.74 176.14 307.166 175.56C306.591 174.979 306.591 174.039 307.166 173.459L309.593 171.007L307.166 168.556C306.591 167.976 306.591 167.035 307.166 166.455C307.74 165.875 308.671 165.875 309.246 166.455L311.673 168.906L314.1 166.455C314.674 165.875 315.605 165.875 316.18 166.455C316.754 167.035 316.754 167.976 316.18 168.556L313.753 171.007ZM278.728 182.992C275.694 182.992 273.234 180.508 273.234 177.443C273.234 174.379 275.694 171.895 278.728 171.895C281.762 171.895 284.221 174.379 284.221 177.443C284.221 180.508 281.762 182.992 278.728 182.992ZM339.657 196.609C338.734 196.972 337.809 197.312 336.882 197.631L336.658 196.783L333.342 197.681C332.558 197.893 331.751 197.423 331.541 196.63C331.331 195.838 331.796 195.023 332.581 194.811L335.896 193.913L335.008 190.565C334.863 190.02 335.038 189.466 335.416 189.103C335.895 188.991 336.347 188.868 336.773 188.736C337.28 188.86 337.705 189.252 337.849 189.796L338.738 193.144L342.053 192.247C342.837 192.035 343.644 192.505 343.854 193.298C344.065 194.09 343.599 194.905 342.814 195.117L339.499 196.014L339.657 196.609ZM280.925 177.443C280.925 178.669 279.941 179.663 278.728 179.663C277.514 179.663 276.53 178.669 276.53 177.443C276.53 176.218 277.514 175.224 278.728 175.224C279.941 175.224 280.925 176.218 280.925 177.443ZM302.766 196.94C299.452 196.94 296.765 194.227 296.765 190.88C296.765 187.532 299.452 184.819 302.766 184.819C306.08 184.819 308.766 187.532 308.766 190.88C308.766 194.227 306.08 196.94 302.766 196.94ZM305.166 190.88C305.166 192.218 304.091 193.304 302.766 193.304C301.44 193.304 300.365 192.218 300.365 190.88C300.365 189.541 301.44 188.455 302.766 188.455C304.091 188.455 305.166 189.541 305.166 190.88ZM335.364 173.666C332.05 173.666 329.364 170.953 329.364 167.606C329.364 164.259 332.05 161.545 335.364 161.545C338.678 161.545 341.365 164.259 341.365 167.606C341.365 170.953 338.678 173.666 335.364 173.666ZM337.764 167.606C337.764 168.945 336.69 170.03 335.364 170.03C334.039 170.03 332.964 168.945 332.964 167.606C332.964 166.267 334.039 165.182 335.364 165.182C336.69 165.182 337.764 166.267 337.764 167.606Z" fill="white"/>
<path d="M299.527 162.79C304.853 163.535 310.343 163.335 315.45 161.39C314.319 166.26 311.678 171.121 307.527 175.972C295.99 189.451 260.911 176.302 257.576 170.293C254.24 164.284 258.351 154.718 265.062 153.333C267.401 152.85 268.917 164.416 272.516 166.061C279.244 169.137 289.032 163.639 295.392 163.639C296.93 163.639 298.309 163.356 299.527 162.79V162.79Z" fill="url(#paint56_linear)" style="mix-blend-mode:multiply"/>
<path fill-rule="evenodd" clip-rule="evenodd" d="M364.589 153.192C364.589 153.193 364.589 153.193 364.589 153.194C366.861 160.053 368.238 167.358 368.721 175.11C368.81 176.539 368.246 177.93 367.191 178.886C348.586 195.744 329.124 203.037 308.805 200.764C294.869 199.206 283.088 193.788 274.095 187.438C274.467 187.585 274.841 187.738 275.218 187.897C296.928 197.023 300.588 195.413 306.15 192.967C309.736 191.39 314.114 189.464 324.633 189.846C340.929 190.439 342.912 185.349 344.812 180.475C346.04 177.324 347.233 174.263 352.236 172.885C363.818 169.694 364.551 155.707 364.589 153.192Z" fill="url(#paint57_linear)" style="mix-blend-mode:multiply"/>
<path fill-rule="evenodd" clip-rule="evenodd" d="M346.699 159.849C347.058 159.849 347.348 159.555 347.348 159.193C347.348 158.83 347.058 158.536 346.699 158.536C346.34 158.536 346.049 158.83 346.049 159.193C346.049 159.555 346.34 159.849 346.699 159.849Z" fill="url(#paint58_linear)" style="mix-blend-mode:multiply"/>
<path fill-rule="evenodd" clip-rule="evenodd" d="M267.508 151.837C268.041 151.837 268.473 151.4 268.473 150.862C268.473 150.324 268.041 149.888 267.508 149.888C266.975 149.888 266.543 150.324 266.543 150.862C266.543 151.4 266.975 151.837 267.508 151.837Z" fill="url(#paint59_linear)" style="mix-blend-mode:multiply"/>
<path d="M307.568 149.035L307.168 141.581C305.943 139.654 305.33 137.682 305.33 135.667C305.33 132.77 302.207 131.252 303.107 130.396C303.289 130.224 304.054 130.075 305.024 130.396C305.908 130.689 306.995 133.251 307.94 133.687C308.348 133.875 308.819 132.472 309.112 131.568C309.333 130.888 309.518 129.491 309.518 129.144C309.518 128.797 309.112 127.232 309.112 126.895C310.657 126.185 313.652 128.537 314.028 130.081C314.475 131.922 313.858 134.941 312.176 139.137L313.087 148.308L307.568 149.035Z" fill="url(#paint60_linear)"/>
<g filter="url(#filter3_i)">
<path d="M306.323 144.557C306.323 144.557 303.163 163.299 293.4 163.299C283.637 163.299 269.303 151.709 262.592 153.094C255.881 154.479 254.24 160.385 257.575 166.393C260.911 172.402 295.99 185.551 307.527 172.072C319.063 158.593 315.05 145.009 315.05 145.009C315.05 145.009 313.366 143.309 311.112 143.192C308.858 143.075 306.323 144.557 306.323 144.557Z" fill="url(#paint61_linear)"/>
</g>
<path opacity="0.395871" fill-rule="evenodd" clip-rule="evenodd" d="M263.734 163.706C263.734 167.054 266.421 169.767 269.735 169.767C273.049 169.767 275.735 167.054 275.735 163.706C275.735 160.359 273.049 157.646 269.735 157.646C266.421 157.646 263.734 160.359 263.734 163.706ZM272.135 163.706C272.135 165.045 271.06 166.131 269.735 166.131C268.409 166.131 267.335 165.045 267.335 163.706C267.335 162.367 268.409 161.282 269.735 161.282C271.06 161.282 272.135 162.367 272.135 163.706Z" fill="white"/>
<path d="M289.861 54.7103L333.117 43.0037C333.508 42.8977 333.911 43.1325 334.016 43.528L342.566 75.758C342.671 76.1536 342.439 76.5602 342.047 76.6661L298.791 88.3727C298.399 88.4787 297.997 88.244 297.892 87.8484L289.342 55.6184C289.237 55.2229 289.469 54.8163 289.861 54.7103Z" fill="url(#paint62_linear)"/>
<path fill-rule="evenodd" clip-rule="evenodd" d="M333.643 47.8511L340.959 75.4256L299.121 86.7484L291.806 59.1738L333.643 47.8511Z" fill="url(#paint63_linear)"/>
<path d="M292.843 57.3572C292.452 57.4631 292.049 57.2285 291.944 56.833C291.839 56.4375 292.072 56.0311 292.463 55.9251C292.855 55.8191 293.257 56.0538 293.362 56.4493C293.467 56.8447 293.235 57.2512 292.843 57.3572Z" fill="#F2F5FF"/>
<path d="M295.327 56.6855C294.935 56.7915 294.532 56.5568 294.428 56.1614C294.323 55.7659 294.555 55.3594 294.947 55.2535C295.338 55.1475 295.741 55.3822 295.846 55.7776C295.951 56.1731 295.718 56.5796 295.327 56.6855Z" fill="#F2F5FF"/>
<path d="M302.502 80.7826L300.934 79.8198L306.95 69.8227L314.046 71.1092L319.231 60.4498L325.504 62.4997L330.461 53.3481L332.071 54.238L326.384 64.7358L320.177 62.7075L315.084 73.1806L307.865 71.8718L302.502 80.7826Z" fill="url(#paint64_linear)"/>
<path fill-rule="evenodd" clip-rule="evenodd" d="M115.306 156.999C114.585 158.228 114.987 159.815 116.204 160.544L128.045 167.635C129.262 168.364 130.833 167.958 131.555 166.729L135.101 160.688L139.233 159.621C140.603 159.267 141.431 157.858 141.08 156.474L140.024 152.3L143.749 145.956C144.47 144.726 144.068 143.139 142.851 142.41L131.01 135.32C129.793 134.591 128.222 134.996 127.5 136.226L115.306 156.999Z" fill="url(#paint65_linear)"/>
<path fill-rule="evenodd" clip-rule="evenodd" d="M134.596 154.467C123.105 161.365 120.587 149.892 126.854 149.831C123.9 144.248 135.074 140.974 134.596 154.467Z" fill="white"/>
<path fill-rule="evenodd" clip-rule="evenodd" d="M588.606 267.353L554.955 252.377C554.091 251.993 553.7 250.975 554.08 250.102C554.291 249.619 554.709 249.26 555.215 249.128L619.639 232.268L654.356 248.237L588.606 267.353Z" fill="url(#paint66_linear)"/>
<path fill-rule="evenodd" clip-rule="evenodd" d="M667.24 197.014L606.229 208.876C604.258 209.26 602.69 210.769 602.217 212.739L589.049 267.514L651.669 251.759C653.186 251.377 654.393 250.219 654.847 248.708L669.59 199.649C669.919 198.554 669.307 197.398 668.223 197.066C667.905 196.968 667.567 196.95 667.24 197.014Z" fill="url(#paint67_linear)"/>
<path fill-rule="evenodd" clip-rule="evenodd" d="M633.736 236.488C630.82 238.427 627.539 238.853 625.826 236.226C624.113 233.6 626.149 230.108 629.065 228.168C631.98 226.228 634.923 225.847 636.636 228.474C638.349 231.1 636.652 234.548 633.736 236.488Z" fill="#D6E3FA"/>
<path opacity="0.7" fill-rule="evenodd" clip-rule="evenodd" d="M35.9696 240.301C44.6508 240.301 51.6883 241.846 51.6883 243.752C51.6883 245.658 44.6508 247.203 35.9696 247.203C27.2885 247.203 20.251 245.658 20.251 243.752C20.251 241.846 27.2885 240.301 35.9696 240.301Z" fill="url(#paint68_linear)"/>
<path fill-rule="evenodd" clip-rule="evenodd" d="M56.6833 223.749C57.8617 225.827 58.5217 228.156 58.5217 230.615C58.5217 239.395 50.1073 246.512 39.7276 246.512C29.3479 246.512 20.9336 239.395 20.9336 230.615C20.9336 228.013 21.6727 225.557 22.983 223.388C31.3087 224.715 47.8804 224.63 56.6833 223.749Z" fill="url(#paint69_linear)"/>
<mask id="mask2" mask-type="alpha" maskUnits="userSpaceOnUse" x="20" y="223" width="39" height="24">
<path fill-rule="evenodd" clip-rule="evenodd" d="M56.6833 223.749C57.8617 225.827 58.5217 228.156 58.5217 230.615C58.5217 239.395 50.1073 246.512 39.7276 246.512C29.3479 246.512 20.9336 239.395 20.9336 230.615C20.9336 228.013 21.6727 225.557 22.983 223.388C31.3087 224.715 47.8804 224.63 56.6833 223.749Z" fill="white"/>
</mask>
<g mask="url(#mask2)">
</g>
<path fill-rule="evenodd" clip-rule="evenodd" d="M39.8999 220.283C49.4304 220.283 57.1562 222.137 57.1562 224.425C57.1562 226.712 49.4304 228.566 39.8999 228.566C30.3695 228.566 22.6436 226.712 22.6436 224.425C22.6436 222.137 30.3695 220.283 39.8999 220.283Z" fill="url(#paint70_linear)"/>
<mask id="mask3" mask-type="alpha" maskUnits="userSpaceOnUse" x="22" y="220" width="36" height="9">
<path fill-rule="evenodd" clip-rule="evenodd" d="M39.8999 220.283C49.4304 220.283 57.1562 222.137 57.1562 224.425C57.1562 226.712 49.4304 228.566 39.8999 228.566C30.3695 228.566 22.6436 226.712 22.6436 224.425C22.6436 222.137 30.3695 220.283 39.8999 220.283Z" fill="white"/>
</mask>
<g mask="url(#mask3)">
</g>
<g filter="url(#filter4_i)">
<path fill-rule="evenodd" clip-rule="evenodd" d="M38.4656 221.319C37.5284 214.783 34.9502 205.345 27.1992 195.179C22.6333 189.191 22.6184 174.608 21.959 173C25.5418 174.242 31.9778 177.442 38.4656 186.466C45.2667 195.926 40.9522 215.217 38.4656 221.319Z" fill="url(#paint71_linear)"/>
</g>
<mask id="mask4" mask-type="alpha" maskUnits="userSpaceOnUse" x="21" y="173" width="22" height="49">
<path fill-rule="evenodd" clip-rule="evenodd" d="M38.4656 221.319C37.5284 214.783 34.9502 205.345 27.1992 195.179C22.6333 189.191 22.6184 174.608 21.959 173C25.5418 174.242 31.9778 177.442 38.4656 186.466C45.2667 195.926 40.9522 215.217 38.4656 221.319Z" fill="white"/>
</mask>
<g mask="url(#mask4)">
<g style="mix-blend-mode:multiply" opacity="0.5">
<path fill-rule="evenodd" clip-rule="evenodd" d="M38.2223 221.318C38.9336 205.355 36.9814 195.281 30.8438 185.77Z" fill="black" fill-opacity="0.01"/>
</g>
</g>
<g filter="url(#filter5_i)">
<path fill-rule="evenodd" clip-rule="evenodd" d="M38.3619 227.876C35.502 223.249 30.449 216.979 21.2574 211.895C15.843 208.9 11.0269 197.879 10 196.885C13.1095 196.621 19.0149 196.88 26.8781 201.525C35.121 206.395 38.2256 222.429 38.3619 227.876Z" fill="url(#paint72_linear)"/>
</g>
<mask id="mask5" mask-type="alpha" maskUnits="userSpaceOnUse" x="10" y="196" width="29" height="32">
<path fill-rule="evenodd" clip-rule="evenodd" d="M38.3619 227.876C35.502 223.249 30.449 216.979 21.2574 211.895C15.843 208.9 11.0269 197.879 10 196.885C13.1095 196.621 19.0149 196.88 26.8781 201.525C35.121 206.395 38.2256 222.429 38.3619 227.876Z" fill="white"/>
</mask>
<g mask="url(#mask5)">
<g style="mix-blend-mode:multiply" opacity="0.5">
<path fill-rule="evenodd" clip-rule="evenodd" d="M38.3608 228.221C33.6167 215.846 28.7841 208.854 20.9336 203.717Z" fill="black" fill-opacity="0.01"/>
</g>
</g>
<g filter="url(#filter6_i)">
<path fill-rule="evenodd" clip-rule="evenodd" d="M40.5423 228.567C42.8157 223.543 47.079 216.581 55.6518 210.265C60.7017 206.544 64.1126 194.842 65.0152 193.708C61.8585 193.852 55.9616 194.89 48.6659 200.59C41.0181 206.565 39.9744 223.077 40.5423 228.567Z" fill="url(#paint73_linear)"/>
</g>
<mask id="mask6" mask-type="alpha" maskUnits="userSpaceOnUse" x="40" y="193" width="26" height="36">
<path fill-rule="evenodd" clip-rule="evenodd" d="M40.5423 228.567C42.8157 223.543 47.079 216.581 55.6518 210.265C60.7017 206.544 64.1126 194.842 65.0152 193.708C61.8585 193.852 55.9616 194.89 48.6659 200.59C41.0181 206.565 39.9744 223.077 40.5423 228.567Z" fill="white"/>
</mask>
<g mask="url(#mask6)">
<g style="mix-blend-mode:multiply" opacity="0.5">
<path fill-rule="evenodd" clip-rule="evenodd" d="M40.0703 228.566C43.1626 215.672 47.0227 208.107 54.0804 201.991Z" fill="black" fill-opacity="0.01"/>
</g>
</g>
</g>
<defs>
<filter id="filter0_i" x="283.183" y="141.59" width="18.8026" height="15.0477" filterUnits="userSpaceOnUse" color-interpolation-filters="sRGB">
<feFlood flood-opacity="0" result="BackgroundImageFix"/>
<feBlend mode="normal" in="SourceGraphic" in2="BackgroundImageFix" result="shape"/>
<feColorMatrix in="SourceAlpha" type="matrix" values="0 0 0 0 0 0 0 0 0 0 0 0 0 0 0 0 0 0 127 0" result="hardAlpha"/>
<feOffset dx="8" dy="3"/>
<feGaussianBlur stdDeviation="11.5"/>
<feComposite in2="hardAlpha" operator="arithmetic" k2="-1" k3="1"/>
<feColorMatrix type="matrix" values="0 0 0 0 0.729412 0 0 0 0 0.8 0 0 0 0 0.933333 0 0 0 1 0"/>
<feBlend mode="normal" in2="shape" result="effect1_innerShadow"/>
</filter>
<filter id="filter1_i" x="288.541" y="126.457" width="67.3448" height="49.9427" filterUnits="userSpaceOnUse" color-interpolation-filters="sRGB">
<feFlood flood-opacity="0" result="BackgroundImageFix"/>
<feBlend mode="normal" in="SourceGraphic" in2="BackgroundImageFix" result="shape"/>
<feColorMatrix in="SourceAlpha" type="matrix" values="0 0 0 0 0 0 0 0 0 0 0 0 0 0 0 0 0 0 127 0" result="hardAlpha"/>
<feOffset dx="8" dy="3"/>
<feGaussianBlur stdDeviation="11.5"/>
<feComposite in2="hardAlpha" operator="arithmetic" k2="-1" k3="1"/>
<feColorMatrix type="matrix" values="0 0 0 0 0.729412 0 0 0 0 0.8 0 0 0 0 0.933333 0 0 0 1 0"/>
<feBlend mode="normal" in2="shape" result="effect1_innerShadow"/>
</filter>
<filter id="filter2_i" x="254.189" y="124.048" width="122.54" height="80.1208" filterUnits="userSpaceOnUse" color-interpolation-filters="sRGB">
<feFlood flood-opacity="0" result="BackgroundImageFix"/>
<feBlend mode="normal" in="SourceGraphic" in2="BackgroundImageFix" result="shape"/>
<feColorMatrix in="SourceAlpha" type="matrix" values="0 0 0 0 0 0 0 0 0 0 0 0 0 0 0 0 0 0 127 0" result="hardAlpha"/>
<feOffset dx="8" dy="3"/>
<feGaussianBlur stdDeviation="11.5"/>
<feComposite in2="hardAlpha" operator="arithmetic" k2="-1" k3="1"/>
<feColorMatrix type="matrix" values="0 0 0 0 0.729412 0 0 0 0 0.8 0 0 0 0 0.933333 0 0 0 1 0"/>
<feBlend mode="normal" in2="shape" result="effect1_innerShadow"/>
</filter>
<filter id="filter3_i" x="255.902" y="143.185" width="67.823" height="37.7536" filterUnits="userSpaceOnUse" color-interpolation-filters="sRGB">
<feFlood flood-opacity="0" result="BackgroundImageFix"/>
<feBlend mode="normal" in="SourceGraphic" in2="BackgroundImageFix" result="shape"/>
<feColorMatrix in="SourceAlpha" type="matrix" values="0 0 0 0 0 0 0 0 0 0 0 0 0 0 0 0 0 0 127 0" result="hardAlpha"/>
<feOffset dx="8" dy="3"/>
<feGaussianBlur stdDeviation="11.5"/>
<feComposite in2="hardAlpha" operator="arithmetic" k2="-1" k3="1"/>
<feColorMatrix type="matrix" values="0 0 0 0 0.729412 0 0 0 0 0.8 0 0 0 0 0.933333 0 0 0 1 0"/>
<feBlend mode="normal" in2="shape" result="effect1_innerShadow"/>
</filter>
<filter id="filter4_i" x="21.959" y="163" width="20.1609" height="58.3189" filterUnits="userSpaceOnUse" color-interpolation-filters="sRGB">
<feFlood flood-opacity="0" result="BackgroundImageFix"/>
<feBlend mode="normal" in="SourceGraphic" in2="BackgroundImageFix" result="shape"/>
<feColorMatrix in="SourceAlpha" type="matrix" values="0 0 0 0 0 0 0 0 0 0 0 0 0 0 0 0 0 0 127 0" result="hardAlpha"/>
<feOffset dy="-10"/>
<feGaussianBlur stdDeviation="11"/>
<feComposite in2="hardAlpha" operator="arithmetic" k2="-1" k3="1"/>
<feColorMatrix type="matrix" values="0 0 0 0 0.221483 0 0 0 0 0.77854 0 0 0 0 0.610041 0 0 0 1 0"/>
<feBlend mode="normal" in2="shape" result="effect1_innerShadow"/>
</filter>
<filter id="filter5_i" x="10" y="186.814" width="28.3619" height="41.0622" filterUnits="userSpaceOnUse" color-interpolation-filters="sRGB">
<feFlood flood-opacity="0" result="BackgroundImageFix"/>
<feBlend mode="normal" in="SourceGraphic" in2="BackgroundImageFix" result="shape"/>
<feColorMatrix in="SourceAlpha" type="matrix" values="0 0 0 0 0 0 0 0 0 0 0 0 0 0 0 0 0 0 127 0" result="hardAlpha"/>
<feOffset dy="-10"/>
<feGaussianBlur stdDeviation="11"/>
<feComposite in2="hardAlpha" operator="arithmetic" k2="-1" k3="1"/>
<feColorMatrix type="matrix" values="0 0 0 0 0.221483 0 0 0 0 0.77854 0 0 0 0 0.610041 0 0 0 1 0"/>
<feBlend mode="normal" in2="shape" result="effect1_innerShadow"/>
</filter>
<filter id="filter6_i" x="40.4121" y="183.708" width="24.6031" height="44.8587" filterUnits="userSpaceOnUse" color-interpolation-filters="sRGB">
<feFlood flood-opacity="0" result="BackgroundImageFix"/>
<feBlend mode="normal" in="SourceGraphic" in2="BackgroundImageFix" result="shape"/>
<feColorMatrix in="SourceAlpha" type="matrix" values="0 0 0 0 0 0 0 0 0 0 0 0 0 0 0 0 0 0 127 0" result="hardAlpha"/>
<feOffset dy="-10"/>
<feGaussianBlur stdDeviation="11"/>
<feComposite in2="hardAlpha" operator="arithmetic" k2="-1" k3="1"/>
<feColorMatrix type="matrix" values="0 0 0 0 0.221483 0 0 0 0 0.77854 0 0 0 0 0.610041 0 0 0 1 0"/>
<feBlend mode="normal" in2="shape" result="effect1_innerShadow"/>
</filter>
<linearGradient id="paint0_linear" x1="595.188" y1="118.916" x2="565.108" y2="-18.1924" gradientUnits="userSpaceOnUse">
<stop stop-color="#E3ECF9"/>
<stop offset="1" stop-color="#F6F8FE"/>
</linearGradient>
<linearGradient id="paint1_linear" x1="253.755" y1="153.641" x2="268.069" y2="177.227" gradientUnits="userSpaceOnUse">
<stop stop-color="#CFDDF3"/>
<stop offset="1" stop-color="#A1B8E3"/>
</linearGradient>
<linearGradient id="paint2_linear" x1="254.118" y1="135.059" x2="262.686" y2="149.178" gradientUnits="userSpaceOnUse">
<stop stop-color="#CFDDF3"/>
<stop offset="1" stop-color="#A1B8E3"/>
</linearGradient>
<linearGradient id="paint3_linear" x1="431.174" y1="156.82" x2="432.651" y2="240.63" gradientUnits="userSpaceOnUse">
<stop stop-color="#CFDDF3"/>
<stop offset="1" stop-color="#A1B8E3"/>
</linearGradient>
<linearGradient id="paint4_linear" x1="430.535" y1="108.914" x2="414.511" y2="124.317" gradientUnits="userSpaceOnUse">
<stop stop-color="#CFDDF3"/>
<stop offset="1" stop-color="#A1B8E3"/>
</linearGradient>
<linearGradient id="paint5_linear" x1="513.727" y1="172.106" x2="507.458" y2="150.68" gradientUnits="userSpaceOnUse">
<stop stop-color="#CFDDF3"/>
<stop offset="1" stop-color="#A1B8E3"/>
</linearGradient>
<linearGradient id="paint6_linear" x1="505.886" y1="193.701" x2="500.756" y2="171.969" gradientUnits="userSpaceOnUse">
<stop stop-color="#CFDDF3"/>
<stop offset="1" stop-color="#A1B8E3"/>
</linearGradient>
<linearGradient id="paint7_linear" x1="499.898" y1="212.348" x2="494.768" y2="190.615" gradientUnits="userSpaceOnUse">
<stop stop-color="#CFDDF3"/>
<stop offset="1" stop-color="#A1B8E3"/>
</linearGradient>
<linearGradient id="paint8_linear" x1="498.887" y1="109.578" x2="477.909" y2="102.488" gradientUnits="userSpaceOnUse">
<stop stop-color="#CFDDF3"/>
<stop offset="1" stop-color="#A1B8E3"/>
</linearGradient>
<linearGradient id="paint9_linear" x1="412.705" y1="132.941" x2="399.897" y2="151.157" gradientUnits="userSpaceOnUse">
<stop stop-color="#CFDDF3"/>
<stop offset="1" stop-color="#A1B8E3"/>
</linearGradient>
<linearGradient id="paint10_linear" x1="401.355" y1="155.949" x2="390.52" y2="175.427" gradientUnits="userSpaceOnUse">
<stop stop-color="#CFDDF3"/>
<stop offset="1" stop-color="#A1B8E3"/>
</linearGradient>
<linearGradient id="paint11_linear" x1="295.242" y1="-17.8654" x2="228.786" y2="66.2315" gradientUnits="userSpaceOnUse">
<stop stop-color="#D2E0F9" stop-opacity="0.01"/>
<stop offset="1" stop-color="#B1C6E7" stop-opacity="0.464589"/>
</linearGradient>
<linearGradient id="paint12_linear" x1="289.23" y1="13.5751" x2="236.813" y2="79.9065" gradientUnits="userSpaceOnUse">
<stop stop-color="#D2E0F9" stop-opacity="0.01"/>
<stop offset="1" stop-color="#B1C6E7" stop-opacity="0.464589"/>
</linearGradient>
<linearGradient id="paint13_linear" x1="448.114" y1="39.4542" x2="381.658" y2="123.551" gradientUnits="userSpaceOnUse">
<stop stop-color="#D2E0F9" stop-opacity="0.01"/>
<stop offset="1" stop-color="#B1C6E7" stop-opacity="0.464589"/>
</linearGradient>
<linearGradient id="paint14_linear" x1="442.101" y1="70.8947" x2="389.684" y2="137.226" gradientUnits="userSpaceOnUse">
<stop stop-color="#D2E0F9" stop-opacity="0.01"/>
<stop offset="1" stop-color="#B1C6E7" stop-opacity="0.464589"/>
</linearGradient>
<linearGradient id="paint15_linear" x1="62.6273" y1="29.3211" x2="14.4072" y2="185.848" gradientUnits="userSpaceOnUse">
<stop stop-color="#F7FAFF"/>
<stop offset="1" stop-color="#6B9AD9"/>
</linearGradient>
<linearGradient id="paint16_linear" x1="142.232" y1="84.9179" x2="149.248" y2="76.4594" gradientUnits="userSpaceOnUse">
<stop stop-color="#ACC1E3"/>
<stop offset="1" stop-color="#D6E3FA"/>
</linearGradient>
<linearGradient id="paint17_linear" x1="129.148" y1="85.5508" x2="144.012" y2="67.63" gradientUnits="userSpaceOnUse">
<stop stop-color="#ACC1E3"/>
<stop offset="1" stop-color="#D6E3FA"/>
</linearGradient>
<linearGradient id="paint18_linear" x1="159.74" y1="183.229" x2="148.471" y2="224.197" gradientUnits="userSpaceOnUse">
<stop stop-color="#F7FAFF"/>
<stop offset="1" stop-color="#6B9AD9"/>
</linearGradient>
<linearGradient id="paint19_linear" x1="166.246" y1="200.639" x2="158.095" y2="220.77" gradientUnits="userSpaceOnUse">
<stop stop-color="#E5EDFF"/>
<stop offset="1" stop-color="#6B9AD9"/>
</linearGradient>
<linearGradient id="paint20_linear" x1="423.205" y1="201.982" x2="435.505" y2="263.405" gradientUnits="userSpaceOnUse">
<stop stop-color="#F7FAFF"/>
<stop offset="1" stop-color="#6B9AD9"/>
</linearGradient>
<linearGradient id="paint21_linear" x1="455.265" y1="141.771" x2="403.199" y2="260.38" gradientUnits="userSpaceOnUse">
<stop stop-color="#EEF3FF"/>
<stop offset="1" stop-color="#6B9AD9"/>
</linearGradient>
<linearGradient id="paint22_linear" x1="269.308" y1="256.983" x2="292.985" y2="229.352" gradientUnits="userSpaceOnUse">
<stop stop-color="#ACC1E3"/>
<stop offset="1" stop-color="#D6E3FA"/>
</linearGradient>
<linearGradient id="paint23_linear" x1="489.647" y1="35.0529" x2="436.12" y2="143.62" gradientUnits="userSpaceOnUse">
<stop stop-color="#F7FAFF"/>
<stop offset="1" stop-color="#6B9AD9"/>
</linearGradient>
<linearGradient id="paint24_linear" x1="528.979" y1="88.3352" x2="543.878" y2="75.4218" gradientUnits="userSpaceOnUse">
<stop stop-color="#ACC1E3"/>
<stop offset="1" stop-color="#D6E3FA"/>
</linearGradient>
<linearGradient id="paint25_linear" x1="520.149" y1="45.5748" x2="518.005" y2="48.3338" gradientUnits="userSpaceOnUse">
<stop stop-color="#E5EDFF"/>
<stop offset="1" stop-color="#6B9AD9"/>
</linearGradient>
<linearGradient id="paint26_linear" x1="523.307" y1="46.481" x2="521.162" y2="49.24" gradientUnits="userSpaceOnUse">
<stop stop-color="#E5EDFF"/>
<stop offset="1" stop-color="#6B9AD9"/>
</linearGradient>
<linearGradient id="paint27_linear" x1="201.007" y1="13.6452" x2="203.093" y2="46.8651" gradientUnits="userSpaceOnUse">
<stop stop-color="#FFE579"/>
<stop offset="1" stop-color="#FEC644"/>
</linearGradient>
<linearGradient id="paint28_linear" x1="187.119" y1="5.73283" x2="184.922" y2="51.9862" gradientUnits="userSpaceOnUse">
<stop stop-color="#FFEDBF"/>
<stop offset="1" stop-color="#FEC644"/>
</linearGradient>
<linearGradient id="paint29_linear" x1="211.168" y1="10.0265" x2="211.168" y2="36.3927" gradientUnits="userSpaceOnUse">
<stop stop-color="#FFD873"/>
<stop offset="1" stop-color="#FF9D61"/>
</linearGradient>
<linearGradient id="paint30_linear" x1="365.036" y1="5.24133" x2="323.384" y2="122.307" gradientUnits="userSpaceOnUse">
<stop stop-color="#F7FAFF"/>
<stop offset="1" stop-color="#6B9AD9"/>
</linearGradient>
<linearGradient id="paint31_linear" x1="288.903" y1="132.323" x2="299.849" y2="140.209" gradientUnits="userSpaceOnUse">
<stop stop-color="#47689B"/>
<stop offset="1" stop-color="#223762"/>
</linearGradient>
<linearGradient id="paint32_linear" x1="300.824" y1="95.6189" x2="273.815" y2="112.722" gradientUnits="userSpaceOnUse">
<stop stop-color="#CFDDF3"/>
<stop offset="0.473556" stop-color="#B3C7E9"/>
<stop offset="1" stop-color="#728FC5"/>
</linearGradient>
<linearGradient id="paint33_linear" x1="279.019" y1="108.025" x2="245.949" y2="171.685" gradientUnits="userSpaceOnUse">
<stop stop-color="#F7FAFF"/>
<stop offset="1" stop-color="#6B9AD9"/>
</linearGradient>
<linearGradient id="paint34_linear" x1="290.579" y1="151.722" x2="297.777" y2="148.863" gradientUnits="userSpaceOnUse">
<stop stop-color="#0640A2"/>
<stop offset="1" stop-color="#3D82F0"/>
</linearGradient>
<linearGradient id="paint35_linear" x1="291.951" y1="140.721" x2="286.951" y2="142.462" gradientUnits="userSpaceOnUse">
<stop stop-color="#EDF3FD"/>
<stop offset="1" stop-color="#D6E3FA"/>
</linearGradient>
<linearGradient id="paint36_linear" x1="336.711" y1="123.072" x2="311.894" y2="135.253" gradientUnits="userSpaceOnUse">
<stop stop-color="#EDF3FD"/>
<stop offset="1" stop-color="#D6E3FA"/>
</linearGradient>
<linearGradient id="paint37_linear" x1="317.434" y1="218.276" x2="375.154" y2="156.252" gradientUnits="userSpaceOnUse">
<stop stop-color="#EAF0F7" stop-opacity="0.115546"/>
<stop offset="1" stop-color="#D1DDED"/>
</linearGradient>
<linearGradient id="paint38_linear" x1="260.366" y1="140.581" x2="260.366" y2="150.406" gradientUnits="userSpaceOnUse">
<stop stop-color="#092989"/>
<stop offset="1" stop-color="#3378E4"/>
</linearGradient>
<linearGradient id="paint39_linear" x1="267.914" y1="115.463" x2="253.565" y2="129.585" gradientUnits="userSpaceOnUse">
<stop stop-color="#70B8F9"/>
<stop offset="1" stop-color="#3D82F0"/>
</linearGradient>
<linearGradient id="paint40_linear" x1="264.893" y1="119.804" x2="259.515" y2="123.68" gradientUnits="userSpaceOnUse">
<stop stop-color="#70B8F9"/>
<stop offset="1" stop-color="#3D82F0"/>
</linearGradient>
<radialGradient id="paint41_radial" cx="0" cy="0" r="1" gradientUnits="userSpaceOnUse" gradientTransform="translate(245.197 110.927) rotate(90) scale(17.9408 39.6036)">
<stop stop-color="#47689B"/>
<stop offset="1" stop-color="#223762"/>
</radialGradient>
<linearGradient id="paint42_linear" x1="278.516" y1="170.019" x2="296.672" y2="154.367" gradientUnits="userSpaceOnUse">
<stop stop-color="#3158B2"/>
<stop offset="1" stop-color="#3D82F0"/>
</linearGradient>
<linearGradient id="paint43_linear" x1="391.971" y1="120.319" x2="395.795" y2="116.651" gradientUnits="userSpaceOnUse">
<stop stop-color="#0640A2"/>
<stop offset="1" stop-color="#3D82F0"/>
</linearGradient>
<radialGradient id="paint44_radial" cx="0" cy="0" r="1" gradientUnits="userSpaceOnUse" gradientTransform="translate(405.997 109.214) rotate(143.643) scale(7.59605 8.62256)">
<stop stop-color="#3864B1"/>
<stop offset="1" stop-color="#223762"/>
</radialGradient>
<linearGradient id="paint45_linear" x1="402.543" y1="113.566" x2="398.87" y2="108.6" gradientUnits="userSpaceOnUse">
<stop stop-color="#223762" stop-opacity="0.01"/>
<stop offset="1" stop-opacity="0.5"/>
</linearGradient>
<linearGradient id="paint46_linear" x1="332.787" y1="162.671" x2="339.894" y2="184.935" gradientUnits="userSpaceOnUse">
<stop stop-color="#B2C7EE" stop-opacity="0.01"/>
<stop offset="1" stop-color="#1F54A6"/>
</linearGradient>
<linearGradient id="paint47_linear" x1="391.128" y1="123.829" x2="367.215" y2="126.295" gradientUnits="userSpaceOnUse">
<stop stop-color="white" stop-opacity="0.5"/>
<stop offset="1" stop-color="#B2C7EE" stop-opacity="0.01"/>
</linearGradient>
<linearGradient id="paint48_linear" x1="401.501" y1="96.9328" x2="406.079" y2="93.7242" gradientUnits="userSpaceOnUse">
<stop stop-color="#0640A2"/>
<stop offset="1" stop-color="#3D82F0"/>
</linearGradient>
<linearGradient id="paint49_linear" x1="347.639" y1="121.297" x2="327.657" y2="142.358" gradientUnits="userSpaceOnUse">
<stop stop-color="#B2C7EE" stop-opacity="0.01"/>
<stop offset="1" stop-color="#1F54A6"/>
</linearGradient>
<linearGradient id="paint50_linear" x1="345.041" y1="91.7157" x2="345.041" y2="128.994" gradientUnits="userSpaceOnUse">
<stop stop-color="white" stop-opacity="0.5"/>
<stop offset="1" stop-color="#B2C7EE" stop-opacity="0.01"/>
</linearGradient>
<linearGradient id="paint51_linear" x1="375.035" y1="150.154" x2="377.27" y2="186.949" gradientUnits="userSpaceOnUse">
<stop stop-color="#A1B8E3" stop-opacity="0.01"/>
<stop offset="1" stop-color="#1C2F84" stop-opacity="0.5"/>
</linearGradient>
<linearGradient id="paint52_linear" x1="366.545" y1="117.105" x2="354.055" y2="140.774" gradientUnits="userSpaceOnUse">
<stop stop-color="white" stop-opacity="0.5"/>
<stop offset="1" stop-color="#A1B8E3" stop-opacity="0.01"/>
</linearGradient>
<radialGradient id="paint53_radial" cx="0" cy="0" r="1" gradientUnits="userSpaceOnUse" gradientTransform="translate(412.713 82.2461) rotate(132.767) scale(6.43636 7.62847)">
<stop stop-color="#3864B1"/>
<stop offset="1" stop-color="#223762"/>
</radialGradient>
<linearGradient id="paint54_linear" x1="410.246" y1="86.8129" x2="406.229" y2="83.1153" gradientUnits="userSpaceOnUse">
<stop stop-color="#223762" stop-opacity="0.01"/>
<stop offset="1" stop-opacity="0.5"/>
</linearGradient>
<linearGradient id="paint55_linear" x1="347.162" y1="118.487" x2="302.555" y2="144.21" gradientUnits="userSpaceOnUse">
<stop stop-color="#EDF3FD"/>
<stop offset="1" stop-color="#D6E3FA"/>
</linearGradient>
<linearGradient id="paint56_linear" x1="286.228" y1="198.192" x2="308.423" y2="151.756" gradientUnits="userSpaceOnUse">
<stop stop-color="#EAF0F7" stop-opacity="0.115546"/>
<stop offset="1" stop-color="#D1DDED"/>
</linearGradient>
<linearGradient id="paint57_linear" x1="321.903" y1="228.678" x2="360.368" y2="152.019" gradientUnits="userSpaceOnUse">
<stop stop-color="#EAF0F7" stop-opacity="0.115546"/>
<stop offset="1" stop-color="#D1DDED"/>
</linearGradient>
<linearGradient id="paint58_linear" x1="346.705" y1="160.601" x2="348.018" y2="159.288" gradientUnits="userSpaceOnUse">
<stop stop-color="#EAF0F7" stop-opacity="0.115546"/>
<stop offset="1" stop-color="#D1DDED"/>
</linearGradient>
<linearGradient id="paint59_linear" x1="267.518" y1="152.954" x2="269.467" y2="151.004" gradientUnits="userSpaceOnUse">
<stop stop-color="#EAF0F7" stop-opacity="0.115546"/>
<stop offset="1" stop-color="#D1DDED"/>
</linearGradient>
<linearGradient id="paint60_linear" x1="307.803" y1="150.987" x2="315.061" y2="148.365" gradientUnits="userSpaceOnUse">
<stop stop-color="#0640A2"/>
<stop offset="1" stop-color="#3D82F0"/>
</linearGradient>
<linearGradient id="paint61_linear" x1="304.753" y1="140.677" x2="283.244" y2="155.138" gradientUnits="userSpaceOnUse">
<stop stop-color="#EDF3FD"/>
<stop offset="1" stop-color="#D6E3FA"/>
</linearGradient>
<linearGradient id="paint62_linear" x1="314.853" y1="97.7233" x2="332.719" y2="72.206" gradientUnits="userSpaceOnUse">
<stop stop-color="#ACC1E3"/>
<stop offset="1" stop-color="#D6E3FA"/>
</linearGradient>
<linearGradient id="paint63_linear" x1="248.848" y1="39.208" x2="222.202" y2="149.606" gradientUnits="userSpaceOnUse">
<stop stop-color="#F7FAFF"/>
<stop offset="1" stop-color="#6B9AD9"/>
</linearGradient>
<linearGradient id="paint64_linear" x1="315.859" y1="86.4152" x2="326.767" y2="71.3395" gradientUnits="userSpaceOnUse">
<stop stop-color="#ACC1E3"/>
<stop offset="1" stop-color="#D6E3FA"/>
</linearGradient>
<linearGradient id="paint65_linear" x1="131.634" y1="133.06" x2="134.901" y2="159.035" gradientUnits="userSpaceOnUse">
<stop stop-color="#FF6B67"/>
<stop offset="1" stop-color="#F05971"/>
</linearGradient>
<linearGradient id="paint66_linear" x1="531.115" y1="256.06" x2="537.813" y2="279.695" gradientUnits="userSpaceOnUse">
<stop stop-color="#47689B"/>
<stop offset="1" stop-color="#223762"/>
</linearGradient>
<linearGradient id="paint67_linear" x1="629.487" y1="164.214" x2="566.676" y2="244.074" gradientUnits="userSpaceOnUse">
<stop stop-color="#CFDDF3"/>
<stop offset="0.473556" stop-color="#B3C7E9"/>
<stop offset="1" stop-color="#728FC5"/>
</linearGradient>
<linearGradient id="paint68_linear" x1="52.2122" y1="240.035" x2="19.989" y2="240.035" gradientUnits="userSpaceOnUse">
<stop stop-color="#D9E5F6" stop-opacity="0.712636"/>
<stop offset="1" stop-color="#B2C6EA"/>
</linearGradient>
<linearGradient id="paint69_linear" x1="64.9264" y1="237.596" x2="41.1571" y2="221.687" gradientUnits="userSpaceOnUse">
<stop stop-color="#ACC5E9"/>
<stop offset="0.627469" stop-color="#D3E3FB"/>
<stop offset="1" stop-color="#EAF2FF"/>
</linearGradient>
<linearGradient id="paint70_linear" x1="23.699" y1="218.37" x2="22.8333" y2="232.056" gradientUnits="userSpaceOnUse">
<stop stop-color="#86A8D9"/>
<stop offset="1" stop-color="#BCD0F2"/>
</linearGradient>
<linearGradient id="paint71_linear" x1="18.5387" y1="186.107" x2="46.926" y2="215.603" gradientUnits="userSpaceOnUse">
<stop stop-color="#B1FFBE"/>
<stop offset="0.444207" stop-color="#5CDB8E"/>
<stop offset="1" stop-color="#149654"/>
</linearGradient>
<linearGradient id="paint72_linear" x1="18.246" y1="195.264" x2="22.3362" y2="226.514" gradientUnits="userSpaceOnUse">
<stop stop-color="#B1FFBE"/>
<stop offset="0.444207" stop-color="#5CDB8E"/>
<stop offset="1" stop-color="#149654"/>
</linearGradient>
<linearGradient id="paint73_linear" x1="36.0646" y1="202.935" x2="54.8461" y2="232.063" gradientUnits="userSpaceOnUse">
<stop stop-color="#B1FFBE"/>
<stop offset="0.444207" stop-color="#5CDB8E"/>
<stop offset="1" stop-color="#149654"/>
</linearGradient>
</defs>
</svg>
