<svg width="670" height="268" viewBox="0 0 670 268" fill="none" xmlns="http://www.w3.org/2000/svg">
<mask id="mask0" mask-type="alpha" maskUnits="userSpaceOnUse" x="0" y="0" width="670" height="268">
<rect width="670" height="268" fill="#C4C4C4"/>
</mask>
<g mask="url(#mask0)">
<path opacity="0.2" fill-rule="evenodd" clip-rule="evenodd" d="M333.613 50.2821C300.835 13.5333 232.182 -0.143158 161.63 20.1315C74.1267 45.2782 16.8387 113.13 33.6745 171.682C47.4873 219.721 106.903 246.576 176.119 240.784C209.307 267.334 265.185 276.102 322.159 259.729C402.08 236.761 453.895 173.021 437.891 117.361C426.665 78.3163 385.047 53.6193 333.613 50.2821Z" fill="#D4E1F8"/>
<mask id="mask1" mask-type="alpha" maskUnits="userSpaceOnUse" x="30" y="10" width="411" height="258">
<path fill-rule="evenodd" clip-rule="evenodd" d="M333.613 50.2821C300.835 13.5333 232.182 -0.143158 161.63 20.1315C74.1267 45.2782 16.8387 113.13 33.6745 171.682C47.4873 219.721 106.903 246.576 176.119 240.784C209.307 267.334 265.185 276.102 322.159 259.729C402.08 236.761 453.895 173.021 437.891 117.361C426.665 78.3163 385.047 53.6193 333.613 50.2821Z" fill="white"/>
</mask>
<g mask="url(#mask1)">
<rect x="-180.338" y="4.01562" width="843.185" height="289.845" fill="url(#paint0_linear)"/>
<path fill-rule="evenodd" clip-rule="evenodd" d="M74.7939 139.012C74.2673 123.922 34.9288 127.323 19.754 128.779C4.57902 130.235 3.20123 109.562 16.2942 106.489C29.3869 103.416 53.1297 105.002 65.4314 102.165C77.7332 99.3289 62.1719 84.1162 78.9337 82.2825C95.6954 80.449 130.354 82.1466 140.687 81.7741C156.916 81.189 165.243 100.718 136.81 101.604C128.969 101.848 127.396 119.197 153.863 114.432C170.472 111.441 203.06 111.372 209.839 119.007C213.729 123.388 212.381 135.157 205.694 141.656C200.727 146.484 184.929 147.425 178.741 148.541C164.223 151.16 167.093 165.21 172.043 168.103C183.758 174.949 215.909 162.029 216.771 180.828C217.152 189.135 187.898 190.476 175.903 190.375C146.484 190.126 127.155 192.746 125.799 182.715C124.437 172.646 144.08 179.442 143.111 167.063C142.605 160.594 143.961 146.848 131.359 147.57C148.613 146.582 75.505 159.394 74.7939 139.012Z" fill="url(#paint1_linear)"/>
<path opacity="0.472712" d="M163.452 82.1017L203.492 51.4707" stroke="url(#paint2_linear)" stroke-width="4" stroke-linecap="round" stroke-linejoin="round"/>
<path opacity="0.472712" d="M163.847 97.4805L195.428 73.3203" stroke="url(#paint3_linear)" stroke-width="4" stroke-linecap="round" stroke-linejoin="round"/>
<path opacity="0.472712" d="M333.472 145.201L373.512 114.57" stroke="url(#paint4_linear)" stroke-width="4" stroke-linecap="round" stroke-linejoin="round"/>
<path opacity="0.472712" d="M333.866 160.58L365.448 136.42" stroke="url(#paint5_linear)" stroke-width="4" stroke-linecap="round" stroke-linejoin="round"/>
</g>
<path fill-rule="evenodd" clip-rule="evenodd" d="M378.519 185.48C392.995 189.539 403.545 190.143 410.168 187.293C403.186 193.365 397.624 196.065 393.483 195.395C387.271 194.389 380.905 187.293 378.519 185.48Z" fill="#A1B8E3"/>
<path fill-rule="evenodd" clip-rule="evenodd" d="M360.224 173.443C371.326 173.443 373.642 173.443 386.287 173.443C386.287 187.056 393.685 191.976 401.576 193.637C392.356 198.829 375.076 195.89 370.182 191.599C365.289 187.307 362.376 185.611 360.224 173.443Z" fill="url(#paint6_linear)"/>
<path fill-rule="evenodd" clip-rule="evenodd" d="M366.488 13.1343C367.353 13.9849 368.091 14.8096 368.7 15.6086C369.97 17.2718 370.349 19.5707 370.26 19.6287C369.779 19.9455 367.026 18.1182 366.488 16.6342C366.166 15.7444 366.166 14.5778 366.488 13.1343Z" fill="#A1B8E3"/>
<path fill-rule="evenodd" clip-rule="evenodd" d="M343.42 27.7264C349.747 23.4077 353.064 18.0271 353.371 11.5845C355.032 11.3367 358.242 11.6458 366.294 13.0456C367.044 13.176 367.11 14.3652 366.493 16.6134C369.208 17.6087 370.452 18.5568 370.225 19.4576C368.257 27.2681 365.654 30.8291 361.725 32.5024C357.219 33.0744 351.117 31.4824 343.42 27.7264Z" fill="url(#paint7_linear)"/>
<g opacity="0.6">
<path fill-rule="evenodd" clip-rule="evenodd" d="M584.681 0.323067C595.745 0.323067 604.715 9.29027 604.715 20.352C604.715 31.4137 595.745 40.3809 584.681 40.3809C573.616 40.3809 564.646 31.4137 564.646 20.352C564.646 9.29027 573.616 0.323067 584.681 0.323067Z" fill="url(#paint8_radial)"/>
<mask id="mask2" mask-type="alpha" maskUnits="userSpaceOnUse" x="564" y="0" width="41" height="41">
<path fill-rule="evenodd" clip-rule="evenodd" d="M584.681 0.323067C595.745 0.323067 604.715 9.29027 604.715 20.352C604.715 31.4137 595.745 40.3809 584.681 40.3809C573.616 40.3809 564.646 31.4137 564.646 20.352C564.646 9.29027 573.616 0.323067 584.681 0.323067Z" fill="white"/>
</mask>
<g mask="url(#mask2)">
<mask id="path-16-inside-1" fill="white">
<path fill-rule="evenodd" clip-rule="evenodd" d="M584.925 6.67291V21.0839L591.522 27.6789"/>
</mask>
<path d="M584.925 21.0839H578.925V23.5697L580.683 25.3272L584.925 21.0839ZM578.925 6.67291V21.0839H590.925V6.67291H578.925ZM580.683 25.3272L587.28 31.9221L595.764 23.4356L589.167 16.8407L580.683 25.3272Z" fill="white" mask="url(#path-16-inside-1)"/>
</g>
</g>
<g opacity="0.3">
<path fill-rule="evenodd" clip-rule="evenodd" d="M149.222 144.027C149.822 144.412 149.997 145.211 149.611 145.811C140.145 160.569 132.004 181.418 126.265 200.798C120.517 220.208 117.242 237.927 117.39 246.419C117.402 247.132 116.834 247.72 116.121 247.733C115.408 247.745 114.819 247.177 114.807 246.464C114.651 237.552 118.028 219.514 123.788 200.064C129.557 180.584 137.781 159.471 147.437 144.416C147.822 143.816 148.621 143.641 149.222 144.027Z" fill="url(#paint9_linear)"/>
<path fill-rule="evenodd" clip-rule="evenodd" d="M139.575 153.468C139.575 153.468 140.249 144.79 135.744 137.292C131.238 129.793 125.649 124.878 123.259 126.314C120.869 127.75 122.585 134.993 127.09 142.491C131.596 149.99 139.575 153.468 139.575 153.468Z" fill="url(#paint10_linear)"/>
<path fill-rule="evenodd" clip-rule="evenodd" d="M144.656 156.376C144.656 156.376 152.002 161.046 160.738 160.588C169.474 160.131 176.438 157.503 176.292 154.719C176.146 151.935 168.946 150.049 160.21 150.507C151.474 150.965 144.656 156.376 144.656 156.376Z" fill="url(#paint11_linear)"/>
<path fill-rule="evenodd" clip-rule="evenodd" d="M135.638 178.684C135.638 178.684 142.729 183.732 151.477 183.732C160.225 183.732 167.317 181.472 167.317 178.684C167.317 175.897 160.225 173.637 151.477 173.637C142.729 173.637 135.638 178.684 135.638 178.684Z" fill="url(#paint12_linear)"/>
<path fill-rule="evenodd" clip-rule="evenodd" d="M128.368 201.095C128.368 201.095 135.46 206.142 144.208 206.142C152.956 206.142 160.047 203.882 160.047 201.095C160.047 198.307 152.956 196.047 144.208 196.047C135.46 196.047 128.368 201.095 128.368 201.095Z" fill="url(#paint13_linear)"/>
<path fill-rule="evenodd" clip-rule="evenodd" d="M150.13 141.769C150.13 141.769 158.169 138.43 162.804 131.011C167.44 123.592 169.281 116.381 166.917 114.903C164.553 113.426 158.879 118.242 154.243 125.661C149.607 133.08 150.13 141.769 150.13 141.769Z" fill="url(#paint14_linear)"/>
<path fill-rule="evenodd" clip-rule="evenodd" d="M129.918 176.182C129.918 176.182 128.924 167.534 123.071 161.033C117.217 154.532 110.793 150.775 108.721 152.64C106.649 154.505 109.715 161.288 115.568 167.789C121.422 174.29 129.918 176.182 129.918 176.182Z" fill="url(#paint15_linear)"/>
<path fill-rule="evenodd" clip-rule="evenodd" d="M122.118 199.538C122.118 199.538 120.226 191.042 113.725 185.188C107.224 179.335 100.442 176.269 98.5762 178.341C96.7108 180.412 100.469 186.837 106.97 192.69C113.471 198.544 122.118 199.538 122.118 199.538Z" fill="url(#paint16_linear)"/>
</g>
<g filter="url(#filter0_i)">
<path fill-rule="evenodd" clip-rule="evenodd" d="M58.3198 219.299C45.7812 217.958 7.88562 208.023 15.5627 188.498C23.2397 168.974 32.8563 162.228 21.2107 155.605C9.56504 148.982 14.186 129.62 23.3287 120.552C32.4715 111.483 4.72756 92.8142 14.0858 79.2875C23.4439 65.7611 61.8743 78.629 66.096 100.879C70.3178 123.129 78.378 120.321 84.1274 129.784C89.8768 139.246 62.9731 158.844 68.9068 169.172C74.8404 179.501 101.472 187.171 89.1355 204.171C76.7991 221.172 70.8584 220.641 58.3198 219.299Z" fill="url(#paint17_radial)"/>
</g>
<path fill-rule="evenodd" clip-rule="evenodd" d="M64.5741 241.515C62.1719 216.204 34.5784 209.686 47.713 171.549C60.8476 133.412 43.365 104.857 35.9576 94.0973" fill="black" fill-opacity="0.01"/>
<path fill-rule="evenodd" clip-rule="evenodd" d="M35.5835 92.533C36.1798 92.1237 36.9946 92.2762 37.4036 92.8735C44.8832 103.799 62.676 132.99 49.3845 171.928C46.1635 181.364 45.4725 188.761 46.2268 194.932C46.981 201.102 49.191 206.141 51.9199 210.861C53.2473 213.157 54.6891 215.363 56.1506 217.6L56.2884 217.811C57.7903 220.109 59.3089 222.443 60.6929 224.881C63.4703 229.774 65.7348 235.138 66.3644 241.746C66.4331 242.467 65.9053 243.107 65.1856 243.175C64.4658 243.244 63.8267 242.715 63.758 241.994C63.1751 235.876 61.0832 230.873 58.4169 226.176C57.0792 223.819 55.6043 221.552 54.0978 219.246L53.9456 219.013C52.4947 216.793 51.0182 214.533 49.6543 212.174C46.8217 207.275 44.4398 201.891 43.628 195.25C42.8163 188.61 43.5853 180.81 46.9069 171.079C59.7858 133.35 42.5877 105.082 35.2443 94.3556C34.8354 93.7583 34.9873 92.9422 35.5835 92.533Z" fill="url(#paint18_linear)"/>
<path opacity="0.3" fill-rule="evenodd" clip-rule="evenodd" d="M49.8074 155.157C46.3837 154.173 39.8651 150.925 35.9806 144.975Z" fill="black" fill-opacity="0.01"/>
<path opacity="0.3" fill-rule="evenodd" clip-rule="evenodd" d="M35.5372 143.385C36.0571 143.048 36.7483 143.209 37.081 143.746C40.9639 150.004 47.4608 153.49 50.8247 154.547C51.4163 154.732 51.7531 155.374 51.5769 155.98C51.4008 156.585 50.7784 156.926 50.1868 156.74C46.4666 155.572 39.4482 151.817 35.1984 144.967C34.8656 144.43 35.0173 143.722 35.5372 143.385Z" fill="url(#paint19_linear)"/>
<path opacity="0.3" fill-rule="evenodd" clip-rule="evenodd" d="M47.403 202.892C41.9836 201.608 30.6811 197.542 28.6381 189.072Z" fill="black" fill-opacity="0.01"/>
<path opacity="0.3" fill-rule="evenodd" clip-rule="evenodd" d="M28.5031 187.343C29.0853 187.203 29.6717 187.572 29.8129 188.168C30.7416 192.09 33.7334 195.111 37.3044 197.355C40.8593 199.59 44.8302 200.951 47.4082 201.61C47.9903 201.759 48.3475 202.361 48.206 202.955C48.0645 203.549 47.4779 203.91 46.8958 203.761C44.1816 203.068 39.9827 201.634 36.1774 199.242C32.3883 196.861 28.8296 193.427 27.7046 188.676C27.5634 188.08 27.9209 187.483 28.5031 187.343Z" fill="url(#paint20_linear)"/>
<path opacity="0.3" fill-rule="evenodd" clip-rule="evenodd" d="M45.7987 180.762C50.3507 181.359 56.6442 179.232 60.8549 170.146Z" fill="black" fill-opacity="0.01"/>
<path opacity="0.3" fill-rule="evenodd" clip-rule="evenodd" d="M61.999 169.293C62.5413 169.565 62.7739 170.238 62.5187 170.798C58.0378 180.623 51.1618 183.129 45.9742 182.43C45.3791 182.349 44.9538 181.784 45.0242 181.168C45.0947 180.551 45.6342 180.116 46.2294 180.196C50.3903 180.757 56.4276 178.865 60.5552 169.815C60.8104 169.256 61.4568 169.022 61.999 169.293Z" fill="url(#paint21_linear)"/>
<path opacity="0.3" fill-rule="evenodd" clip-rule="evenodd" d="M48.1081 115.062C50.8117 112.247 55.354 102.061 53.664 94.0422Z" fill="black" fill-opacity="0.01"/>
<path opacity="0.3" fill-rule="evenodd" clip-rule="evenodd" d="M53.2641 93.2282C53.8488 93.1058 54.4221 93.4817 54.5446 94.0678C55.4173 98.2419 54.708 102.89 53.4945 106.791C52.288 110.669 50.5168 114.016 49.0773 115.557C48.6692 115.994 47.9847 116.016 47.5485 115.607C47.1122 115.198 47.0894 114.512 47.4975 114.075C48.6181 112.875 50.2665 109.882 51.4293 106.144C52.5852 102.428 53.1951 98.1834 52.4274 94.511C52.3048 93.9249 52.6795 93.3506 53.2641 93.2282Z" fill="url(#paint22_linear)"/>
<path fill-rule="evenodd" clip-rule="evenodd" d="M311.489 78.5135C308.682 86.3238 299.545 90.8318 290.321 92.5424C294.047 98.3639 301.483 107.72 307.944 114.475C308.251 114.797 309.496 115.3 309.824 115.564C311.803 117.161 313.922 116.258 315.022 116.243C320.463 114.54 325.292 113.81 329.82 109.702C332.142 107.596 333.866 105.663 334.414 104.726C333.061 100.598 326.363 96.9816 311.489 78.5135Z" fill="url(#paint23_linear)"/>
<path fill-rule="evenodd" clip-rule="evenodd" d="M313.666 111.861C313.769 114.149 309.743 116.244 307.443 113.997C309.91 116.36 312.104 116.708 313.924 116.702C315.744 116.697 324.243 116.717 334.379 104.731C325.411 114.492 318.613 117.001 313.666 111.861Z" fill="#FF9600"/>
<path fill-rule="evenodd" clip-rule="evenodd" d="M627.844 115.435H641.759C642.673 115.435 643.415 116.177 643.415 117.093L638.446 135.323C638.446 136.238 637.704 136.98 636.789 136.98H622.874C621.959 136.98 621.218 136.238 621.218 135.323L626.187 117.093C626.187 116.177 626.929 115.435 627.844 115.435Z" fill="url(#paint24_linear)"/>
<path fill-rule="evenodd" clip-rule="evenodd" d="M648.856 123.271H667.136C668.338 123.271 669.312 124.246 669.312 125.447L662.784 149.386C662.784 150.588 661.809 151.562 660.607 151.562H642.327C641.125 151.562 640.151 150.588 640.151 149.386L646.68 125.447C646.68 124.246 647.654 123.271 648.856 123.271Z" fill="url(#paint25_linear)"/>
<path fill-rule="evenodd" clip-rule="evenodd" d="M631.228 142.205H649.509C650.711 142.205 651.685 143.179 651.685 144.381L645.156 168.32C645.156 169.521 644.182 170.496 642.98 170.496H624.7C623.498 170.496 622.523 169.521 622.523 168.32L629.052 144.381C629.052 143.179 630.026 142.205 631.228 142.205Z" fill="url(#paint26_linear)"/>
<path fill-rule="evenodd" clip-rule="evenodd" d="M493.828 249.445V244.078H502.404V250.655L496.656 251.429L493.828 249.445Z" fill="url(#paint27_linear)"/>
<path fill-rule="evenodd" clip-rule="evenodd" d="M539.679 231.522L535.176 227.978L540.828 220.496L544.978 225.468L539.679 231.522Z" fill="url(#paint28_linear)"/>
<path fill-rule="evenodd" clip-rule="evenodd" d="M520.133 165.668C520.133 165.668 522.138 189.7 523.56 193.267C524.982 196.834 542.221 220.604 542.221 220.604C542.221 220.604 541.331 223.416 539.485 225.469C537.749 227.399 535.945 228.513 534.554 229.375C531.177 226.687 509.153 204.129 509.153 204.129C509.153 204.129 507.293 191.791 509.153 185.035C511.014 178.278 520.133 165.668 520.133 165.668Z" fill="url(#paint29_linear)"/>
<path fill-rule="evenodd" clip-rule="evenodd" d="M486.366 144.144C486.366 145.556 488.519 151.676 489.186 159.151C489.656 164.415 488.616 170.35 488.927 175.786C489.681 188.943 493.15 245.577 493.15 245.577C493.15 245.577 495.515 247.304 498.181 247.701C500.848 248.098 505.216 246.953 505.216 246.953C505.216 246.953 510.237 208.235 512.664 198.773C513.832 194.218 512.831 184.283 517.122 176.725C519.096 173.249 520.572 168.86 521.591 165.133C522.981 160.051 522.401 154.698 520.588 149.75L516.111 137.533C516.111 137.533 486.366 141.738 486.366 144.144Z" fill="url(#paint30_linear)"/>
<mask id="mask3" mask-type="alpha" maskUnits="userSpaceOnUse" x="486" y="137" width="37" height="111">
<path fill-rule="evenodd" clip-rule="evenodd" d="M486.366 144.144C486.366 145.556 488.519 151.676 489.186 159.151C489.656 164.415 488.616 170.35 488.927 175.786C489.681 188.943 493.15 245.577 493.15 245.577C493.15 245.577 495.515 247.304 498.181 247.701C500.848 248.098 505.216 246.953 505.216 246.953C505.216 246.953 510.237 208.235 512.664 198.773C513.832 194.218 512.831 184.283 517.122 176.725C519.096 173.249 520.572 168.86 521.591 165.133C522.981 160.051 522.401 154.698 520.588 149.75L516.111 137.533C516.111 137.533 486.366 141.738 486.366 144.144Z" fill="white"/>
</mask>
<g mask="url(#mask3)">
<g opacity="0.5">
<path fill-rule="evenodd" clip-rule="evenodd" d="M488.025 145.621C492.905 147.091 511.138 148.007 519.159 142.912C527.18 137.818 499.332 139.477 499.332 139.477C499.332 139.477 483.144 144.151 488.025 145.621Z" fill="url(#paint31_linear)" style="mix-blend-mode:multiply"/>
</g>
<g opacity="0.5">
<path fill-rule="evenodd" clip-rule="evenodd" d="M505.835 164.123C504.063 163.703 502.433 163.539 500.978 162.025C499.856 160.859 498.754 158.958 498.754 156.463C498.754 150.731 500.513 148.129 500.513 148.129" fill="url(#paint32_linear)" style="mix-blend-mode:multiply"/>
</g>
</g>
<path fill-rule="evenodd" clip-rule="evenodd" d="M551.781 234.792C551.781 234.792 548.938 230.103 547.146 227.967C545.353 225.83 543.925 224.129 543.925 224.129C543.925 224.129 543.309 226.656 541.75 228.022C540.376 229.226 539.927 229.551 537.12 229.839C535.466 233.266 534.309 240.208 530.965 246.571C530.637 248.155 531.528 249.354 532.206 250.008C532.587 250.376 533.168 250.338 533.576 250L541.08 243.771L544.433 236.668L547.084 238.733L551.781 234.792Z" fill="url(#paint33_radial)"/>
<path fill-rule="evenodd" clip-rule="evenodd" d="M501.874 261.585C501.874 261.585 502.71 256.166 502.71 253.377C502.71 250.588 502.71 248.367 502.71 248.367C502.71 248.367 500.614 249.907 498.541 249.951C496.715 249.99 496.162 249.951 493.826 248.367C490.357 249.929 482.409 254.801 475.757 257.526C475.757 258.588 476.214 260.125 476.529 261.056C476.694 261.545 477.163 261.857 477.679 261.844L487.905 261.585L495.039 258.299L495.742 261.585H501.874Z" fill="url(#paint34_radial)"/>
<path fill-rule="evenodd" clip-rule="evenodd" d="M466.837 52.1801C467.153 53.1691 469.971 55.8148 470.658 58.7791C471.066 60.5421 470.758 62.3094 470.758 63.6707C470.758 67.3211 471.966 67.182 474.534 66.6296C476.938 68.0535 477.356 71.2437 480.042 72.9032C482.727 74.5626 487.366 68.5598 488.896 70.2702C489.396 70.8288 489.683 71.8968 490.684 72.9032C491.727 73.9511 491.159 78.4836 491.159 78.4836C491.159 78.4836 500.256 77.1498 501.292 72.2906C500.173 70.0364 497.584 63.0322 497.584 61.1211C497.584 59.2101 501.862 51.9201 490.204 44.8465C478.547 37.7729 466.333 50.603 466.837 52.1801Z" fill="url(#paint35_linear)"/>
<mask id="mask4" mask-type="alpha" maskUnits="userSpaceOnUse" x="466" y="42" width="36" height="37">
<path fill-rule="evenodd" clip-rule="evenodd" d="M466.837 52.1801C467.153 53.1691 469.971 55.8148 470.658 58.7791C471.066 60.5421 470.758 62.3094 470.758 63.6707C470.758 67.3211 471.966 67.182 474.534 66.6296C476.938 68.0535 477.356 71.2437 480.042 72.9032C482.727 74.5626 487.366 68.5598 488.896 70.2702C489.396 70.8288 489.683 71.8968 490.684 72.9032C491.727 73.9511 491.159 78.4836 491.159 78.4836C491.159 78.4836 500.256 77.1498 501.292 72.2906C500.173 70.0364 497.584 63.0322 497.584 61.1211C497.584 59.2101 501.862 51.9201 490.204 44.8465C478.547 37.7729 466.333 50.603 466.837 52.1801Z" fill="white"/>
</mask>
<g mask="url(#mask4)">
<g opacity="0.5">
<path fill-rule="evenodd" clip-rule="evenodd" d="M485.941 70.9565C487.754 69.5788 490.179 64.9944 490.179 64.6408C490.179 64.2872 491.453 75.8086 491.453 75.8086C491.453 75.8086 484.128 72.3342 485.941 70.9565Z" fill="#3D82F0" style="mix-blend-mode:multiply"/>
</g>
<path fill-rule="evenodd" clip-rule="evenodd" d="M477.798 67.3075C477.844 67.4701 477.751 67.6398 477.588 67.6866C476.362 68.0398 475.646 68.6242 475.222 69.6001C475.155 69.7553 474.975 69.8266 474.819 69.7592C474.664 69.6919 474.593 69.5116 474.66 69.3564C475.17 68.1808 476.053 67.4913 477.419 67.098C477.581 67.0512 477.751 67.145 477.798 67.3075Z" fill="#223762"/>
</g>
<path fill-rule="evenodd" clip-rule="evenodd" d="M449.056 106.801C446.697 104.72 443.776 104.007 441.942 101.165C440.108 98.3225 434.782 88.7707 436.167 87.5363C437.552 86.3018 441.019 82.9727 442.327 82.9727C443.635 82.9727 446.039 88.0213 447.234 90.3183C448.43 92.6152 450.443 97.5109 450.443 99.5317C450.443 101.552 451.416 108.882 449.056 106.801Z" fill="url(#paint36_linear)"/>
<path fill-rule="evenodd" clip-rule="evenodd" d="M433.234 82.3773C432.759 81.528 433.029 80.4564 433.849 79.9328L439.129 76.5602C440.164 75.899 441.542 76.2408 442.148 77.309L450.669 92.3289C451.154 93.1839 450.881 94.2693 450.048 94.792L444.368 98.3587C443.477 98.9182 442.299 98.6168 441.787 97.6981L433.234 82.3773Z" fill="#223762"/>
<path fill-rule="evenodd" clip-rule="evenodd" d="M434.658 81.0255C434.418 80.5931 434.563 80.0479 434.986 79.7921L440.531 76.4431C440.974 76.1755 441.55 76.3263 441.805 76.7765L450.173 91.5395C450.42 91.9752 450.273 92.5284 449.842 92.7834L444.155 96.1487C443.71 96.412 443.135 96.2565 442.884 95.8047L434.658 81.0255Z" fill="url(#paint37_linear)"/>
<path fill-rule="evenodd" clip-rule="evenodd" d="M478.885 107.713C478.885 107.713 468.349 120.979 467.824 120.979C467.298 120.979 455.198 103.737 455.198 102.949C455.198 102.162 456.061 99.0747 453.667 95.7815C451.273 92.4882 449.811 86.7199 448.551 85.6929C447.291 84.6659 447.282 84.2182 446.648 84.774C446.015 85.3299 446.056 85.8059 446.648 87.0188C447.241 88.2317 448.551 91.7177 448.551 92.6148C448.551 93.512 447.945 96.7082 448.551 97.9252C449.157 99.1423 448.578 103.878 449.33 106.29C450.082 108.703 463.722 133.179 467.724 132.654C471.726 132.128 485.864 117.61 485.864 117.61C485.864 117.61 488.054 111.211 484.46 108.818C480.867 106.425 478.885 107.713 478.885 107.713Z" fill="url(#paint38_linear)"/>
<mask id="mask5" mask-type="alpha" maskUnits="userSpaceOnUse" x="446" y="84" width="41" height="49">
<path fill-rule="evenodd" clip-rule="evenodd" d="M478.885 107.713C478.885 107.713 468.349 120.979 467.824 120.979C467.298 120.979 455.198 103.737 455.198 102.949C455.198 102.162 456.061 99.0747 453.667 95.7815C451.273 92.4882 449.811 86.7199 448.551 85.6929C447.291 84.6659 447.282 84.2182 446.648 84.774C446.015 85.3299 446.056 85.8059 446.648 87.0188C447.241 88.2317 448.551 91.7177 448.551 92.6148C448.551 93.512 447.945 96.7082 448.551 97.9252C449.157 99.1423 448.578 103.878 449.33 106.29C450.082 108.703 463.722 133.179 467.724 132.654C471.726 132.128 485.864 117.61 485.864 117.61C485.864 117.61 488.054 111.211 484.46 108.818C480.867 106.425 478.885 107.713 478.885 107.713Z" fill="white"/>
</mask>
<g mask="url(#mask5)">
<g opacity="0.5">
<path fill-rule="evenodd" clip-rule="evenodd" d="M476.072 108.552C476.072 108.552 479.297 112.553 482.024 115.328C483.578 119.342 482.39 122.314 483.578 121.9C484.766 121.485 487.042 110.284 485.904 108.552C485.424 107.821 481.95 104.874 479.297 105.353C477.759 105.631 476.072 108.552 476.072 108.552Z" fill="#3D82F0" style="mix-blend-mode:multiply"/>
</g>
<path fill-rule="evenodd" clip-rule="evenodd" d="M467.66 120.417C467.771 120.289 467.964 120.274 468.092 120.385C468.219 120.494 468.341 120.659 468.455 120.836C468.572 121.018 468.693 121.235 468.814 121.467C469.048 121.916 469.29 122.439 469.506 122.907C469.514 122.924 469.522 122.941 469.53 122.958C469.601 123.112 469.534 123.294 469.38 123.365C469.227 123.436 469.045 123.369 468.974 123.215C468.967 123.2 468.96 123.185 468.953 123.169C468.734 122.697 468.498 122.185 468.271 121.75C468.154 121.526 468.042 121.327 467.94 121.167C467.833 121.001 467.749 120.898 467.692 120.849C467.564 120.738 467.55 120.545 467.66 120.417Z" fill="#223762"/>
</g>
<path fill-rule="evenodd" clip-rule="evenodd" d="M483.563 112.989C478.887 109.617 473.466 103.423 476.176 100.682C478.887 97.9405 489.127 84.5457 491.241 81.7427C493.355 78.9396 496.09 96.5122 493.164 100.682C490.237 104.851 487.553 109.532 483.563 112.989Z" fill="url(#paint39_linear)"/>
<path fill-rule="evenodd" clip-rule="evenodd" d="M485.12 142.97C484.508 138.603 488.244 125.373 484.823 117.51C483.35 114.123 481.114 111.388 480.966 107.601C480.761 102.366 483.15 96.2365 484.508 93.6337C489.725 83.6355 489.604 78.0787 491.115 76.496C493.299 76.496 499.16 74.8423 501.313 71.6387C503.729 72.9893 512.099 82.6116 514.635 87.9683C517.17 93.325 516.362 109.809 516.362 119.679C516.362 129.55 517.718 136.043 517.718 138.603C517.718 141.164 486.012 149.322 485.12 142.97Z" fill="url(#paint40_linear)"/>
<path fill-rule="evenodd" clip-rule="evenodd" d="M500.973 144.238C500.973 144.238 503.698 136.7 503.698 133.709C503.698 130.718 499.61 108.776 500.973 106.328C502.335 103.88 511.206 128.721 511.206 128.721C511.206 128.721 507.432 139.16 506.178 141.585C504.924 144.011 500.973 144.238 500.973 144.238Z" fill="url(#paint41_linear)" style="mix-blend-mode:multiply"/>
<path fill-rule="evenodd" clip-rule="evenodd" d="M478.385 50.2658C470.187 45.7586 467.589 53.9656 466.391 52.9227C463.225 48.9327 464.897 44.3965 466.391 40.6067C468.903 34.2331 484.268 23.7161 496.379 34.9539C508.49 46.1916 498.502 65.514 498.502 65.514C498.502 65.514 495.453 64.3715 494.679 61.2441C493.905 58.1168 486.736 56.6871 486.736 56.6871C486.736 56.6871 488.745 53.5997 486.736 51.726C484.726 49.8524 483.854 50.4599 483.235 51.0849C482.595 51.3914 482.523 54.1478 482.523 54.1478C482.523 54.1478 479.969 51.0849 478.385 50.2658Z" fill="url(#paint42_radial)"/>
<path fill-rule="evenodd" clip-rule="evenodd" d="M500.833 56.0787C500.833 57.0444 502.981 59.9461 506.829 59.9461C510.676 59.9461 522.192 56.9525 526.009 66.3104C529.826 75.6682 524.557 76.1085 530.775 82.8677C536.993 89.6268 537.231 107.926 522.03 103.55C506.829 99.174 509.225 79.2827 509.225 73.9755C509.225 68.6684 503.512 66.7715 498.385 65.5747C495.591 59.9461 500.833 55.1131 500.833 56.0787Z" fill="#223762"/>
<mask id="mask6" mask-type="alpha" maskUnits="userSpaceOnUse" x="497" y="55" width="38" height="50">
<path fill-rule="evenodd" clip-rule="evenodd" d="M500.833 56.0787C500.833 57.0444 502.981 59.9461 506.829 59.9461C510.676 59.9461 522.192 56.9525 526.009 66.3104C529.826 75.6682 524.557 76.1085 530.775 82.8677C536.993 89.6268 537.231 107.926 522.03 103.55C506.829 99.174 509.225 79.2827 509.225 73.9755C509.225 68.6684 503.512 66.7715 498.385 65.5747C495.591 59.9461 500.833 55.1131 500.833 56.0787Z" fill="white"/>
</mask>
<g mask="url(#mask6)">
<g opacity="0.3">
<path fill-rule="evenodd" clip-rule="evenodd" d="M498.619 65.1368C502.715 64.0017 511.668 64.053 514.296 69.1238C516.924 74.1946 521.269 97.0881 511.598 98.0722C501.927 99.0564 494.524 66.2719 498.619 65.1368Z" fill="#223762" style="mix-blend-mode:multiply"/>
</g>
<path fill-rule="evenodd" clip-rule="evenodd" d="M503.647 57.5954C503.883 58.0447 503.71 58.6002 503.26 58.8361C500.225 60.43 500.066 63.6859 500.066 65.9722C500.066 66.4797 499.655 66.8911 499.147 66.8911C498.64 66.8911 498.228 66.4797 498.228 65.9722C498.228 63.7875 498.296 59.3673 502.406 57.209C502.855 56.9731 503.411 57.1461 503.647 57.5954Z" fill="#D6E3FA"/>
</g>
<path fill-rule="evenodd" clip-rule="evenodd" d="M505.84 133.243C504.894 129.195 499.417 107.545 500.668 102.115C501.919 96.6846 511.548 94.0478 512.555 100.47C513.37 105.667 515.78 126.067 516.67 133.661C516.89 135.539 516.576 137.436 515.767 139.145L507.466 156.687L503.946 163.616C503.946 163.616 500.668 163.069 499.141 158.876C498.642 157.509 498.951 155.923 499.663 154.285C502.725 147.242 506.607 136.528 505.84 133.243Z" fill="url(#paint43_linear)"/>
<mask id="mask7" mask-type="alpha" maskUnits="userSpaceOnUse" x="498" y="96" width="19" height="68">
<path fill-rule="evenodd" clip-rule="evenodd" d="M505.84 133.243C504.894 129.195 499.417 107.545 500.668 102.115C501.919 96.6846 511.548 94.0478 512.555 100.47C513.37 105.667 515.78 126.067 516.67 133.661C516.89 135.539 516.576 137.436 515.767 139.145L507.466 156.687L503.946 163.616C503.946 163.616 500.668 163.069 499.141 158.876C498.642 157.509 498.951 155.923 499.663 154.285C502.725 147.242 506.607 136.528 505.84 133.243Z" fill="white"/>
</mask>
<g mask="url(#mask7)">
<g opacity="0.5">
<path fill-rule="evenodd" clip-rule="evenodd" d="M501.298 109.323C505.024 110.169 511.68 110.595 514.59 109.323C517.5 108.052 513.67 104.115 513.67 104.115C513.67 104.115 497.572 108.478 501.298 109.323Z" fill="#3D82F0" style="mix-blend-mode:multiply"/>
</g>
</g>
<path fill-rule="evenodd" clip-rule="evenodd" d="M498.494 107.297C496.866 102.525 493.834 83.1056 502.106 80.9709C510.377 78.8361 515.268 101.319 515.268 103.437C515.268 105.554 500.122 112.07 498.494 107.297Z" fill="url(#paint44_linear)"/>
<path fill-rule="evenodd" clip-rule="evenodd" d="M488.149 96.2859C488.245 95.7444 488.791 95.4074 489.318 95.5653L493.749 96.8934C494.195 97.0272 494.471 97.4741 494.39 97.9331L492.574 108.233C492.5 108.652 492.149 108.965 491.725 108.991L488.981 109.159C488.707 109.176 488.44 109.07 488.252 108.869L486.612 107.111C486.415 106.9 486.329 106.609 486.379 106.324L488.149 96.2859Z" fill="url(#paint45_linear)"/>
<path fill-rule="evenodd" clip-rule="evenodd" d="M438.322 59.6998C438.828 59.6623 439.269 60.0422 439.307 60.5483L439.919 68.818C439.957 69.3241 439.577 69.7647 439.071 69.8022C438.565 69.8397 438.124 69.4598 438.086 68.9537L437.474 60.684C437.436 60.178 437.816 59.7373 438.322 59.6998Z" fill="url(#paint46_linear)"/>
<path fill-rule="evenodd" clip-rule="evenodd" d="M448.204 59.7528C448.68 59.929 448.923 60.4577 448.747 60.9335L445.684 69.2032C445.508 69.6791 444.979 69.922 444.503 69.7458C444.027 69.5695 443.784 69.0409 443.961 68.565L447.024 60.2953C447.2 59.8194 447.728 59.5765 448.204 59.7528Z" fill="url(#paint47_linear)"/>
<path fill-rule="evenodd" clip-rule="evenodd" d="M455.199 67.4025C455.508 67.805 455.432 68.3818 455.03 68.6908L448.445 73.7445C448.042 74.0535 447.465 73.9776 447.156 73.575C446.847 73.1724 446.923 72.5956 447.326 72.2866L453.911 67.2329C454.313 66.924 454.89 66.9999 455.199 67.4025Z" fill="url(#paint48_linear)"/>
<path opacity="0.460603" fill-rule="evenodd" clip-rule="evenodd" d="M434.409 80.4231L477.709 45.3008L494.44 75.8097L443.449 96.7567L434.409 80.4231Z" fill="url(#paint49_linear)"/>
<path fill-rule="evenodd" clip-rule="evenodd" d="M195.965 82.3691C195.083 82.9568 194.845 84.1481 195.432 85.0301C213.331 111.891 228.971 149.978 240.142 185.416C251.327 220.898 257.931 253.401 257.931 269.081C257.931 270.141 258.79 271 259.85 271C260.91 271 261.769 270.141 261.769 269.081C261.769 252.778 255.006 219.802 243.802 184.262C232.584 148.677 216.814 110.198 198.626 82.902C198.038 82.02 196.847 81.7814 195.965 82.3691Z" fill="url(#paint50_linear)"/>
<path fill-rule="evenodd" clip-rule="evenodd" d="M213.738 99.0261C213.738 99.0261 212.221 83.1041 220.258 69.1838C228.295 55.2636 238.406 46.0553 242.842 48.6165C247.278 51.1776 244.36 64.5385 236.323 78.4587C228.286 92.379 213.738 99.0261 213.738 99.0261Z" fill="url(#paint51_linear)"/>
<path fill-rule="evenodd" clip-rule="evenodd" d="M204.496 104.529C204.496 104.529 191.15 113.344 175.086 112.783C159.022 112.222 146.145 107.617 146.324 102.498C146.502 97.3785 159.67 93.6833 175.734 94.2442C191.798 94.8052 204.496 104.529 204.496 104.529Z" fill="url(#paint52_linear)"/>
<path fill-rule="evenodd" clip-rule="evenodd" d="M221.78 145.224C221.78 145.224 208.914 154.725 192.842 155.006C176.771 155.286 163.67 151.362 163.581 146.24C163.492 141.119 176.447 136.739 192.519 136.459C208.59 136.178 221.78 145.224 221.78 145.224Z" fill="url(#paint53_linear)"/>
<path fill-rule="evenodd" clip-rule="evenodd" d="M235.854 186.164C235.854 186.164 222.987 195.665 206.916 195.945C190.845 196.226 177.744 192.301 177.655 187.18C177.565 182.058 190.521 177.679 206.592 177.398C222.664 177.118 235.854 186.164 235.854 186.164Z" fill="url(#paint54_linear)"/>
<path fill-rule="evenodd" clip-rule="evenodd" d="M193.972 77.8688C193.972 77.8688 179.096 71.9922 170.342 58.5116C161.588 45.0311 157.973 31.8413 162.269 29.0515C166.565 26.2616 177.145 34.9281 185.899 48.4087C194.653 61.8892 193.972 77.8688 193.972 77.8688Z" fill="url(#paint55_linear)"/>
<path fill-rule="evenodd" clip-rule="evenodd" d="M232.207 140.447C232.207 140.447 233.756 124.528 244.301 112.397C254.847 100.266 266.529 93.1561 270.395 96.5167C274.261 99.8773 268.846 112.436 258.301 124.567C247.756 136.698 232.207 140.447 232.207 140.447Z" fill="url(#paint56_linear)"/>
<path fill-rule="evenodd" clip-rule="evenodd" d="M247.286 183.104C247.286 183.104 250.491 167.434 262.246 156.472C274.002 145.51 286.364 139.66 289.857 143.406C293.351 147.152 286.653 159.076 274.897 170.038C263.142 181.001 247.286 183.104 247.286 183.104Z" fill="url(#paint57_linear)"/>
<g opacity="0.3">
<path fill-rule="evenodd" clip-rule="evenodd" d="M301.768 168.237C301.158 168.381 300.781 168.992 300.925 169.601C304.468 184.579 305.141 204.214 304.252 221.934C303.362 239.681 300.916 255.308 298.322 262.297C298.104 262.884 298.403 263.537 298.99 263.755C299.577 263.973 300.23 263.674 300.447 263.087C303.17 255.752 305.625 239.831 306.517 222.047C307.41 204.236 306.746 184.357 303.132 169.079C302.988 168.47 302.377 168.093 301.768 168.237Z" fill="url(#paint58_linear)"/>
<path fill-rule="evenodd" clip-rule="evenodd" d="M307.008 178.864C307.008 178.864 308.976 171.481 314.89 166.583C320.804 161.685 326.863 159.242 328.424 161.127C329.985 163.011 326.456 168.51 320.542 173.408C314.628 178.306 307.008 178.864 307.008 178.864Z" fill="url(#paint59_linear)"/>
<path fill-rule="evenodd" clip-rule="evenodd" d="M301.953 179.791C301.953 179.791 294.51 181.52 287.409 178.598C280.308 175.675 275.306 171.472 276.238 169.209C277.169 166.946 283.68 167.48 290.782 170.402C297.883 173.325 301.953 179.791 301.953 179.791Z" fill="url(#paint60_linear)"/>
<path fill-rule="evenodd" clip-rule="evenodd" d="M302.928 200.894C302.928 200.894 295.586 203.01 288.341 200.464C281.097 197.917 275.882 193.981 276.693 191.672C277.505 189.364 284.036 189.557 291.28 192.103C298.524 194.65 302.928 200.894 302.928 200.894Z" fill="url(#paint61_linear)"/>
<path fill-rule="evenodd" clip-rule="evenodd" d="M302.424 221.568C302.424 221.568 295.082 223.684 287.837 221.137C280.593 218.591 275.378 214.655 276.19 212.346C277.001 210.038 283.532 210.23 290.776 212.777C298.021 215.324 302.424 221.568 302.424 221.568Z" fill="url(#paint62_linear)"/>
<path fill-rule="evenodd" clip-rule="evenodd" d="M301.673 166.102C301.673 166.102 295.988 160.997 294.308 153.503C292.629 146.01 293.203 139.502 295.591 138.967C297.979 138.432 301.276 144.072 302.956 151.565C304.635 159.058 301.673 166.102 301.673 166.102Z" fill="url(#paint63_linear)"/>
<path fill-rule="evenodd" clip-rule="evenodd" d="M308.393 200.485C308.393 200.485 311.733 193.613 318.473 189.933C325.213 186.254 331.627 185.012 332.8 187.16C333.973 189.308 329.459 194.032 322.72 197.711C315.98 201.391 308.393 200.485 308.393 200.485Z" fill="url(#paint64_linear)"/>
<path fill-rule="evenodd" clip-rule="evenodd" d="M308.053 222.098C308.053 222.098 312.094 215.612 319.181 212.657C326.269 209.702 332.778 209.138 333.72 211.397C334.661 213.655 329.679 217.882 322.591 220.837C315.504 223.792 308.053 222.098 308.053 222.098Z" fill="url(#paint65_linear)"/>
</g>
</g>
<defs>
<filter id="filter0_i" x="-11.1182" y="60.2539" width="108.676" height="167.044" filterUnits="userSpaceOnUse" color-interpolation-filters="sRGB">
<feFlood flood-opacity="0" result="BackgroundImageFix"/>
<feBlend mode="normal" in="SourceGraphic" in2="BackgroundImageFix" result="shape"/>
<feColorMatrix in="SourceAlpha" type="matrix" values="0 0 0 0 0 0 0 0 0 0 0 0 0 0 0 0 0 0 127 0" result="hardAlpha"/>
<feOffset dx="-8" dy="-6"/>
<feGaussianBlur stdDeviation="15"/>
<feComposite in2="hardAlpha" operator="arithmetic" k2="-1" k3="1"/>
<feColorMatrix type="matrix" values="0 0 0 0 0.269084 0 0 0 0 0.79451 0 0 0 0 0.470313 0 0 0 0.5 0"/>
<feBlend mode="normal" in2="shape" result="effect1_innerShadow"/>
</filter>
<linearGradient id="paint0_linear" x1="477.765" y1="293.742" x2="46.1999" y2="293.742" gradientUnits="userSpaceOnUse">
<stop stop-color="white"/>
<stop offset="1" stop-color="#EAF0FD"/>
</linearGradient>
<linearGradient id="paint1_linear" x1="326.891" y1="205.626" x2="293.581" y2="52.1979" gradientUnits="userSpaceOnUse">
<stop stop-color="#E3ECF9"/>
<stop offset="1" stop-color="#F6F8FE"/>
</linearGradient>
<linearGradient id="paint2_linear" x1="196.97" y1="-8.92846" x2="123.99" y2="84.376" gradientUnits="userSpaceOnUse">
<stop stop-color="#D2E0F9" stop-opacity="0.01"/>
<stop offset="1" stop-color="#B1C6E7" stop-opacity="0.464589"/>
</linearGradient>
<linearGradient id="paint3_linear" x1="190.283" y1="25.6805" x2="132.721" y2="99.2743" gradientUnits="userSpaceOnUse">
<stop stop-color="#D2E0F9" stop-opacity="0.01"/>
<stop offset="1" stop-color="#B1C6E7" stop-opacity="0.464589"/>
</linearGradient>
<linearGradient id="paint4_linear" x1="366.989" y1="54.1711" x2="294.009" y2="147.476" gradientUnits="userSpaceOnUse">
<stop stop-color="#D2E0F9" stop-opacity="0.01"/>
<stop offset="1" stop-color="#B1C6E7" stop-opacity="0.464589"/>
</linearGradient>
<linearGradient id="paint5_linear" x1="360.303" y1="88.7801" x2="302.74" y2="162.374" gradientUnits="userSpaceOnUse">
<stop stop-color="#D2E0F9" stop-opacity="0.01"/>
<stop offset="1" stop-color="#B1C6E7" stop-opacity="0.464589"/>
</linearGradient>
<linearGradient id="paint6_linear" x1="380.094" y1="204.437" x2="388.941" y2="187.121" gradientUnits="userSpaceOnUse">
<stop stop-color="#ACC1E3"/>
<stop offset="1" stop-color="#D6E3FA"/>
</linearGradient>
<linearGradient id="paint7_linear" x1="355.226" y1="39.2311" x2="366.869" y2="27.3483" gradientUnits="userSpaceOnUse">
<stop stop-color="#ACC1E3"/>
<stop offset="1" stop-color="#D6E3FA"/>
</linearGradient>
<radialGradient id="paint8_radial" cx="0" cy="0" r="1" gradientUnits="userSpaceOnUse" gradientTransform="translate(596.304 9.65138) rotate(117.134) scale(34.8927 65.5779)">
<stop stop-color="#CBDAF1"/>
<stop offset="1" stop-color="#7089B9"/>
</radialGradient>
<linearGradient id="paint9_linear" x1="114.34" y1="145.71" x2="116.098" y2="246.441" gradientUnits="userSpaceOnUse">
<stop stop-color="#CFDDF3"/>
<stop offset="1" stop-color="#A1B8E3"/>
</linearGradient>
<linearGradient id="paint10_linear" x1="113.565" y1="88.1345" x2="94.3001" y2="106.84" gradientUnits="userSpaceOnUse">
<stop stop-color="#CFDDF3"/>
<stop offset="1" stop-color="#A1B8E3"/>
</linearGradient>
<linearGradient id="paint11_linear" x1="214.553" y1="164.083" x2="207.082" y2="138.292" gradientUnits="userSpaceOnUse">
<stop stop-color="#CFDDF3"/>
<stop offset="1" stop-color="#A1B8E3"/>
</linearGradient>
<linearGradient id="paint12_linear" x1="205.036" y1="190.039" x2="198.924" y2="163.892" gradientUnits="userSpaceOnUse">
<stop stop-color="#CFDDF3"/>
<stop offset="1" stop-color="#A1B8E3"/>
</linearGradient>
<linearGradient id="paint13_linear" x1="197.766" y1="212.449" x2="191.655" y2="186.302" gradientUnits="userSpaceOnUse">
<stop stop-color="#CFDDF3"/>
<stop offset="1" stop-color="#A1B8E3"/>
</linearGradient>
<linearGradient id="paint14_linear" x1="196.535" y1="88.9327" x2="171.122" y2="80.2597" gradientUnits="userSpaceOnUse">
<stop stop-color="#CFDDF3"/>
<stop offset="1" stop-color="#A1B8E3"/>
</linearGradient>
<linearGradient id="paint15_linear" x1="91.92" y1="117.011" x2="76.5784" y2="139.049" gradientUnits="userSpaceOnUse">
<stop stop-color="#CFDDF3"/>
<stop offset="1" stop-color="#A1B8E3"/>
</linearGradient>
<linearGradient id="paint16_linear" x1="78.143" y1="144.663" x2="65.189" y2="168.184" gradientUnits="userSpaceOnUse">
<stop stop-color="#CFDDF3"/>
<stop offset="1" stop-color="#A1B8E3"/>
</linearGradient>
<radialGradient id="paint17_radial" cx="0" cy="0" r="1" gradientUnits="userSpaceOnUse" gradientTransform="translate(59.1715 85.1783) rotate(142.128) scale(93.7804 290.359)">
<stop stop-color="#64CF9B"/>
<stop offset="1" stop-color="#ADF9A9"/>
</radialGradient>
<linearGradient id="paint18_linear" x1="27.4388" y1="92.8605" x2="50.6554" y2="245.825" gradientUnits="userSpaceOnUse">
<stop stop-color="#3FBD84"/>
<stop offset="1" stop-color="#27A05F"/>
</linearGradient>
<linearGradient id="paint19_linear" x1="34.0973" y1="142.808" x2="36.6465" y2="159.604" gradientUnits="userSpaceOnUse">
<stop stop-color="#268058"/>
<stop offset="1" stop-color="#066D36"/>
</linearGradient>
<linearGradient id="paint20_linear" x1="26.7775" y1="186.928" x2="29.8404" y2="207.108" gradientUnits="userSpaceOnUse">
<stop stop-color="#268058"/>
<stop offset="1" stop-color="#066D36"/>
</linearGradient>
<linearGradient id="paint21_linear" x1="42.8309" y1="171.322" x2="44.7251" y2="183.802" gradientUnits="userSpaceOnUse">
<stop stop-color="#268058"/>
<stop offset="1" stop-color="#066D36"/>
</linearGradient>
<linearGradient id="paint22_linear" x1="43.3879" y1="94.0675" x2="46.8368" y2="116.791" gradientUnits="userSpaceOnUse">
<stop stop-color="#268058"/>
<stop offset="1" stop-color="#066D36"/>
</linearGradient>
<linearGradient id="paint23_linear" x1="304.709" y1="73.3811" x2="296.325" y2="98.8545" gradientUnits="userSpaceOnUse">
<stop stop-color="#FF9D61"/>
<stop offset="1" stop-color="#FFD873"/>
</linearGradient>
<linearGradient id="paint24_linear" x1="617.703" y1="121.136" x2="629.92" y2="141.35" gradientUnits="userSpaceOnUse">
<stop stop-color="#ACD6FF" stop-opacity="0.152485"/>
<stop offset="1" stop-color="#96ACCB" stop-opacity="0.457456"/>
</linearGradient>
<linearGradient id="paint25_linear" x1="635.59" y1="130.759" x2="651.218" y2="157.136" gradientUnits="userSpaceOnUse">
<stop stop-color="#ACD6FF" stop-opacity="0.152485"/>
<stop offset="1" stop-color="#96ACCB" stop-opacity="0.457456"/>
</linearGradient>
<linearGradient id="paint26_linear" x1="617.962" y1="149.752" x2="633.764" y2="176.224" gradientUnits="userSpaceOnUse">
<stop stop-color="#ACD6FF" stop-opacity="0.152485"/>
<stop offset="1" stop-color="#96ACCB" stop-opacity="0.457456"/>
</linearGradient>
<linearGradient id="paint27_linear" x1="493.828" y1="244.078" x2="493.828" y2="251.429" gradientUnits="userSpaceOnUse">
<stop stop-color="#003F9B"/>
<stop offset="1" stop-color="#3D82F0"/>
</linearGradient>
<linearGradient id="paint28_linear" x1="535.176" y1="220.496" x2="535.176" y2="231.522" gradientUnits="userSpaceOnUse">
<stop stop-color="#003F9B"/>
<stop offset="1" stop-color="#3D82F0"/>
</linearGradient>
<linearGradient id="paint29_linear" x1="506.934" y1="197.83" x2="529.607" y2="209.709" gradientUnits="userSpaceOnUse">
<stop stop-color="#6A89BB"/>
<stop offset="1" stop-color="#839ED6"/>
</linearGradient>
<linearGradient id="paint30_linear" x1="559.43" y1="74.2203" x2="496.726" y2="77.9881" gradientUnits="userSpaceOnUse">
<stop stop-color="#CFDDF3"/>
<stop offset="1" stop-color="#A1B8E3"/>
</linearGradient>
<linearGradient id="paint31_linear" x1="527.095" y1="145.12" x2="526.927" y2="140.573" gradientUnits="userSpaceOnUse">
<stop stop-color="#CFDDF3" stop-opacity="0.477723"/>
<stop offset="1" stop-color="#A1B8E3"/>
</linearGradient>
<linearGradient id="paint32_linear" x1="505.215" y1="150.307" x2="499.191" y2="152.148" gradientUnits="userSpaceOnUse">
<stop stop-color="#CFDDF3" stop-opacity="0.174423"/>
<stop offset="1" stop-color="#5477B8"/>
</linearGradient>
<radialGradient id="paint33_radial" cx="0" cy="0" r="1" gradientUnits="userSpaceOnUse" gradientTransform="translate(528.472 245.723) rotate(20.6826) scale(9.86771 29.2676)">
<stop stop-color="#47689B"/>
<stop offset="1" stop-color="#223762"/>
</radialGradient>
<radialGradient id="paint34_radial" cx="0" cy="0" r="1" gradientUnits="userSpaceOnUse" gradientTransform="translate(475.757 255.105) rotate(60.0047) scale(10.1288 30.467)">
<stop stop-color="#47689B"/>
<stop offset="1" stop-color="#223762"/>
</radialGradient>
<linearGradient id="paint35_linear" x1="462.361" y1="76.1695" x2="481.242" y2="76.1695" gradientUnits="userSpaceOnUse">
<stop stop-color="#70B8F9"/>
<stop offset="1" stop-color="#3D82F0"/>
</linearGradient>
<linearGradient id="paint36_linear" x1="446.412" y1="92.919" x2="442.112" y2="96.2652" gradientUnits="userSpaceOnUse">
<stop stop-color="#2F71DA"/>
<stop offset="1" stop-color="#3D82F0"/>
</linearGradient>
<linearGradient id="paint37_linear" x1="450.293" y1="96.2769" x2="450.293" y2="76.3105" gradientUnits="userSpaceOnUse">
<stop stop-color="#EDF3FD"/>
<stop offset="1" stop-color="white"/>
</linearGradient>
<linearGradient id="paint38_linear" x1="444.877" y1="86.4056" x2="444.877" y2="98.3381" gradientUnits="userSpaceOnUse">
<stop stop-color="#70B8F9"/>
<stop offset="1" stop-color="#3D82F0"/>
</linearGradient>
<linearGradient id="paint39_linear" x1="480.027" y1="105.868" x2="493.639" y2="102.25" gradientUnits="userSpaceOnUse">
<stop stop-color="#CFDDF3"/>
<stop offset="1" stop-color="#A1B8E3"/>
</linearGradient>
<linearGradient id="paint40_linear" x1="494.39" y1="147.943" x2="526.953" y2="134.082" gradientUnits="userSpaceOnUse">
<stop stop-color="#EDF3FD"/>
<stop offset="1" stop-color="#D6E3FA"/>
</linearGradient>
<linearGradient id="paint41_linear" x1="502.317" y1="170.899" x2="517.355" y2="169.291" gradientUnits="userSpaceOnUse">
<stop stop-color="#D1DEF3" stop-opacity="0.126387"/>
<stop offset="1" stop-color="#A4BAE4"/>
</linearGradient>
<radialGradient id="paint42_radial" cx="0" cy="0" r="1" gradientUnits="userSpaceOnUse" gradientTransform="translate(483.803 30) rotate(90) scale(14.531 41.9401)">
<stop stop-color="#47689B"/>
<stop offset="1" stop-color="#223762"/>
</radialGradient>
<linearGradient id="paint43_linear" x1="517.22" y1="122.372" x2="503.603" y2="122.113" gradientUnits="userSpaceOnUse">
<stop stop-color="#0060C9"/>
<stop offset="1" stop-color="#3D82F0"/>
</linearGradient>
<linearGradient id="paint44_linear" x1="508.572" y1="122.357" x2="526.744" y2="113.209" gradientUnits="userSpaceOnUse">
<stop stop-color="#E3EDFE"/>
<stop offset="1" stop-color="#B8C8E6"/>
</linearGradient>
<linearGradient id="paint45_linear" x1="497.527" y1="92.9952" x2="487.658" y2="93.9509" gradientUnits="userSpaceOnUse">
<stop stop-color="#D2DFF5" stop-opacity="0.542714"/>
<stop offset="1" stop-color="#C5D5F5"/>
</linearGradient>
<linearGradient id="paint46_linear" x1="438.39" y1="60.6161" x2="438.39" y2="68.8858" gradientUnits="userSpaceOnUse">
<stop stop-color="#FFB417"/>
<stop offset="1" stop-color="#FECC4C"/>
</linearGradient>
<linearGradient id="paint47_linear" x1="444.822" y1="60.6145" x2="444.822" y2="68.8842" gradientUnits="userSpaceOnUse">
<stop stop-color="#FFB417"/>
<stop offset="1" stop-color="#FECC4C"/>
</linearGradient>
<linearGradient id="paint48_linear" x1="447.885" y1="67.6603" x2="447.885" y2="73.1735" gradientUnits="userSpaceOnUse">
<stop stop-color="#FFB417"/>
<stop offset="1" stop-color="#FECC4C"/>
</linearGradient>
<linearGradient id="paint49_linear" x1="461.999" y1="50.9215" x2="428.48" y2="81.7677" gradientUnits="userSpaceOnUse">
<stop stop-color="white" stop-opacity="0.01"/>
<stop offset="1" stop-color="#4C9CFE"/>
</linearGradient>
<linearGradient id="paint50_linear" x1="259.85" y1="83.9658" x2="259.85" y2="269.081" gradientUnits="userSpaceOnUse">
<stop stop-color="#CFDDF3"/>
<stop offset="1" stop-color="#A1B8E3"/>
</linearGradient>
<linearGradient id="paint51_linear" x1="259.428" y1="-21.8367" x2="295.42" y2="11.9103" gradientUnits="userSpaceOnUse">
<stop stop-color="#CFDDF3"/>
<stop offset="1" stop-color="#A1B8E3"/>
</linearGradient>
<linearGradient id="paint52_linear" x1="76.3309" y1="120.93" x2="89.2305" y2="73.3071" gradientUnits="userSpaceOnUse">
<stop stop-color="#CFDDF3"/>
<stop offset="1" stop-color="#A1B8E3"/>
</linearGradient>
<linearGradient id="paint53_linear" x1="94.6487" y1="168.31" x2="105.038" y2="120.078" gradientUnits="userSpaceOnUse">
<stop stop-color="#CFDDF3"/>
<stop offset="1" stop-color="#A1B8E3"/>
</linearGradient>
<linearGradient id="paint54_linear" x1="108.722" y1="209.249" x2="119.112" y2="161.017" gradientUnits="userSpaceOnUse">
<stop stop-color="#CFDDF3"/>
<stop offset="1" stop-color="#A1B8E3"/>
</linearGradient>
<linearGradient id="paint55_linear" x1="107.025" y1="-17.7112" x2="153.434" y2="-34.4597" gradientUnits="userSpaceOnUse">
<stop stop-color="#CFDDF3"/>
<stop offset="1" stop-color="#A1B8E3"/>
</linearGradient>
<linearGradient id="paint56_linear" x1="300.119" y1="30.5225" x2="329.011" y2="70.5172" gradientUnits="userSpaceOnUse">
<stop stop-color="#CFDDF3"/>
<stop offset="1" stop-color="#A1B8E3"/>
</linearGradient>
<linearGradient id="paint57_linear" x1="326.316" y1="80.8806" x2="350.869" y2="123.676" gradientUnits="userSpaceOnUse">
<stop stop-color="#CFDDF3"/>
<stop offset="1" stop-color="#A1B8E3"/>
</linearGradient>
<linearGradient id="paint58_linear" x1="330.164" y1="179.786" x2="299.385" y2="262.692" gradientUnits="userSpaceOnUse">
<stop stop-color="#CFDDF3"/>
<stop offset="1" stop-color="#A1B8E3"/>
</linearGradient>
<linearGradient id="paint59_linear" x1="347.566" y1="132.331" x2="358.075" y2="153.429" gradientUnits="userSpaceOnUse">
<stop stop-color="#CFDDF3"/>
<stop offset="1" stop-color="#A1B8E3"/>
</linearGradient>
<linearGradient id="paint60_linear" x1="241.826" y1="165.826" x2="255.521" y2="146.642" gradientUnits="userSpaceOnUse">
<stop stop-color="#CFDDF3"/>
<stop offset="1" stop-color="#A1B8E3"/>
</linearGradient>
<linearGradient id="paint61_linear" x1="242.152" y1="190.095" x2="254.824" y2="170.221" gradientUnits="userSpaceOnUse">
<stop stop-color="#CFDDF3"/>
<stop offset="1" stop-color="#A1B8E3"/>
</linearGradient>
<linearGradient id="paint62_linear" x1="241.648" y1="210.769" x2="254.321" y2="190.895" gradientUnits="userSpaceOnUse">
<stop stop-color="#CFDDF3"/>
<stop offset="1" stop-color="#A1B8E3"/>
</linearGradient>
<linearGradient id="paint63_linear" x1="278.624" y1="108.838" x2="302.194" y2="109.054" gradientUnits="userSpaceOnUse">
<stop stop-color="#CFDDF3"/>
<stop offset="1" stop-color="#A1B8E3"/>
</linearGradient>
<linearGradient id="paint64_linear" x1="357.085" y1="162.546" x2="363.375" y2="185.262" gradientUnits="userSpaceOnUse">
<stop stop-color="#CFDDF3"/>
<stop offset="1" stop-color="#A1B8E3"/>
</linearGradient>
<linearGradient id="paint65_linear" x1="360.445" y1="189.456" x2="364.325" y2="212.705" gradientUnits="userSpaceOnUse">
<stop stop-color="#CFDDF3"/>
<stop offset="1" stop-color="#A1B8E3"/>
</linearGradient>
</defs>
</svg>
